<svg width="8" height="8" viewBox="0 0 8 8" fill="none" xmlns="http://www.w3.org/2000/svg">
<g clip-path="url(#clip0_692_21124)">
<path d="M6.5 3.5L5 2L8 2L6.5 3.5Z" fill="#0C121C"/>
<path d="M1.5 0.5C1.5 0.223858 1.27614 0 1 0H0.5C0.223858 0 0 0.223858 0 0.5V3C0 3.27614 0.223858 3.5 0.5 3.5V3.5L0.75 3L1 1.5H3.25L3 3H0.75L0.5 3.5H3.0901C3.32844 3.5 3.53365 3.33177 3.58039 3.09806L3.88039 1.59806C3.94227 1.28866 3.70562 1 3.3901 1H3V1C3 0.723858 2.77614 0.5 2.5 0.5H1.5V0.5Z" fill="#0C121C"/>
<path d="M5.5 5C5.5 4.72386 5.27614 4.5 5 4.5H4.5C4.22386 4.5 4 4.72386 4 5V7.5C4 7.77614 4.22386 8 4.5 8V8L4.75 7.5L5 6H7.25L7 7.5H4.75L4.5 8H7.0901C7.32844 8 7.53365 7.83177 7.58039 7.59806L7.88039 6.09806C7.94227 5.78866 7.70562 5.5 7.3901 5.5H7V5.5C7 5.22386 6.77614 5 6.5 5H5.5V5Z" fill="#0C121C"/>
</g>
<defs>
<clipPath id="clip0_692_21124">
<rect width="8" height="8" fill="white"/>
</clipPath>
</defs>
</svg>
