<svg width="8" height="8" viewBox="0 0 8 8" fill="none" xmlns="http://www.w3.org/2000/svg">
<g clip-path="url(#clip0_716_19589)">
<path d="M5.5 2L7 0.5L7 3.5L5.5 2Z" fill="#0C121C"/>
<path d="M6.5 6.5L8 5L8 8L6.5 6.5Z" fill="#0C121C"/>
<path d="M0.25 1.25H3.5C3.63807 1.25 3.75 1.36193 3.75 1.5V3C3.75 3.13807 3.63807 3.25 3.5 3.25H0.5C0.361929 3.25 0.25 3.13807 0.25 3V1.25Z" stroke="#0C121C" stroke-width="0.5"/>
<path d="M0 0.5C0 0.223858 0.223858 0 0.5 0V3.5C0.223858 3.5 0 3.27614 0 3V0.5Z" fill="#0C121C"/>
<path d="M1.5 0.5C1.5 0.223858 1.27614 0 1 0H0.5V1H1.5V0.5Z" fill="#0C121C"/>
<path d="M1 0.5L1 1L3 1C3 0.723858 2.77614 0.5 2.5 0.5L1 0.5Z" fill="#0C121C"/>
<path d="M1.25 5.75H4.5C4.63807 5.75 4.75 5.86193 4.75 6V7.5C4.75 7.63807 4.63807 7.75 4.5 7.75H1.5C1.36193 7.75 1.25 7.63807 1.25 7.5V5.75Z" stroke="#0C121C" stroke-width="0.5"/>
<path d="M1 5C1 4.72386 1.22386 4.5 1.5 4.5V8C1.22386 8 1 7.77614 1 7.5V5Z" fill="#0C121C"/>
<path d="M2.5 5C2.5 4.72386 2.27614 4.5 2 4.5H1.5V5.5H2.5V5Z" fill="#0C121C"/>
<path d="M2 5L2 5.5L4 5.5C4 5.22386 3.77614 5 3.5 5L2 5Z" fill="#0C121C"/>
</g>
<defs>
<clipPath id="clip0_716_19589">
<rect width="8" height="8" fill="white"/>
</clipPath>
</defs>
</svg>
