<svg width="8" height="8" viewBox="0 0 8 8" fill="none" xmlns="http://www.w3.org/2000/svg">
<mask id="mask0_726_19917" style="mask-type:alpha" maskUnits="userSpaceOnUse" x="0" y="0" width="8" height="8">
<path fill-rule="evenodd" clip-rule="evenodd" d="M8 0H0V4H4.16667H5V4.66667V8H8V0Z" fill="#D9D9D9"/>
</mask>
<g mask="url(#mask0_726_19917)">
<path d="M5 3L5 -2.62268e-07L6 6.3573e-08L8 2L8 3L5 3Z" fill="#0C121C"/>
<rect width="6" height="1" fill="#0C121C"/>
<rect y="7" width="8" height="1" fill="#0C121C"/>
<rect y="7" width="6" height="1" transform="rotate(-90 0 7)" fill="#0C121C"/>
<rect x="7" y="7" width="4" height="1" transform="rotate(-90 7 7)" fill="#0C121C"/>
</g>
<path fill-rule="evenodd" clip-rule="evenodd" d="M0 6.5C0 6.5 0.811732 5 1.99999 5C3.18825 5 4 6.5 4 6.5C4 6.5 3.2127 8 1.99999 8C0.792172 8 0 6.5 0 6.5ZM2 7.25C2.41421 7.25 2.75 6.91421 2.75 6.5C2.75 6.08579 2.41421 5.75 2 5.75C1.58579 5.75 1.25 6.08579 1.25 6.5C1.25 6.91421 1.58579 7.25 2 7.25Z" fill="#0C121C"/>
</svg>
