<svg width="8" height="8" viewBox="0 0 8 8" fill="none" xmlns="http://www.w3.org/2000/svg">
<path fill-rule="evenodd" clip-rule="evenodd" d="M5.00008 5.70718L5.62124 6.32835L6.32835 5.62124L5.58585 4.87874C5.75966 4.61633 5.88527 4.31921 5.95007 4H7.00008V3H5.95007C5.88528 2.68083 5.75969 2.38374 5.58591 2.12135L6.32843 1.37883L5.62132 0.671724L4.87882 1.41423C4.6164 1.24042 4.31928 1.1148 4.00008 1.05001V0H3.00008V1.05001C2.68099 1.11478 2.38397 1.24032 2.12163 1.41403L1.37898 0.671387L0.671875 1.37849L1.41444 2.12106C1.24056 2.38352 1.1149 2.68071 1.05008 3H2.08543C2.1597 2.78987 2.27947 2.60122 2.43289 2.4459L2.44598 2.43282C2.71689 2.16521 3.08919 2 3.50008 2C3.90638 2 4.27496 2.16154 4.54508 2.42391L4.57617 2.455C4.83853 2.72512 5.00008 3.09369 5.00008 3.5V5.70718Z" fill="#0C121C"/>
<path d="M1.00014 5.00014L3.5 7.5" stroke="#0C121C"/>
<path d="M0 4L3 4L0 7V4Z" fill="#0C121C"/>
</svg>
