<svg width="8" height="8" viewBox="0 0 8 8" fill="none" xmlns="http://www.w3.org/2000/svg">
<path fill-rule="evenodd" clip-rule="evenodd" d="M1 5H0V2V1V0H8V1V2V7V8H7H4V7H5H7V2H1V4V5Z" fill="#0C121C"/>
<path fill-rule="evenodd" clip-rule="evenodd" d="M8 3.5H5.5V1H5V3.5H3V1H2.5V3.5H0V4H1H2.5H3H5V5.25V5.75V7V8H5.5V5.75H8V5.25H5.5V4H8V3.5Z" fill="#0C121C"/>
<path d="M3.95395 5.03012C3.7094 4.88056 2.8989 5.30076 2.33993 6.00584C1.77398 6.7038 1.67616 6.9317 1.67616 6.9317C1.67616 6.9317 0.991423 6.23374 0.551237 6.00584C0.194895 5.82779 -0.19638 6.36907 0.111052 6.70381C0.453419 7.08127 1.28488 8 1.70411 8C2.12333 8 2.35391 7.10975 2.85698 6.40467C3.41595 5.59988 4.1985 5.17969 3.95395 5.03012Z" fill="#0C121C"/>
</svg>
