<svg width="8" height="8" viewBox="0 0 8 8" fill="none" xmlns="http://www.w3.org/2000/svg">
<g clip-path="url(#clip0_753_20112)">
<path fill-rule="evenodd" clip-rule="evenodd" d="M8 3C8 2.44772 7.55228 2 7 2H6C6 1.44772 5.55228 1 5 1H3C3 0.447715 2.55228 0 2 0H1C0.447715 0 0 0.447715 0 1V3H2H4H7L6 6H4V7H5.88197C6.26074 7 6.607 6.786 6.77639 6.44721L7 6L8 3Z" fill="#0C121C"/>
<rect x="1" y="6" width="1" height="1" fill="#0C121C"/>
<rect x="1" y="5" width="1" height="3" fill="#0C121C"/>
<rect y="7" width="2" height="1" fill="#0C121C"/>
<rect y="7" width="1" height="1" fill="#0C121C"/>
<path d="M1.50024 4L3.00073 6L0 5.99976L1.50024 4Z" fill="#0C121C"/>
</g>
<defs>
<clipPath id="clip0_753_20112">
<rect width="8" height="8" fill="white"/>
</clipPath>
</defs>
</svg>
