<svg width="8" height="8" viewBox="0 0 8 8" fill="none" xmlns="http://www.w3.org/2000/svg">
<g clip-path="url(#clip0_771_23443)">
<path fill-rule="evenodd" clip-rule="evenodd" d="M5 0V6V8H8V0H5ZM0 5H3V0H0V5ZM1 1H2V3H1V1ZM6 1H7V3H6V1ZM6 6H7V7H6V6Z" fill="#0C121C"/>
<path d="M0 7C0 6.44772 0.447715 6 1 6H3C3.55228 6 4 6.44772 4 7C4 7.55228 3.55228 8 3 8H1C0.447715 8 0 7.55228 0 7Z" fill="#0C121C"/>
</g>
<defs>
<clipPath id="clip0_771_23443">
<rect width="8" height="8" fill="white"/>
</clipPath>
</defs>
</svg>
