<svg width="8" height="8" viewBox="0 0 8 8" fill="none" xmlns="http://www.w3.org/2000/svg">
<g clip-path="url(#clip0_772_23492)">
<path d="M3 1L3 2.57155e-08L4 1L3 1Z" fill="#0C121C"/>
<path d="M0 0H2V2H4V3H0V0Z" fill="#0C121C"/>
<path d="M7 6L7 5L8 6L7 6Z" fill="#0C121C"/>
<path d="M4 5H6V7H8V8H4V5Z" fill="#0C121C"/>
<path d="M2 6.5L1.5 6L0 7.5L0.5 8L2 6.5Z" fill="#0C121C"/>
<path d="M2.70711 6.70711C2.31658 7.09763 1.68342 7.09763 1.29289 6.70711C0.902369 6.31658 0.902369 5.68342 1.29289 5.29289C1.68342 4.90237 2.31658 4.90237 2.70711 5.29289C3.09763 5.68342 3.09763 6.31658 2.70711 6.70711Z" fill="#0C121C"/>
</g>
<defs>
<clipPath id="clip0_772_23492">
<rect width="8" height="8" fill="white"/>
</clipPath>
</defs>
</svg>
