<svg width="8" height="8" viewBox="0 0 8 8" fill="none" xmlns="http://www.w3.org/2000/svg">
<g clip-path="url(#clip0_783_24697)">
<path fill-rule="evenodd" clip-rule="evenodd" d="M7.0901 8C7.32844 8 7.53365 7.83177 7.58039 7.59806L7.88039 6.09806C7.94227 5.78866 7.70562 5.5 7.3901 5.5H7C7 5.22386 6.77614 5 6.5 5H5.5C5.5 4.72386 5.27614 4.5 5 4.5H4.5C4.22386 4.5 4 4.72386 4 5V6V7V7.5C4 7.77614 4.22386 8 4.5 8H7.0901ZM0 4H1V2H4V3C4 3.27614 4.22386 3.5 4.5 3.5H7.0901C7.32844 3.5 7.53365 3.33177 7.58039 3.09806L7.88039 1.59806C7.94227 1.28866 7.70562 1 7.3901 1H7C7 0.723858 6.77614 0.5 6.5 0.5H5.5C5.5 0.223858 5.27614 0 5 0H4.5C4.22386 0 4 0.223858 4 0.5V1H1V0H0V4ZM5 1.5L4.75 3H7L7.25 1.5H5ZM5 6L4.75 7.5H7L7.25 6H5Z" fill="#0C121C"/>
<rect x="1" y="6" width="2" height="2" fill="#0C121C"/>
<rect y="5" width="1" height="1" fill="#0C121C"/>
</g>
<defs>
<clipPath id="clip0_783_24697">
<rect width="8" height="8" fill="white"/>
</clipPath>
</defs>
</svg>
