<svg width="8" height="8" viewBox="0 0 8 8" fill="none" xmlns="http://www.w3.org/2000/svg">
<g clip-path="url(#clip0_787_25041)">
<path fill-rule="evenodd" clip-rule="evenodd" d="M1 3H0V2V1V0H8V1V2V7V8H7H3V7H4H7V2H1V3Z" fill="#0C121C"/>
<path d="M1 4L3 5H2H1.5H1H0.429702H0V4.5V4H0.429702H1Z" fill="#0C121C"/>
<path d="M0 6.5V6H3L1 7H0V6.5Z" fill="#0C121C"/>
<path d="M1 6.5H0V8H1V6.5Z" fill="#0C121C"/>
<path fill-rule="evenodd" clip-rule="evenodd" d="M6 3H5V4H6V3ZM6 5H5V6H6V5Z" fill="#0C121C"/>
</g>
<defs>
<clipPath id="clip0_787_25041">
<rect width="8" height="8" fill="white"/>
</clipPath>
</defs>
</svg>
