<svg width="8" height="8" viewBox="0 0 8 8" fill="none" xmlns="http://www.w3.org/2000/svg">
<g clip-path="url(#clip0_798_25607)">
<rect y="4" width="1" height="4" fill="#0C121C"/>
<path d="M2.5 5C2.5 6 2 6.5 1 6.5H0.5" stroke="#0C121C"/>
<path d="M2.5 8C2.5 7 2 6.5 1 6.5H0.5" stroke="#0C121C"/>
<path d="M7 7L7 0L5 8.74228e-08L5 1L6 1L6 0.5L6 1L6 1.5L6 2L5 2L5 3L6 3L6 4L5 4L5 5L6 5L6 6L5 6L5 7L7 7Z" fill="#0C121C"/>
<rect x="6" width="2" height="7" fill="#0C121C"/>
</g>
<defs>
<clipPath id="clip0_798_25607">
<rect width="8" height="8" fill="white"/>
</clipPath>
</defs>
</svg>
