<svg width="8" height="8" viewBox="0 0 8 8" fill="none" xmlns="http://www.w3.org/2000/svg">
<g clip-path="url(#clip0_799_21039)">
<path fill-rule="evenodd" clip-rule="evenodd" d="M2 3C0.895431 3 0 3.89543 0 5V4V2V1V0H1H7H8V1V2V4V7V8L7 8L5 8V7H7V4H3.73244C3.38663 3.4022 2.74028 3 2 3ZM7 1H1V2H7V1Z" fill="#0C121C"/>
<path d="M0 8C0 7.44772 0.447715 7 1 7H3C3.55228 7 4 7.44772 4 8H0Z" fill="#0C121C"/>
<circle cx="2" cy="5" r="1" fill="#0C121C"/>
</g>
<defs>
<clipPath id="clip0_799_21039">
<rect width="8" height="8" fill="white"/>
</clipPath>
</defs>
</svg>
