<svg width="8" height="8" viewBox="0 0 8 8" fill="none" xmlns="http://www.w3.org/2000/svg">
<g clip-path="url(#clip0_799_21073)">
<rect width="1" height="8" transform="matrix(-1 0 0 1 3 0)" fill="#0C121C"/>
<path d="M3 1H0V2H3V1Z" fill="#0C121C"/>
<path d="M4.47062 2.70046C4.00023 2.00001 3.00023 2.00001 3.00023 2.00001L2 2V1H3C3 1 4.00023 1.00001 4.47062 2.02029C4.94102 3.04058 4.47062 2.70046 4.47062 2.70046Z" fill="#0C121C"/>
<rect width="1" height="3" transform="matrix(-1 0 0 1 1 0)" fill="#0C121C"/>
<path d="M7 6L6 6L6 -1.11104e-07L7 0L7 6Z" fill="#0C121C"/>
<path fill-rule="evenodd" clip-rule="evenodd" d="M7 7.91465C7.5826 7.70873 8 7.15311 8 6.5C8 5.67157 7.32843 5 6.5 5C5.67157 5 5 5.67157 5 6.5C5 7.15311 5.4174 7.70873 6 7.91465V6H7V7.91465Z" fill="#0C121C"/>
</g>
<defs>
<clipPath id="clip0_799_21073">
<rect width="8" height="8" fill="white"/>
</clipPath>
</defs>
</svg>
