<svg width="8" height="8" viewBox="0 0 8 8" fill="none" xmlns="http://www.w3.org/2000/svg">
<g clip-path="url(#clip0_815_21927)">
<path fill-rule="evenodd" clip-rule="evenodd" d="M4.0009 0C3.44862 0 3.0009 0.447715 3.0009 1C3.0009 1.55228 3.44862 2 4.0009 2C4.55319 2 5.0009 1.55228 5.0009 1C5.0009 0.447715 4.55319 0 4.0009 0ZM4.26847 4C4.51853 3.56772 4.92573 3.23773 5.41197 3.08812C5.28658 3.03151 5.14742 3 5.0009 3H3.0009C2.85439 3 2.71523 3.03151 2.58984 3.08812C3.07608 3.23773 3.48328 3.56772 3.73334 4H4.26847Z" fill="#0C121C"/>
<path fill-rule="evenodd" clip-rule="evenodd" d="M6.0009 4C5.44862 4 5.0009 4.44772 5.0009 5C5.0009 5.55228 5.44862 6 6.0009 6C6.55319 6 7.0009 5.55228 7.0009 5C7.0009 4.44772 6.55319 4 6.0009 4ZM6.26847 8C6.51853 7.56772 6.92573 7.23773 7.41197 7.08812C7.28658 7.03151 7.14742 7 7.0009 7H5.0009C4.85439 7 4.71523 7.03151 4.58984 7.08812C5.07608 7.23773 5.48328 7.56772 5.73334 8H6.26847Z" fill="#0C121C"/>
<path fill-rule="evenodd" clip-rule="evenodd" d="M2.0009 4C1.44862 4 1.0009 4.44772 1.0009 5C1.0009 5.55228 1.44862 6 2.0009 6C2.55319 6 3.0009 5.55228 3.0009 5C3.0009 4.44772 2.55319 4 2.0009 4ZM2.26847 8C2.51853 7.56772 2.92573 7.23773 3.41197 7.08812C3.28658 7.03151 3.14742 7 3.0009 7H1.0009C0.854389 7 0.715233 7.03151 0.589844 7.08812C1.07608 7.23773 1.48328 7.56772 1.73334 8H2.26847Z" fill="#0C121C"/>
</g>
<defs>
<clipPath id="clip0_815_21927">
<rect width="8" height="8" fill="white"/>
</clipPath>
</defs>
</svg>
