<svg width="8" height="8" viewBox="0 0 8 8" fill="none" xmlns="http://www.w3.org/2000/svg">
<g clip-path="url(#clip0_820_22392)">
<path fill-rule="evenodd" clip-rule="evenodd" d="M1 0H2V1H1V4H3H4H5H7V1H6V0H7H8V1V4V5V6C8 7.10457 7.10457 8 6 8C4.89543 8 4 7.10457 4 6C4 7.10457 3.10457 8 2 8C0.895431 8 0 7.10457 0 6V5V4V1V0H1ZM5 5V6C5 6.55228 5.44772 7 6 7C6.55228 7 7 6.55228 7 6V5H5ZM1 5H3V6C3 6.55228 2.55228 7 2 7C1.44772 7 1 6.55228 1 6V5Z" fill="#0C121C"/>
</g>
<defs>
<clipPath id="clip0_820_22392">
<rect width="8" height="8" fill="white"/>
</clipPath>
</defs>
</svg>
