<svg width="8" height="8" viewBox="0 0 8 8" fill="none" xmlns="http://www.w3.org/2000/svg">
<g clip-path="url(#clip0_822_22636)">
<path fill-rule="evenodd" clip-rule="evenodd" d="M0 1V6V7H1H7H8V6V1V0H7H1H0V1ZM7 6V1H1V6H7Z" fill="#0C121C"/>
<path fill-rule="evenodd" clip-rule="evenodd" d="M3.25 3C3.5 3 3.5 3.00012 3.5 3.00024L3.5 3.00046L3.5 3.00085L3.49999 3.00144L3.49999 3.00174L3.50004 2.99991C3.50013 2.99736 3.50034 2.99247 3.50083 2.98559C3.50182 2.97172 3.50392 2.95029 3.50832 2.92391C3.51731 2.86997 3.53482 2.80187 3.56736 2.7368C3.5994 2.67271 3.64355 2.61622 3.70508 2.5752C3.76505 2.53522 3.85625 2.5 4 2.5C4.31412 2.5 4.40563 2.59946 4.44188 2.65987C4.49482 2.74812 4.5 2.86579 4.5 3C4.5 3.21008 4.44867 3.30841 4.37508 3.36728C4.28667 3.43801 4.10832 3.5 3.75 3.5V4C4.14168 4 4.46333 3.93699 4.68742 3.75772C4.92633 3.56659 5 3.28992 5 3L5.00001 2.98758C5.00019 2.86658 5.00056 2.61918 4.87062 2.40263C4.71937 2.15054 4.43588 2 4 2C3.76875 2 3.5787 2.05853 3.42773 2.15917C3.27833 2.25878 3.18185 2.38979 3.12014 2.5132C3.05893 2.63563 3.02957 2.75503 3.01512 2.84171C3.0078 2.88565 3.00404 2.92281 3.0021 2.94996C3.00113 2.96358 3.0006 2.97481 3.00032 2.98325L3.00006 2.99382L3.00001 2.99747L3 2.99888L3 2.99948V2.99975C3 2.99987 3 3 3.25 3ZM4.25 4.5H3.75V5H4.25V4.5Z" fill="#0C121C"/>
</g>
<defs>
<clipPath id="clip0_822_22636">
<rect width="8" height="8" fill="white"/>
</clipPath>
</defs>
</svg>
