<svg width="8" height="8" viewBox="0 0 8 8" fill="none" xmlns="http://www.w3.org/2000/svg">
<g clip-path="url(#clip0_829_23133)">
<path fill-rule="evenodd" clip-rule="evenodd" d="M5 0H6V1H8V2L3 2V1L5 1V0ZM4 3H7V5H4V3ZM0 6H8V8H0V6ZM1.5 7C1.5 7.27614 1.27614 7.5 1 7.5C0.723858 7.5 0.5 7.27614 0.5 7C0.5 6.72386 0.723858 6.5 1 6.5C1.27614 6.5 1.5 6.72386 1.5 7ZM3 7.5C3.27614 7.5 3.5 7.27614 3.5 7C3.5 6.72386 3.27614 6.5 3 6.5C2.72386 6.5 2.5 6.72386 2.5 7C2.5 7.27614 2.72386 7.5 3 7.5ZM5.5 7C5.5 7.27614 5.27614 7.5 5 7.5C4.72386 7.5 4.5 7.27614 4.5 7C4.5 6.72386 4.72386 6.5 5 6.5C5.27614 6.5 5.5 6.72386 5.5 7ZM7 7.5C7.27614 7.5 7.5 7.27614 7.5 7C7.5 6.72386 7.27614 6.5 7 6.5C6.72386 6.5 6.5 6.72386 6.5 7C6.5 7.27614 6.72386 7.5 7 7.5ZM2 3H0V5H2V3Z" fill="#0C121C"/>
</g>
<defs>
<clipPath id="clip0_829_23133">
<rect width="8" height="8" fill="white"/>
</clipPath>
</defs>
</svg>
