<svg width="8" height="8" viewBox="0 0 8 8" fill="none" xmlns="http://www.w3.org/2000/svg">
<g clip-path="url(#clip0_878_45260)">
<path fill-rule="evenodd" clip-rule="evenodd" d="M6 -0.000488281L8 1.5L6.00025 3.00024L6 -0.000488281ZM4 1.00024V0.000243513H1H0V1.00024H1H4ZM4 1.00024V2.00024V3.00024H5V2.00024L6 2.00024V1.00024H5L4 1.00024ZM5 6.00024V7.00024H7H8V6.00024V4.00024H7V6.00024H5ZM2 4.00073L2 3.00073L3 3.00073H4V4.00073V5.00073H3V4.00073H2ZM2 2L0 3.50049L1.99976 5.00073L2 2ZM2 6.00024L2 7.00024H1H0V6.00024V5.00024H1L1 6.00024H2ZM2 8.00097L4 6.50049L2.00024 5.00024L2 8.00097Z" fill="#0C121C"/>
</g>
<defs>
<clipPath id="clip0_878_45260">
<rect width="8" height="8" fill="white"/>
</clipPath>
</defs>
</svg>
