<svg width="8" height="8" viewBox="0 0 8 8" fill="none" xmlns="http://www.w3.org/2000/svg">
<g clip-path="url(#clip0_878_45360)">
<path fill-rule="evenodd" clip-rule="evenodd" d="M6.33993 1.00584C6.8989 0.300757 7.7094 -0.119439 7.95395 0.0301234C8.08638 0.111118 7.9176 0.271481 7.64623 0.529311C7.4165 0.747583 7.11324 1.03571 6.85698 1.40467C6.67561 1.65887 6.52965 1.93715 6.39751 2.18909C6.16313 2.63596 5.97219 3 5.70411 3C5.28669 3 4.46057 2.08916 4.1155 1.70871L4.11105 1.70381C3.80362 1.36907 4.1949 0.827788 4.55124 1.00584C4.99142 1.23374 5.67616 1.9317 5.67616 1.9317C5.67616 1.9317 5.77398 1.7038 6.33993 1.00584ZM3 0V1H1H0V0H1H3ZM5 7V6H7V3H8V6V7H7H5ZM2 3.00049L2 4.00049H3V5.00049H4V4.00049V3.00049H3L2 3.00049ZM0 3.50024L2 1.99976L1.99976 5.00049L0 3.50024ZM2 7L2 6H1L1 5H0V6V7H1H2ZM4 6.50024L2 8.00073L2.00024 5L4 6.50024Z" fill="#0C121C"/>
</g>
<defs>
<clipPath id="clip0_878_45360">
<rect width="8" height="8" fill="white"/>
</clipPath>
</defs>
</svg>
