<svg width="8" height="8" viewBox="0 0 8 8" fill="none" xmlns="http://www.w3.org/2000/svg">
<g clip-path="url(#clip0_879_24360)">
<path fill-rule="evenodd" clip-rule="evenodd" d="M4 7.73244C4.5978 7.38663 5 6.74028 5 6C5 4.89543 4.10457 4 3 4C1.89543 4 1 4.89543 1 6H4V6.5V7.73244ZM0 4H0.763894C1.31321 3.38625 2.1115 3 3 3C3.35064 3 3.68722 3.06015 4 3.17071V0H0V4ZM7.9998 7L5.4998 2L4.72656 3.54647C5.49673 4.08951 5.9998 4.986 5.9998 6C5.9998 6.35064 5.93965 6.68722 5.82909 7H7.9998ZM0 7H1V8H0V7ZM3 7H2V8H3V7Z" fill="#0C121C"/>
</g>
<defs>
<clipPath id="clip0_879_24360">
<rect width="8" height="8" fill="white"/>
</clipPath>
</defs>
</svg>
