<svg width="8" height="8" viewBox="0 0 8 8" fill="none" xmlns="http://www.w3.org/2000/svg">
<g clip-path="url(#clip0_676_19706)">
<path fill-rule="evenodd" clip-rule="evenodd" d="M4 0L2 1.5L4 3L4 2H5C5.71419 2 6.1881 2.12334 6.4871 2.37963C6.76948 2.62166 7 3.07524 7 4H8C8 2.92476 7.73052 2.12834 7.1379 1.62037C6.5619 1.12666 5.78581 1 5 1L4 1L4 0ZM3 6C2.28581 6 1.8119 5.87666 1.5129 5.62037C1.23052 5.37834 1 4.92476 1 4H0C0 5.07524 0.269476 5.87166 0.862104 6.37963C1.4381 6.87334 2.21419 7 3 7H4L4 8L6 6.5L4 5L4 6H3Z" fill="#0C121C"/>
</g>
<defs>
<clipPath id="clip0_676_19706">
<rect width="8" height="8" fill="white"/>
</clipPath>
</defs>
</svg>
