<svg width="8" height="8" viewBox="0 0 8 8" fill="none" xmlns="http://www.w3.org/2000/svg">
<g clip-path="url(#clip0_698_19638)">
<path d="M2.75 6.4268L1.49389 7.20549L0.25 6.42746V5.11039L1.49391 4.29818L2.75 5.11105V6.4268Z" stroke="#0C121C" stroke-width="0.5"/>
<path d="M7.75 6.4268L6.49389 7.20549L5.25 6.42746V5.11039L6.49391 4.29818L7.75 5.11105V6.4268Z" stroke="#0C121C" stroke-width="0.5"/>
<path d="M7.75 6.4268L6.49389 7.20549L5.25 6.42746V5.11039L6.49391 4.29818L7.75 5.11105V6.4268Z" fill="#0C121C" stroke="#0C121C" stroke-width="0.5"/>
<path d="M5.25 2.4268L3.99389 3.20549L2.75 2.42746V1.11039L3.99391 0.298177L5.25 1.11105V2.4268Z" stroke="#0C121C" stroke-width="0.5"/>
<path d="M5.25 2.4268L3.99389 3.20549L2.75 2.42746V1.11039L3.99391 0.298177L5.25 1.11105V2.4268Z" fill="#0C121C" stroke="#0C121C" stroke-width="0.5"/>
</g>
<defs>
<clipPath id="clip0_698_19638">
<rect width="8" height="8" fill="white"/>
</clipPath>
</defs>
</svg>
