<svg width="8" height="8" viewBox="0 0 8 8" fill="none" xmlns="http://www.w3.org/2000/svg">
<g clip-path="url(#clip0_716_19589)">
<path d="M5.5 2L7 0.5L7 3.5L5.5 2Z" fill="#0C121C"/>
<path d="M6.5 6.5L8 5L8 8L6.5 6.5Z" fill="#0C121C"/>
<path d="M1.5 0.5C1.5 0.223858 1.27614 0 1 0H0.5C0.223858 0 0 0.223858 0 0.5V3C0 3.27614 0.223858 3.5 0.5 3.5V3.5V3V1.5H3.5V3H0.5V3.5H3.5C3.77614 3.5 4 3.27614 4 3V1.5C4 1.22386 3.77614 1 3.5 1H3V1C3 0.723858 2.77614 0.5 2.5 0.5H1.5V0.5Z" fill="#0C121C"/>
<path d="M2.5 5C2.5 4.72386 2.27614 4.5 2 4.5H1.5C1.22386 4.5 1 4.72386 1 5V7.5C1 7.77614 1.22386 8 1.5 8V8V7.5V6H4.5V7.5H1.5V8H4.5C4.77614 8 5 7.77614 5 7.5V6C5 5.72386 4.77614 5.5 4.5 5.5H4V5.5C4 5.22386 3.77614 5 3.5 5H2.5V5Z" fill="#0C121C"/>
</g>
<defs>
<clipPath id="clip0_716_19589">
<rect width="8" height="8" fill="white"/>
</clipPath>
</defs>
</svg>
