<svg width="8" height="8" viewBox="0 0 8 8" fill="none" xmlns="http://www.w3.org/2000/svg">
<g clip-path="url(#clip0_720_19664)">
<path fill-rule="evenodd" clip-rule="evenodd" d="M0 1V4H1.625L1.90532 2.87873C1.96096 2.65615 2.16095 2.5 2.39039 2.5H3H6.35961C6.6849 2.5 6.92358 2.80569 6.84468 3.12127L6.09468 6.12127C6.03904 6.34385 5.83905 6.5 5.60961 6.5H4V7.5H6.15287C6.64171 7.5 7.0589 7.14659 7.13927 6.6644L7.80593 2.6644C7.90752 2.05487 7.43748 1.5 6.81954 1.5H6.5C6.5 1.22386 6.27614 1 6 1H3C3 0.447715 2.55228 0 2 0H1C0.447715 0 0 0.447715 0 1Z" fill="#0C121C"/>
<g clip-path="url(#clip1_720_19664)">
<path d="M3 6L1.5 7.5L6.05388e-08 8L0.5 6.5L2 5L3 6Z" fill="#0C121C"/>
</g>
</g>
<defs>
<clipPath id="clip0_720_19664">
<rect width="8" height="8" fill="white"/>
</clipPath>
<clipPath id="clip1_720_19664">
<rect width="3" height="3" fill="white" transform="translate(0 5)"/>
</clipPath>
</defs>
</svg>
