<svg width="8" height="8" viewBox="0 0 8 8" fill="none" xmlns="http://www.w3.org/2000/svg">
<g clip-path="url(#clip0_731_20331)">
<path d="M3.06066 3.06066C2.47487 3.64645 1.52513 3.64645 0.93934 3.06066C0.353553 2.47487 0.353553 1.52513 0.93934 0.93934C1.52513 0.353553 2.47487 0.353553 3.06066 0.93934C3.64645 1.52513 3.64645 2.47487 3.06066 3.06066Z" stroke="#0C121C"/>
<path d="M3 3.5L3.5 3L6 5.5L5.5 6L3 3.5Z" fill="#0C121C"/>
<path d="M4 5L5 4L7.99967 7.01747L7.0172 7.99992L4 5Z" fill="#0C121C"/>
<path d="M1 7L1 6L4 6L4 7L1 7Z" fill="#0C121C"/>
<path d="M1.09368e-08 6.50122L2 5L2 8L1.09368e-08 6.50122Z" fill="#0C121C"/>
</g>
<defs>
<clipPath id="clip0_731_20331">
<rect width="8" height="8" fill="white"/>
</clipPath>
</defs>
</svg>
