<svg width="8" height="8" viewBox="0 0 8 8" fill="none" xmlns="http://www.w3.org/2000/svg">
<circle cx="3.5" cy="3.5" r="2" stroke="#0C121C"/>
<path d="M2 3L2 4L8.22108e-08 4L0 3L2 3Z" fill="#0C121C"/>
<path d="M2.79297 2.08545L2.08586 2.79256L0.671648 1.37834L1.37876 0.671236L2.79297 2.08545Z" fill="#0C121C"/>
<path d="M3 5L4 5L4 7L3 7L3 5Z" fill="#0C121C"/>
<path d="M2.08594 4.20703L2.79304 4.91414L1.37883 6.32835L0.671724 5.62124L2.08594 4.20703Z" fill="#0C121C"/>
<path d="M7 3L7 4L5 4L5 3L7 3Z" fill="#0C121C"/>
<path d="M6.32812 5.62109L5.62102 6.3282L4.2068 4.91399L4.91391 4.20688L6.32812 5.62109Z" fill="#0C121C"/>
<path d="M3 3.69982e-08L4 3.02854e-08L4 2L3 2L3 3.69982e-08Z" fill="#0C121C"/>
<path d="M5.62109 0.671875L6.3282 1.37898L4.91399 2.7932L4.20688 2.08609L5.62109 0.671875Z" fill="#0C121C"/>
</svg>
