<svg width="8" height="8" viewBox="0 0 8 8" fill="none" xmlns="http://www.w3.org/2000/svg">
<path fill-rule="evenodd" clip-rule="evenodd" d="M1 4H0V2V1V0H8V1V2V7V8H7H3V7H7V2H1V4Z" fill="#0C121C"/>
<path fill-rule="evenodd" clip-rule="evenodd" d="M3 6H6V5H3V6ZM3 4H4V3H2V4H3Z" fill="#0C121C"/>
<path fill-rule="evenodd" clip-rule="evenodd" d="M0.5 6.00024C0.5 6.00012 0.5 6 0.25 6C-1.62921e-07 6 -1.33017e-07 5.99987 -4.36156e-08 5.99975L3.58704e-07 5.99948L2.13192e-06 5.99888L1.05659e-05 5.99747L5.52394e-05 5.99382L0.000321716 5.98325C0.000603095 5.97481 0.00112718 5.96358 0.0021 5.94996C0.00403958 5.92281 0.00779758 5.88565 0.0151201 5.84171C0.0295677 5.75503 0.0589287 5.63563 0.120143 5.5132C0.181847 5.38979 0.278328 5.25878 0.427731 5.15917C0.578699 5.05853 0.768754 5 1 5C1.43588 5 1.71937 5.15054 1.87062 5.40263C2.00055 5.61918 2.00019 5.86658 2.00001 5.98758C2.00001 5.99188 2 5.99602 2 6C2 6.28992 1.92633 6.56659 1.68742 6.75772C1.46333 6.93699 1.14168 7 0.75 7L0.75 6.5C1.10832 6.5 1.28667 6.43801 1.37508 6.36728C1.44867 6.30841 1.5 6.21008 1.5 6C1.5 5.86579 1.49482 5.74812 1.44188 5.65987C1.40563 5.59946 1.31412 5.5 1 5.5C0.856246 5.5 0.765051 5.53522 0.705081 5.5752C0.643546 5.61622 0.599403 5.67271 0.567357 5.7368C0.534821 5.80187 0.517307 5.86997 0.508317 5.92391C0.503921 5.95029 0.501819 5.97172 0.500829 5.98559C0.500337 5.99247 0.500129 5.99736 0.500044 5.99991L0.499992 6.00174C0.499993 6.00167 0.499994 6.00157 0.499995 6.00144L0.499998 6.00085L0.499999 6.00046L0.5 6.00024ZM0.49999 6.00188L0.499992 6.00174Z" fill="#0C121C"/>
<path d="M0.75 7.5H1.25V8H0.75V7.5Z" fill="#0C121C"/>
</svg>
