<svg width="8" height="8" viewBox="0 0 8 8" fill="none" xmlns="http://www.w3.org/2000/svg">
<g clip-path="url(#clip0_760_22885)">
<path fill-rule="evenodd" clip-rule="evenodd" d="M5 7.5H6.15287C6.64171 7.5 7.0589 7.14659 7.13927 6.6644L7.80593 2.6644C7.90752 2.05487 7.43748 1.5 6.81954 1.5H6.5C6.5 1.22386 6.27614 1 6 1H3C3 0.447715 2.55228 0 2 0H1C0.447715 0 0 0.447715 0 1V4H1H1.625L1.90532 2.87873C1.96096 2.65615 2.16095 2.5 2.39039 2.5H3H6.35961C6.6849 2.5 6.92358 2.80569 6.84468 3.12127L6.09468 6.12127C6.03904 6.34385 5.83905 6.5 5.60961 6.5H5V7.09091V7.5Z" fill="#0C121C"/>
<path d="M3 8H4L3 5H2L3 8Z" fill="#0C121C"/>
<rect y="7" width="1" height="1" fill="#0C121C"/>
<rect y="5" width="1" height="1" fill="#0C121C"/>
</g>
<defs>
<clipPath id="clip0_760_22885">
<rect width="8" height="8" fill="white"/>
</clipPath>
</defs>
</svg>
