<svg width="8" height="8" viewBox="0 0 8 8" fill="none" xmlns="http://www.w3.org/2000/svg">
<g clip-path="url(#clip0_772_23526)">
<path fill-rule="evenodd" clip-rule="evenodd" d="M4 7.73244C4.5978 7.38663 5 6.74028 5 6C5 5.25972 4.5978 4.61337 4 4.26756V7.73244ZM0.763894 4C1.31321 3.38625 2.1115 3 3 3C3.35064 3 3.68722 3.06015 4 3.17071V0H0V4H0.763894ZM7.9998 7L5.4998 2L4.72656 3.54647C5.49673 4.08951 5.9998 4.986 5.9998 6C5.9998 6.35064 5.93965 6.68722 5.82909 7H7.9998Z" fill="#0C121C"/>
<path d="M2 6C1.14286 6 0.5 6.16667 0.5 7.5" stroke="#0C121C" stroke-width="0.5"/>
<path d="M3 6L2 5L2 7L3 6Z" fill="#0C121C"/>
<path d="M3 6L2 5L2 7L3 6Z" fill="#0C121C"/>
</g>
<defs>
<clipPath id="clip0_772_23526">
<rect width="8" height="8" fill="white"/>
</clipPath>
</defs>
</svg>
