<svg width="8" height="8" viewBox="0 0 8 8" fill="none" xmlns="http://www.w3.org/2000/svg">
<g clip-path="url(#clip0_773_23842)">
<path fill-rule="evenodd" clip-rule="evenodd" d="M7 0V1H6V0H0V2H8V0H7ZM8 3H0V8H8V7V3ZM8 7H7L6 4H7L8 7ZM2 5.5C2 5.31929 2.02614 5.22443 2.04777 5.17754C2.06405 5.14225 2.08179 5.12316 2.11756 5.10331C2.16507 5.07696 2.25152 5.04707 2.40772 5.02693C2.56243 5.00697 2.75519 5 3.00002 5V4C2.74484 4 2.50009 4.00673 2.2798 4.03514C2.06099 4.06336 1.83494 4.11652 1.63244 4.22887C1.41821 4.34772 1.24845 4.52297 1.13973 4.75866C1.03636 4.98274 1 5.2355 1 5.5C1 5.7645 1.03636 6.01726 1.13972 6.24134C1.24843 6.47703 1.41817 6.65231 1.63239 6.77119C1.83488 6.88356 2.06094 6.93675 2.27976 6.96499C2.50007 6.99343 2.74482 7.00016 3.00002 7.00016V6.00016C2.75521 6.00016 2.56246 5.99319 2.40776 5.97322C2.25158 5.95306 2.16513 5.92317 2.11762 5.8968C2.08184 5.87694 2.06407 5.85783 2.04778 5.82251C2.02614 5.77558 2 5.68071 2 5.5ZM4 6H5V7H4V6ZM5 4H4V5H5V4Z" fill="#0C121C"/>
</g>
<defs>
<clipPath id="clip0_773_23842">
<rect width="8" height="8" fill="white"/>
</clipPath>
</defs>
</svg>
