<svg width="8" height="8" viewBox="0 0 8 8" fill="none" xmlns="http://www.w3.org/2000/svg">
<g clip-path="url(#clip0_787_24928)">
<path d="M4 3.17071V0H0V4H0.763894C1.31321 3.38625 2.1115 3 3 3C3.35064 3 3.68722 3.06015 4 3.17071Z" fill="#0C121C"/>
<path d="M7.9998 7L5.4998 2L4.72656 3.54647C5.49673 4.0895 5.9998 4.986 5.9998 6C5.9998 6.35064 5.93965 6.68722 5.82909 7H7.9998Z" fill="#0C121C"/>
<path d="M5 6C5 7.10457 4.10457 8 3 8C1.89543 8 1 7.10457 1 6C1 4.89543 1.89543 4 3 4C4.10457 4 5 4.89543 5 6Z" fill="#0C121C"/>
</g>
<defs>
<clipPath id="clip0_787_24928">
<rect width="8" height="8" fill="white"/>
</clipPath>
</defs>
</svg>
