<svg width="8" height="8" viewBox="0 0 8 8" fill="none" xmlns="http://www.w3.org/2000/svg">
<g clip-path="url(#clip0_788_25217)">
<path fill-rule="evenodd" clip-rule="evenodd" d="M5 0C5.27614 0 5.5 0.223858 5.5 0.5H6.5C6.77614 0.5 7 0.723858 7 1H7.3901C7.70562 1 7.94227 1.28866 7.88039 1.59806L7.58039 3.09806C7.53365 3.33177 7.32844 3.5 7.0901 3.5H4.5C4.22386 3.5 4 3.27614 4 3V0.5C4 0.223858 4.22386 0 4.5 0H5ZM5 1.5L4.75 3H7L7.25 1.5H5ZM5 4.5C5.27614 4.5 5.5 4.72386 5.5 5H6.5C6.77614 5 7 5.22386 7 5.5H7.3901C7.70562 5.5 7.94227 5.78866 7.88039 6.09806L7.58039 7.59806C7.53365 7.83177 7.32844 8 7.0901 8H4.5C4.22386 8 4 7.77614 4 7.5V5C4 4.72386 4.22386 4.5 4.5 4.5H5ZM5 6L4.75 7.5H7L7.25 6H5Z" fill="#0C121C"/>
<path d="M1 3H2L2 6H1L1 3Z" fill="#0C121C"/>
<path d="M1.49878 2L3 4L-1.04907e-07 4L1.49878 2Z" fill="#0C121C"/>
</g>
<defs>
<clipPath id="clip0_788_25217">
<rect width="8" height="8" fill="white"/>
</clipPath>
</defs>
</svg>
