<svg width="8" height="8" viewBox="0 0 8 8" fill="none" xmlns="http://www.w3.org/2000/svg">
<g clip-path="url(#clip0_810_21378)">
<path fill-rule="evenodd" clip-rule="evenodd" d="M8 0H0V1V2V7V8H1H7H8V7V2V1V0ZM1 7H7V2H1V7Z" fill="#0C121C"/>
<path fill-rule="evenodd" clip-rule="evenodd" d="M3 1H2.5V3.5H0V4H2.5V5.25H0V5.75H2.5V8H3V5.75H5V8H5.5V5.75H8V5.25H5.5V4H8V3.5H5.5V1H5V3.5H3V1ZM5 4H3V5.25H5V4Z" fill="#0C121C"/>
</g>
<defs>
<clipPath id="clip0_810_21378">
<rect width="8" height="8" fill="white"/>
</clipPath>
</defs>
</svg>
