<svg width="8" height="8" viewBox="0 0 8 8" fill="none" xmlns="http://www.w3.org/2000/svg">
<g clip-path="url(#clip0_866_23454)">
<path fill-rule="evenodd" clip-rule="evenodd" d="M4.0009 2C4.27705 2 4.5009 1.77614 4.5009 1.5C4.5009 1.22386 4.27705 1 4.0009 1C3.72476 1 3.5009 1.22386 3.5009 1.5C3.5009 1.77614 3.72476 2 4.0009 2ZM4.0009 3C4.82933 3 5.50091 2.32843 5.50091 1.5C5.50091 0.671573 4.82933 0 4.0009 0C3.17248 0 2.5009 0.671573 2.5009 1.5C2.5009 2.32843 3.17248 3 4.0009 3ZM6.0009 4C5.44862 4 5.0009 4.44772 5.0009 5C5.0009 5.55228 5.44862 6 6.0009 6C6.55319 6 7.00091 5.55228 7.00091 5C7.00091 4.44772 6.55319 4 6.0009 4ZM6.26847 8C6.51853 7.56772 6.92573 7.23773 7.41197 7.08812C7.28658 7.03151 7.14742 7 7.00091 7H5.0009C4.85439 7 4.71523 7.03151 4.58984 7.08812C5.07608 7.23773 5.48328 7.56772 5.73334 8H6.26847ZM1.0009 5C1.0009 4.44772 1.44862 4 2.0009 4C2.55319 4 3.0009 4.44772 3.0009 5C3.0009 5.55228 2.55319 6 2.0009 6C1.44862 6 1.0009 5.55228 1.0009 5ZM3.41197 7.08812C2.92573 7.23773 2.51853 7.56772 2.26847 8H1.73334C1.48328 7.56772 1.07608 7.23773 0.589844 7.08812C0.715233 7.03151 0.854389 7 1.0009 7H3.0009C3.14742 7 3.28658 7.03151 3.41197 7.08812Z" fill="#0C121C"/>
</g>
<defs>
<clipPath id="clip0_866_23454">
<rect width="8" height="8" fill="white"/>
</clipPath>
</defs>
</svg>
