<svg width="8" height="8" viewBox="0 0 8 8" fill="none" xmlns="http://www.w3.org/2000/svg">
<g clip-path="url(#clip0_868_23566)">
<path fill-rule="evenodd" clip-rule="evenodd" d="M8 0H0V8H8V0ZM2.96788 4.47C2.91988 4.306 2.89588 4.122 2.89588 3.918C2.89588 3.718 2.91988 3.536 2.96788 3.372C3.01988 3.204 3.09188 3.062 3.18388 2.946C3.27988 2.826 3.39588 2.734 3.53188 2.67C3.66788 2.602 3.82388 2.568 3.99988 2.568C4.17188 2.568 4.32588 2.6 4.46188 2.664C4.60188 2.728 4.71788 2.82 4.80988 2.94C4.90588 3.056 4.97788 3.198 5.02588 3.366C5.07788 3.53 5.10388 3.714 5.10388 3.918C5.10388 4.122 5.07788 4.306 5.02588 4.47C4.97788 4.634 4.90588 4.776 4.80988 4.896C4.71788 5.012 4.60188 5.102 4.46188 5.166C4.32588 5.23 4.17188 5.262 3.99988 5.262C3.82388 5.262 3.66788 5.23 3.53188 5.166C3.39588 5.102 3.27988 5.012 3.18388 4.896C3.09188 4.776 3.01988 4.634 2.96788 4.47ZM5.96188 4.71C6.03388 4.474 6.06988 4.21 6.06988 3.918C6.06988 3.562 6.01588 3.25 5.90788 2.982C5.79988 2.71 5.65188 2.482 5.46388 2.298C5.27588 2.114 5.05588 1.976 4.80388 1.884C4.55188 1.792 4.28388 1.746 3.99988 1.746C3.72388 1.746 3.45988 1.792 3.20788 1.884C2.95988 1.976 2.73988 2.114 2.54788 2.298C2.35988 2.482 2.20988 2.71 2.09788 2.982C1.98588 3.25 1.92988 3.562 1.92988 3.918C1.92988 4.238 1.97388 4.524 2.06188 4.776C2.14988 5.028 2.27188 5.244 2.42788 5.424C2.58388 5.604 2.76788 5.748 2.97988 5.856C3.19188 5.96 3.42188 6.028 3.66988 6.06C3.71788 6.228 3.78588 6.376 3.87388 6.504C3.96588 6.632 4.08788 6.74 4.23988 6.828C4.39588 6.916 4.58388 6.984 4.80388 7.032C5.02788 7.084 5.29588 7.116 5.60788 7.128L5.79988 6.444C5.63988 6.432 5.48988 6.418 5.34988 6.402C5.21388 6.386 5.09388 6.362 4.98988 6.33C4.88588 6.298 4.79988 6.256 4.73188 6.204C4.66388 6.156 4.61988 6.092 4.59988 6.012C4.81588 5.96 5.01388 5.876 5.19388 5.76C5.37388 5.644 5.52788 5.498 5.65588 5.322C5.78788 5.146 5.88988 4.942 5.96188 4.71Z" fill="#0C121C"/>
</g>
<defs>
<clipPath id="clip0_868_23566">
<rect width="8" height="8" fill="white"/>
</clipPath>
</defs>
</svg>
