<svg width="8" height="8" viewBox="0 0 8 8" fill="none" xmlns="http://www.w3.org/2000/svg">
<g clip-path="url(#clip0_879_24460)">
<path fill-rule="evenodd" clip-rule="evenodd" d="M4 8C4.90059 8 5.73167 7.70237 6.40023 7.20012L8 8V5V4C8 1.79086 6.20914 0 4 0C1.79086 0 0 1.79086 0 4C0 6.20914 1.79086 8 4 8ZM6.00069 5.00007C6.00069 5.50007 6.00069 6.50007 5.00069 7.00007C6.00069 7.00007 7.00069 5.50007 7.00069 4.50007C7.00069 3.50007 6.50069 2.00007 5.00134 2.00007V1.00007L2.00069 3.00007L5.00069 5.00007V4.00007C5.50069 4.00007 6.00069 4.50007 6.00069 5.00007Z" fill="#0C121C"/>
</g>
<defs>
<clipPath id="clip0_879_24460">
<rect width="8" height="8" fill="white"/>
</clipPath>
</defs>
</svg>
