<svg width="8" height="8" viewBox="0 0 8 8" fill="none" xmlns="http://www.w3.org/2000/svg">
<g clip-path="url(#clip0_884_24540)">
<path fill-rule="evenodd" clip-rule="evenodd" d="M5 5V0H8V8H5V5ZM3 0V4L2.07969 4.92031C1.74262 5.25738 1.2145 5.30967 0.817882 5.04525L0 4.5V0H3ZM2 1H1V3H2V1ZM7 1H6V3H7V1ZM7 6H6V7H7V6ZM2.33993 6.00584C2.8989 5.30076 3.7094 4.88056 3.95395 5.03012C4.08638 5.11112 3.9176 5.27148 3.64623 5.52931C3.4165 5.74758 3.11324 6.03571 2.85698 6.40467C2.67561 6.65887 2.52965 6.93715 2.39751 7.18909C2.16313 7.63596 1.97219 8 1.70411 8C1.28669 8 0.460572 7.08917 0.115502 6.70871L0.111052 6.70381C-0.19638 6.36907 0.194895 5.82779 0.551237 6.00584C0.991423 6.23374 1.67616 6.93169 1.67616 6.93169C1.67616 6.93169 1.77398 6.7038 2.33993 6.00584Z" fill="#0C121C"/>
</g>
<defs>
<clipPath id="clip0_884_24540">
<rect width="8" height="8" fill="white"/>
</clipPath>
</defs>
</svg>
