<svg width="8" height="8" viewBox="0 0 8 8" fill="none" xmlns="http://www.w3.org/2000/svg">
<g clip-path="url(#clip0_889_24919)">
<path fill-rule="evenodd" clip-rule="evenodd" d="M8 0H0V8H8V0ZM2.88269 5.52C3.23869 5.896 3.75469 6.084 4.43069 6.084C4.74669 6.084 5.02469 6.052 5.26469 5.988C5.50469 5.924 5.69069 5.852 5.82269 5.772L5.56469 5.022C5.51269 5.046 5.45469 5.072 5.39069 5.1C5.32669 5.128 5.25269 5.154 5.16869 5.178C5.08469 5.198 4.98869 5.216 4.88069 5.232C4.77269 5.248 4.65069 5.256 4.51469 5.256C4.29869 5.256 4.11469 5.222 3.96269 5.154C3.81069 5.082 3.68669 4.986 3.59069 4.866C3.49869 4.746 3.43069 4.604 3.38669 4.44C3.34669 4.272 3.32669 4.092 3.32669 3.9C3.32669 3.66 3.35869 3.456 3.42269 3.288C3.48669 3.12 3.57069 2.984 3.67469 2.88C3.78269 2.772 3.90469 2.694 4.04069 2.646C4.18069 2.598 4.32269 2.574 4.46669 2.574C4.68269 2.574 4.87469 2.598 5.04269 2.646C5.21469 2.694 5.36469 2.752 5.49269 2.82L5.76269 2.064C5.73069 2.044 5.67869 2.016 5.60669 1.98C5.53469 1.944 5.44469 1.91 5.33669 1.878C5.22869 1.842 5.10269 1.812 4.95869 1.788C4.81469 1.76 4.65469 1.746 4.47869 1.746C4.17469 1.746 3.89269 1.794 3.63269 1.89C3.37269 1.986 3.14869 2.128 2.96069 2.316C2.77269 2.5 2.62469 2.728 2.51669 3C2.40869 3.268 2.35469 3.574 2.35469 3.918C2.35469 4.61 2.53069 5.144 2.88269 5.52Z" fill="#0C121C"/>
</g>
<defs>
<clipPath id="clip0_889_24919">
<rect width="8" height="8" fill="white"/>
</clipPath>
</defs>
</svg>
