<svg width="32" height="32" viewBox="0 0 32 32" fill="none" xmlns="http://www.w3.org/2000/svg">
<g clip-path="url(#clip0_2016_10661)">
<path d="M23 0H4V32H28V5L23 0Z" fill="#FCFCFC" fill-opacity="0.75"/>
<path d="M5.5 1.5H21.7929L26.5 6.20711V30.5H5.5V1.5Z" fill="url(#paint0_linear_2016_10661)" stroke="#3A3A3A"/>
<path d="M21 1H22V6H27V7H21V1Z" fill="#3A3A3A"/>
</g>
<g clip-path="url(#clip1_2016_10661)">
<path d="M12 25L12 26L7 26L7 31L6 31L6 26L1 26L1 25L6 25L6 20L7 20L7 25L12 25Z" fill="#00A1DB"/>
<path d="M12.5 25L12.5 24.5L12 24.5L7.5 24.5L7.5 20L7.5 19.5L7 19.5L6 19.5L5.5 19.5L5.5 20L5.5 24.5L1 24.5L0.5 24.5L0.5 25L0.5 26L0.5 26.5L1 26.5L5.5 26.5L5.5 31L5.5 31.5L6 31.5L7 31.5L7.5 31.5L7.5 31L7.5 26.5L12 26.5L12.5 26.5L12.5 26L12.5 25Z" stroke="#FCFCFC" stroke-opacity="0.75"/>
</g>
<defs>
<linearGradient id="paint0_linear_2016_10661" x1="16" y1="1" x2="16" y2="31" gradientUnits="userSpaceOnUse">
<stop stop-color="#FCFCFC"/>
<stop offset="1" stop-color="#E6EAEA"/>
</linearGradient>
<clipPath id="clip0_2016_10661">
<rect width="24" height="32" fill="white" transform="translate(4)"/>
</clipPath>
<clipPath id="clip1_2016_10661">
<rect width="13" height="13" fill="white" transform="translate(0 19)"/>
</clipPath>
</defs>
</svg>
