<svg width="32" height="32" viewBox="0 0 32 32" fill="none" xmlns="http://www.w3.org/2000/svg">
<g clip-path="url(#clip0_2022_10680)">
<path d="M2 2H3V5H4V2H5V5H6V2H7V5H8V2H10L13 5V13H2V2Z" fill="#3A3A3A"/>
<path d="M2 1.5H1.5V2V13V13.5H2H13H13.5V13V5V4.79289L13.3536 4.64645L10.3536 1.64645L10.2071 1.5H10H8H7.5H7H6H5.5H5H4H3.5H3H2Z" stroke="#FCFCFC" stroke-opacity="0.75"/>
<rect x="3" y="6" width="8" height="6" fill="url(#paint0_linear_2022_10680)"/>
</g>
<g clip-path="url(#clip1_2022_10680)">
<path d="M18 22C18 20.8954 18.8954 20 20 20C21.1046 20 22 20.8954 22 22H25C25.5523 22 26 22.4477 26 23H27.162C28.5451 23 29.5106 24.3702 29.0455 25.6727L27.737 29.3363C27.5949 29.7343 27.2179 30 26.7953 30H20C18.8954 30 18 29.1046 18 28V22Z" fill="#F2994A"/>
<path d="M20 19.5C18.6193 19.5 17.5 20.6193 17.5 22V28C17.5 29.3807 18.6193 30.5 20 30.5H26.7953C27.4292 30.5 27.9947 30.1015 28.2079 29.5045L29.5163 25.8408C30.0978 24.2127 28.8908 22.5 27.162 22.5H26.4146C26.2087 21.9174 25.6531 21.5 25 21.5H22.45C22.2184 20.3589 21.2095 19.5 20 19.5Z" stroke="#FCFCFC" stroke-opacity="0.75"/>
<path d="M20.2862 24.7127C20.4131 24.2897 20.8024 24 21.244 24H27.0682C27.7633 24 28.2464 24.6916 28.0071 25.3443L26.9071 28.3443C26.7627 28.7381 26.3878 29 25.9682 29H20.344C19.6742 29 19.1937 28.3543 19.3862 27.7127L20.2862 24.7127Z" fill="url(#paint1_radial_2022_10680)"/>
</g>
<g clip-path="url(#clip2_2022_10680)">
<path d="M17 6H20C22.2091 6 24 7.79086 24 10V12H27L23.5 16L20 12H23V10C23 8.34315 21.6569 7 20 7H17V6Z" fill="#00A1DB"/>
<path d="M17 5.5H16.5V6V7V7.5H17H20C21.3807 7.5 22.5 8.61929 22.5 10V11.5H20H18.8981L19.6237 12.3293L23.1237 16.3293L23.5 16.7593L23.8763 16.3293L27.3763 12.3293L28.1019 11.5H27H24.5V10C24.5 7.51472 22.4853 5.5 20 5.5H17Z" stroke="#FCFCFC" stroke-opacity="0.75"/>
</g>
<defs>
<linearGradient id="paint0_linear_2022_10680" x1="7" y1="6" x2="7" y2="12" gradientUnits="userSpaceOnUse">
<stop stop-color="#FCFCFC"/>
<stop offset="1" stop-color="#E6EAEA"/>
</linearGradient>
<radialGradient id="paint1_radial_2022_10680" cx="0" cy="0" r="1" gradientUnits="userSpaceOnUse" gradientTransform="translate(23.337 29) rotate(-84.424) scale(6.37633 9.16659)">
<stop stop-color="#F2994A"/>
<stop offset="0.588115" stop-color="#F2C94C"/>
<stop offset="1" stop-color="#FCFCFC"/>
</radialGradient>
<clipPath id="clip0_2022_10680">
<rect width="13" height="13" fill="white" transform="translate(1 1)"/>
</clipPath>
<clipPath id="clip1_2022_10680">
<rect width="14" height="12" fill="white" transform="translate(17 19)"/>
</clipPath>
<clipPath id="clip2_2022_10680">
<rect width="14" height="13" fill="white" transform="translate(16 5)"/>
</clipPath>
</defs>
</svg>
