<svg width="32" height="32" viewBox="0 0 32 32" fill="none" xmlns="http://www.w3.org/2000/svg">
<g clip-path="url(#clip0_2029_10996)">
<path d="M15.9997 21.0005C14.8177 21.0005 13.7808 20.2123 13.4645 19.0735L9.99976 2.00025C9.84639 1.3356 10.3177 1.00073 10.9998 1.00073L16 17.0005L20.9984 1.00049C21.6805 1.00049 22.1517 1.33585 21.9984 2.00049L18.5349 19.0733C18.2187 20.2123 17.1817 21.0005 15.9997 21.0005Z" fill="#00A1DB"/>
<path d="M15 19.0001H17V21.0001L18.7019 21.851C18.8954 21.9478 19.0523 22.1047 19.1491 22.2982L20 24.0001V25.0001H19L16.7071 22.7072C16.3166 22.3167 15.6834 22.3167 15.2929 22.7072L13 25.0001H12V24.0001L12.8509 22.2982C12.9477 22.1047 13.1046 21.9478 13.2981 21.851L15 21.0001V19.0001Z" fill="#00A1DB"/>
<path fill-rule="evenodd" clip-rule="evenodd" d="M9 27.5001C9 28.8808 10.1193 30.0001 11.5 30.0001C12.8807 30.0001 14 28.8808 14 27.5001C14 26.1194 12.8807 25.0001 11.5 25.0001C10.1193 25.0001 9 26.1194 9 27.5001ZM11.5 24.0001C9.567 24.0001 8 25.5671 8 27.5001C8 29.4331 9.567 31.0001 11.5 31.0001C13.433 31.0001 15 29.4331 15 27.5001C15 25.5671 13.433 24.0001 11.5 24.0001Z" fill="#00A1DB"/>
<path fill-rule="evenodd" clip-rule="evenodd" d="M18 27.5001C18 28.8808 19.1193 30.0001 20.5 30.0001C21.8807 30.0001 23 28.8808 23 27.5001C23 26.1194 21.8807 25.0001 20.5 25.0001C19.1193 25.0001 18 26.1194 18 27.5001ZM20.5 24.0001C18.567 24.0001 17 25.5671 17 27.5001C17 29.4331 18.567 31.0001 20.5 31.0001C22.433 31.0001 24 29.4331 24 27.5001C24 25.5671 22.433 24.0001 20.5 24.0001Z" fill="#00A1DB"/>
<path d="M12.9745 19.173L12.978 19.1903L12.9827 19.2073C13.1735 19.8939 13.5842 20.4734 14.1261 20.878L13.0745 21.4038C12.7842 21.549 12.5489 21.7843 12.4037 22.0746L11.6888 23.5045C11.6262 23.5016 11.5633 23.5001 11.5 23.5001C9.29086 23.5001 7.5 25.291 7.5 27.5001C7.5 29.7092 9.29086 31.5001 11.5 31.5001C13.7091 31.5001 15.5 29.7092 15.5 27.5001C15.5 26.321 14.9898 25.2611 14.1782 24.529L15.6464 23.0608C15.8417 22.8655 16.1583 22.8655 16.3536 23.0608L17.8218 24.529C17.0102 25.2611 16.5 26.321 16.5 27.5001C16.5 29.7092 18.2909 31.5001 20.5 31.5001C22.7091 31.5001 24.5 29.7092 24.5 27.5001C24.5 25.291 22.7091 23.5001 20.5 23.5001C20.4367 23.5001 20.3738 23.5016 20.3112 23.5045L19.5963 22.0746C19.4511 21.7843 19.2158 21.549 18.9255 21.4038L17.8736 20.8779C18.4153 20.4732 18.826 19.8937 19.0167 19.2071L19.0214 19.1901L19.025 19.1728L22.4872 2.10589C22.5941 1.6335 22.4878 1.18965 22.1477 0.881007C21.8366 0.598621 21.4061 0.500488 20.9984 0.500488H20.6307L20.5211 0.851395L15.9999 15.324L11.477 0.851586L11.3674 0.500731H10.9998C10.5923 0.500731 10.1618 0.598666 9.85058 0.880877C9.51036 1.18943 9.404 1.63326 9.51096 2.10565L12.9745 19.173ZM18.5 27.5001C18.5 26.3955 19.3954 25.5001 20.5 25.5001C21.6046 25.5001 22.5 26.3955 22.5 27.5001C22.5 28.6047 21.6046 29.5001 20.5 29.5001C19.3954 29.5001 18.5 28.6047 18.5 27.5001ZM11.5 29.5001C10.3954 29.5001 9.5 28.6047 9.5 27.5001C9.5 26.3955 10.3954 25.5001 11.5 25.5001C12.6046 25.5001 13.5 26.3955 13.5 27.5001C13.5 28.6047 12.6046 29.5001 11.5 29.5001Z" stroke="#FCFCFC" stroke-opacity="0.75"/>
</g>
<defs>
<clipPath id="clip0_2029_10996">
<rect width="32" height="32" fill="white"/>
</clipPath>
</defs>
</svg>
