<svg width="32" height="32" viewBox="0 0 32 32" fill="none" xmlns="http://www.w3.org/2000/svg">
<g clip-path="url(#clip0_2032_11604)">
<path d="M9.33333 3H2.66667C1.19391 3 0 4.19391 0 5.66667V25C0 27.2091 1.79086 29 4 29H24.8464C26.696 29 28.3043 27.732 28.736 25.9335L32 12.3333C32 10.1242 30.2091 8.33333 28 8.33333C28 6.86057 26.8061 5.66667 25.3333 5.66667H12C12 4.19391 10.8061 3 9.33333 3Z" fill="#FCFCFC" fill-opacity="0.75"/>
<path d="M8 4H4C2.34315 4 1 5.34315 1 7V24C1 26.2091 2.79086 28 5 28H23.9269C25.7391 28 27.3249 26.7817 27.7918 25.0306L30.8806 13.4478C30.9599 13.1505 31 12.8442 31 12.5366C31 10.5834 29.4166 9 27.4634 9H27C27 7.89552 26.1046 7.00016 25.0002 7.00016H11C11 5.34331 9.65685 4 8 4Z" fill="#F2994A"/>
<path d="M4.48399 13.3589C4.78526 11.9817 6.00487 11 7.41469 11H26.5399C28.5278 11 29.966 12.8985 29.4278 14.8122L26.6153 24.8122C26.2514 26.1061 25.0714 27 23.7274 27H5.22719C3.31202 27 1.88722 25.2298 2.29649 23.3589L4.48399 13.3589Z" fill="url(#paint0_radial_2032_11604)"/>
</g>
<g clip-path="url(#clip1_2032_11604)">
<path d="M12 25L12 26L7 26L7 31L6 31L6 26L1 26L1 25L6 25L6 20L7 20L7 25L12 25Z" fill="#00A1DB"/>
<path d="M12.5 25L12.5 24.5L12 24.5L7.5 24.5L7.5 20L7.5 19.5L7 19.5L6 19.5L5.5 19.5L5.5 20L5.5 24.5L1 24.5L0.5 24.5L0.5 25L0.5 26L0.5 26.5L1 26.5L5.5 26.5L5.5 31L5.5 31.5L6 31.5L7 31.5L7.5 31.5L7.5 31L7.5 26.5L12 26.5L12.5 26.5L12.5 26L12.5 25Z" stroke="#FCFCFC" stroke-opacity="0.75"/>
</g>
<defs>
<radialGradient id="paint0_radial_2032_11604" cx="0" cy="0" r="1" gradientUnits="userSpaceOnUse" gradientTransform="translate(14.7391 27) rotate(-84.6793) scale(20.3956 27.9941)">
<stop stop-color="#FCFCFC"/>
<stop offset="1" stop-color="#F2C94C"/>
</radialGradient>
<clipPath id="clip0_2032_11604">
<rect width="32" height="26" fill="white" transform="translate(0 3)"/>
</clipPath>
<clipPath id="clip1_2032_11604">
<rect width="13" height="13" fill="white" transform="translate(0 19)"/>
</clipPath>
</defs>
</svg>
