<svg width="32" height="32" viewBox="0 0 32 32" fill="none" xmlns="http://www.w3.org/2000/svg">
<g clip-path="url(#clip0_2036_11120)">
<path d="M23 0H4V32H28V5L23 0Z" fill="#FCFCFC" fill-opacity="0.75"/>
<path d="M5.5 1.5H21.7929L26.5 6.20711V30.5H5.5V1.5Z" fill="url(#paint0_linear_2036_11120)" stroke="#3A3A3A"/>
<path d="M21 1H22V6H27V7H21V1Z" fill="#3A3A3A"/>
</g>
<g clip-path="url(#clip1_2036_11120)">
<path d="M6.99998 21C3.4352 21 1 26 1 26C1 26 3.37652 31 6.99998 31C10.6381 31 13 26 13 26C13 26 10.5648 21 6.99998 21Z" fill="#FCFCFC" fill-opacity="0.75"/>
<path d="M1 26L0.550481 25.781L0.445139 25.9973L0.548414 26.2146L1 26ZM1 26C0.548414 26.2146 0.548485 26.2148 0.548565 26.2149L0.548772 26.2154L0.549349 26.2166L0.55116 26.2203L0.557399 26.2332C0.562718 26.2442 0.57035 26.2597 0.580263 26.2795C0.600086 26.3192 0.629046 26.3762 0.66687 26.4479C0.742484 26.5914 0.853734 26.7944 0.99846 27.0372C1.28726 27.5217 1.71264 28.1701 2.25789 28.8211C3.32861 30.0993 4.95686 31.5 6.99998 31.5C9.05016 31.5 10.6784 30.0997 11.7479 28.8207C12.2923 28.1696 12.7164 27.5211 13.0041 27.0365C13.1482 26.7936 13.259 26.5905 13.3342 26.447C13.3719 26.3752 13.4007 26.3182 13.4204 26.2785C13.4303 26.2587 13.4379 26.2431 13.4432 26.2322L13.4494 26.2193L13.4512 26.2155L13.4517 26.2143L13.4519 26.2139C13.452 26.2137 13.4521 26.2135 13 26M1 26C0.550481 25.781 0.550552 25.7809 0.550632 25.7807L0.55084 25.7803L0.551423 25.7791L0.553263 25.7754L0.55962 25.7625L0.582947 25.7164C0.603173 25.6768 0.632721 25.6199 0.671273 25.5482C0.748344 25.405 0.861611 25.2022 1.00856 24.9596C1.30182 24.4756 1.73249 23.8279 2.28101 23.1776C3.35671 21.9024 4.98516 20.5 6.99998 20.5C9.01479 20.5 10.6433 21.9024 11.719 23.1776C12.2675 23.8279 12.6982 24.4756 12.9914 24.9596C13.1384 25.2022 13.2517 25.405 13.3287 25.5482C13.3673 25.6199 13.3968 25.6768 13.4171 25.7164L13.4404 25.7625L13.4467 25.7754L13.4486 25.7791L13.4492 25.7803L13.4494 25.7807C13.4494 25.7809 13.4495 25.781 13 26M13 26L13.4521 26.2135L13.5545 25.9967L13.4495 25.781L13 26Z" stroke="#FCFCFC" stroke-opacity="0.75"/>
<path d="M12.1362 25.4778C12.2667 25.6933 12.368 25.8739 12.4378 26.0031C12.3699 26.1319 12.2714 26.3117 12.1442 26.526C11.8753 26.9789 11.4815 27.5803 10.9807 28.1792C9.95971 29.4003 8.58792 30.5 6.99998 30.5C5.41963 30.5 4.0479 29.4007 3.02449 28.1789C2.52268 27.5798 2.12747 26.9782 1.85743 26.5252C1.72975 26.311 1.6308 26.1313 1.56249 26.0024C1.63232 25.8733 1.73351 25.6929 1.86383 25.4778C2.13858 25.0243 2.5395 24.4221 3.04538 23.8224C4.07848 22.5976 5.45001 21.5 6.99998 21.5C8.54995 21.5 9.92149 22.5976 10.9546 23.8224C11.4605 24.4221 11.8614 25.0243 12.1362 25.4778Z" fill="#D8D8D8" stroke="#3A3A3A"/>
<circle cx="7" cy="26" r="2" fill="#3A3A3A"/>
<circle cx="6.5" cy="25.5" r="0.5" fill="#D8D8D8"/>
</g>
<defs>
<linearGradient id="paint0_linear_2036_11120" x1="16" y1="1" x2="16" y2="31" gradientUnits="userSpaceOnUse">
<stop stop-color="#FCFCFC"/>
<stop offset="1" stop-color="#E6EAEA"/>
</linearGradient>
<clipPath id="clip0_2036_11120">
<rect width="24" height="32" fill="white" transform="translate(4)"/>
</clipPath>
<clipPath id="clip1_2036_11120">
<rect width="14" height="12" fill="white" transform="translate(0 20)"/>
</clipPath>
</defs>
</svg>
