<svg width="32" height="32" viewBox="0 0 32 32" fill="none" xmlns="http://www.w3.org/2000/svg">
<g clip-path="url(#clip0_2036_11192)">
<path d="M2 3.66667C2 2.19391 3.19391 1 4.66667 1H27.3333C28.8061 1 30 2.19391 30 3.66667V10.724C30 16.607 27.4099 22.1917 22.9188 25.9917L17.7457 30.369C17.2642 30.7764 16.6539 31 16.0232 31H15.9768C15.3461 31 14.7358 30.7764 14.2543 30.369L9.08116 25.9917C4.59014 22.1917 2 16.607 2 10.724V3.66667Z" fill="#FCFCFC" fill-opacity="0.75"/>
<path d="M4.66667 0.5C2.91777 0.5 1.5 1.91776 1.5 3.66667V10.724C1.5 16.7541 4.1549 22.4784 8.75818 26.3734L13.9313 30.7507C14.5031 31.2345 15.2278 31.5 15.9768 31.5H16.0232C16.7722 31.5 17.4969 31.2345 18.0687 30.7507L23.2418 26.3734C27.8451 22.4784 30.5 16.7541 30.5 10.724V3.66667C30.5 1.91777 29.0822 0.5 27.3333 0.5H4.66667Z" stroke="#FCFCFC" stroke-opacity="0.75"/>
<path d="M2.5 3.66667C2.5 2.47005 3.47005 1.5 4.66667 1.5H27.3333C28.53 1.5 29.5 2.47005 29.5 3.66667V10.724C29.5 16.46 26.9746 21.905 22.5959 25.6101L17.4227 29.9873C17.0315 30.3184 16.5356 30.5 16.0232 30.5H15.9768C15.4644 30.5 14.9685 30.3184 14.5773 29.9873L9.40413 25.6101C5.02539 21.905 2.5 16.46 2.5 10.724V3.66667Z" fill="url(#paint0_linear_2036_11192)" stroke="#919191"/>
<g clip-path="url(#clip1_2036_11192)">
<path d="M16 13C12.25 13 10 14.9 10 17V20H12V17H13V20H19V17H20V20H21.9997V17C21.9994 14.9 19.75 13 16 13Z" fill="#3A3A3A"/>
<path d="M9.5 20V20.5H10H12H12.5H13H19H19.5H20H21.9997H22.4997V20V17V16.9999C22.4994 14.4822 19.8591 12.5 16 12.5C12.1411 12.5 9.5 14.4821 9.5 17V20Z" stroke="#FCFCFC" stroke-opacity="0.75"/>
<circle cx="16" cy="9" r="3" fill="#3A3A3A"/>
<circle cx="16" cy="9" r="3.5" stroke="#FCFCFC" stroke-opacity="0.75"/>
</g>
</g>
<defs>
<linearGradient id="paint0_linear_2036_11192" x1="16" y1="1" x2="16" y2="31" gradientUnits="userSpaceOnUse">
<stop stop-color="#F4F7F6"/>
<stop offset="1" stop-color="#D8D8D8"/>
</linearGradient>
<clipPath id="clip0_2036_11192">
<rect width="32" height="32" fill="white"/>
</clipPath>
<clipPath id="clip1_2036_11192">
<rect width="14" height="16" fill="white" transform="translate(9 5)"/>
</clipPath>
</defs>
</svg>
