<svg width="32" height="32" viewBox="0 0 32 32" fill="none" xmlns="http://www.w3.org/2000/svg">
<g clip-path="url(#clip0_2039_11840)">
<path d="M23 0H4V32H28V5L23 0Z" fill="#FCFCFC" fill-opacity="0.75"/>
<path d="M5.5 1.5H21.7929L26.5 6.20711V30.5H5.5V1.5Z" fill="url(#paint0_linear_2039_11840)" stroke="#3A3A3A"/>
<path d="M21 1H22V6H27V7H21V1Z" fill="#3A3A3A"/>
</g>
<g clip-path="url(#clip1_2039_11840)">
<path d="M2 24V19H9L11 21V24H12C12.5523 24 13 24.4477 13 25V30C13 30.5523 12.5523 31 12 31H11C11 31.5523 10.5523 32 10 32H3C2.44772 32 2 31.5523 2 31H1C0.447715 31 0 30.5523 0 30V25C0 24.4477 0.447715 24 1 24H2Z" fill="#FCFCFC" fill-opacity="0.75"/>
<path d="M3.5 20.5H7.4817L9.5 22.23V26.5H3.5V20.5Z" fill="#FCFCFC" stroke="#919191"/>
<path d="M10 30C10 30.5523 9.55228 31 9 31L4 31C3.44772 31 3 30.5523 3 30L10 30Z" fill="#3A3A3A"/>
<path d="M10 26L10 30L2 30C1.44771 30 1 29.5523 1 29L1 26L10 26Z" fill="#3A3A3A"/>
<path d="M12 26L12 29C12 29.5523 11.5523 30 11 30L10 30L10 28L11 28L11 27L10 27L10 26L12 26Z" fill="#3A3A3A"/>
<path d="M11 25C11.5523 25 12 25.4477 12 26L1 26C1 25.4477 1.44772 25 2 25L11 25Z" fill="#919191"/>
<path d="M10 29C10.5523 29 11 29.4477 11 30L2 30C2 29.4477 2.44771 29 3 29L10 29Z" fill="#919191"/>
</g>
<defs>
<linearGradient id="paint0_linear_2039_11840" x1="16" y1="1" x2="16" y2="31" gradientUnits="userSpaceOnUse">
<stop stop-color="#FCFCFC"/>
<stop offset="1" stop-color="#E6EAEA"/>
</linearGradient>
<clipPath id="clip0_2039_11840">
<rect width="24" height="32" fill="white" transform="translate(4)"/>
</clipPath>
<clipPath id="clip1_2039_11840">
<rect width="13" height="13" fill="white" transform="translate(0 19)"/>
</clipPath>
</defs>
</svg>
