<svg width="32" height="32" viewBox="0 0 32 32" fill="none" xmlns="http://www.w3.org/2000/svg">
<g clip-path="url(#clip0_2045_12117)">
<g clip-path="url(#clip1_2045_12117)">
<path d="M10.7418 29.0355L10.0347 29.7426L6.49917 26.2071L2.96364 29.7426L2.25653 29.0355L5.79207 25.5L2.25653 21.9645L2.96364 21.2574L6.49917 24.7929L10.0347 21.2574L10.7418 21.9645L7.20628 25.5L10.7418 29.0355Z" fill="#EA212D"/>
<path d="M11.0954 29.3891L11.4489 29.0355L11.0954 28.682L7.91339 25.5L11.0954 22.318L11.4489 21.9645L11.0954 21.6109L10.3883 20.9038L10.0347 20.5503L9.68115 20.9038L6.49917 24.0858L3.31719 20.9038L2.96364 20.5502L2.61009 20.9038L1.90298 21.6109L1.54942 21.9645L1.90298 22.318L5.08496 25.5L1.90298 28.682L1.54942 29.0355L1.90298 29.3891L2.61008 30.0962L2.96364 30.4497L3.31719 30.0962L6.49917 26.9142L9.68115 30.0962L10.0347 30.4497L10.3883 30.0962L11.0954 29.3891Z" stroke="#FCFCFC" stroke-opacity="0.75"/>
</g>
</g>
<path d="M12 9H23V22H22V10H12V9Z" fill="#F2994A"/>
<path d="M12 8.5H11.5V9V10V10.5H12H21.5V22V22.5H22H23H23.5V22V9V8.5H23H12Z" stroke="#FCFCFC" stroke-opacity="0.75"/>
<g clip-path="url(#clip2_2045_12117)">
<path d="M3 5C3 3.89543 3.89543 3 5 3C6.10457 3 7 3.89543 7 5H10C10.5523 5 11 5.44772 11 6H12.162C13.5451 6 14.5106 7.37018 14.0455 8.67267L12.737 12.3363C12.5949 12.7343 12.2179 13 11.7953 13H5C3.89543 13 3 12.1046 3 11V5Z" fill="#F2994A"/>
<path d="M5 2.5C3.61929 2.5 2.5 3.61929 2.5 5V11C2.5 12.3807 3.61929 13.5 5 13.5H11.7953C12.4292 13.5 12.9947 13.1015 13.2079 12.5045L14.5163 8.84084C15.0978 7.21273 13.8908 5.5 12.162 5.5H11.4146C11.2087 4.9174 10.6531 4.5 10 4.5H7.44999C7.21836 3.35888 6.20948 2.5 5 2.5Z" stroke="#FCFCFC" stroke-opacity="0.75"/>
<path d="M5.2862 7.71265C5.4131 7.28967 5.80242 7 6.24403 7H12.0682C12.7633 7 13.2464 7.69164 13.0071 8.34425L11.9071 11.3443C11.7627 11.7381 11.3878 12 10.9682 12H5.34403C4.67417 12 4.19372 11.3543 4.3862 10.7127L5.2862 7.71265Z" fill="url(#paint0_radial_2045_12117)"/>
</g>
<g clip-path="url(#clip3_2045_12117)">
<path d="M18 21C18 19.8954 18.8954 19 20 19C21.1046 19 22 19.8954 22 21H25C25.5523 21 26 21.4477 26 22H27.162C28.5451 22 29.5106 23.3702 29.0455 24.6727L27.737 28.3363C27.5949 28.7343 27.2179 29 26.7953 29H20C18.8954 29 18 28.1046 18 27V21Z" fill="#F2994A"/>
<path d="M20 18.5C18.6193 18.5 17.5 19.6193 17.5 21V27C17.5 28.3807 18.6193 29.5 20 29.5H26.7953C27.4292 29.5 27.9947 29.1015 28.2079 28.5045L29.5163 24.8408C30.0978 23.2127 28.8908 21.5 27.162 21.5H26.4146C26.2087 20.9174 25.6531 20.5 25 20.5H22.45C22.2184 19.3589 21.2095 18.5 20 18.5Z" stroke="#FCFCFC" stroke-opacity="0.75"/>
<path d="M20.2862 23.7127C20.4131 23.2897 20.8024 23 21.244 23H27.0682C27.7633 23 28.2464 23.6916 28.0071 24.3443L26.9071 27.3443C26.7627 27.7381 26.3878 28 25.9682 28H20.344C19.6742 28 19.1937 27.3543 19.3862 26.7127L20.2862 23.7127Z" fill="url(#paint1_radial_2045_12117)"/>
</g>
<defs>
<radialGradient id="paint0_radial_2045_12117" cx="0" cy="0" r="1" gradientUnits="userSpaceOnUse" gradientTransform="translate(8.33696 12) rotate(-84.424) scale(6.37633 9.16659)">
<stop stop-color="#F2994A"/>
<stop offset="0.588115" stop-color="#F2C94C"/>
<stop offset="1" stop-color="#FCFCFC"/>
</radialGradient>
<radialGradient id="paint1_radial_2045_12117" cx="0" cy="0" r="1" gradientUnits="userSpaceOnUse" gradientTransform="translate(23.337 28) rotate(-84.424) scale(6.37633 9.16659)">
<stop stop-color="#F2994A"/>
<stop offset="0.588115" stop-color="#F2C94C"/>
<stop offset="1" stop-color="#FCFCFC"/>
</radialGradient>
<clipPath id="clip0_2045_12117">
<rect width="13" height="13" fill="white" transform="translate(0 19)"/>
</clipPath>
<clipPath id="clip1_2045_12117">
<rect width="13" height="13" fill="white" transform="translate(6.5 16.3076) rotate(45)"/>
</clipPath>
<clipPath id="clip2_2045_12117">
<rect width="14" height="12" fill="white" transform="translate(2 2)"/>
</clipPath>
<clipPath id="clip3_2045_12117">
<rect width="14" height="12" fill="white" transform="translate(17 18)"/>
</clipPath>
</defs>
</svg>
