<svg width="32" height="32" viewBox="0 0 32 32" fill="none" xmlns="http://www.w3.org/2000/svg">
<g clip-path="url(#clip0_2045_12243)">
<path d="M9.33333 3H2.66667C1.19391 3 0 4.19391 0 5.66667V25C0 27.2091 1.79086 29 4 29H28C30.2091 29 32 27.2091 32 25V12.3333C32 10.1242 30.2091 8.33333 28 8.33333C28 6.86057 26.8061 5.66667 25.3333 5.66667H12C12 4.19391 10.8061 3 9.33333 3Z" fill="#FCFCFC" fill-opacity="0.75"/>
<path d="M8 4H4C2.34315 4 1 5.34315 1 7V24C1 26.2091 2.79086 28 5 28H27C29.2091 28 31 26.2091 31 24V13C31 10.7909 29.2091 9 27 9C27 7.89552 26.1046 7.00016 25.0002 7.00016H11C11 5.34331 9.65685 4 8 4Z" fill="#F2994A"/>
<path d="M2 14C2 12.3431 3.34315 11 5 11H27C28.6569 11 30 12.3431 30 14V24C30 25.6569 28.6569 27 27 27H5C3.34315 27 2 25.6569 2 24V14Z" fill="url(#paint0_radial_2045_12243)"/>
</g>
<defs>
<radialGradient id="paint0_radial_2045_12243" cx="0" cy="0" r="1" gradientUnits="userSpaceOnUse" gradientTransform="translate(14.7826 27) rotate(-84.8617) scale(20.3896 27.0367)">
<stop stop-color="#FCFCFC"/>
<stop offset="1" stop-color="#F2C94C"/>
</radialGradient>
<clipPath id="clip0_2045_12243">
<rect width="32" height="26" fill="white" transform="translate(0 3)"/>
</clipPath>
</defs>
</svg>
