<svg width="32" height="32" viewBox="0 0 32 32" fill="none" xmlns="http://www.w3.org/2000/svg">
<g clip-path="url(#clip0_2050_12117)">
<g clip-path="url(#clip1_2050_12117)">
<rect x="1" y="2" width="10" height="28" rx="2" fill="#FCFCFC" fill-opacity="0.75"/>
<path d="M2 4C2 3.44772 2.44772 3 3 3H9C9.55228 3 10 3.44772 10 4V6H2V4Z" fill="#919191"/>
<rect x="2" y="14" width="8" height="5" fill="#919191"/>
<rect x="2" y="21" width="8" height="2" fill="#919191"/>
<path d="M2 25H10V28C10 28.5523 9.55228 29 9 29H3C2.44772 29 2 28.5523 2 28V25Z" fill="#919191"/>
<rect x="2.5" y="3.5" width="7" height="25" rx="0.5" stroke="#3A3A3A"/>
</g>
<g clip-path="url(#clip2_2050_12117)">
<rect x="11" y="2" width="10" height="28" rx="2" fill="#FCFCFC" fill-opacity="0.75"/>
<path d="M12 4C12 3.44772 12.4477 3 13 3H19C19.5523 3 20 3.44772 20 4V6H12V4Z" fill="#919191"/>
<rect x="12" y="14" width="8" height="5" fill="#919191"/>
<rect x="12" y="21" width="8" height="2" fill="#919191"/>
<path d="M12 25H20V28C20 28.5523 19.5523 29 19 29H13C12.4477 29 12 28.5523 12 28V25Z" fill="#919191"/>
<rect x="12.5" y="3.5" width="7" height="25" rx="0.5" stroke="#3A3A3A"/>
</g>
<g clip-path="url(#clip3_2050_12117)">
<rect x="21" y="2" width="10" height="28" rx="2" fill="#FCFCFC" fill-opacity="0.75"/>
<path d="M22 4C22 3.44772 22.4477 3 23 3H29C29.5523 3 30 3.44772 30 4V6H22V4Z" fill="#919191"/>
<rect x="22" y="14" width="8" height="5" fill="#919191"/>
<rect x="22" y="21" width="8" height="2" fill="#919191"/>
<path d="M22 25H30V28C30 28.5523 29.5523 29 29 29H23C22.4477 29 22 28.5523 22 28V25Z" fill="#919191"/>
<rect x="22.5" y="3.5" width="7" height="25" rx="0.5" stroke="#3A3A3A"/>
</g>
<g clip-path="url(#clip4_2050_12117)">
<path d="M1 23C1 21.8954 1.89543 21 3 21C4.10457 21 5 21.8954 5 23H8C8.55228 23 9 23.4477 9 24H10.162C11.5451 24 12.5106 25.3702 12.0455 26.6727L10.737 30.3363C10.5949 30.7343 10.2179 31 9.79528 31H3C1.89543 31 1 30.1046 1 29V23Z" fill="#F2994A"/>
<path d="M3 20.5C1.61929 20.5 0.5 21.6193 0.5 23V29C0.5 30.3807 1.61929 31.5 3 31.5H9.79528C10.4292 31.5 10.9947 31.1015 11.2079 30.5045L12.5163 26.8408C13.0978 25.2127 11.8908 23.5 10.162 23.5H9.41465C9.20873 22.9174 8.65311 22.5 8 22.5H5.44999C5.21836 21.3589 4.20948 20.5 3 20.5Z" stroke="#FCFCFC" stroke-opacity="0.75"/>
<path d="M3.2862 25.7127C3.4131 25.2897 3.80242 25 4.24403 25H10.0682C10.7633 25 11.2464 25.6916 11.0071 26.3443L9.90711 29.3443C9.76268 29.7381 9.38776 30 8.96823 30H3.34403C2.67417 30 2.19372 29.3543 2.3862 28.7127L3.2862 25.7127Z" fill="url(#paint0_radial_2050_12117)"/>
</g>
</g>
<defs>
<radialGradient id="paint0_radial_2050_12117" cx="0" cy="0" r="1" gradientUnits="userSpaceOnUse" gradientTransform="translate(6.33696 30) rotate(-84.424) scale(6.37633 9.16659)">
<stop stop-color="#F2994A"/>
<stop offset="0.588115" stop-color="#F2C94C"/>
<stop offset="1" stop-color="#FCFCFC"/>
</radialGradient>
<clipPath id="clip0_2050_12117">
<rect width="32" height="32" fill="white"/>
</clipPath>
<clipPath id="clip1_2050_12117">
<rect width="10" height="28" fill="white" transform="translate(1 2)"/>
</clipPath>
<clipPath id="clip2_2050_12117">
<rect width="10" height="28" fill="white" transform="translate(11 2)"/>
</clipPath>
<clipPath id="clip3_2050_12117">
<rect width="10" height="28" fill="white" transform="translate(21 2)"/>
</clipPath>
<clipPath id="clip4_2050_12117">
<rect width="14" height="12" fill="white" transform="translate(0 20)"/>
</clipPath>
</defs>
</svg>
