<svg width="32" height="32" viewBox="0 0 32 32" fill="none" xmlns="http://www.w3.org/2000/svg">
<g clip-path="url(#clip0_2060_13947)">
<path fill-rule="evenodd" clip-rule="evenodd" d="M4 22C4 17.0294 8.02944 13 13 13H19V15H13C9.13401 15 6 18.134 6 22V28C6 28.5523 5.55228 29 5 29C4.44772 29 4 28.5523 4 28V22Z" fill="#00A1DB"/>
<path d="M19.5 13V12.5H19H13C7.7533 12.5 3.5 16.7533 3.5 22V28C3.5 28.8284 4.17157 29.5 5 29.5C5.82843 29.5 6.5 28.8284 6.5 28V22C6.5 18.4101 9.41015 15.5 13 15.5H19H19.5V15V13Z" stroke="#FCFCFC" stroke-opacity="0.75"/>
<g clip-path="url(#clip1_2060_13947)">
<path d="M29 14L19.7071 4.70711C19.0771 4.07714 18 4.52331 18 5.41421V22.5858C18 23.4767 19.0771 23.9229 19.7071 23.2929L29 14Z" fill="#FCFCFC" fill-opacity="0.75"/>
<path d="M29.3536 13.6464L29.7071 14L29.3536 14.3536L20.0607 23.6464C19.1157 24.5914 17.5 23.9221 17.5 22.5858V5.41421C17.5 4.07785 19.1157 3.40861 20.0607 4.35355L29.3536 13.6464Z" stroke="#FCFCFC" stroke-opacity="0.75"/>
<path d="M19.3536 22.9393L28.2929 14L19.3536 5.06066C19.0386 4.74568 18.5 4.96876 18.5 5.41421V22.5858C18.5 23.0312 19.0386 23.2543 19.3536 22.9393Z" fill="#94E1FC" stroke="#00A1DB"/>
</g>
<rect x="17" y="13" width="2" height="2" fill="#00A1DB"/>
</g>
<defs>
<clipPath id="clip0_2060_13947">
<rect width="32" height="32" fill="white"/>
</clipPath>
<clipPath id="clip1_2060_13947">
<rect width="22" height="14" fill="white" transform="matrix(-4.37114e-08 1 1 4.37114e-08 17 3)"/>
</clipPath>
</defs>
</svg>
