<svg width="32" height="32" viewBox="0 0 32 32" fill="none" xmlns="http://www.w3.org/2000/svg">
<g clip-path="url(#clip0_2060_14089)">
<path d="M14 16L4.70711 6.70711C4.07714 6.07714 3 6.52331 3 7.41421V24.5858C3 25.4767 4.07714 25.9229 4.70711 25.2929L14 16Z" fill="#FCFCFC" fill-opacity="0.75"/>
<path d="M14.3536 15.6464L14.7071 16L14.3536 16.3536L5.06066 25.6464C4.11571 26.5914 2.5 25.9221 2.5 24.5858V7.41421C2.5 6.07785 4.11572 5.40861 5.06066 6.35355L14.3536 15.6464Z" stroke="#FCFCFC" stroke-opacity="0.75"/>
<path d="M4.35355 24.9393L13.2929 16L4.35355 7.06066C4.03857 6.74568 3.5 6.96876 3.5 7.41421V24.5858C3.5 25.0312 4.03857 25.2543 4.35355 24.9393Z" fill="#94E1FC" stroke="#00A1DB"/>
</g>
<g clip-path="url(#clip1_2060_14089)">
<path d="M28 16L18.7071 6.70711C18.0771 6.07714 17 6.52331 17 7.41421V24.5858C17 25.4767 18.0771 25.9229 18.7071 25.2929L28 16Z" fill="#FCFCFC" fill-opacity="0.75"/>
<path d="M28.3536 15.6464L28.7071 16L28.3536 16.3536L19.0607 25.6464C18.1157 26.5914 16.5 25.9221 16.5 24.5858V7.41421C16.5 6.07785 18.1157 5.40861 19.0607 6.35355L28.3536 15.6464Z" stroke="#FCFCFC" stroke-opacity="0.75"/>
<path d="M18.3536 24.9393L27.2929 16L18.3536 7.06066C18.0386 6.74568 17.5 6.96876 17.5 7.41421V24.5858C17.5 25.0312 18.0386 25.2543 18.3536 24.9393Z" fill="#94E1FC" stroke="#00A1DB"/>
</g>
<defs>
<clipPath id="clip0_2060_14089">
<rect width="22" height="14" fill="white" transform="matrix(-4.37114e-08 1 1 4.37114e-08 2 5)"/>
</clipPath>
<clipPath id="clip1_2060_14089">
<rect width="22" height="14" fill="white" transform="matrix(-4.37114e-08 1 1 4.37114e-08 16 5)"/>
</clipPath>
</defs>
</svg>
