<svg width="32" height="32" viewBox="0 0 32 32" fill="none" xmlns="http://www.w3.org/2000/svg">
<g clip-path="url(#clip0_2061_14454)">
<g clip-path="url(#clip1_2061_14454)">
<rect x="1" y="2" width="10" height="28" rx="2" fill="#FCFCFC" fill-opacity="0.75"/>
<path d="M2 4C2 3.44772 2.44772 3 3 3H9C9.55228 3 10 3.44772 10 4V6H2V4Z" fill="#919191"/>
<rect x="2" y="14" width="8" height="5" fill="#919191"/>
<rect x="2" y="21" width="8" height="2" fill="#919191"/>
<path d="M2 25H10V28C10 28.5523 9.55228 29 9 29H3C2.44772 29 2 28.5523 2 28V25Z" fill="#919191"/>
<rect x="2.5" y="3.5" width="7" height="25" rx="0.5" stroke="#3A3A3A"/>
</g>
<g clip-path="url(#clip2_2061_14454)">
<rect x="11" y="2" width="10" height="28" rx="2" fill="#FCFCFC" fill-opacity="0.75"/>
<path d="M12 4C12 3.44772 12.4477 3 13 3H19C19.5523 3 20 3.44772 20 4V6H12V4Z" fill="#919191"/>
<rect x="12" y="14" width="8" height="5" fill="#919191"/>
<rect x="12" y="21" width="8" height="2" fill="#919191"/>
<path d="M12 25H20V28C20 28.5523 19.5523 29 19 29H13C12.4477 29 12 28.5523 12 28V25Z" fill="#919191"/>
<rect x="12.5" y="3.5" width="7" height="25" rx="0.5" stroke="#3A3A3A"/>
</g>
<g clip-path="url(#clip3_2061_14454)">
<rect x="21" y="2" width="10" height="28" rx="2" fill="#FCFCFC" fill-opacity="0.75"/>
<path d="M22 4C22 3.44772 22.4477 3 23 3H29C29.5523 3 30 3.44772 30 4V6H22V4Z" fill="#919191"/>
<rect x="22" y="14" width="8" height="5" fill="#919191"/>
<rect x="22" y="21" width="8" height="2" fill="#919191"/>
<path d="M22 25H30V28C30 28.5523 29.5523 29 29 29H23C22.4477 29 22 28.5523 22 28V25Z" fill="#919191"/>
<rect x="22.5" y="3.5" width="7" height="25" rx="0.5" stroke="#3A3A3A"/>
</g>
<g clip-path="url(#clip4_2061_14454)">
<path d="M0 24C0 22.8954 0.895431 22 2 22H4.93921C5.67032 22 6.34316 22.3989 6.69396 23.0404L7 23.6L7.30605 23.0404C7.65684 22.3989 8.32968 22 9.06079 22H12C13.1046 22 14 22.8954 14 24V28C14 29.1046 13.1046 30 12 30H9.06079C8.32968 30 7.65684 29.6011 7.30605 28.9596L7 28.4L6.69395 28.9596C6.34316 29.6011 5.67032 30 4.93921 30H2C0.895431 30 0 29.1046 0 28V24Z" fill="#FCFCFC" fill-opacity="0.75"/>
<path d="M4.5 26H9.5" stroke="#00A1DB" stroke-width="2" stroke-linecap="round"/>
<rect x="1.5" y="23.5" width="4" height="5" rx="0.5" stroke="#00A1DB"/>
<rect x="8.5" y="23.5" width="4" height="5" rx="0.5" stroke="#00A1DB"/>
</g>
</g>
<defs>
<clipPath id="clip0_2061_14454">
<rect width="32" height="32" fill="white"/>
</clipPath>
<clipPath id="clip1_2061_14454">
<rect width="10" height="28" fill="white" transform="translate(1 2)"/>
</clipPath>
<clipPath id="clip2_2061_14454">
<rect width="10" height="28" fill="white" transform="translate(11 2)"/>
</clipPath>
<clipPath id="clip3_2061_14454">
<rect width="10" height="28" fill="white" transform="translate(21 2)"/>
</clipPath>
<clipPath id="clip4_2061_14454">
<rect width="14" height="8" fill="white" transform="translate(0 22)"/>
</clipPath>
</defs>
</svg>
