<svg width="32" height="32" viewBox="0 0 32 32" fill="none" xmlns="http://www.w3.org/2000/svg">
<g clip-path="url(#clip0_1856_15530)">
<g clip-path="url(#clip1_1856_15530)">
<rect x="15" y="21" width="1.99951" height="3" fill="#00A1DB"/>
<rect x="14.5001" y="20.5001" width="2.99939" height="3.99988" stroke="#FCFCFC" stroke-opacity="0.75" stroke-width="0.999878"/>
<rect x="15" y="28" width="1.99951" height="3" fill="#00A1DB"/>
<rect x="14.5001" y="27.5001" width="2.99939" height="3.99988" stroke="#FCFCFC" stroke-opacity="0.75" stroke-width="0.999878"/>
<rect x="15" y="14" width="1.99951" height="3" fill="#00A1DB"/>
<rect x="14.5001" y="13.5001" width="2.99939" height="3.99988" stroke="#FCFCFC" stroke-opacity="0.75" stroke-width="0.999878"/>
<rect x="15" y="7" width="1.99951" height="3" fill="#00A1DB"/>
<rect x="14.5001" y="6.50006" width="2.99939" height="3.99988" stroke="#FCFCFC" stroke-opacity="0.75" stroke-width="0.999878"/>
<rect x="15" width="1.99951" height="3" fill="#00A1DB"/>
<rect x="14.5001" y="-0.499939" width="2.99939" height="3.99988" stroke="#FCFCFC" stroke-opacity="0.75" stroke-width="0.999878"/>
</g>
<g clip-path="url(#clip2_1856_15530)">
<rect x="21" y="5" width="24" height="22" fill="#FCFCFC" fill-opacity="0.75"/>
<rect x="22.5" y="8.5" width="21" height="17" fill="#FCFCFC" stroke="#00A1DB"/>
<rect x="22.5" y="6.5" width="21" height="3" fill="#94E1FC" stroke="#00A1DB"/>
</g>
<rect y="12" width="5.33333" height="2.66667" fill="#D8D8D8"/>
<rect y="17.3335" width="5.33333" height="2.66667" fill="#D8D8D8"/>
<rect y="22.6665" width="5.33333" height="2.66667" fill="#D8D8D8"/>
<rect x="26" y="12" width="4" height="2" fill="#D8D8D8"/>
<rect x="26" y="16" width="4" height="2" fill="#D8D8D8"/>
<rect x="26" y="20" width="4" height="2" fill="#D8D8D8"/>
<rect x="-20" y="2" width="30" height="27" fill="#FCFCFC" fill-opacity="0.75"/>
<rect x="-20.5" y="1.5" width="31" height="28" stroke="#FCFCFC" stroke-opacity="0.75"/>
<rect x="-19.5" y="2.5" width="29" height="26" fill="#FCFCFC" stroke="#919191"/>
<rect x="-19.5" y="2.5" width="29" height="5" fill="url(#paint0_linear_1856_15530)" stroke="#3A3A3A"/>
<rect y="12" width="6" height="2" fill="#D8D8D8"/>
<rect y="17" width="6" height="2" fill="#D8D8D8"/>
<rect y="22" width="6" height="2" fill="#D8D8D8"/>
</g>
<defs>
<linearGradient id="paint0_linear_1856_15530" x1="-5.5" y1="7" x2="-5.5" y2="3" gradientUnits="userSpaceOnUse">
<stop stop-color="#94E1FC"/>
<stop offset="1" stop-color="#00A1DB"/>
</linearGradient>
<clipPath id="clip0_1856_15530">
<rect width="32" height="32" fill="white"/>
</clipPath>
<clipPath id="clip1_1856_15530">
<rect width="4" height="32" fill="white" transform="translate(14)"/>
</clipPath>
<clipPath id="clip2_1856_15530">
<rect width="24" height="22" fill="white" transform="translate(21 5)"/>
</clipPath>
</defs>
</svg>
