<svg width="32" height="32" viewBox="0 0 32 32" fill="none" xmlns="http://www.w3.org/2000/svg">
<g clip-path="url(#clip0_2062_15921)">
<rect y="1" width="32" height="29" fill="#FCFCFC" fill-opacity="0.75"/>
<rect x="1.5" y="8.5" width="29" height="20" fill="url(#paint0_linear_2062_15921)" stroke="#919191"/>
<path d="M1 2H31V7H29V3H26V7H24V3H21V7H19V3H16V7H1V2Z" fill="#3A3A3A"/>
<rect x="1" y="6" width="30" height="1" fill="#3A3A3A"/>
<g clip-path="url(#clip1_2062_15921)">
<path fill-rule="evenodd" clip-rule="evenodd" d="M8.83584 15.0189C8.20628 15.6667 8 16.721 8 18.5C8 20.279 8.20628 21.3333 8.83584 21.9811C9.46531 22.6288 10.6485 23 13 23V24C10.6242 24 9.05742 23.6439 8.11871 22.678C7.18008 21.7122 7 20.2665 7 18.5C7 16.7335 7.18008 15.2878 8.11871 14.322C9.05742 13.3561 10.6242 13 13 13V14C10.6485 14 9.46531 14.3712 8.83584 15.0189Z" fill="#FCFCFC" fill-opacity="0.75"/>
<path d="M13.5 23V22.5H13C10.6606 22.5 9.66921 22.1212 9.19441 21.6326C8.71956 21.144 8.5 20.2858 8.5 18.5C8.5 16.7142 8.71956 15.856 9.19441 15.3674C9.66921 14.8788 10.6606 14.5 13 14.5H13.5V14V13V12.5H13C10.6119 12.5 8.85343 12.8485 7.76014 13.9735C6.66714 15.0982 6.5 16.7392 6.5 18.5C6.5 20.2608 6.66714 21.9018 7.76014 23.0265C8.85343 24.1515 10.6119 24.5 13 24.5H13.5V24V23Z" stroke="#FCFCFC" stroke-opacity="0.75"/>
<path d="M13 23.5C8.27273 23.5 7.5 22.0455 7.5 18.5C7.5 14.9545 8.27273 13.5 13 13.5" stroke="#3A3A3A"/>
</g>
<g clip-path="url(#clip2_2062_15921)">
<path d="M23 24H24.25L22 13H20.75L23 24Z" fill="#3A3A3A"/>
<path d="M23 24.5H22.5919L22.5101 24.1002L20.2601 13.1002L20.1374 12.5H20.75H22H22.4081L22.4899 12.8998L24.7399 23.8998L24.8626 24.5H24.25H23Z" stroke="#FCFCFC" stroke-opacity="0.75"/>
<rect x="16" y="20" width="2" height="2" fill="#3A3A3A"/>
<rect x="15.5" y="19.5" width="3" height="3" stroke="#FCFCFC" stroke-opacity="0.75"/>
<rect x="16" y="16" width="2" height="2" fill="#3A3A3A"/>
<rect x="15.5" y="15.5" width="3" height="3" stroke="#FCFCFC" stroke-opacity="0.75"/>
</g>
</g>
<defs>
<linearGradient id="paint0_linear_2062_15921" x1="16" y1="8" x2="16" y2="29" gradientUnits="userSpaceOnUse">
<stop stop-color="#FCFCFC"/>
<stop offset="1" stop-color="#E6EAEA"/>
</linearGradient>
<clipPath id="clip0_2062_15921">
<rect width="32" height="32" fill="white"/>
</clipPath>
<clipPath id="clip1_2062_15921">
<rect width="8" height="13" fill="white" transform="translate(6 12)"/>
</clipPath>
<clipPath id="clip2_2062_15921">
<rect width="11" height="13" fill="white" transform="translate(15 12)"/>
</clipPath>
</defs>
</svg>
