<svg width="32" height="32" viewBox="0 0 32 32" fill="none" xmlns="http://www.w3.org/2000/svg">
<g clip-path="url(#clip0_2062_15990)">
<g clip-path="url(#clip1_2062_15990)">
<path d="M19 2L18 9.5L24 14.5L16.5 16.5L13.5 24L9.5 17.4801H2L7 11.5L5 4L12.5 6.5L19 2Z" fill="#FCFCFC" fill-opacity="0.75"/>
<path d="M19.4956 2.06608L19.6451 0.945295L18.7154 1.5889L12.4209 5.9466L5.15811 3.52566L4.27778 3.23222L4.51688 4.12883L6.45006 11.3782L1.61641 17.1594L0.930207 17.9801H2H9.22016L13.0738 24.2615L13.5945 25.1101L13.9642 24.1857L16.8711 16.9185L24.1288 14.9831L25.0621 14.7342L24.3201 14.1159L18.5321 9.29255L19.4956 2.06608Z" stroke="#FCFCFC" stroke-opacity="0.75"/>
<path d="M16 15L30.5 28L28 30.5L15 16L16 15Z" fill="#00A1DB"/>
<path d="M16.3338 14.6277L15.9812 14.3117L15.6464 14.6464L14.6464 15.6464L14.3117 15.9812L14.6277 16.3338L27.6277 30.8338L27.9802 31.2269L28.3536 30.8536L30.8536 28.3536L31.2269 27.9802L30.8338 27.6277L16.3338 14.6277Z" stroke="#FCFCFC" stroke-opacity="0.75"/>
<path d="M18.3549 3.0547L17.5044 9.43392L17.4679 9.70745L17.6799 9.88411L22.9379 14.2658L16.3712 16.0169L16.1289 16.0815L16.0358 16.3143L13.4055 22.8899L9.92619 17.2187L9.77984 16.9801H9.5H3.06979L7.38359 11.8207L7.54994 11.6218L7.48312 11.3712L5.72222 4.76778L12.3419 6.97434L12.5791 7.0534L12.7846 6.9111L18.3549 3.0547Z" fill="#94E1FC" stroke="#00A1DB"/>
</g>
</g>
<defs>
<clipPath id="clip0_2062_15990">
<rect width="32" height="32" fill="white"/>
</clipPath>
<clipPath id="clip1_2062_15990">
<rect width="32" height="32" fill="white"/>
</clipPath>
</defs>
</svg>
