<svg width="32" height="32" viewBox="0 0 32 32" fill="none" xmlns="http://www.w3.org/2000/svg">
<g clip-path="url(#clip0_2071_13787)">
<rect x="1" y="2" width="30" height="27" fill="#FCFCFC" fill-opacity="0.75"/>
<rect x="0.5" y="1.5" width="31" height="28" stroke="#FCFCFC" stroke-opacity="0.75"/>
<rect x="1.5" y="2.5" width="29" height="26" fill="#FCFCFC" stroke="#919191"/>
<rect x="1.5" y="2.5" width="29" height="5" fill="url(#paint0_linear_2071_13787)" stroke="#3A3A3A"/>
<rect x="5" y="12" width="6" height="2" fill="#919191"/>
<rect x="21" y="12" width="6" height="2" fill="#919191"/>
<rect x="13" y="12" width="6" height="2" fill="#919191"/>
<rect x="13" y="17" width="6" height="2" fill="#919191"/>
<rect x="13" y="22" width="6" height="2" fill="#919191"/>
<rect x="5" y="17" width="6" height="2" fill="#919191"/>
<rect x="21" y="17" width="6" height="2" fill="#919191"/>
<rect x="21" y="22" width="6" height="2" fill="#919191"/>
<g clip-path="url(#clip1_2071_13787)">
<path d="M7 20L11 22V23H7V24H3V23H1V22H3V20H7Z" fill="#00A1DB"/>
<path d="M3 26H1V25H11V26L7 28H3V26Z" fill="#00A1DB"/>
<path d="M7 29H3V31H7V29Z" fill="#00A1DB"/>
<path d="M7 19.5H7.11803L7.22361 19.5528L11.2236 21.5528L11.5 21.691V22V23V23.5H11H7.5V24V24.5H11H11.5V25V26V26.309L11.2236 26.4472L7.22361 28.4472L7.11803 28.5H7.5V29V31V31.5H7H3H2.5V31V29V28.5V28V26.5H1H0.5V26V25V24.5H1H2.5V24V23.5H1H0.5V23V22V21.5H1H2.5V20V19.5H3H7Z" stroke="#FCFCFC" stroke-opacity="0.75"/>
</g>
<rect x="1" y="19" width="1" height="2" fill="#FCFCFC" fill-opacity="0.75"/>
<rect x="1" y="27" width="1" height="2" fill="#FCFCFC" fill-opacity="0.75"/>
</g>
<defs>
<linearGradient id="paint0_linear_2071_13787" x1="15.5" y1="7" x2="15.5" y2="3" gradientUnits="userSpaceOnUse">
<stop stop-color="#94E1FC"/>
<stop offset="1" stop-color="#00A1DB"/>
</linearGradient>
<clipPath id="clip0_2071_13787">
<rect width="32" height="32" fill="white"/>
</clipPath>
<clipPath id="clip1_2071_13787">
<rect width="12" height="13" fill="white" transform="translate(0 19)"/>
</clipPath>
</defs>
</svg>
