<svg width="32" height="32" viewBox="0 0 32 32" fill="none" xmlns="http://www.w3.org/2000/svg">
<g clip-path="url(#clip0_2072_14094)">
<path d="M3.5 4C3.5 3.72386 3.72386 3.5 4 3.5H21.2574C21.9204 3.5 22.5563 3.76339 23.0251 4.23223L27.7678 8.97487C28.2366 9.44371 28.5 10.0796 28.5 10.7426V28C28.5 28.2761 28.2761 28.5 28 28.5H4C3.72386 28.5 3.5 28.2761 3.5 28V4Z" fill="#D8D8D8" stroke="#919191"/>
<rect x="6.5" y="12.5" width="18" height="13" rx="0.5" fill="url(#paint0_linear_2072_14094)" stroke="#00A1DB"/>
<rect x="6" y="3" width="10" height="6" fill="#3A3A3A"/>
<rect x="7" y="3" width="2" height="5" fill="#94E1FC"/>
<rect x="10" y="3" width="2" height="5" fill="#94E1FC"/>
<rect x="13" y="3" width="2" height="5" fill="#94E1FC"/>
<g clip-path="url(#clip1_2072_14094)">
<path d="M0 19H11L11 21L13 21L13 32L2 32L2 30L0 30V19Z" fill="#FCFCFC" fill-opacity="0.75"/>
<rect x="3.5" y="22.5" width="8" height="8" fill="url(#paint1_linear_2072_14094)" stroke="#00A1DB"/>
<path d="M1 20H10V21H2V29H1V20Z" fill="#00A1DB"/>
</g>
</g>
<defs>
<linearGradient id="paint0_linear_2072_14094" x1="21.3056" y1="13.9444" x2="14.0356" y2="26.6299" gradientUnits="userSpaceOnUse">
<stop stop-color="#94E1FC"/>
<stop offset="1" stop-color="#FCFCFC"/>
</linearGradient>
<linearGradient id="paint1_linear_2072_14094" x1="10.25" y1="23.25" x2="5" y2="30" gradientUnits="userSpaceOnUse">
<stop stop-color="#94E1FC"/>
<stop offset="1" stop-color="#FCFCFC"/>
</linearGradient>
<clipPath id="clip0_2072_14094">
<rect width="32" height="32" fill="white"/>
</clipPath>
<clipPath id="clip1_2072_14094">
<rect width="13" height="13" fill="white" transform="translate(0 19)"/>
</clipPath>
</defs>
</svg>
