<svg width="32" height="32" viewBox="0 0 32 32" fill="none" xmlns="http://www.w3.org/2000/svg">
<g clip-path="url(#clip0_2074_14146)">
<path d="M0 3C0 1.89543 0.895431 1 2 1H14C15.1046 1 16 1.89543 16 3V7H13V8H15V14L13 14V16C13 16.5523 12.5523 17 12 17V19.5C12 20.3284 11.3284 21 10.5 21C9.67157 21 9 20.3284 9 19.5V17C8.44771 17 8 16.5523 8 16V14H6V22H14C14.5523 22 15 22.4477 15 23C15.5523 23 16 23.4477 16 24V29C16 29.5523 15.5523 30 15 30V31L9 31V30H7V31L1 31V30C0.447716 30 0 29.5523 0 29V3Z" fill="#FCFCFC" fill-opacity="0.75"/>
<path d="M1.5 8.5H4.5V23C4.5 23.8284 5.17157 24.5 6 24.5H14C14.2761 24.5 14.5 24.7239 14.5 25V28C14.5 28.2761 14.2761 28.5 14 28.5H2C1.72386 28.5 1.5 28.2761 1.5 28V8.5Z" fill="url(#paint0_linear_2074_14146)" stroke="#919191"/>
<path d="M8 5.5H1.5V3C1.5 2.72386 1.72386 2.5 2 2.5H6H14C14.2761 2.5 14.5 2.72386 14.5 3V5.5H13C12.1716 5.5 11.5 6.17157 11.5 7V9V9.5H12H13.5V12.5H12H11.5V13V15C11.5 15.2761 11.2761 15.5 11 15.5H10C9.72386 15.5 9.5 15.2761 9.5 15V13V12.5H9H7.5V9.5H9H9.5V9V7C9.5 6.17157 8.82843 5.5 8 5.5Z" fill="url(#paint1_linear_2074_14146)" stroke="#919191"/>
<path d="M7 24C7 23.4477 7.44772 23 8 23H13C13.5523 23 14 23.4477 14 24H7Z" fill="#3A3A3A"/>
<rect x="2" y="29" width="4" height="1" fill="#3A3A3A"/>
<rect x="10" y="29" width="4" height="1" fill="#3A3A3A"/>
<path d="M10 16H11V19.5C11 19.7761 10.7761 20 10.5 20C10.2239 20 10 19.7761 10 19.5V16Z" fill="#3A3A3A"/>
</g>
<g clip-path="url(#clip1_2074_14146)">
<path d="M16 3C16 1.89543 16.8954 1 18 1H30C31.1046 1 32 1.89543 32 3V7H29V8H31V14L29 14V16C29 16.5523 28.5523 17 28 17V19.5C28 20.3284 27.3284 21 26.5 21C25.6716 21 25 20.3284 25 19.5V17C24.4477 17 24 16.5523 24 16V14H22V22H30C30.5523 22 31 22.4477 31 23C31.5523 23 32 23.4477 32 24V29C32 29.5523 31.5523 30 31 30V31L25 31V30H23V31L17 31V30C16.4477 30 16 29.5523 16 29V3Z" fill="#FCFCFC" fill-opacity="0.75"/>
<path d="M17.5 8.5H20.5V23C20.5 23.8284 21.1716 24.5 22 24.5H30C30.2761 24.5 30.5 24.7239 30.5 25V28C30.5 28.2761 30.2761 28.5 30 28.5H18C17.7239 28.5 17.5 28.2761 17.5 28V8.5Z" fill="url(#paint2_linear_2074_14146)" stroke="#919191"/>
<path d="M24 5.5H17.5V3C17.5 2.72386 17.7239 2.5 18 2.5H22H30C30.2761 2.5 30.5 2.72386 30.5 3V5.5H29C28.1716 5.5 27.5 6.17157 27.5 7V9V9.5H28H29.5V12.5H28H27.5V13V15C27.5 15.2761 27.2761 15.5 27 15.5H26C25.7239 15.5 25.5 15.2761 25.5 15V13V12.5H25H23.5V9.5H25H25.5V9V7C25.5 6.17157 24.8284 5.5 24 5.5Z" fill="url(#paint3_linear_2074_14146)" stroke="#919191"/>
<path d="M23 24C23 23.4477 23.4477 23 24 23H29C29.5523 23 30 23.4477 30 24H23Z" fill="#3A3A3A"/>
<rect x="18" y="29" width="4" height="1" fill="#3A3A3A"/>
<rect x="26" y="29" width="4" height="1" fill="#3A3A3A"/>
<path d="M26 16H27V19.5C27 19.7761 26.7761 20 26.5 20C26.2239 20 26 19.7761 26 19.5V16Z" fill="#3A3A3A"/>
</g>
<defs>
<linearGradient id="paint0_linear_2074_14146" x1="15" y1="19.4545" x2="1" y2="19.4545" gradientUnits="userSpaceOnUse">
<stop stop-color="#D8D8D8"/>
<stop offset="1" stop-color="#F4F7F6"/>
</linearGradient>
<linearGradient id="paint1_linear_2074_14146" x1="15" y1="9.63636" x2="1" y2="9.63636" gradientUnits="userSpaceOnUse">
<stop stop-color="#D8D8D8"/>
<stop offset="1" stop-color="#F4F7F6"/>
</linearGradient>
<linearGradient id="paint2_linear_2074_14146" x1="31" y1="19.4545" x2="17" y2="19.4545" gradientUnits="userSpaceOnUse">
<stop stop-color="#D8D8D8"/>
<stop offset="1" stop-color="#F4F7F6"/>
</linearGradient>
<linearGradient id="paint3_linear_2074_14146" x1="31" y1="9.63636" x2="17" y2="9.63636" gradientUnits="userSpaceOnUse">
<stop stop-color="#D8D8D8"/>
<stop offset="1" stop-color="#F4F7F6"/>
</linearGradient>
<clipPath id="clip0_2074_14146">
<rect width="16" height="30" fill="white" transform="translate(0 1)"/>
</clipPath>
<clipPath id="clip1_2074_14146">
<rect width="16" height="30" fill="white" transform="translate(16 1)"/>
</clipPath>
</defs>
</svg>
