<svg width="32" height="32" viewBox="0 0 32 32" fill="none" xmlns="http://www.w3.org/2000/svg">
<g clip-path="url(#clip0_2080_14446)">
<rect y="3" width="32" height="26" rx="2" fill="#FCFCFC" fill-opacity="0.75"/>
<rect x="1.5" y="4.5" width="29" height="23" rx="0.5" fill="url(#paint0_linear_2080_14446)" stroke="#919191"/>
<rect x="1" y="8" width="30" height="7" fill="#3A3A3A"/>
<rect x="17" y="18" width="10" height="1" fill="#919191"/>
<rect x="17" y="21" width="10" height="1" fill="#919191"/>
<g clip-path="url(#clip1_2080_14446)">
<path d="M7 20L11 22V23H7V24H3V23H1V22H3V20H7Z" fill="#00A1DB"/>
<path d="M3 26H1V25H11V26L7 28H3V26Z" fill="#00A1DB"/>
<path d="M7 29H3V31H7V29Z" fill="#00A1DB"/>
<path d="M7 19.5H7.11803L7.22361 19.5528L11.2236 21.5528L11.5 21.691V22V23V23.5H11H7.5V24V24.5H11H11.5V25V26V26.309L11.2236 26.4472L7.22361 28.4472L7.11803 28.5H7.5V29V31V31.5H7H3H2.5V31V29V28.5V28V26.5H1H0.5V26V25V24.5H1H2.5V24V23.5H1H0.5V23V22V21.5H1H2.5V20V19.5H3H7Z" stroke="#FCFCFC" stroke-opacity="0.75"/>
</g>
<rect x="1" y="27" width="1" height="1" fill="#FCFCFC" fill-opacity="0.75"/>
</g>
<defs>
<linearGradient id="paint0_linear_2080_14446" x1="31" y1="17.0909" x2="1" y2="17.0909" gradientUnits="userSpaceOnUse">
<stop stop-color="#F4F7F6"/>
<stop offset="1" stop-color="#D8D8D8"/>
</linearGradient>
<clipPath id="clip0_2080_14446">
<rect width="32" height="32" fill="white"/>
</clipPath>
<clipPath id="clip1_2080_14446">
<rect width="12" height="13" fill="white" transform="translate(0 19)"/>
</clipPath>
</defs>
</svg>
