<svg width="32" height="32" viewBox="0 0 32 32" fill="none" xmlns="http://www.w3.org/2000/svg">
<g clip-path="url(#clip0_2080_14624)">
<rect y="3" width="32" height="26" rx="2" fill="#FCFCFC" fill-opacity="0.75"/>
<rect x="1.5" y="4.5" width="29" height="23" rx="0.5" fill="url(#paint0_linear_2080_14624)" stroke="#919191"/>
<rect x="1" y="8" width="30" height="7" fill="#3A3A3A"/>
<rect x="17" y="18" width="10" height="1" fill="#919191"/>
<rect x="17" y="21" width="10" height="1" fill="#919191"/>
<g clip-path="url(#clip1_2080_14624)">
<circle cx="6.5" cy="22.5" r="3.5" fill="#FCFCFC" fill-opacity="0.75"/>
<path d="M0 29.7273C0 27.1165 2.11647 25 4.72727 25H8.27273C10.8835 25 13 27.1165 13 29.7273V32H0V29.7273Z" fill="#FCFCFC" fill-opacity="0.75"/>
<path d="M8 26H5C3 26 1 27 1 29V31H3V29H4V31H9V29H10V31H11.9998L12 29C12 27 10 26 8 26Z" fill="#00A1DB"/>
<circle cx="6.5" cy="22.5" r="2.5" fill="#00A1DB"/>
</g>
</g>
<defs>
<linearGradient id="paint0_linear_2080_14624" x1="31" y1="17.0909" x2="1" y2="17.0909" gradientUnits="userSpaceOnUse">
<stop stop-color="#F4F7F6"/>
<stop offset="1" stop-color="#D8D8D8"/>
</linearGradient>
<clipPath id="clip0_2080_14624">
<rect width="32" height="32" fill="white"/>
</clipPath>
<clipPath id="clip1_2080_14624">
<rect width="13" height="13" fill="white" transform="translate(0 19)"/>
</clipPath>
</defs>
</svg>
