<svg width="32" height="32" viewBox="0 0 32 32" fill="none" xmlns="http://www.w3.org/2000/svg">
<g clip-path="url(#clip0_2083_14787)">
<g clip-path="url(#clip1_2083_14787)">
<path d="M17 31C12 31 7 27 7 23L17 23C17.5523 23 18 22.5523 18 22L18 10C18 9.44772 17.5523 9 17 9L7 9C7 4 12 1 17 1C21.4151 1 26.6099 3.33916 27.7649 8.01748C28.0296 9.08985 28.8954 10 30 10L33 10L33 21L30 21C28.8954 21 28.0242 21.908 27.7735 22.9837C26.636 27.8654 21.4262 31 17 31Z" fill="#FCFCFC" fill-opacity="0.75"/>
<path d="M7 22.5L6.5 22.5L6.5 23C6.5 25.2061 7.86907 27.3356 9.81265 28.8904C11.765 30.4523 14.3728 31.5 17 31.5C19.3239 31.5 21.8315 30.6799 23.9061 29.2326C25.9829 27.7837 27.658 25.6825 28.2605 23.0972C28.4746 22.1781 29.1925 21.5 30 21.5L33 21.5L33.5 21.5L33.5 21L33.5 10L33.5 9.5L33 9.5L30 9.5C29.1944 9.5 28.4784 8.82149 28.2503 7.89764C27.6331 5.39766 25.9396 3.54352 23.8579 2.32303C21.7798 1.10471 19.2887 0.5 17 0.5C14.4072 0.5 11.8004 1.27633 9.82932 2.7218C7.84968 4.17353 6.5 6.31335 6.5 9L6.5 9.5L7 9.5L17 9.5C17.2761 9.5 17.5 9.72386 17.5 10L17.5 22C17.5 22.2761 17.2761 22.5 17 22.5L7 22.5Z" stroke="#FCFCFC" stroke-opacity="0.75"/>
<path d="M17 30.5C14.6272 30.5 12.235 29.5477 10.4373 28.1096C8.79822 26.7983 7.71527 25.1367 7.52874 23.5L17 23.5C17.8284 23.5 18.5 22.8284 18.5 22L18.5 10C18.5 9.17157 17.8284 8.5 17 8.5L7.51823 8.5C7.67148 6.4177 8.77973 4.73157 10.4207 3.5282C12.1996 2.22367 14.5928 1.5 17 1.5C19.1264 1.5 21.4403 2.06487 23.3521 3.18571C25.2602 4.30439 26.7417 5.95898 27.2795 8.13732C27.5809 9.35822 28.5965 10.5 30 10.5L32.5 10.5L32.5 20.5L30 20.5C28.5984 20.5 27.5737 21.6378 27.2865 22.8702C26.7515 25.1666 25.253 27.0736 23.3339 28.4124C21.4127 29.7528 19.1023 30.5 17 30.5Z" fill="url(#paint0_linear_2083_14787)" stroke="#919191"/>
</g>
<path fill-rule="evenodd" clip-rule="evenodd" d="M2.9375 18.2188C2.71953 18.0492 2.68026 17.7351 2.84979 17.5171L4.39097 15.7543C5.25188 14.6474 6.57562 14 7.9779 14C9.4082 14 10.755 14.6734 11.6132 15.8177L11.9 16.2C12.0657 16.4209 12.0209 16.7343 11.8 16.9C11.5791 17.0657 11.2657 17.0209 11.1 16.8L10.8132 16.4177C10.1439 15.5252 9.09344 15 7.9779 15C6.88421 15 5.85178 15.5049 5.18032 16.3683L3.63915 18.131C3.46961 18.349 3.15547 18.3883 2.9375 18.2188Z" fill="#00A1DB"/>
<path d="M6 20H0.99997L1 15L6 20Z" fill="#00A1DB"/>
<path d="M4.00534 15.4357L3.13656 16.4295L1.35355 14.6464L0.500007 13.7929L0.5 15L0.49997 20L0.499968 20.5H0.99997H6H7.20711L6.35355 19.6464L4.55278 17.8457L5.55674 16.6973L5.56618 16.6865L5.57499 16.6752C6.15173 15.9337 7.0385 15.5 7.9779 15.5C8.93606 15.5 9.83831 15.9511 10.4132 16.7177L10.7 17.1C11.0313 17.5418 11.6581 17.6314 12.1 17.3L11.837 16.9493L12.1 17.3C12.5418 16.9686 12.6313 16.3418 12.3 15.9L12.0132 15.5177L11.6132 15.8177L12.0132 15.5177C11.0606 14.2475 9.56558 13.5 7.9779 13.5C6.42623 13.5 4.9612 14.2141 4.00534 15.4357Z" stroke="#FCFCFC" stroke-opacity="0.75"/>
</g>
<defs>
<linearGradient id="paint0_linear_2083_14787" x1="18.8182" y1="31" x2="18.8182" y2="0.999999" gradientUnits="userSpaceOnUse">
<stop stop-color="#F4F7F6"/>
<stop offset="1" stop-color="#D8D8D8"/>
</linearGradient>
<clipPath id="clip0_2083_14787">
<rect width="32" height="32" fill="white"/>
</clipPath>
<clipPath id="clip1_2083_14787">
<rect width="32" height="32" fill="white"/>
</clipPath>
</defs>
</svg>
