<svg width="32" height="32" viewBox="0 0 32 32" fill="none" xmlns="http://www.w3.org/2000/svg">
<g clip-path="url(#clip0_2087_15049)">
<rect x="1" y="2" width="30" height="27" fill="#FCFCFC" fill-opacity="0.75"/>
<rect x="0.5" y="1.5" width="31" height="28" stroke="#FCFCFC" stroke-opacity="0.75"/>
<rect x="1.5" y="2.5" width="29" height="26" fill="#FCFCFC" stroke="#919191"/>
<rect x="1.5" y="2.5" width="29" height="5" fill="url(#paint0_linear_2087_15049)" stroke="#3A3A3A"/>
<g clip-path="url(#clip1_2087_15049)">
<rect x="10" y="21" width="1" height="7" fill="#D8D8D8"/>
<rect x="21" y="21" width="1" height="7" fill="#D8D8D8"/>
<rect x="10" y="14" width="1" height="8" fill="#D8D8D8"/>
<rect x="21" y="14" width="1" height="8" fill="#D8D8D8"/>
<rect x="10" y="8" width="1" height="7" fill="#D8D8D8"/>
<rect x="21" y="8" width="1" height="7" fill="#D8D8D8"/>
<rect x="2" y="21" width="9" height="1" fill="#D8D8D8"/>
<rect x="2" y="14" width="9" height="1" fill="#D8D8D8"/>
<rect x="10" y="21" width="12" height="1" fill="#D8D8D8"/>
<rect x="10" y="14" width="12" height="1" fill="#D8D8D8"/>
<rect x="21" y="21" width="9" height="1" fill="#D8D8D8"/>
<rect x="21" y="14" width="9" height="1" fill="#D8D8D8"/>
</g>
<g clip-path="url(#clip2_2087_15049)">
<circle cx="6.5" cy="22.5" r="3.5" fill="#FCFCFC" fill-opacity="0.75"/>
<path d="M0 29.7273C0 27.1165 2.11647 25 4.72727 25H8.27273C10.8835 25 13 27.1165 13 29.7273V32H0V29.7273Z" fill="#FCFCFC" fill-opacity="0.75"/>
<path d="M8 26H5C3 26 1 27 1 29V31H3V29H4V31H9V29H10V31H11.9998L12 29C12 27 10 26 8 26Z" fill="#00A1DB"/>
<circle cx="6.5" cy="22.5" r="2.5" fill="#00A1DB"/>
</g>
</g>
<defs>
<linearGradient id="paint0_linear_2087_15049" x1="15.5" y1="7" x2="15.5" y2="3" gradientUnits="userSpaceOnUse">
<stop stop-color="#94E1FC"/>
<stop offset="1" stop-color="#00A1DB"/>
</linearGradient>
<clipPath id="clip0_2087_15049">
<rect width="32" height="32" fill="white"/>
</clipPath>
<clipPath id="clip1_2087_15049">
<rect width="28" height="20" fill="white" transform="translate(2 8)"/>
</clipPath>
<clipPath id="clip2_2087_15049">
<rect width="13" height="13" fill="white" transform="translate(0 19)"/>
</clipPath>
</defs>
</svg>
