<svg width="32" height="32" viewBox="0 0 32 32" fill="none" xmlns="http://www.w3.org/2000/svg">
<g clip-path="url(#clip0_2088_15686)">
<path d="M3 27.6667C3 21.7756 7.77563 17 13.6667 17H18.3333C24.2244 17 29 21.7756 29 27.6667V31H23V27H21V31H11V27H9V31H3V27.6667Z" fill="#FCFCFC" fill-opacity="0.75"/>
<path d="M29 31.5H29.5V31V27.6667C29.5 21.4995 24.5005 16.5 18.3333 16.5H13.6667C7.49949 16.5 2.5 21.4995 2.5 27.6667V31V31.5H3H9H9.5V31V27.5H10.5V31V31.5H11H21H21.5V31V27.5H22.5V31V31.5H23H29Z" stroke="#FCFCFC" stroke-opacity="0.75"/>
<circle cx="16" cy="8" r="7" fill="#FCFCFC" fill-opacity="0.75"/>
<circle cx="16" cy="8" r="7.5" stroke="#FCFCFC" stroke-opacity="0.75"/>
<circle cx="16" cy="8" r="6.5" fill="url(#paint0_linear_2088_15686)" stroke="#919191"/>
<path d="M3.5 27.6667C3.5 22.0518 8.05177 17.5 13.6667 17.5H18.3333C23.9482 17.5 28.5 22.0518 28.5 27.6667V30.5H23.5V27.5C23.5 26.9477 23.0523 26.5 22.5 26.5C21.9477 26.5 21.5 26.9477 21.5 27.5V30.5H10.5V27.5C10.5 26.9477 10.0523 26.5 9.5 26.5C8.94771 26.5 8.5 26.9477 8.5 27.5V30.5H3.5V27.6667Z" fill="url(#paint1_linear_2088_15686)" stroke="#919191"/>
<g clip-path="url(#clip1_2088_15686)">
<path d="M6 19H8V22H6V19Z" fill="#3A3A3A"/>
<path d="M10.5352 20.0503L11.9494 21.4645L9.82805 23.5858L8.41384 22.1716L10.5352 20.0503Z" fill="#3A3A3A"/>
<path d="M10 24H13V26H10V24Z" fill="#3A3A3A"/>
<path d="M9.82812 26.4141L11.9494 28.5354L10.5352 29.9496L8.41391 27.8283L9.82812 26.4141Z" fill="#3A3A3A"/>
<path d="M6 28H8V31H6V28Z" fill="#3A3A3A"/>
<path d="M4.17188 26.4141L5.58609 27.8283L3.46477 29.9496L2.05055 28.5354L4.17188 26.4141Z" fill="#3A3A3A"/>
<path d="M1 24H4V26H1V24Z" fill="#3A3A3A"/>
<path d="M3.46484 20.0503L5.58616 22.1716L4.17195 23.5858L2.05063 21.4645L3.46484 20.0503Z" fill="#3A3A3A"/>
<path fill-rule="evenodd" clip-rule="evenodd" d="M7 27C8.10457 27 9 26.1046 9 25C9 23.8954 8.10457 23 7 23C5.89543 23 5 23.8954 5 25C5 26.1046 5.89543 27 7 27ZM7 29C9.20914 29 11 27.2091 11 25C11 22.7909 9.20914 21 7 21C4.79086 21 3 22.7909 3 25C3 27.2091 4.79086 29 7 29Z" fill="#3A3A3A"/>
<path d="M6 18.5H5.5V19V20.7561C5.34953 20.8092 5.20274 20.8702 5.0601 20.9384L3.8184 19.6967L3.46484 19.3432L3.11129 19.6967L1.69708 21.111L1.34352 21.4645L1.69708 21.8181L2.93867 23.0596C2.87033 23.2024 2.8093 23.3494 2.75606 23.5H1H0.5V24V26V26.5H1H2.75606C2.80928 26.6506 2.87029 26.7975 2.93861 26.9402L1.697 28.1818L1.34345 28.5354L1.697 28.8889L3.11121 30.3032L3.46477 30.6567L3.81832 30.3032L5.05998 29.0615C5.20266 29.1298 5.34949 29.1907 5.5 29.2439V31V31.5H6H8H8.5V31V29.2439C8.65051 29.1907 8.79734 29.1298 8.94002 29.0615L10.1817 30.3032L10.5352 30.6567L10.8888 30.3032L12.303 28.8889L12.6566 28.5354L12.303 28.1818L11.0614 26.9402C11.1297 26.7975 11.1907 26.6506 11.2439 26.5H13H13.5V26V24V23.5H13H11.2439C11.1907 23.3494 11.1297 23.2024 11.0613 23.0596L12.3029 21.8181L12.6565 21.4645L12.3029 21.111L10.8887 19.6967L10.5352 19.3432L10.1816 19.6967L8.9399 20.9384C8.79726 20.8702 8.65047 20.8092 8.5 20.7561V19V18.5H8H6ZM8.5 25C8.5 25.8284 7.82843 26.5 7 26.5C6.17157 26.5 5.5 25.8284 5.5 25C5.5 24.1716 6.17157 23.5 7 23.5C7.82843 23.5 8.5 24.1716 8.5 25Z" stroke="#FCFCFC" stroke-opacity="0.75"/>
</g>
</g>
<defs>
<linearGradient id="paint0_linear_2088_15686" x1="23" y1="8.63636" x2="9" y2="8.63636" gradientUnits="userSpaceOnUse">
<stop stop-color="#F4F7F6"/>
<stop offset="1" stop-color="#D8D8D8"/>
</linearGradient>
<linearGradient id="paint1_linear_2088_15686" x1="29" y1="24.6364" x2="3" y2="24.6364" gradientUnits="userSpaceOnUse">
<stop stop-color="#F4F7F6"/>
<stop offset="1" stop-color="#D8D8D8"/>
</linearGradient>
<clipPath id="clip0_2088_15686">
<rect width="32" height="32" fill="white"/>
</clipPath>
<clipPath id="clip1_2088_15686">
<rect width="14" height="14" fill="white" transform="translate(0 18)"/>
</clipPath>
</defs>
</svg>
