<svg width="32" height="32" viewBox="0 0 32 32" fill="none" xmlns="http://www.w3.org/2000/svg">
<g clip-path="url(#clip0_2090_15809)">
<rect y="3" width="32" height="26" fill="#FCFCFC" fill-opacity="0.75"/>
<rect x="1.5" y="4.5" width="29" height="23" fill="#FCFCFC" stroke="#919191"/>
</g>
<g clip-path="url(#clip1_2090_15809)">
<rect x="7" y="9" width="9" height="1" fill="#3A3A3A"/>
<rect x="16" y="9" width="9" height="1" fill="#3A3A3A"/>
<rect x="24" y="9" width="1" height="5" fill="#3A3A3A"/>
<rect x="7" y="9" width="1" height="5" fill="#3A3A3A"/>
<rect x="7" y="21" width="9" height="1" fill="#3A3A3A"/>
<rect x="16" y="21" width="9" height="1" fill="#3A3A3A"/>
<rect x="7" y="17" width="9" height="1" fill="#3A3A3A"/>
<rect x="16" y="17" width="9" height="1" fill="#3A3A3A"/>
<rect x="7" y="13" width="9" height="1" fill="#3A3A3A"/>
<rect x="16" y="13" width="9" height="1" fill="#3A3A3A"/>
</g>
<g clip-path="url(#clip2_2090_15809)">
<rect y="19" width="3" height="13" fill="#FCFCFC" fill-opacity="0.75"/>
<rect x="1" y="24" width="1" height="7" fill="#3A3A3A"/>
<rect x="1" y="20" width="1" height="2" fill="#3A3A3A"/>
</g>
<defs>
<clipPath id="clip0_2090_15809">
<rect width="32" height="26" fill="white" transform="translate(0 3)"/>
</clipPath>
<clipPath id="clip1_2090_15809">
<rect width="18" height="13" fill="white" transform="translate(7 9)"/>
</clipPath>
<clipPath id="clip2_2090_15809">
<rect width="3" height="13" fill="white" transform="translate(0 19)"/>
</clipPath>
</defs>
</svg>
