<svg width="32" height="32" viewBox="0 0 32 32" fill="none" xmlns="http://www.w3.org/2000/svg">
<g clip-path="url(#clip0_2091_16185)">
<g clip-path="url(#clip1_2091_16185)">
<path d="M23 0H4V32H28V5L23 0Z" fill="#FCFCFC" fill-opacity="0.75"/>
<path d="M5.5 1.5H21.7929L26.5 6.20711V30.5H5.5V1.5Z" fill="url(#paint0_linear_2091_16185)" stroke="#3A3A3A"/>
<path d="M21 1H22V6H27V7H21V1Z" fill="#3A3A3A"/>
</g>
<g clip-path="url(#clip2_2091_16185)">
<path d="M1 25C1 24.3705 1.29639 23.7777 1.8 23.4L4.46667 21.4C4.81286 21.1404 5.23393 21 5.66667 21H11C12.1046 21 13 21.8954 13 23V29C13 30.1046 12.1046 31 11 31H5.66667C5.23393 31 4.81286 30.8596 4.46667 30.6L1.8 28.6C1.29639 28.2223 1 27.6295 1 27V25Z" fill="#FCFCFC" fill-opacity="0.75"/>
<path d="M4.16667 31L4.46667 30.6L4.16667 31C4.59941 31.3246 5.12574 31.5 5.66667 31.5H11C12.3807 31.5 13.5 30.3807 13.5 29V23C13.5 21.6193 12.3807 20.5 11 20.5H5.66667C5.12574 20.5 4.59941 20.6754 4.16667 21L1.5 23C0.870485 23.4721 0.5 24.2131 0.5 25V27C0.5 27.7869 0.870485 28.5279 1.5 29L4.16667 31Z" stroke="#FCFCFC" stroke-opacity="0.75"/>
<path d="M1.5 25C1.5 24.5279 1.72229 24.0833 2.1 23.8L4.76667 21.8C5.02631 21.6053 5.34211 21.5 5.66667 21.5H11C11.8284 21.5 12.5 22.1716 12.5 23V29C12.5 29.8284 11.8284 30.5 11 30.5H5.66667C5.34211 30.5 5.02631 30.3947 4.76667 30.2L2.1 28.2C1.72229 27.9167 1.5 27.4721 1.5 27V25Z" fill="url(#paint1_linear_2091_16185)" stroke="#00A1DB"/>
<path d="M4 26C4 25.4477 4.44772 25 5 25C5.55228 25 6 25.4477 6 26C6 26.5523 5.55228 27 5 27C4.44772 27 4 26.5523 4 26Z" fill="#00A1DB"/>
</g>
</g>
<defs>
<linearGradient id="paint0_linear_2091_16185" x1="16" y1="1" x2="16" y2="31" gradientUnits="userSpaceOnUse">
<stop stop-color="#FCFCFC"/>
<stop offset="1" stop-color="#E6EAEA"/>
</linearGradient>
<linearGradient id="paint1_linear_2091_16185" x1="10.6667" y1="22.3889" x2="5.17282" y2="30.8651" gradientUnits="userSpaceOnUse">
<stop stop-color="#94E1FC"/>
<stop offset="1" stop-color="#FCFCFC"/>
</linearGradient>
<clipPath id="clip0_2091_16185">
<rect width="32" height="32" fill="white"/>
</clipPath>
<clipPath id="clip1_2091_16185">
<rect width="24" height="32" fill="white" transform="translate(4)"/>
</clipPath>
<clipPath id="clip2_2091_16185">
<rect width="12" height="14" fill="white" transform="translate(14 20) rotate(90)"/>
</clipPath>
</defs>
</svg>
