<svg width="32" height="32" viewBox="0 0 32 32" fill="none" xmlns="http://www.w3.org/2000/svg">
<g clip-path="url(#clip0_2091_16216)">
<path d="M23 0H4V32H28V5L23 0Z" fill="#FCFCFC" fill-opacity="0.75"/>
<path d="M5.5 1.5H21.7929L26.5 6.20711V30.5H5.5V1.5Z" fill="url(#paint0_linear_2091_16216)" stroke="#3A3A3A"/>
<path d="M21 1H22V6H27V7H21V1Z" fill="#3A3A3A"/>
</g>
<g clip-path="url(#clip1_2091_16216)">
<circle cx="6.5" cy="24.5" r="4.5" fill="#FCFCFC" fill-opacity="0.75"/>
<path d="M0 29C0 27.3431 1.34315 26 3 26H10C11.6569 26 13 27.3431 13 29V31H12V32H1V31H0V29Z" fill="#FCFCFC" fill-opacity="0.75"/>
<circle cx="6.5" cy="24.5" r="3" fill="url(#paint1_linear_2091_16216)" stroke="#00A1DB"/>
<rect x="2" y="30" width="9" height="1" fill="#00A1DB"/>
<path d="M1.5 29C1.5 28.1716 2.17157 27.5 3 27.5H10C10.8284 27.5 11.5 28.1716 11.5 29V29.5H1.5V29Z" fill="#94E1FC" stroke="#00A1DB"/>
<path d="M5 29V26H8V29H5Z" fill="#94E1FC"/>
<circle cx="6.49962" cy="24.5" r="2.5" transform="rotate(135 6.49962 24.5)" fill="url(#paint2_linear_2091_16216)"/>
</g>
<defs>
<linearGradient id="paint0_linear_2091_16216" x1="16" y1="1" x2="16" y2="31" gradientUnits="userSpaceOnUse">
<stop stop-color="#FCFCFC"/>
<stop offset="1" stop-color="#E6EAEA"/>
</linearGradient>
<linearGradient id="paint1_linear_2091_16216" x1="8.63889" y1="21.9722" x2="4.55556" y2="27.2222" gradientUnits="userSpaceOnUse">
<stop stop-color="#94E1FC"/>
<stop offset="1" stop-color="#FCFCFC"/>
</linearGradient>
<linearGradient id="paint2_linear_2091_16216" x1="8.0274" y1="22.6944" x2="5.11073" y2="26.4444" gradientUnits="userSpaceOnUse">
<stop stop-color="#94E1FC"/>
<stop offset="1" stop-color="#FCFCFC"/>
</linearGradient>
<clipPath id="clip0_2091_16216">
<rect width="24" height="32" fill="white" transform="translate(4)"/>
</clipPath>
<clipPath id="clip1_2091_16216">
<rect width="13" height="12" fill="white" transform="translate(0 20)"/>
</clipPath>
</defs>
</svg>
