<svg width="32" height="32" viewBox="0 0 32 32" fill="none" xmlns="http://www.w3.org/2000/svg">
<g clip-path="url(#clip0_2091_16496)">
<path d="M23 0H4V32H28V5L23 0Z" fill="#FCFCFC" fill-opacity="0.75"/>
<path d="M5.5 1.5H21.7929L26.5 6.20711V30.5H5.5V1.5Z" fill="url(#paint0_linear_2091_16496)" stroke="#3A3A3A"/>
<path d="M21 1H22V6H27V7H21V1Z" fill="#3A3A3A"/>
</g>
<g clip-path="url(#clip1_2091_16496)">
<path d="M9 20L2 20L2 21L9 21L9 20Z" fill="#00A1DB"/>
<path d="M6 20L5 20V31H6L6 20Z" fill="#00A1DB"/>
<path d="M9.5 20V19.5L9 19.5L6.5 19.5L6 19.5L5 19.5L4.5 19.5L2 19.5L1.5 19.5L1.5 20L1.5 21L1.5 21.5H2L4.5 21.5V31V31.5H5H6H6.5V31L6.5 21.5L9 21.5H9.5L9.5 21L9.5 20Z" stroke="#FCFCFC" stroke-opacity="0.75"/>
</g>
<defs>
<linearGradient id="paint0_linear_2091_16496" x1="16" y1="1" x2="16" y2="31" gradientUnits="userSpaceOnUse">
<stop stop-color="#FCFCFC"/>
<stop offset="1" stop-color="#E6EAEA"/>
</linearGradient>
<clipPath id="clip0_2091_16496">
<rect width="24" height="32" fill="white" transform="translate(4)"/>
</clipPath>
<clipPath id="clip1_2091_16496">
<rect width="9" height="13" fill="white" transform="translate(1 19)"/>
</clipPath>
</defs>
</svg>
