<svg width="32" height="32" viewBox="0 0 32 32" fill="none" xmlns="http://www.w3.org/2000/svg">
<g clip-path="url(#clip0_2093_16715)">
<path d="M9.33333 3H2.66667C1.19391 3 0 4.19391 0 5.66667V25C0 27.2091 1.79086 29 4 29H28C30.2091 29 32 27.2091 32 25V12.3333C32 10.1242 30.2091 8.33333 28 8.33333C28 6.86057 26.8061 5.66667 25.3333 5.66667H12C12 4.19391 10.8061 3 9.33333 3Z" fill="#FCFCFC" fill-opacity="0.75"/>
<path d="M8 4H4C2.34315 4 1 5.34315 1 7V24C1 26.2091 2.79086 28 5 28H27C29.2091 28 31 26.2091 31 24V13C31 10.7909 29.2091 9 27 9C27 7.89552 26.1046 7.00016 25.0002 7.00016H11C11 5.34331 9.65685 4 8 4Z" fill="#00A1DB"/>
<path d="M2 14C2 12.3431 3.34315 11 5 11H27C28.6569 11 30 12.3431 30 14V24C30 25.6569 28.6569 27 27 27H5C3.34315 27 2 25.6569 2 24V14Z" fill="url(#paint0_linear_2093_16715)"/>
</g>
<rect x="12" y="11" width="3" height="1" fill="#00A1DB"/>
<rect x="14" y="12" width="3" height="1" fill="#00A1DB"/>
<rect x="14" y="14" width="3" height="1" fill="#00A1DB"/>
<rect x="12" y="13" width="3" height="1" fill="#00A1DB"/>
<rect x="12" y="17" width="3" height="1" fill="#00A1DB"/>
<rect x="14" y="18" width="3" height="1" fill="#00A1DB"/>
<rect x="12" y="19" width="3" height="1" fill="#00A1DB"/>
<rect x="14" y="20" width="3" height="1" fill="#00A1DB"/>
<rect x="12" y="21" width="3" height="1" fill="#00A1DB"/>
<rect x="14" y="22" width="3" height="1" fill="#00A1DB"/>
<rect x="14" y="24" width="3" height="1" fill="#00A1DB"/>
<rect x="14" y="26" width="3" height="1" fill="#00A1DB"/>
<rect x="12" y="23" width="3" height="1" fill="#00A1DB"/>
<rect x="12" y="25" width="3" height="1" fill="#00A1DB"/>
<rect x="12" y="15" width="3" height="1" fill="#00A1DB"/>
<rect x="14" y="16" width="3" height="1" fill="#00A1DB"/>
<defs>
<linearGradient id="paint0_linear_2093_16715" x1="24.5556" y1="13.2222" x2="17.4078" y2="29.3047" gradientUnits="userSpaceOnUse">
<stop stop-color="#94E1FC"/>
<stop offset="1" stop-color="#FCFCFC"/>
</linearGradient>
<clipPath id="clip0_2093_16715">
<rect width="32" height="26" fill="white" transform="translate(0 3)"/>
</clipPath>
</defs>
</svg>
