<svg width="32" height="32" viewBox="0 0 32 32" fill="none" xmlns="http://www.w3.org/2000/svg">
<g clip-path="url(#clip0_2093_16814)">
<path d="M0 5C0 3.34315 1.34315 2 3 2H5.5C6.32843 2 7 2.67157 7 3.5C7 4.32843 6.32843 5 5.5 5H4C3.44772 5 3 5.44772 3 6V13H12C13.6569 13 15 14.3431 15 16V16.5L15.1056 16.4472C15.6686 16.1657 16.3314 16.1657 16.8944 16.4472L17 16.5V16C17 14.3431 18.3431 13 20 13H29V6C29 5.44772 28.5523 5 28 5H26.5C25.6716 5 25 4.32843 25 3.5C25 2.67157 25.6716 2 26.5 2H30C31.1046 2 32 2.89543 32 4V19C32 19.5523 31.5523 20 31 20V22C31 25.866 27.866 29 24 29C20.134 29 17 25.866 17 22V19.5L16.8944 19.4472C16.3314 19.1657 15.6686 19.1657 15.1056 19.4472L15 19.5V22C15 25.866 11.866 29 8 29C4.13401 29 1 25.866 1 22V20C0.447715 20 0 19.5523 0 19V5Z" fill="#FCFCFC" fill-opacity="0.75"/>
<path d="M2.5 16C2.5 15.1716 3.17157 14.5 4 14.5H12C12.8284 14.5 13.5 15.1716 13.5 16V22C13.5 25.0376 11.0376 27.5 8 27.5C4.96243 27.5 2.5 25.0376 2.5 22V16Z" fill="url(#paint0_linear_2093_16814)" stroke="#3A3A3A"/>
<path d="M18.5 16C18.5 15.1716 19.1716 14.5 20 14.5H28C28.8284 14.5 29.5 15.1716 29.5 16V22C29.5 25.0376 27.0376 27.5 24 27.5C20.9624 27.5 18.5 25.0376 18.5 22V16Z" fill="url(#paint1_linear_2093_16814)" stroke="#3A3A3A"/>
<path d="M13 18L14.4189 17.527C15.4452 17.1849 16.5548 17.1849 17.5811 17.527L19 18V19L17.5811 18.527C16.5548 18.1849 15.4452 18.1849 14.4189 18.527L13 19V18Z" fill="#3A3A3A"/>
<path d="M1 5C1 3.89543 1.89543 3 3 3H5.50007C5.77617 3 6 3.22383 6 3.49993C6 3.77602 5.77619 3.99985 5.50009 3.99986L2.99996 3.99996C2.44769 3.99998 2 4.44769 2 4.99996V16H3V19H2C1.44772 19 1 18.5523 1 18V5Z" fill="#3A3A3A"/>
<path d="M31 5C31 3.89543 30.1046 3 29 3H26.4999C26.2238 3 26 3.22383 26 3.49993C26 3.77602 26.2238 3.99985 26.4999 3.99986L29 3.99996C29.5523 3.99998 30 4.44769 30 4.99996V16H29V19H30C30.5523 19 31 18.5523 31 18V5Z" fill="#3A3A3A"/>
</g>
<defs>
<linearGradient id="paint0_linear_2093_16814" x1="11.6667" y1="15.9444" x2="3.28036" y2="25.1865" gradientUnits="userSpaceOnUse">
<stop stop-color="#94E1FC"/>
<stop offset="1" stop-color="#FCFCFC"/>
</linearGradient>
<linearGradient id="paint1_linear_2093_16814" x1="27.6667" y1="15.9444" x2="19.2804" y2="25.1865" gradientUnits="userSpaceOnUse">
<stop stop-color="#94E1FC"/>
<stop offset="1" stop-color="#FCFCFC"/>
</linearGradient>
<clipPath id="clip0_2093_16814">
<rect width="32" height="32" fill="white"/>
</clipPath>
</defs>
</svg>
