<svg width="32" height="32" viewBox="0 0 32 32" fill="none" xmlns="http://www.w3.org/2000/svg">
<g clip-path="url(#clip0_2095_17125)">
<rect y="1" width="32" height="29" fill="#FCFCFC" fill-opacity="0.75"/>
<rect x="1.5" y="8.5" width="29" height="20" fill="url(#paint0_linear_2095_17125)" stroke="#919191"/>
<path d="M1 2H31V7H29V3H26V7H24V3H21V7H19V3H16V7H1V2Z" fill="#3A3A3A"/>
<rect x="1" y="6" width="30" height="1" fill="#3A3A3A"/>
<g clip-path="url(#clip1_2095_17125)">
<rect x="15" y="23" width="3" height="2" fill="#FCFCFC" fill-opacity="0.75"/>
<rect x="16" y="23" width="1" height="1" fill="#3A3A3A"/>
<path fill-rule="evenodd" clip-rule="evenodd" d="M14.7911 14.6661C14.3416 15.1155 14 15.8526 14 17L13 17C13 15.6474 13.4084 14.6345 14.0839 13.9589C14.7557 13.2872 15.641 13 16.5 13C17.3565 13 18.2294 13.2849 18.8947 13.8763C19.5691 14.4758 20 15.3643 20 16.5C20 17.3278 19.7883 17.9835 19.4466 18.4935C19.1073 19 18.6589 19.3342 18.2263 19.5538C17.7954 19.7725 17.3703 19.8827 17.057 19.9389C17.0376 19.9424 17.0186 19.9456 17 19.9487L17 22L16 22L16 19.0075L16.491 19.0001L16.4931 19L16.5097 18.9993C16.5259 18.9986 16.5519 18.997 16.5863 18.9941C16.6553 18.9882 16.7571 18.9767 16.8805 18.9546C17.1297 18.9099 17.4546 18.824 17.7737 18.6621C18.0911 18.501 18.3927 18.2699 18.6159 17.9369C18.8367 17.6074 19 17.1495 19 16.5C19 15.6357 18.6809 15.0242 18.2303 14.6237C17.7706 14.2151 17.1435 14 16.5 14C15.859 14 15.2443 14.2128 14.7911 14.6661Z" fill="#FCFCFC" fill-opacity="0.75"/>
<path d="M14 17.5L14.5 17.5L14.5 17C14.5 15.9555 14.8081 15.3562 15.1446 15.0196C15.4888 14.6754 15.9683 14.5 16.5 14.5C17.0368 14.5 17.5411 14.68 17.8981 14.9974C18.2368 15.2984 18.5 15.7715 18.5 16.5C18.5 17.0603 18.3608 17.4192 18.2005 17.6586C18.0354 17.905 17.8071 18.0844 17.5474 18.2162C17.2843 18.3498 17.0094 18.4235 16.7923 18.4624C16.686 18.4815 16.5996 18.4911 16.5437 18.4959C16.5173 18.4982 16.4981 18.4993 16.4874 18.4998L16.4781 18.5002L15.9924 18.5076L15.5 18.515L15.5 19.0075L15.5 22L15.5 22.5L16 22.5L17 22.5L17.5 22.5L17.5 22L17.5 20.3542C17.7861 20.2814 18.1165 20.1702 18.4526 19.9997C18.9428 19.7509 19.4645 19.365 19.862 18.7718C20.2642 18.1716 20.5 17.4169 20.5 16.5C20.5 15.2287 20.0134 14.2017 19.2269 13.5026C18.4588 12.8198 17.463 12.5 16.5 12.5C15.5322 12.5 14.5115 12.8243 13.7304 13.6054C12.9417 14.3941 12.5 15.545 12.5 17L12.5 17.5L13 17.5L14 17.5Z" stroke="#FCFCFC" stroke-opacity="0.75"/>
<path d="M13.5 17C13.5 14.5 15 13.5 16.5 13.5C18 13.5 19.5 14.5 19.5 16.5C19.5 18.3348 18.3431 19.0477 17.4661 19.3245C16.9451 19.489 16.5 19.9386 16.5 20.485L16.5 22" stroke="#3A3A3A"/>
</g>
</g>
<defs>
<linearGradient id="paint0_linear_2095_17125" x1="16" y1="8" x2="16" y2="29" gradientUnits="userSpaceOnUse">
<stop stop-color="#FCFCFC"/>
<stop offset="1" stop-color="#E6EAEA"/>
</linearGradient>
<clipPath id="clip0_2095_17125">
<rect width="32" height="32" fill="white"/>
</clipPath>
<clipPath id="clip1_2095_17125">
<rect width="9" height="13" fill="white" transform="translate(12 12)"/>
</clipPath>
</defs>
</svg>
