<svg width="32" height="32" viewBox="0 0 32 32" fill="none" xmlns="http://www.w3.org/2000/svg">
<g clip-path="url(#clip0_2098_14924)">
<rect width="32" height="31" rx="2" fill="#FCFCFC" fill-opacity="0.75"/>
<g clip-path="url(#clip1_2098_14924)">
<path d="M1.5 2C1.5 1.72386 1.72386 1.5 2 1.5H30C30.2761 1.5 30.5 1.72386 30.5 2V9C30.5 9.27614 30.2761 9.5 30 9.5H2C1.72386 9.5 1.5 9.27614 1.5 9V2Z" fill="url(#paint0_linear_2098_14924)" stroke="#919191"/>
<rect x="26" y="5" width="2" height="2" fill="#3A3A3A"/>
<rect x="22" y="5" width="2" height="2" fill="#3A3A3A"/>
<rect x="18" y="5" width="2" height="2" fill="#3A3A3A"/>
</g>
<g clip-path="url(#clip2_2098_14924)">
<path d="M1.5 12C1.5 11.7239 1.72386 11.5 2 11.5H30C30.2761 11.5 30.5 11.7239 30.5 12V19C30.5 19.2761 30.2761 19.5 30 19.5H2C1.72386 19.5 1.5 19.2761 1.5 19V12Z" fill="url(#paint1_linear_2098_14924)" stroke="#919191"/>
<rect x="26" y="15" width="2" height="2" fill="#3A3A3A"/>
<rect x="22" y="15" width="2" height="2" fill="#3A3A3A"/>
<rect x="18" y="15" width="2" height="2" fill="#3A3A3A"/>
</g>
<g clip-path="url(#clip3_2098_14924)">
<path d="M1.5 22C1.5 21.7239 1.72386 21.5 2 21.5H30C30.2761 21.5 30.5 21.7239 30.5 22V29C30.5 29.2761 30.2761 29.5 30 29.5H2C1.72386 29.5 1.5 29.2761 1.5 29V22Z" fill="url(#paint2_linear_2098_14924)" stroke="#919191"/>
<rect x="26" y="25" width="2" height="2" fill="#3A3A3A"/>
<rect x="22" y="25" width="2" height="2" fill="#3A3A3A"/>
<rect x="18" y="25" width="2" height="2" fill="#3A3A3A"/>
</g>
</g>
<defs>
<linearGradient id="paint0_linear_2098_14924" x1="16" y1="1" x2="16" y2="10" gradientUnits="userSpaceOnUse">
<stop stop-color="#F4F7F6"/>
<stop offset="1" stop-color="#D8D8D8"/>
</linearGradient>
<linearGradient id="paint1_linear_2098_14924" x1="16" y1="11" x2="16" y2="20" gradientUnits="userSpaceOnUse">
<stop stop-color="#F4F7F6"/>
<stop offset="1" stop-color="#D8D8D8"/>
</linearGradient>
<linearGradient id="paint2_linear_2098_14924" x1="16" y1="21" x2="16" y2="30" gradientUnits="userSpaceOnUse">
<stop stop-color="#F4F7F6"/>
<stop offset="1" stop-color="#D8D8D8"/>
</linearGradient>
<clipPath id="clip0_2098_14924">
<rect width="32" height="32" fill="white"/>
</clipPath>
<clipPath id="clip1_2098_14924">
<rect width="30" height="9" fill="white" transform="translate(1 1)"/>
</clipPath>
<clipPath id="clip2_2098_14924">
<rect width="30" height="9" fill="white" transform="translate(1 11)"/>
</clipPath>
<clipPath id="clip3_2098_14924">
<rect width="30" height="9" fill="white" transform="translate(1 21)"/>
</clipPath>
</defs>
</svg>
