<svg width="32" height="32" viewBox="0 0 32 32" fill="none" xmlns="http://www.w3.org/2000/svg">
<g clip-path="url(#clip0_2101_15076)">
<path d="M5 4C5 2.34315 6.34315 1 8 1H25C26.6569 1 28 2.34315 28 4V27C28 28.6569 26.6569 30 25 30H8C6.34315 30 5 28.6569 5 27V4Z" fill="#FCFCFC" fill-opacity="0.75"/>
<path d="M8 0.5C6.067 0.5 4.5 2.067 4.5 4V27C4.5 28.933 6.067 30.5 8 30.5H25C26.933 30.5 28.5 28.933 28.5 27V4C28.5 2.067 26.933 0.5 25 0.5H8Z" stroke="#FCFCFC" stroke-opacity="0.75"/>
<path d="M5.5 4C5.5 2.61929 6.61929 1.5 8 1.5H25C26.3807 1.5 27.5 2.61929 27.5 4V27C27.5 28.3807 26.3807 29.5 25 29.5H8C6.61929 29.5 5.5 28.3807 5.5 27V4Z" fill="url(#paint0_linear_2101_15076)" stroke="#919191"/>
<path d="M5.5 4C5.5 3.17157 6.17157 2.5 7 2.5H26C26.8284 2.5 27.5 3.17157 27.5 4V9.5H5.5V4Z" fill="url(#paint1_linear_2101_15076)" stroke="#919191"/>
<rect x="24" y="4" width="1" height="4" fill="#919191"/>
<rect x="8" y="13" width="5" height="3" rx="1" fill="#3A3A3A"/>
<path d="M8 14C8 13.4477 8.44772 13 9 13H12C12.5523 13 13 13.4477 13 14V15H8V14Z" fill="url(#paint2_linear_2101_15076)"/>
<rect x="20" y="13" width="5" height="3" rx="1" fill="#3A3A3A"/>
<path d="M20 14C20 13.4477 20.4477 13 21 13H24C24.5523 13 25 13.4477 25 14V15H20V14Z" fill="url(#paint3_linear_2101_15076)"/>
<rect x="20" y="18" width="5" height="3" rx="1" fill="#3A3A3A"/>
<path d="M20 19C20 18.4477 20.4477 18 21 18H24C24.5523 18 25 18.4477 25 19V20H20V19Z" fill="url(#paint4_linear_2101_15076)"/>
<rect x="20" y="23" width="5" height="3" rx="1" fill="#3A3A3A"/>
<path d="M20 24C20 23.4477 20.4477 23 21 23H24C24.5523 23 25 23.4477 25 24V25H20V24Z" fill="url(#paint5_linear_2101_15076)"/>
<rect x="14" y="13" width="5" height="3" rx="1" fill="#3A3A3A"/>
<path d="M14 14C14 13.4477 14.4477 13 15 13H18C18.5523 13 19 13.4477 19 14V15H14V14Z" fill="url(#paint6_linear_2101_15076)"/>
<rect x="14" y="18" width="5" height="3" rx="1" fill="#3A3A3A"/>
<path d="M14 19C14 18.4477 14.4477 18 15 18H18C18.5523 18 19 18.4477 19 19V20H14V19Z" fill="url(#paint7_linear_2101_15076)"/>
<g clip-path="url(#clip1_2101_15076)">
<path d="M7 20L11 22V23H7V24H3V23H1V22H3V20H7Z" fill="#00A1DB"/>
<path d="M3 26H1V25H11V26L7 28H3V26Z" fill="#00A1DB"/>
<path d="M7 29H3V31H7V29Z" fill="#00A1DB"/>
<path d="M7 19.5H7.11803L7.22361 19.5528L11.2236 21.5528L11.5 21.691V22V23V23.5H11H7.5V24V24.5H11H11.5V25V26V26.309L11.2236 26.4472L7.22361 28.4472L7.11803 28.5H7.5V29V31V31.5H7H3H2.5V31V29V28.5V28V26.5H1H0.5V26V25V24.5H1H2.5V24V23.5H1H0.5V23V22V21.5H1H2.5V20V19.5H3H7Z" stroke="#FCFCFC" stroke-opacity="0.75"/>
</g>
</g>
<defs>
<linearGradient id="paint0_linear_2101_15076" x1="16.5" y1="1" x2="16.5" y2="30" gradientUnits="userSpaceOnUse">
<stop stop-color="#F4F7F6"/>
<stop offset="1" stop-color="#D8D8D8"/>
</linearGradient>
<linearGradient id="paint1_linear_2101_15076" x1="23.5278" y1="3.11111" x2="21.1003" y2="12.084" gradientUnits="userSpaceOnUse">
<stop stop-color="#94E1FC"/>
<stop offset="1" stop-color="#FCFCFC"/>
</linearGradient>
<linearGradient id="paint2_linear_2101_15076" x1="10.5" y1="13" x2="10.5" y2="14" gradientUnits="userSpaceOnUse">
<stop offset="0.0078125" stop-color="#D8D8D8"/>
<stop offset="1" stop-color="#919191"/>
</linearGradient>
<linearGradient id="paint3_linear_2101_15076" x1="22.5" y1="13" x2="22.5" y2="14" gradientUnits="userSpaceOnUse">
<stop offset="0.0078125" stop-color="#D8D8D8"/>
<stop offset="1" stop-color="#919191"/>
</linearGradient>
<linearGradient id="paint4_linear_2101_15076" x1="22.5" y1="18" x2="22.5" y2="19" gradientUnits="userSpaceOnUse">
<stop offset="0.0078125" stop-color="#D8D8D8"/>
<stop offset="1" stop-color="#919191"/>
</linearGradient>
<linearGradient id="paint5_linear_2101_15076" x1="22.5" y1="23" x2="22.5" y2="24" gradientUnits="userSpaceOnUse">
<stop offset="0.0078125" stop-color="#D8D8D8"/>
<stop offset="1" stop-color="#919191"/>
</linearGradient>
<linearGradient id="paint6_linear_2101_15076" x1="16.5" y1="13" x2="16.5" y2="14" gradientUnits="userSpaceOnUse">
<stop offset="0.0078125" stop-color="#D8D8D8"/>
<stop offset="1" stop-color="#919191"/>
</linearGradient>
<linearGradient id="paint7_linear_2101_15076" x1="16.5" y1="18" x2="16.5" y2="19" gradientUnits="userSpaceOnUse">
<stop offset="0.0078125" stop-color="#D8D8D8"/>
<stop offset="1" stop-color="#919191"/>
</linearGradient>
<clipPath id="clip0_2101_15076">
<rect width="32" height="32" fill="white"/>
</clipPath>
<clipPath id="clip1_2101_15076">
<rect width="12" height="13" fill="white" transform="translate(0 19)"/>
</clipPath>
</defs>
</svg>
