<svg width="32" height="32" viewBox="0 0 32 32" fill="none" xmlns="http://www.w3.org/2000/svg">
<g clip-path="url(#clip0_2104_15327)">
<path d="M0 3H32V25H20V26H28V29H4V26H12V25H0V3Z" fill="#FCFCFC" fill-opacity="0.75"/>
<path d="M5 27H13V23H19V27H27V28H5V27Z" fill="#3A3A3A"/>
<path d="M1.5 4.5H30.5V23.5H1.5V4.5Z" fill="#94E1FC" stroke="#919191"/>
<g clip-path="url(#clip1_2104_15327)">
<circle cx="6.5" cy="22.5" r="3.5" fill="#FCFCFC" fill-opacity="0.75"/>
<path d="M0 29.7273C0 27.1165 2.11647 25 4.72727 25H8.27273C10.8835 25 13 27.1165 13 29.7273V32H0V29.7273Z" fill="#FCFCFC" fill-opacity="0.75"/>
<path d="M8 26H5C3 26 1 27 1 29V31H3V29H4V31H9V29H10V31H11.9998L12 29C12 27 10 26 8 26Z" fill="#3A3A3A"/>
<circle cx="6.5" cy="22.5" r="2.5" fill="#3A3A3A"/>
</g>
</g>
<defs>
<clipPath id="clip0_2104_15327">
<rect width="32" height="32" fill="white"/>
</clipPath>
<clipPath id="clip1_2104_15327">
<rect width="13" height="13" fill="white" transform="translate(0 19)"/>
</clipPath>
</defs>
</svg>
