<svg width="32" height="32" viewBox="0 0 32 32" fill="none" xmlns="http://www.w3.org/2000/svg">
<g clip-path="url(#clip0_2106_15444)">
<g clip-path="url(#clip1_2106_15444)">
<path d="M22 7H21V0H26V7H25V8H30C31.1046 8 32 8.89543 32 10V18H30V24H32V32H0V12H13V24H17V17H15V10C15 8.89543 15.8954 8 17 8H22V7Z" fill="#FCFCFC" fill-opacity="0.75"/>
<path d="M1 25H31V30H29V27H27V30H21V27H19V30H13V27H11V30H5V27H3V30H1V25Z" fill="#3A3A3A"/>
<path d="M1 29H31V31H1V29Z" fill="#3A3A3A"/>
<rect x="18.5" y="13.5" width="10" height="10" fill="url(#paint0_linear_2106_15444)" stroke="#919191"/>
<rect x="1.5" y="13.5" width="10" height="10" fill="url(#paint1_linear_2106_15444)" stroke="#919191"/>
<rect x="17" y="10" width="13" height="2" fill="#919191"/>
<path d="M22 1H25V6H24V9H30C30.5523 9 31 9.44771 31 10V17H30V11H17V16H16V10C16 9.44771 16.4477 9 17 9H23V6H22V1Z" fill="#3A3A3A"/>
<rect x="23" y="2" width="1" height="3" fill="#D8D8D8"/>
</g>
</g>
<defs>
<linearGradient id="paint0_linear_2106_15444" x1="23.5" y1="13" x2="23.5" y2="24" gradientUnits="userSpaceOnUse">
<stop stop-color="#F4F7F6"/>
<stop offset="1" stop-color="#D8D8D8"/>
</linearGradient>
<linearGradient id="paint1_linear_2106_15444" x1="6.5" y1="13" x2="6.5" y2="24" gradientUnits="userSpaceOnUse">
<stop stop-color="#F4F7F6"/>
<stop offset="1" stop-color="#D8D8D8"/>
</linearGradient>
<clipPath id="clip0_2106_15444">
<rect width="32" height="32" fill="white"/>
</clipPath>
<clipPath id="clip1_2106_15444">
<rect width="32" height="32" fill="white"/>
</clipPath>
</defs>
</svg>
