<svg width="32" height="32" viewBox="0 0 32 32" fill="none" xmlns="http://www.w3.org/2000/svg">
<g clip-path="url(#clip0_2111_15759)">
<path d="M3 27.6667C3 21.7756 7.77563 17 13.6667 17H18.3333C24.2244 17 29 21.7756 29 27.6667V31H23V27H21V31H11V27H9V31H3V27.6667Z" fill="#FCFCFC" fill-opacity="0.75"/>
<path d="M29 31.5H29.5V31V27.6667C29.5 21.4995 24.5005 16.5 18.3333 16.5H13.6667C7.49949 16.5 2.5 21.4995 2.5 27.6667V31V31.5H3H9H9.5V31V27.5H10.5V31V31.5H11H21H21.5V31V27.5H22.5V31V31.5H23H29Z" stroke="#FCFCFC" stroke-opacity="0.75"/>
<circle cx="16" cy="8" r="7" fill="#FCFCFC" fill-opacity="0.75"/>
<circle cx="16" cy="8" r="7.5" stroke="#FCFCFC" stroke-opacity="0.75"/>
<circle cx="16" cy="8" r="6.5" fill="url(#paint0_linear_2111_15759)" stroke="#919191"/>
<path d="M3.5 27.6667C3.5 22.0518 8.05177 17.5 13.6667 17.5H18.3333C23.9482 17.5 28.5 22.0518 28.5 27.6667V30.5H23.5V27.5C23.5 26.9477 23.0523 26.5 22.5 26.5C21.9477 26.5 21.5 26.9477 21.5 27.5V30.5H10.5V27.5C10.5 26.9477 10.0523 26.5 9.5 26.5C8.94771 26.5 8.5 26.9477 8.5 27.5V30.5H3.5V27.6667Z" fill="url(#paint1_linear_2111_15759)" stroke="#919191"/>
<g clip-path="url(#clip1_2111_15759)">
<path d="M1 23C1 21.8954 1.89543 21 3 21C4.10457 21 5 21.8954 5 23H8C8.55228 23 9 23.4477 9 24H10.162C11.5451 24 12.5106 25.3702 12.0455 26.6727L10.737 30.3363C10.5949 30.7343 10.2179 31 9.79528 31H3C1.89543 31 1 30.1046 1 29V23Z" fill="#F2994A"/>
<path d="M3 20.5C1.61929 20.5 0.5 21.6193 0.5 23V29C0.5 30.3807 1.61929 31.5 3 31.5H9.79528C10.4292 31.5 10.9947 31.1015 11.2079 30.5045L12.5163 26.8408C13.0978 25.2127 11.8908 23.5 10.162 23.5H9.41465C9.20873 22.9174 8.65311 22.5 8 22.5H5.44999C5.21836 21.3589 4.20948 20.5 3 20.5Z" stroke="#FCFCFC" stroke-opacity="0.75"/>
<path d="M3.2862 25.7127C3.4131 25.2897 3.80242 25 4.24403 25H10.0682C10.7633 25 11.2464 25.6916 11.0071 26.3443L9.90711 29.3443C9.76268 29.7381 9.38776 30 8.96823 30H3.34403C2.67417 30 2.19372 29.3543 2.3862 28.7127L3.2862 25.7127Z" fill="url(#paint2_radial_2111_15759)"/>
</g>
</g>
<defs>
<linearGradient id="paint0_linear_2111_15759" x1="23" y1="8.63636" x2="9" y2="8.63636" gradientUnits="userSpaceOnUse">
<stop stop-color="#F4F7F6"/>
<stop offset="1" stop-color="#D8D8D8"/>
</linearGradient>
<linearGradient id="paint1_linear_2111_15759" x1="29" y1="24.6364" x2="3" y2="24.6364" gradientUnits="userSpaceOnUse">
<stop stop-color="#F4F7F6"/>
<stop offset="1" stop-color="#D8D8D8"/>
</linearGradient>
<radialGradient id="paint2_radial_2111_15759" cx="0" cy="0" r="1" gradientUnits="userSpaceOnUse" gradientTransform="translate(6.33696 30) rotate(-84.424) scale(6.37633 9.16659)">
<stop stop-color="#F2994A"/>
<stop offset="0.588115" stop-color="#F2C94C"/>
<stop offset="1" stop-color="#FCFCFC"/>
</radialGradient>
<clipPath id="clip0_2111_15759">
<rect width="32" height="32" fill="white"/>
</clipPath>
<clipPath id="clip1_2111_15759">
<rect width="14" height="12" fill="white" transform="translate(0 20)"/>
</clipPath>
</defs>
</svg>
