<svg width="32" height="32" viewBox="0 0 32 32" fill="none" xmlns="http://www.w3.org/2000/svg">
<g clip-path="url(#clip0_2117_18382)">
<path d="M23 0H4V32H28V5L23 0Z" fill="#FCFCFC" fill-opacity="0.75"/>
<path d="M5.5 1.5H21.7929L26.5 6.20711V30.5H5.5V1.5Z" fill="url(#paint0_linear_2117_18382)" stroke="#3A3A3A"/>
<path d="M21 1H22V6H27V7H21V1Z" fill="#3A3A3A"/>
</g>
<rect x="19" y="8" width="7" height="1" fill="#D8D8D8"/>
<rect x="19" y="9" width="7" height="1" fill="#FCFCFC"/>
<rect x="12" y="8" width="7" height="1" fill="#D8D8D8"/>
<rect x="6" y="8" width="7" height="1" fill="#D8D8D8"/>
<rect x="12" y="9" width="7" height="1" fill="#FCFCFC"/>
<rect x="6" y="9" width="7" height="1" fill="#FCFCFC"/>
<rect x="12" y="2" width="1" height="4" fill="#D8D8D8"/>
<rect x="19" y="2" width="1" height="4" fill="#D8D8D8"/>
<rect x="19" y="10" width="1" height="4" fill="#D8D8D8"/>
<rect x="12" y="15" width="7" height="1" fill="#D8D8D8"/>
<rect x="6" y="15" width="7" height="1" fill="#D8D8D8"/>
<rect x="12" y="16" width="7" height="1" fill="#FCFCFC"/>
<rect x="6" y="16" width="7" height="1" fill="#FCFCFC"/>
<rect x="19" y="15" width="7" height="1" fill="#D8D8D8"/>
<rect x="19" y="16" width="7" height="1" fill="#FCFCFC"/>
<rect x="12" y="22" width="7" height="1" fill="#D8D8D8"/>
<rect x="12" y="23" width="7" height="1" fill="#FCFCFC"/>
<rect x="6" y="22" width="7" height="1" fill="#D8D8D8"/>
<rect x="6" y="23" width="7" height="1" fill="#FCFCFC"/>
<rect x="19" y="22" width="7" height="1" fill="#D8D8D8"/>
<rect x="19" y="23" width="7" height="1" fill="#FCFCFC"/>
<rect x="12" y="6" width="1" height="4" fill="#D8D8D8"/>
<rect x="12" y="10" width="1" height="4" fill="#D8D8D8"/>
<rect x="12" y="14" width="1" height="4" fill="#D8D8D8"/>
<rect x="12" y="18" width="1" height="4" fill="#D8D8D8"/>
<rect x="12" y="22" width="1" height="4" fill="#D8D8D8"/>
<rect x="12" y="26" width="1" height="4" fill="#D8D8D8"/>
<rect x="19" y="6" width="1" height="4" fill="#D8D8D8"/>
<rect x="19" y="14" width="1" height="4" fill="#D8D8D8"/>
<rect x="19" y="18" width="1" height="4" fill="#D8D8D8"/>
<rect x="19" y="22" width="1" height="4" fill="#D8D8D8"/>
<rect x="19" y="26" width="1" height="4" fill="#D8D8D8"/>
<g clip-path="url(#clip1_2117_18382)">
<path d="M0 19H11L11 21L13 21L13 32L2 32L2 30L0 30V19Z" fill="#FCFCFC" fill-opacity="0.75"/>
<rect x="3.5" y="22.5" width="8" height="8" fill="url(#paint1_linear_2117_18382)" stroke="#00A1DB"/>
<path d="M1 20H10V21H2V29H1V20Z" fill="#00A1DB"/>
</g>
<defs>
<linearGradient id="paint0_linear_2117_18382" x1="16" y1="1" x2="16" y2="31" gradientUnits="userSpaceOnUse">
<stop stop-color="#FCFCFC"/>
<stop offset="1" stop-color="#E6EAEA"/>
</linearGradient>
<linearGradient id="paint1_linear_2117_18382" x1="10.25" y1="23.25" x2="5" y2="30" gradientUnits="userSpaceOnUse">
<stop stop-color="#94E1FC"/>
<stop offset="1" stop-color="#FCFCFC"/>
</linearGradient>
<clipPath id="clip0_2117_18382">
<rect width="24" height="32" fill="white" transform="translate(4)"/>
</clipPath>
<clipPath id="clip1_2117_18382">
<rect width="13" height="13" fill="white" transform="translate(0 19)"/>
</clipPath>
</defs>
</svg>
