<svg width="32" height="32" viewBox="0 0 32 32" fill="none" xmlns="http://www.w3.org/2000/svg">
<g clip-path="url(#clip0_2118_20075)">
<path d="M7.5 2H25.5L30 6.5V27C30 28.6569 28.6569 30 27 30H6C4.34315 30 3 28.6569 3 27V6.5L7.5 2Z" fill="#FCFCFC" fill-opacity="0.75"/>
<path d="M4.5 7.5H28.5V27C28.5 27.8284 27.8284 28.5 27 28.5H6C5.17157 28.5 4.5 27.8284 4.5 27V7.5Z" fill="url(#paint0_linear_2118_20075)" stroke="#919191"/>
<path d="M4.5 7.20517L8.15642 3.5H24.8436L28.5 7.20517V7.5H4.5V7.20517Z" fill="#D8D8D8" stroke="#919191"/>
<path d="M16 4H17V8H16V4Z" fill="#919191"/>
<rect x="10.5" y="12.5" width="12" height="3" rx="1.5" fill="#3A3A3A" stroke="#919191"/>
<g clip-path="url(#clip1_2118_20075)">
<path d="M0 24C0 22.8954 0.895431 22 2 22H11C12.1046 22 13 22.8954 13 24V30C13 31.1046 12.1046 32 11 32H2C0.89543 32 0 31.1046 0 30V24Z" fill="#FCFCFC" fill-opacity="0.75"/>
<path d="M1.5 24C1.5 23.7239 1.72386 23.5 2 23.5H11C11.2761 23.5 11.5 23.7239 11.5 24V27.5V30C11.5 30.2761 11.2761 30.5 11 30.5H2C1.72386 30.5 1.5 30.2761 1.5 30V24Z" fill="url(#paint1_linear_2118_20075)" stroke="#00A1DB"/>
<rect x="1" y="25" width="11" height="2" fill="#00A1DB"/>
</g>
</g>
<defs>
<linearGradient id="paint0_linear_2118_20075" x1="16.5" y1="7" x2="16.5" y2="29" gradientUnits="userSpaceOnUse">
<stop stop-color="#F4F7F6"/>
<stop offset="1" stop-color="#D8D8D8"/>
</linearGradient>
<linearGradient id="paint1_linear_2118_20075" x1="9.86111" y1="24.1111" x2="5.73445" y2="31.4065" gradientUnits="userSpaceOnUse">
<stop stop-color="#94E1FC"/>
<stop offset="1" stop-color="#FCFCFC"/>
</linearGradient>
<clipPath id="clip0_2118_20075">
<rect width="32" height="32" fill="white"/>
</clipPath>
<clipPath id="clip1_2118_20075">
<rect width="13" height="10" fill="white" transform="translate(0 22)"/>
</clipPath>
</defs>
</svg>
