<svg width="32" height="32" viewBox="0 0 32 32" fill="none" xmlns="http://www.w3.org/2000/svg">
<g clip-path="url(#clip0_2118_20210)">
<g clip-path="url(#clip1_2118_20210)">
<path d="M32 9L32 28L0 28L-1.04907e-06 4L27 4L32 9Z" fill="#FCFCFC" fill-opacity="0.75"/>
<path d="M30.5 26.5L30.5 10.2071L25.7929 5.5L1.5 5.5L1.5 26.5L30.5 26.5Z" fill="url(#paint0_linear_2118_20210)" stroke="#3A3A3A"/>
<path d="M31 11L31 10L26 10L26 5L25 5L25 11L31 11Z" fill="#3A3A3A"/>
</g>
<g clip-path="url(#clip2_2118_20210)">
<rect x="24" y="20" width="1" height="8" transform="rotate(90 24 20)" fill="#FCFCFC"/>
<rect x="30" y="20" width="1" height="7" transform="rotate(90 30 20)" fill="#FCFCFC"/>
<rect x="24" y="13" width="1" height="8" transform="rotate(90 24 13)" fill="#FCFCFC"/>
<rect x="30" y="13" width="1" height="7" transform="rotate(90 30 13)" fill="#FCFCFC"/>
<rect x="24" y="19" width="7" height="1" transform="rotate(90 24 19)" fill="#D8D8D8"/>
<rect x="24" y="12" width="7" height="1" transform="rotate(90 24 12)" fill="#D8D8D8"/>
<rect x="24" y="6" width="7" height="1" transform="rotate(90 24 6)" fill="#D8D8D8"/>
<rect x="30" y="12" width="1" height="4" transform="rotate(90 30 12)" fill="#D8D8D8"/>
<rect x="30" y="19" width="1" height="4" transform="rotate(90 30 19)" fill="#D8D8D8"/>
<rect x="17" y="13" width="1" height="8" transform="rotate(90 17 13)" fill="#FCFCFC"/>
<rect x="22" y="19" width="1" height="4" transform="rotate(90 22 19)" fill="#D8D8D8"/>
<rect x="17" y="12" width="7" height="1" transform="rotate(90 17 12)" fill="#D8D8D8"/>
<rect x="17" y="6" width="7" height="1" transform="rotate(90 17 6)" fill="#D8D8D8"/>
<rect x="17" y="20" width="1" height="8" transform="rotate(90 17 20)" fill="#FCFCFC"/>
<rect x="17" y="19" width="7" height="1" transform="rotate(90 17 19)" fill="#D8D8D8"/>
<rect x="10" y="12" width="7" height="1" transform="rotate(90 10 12)" fill="#D8D8D8"/>
<rect x="10" y="20" width="1" height="8" transform="rotate(90 10 20)" fill="#FCFCFC"/>
<rect x="10" y="6" width="7" height="1" transform="rotate(90 10 6)" fill="#D8D8D8"/>
<rect x="9" y="13" width="1" height="7" transform="rotate(90 9 13)" fill="#FCFCFC"/>
<rect x="10" y="19" width="7" height="1" transform="rotate(90 10 19)" fill="#D8D8D8"/>
<rect x="26" y="12" width="1" height="4" transform="rotate(90 26 12)" fill="#D8D8D8"/>
<rect x="22" y="12" width="1" height="4" transform="rotate(90 22 12)" fill="#D8D8D8"/>
<rect x="18" y="12" width="1" height="4" transform="rotate(90 18 12)" fill="#D8D8D8"/>
<rect x="14" y="12" width="1" height="4" transform="rotate(90 14 12)" fill="#D8D8D8"/>
<rect x="10" y="12" width="1" height="4" transform="rotate(90 10 12)" fill="#D8D8D8"/>
<rect x="6" y="12" width="1" height="4" transform="rotate(90 6 12)" fill="#D8D8D8"/>
<rect x="26" y="19" width="1" height="4" transform="rotate(90 26 19)" fill="#D8D8D8"/>
<rect x="18" y="19" width="1" height="4" transform="rotate(90 18 19)" fill="#D8D8D8"/>
<rect x="14" y="19" width="1" height="4" transform="rotate(90 14 19)" fill="#D8D8D8"/>
<rect x="10" y="19" width="1" height="4" transform="rotate(90 10 19)" fill="#D8D8D8"/>
<rect x="6" y="19" width="1" height="4" transform="rotate(90 6 19)" fill="#D8D8D8"/>
</g>
<g clip-path="url(#clip3_2118_20210)">
<path d="M0 24H8V26H13V32L0 32V24Z" fill="#FCFCFC" fill-opacity="0.75"/>
<rect x="1" y="25" width="6" height="6" fill="#00A1DB"/>
<rect x="8" y="27" width="4" height="4" fill="#3A3A3A"/>
</g>
</g>
<defs>
<linearGradient id="paint0_linear_2118_20210" x1="31" y1="16" x2="1" y2="16" gradientUnits="userSpaceOnUse">
<stop stop-color="#FCFCFC"/>
<stop offset="1" stop-color="#E6EAEA"/>
</linearGradient>
<clipPath id="clip0_2118_20210">
<rect width="32" height="32" fill="white"/>
</clipPath>
<clipPath id="clip1_2118_20210">
<rect width="24" height="32" fill="white" transform="matrix(-4.37114e-08 -1 -1 4.37114e-08 32 28)"/>
</clipPath>
<clipPath id="clip2_2118_20210">
<rect width="24" height="32" fill="white" transform="translate(32 4) rotate(90)"/>
</clipPath>
<clipPath id="clip3_2118_20210">
<rect width="13" height="8" fill="white" transform="translate(0 24)"/>
</clipPath>
</defs>
</svg>
