<svg width="32" height="32" viewBox="0 0 32 32" fill="none" xmlns="http://www.w3.org/2000/svg">
<g clip-path="url(#clip0_2118_20501)">
<g clip-path="url(#clip1_2118_20501)">
<path d="M32 9L32 28L0 28L-1.04907e-06 4L27 4L32 9Z" fill="#FCFCFC" fill-opacity="0.75"/>
<path d="M30.5 26.5L30.5 10.2071L25.7929 5.5L1.5 5.5L1.5 26.5L30.5 26.5Z" fill="url(#paint0_linear_2118_20501)" stroke="#3A3A3A"/>
<path d="M31 11L31 10L26 10L26 5L25 5L25 11L31 11Z" fill="#3A3A3A"/>
</g>
<g clip-path="url(#clip2_2118_20501)">
<rect x="24" y="20" width="1" height="8" transform="rotate(90 24 20)" fill="#FCFCFC"/>
<rect x="30" y="20" width="1" height="7" transform="rotate(90 30 20)" fill="#FCFCFC"/>
<rect x="24" y="13" width="1" height="8" transform="rotate(90 24 13)" fill="#FCFCFC"/>
<rect x="30" y="13" width="1" height="7" transform="rotate(90 30 13)" fill="#FCFCFC"/>
<rect x="24" y="19" width="7" height="1" transform="rotate(90 24 19)" fill="#D8D8D8"/>
<rect x="24" y="12" width="7" height="1" transform="rotate(90 24 12)" fill="#D8D8D8"/>
<rect x="24" y="6" width="7" height="1" transform="rotate(90 24 6)" fill="#D8D8D8"/>
<rect x="30" y="12" width="1" height="4" transform="rotate(90 30 12)" fill="#D8D8D8"/>
<rect x="30" y="19" width="1" height="4" transform="rotate(90 30 19)" fill="#D8D8D8"/>
<rect x="17" y="13" width="1" height="8" transform="rotate(90 17 13)" fill="#FCFCFC"/>
<rect x="22" y="19" width="1" height="4" transform="rotate(90 22 19)" fill="#D8D8D8"/>
<rect x="17" y="12" width="7" height="1" transform="rotate(90 17 12)" fill="#D8D8D8"/>
<rect x="17" y="6" width="7" height="1" transform="rotate(90 17 6)" fill="#D8D8D8"/>
<rect x="17" y="20" width="1" height="8" transform="rotate(90 17 20)" fill="#FCFCFC"/>
<rect x="17" y="19" width="7" height="1" transform="rotate(90 17 19)" fill="#D8D8D8"/>
<rect x="10" y="12" width="7" height="1" transform="rotate(90 10 12)" fill="#D8D8D8"/>
<rect x="10" y="20" width="1" height="8" transform="rotate(90 10 20)" fill="#FCFCFC"/>
<rect x="10" y="6" width="7" height="1" transform="rotate(90 10 6)" fill="#D8D8D8"/>
<rect x="9" y="13" width="1" height="7" transform="rotate(90 9 13)" fill="#FCFCFC"/>
<rect x="10" y="19" width="7" height="1" transform="rotate(90 10 19)" fill="#D8D8D8"/>
<rect x="26" y="12" width="1" height="4" transform="rotate(90 26 12)" fill="#D8D8D8"/>
<rect x="22" y="12" width="1" height="4" transform="rotate(90 22 12)" fill="#D8D8D8"/>
<rect x="18" y="12" width="1" height="4" transform="rotate(90 18 12)" fill="#D8D8D8"/>
<rect x="14" y="12" width="1" height="4" transform="rotate(90 14 12)" fill="#D8D8D8"/>
<rect x="10" y="12" width="1" height="4" transform="rotate(90 10 12)" fill="#D8D8D8"/>
<rect x="6" y="12" width="1" height="4" transform="rotate(90 6 12)" fill="#D8D8D8"/>
<rect x="26" y="19" width="1" height="4" transform="rotate(90 26 19)" fill="#D8D8D8"/>
<rect x="18" y="19" width="1" height="4" transform="rotate(90 18 19)" fill="#D8D8D8"/>
<rect x="14" y="19" width="1" height="4" transform="rotate(90 14 19)" fill="#D8D8D8"/>
<rect x="10" y="19" width="1" height="4" transform="rotate(90 10 19)" fill="#D8D8D8"/>
<rect x="6" y="19" width="1" height="4" transform="rotate(90 6 19)" fill="#D8D8D8"/>
</g>
<g clip-path="url(#clip3_2118_20501)">
<path d="M2 19H11L13 21V30C13 31.1046 12.1046 32 11 32H2C0.89543 32 0 31.1046 0 30V21L2 19Z" fill="#FCFCFC" fill-opacity="0.75"/>
<path d="M1.5 22.5H11.5V30C11.5 30.2761 11.2761 30.5 11 30.5H2C1.72386 30.5 1.5 30.2761 1.5 30V22.5Z" fill="url(#paint1_linear_2118_20501)" stroke="#919191"/>
<path d="M1.5 22.2071L3.20711 20.5H9.79289L11.5 22.2071V22.5H1.5V22.2071Z" fill="#D8D8D8" stroke="#919191"/>
<path d="M5 24.5C5 24.2239 5.22386 24 5.5 24H7.5C7.77614 24 8 24.2239 8 24.5C8 24.7761 7.77614 25 7.5 25H5.5C5.22386 25 5 24.7761 5 24.5Z" fill="#3A3A3A"/>
</g>
</g>
<defs>
<linearGradient id="paint0_linear_2118_20501" x1="31" y1="16" x2="1" y2="16" gradientUnits="userSpaceOnUse">
<stop stop-color="#FCFCFC"/>
<stop offset="1" stop-color="#E6EAEA"/>
</linearGradient>
<linearGradient id="paint1_linear_2118_20501" x1="6.5" y1="22" x2="6.5" y2="31" gradientUnits="userSpaceOnUse">
<stop stop-color="#F4F7F6"/>
<stop offset="1" stop-color="#D8D8D8"/>
</linearGradient>
<clipPath id="clip0_2118_20501">
<rect width="32" height="32" fill="white"/>
</clipPath>
<clipPath id="clip1_2118_20501">
<rect width="24" height="32" fill="white" transform="matrix(-4.37114e-08 -1 -1 4.37114e-08 32 28)"/>
</clipPath>
<clipPath id="clip2_2118_20501">
<rect width="24" height="32" fill="white" transform="translate(32 4) rotate(90)"/>
</clipPath>
<clipPath id="clip3_2118_20501">
<rect width="13" height="13" fill="white" transform="translate(0 19)"/>
</clipPath>
</defs>
</svg>
