<svg width="32" height="32" viewBox="0 0 32 32" fill="none" xmlns="http://www.w3.org/2000/svg">
<g clip-path="url(#clip0_2118_21024)">
<path d="M7.5 2H25.5L30 6.5V27C30 28.6569 28.6569 30 27 30H6C4.34315 30 3 28.6569 3 27V6.5L7.5 2Z" fill="#FCFCFC" fill-opacity="0.75"/>
<path d="M4.5 7.5H28.5V27C28.5 27.8284 27.8284 28.5 27 28.5H6C5.17157 28.5 4.5 27.8284 4.5 27V7.5Z" fill="url(#paint0_linear_2118_21024)" stroke="#919191"/>
<path d="M4.5 7.20517L8.15642 3.5H24.8436L28.5 7.20517V7.5H4.5V7.20517Z" fill="#D8D8D8" stroke="#919191"/>
<path d="M16 4H17V8H16V4Z" fill="#919191"/>
<rect x="10.5" y="12.5" width="12" height="3" rx="1.5" fill="#3A3A3A" stroke="#919191"/>
<g clip-path="url(#clip1_2118_21024)">
<path d="M9 27L9 25L2.5 25C2.22386 25 2 24.7761 2 24.5C2 24.2239 2.22386 24 2.5 24L9 24L9 22L12 24.5L9 27Z" fill="#EA212D"/>
<path d="M8.5 27L8.5 28.0675L9.32009 27.3841L12.3201 24.8841L12.781 24.5L12.3201 24.1159L9.32009 21.6159L8.5 20.9325L8.5 22L8.5 23.5L2.5 23.5C1.94772 23.5 1.5 23.9477 1.5 24.5C1.5 25.0523 1.94772 25.5 2.5 25.5L8.5 25.5L8.5 27Z" stroke="#FCFCFC" stroke-opacity="0.75"/>
</g>
<g clip-path="url(#clip2_2118_21024)">
<path d="M5 31L5 29L11.5 29C11.7761 29 12 28.7761 12 28.5C12 28.2239 11.7761 28 11.5 28L5 28L5 26L2 28.5L5 31Z" fill="#219653"/>
<path d="M5.5 31L5.5 32.0675L4.67991 31.3841L1.67991 28.8841L1.21897 28.5L1.67991 28.1159L4.67991 25.6159L5.5 24.9325L5.5 26L5.5 27.5L11.5 27.5C12.0523 27.5 12.5 27.9477 12.5 28.5C12.5 29.0523 12.0523 29.5 11.5 29.5L5.5 29.5L5.5 31Z" stroke="#FCFCFC" stroke-opacity="0.75"/>
</g>
</g>
<defs>
<linearGradient id="paint0_linear_2118_21024" x1="16.5" y1="7" x2="16.5" y2="29" gradientUnits="userSpaceOnUse">
<stop stop-color="#F4F7F6"/>
<stop offset="1" stop-color="#D8D8D8"/>
</linearGradient>
<clipPath id="clip0_2118_21024">
<rect width="32" height="32" fill="white"/>
</clipPath>
<clipPath id="clip1_2118_21024">
<rect width="7" height="13" fill="white" transform="translate(14 21) rotate(90)"/>
</clipPath>
<clipPath id="clip2_2118_21024">
<rect width="7" height="13" fill="white" transform="matrix(4.37114e-08 1 1 -4.37114e-08 0 25)"/>
</clipPath>
</defs>
</svg>
