<svg width="32" height="32" viewBox="0 0 32 32" fill="none" xmlns="http://www.w3.org/2000/svg">
<g clip-path="url(#clip0_2123_18798)">
<rect y="1" width="32" height="29" fill="#FCFCFC" fill-opacity="0.75"/>
<rect x="1.5" y="8.5" width="29" height="20" fill="url(#paint0_linear_2123_18798)" stroke="#919191"/>
<path d="M1 2H31V7H29V3H26V7H24V3H21V7H19V3H16V7H1V2Z" fill="#3A3A3A"/>
<rect x="1" y="6" width="30" height="1" fill="#3A3A3A"/>
<g clip-path="url(#clip1_2123_18798)">
<rect x="25" y="22" width="1" height="10" transform="rotate(90 25 22)" fill="#919191"/>
<rect x="11" y="22" width="1" height="4" transform="rotate(90 11 22)" fill="#919191"/>
<rect x="25" y="18" width="1" height="10" transform="rotate(90 25 18)" fill="#919191"/>
<rect x="25" y="14" width="1" height="10" transform="rotate(90 25 14)" fill="#919191"/>
<rect x="11" y="14" width="1" height="4" transform="rotate(90 11 14)" fill="#919191"/>
</g>
<g clip-path="url(#clip2_2123_18798)">
<path d="M0 19H11L11 21L13 21L13 32L2 32L2 30L0 30V19Z" fill="#FCFCFC" fill-opacity="0.75"/>
<rect x="3.5" y="22.5" width="8" height="8" fill="url(#paint1_linear_2123_18798)" stroke="#00A1DB"/>
<path d="M1 20H10V21H2V29H1V20Z" fill="#00A1DB"/>
</g>
</g>
<defs>
<linearGradient id="paint0_linear_2123_18798" x1="16" y1="8" x2="16" y2="29" gradientUnits="userSpaceOnUse">
<stop stop-color="#FCFCFC"/>
<stop offset="1" stop-color="#E6EAEA"/>
</linearGradient>
<linearGradient id="paint1_linear_2123_18798" x1="10.25" y1="23.25" x2="5" y2="30" gradientUnits="userSpaceOnUse">
<stop stop-color="#94E1FC"/>
<stop offset="1" stop-color="#FCFCFC"/>
</linearGradient>
<clipPath id="clip0_2123_18798">
<rect width="32" height="32" fill="white"/>
</clipPath>
<clipPath id="clip1_2123_18798">
<rect width="18" height="9" fill="white" transform="translate(7 14)"/>
</clipPath>
<clipPath id="clip2_2123_18798">
<rect width="13" height="13" fill="white" transform="translate(0 19)"/>
</clipPath>
</defs>
</svg>
