<svg width="32" height="32" viewBox="0 0 32 32" fill="none" xmlns="http://www.w3.org/2000/svg">
<g clip-path="url(#clip0_2124_19104)">
<rect x="1" y="2" width="30" height="27" fill="#FCFCFC" fill-opacity="0.75"/>
<rect x="0.5" y="1.5" width="31" height="28" stroke="#FCFCFC" stroke-opacity="0.75"/>
<rect x="1.5" y="2.5" width="29" height="26" fill="#FCFCFC" stroke="#919191"/>
<rect x="1.5" y="2.5" width="29" height="5" fill="url(#paint0_linear_2124_19104)" stroke="#3A3A3A"/>
<rect x="14" y="12" width="12" height="1" fill="#919191"/>
<rect x="14" y="21" width="12" height="1" fill="#919191"/>
<rect x="19" y="15" width="7" height="1" fill="#919191"/>
<rect x="19" y="24" width="7" height="1" fill="#919191"/>
<g clip-path="url(#clip1_2124_19104)">
<path d="M7 11V9H10V15H11V18H6V15H7V14H6V11H7Z" fill="#FCFCFC" fill-opacity="0.75"/>
<rect x="8" y="10" width="1" height="6" fill="#00A1DB"/>
<rect x="7" y="16" width="3" height="1" fill="#00A1DB"/>
<rect x="7" y="12" width="2" height="1" fill="#00A1DB"/>
</g>
<g clip-path="url(#clip2_2124_19104)">
<rect x="6" y="18" width="7" height="9.8" fill="#FCFCFC" fill-opacity="0.75"/>
<rect x="9" y="19" width="1" height="4" fill="#00A1DB"/>
<rect x="7" y="22" width="1" height="4" fill="#00A1DB"/>
<rect x="7" y="25" width="3" height="1" fill="#00A1DB"/>
<rect x="7" y="19" width="3" height="1" fill="#00A1DB"/>
<rect x="7" y="22" width="3" height="1" fill="#00A1DB"/>
</g>
</g>
<defs>
<linearGradient id="paint0_linear_2124_19104" x1="15.5" y1="7" x2="15.5" y2="3" gradientUnits="userSpaceOnUse">
<stop stop-color="#94E1FC"/>
<stop offset="1" stop-color="#00A1DB"/>
</linearGradient>
<clipPath id="clip0_2124_19104">
<rect width="32" height="32" fill="white"/>
</clipPath>
<clipPath id="clip1_2124_19104">
<rect width="5" height="9" fill="white" transform="translate(6 9)"/>
</clipPath>
<clipPath id="clip2_2124_19104">
<rect width="5" height="9" fill="white" transform="translate(6 18)"/>
</clipPath>
</defs>
</svg>
