<svg width="32" height="32" viewBox="0 0 32 32" fill="none" xmlns="http://www.w3.org/2000/svg">
<g clip-path="url(#clip0_2125_19290)">
<g clip-path="url(#clip1_2125_19290)">
<path d="M22.2754 17.7568C22.5074 17.293 22.9814 17 23.5 17C24.0186 17 24.4926 17.293 24.7246 17.7568L28.8555 26.0186C28.9505 26.2087 29 26.4183 29 26.6309C29 27.387 28.387 28 27.6309 28H19.3691C18.613 28 18 27.387 18 26.6309C18 26.4183 18.0495 26.2087 18.1445 26.0186L22.2754 17.7568Z" fill="#FCFCFC" fill-opacity="0.75"/>
<path d="M23.5 16.5C22.792 16.5 22.1448 16.9 21.8282 17.5332L17.6973 25.795C17.5676 26.0545 17.5 26.3407 17.5 26.6309C17.5 27.6632 18.3368 28.5 19.3691 28.5H27.6309C28.6632 28.5 29.5 27.6632 29.5 26.6309C29.5 26.3407 29.4324 26.0545 29.3027 25.795L25.1718 17.5332C24.8552 16.9 24.208 16.5 23.5 16.5Z" stroke="#FCFCFC" stroke-opacity="0.75"/>
<path d="M22.7226 17.9804C22.8699 17.686 23.1708 17.5 23.5 17.5C23.8292 17.5 24.1301 17.686 24.2774 17.9804L28.4082 26.2422C28.4686 26.3629 28.5 26.496 28.5 26.6309C28.5 27.1109 28.1109 27.5 27.6309 27.5H19.3691C18.8891 27.5 18.5 27.1109 18.5 26.6309C18.5 26.496 18.5314 26.3629 18.5918 26.2422L22.7226 17.9804Z" fill="#94E1FC" stroke="#00A1DB"/>
</g>
<g clip-path="url(#clip2_2125_19290)">
<path d="M14.7754 3.75682C15.0074 3.29299 15.4814 3 16 3C16.5186 3 16.9926 3.29299 17.2246 3.75682L21.3555 12.0186C21.4505 12.2087 21.5 12.4183 21.5 12.6309C21.5 13.387 20.887 14 20.1309 14H11.8691C11.113 14 10.5 13.387 10.5 12.6309C10.5 12.4183 10.5495 12.2087 10.6445 12.0186L14.7754 3.75682Z" fill="#FCFCFC" fill-opacity="0.75"/>
<path d="M16 2.5C15.292 2.5 14.6448 2.89999 14.3282 3.53322L10.1973 11.795C10.0676 12.0545 10 12.3407 10 12.6309C10 13.6632 10.8368 14.5 11.8691 14.5H20.1309C21.1632 14.5 22 13.6632 22 12.6309C22 12.3407 21.9324 12.0545 21.8027 11.795L17.6718 3.53322C17.3552 2.89999 16.708 2.5 16 2.5Z" stroke="#FCFCFC" stroke-opacity="0.75"/>
<path d="M15.2226 3.98043C15.3699 3.68599 15.6708 3.5 16 3.5C16.3292 3.5 16.6301 3.68599 16.7774 3.98043L20.9082 12.2422C20.9686 12.3629 21 12.496 21 12.6309C21 13.1109 20.6109 13.5 20.1309 13.5H11.8691C11.3891 13.5 11 13.1109 11 12.6309C11 12.496 11.0314 12.3629 11.0918 12.2422L15.2226 3.98043Z" fill="#94E1FC" stroke="#00A1DB"/>
</g>
<g clip-path="url(#clip3_2125_19290)">
<path fill-rule="evenodd" clip-rule="evenodd" d="M1 20H11V22H9V21H3V22L7 25.5L3 29V30H9V29H11V31H1V29L5 25.5L1 22V20Z" fill="#3A3A3A"/>
<path d="M1 19.5H0.5V20V22V22.2269L0.670748 22.3763L4.2407 25.5L0.670748 28.6237L0.5 28.7731V29V31V31.5H1H11H11.5V31V29V28.5H11H9H8.5V29V29.5H3.5V29.2269L7.32925 25.8763L7.7593 25.5L7.32925 25.1237L3.5 21.7731V21.5H8.5V22V22.5H9H11H11.5V22V20V19.5H11H1Z" stroke="#FCFCFC" stroke-opacity="0.75"/>
</g>
</g>
<defs>
<clipPath id="clip0_2125_19290">
<rect width="32" height="32" fill="white"/>
</clipPath>
<clipPath id="clip1_2125_19290">
<rect width="13" height="13" fill="white" transform="translate(17 16)"/>
</clipPath>
<clipPath id="clip2_2125_19290">
<rect width="13" height="13" fill="white" transform="translate(9.5 2)"/>
</clipPath>
<clipPath id="clip3_2125_19290">
<rect width="12" height="13" fill="white" transform="translate(0 19)"/>
</clipPath>
</defs>
</svg>
