<svg width="32" height="32" viewBox="0 0 32 32" fill="none" xmlns="http://www.w3.org/2000/svg">
<g clip-path="url(#clip0_2128_19339)">
<path d="M8.41868 10.9758C8.74726 7.03286 12.0434 4 16 4C19.9566 4 23.2527 7.03286 23.5813 10.9758L23.8934 14.7206C23.9638 15.5658 24.1949 16.3897 24.5742 17.1483L27.7438 23.4875C27.9123 23.8245 28 24.1962 28 24.5729C28 25.9134 26.9134 27 25.5729 27H6.42705C5.08663 27 4 25.9134 4 24.5729C4 24.1962 4.08773 23.8245 4.25623 23.4875L7.42583 17.1483C7.80513 16.3897 8.03619 15.5658 8.10662 14.7206L8.41868 10.9758Z" fill="#FCFCFC" fill-opacity="0.75"/>
<path d="M16 3.5C11.7833 3.5 8.27058 6.73219 7.92041 10.9343L7.60835 14.679C7.5432 15.4608 7.32946 16.223 6.97862 16.9247L3.80902 23.2639C3.6058 23.6704 3.5 24.1185 3.5 24.5729C3.5 26.1895 4.81049 27.5 6.42705 27.5H25.5729C27.1895 27.5 28.5 26.1895 28.5 24.5729C28.5 24.1185 28.3942 23.6704 28.191 23.2639L25.0214 16.9247C24.6705 16.223 24.4568 15.4608 24.3917 14.679L24.0796 10.9343C23.7294 6.73219 20.2167 3.5 16 3.5Z" stroke="#FCFCFC" stroke-opacity="0.75"/>
<rect x="14" y="1" width="4" height="4" fill="#3A3A3A"/>
<rect x="13.5" y="0.5" width="5" height="5" stroke="#FCFCFC" stroke-opacity="0.75"/>
<path d="M19 28C19 29.6569 17.6569 31 16 31C14.3431 31 13 29.6569 13 28C13 28 14.3431 28 16 28C17.6569 28 19 28 19 28Z" fill="#3A3A3A"/>
<path d="M19.5 28V27.5L19 27.5L19 28L19 27.5H18.9999H18.9998H18.999H18.9961L18.9845 27.5L18.9391 27.5L18.7642 27.5L18.1213 27.5L16 27.5L13.8787 27.5L13.2358 27.5L13.0609 27.5L13.0155 27.5L13.0039 27.5H13.001H13.0002H13.0001H13L13 28L13 27.5L12.5 27.5V28C12.5 29.933 14.067 31.5 16 31.5C17.933 31.5 19.5 29.933 19.5 28Z" stroke="#FCFCFC" stroke-opacity="0.75"/>
<path d="M8.91695 11.0173C9.22394 7.33353 12.3034 4.5 16 4.5C19.6966 4.5 22.7761 7.33353 23.083 11.0173L23.3951 14.7621C23.4708 15.6707 23.7192 16.5565 24.127 17.3719L27.2966 23.7111C27.4303 23.9787 27.5 24.2738 27.5 24.5729C27.5 25.6372 26.6372 26.5 25.5729 26.5H6.42705C5.36277 26.5 4.5 25.6372 4.5 24.5729C4.5 24.2738 4.56965 23.9787 4.70344 23.7111L7.87304 17.3719C8.28079 16.5565 8.52918 15.6707 8.60489 14.7621L8.91695 11.0173Z" fill="url(#paint0_linear_2128_19339)" stroke="#919191"/>
</g>
<defs>
<linearGradient id="paint0_linear_2128_19339" x1="28" y1="16.5455" x2="4" y2="16.5455" gradientUnits="userSpaceOnUse">
<stop stop-color="#F4F7F6"/>
<stop offset="1" stop-color="#D8D8D8"/>
</linearGradient>
<clipPath id="clip0_2128_19339">
<rect width="32" height="32" fill="white"/>
</clipPath>
</defs>
</svg>
