<svg width="32" height="32" viewBox="0 0 32 32" fill="none" xmlns="http://www.w3.org/2000/svg">
<g clip-path="url(#clip0_2133_19550)">
<g clip-path="url(#clip1_2133_19550)">
<rect x="29" width="32" height="26" transform="rotate(90 29 0)" fill="#FCFCFC" fill-opacity="0.75"/>
<rect x="27.5" y="1.5" width="29" height="23" transform="rotate(90 27.5 1.5)" fill="#FCFCFC" stroke="#919191"/>
</g>
<path d="M25 1H28V4H27V2H25V1Z" fill="#FCFCFC" fill-opacity="0.75"/>
<rect x="4" y="21" width="1" height="10" fill="#FCFCFC" fill-opacity="0.75"/>
<g clip-path="url(#clip2_2133_19550)">
<path d="M26.1669 1.15021C26.1025 1.09229 26 1.13796 26 1.22454V5H19.5C19.2239 5 19 5.22386 19 5.5V5.5C19 5.77614 19.2239 6 19.5 6H26V9.77546C26 9.86204 26.1025 9.90771 26.1669 9.84979L30.9174 5.57433C30.9615 5.53461 30.9615 5.46539 30.9174 5.42567L26.1669 1.15021Z" fill="#3A3A3A"/>
<path d="M25.5 9.77546V6.5H19.5C18.9477 6.5 18.5 6.05228 18.5 5.5C18.5 4.94772 18.9477 4.5 19.5 4.5H25.5V1.22454C25.5 0.705068 26.1153 0.431062 26.5014 0.77856L31.2519 5.05402C31.5167 5.29237 31.5167 5.70763 31.2519 5.94598L26.5014 10.2214C26.1153 10.5689 25.5 10.2949 25.5 9.77546Z" stroke="#FCFCFC" stroke-opacity="0.75"/>
</g>
<g clip-path="url(#clip3_2133_19550)">
<path fill-rule="evenodd" clip-rule="evenodd" d="M2.9375 26.7812C2.71953 26.9508 2.68026 27.2649 2.84979 27.4829L4.39097 29.2457C5.25188 30.3526 6.57562 31 7.9779 31C9.4082 31 10.755 30.3266 11.6132 29.1823L11.9 28.8C12.0657 28.5791 12.0209 28.2657 11.8 28.1C11.5791 27.9343 11.2657 27.9791 11.1 28.2L10.8132 28.5823C10.1439 29.4748 9.09344 30 7.9779 30C6.88421 30 5.85178 29.4951 5.18032 28.6317L3.63915 26.869C3.46961 26.651 3.15547 26.6117 2.9375 26.7812Z" fill="#00A1DB"/>
<path d="M6 25H0.99997L1 30L6 25Z" fill="#00A1DB"/>
<path d="M4.00534 29.5643L3.13656 28.5705L1.35355 30.3536L0.500007 31.2071L0.5 30L0.49997 25L0.499968 24.5H0.99997H6H7.20711L6.35355 25.3536L4.55278 27.1543L5.55674 28.3027L5.56618 28.3135L5.57499 28.3248C6.15173 29.0663 7.0385 29.5 7.9779 29.5C8.93606 29.5 9.83831 29.0489 10.4132 28.2823L10.7 27.9C11.0313 27.4582 11.6581 27.3686 12.1 27.7L11.837 28.0507L12.1 27.7C12.5418 28.0314 12.6313 28.6582 12.3 29.1L12.0132 29.4823L11.6132 29.1823L12.0132 29.4823C11.0606 30.7525 9.56558 31.5 7.9779 31.5C6.42623 31.5 4.9612 30.7859 4.00534 29.5643Z" stroke="#FCFCFC" stroke-opacity="0.75"/>
<path fill-rule="evenodd" clip-rule="evenodd" d="M11.0625 24.2188C11.2805 24.0492 11.3197 23.7351 11.1502 23.5171L9.60903 21.7543C8.74812 20.6474 7.42438 20 6.0221 20C4.5918 20 3.24497 20.6734 2.38679 21.8177L2.10003 22.2C1.93434 22.4209 1.97912 22.7343 2.20003 22.9C2.42094 23.0657 2.73434 23.0209 2.90003 22.8L3.18679 22.4177C3.85611 21.5252 4.90656 21 6.0221 21C7.11579 21 8.14822 21.5049 8.81968 22.3683L10.3609 24.131C10.5304 24.349 10.8445 24.3883 11.0625 24.2188Z" fill="#00A1DB"/>
<path d="M8 26H13L13 21L8 26Z" fill="#00A1DB"/>
<path d="M9.99466 21.4357L10.8634 22.4295L12.6464 20.6464L13.5 19.7929L13.5 21L13.5 26L13.5 26.5H13H8H6.79289L7.64645 25.6464L9.44722 23.8457L8.44326 22.6973L8.43382 22.6865L8.42501 22.6752C7.84827 21.9337 6.9615 21.5 6.0221 21.5C5.06394 21.5 4.16169 21.9511 3.58679 22.7177L3.30003 23.1C2.96866 23.5418 2.34186 23.6314 1.90003 23.3L2.16304 22.9493L1.90003 23.3C1.4582 22.9686 1.36866 22.3418 1.70003 21.9L1.98679 21.5177L2.38679 21.8177L1.98679 21.5177C2.93939 20.2475 4.43442 19.5 6.0221 19.5C7.57377 19.5 9.0388 20.2141 9.99466 21.4357Z" stroke="#FCFCFC" stroke-opacity="0.75"/>
</g>
</g>
<defs>
<clipPath id="clip0_2133_19550">
<rect width="32" height="32" fill="white"/>
</clipPath>
<clipPath id="clip1_2133_19550">
<rect width="32" height="26" fill="white" transform="translate(29) rotate(90)"/>
</clipPath>
<clipPath id="clip2_2133_19550">
<rect width="14" height="11" fill="white" transform="matrix(-1 0 0 1 32 0)"/>
</clipPath>
<clipPath id="clip3_2133_19550">
<rect width="14" height="13" fill="white" transform="translate(0 19)"/>
</clipPath>
</defs>
</svg>
