<svg width="32" height="32" viewBox="0 0 32 32" fill="none" xmlns="http://www.w3.org/2000/svg">
<g clip-path="url(#clip0_2142_19612)">
<rect x="1" y="2" width="30" height="27" fill="#FCFCFC" fill-opacity="0.75"/>
<rect x="0.5" y="1.5" width="31" height="28" stroke="#FCFCFC" stroke-opacity="0.75"/>
<rect x="1.5" y="2.5" width="29" height="26" fill="#FCFCFC" stroke="#919191"/>
<rect x="1.5" y="2.5" width="29" height="5" fill="url(#paint0_linear_2142_19612)" stroke="#3A3A3A"/>
<rect x="5" y="12" width="6" height="2" fill="#919191"/>
<rect x="21" y="12" width="6" height="2" fill="#919191"/>
<rect x="13" y="12" width="6" height="2" fill="#919191"/>
<rect x="13" y="17" width="6" height="2" fill="#919191"/>
<rect x="21" y="17" width="6" height="2" fill="#919191"/>
<rect x="21" y="22" width="6" height="2" fill="#919191"/>
<g clip-path="url(#clip1_2142_19612)">
<path d="M1 21H9L13 25V31H1V21Z" fill="#FCFCFC" fill-opacity="0.75"/>
<path d="M1 20.5H0.5V21V31V31.5H1H13H13.5V31V25V24.7929L13.3536 24.6464L9.35355 20.6464L9.20711 20.5H9H1Z" stroke="#FCFCFC" stroke-opacity="0.75"/>
<path d="M1.5 21.5H8.79289L12.5 25.2071V30.5H1.5V21.5Z" fill="url(#paint1_linear_2142_19612)" stroke="#00A1DB"/>
<path d="M8 21H9V25H13V26H8V21Z" fill="#00A1DB"/>
</g>
</g>
<defs>
<linearGradient id="paint0_linear_2142_19612" x1="15.5" y1="7" x2="15.5" y2="3" gradientUnits="userSpaceOnUse">
<stop stop-color="#94E1FC"/>
<stop offset="1" stop-color="#00A1DB"/>
</linearGradient>
<linearGradient id="paint1_linear_2142_19612" x1="10.6667" y1="22.3889" x2="5.17282" y2="30.8651" gradientUnits="userSpaceOnUse">
<stop stop-color="#94E1FC"/>
<stop offset="1" stop-color="#FCFCFC"/>
</linearGradient>
<clipPath id="clip0_2142_19612">
<rect width="32" height="32" fill="white"/>
</clipPath>
<clipPath id="clip1_2142_19612">
<rect width="14" height="12" fill="white" transform="translate(0 20)"/>
</clipPath>
</defs>
</svg>
