<svg width="32" height="32" viewBox="0 0 32 32" fill="none" xmlns="http://www.w3.org/2000/svg">
<g clip-path="url(#clip0_2142_19632)">
<g clip-path="url(#clip1_2142_19632)">
<rect y="3" width="32" height="26" fill="#FCFCFC" fill-opacity="0.75"/>
<rect x="1" y="4" width="30" height="24" fill="#00A1DB"/>
</g>
<rect x="14" y="12" width="3" height="1" fill="#FCFCFC"/>
<rect x="13" y="16" width="5" height="1" fill="#FCFCFC"/>
<rect x="13" y="13" width="1" height="8" fill="#FCFCFC"/>
<rect x="17" y="13" width="1" height="8" fill="#FCFCFC"/>
<rect x="22" y="20" width="4" height="1" fill="#FCFCFC"/>
<rect x="22" y="12" width="4" height="1" fill="#FCFCFC"/>
<rect x="22" y="12" width="1" height="9" fill="#FCFCFC"/>
<rect x="26" y="13" width="1" height="7" fill="#FCFCFC"/>
<rect x="6" y="12" width="3" height="1" fill="#FCFCFC"/>
<rect x="9" y="13" width="1" height="1" fill="#FCFCFC"/>
<rect x="9" y="19" width="1" height="1" fill="#FCFCFC"/>
<rect x="6" y="20" width="3" height="1" fill="#FCFCFC"/>
<rect x="5" y="13" width="1" height="7" fill="#FCFCFC"/>
</g>
<defs>
<clipPath id="clip0_2142_19632">
<rect width="32" height="32" fill="white"/>
</clipPath>
<clipPath id="clip1_2142_19632">
<rect width="32" height="26" fill="white" transform="translate(0 3)"/>
</clipPath>
</defs>
</svg>
