<svg width="32" height="32" viewBox="0 0 32 32" fill="none" xmlns="http://www.w3.org/2000/svg">
<g clip-path="url(#clip0_2156_19913)">
<rect y="3" width="32" height="26" fill="#FCFCFC" fill-opacity="0.75"/>
<rect x="1.5" y="4.5" width="29" height="23" fill="#FCFCFC" stroke="#919191"/>
</g>
<g clip-path="url(#clip1_2156_19913)">
<path d="M17 11H23V22H20V18H17V11Z" fill="#FCFCFC" fill-opacity="0.75"/>
<rect x="18" y="16" width="4" height="1" fill="#3A3A3A"/>
<rect x="18" y="12" width="1" height="5" fill="#3A3A3A"/>
<rect x="21" y="12" width="1" height="9" fill="#3A3A3A"/>
</g>
<g clip-path="url(#clip2_2156_19913)">
<path d="M10 11H16V18H13V19H16V22H10V15H13V14H10V11Z" fill="#FCFCFC" fill-opacity="0.75"/>
<rect x="11" y="12" width="4" height="1" fill="#3A3A3A"/>
<rect x="11" y="16" width="4" height="1" fill="#3A3A3A"/>
<rect x="11" y="20" width="4" height="1" fill="#3A3A3A"/>
<rect x="14" y="12" width="1" height="5" fill="#3A3A3A"/>
<rect x="11" y="16" width="1" height="5" fill="#3A3A3A"/>
</g>
<defs>
<clipPath id="clip0_2156_19913">
<rect width="32" height="26" fill="white" transform="translate(0 3)"/>
</clipPath>
<clipPath id="clip1_2156_19913">
<rect width="6" height="11" fill="white" transform="translate(17 11)"/>
</clipPath>
<clipPath id="clip2_2156_19913">
<rect width="6" height="11" fill="white" transform="translate(10 11)"/>
</clipPath>
</defs>
</svg>
