<svg width="32" height="32" viewBox="0 0 32 32" fill="none" xmlns="http://www.w3.org/2000/svg">
<path d="M24 15L24 20L23 20L23 16L8 16L8 20L7 20L7 15L15 15L15 11L16 11L16 15L24 15Z" fill="#00A1DB"/>
<path d="M24.5 15L24.5 14.5L24 14.5L16.5 14.5L16.5 11L16.5 10.5L16 10.5L15 10.5L14.5 10.5L14.5 11L14.5 14.5L7 14.5L6.5 14.5L6.5 15L6.5 20L6.5 20.5L7 20.5L8 20.5L8.5 20.5L8.5 20L8.5 16.5L22.5 16.5L22.5 20L22.5 20.5L23 20.5L24 20.5L24.5 20.5L24.5 20L24.5 15Z" stroke="#FCFCFC" stroke-opacity="0.75"/>
<g clip-path="url(#clip0_2157_20079)">
<path d="M2 20H10L14 24L14 30H2L2 20Z" fill="#FCFCFC" fill-opacity="0.75"/>
<path d="M2 19.5H1.5V20L1.5 30L1.5 30.5H2H14H14.5V30L14.5 24V23.7929L14.3536 23.6464L10.3536 19.6464L10.2071 19.5H10H2Z" stroke="#FCFCFC" stroke-opacity="0.75"/>
<path d="M2.5 20.5H9.79289L13.5 24.2071L13.5 29.5H2.5L2.5 20.5Z" fill="url(#paint0_linear_2157_20079)" stroke="#919191"/>
<path d="M9 20H10V24H14V25H9V20Z" fill="#919191"/>
</g>
<g clip-path="url(#clip1_2157_20079)">
<path d="M10 1L18 1L22 5V11L10 11L10 1Z" fill="#FCFCFC" fill-opacity="0.75"/>
<path d="M10 0.5L9.5 0.5V1L9.5 11V11.5H10L22 11.5H22.5V11V5V4.79289L22.3536 4.64645L18.3536 0.646447L18.2071 0.5H18L10 0.5Z" stroke="#FCFCFC" stroke-opacity="0.75"/>
<path d="M10.5 1.5L17.7929 1.5L21.5 5.20711V10.5L10.5 10.5L10.5 1.5Z" fill="url(#paint1_linear_2157_20079)" stroke="#919191"/>
<path d="M17 1L18 1V5L22 5V6L17 6V1Z" fill="#919191"/>
</g>
<g clip-path="url(#clip2_2157_20079)">
<path d="M18 20H26L30 24V30H18V20Z" fill="#FCFCFC" fill-opacity="0.75"/>
<path d="M18 19.5H17.5V20V30V30.5H18H30H30.5V30V24V23.7929L30.3536 23.6464L26.3536 19.6464L26.2071 19.5H26H18Z" stroke="#FCFCFC" stroke-opacity="0.75"/>
<path d="M18.5 20.5H25.7929L29.5 24.2071V29.5H18.5V20.5Z" fill="url(#paint2_linear_2157_20079)" stroke="#919191"/>
<path d="M25 20H26V24H30V25H25V20Z" fill="#919191"/>
</g>
<defs>
<linearGradient id="paint0_linear_2157_20079" x1="8" y1="20" x2="8" y2="30" gradientUnits="userSpaceOnUse">
<stop stop-color="#F4F7F6"/>
<stop offset="1" stop-color="#D8D8D8"/>
</linearGradient>
<linearGradient id="paint1_linear_2157_20079" x1="16" y1="1" x2="16" y2="11" gradientUnits="userSpaceOnUse">
<stop stop-color="#F4F7F6"/>
<stop offset="1" stop-color="#D8D8D8"/>
</linearGradient>
<linearGradient id="paint2_linear_2157_20079" x1="24" y1="20" x2="24" y2="30" gradientUnits="userSpaceOnUse">
<stop stop-color="#F4F7F6"/>
<stop offset="1" stop-color="#D8D8D8"/>
</linearGradient>
<clipPath id="clip0_2157_20079">
<rect width="14" height="12" fill="white" transform="translate(1 19)"/>
</clipPath>
<clipPath id="clip1_2157_20079">
<rect width="14" height="12" fill="white" transform="translate(9)"/>
</clipPath>
<clipPath id="clip2_2157_20079">
<rect width="14" height="12" fill="white" transform="translate(17 19)"/>
</clipPath>
</defs>
</svg>
