<svg width="32" height="32" viewBox="0 0 32 32" fill="none" xmlns="http://www.w3.org/2000/svg">
<g clip-path="url(#clip0_2161_20393)">
<rect x="1" y="1" width="30" height="30" fill="#FCFCFC" fill-opacity="0.75"/>
<rect x="4.5" y="2.5" width="25" height="27" fill="url(#paint0_linear_2161_20393)" stroke="#919191"/>
<path d="M17 17H24V18H17V17Z" fill="#3A3A3A"/>
<path d="M10 17H17V18H10V17Z" fill="#3A3A3A"/>
<rect x="10.5" y="7.5" width="13" height="6" fill="#FCFCFC" stroke="#3A3A3A"/>
<rect x="2" y="2" width="1" height="28" fill="#919191"/>
<g clip-path="url(#clip1_2161_20393)">
<path d="M8 20L1 20L1 21L8 21L8 20Z" fill="#3A3A3A"/>
<path d="M5 20L4 20V31H5L5 20Z" fill="#3A3A3A"/>
<path d="M8.5 20L8.5 19.5L8 19.5L5.5 19.5L5 19.5L4 19.5L3.5 19.5L1 19.5L0.5 19.5L0.5 20L0.5 21L0.5 21.5H1L3.5 21.5V31V31.5H4H5H5.5V31L5.5 21.5L8 21.5H8.5V21L8.5 20Z" stroke="#FCFCFC" stroke-opacity="0.75"/>
</g>
<rect x="2" y="22" width="1" height="8" fill="#FCFCFC" fill-opacity="0.75"/>
</g>
<defs>
<linearGradient id="paint0_linear_2161_20393" x1="17" y1="2" x2="17" y2="30" gradientUnits="userSpaceOnUse">
<stop stop-color="#F4F7F6"/>
<stop offset="1" stop-color="#D8D8D8"/>
</linearGradient>
<clipPath id="clip0_2161_20393">
<rect width="32" height="32" fill="white"/>
</clipPath>
<clipPath id="clip1_2161_20393">
<rect width="9" height="13" fill="white" transform="translate(0 19)"/>
</clipPath>
</defs>
</svg>
