<svg width="32" height="32" viewBox="0 0 32 32" fill="none" xmlns="http://www.w3.org/2000/svg">
<g clip-path="url(#clip0_2167_21085)">
<path d="M15.6125 3.70925C15.9858 2.99034 17.0142 2.99034 17.3875 3.70925L29.2415 26.5392C29.5871 27.2049 29.1041 28 28.354 28H4.646C3.89593 28 3.41286 27.2049 3.7585 26.5392L15.6125 3.70925Z" fill="#FCFCFC" fill-opacity="0.75"/>
<path d="M4.646 28.5H28.354C29.4791 28.5 30.2037 27.3073 29.6852 26.3088L17.8312 3.47884C17.2713 2.40047 15.7287 2.40048 15.1688 3.47884L3.31475 26.3088C2.79629 27.3073 3.52089 28.5 4.646 28.5Z" stroke="#FCFCFC" stroke-opacity="0.75"/>
<path d="M28.354 27.5H4.646C4.27096 27.5 4.02943 27.1024 4.20225 26.7696L16.0563 3.93966C16.2429 3.5802 16.7571 3.5802 16.9437 3.93966L28.7978 26.7696C28.9706 27.1024 28.729 27.5 28.354 27.5Z" fill="#F2C94C" stroke="#F2994A"/>
<rect width="1" height="7" transform="matrix(1 0 0 -1 16 19)" fill="#3A3A3A"/>
<rect width="1" height="2" transform="matrix(1 0 0 -1 16 23)" fill="#3A3A3A"/>
</g>
<defs>
<clipPath id="clip0_2167_21085">
<rect width="32" height="32" fill="white"/>
</clipPath>
</defs>
</svg>
