<svg width="32" height="32" viewBox="0 0 32 32" fill="none" xmlns="http://www.w3.org/2000/svg">
<g clip-path="url(#clip0_2169_21158)">
<path d="M12 21C12 20.4477 12.4477 20 13 20H24C24.5523 20 25 20.4477 25 21V21C25 21.5523 24.5523 22 24 22H13C12.4477 22 12 21.5523 12 21V21Z" fill="#3A3A3A"/>
<path d="M16 2H18V27L21.2425 27.8106C21.6877 27.9219 22 28.3219 22 28.7808V29H12V28.7808C12 28.3219 12.3123 27.9219 12.7575 27.8106L16 27V2Z" fill="#3A3A3A"/>
<path fill-rule="evenodd" clip-rule="evenodd" d="M24 4H13.8284C13.298 4 12.7893 3.78929 12.4142 3.41421L12.2929 3.29289C12.1054 3.10536 12 2.851 12 2.58579V2H16H24C27 2 31 4 31 9C31 15 27 16 24 16H13C12.4477 16 12 15.5523 12 15V15C12 14.4477 12.4477 14 13 14H24C26 14 29 13 29 9C29 5 26 4 24 4Z" fill="#3A3A3A"/>
<path d="M13.8284 4.5H15.5V13.5H13C12.1716 13.5 11.5 14.1716 11.5 15C11.5 15.8284 12.1716 16.5 13 16.5H15.5V19.5H13C12.1716 19.5 11.5 20.1716 11.5 21C11.5 21.8284 12.1716 22.5 13 22.5H15.5V26.6096L12.6362 27.3256C11.9684 27.4925 11.5 28.0925 11.5 28.7808V29V29.5H12H22H22.5V29V28.7808C22.5 28.0925 22.0316 27.4925 21.3638 27.3256L18.5 26.6096V22.5H24C24.8284 22.5 25.5 21.8284 25.5 21C25.5 20.1716 24.8284 19.5 24 19.5H18.5V16.5H24C25.5399 16.5 27.4175 16.2464 28.9191 15.1544C30.4512 14.0401 31.5 12.1223 31.5 9C31.5 6.35015 30.4328 4.45806 28.9416 3.23802C27.4661 2.03075 25.6 1.5 24 1.5H18.5H18H16H12H11.5V2V2.58579C11.5 2.98361 11.658 3.36514 11.9393 3.64645L12.0607 3.76777C12.5295 4.23661 13.1654 4.5 13.8284 4.5ZM24 13.5H18.5V4.5H24C24.9302 4.5 26.0629 4.73469 26.95 5.4C27.8129 6.04714 28.5 7.14277 28.5 9C28.5 10.8572 27.8129 11.9529 26.95 12.6C26.0629 13.2653 24.9302 13.5 24 13.5Z" stroke="#FCFCFC" stroke-opacity="0.75"/>
<g clip-path="url(#clip1_2169_21158)">
<path d="M11.8726 23.0803C11.2001 22.6815 8.97116 23.802 7.434 25.6822C5.87762 27.5435 5.60863 28.1512 5.60863 28.1512C5.60863 28.1512 3.71051 25.1077 2.5 24.5C1.52006 24.0252 0.44443 25.4686 1.28987 26.3612C2.23138 27.3678 4.53262 31 5.68549 31C6.83836 31 7.47244 28.626 8.85588 26.7458C10.393 24.5997 12.5451 23.4792 11.8726 23.0803Z" fill="#00A1DB"/>
<path d="M7.04868 25.3636C6.33124 26.2216 5.87982 26.8218 5.59895 27.225C5.41132 26.9483 5.17351 26.6082 4.90866 26.254C4.58985 25.8277 4.2267 25.3742 3.8609 24.9846C3.50453 24.6051 3.10932 24.2464 2.72434 24.0532L2.72436 24.0531L2.71802 24.05C1.93639 23.6713 1.17596 24.0887 0.7992 24.6334C0.412589 25.1924 0.304428 26.0468 0.925775 26.7039C1.13977 26.9329 1.44277 27.3249 1.81359 27.8131C1.86038 27.8747 1.90805 27.9376 1.95653 28.0015C2.28486 28.4345 2.64975 28.9157 3.01983 29.3727C3.44283 29.8952 3.8872 30.4045 4.3087 30.787C4.51944 30.9783 4.73684 31.1492 4.95387 31.2748C5.1652 31.397 5.41669 31.5 5.68549 31.5C6.16341 31.5 6.54065 31.2492 6.83243 30.9469C7.12121 30.6478 7.37711 30.2463 7.61786 29.8269C7.7626 29.5747 7.90451 29.3123 8.04922 29.0447C8.40693 28.3833 8.78173 27.6902 9.25861 27.0421L9.25864 27.0421L9.26237 27.0369C9.9357 26.0969 10.7335 25.3615 11.3676 24.777C11.424 24.725 11.479 24.6743 11.5326 24.6247C11.8418 24.3383 12.1452 24.0519 12.3157 23.799C12.3985 23.6761 12.5068 23.4813 12.4988 23.2471C12.4889 22.9597 12.3158 22.7619 12.1276 22.6503C11.7845 22.4468 11.3528 22.4824 10.9952 22.5679C10.6097 22.6601 10.1764 22.843 9.73379 23.0901C8.84747 23.5849 7.85773 24.3746 7.04868 25.3636Z" stroke="#FCFCFC" stroke-opacity="0.75"/>
</g>
</g>
<defs>
<clipPath id="clip0_2169_21158">
<rect width="32" height="32" fill="white"/>
</clipPath>
<clipPath id="clip1_2169_21158">
<rect width="13" height="10" fill="white" transform="translate(0 22)"/>
</clipPath>
</defs>
</svg>
