<svg width="32" height="32" viewBox="0 0 32 32" fill="none" xmlns="http://www.w3.org/2000/svg">
<g clip-path="url(#clip0_2170_21183)">
<path d="M12 21C12 20.4477 12.4477 20 13 20H24C24.5523 20 25 20.4477 25 21V21C25 21.5523 24.5523 22 24 22H13C12.4477 22 12 21.5523 12 21V21Z" fill="#3A3A3A"/>
<path d="M16 2H18V27L21.2425 27.8106C21.6877 27.9219 22 28.3219 22 28.7808V29H12V28.7808C12 28.3219 12.3123 27.9219 12.7575 27.8106L16 27V2Z" fill="#3A3A3A"/>
<path fill-rule="evenodd" clip-rule="evenodd" d="M24 4H13.8284C13.298 4 12.7893 3.78929 12.4142 3.41421L12.2929 3.29289C12.1054 3.10536 12 2.851 12 2.58579V2H16H24C27 2 31 4 31 9C31 15 27 16 24 16H13C12.4477 16 12 15.5523 12 15V15C12 14.4477 12.4477 14 13 14H24C26 14 29 13 29 9C29 5 26 4 24 4Z" fill="#3A3A3A"/>
<path d="M13.8284 4.5H15.5V13.5H13C12.1716 13.5 11.5 14.1716 11.5 15C11.5 15.8284 12.1716 16.5 13 16.5H15.5V19.5H13C12.1716 19.5 11.5 20.1716 11.5 21C11.5 21.8284 12.1716 22.5 13 22.5H15.5V26.6096L12.6362 27.3256C11.9684 27.4925 11.5 28.0925 11.5 28.7808V29V29.5H12H22H22.5V29V28.7808C22.5 28.0925 22.0316 27.4925 21.3638 27.3256L18.5 26.6096V22.5H24C24.8284 22.5 25.5 21.8284 25.5 21C25.5 20.1716 24.8284 19.5 24 19.5H18.5V16.5H24C25.5399 16.5 27.4175 16.2464 28.9191 15.1544C30.4512 14.0401 31.5 12.1223 31.5 9C31.5 6.35015 30.4328 4.45806 28.9416 3.23802C27.4661 2.03075 25.6 1.5 24 1.5H18.5H18H16H12H11.5V2V2.58579C11.5 2.98361 11.658 3.36514 11.9393 3.64645L12.0607 3.76777C12.5295 4.23661 13.1654 4.5 13.8284 4.5ZM24 13.5H18.5V4.5H24C24.9302 4.5 26.0629 4.73469 26.95 5.4C27.8129 6.04714 28.5 7.14277 28.5 9C28.5 10.8572 27.8129 11.9529 26.95 12.6C26.0629 13.2653 24.9302 13.5 24 13.5Z" stroke="#FCFCFC" stroke-opacity="0.75"/>
<g clip-path="url(#clip1_2170_21183)">
<path d="M7 23L7 26L10 26L10 29L13 29L13 32L-1.08838e-05 32L0 23L7 23Z" fill="#FCFCFC" fill-opacity="0.75"/>
<rect x="12" y="30" width="1" height="11" transform="rotate(90 12 30)" fill="#00A1DB"/>
<rect x="9" y="27" width="1" height="8" transform="rotate(90 9 27)" fill="#00A1DB"/>
<rect x="6" y="24" width="1" height="5" transform="rotate(90 6 24)" fill="#00A1DB"/>
</g>
</g>
<defs>
<clipPath id="clip0_2170_21183">
<rect width="32" height="32" fill="white"/>
</clipPath>
<clipPath id="clip1_2170_21183">
<rect width="13" height="9" fill="white" transform="translate(0 23)"/>
</clipPath>
</defs>
</svg>
