<svg width="32" height="32" viewBox="0 0 32 32" fill="none" xmlns="http://www.w3.org/2000/svg">
<g clip-path="url(#clip0_2171_21352)">
<rect y="3" width="32" height="26" fill="#FCFCFC" fill-opacity="0.75"/>
<rect x="1.5" y="4.5" width="29" height="23" fill="#FCFCFC" stroke="#919191"/>
</g>
<g clip-path="url(#clip1_2171_21352)">
<circle cx="11.5" cy="13.5" r="3.5" fill="#FCFCFC" fill-opacity="0.75"/>
<path d="M5 20.7273C5 18.1165 7.11647 16 9.72727 16H13.2727C15.8835 16 18 18.1165 18 20.7273V23H5V20.7273Z" fill="#FCFCFC" fill-opacity="0.75"/>
<path d="M13 17H10C8 17 6 18 6 20V22H8V20H9V22H14V20H15V22H16.9998L17 20C17 18 15 17 13 17Z" fill="#00A1DB"/>
<circle cx="11.5" cy="13.5" r="2.5" fill="#00A1DB"/>
</g>
<rect x="19" y="13" width="7" height="1" fill="#3A3A3A"/>
<rect x="19" y="10" width="7" height="1" fill="#3A3A3A"/>
<defs>
<clipPath id="clip0_2171_21352">
<rect width="32" height="26" fill="white" transform="translate(0 3)"/>
</clipPath>
<clipPath id="clip1_2171_21352">
<rect width="13" height="13" fill="white" transform="translate(5 10)"/>
</clipPath>
</defs>
</svg>
