<svg width="32" height="32" viewBox="0 0 32 32" fill="none" xmlns="http://www.w3.org/2000/svg">
<g clip-path="url(#clip0_2173_21629)">
<path d="M32 9L32 2H0V9L32 9Z" fill="#FCFCFC" fill-opacity="0.75"/>
<path d="M31 8L31 3H1V8L31 8Z" fill="#D8D8D8"/>
<path d="M31 6L31 3H1V6L31 6Z" fill="#919191"/>
<path d="M32 19L32 12H13V19L32 19Z" fill="#FCFCFC" fill-opacity="0.75"/>
<path d="M31 18L31 13H14V18L31 18Z" fill="#D8D8D8"/>
<path d="M31 16L31 13H14V16L31 16Z" fill="#919191"/>
<path d="M32 29L32 22H19V29L32 29Z" fill="#FCFCFC" fill-opacity="0.75"/>
<path d="M31 28L31 23H20V28L31 28Z" fill="#D8D8D8"/>
<path d="M31 26L31 23H20V26L31 26Z" fill="#919191"/>
<g clip-path="url(#clip1_2173_21629)">
<path d="M1 28L6.5 31L12 28V22L6.5 19L1 22V28Z" fill="#FCFCFC" fill-opacity="0.75"/>
<path d="M6.26057 31.4389L6.5 31.5695L6.73943 31.4389L12.2394 28.4389L12.5 28.2968V28V22V21.7032L12.2394 21.5611L6.73943 18.5611L6.5 18.4305L6.26057 18.5611L0.760574 21.5611L0.5 21.7032V22V28V28.2968L0.760574 28.4389L6.26057 31.4389Z" stroke="#FCFCFC" stroke-opacity="0.75"/>
<path d="M6.5 30.4305L1.5 27.7032V22.2968L6.5 19.5695L11.5 22.2968V27.7032L6.5 30.4305Z" stroke="#3A3A3A"/>
</g>
</g>
<defs>
<clipPath id="clip0_2173_21629">
<rect width="32" height="32" fill="white"/>
</clipPath>
<clipPath id="clip1_2173_21629">
<rect width="13" height="14" fill="white" transform="translate(0 18)"/>
</clipPath>
</defs>
</svg>
