<svg width="32" height="32" viewBox="0 0 32 32" fill="none" xmlns="http://www.w3.org/2000/svg">
<g clip-path="url(#clip0_2174_21689)">
<path d="M32 3H27V-2.98023e-07H19V3H1V29H32V3Z" fill="#FCFCFC" fill-opacity="0.75"/>
<path d="M16.5 4.5H2.5V27.5H16.5V4.5Z" fill="url(#paint0_linear_2174_21689)" stroke="#919191"/>
<path d="M16.5 4.5H30.5V27.5H16.5V4.5Z" fill="url(#paint1_linear_2174_21689)" stroke="#919191"/>
<rect x="20" y="9" width="7" height="1" fill="#3A3A3A"/>
<rect x="20" y="13" width="7" height="1" fill="#3A3A3A"/>
<rect x="20" y="17" width="7" height="1" fill="#3A3A3A"/>
<rect x="20" y="21" width="7" height="1" fill="#3A3A3A"/>
<rect x="6" y="9" width="7" height="1" fill="#3A3A3A"/>
<rect x="6" y="13" width="7" height="1" fill="#3A3A3A"/>
<rect x="6" y="17" width="7" height="1" fill="#3A3A3A"/>
<rect x="20" y="1" width="6" height="4" fill="#00A1DB"/>
<rect x="16" y="4" width="1" height="24" fill="#3A3A3A"/>
<g clip-path="url(#clip1_2174_21689)">
<path d="M1 28L6.5 31L12 28V22L6.5 19L1 22V28Z" fill="#FCFCFC" fill-opacity="0.75"/>
<path d="M6.26057 31.4389L6.5 31.5695L6.73943 31.4389L12.2394 28.4389L12.5 28.2968V28V22V21.7032L12.2394 21.5611L6.73943 18.5611L6.5 18.4305L6.26057 18.5611L0.760574 21.5611L0.5 21.7032V22V28V28.2968L0.760574 28.4389L6.26057 31.4389Z" stroke="#FCFCFC" stroke-opacity="0.75"/>
<path d="M6.5 30.4305L1.5 27.7032V22.2968L6.5 19.5695L11.5 22.2968V27.7032L6.5 30.4305Z" fill="url(#paint2_linear_2174_21689)" stroke="#919191"/>
</g>
</g>
<defs>
<linearGradient id="paint0_linear_2174_21689" x1="12" y1="16" x2="17" y2="16" gradientUnits="userSpaceOnUse">
<stop stop-color="#FCFCFC"/>
<stop offset="1" stop-color="#919191"/>
</linearGradient>
<linearGradient id="paint1_linear_2174_21689" x1="21" y1="16" x2="16" y2="16" gradientUnits="userSpaceOnUse">
<stop stop-color="#FCFCFC"/>
<stop offset="1" stop-color="#919191"/>
</linearGradient>
<linearGradient id="paint2_linear_2174_21689" x1="9.86111" y1="20.6667" x2="2.73529" y2="29.065" gradientUnits="userSpaceOnUse">
<stop stop-color="#94E1FC"/>
<stop offset="1" stop-color="#FCFCFC"/>
</linearGradient>
<clipPath id="clip0_2174_21689">
<rect width="32" height="32" fill="white"/>
</clipPath>
<clipPath id="clip1_2174_21689">
<rect width="13" height="14" fill="white" transform="translate(0 18)"/>
</clipPath>
</defs>
</svg>
