<svg width="32" height="32" viewBox="0 0 32 32" fill="none" xmlns="http://www.w3.org/2000/svg">
<g clip-path="url(#clip0_2176_21835)">
<rect x="1" y="2" width="30" height="27" fill="#FCFCFC" fill-opacity="0.75"/>
<rect x="0.5" y="1.5" width="31" height="28" stroke="#FCFCFC" stroke-opacity="0.75"/>
<rect x="1.5" y="2.5" width="29" height="26" fill="#FCFCFC" stroke="#919191"/>
<rect x="1.5" y="2.5" width="29" height="5" fill="url(#paint0_linear_2176_21835)" stroke="#3A3A3A"/>
<rect x="5" y="12" width="6" height="2" fill="#919191"/>
<rect x="21" y="12" width="6" height="2" fill="#919191"/>
<rect x="13" y="12" width="6" height="2" fill="#919191"/>
<rect x="13" y="17" width="6" height="2" fill="#919191"/>
<rect x="21" y="17" width="6" height="2" fill="#919191"/>
<rect x="21" y="22" width="6" height="2" fill="#919191"/>
<g clip-path="url(#clip1_2176_21835)">
<path d="M10 31L10 24L6 24L6 20L1 20L1 31L10 31Z" fill="#FCFCFC" fill-opacity="0.75"/>
<path d="M10.5 31L10.5 31.5L10 31.5L1 31.5L0.500001 31.5L0.500001 31L0.5 20L0.5 19.5L1 19.5L6 19.5L6.5 19.5L6.5 20L6.5 23.5L10 23.5L10.5 23.5L10.5 24L10.5 31Z" stroke="#FCFCFC" stroke-opacity="0.75"/>
<path d="M5.5 24L5.5 20.5L1.5 20.5L1.5 30.5L9.5 30.5L9.5 24.5L6 24.5L5.5 24.5L5.5 24Z" fill="url(#paint1_linear_2176_21835)" stroke="#00A1DB"/>
</g>
</g>
<defs>
<linearGradient id="paint0_linear_2176_21835" x1="15.5" y1="7" x2="15.5" y2="3" gradientUnits="userSpaceOnUse">
<stop stop-color="#94E1FC"/>
<stop offset="1" stop-color="#00A1DB"/>
</linearGradient>
<linearGradient id="paint1_linear_2176_21835" x1="8.75" y1="22.1389" x2="1.03922" y2="27.0458" gradientUnits="userSpaceOnUse">
<stop stop-color="#94E1FC"/>
<stop offset="1" stop-color="#FCFCFC"/>
</linearGradient>
<clipPath id="clip0_2176_21835">
<rect width="32" height="32" fill="white"/>
</clipPath>
<clipPath id="clip1_2176_21835">
<rect width="11" height="13" fill="white" transform="translate(0 19)"/>
</clipPath>
</defs>
</svg>
