<svg width="32" height="32" viewBox="0 0 32 32" fill="none" xmlns="http://www.w3.org/2000/svg">
<g clip-path="url(#clip0_2177_22050)">
<rect y="4" width="32" height="23" rx="3" fill="#FCFCFC" fill-opacity="0.75"/>
<rect x="1" y="5" width="30" height="21" rx="2" fill="url(#paint0_linear_2177_22050)"/>
<path d="M30 25L20.5 16.5" stroke="#919191"/>
<path d="M2 25L11.5 16.5" stroke="#919191"/>
<path d="M2 6L12.9058 17.8541C13.2845 18.2658 13.8183 18.5 14.3776 18.5H17.6224C18.1817 18.5 18.7155 18.2658 19.0942 17.8541L30 6" stroke="#919191"/>
<rect x="1.5" y="5.5" width="29" height="20" rx="1.5" stroke="#919191"/>
<g clip-path="url(#clip1_2177_22050)">
<path d="M1 23C1 21.8954 1.89543 21 3 21V21C4.10457 21 5 21.8954 5 23V23H8C8.55228 23 9 23.4477 9 24V24H10C11.1046 24 12 24.8954 12 26V29C12 30.1046 11.1046 31 10 31H3C1.89543 31 1 30.1046 1 29V23Z" fill="#00A1DB"/>
<path d="M0.5 23V29C0.5 30.3807 1.61929 31.5 3 31.5H10C11.3807 31.5 12.5 30.3807 12.5 29V26C12.5 24.6193 11.3807 23.5 10 23.5H9.41465C9.20873 22.9174 8.65311 22.5 8 22.5H5.44999C5.21836 21.3589 4.20948 20.5 3 20.5C1.61929 20.5 0.5 21.6193 0.5 23Z" stroke="#FCFCFC" stroke-opacity="0.75"/>
<path d="M2 26C2 25.4477 2.44772 25 3 25H10C10.5523 25 11 25.4477 11 26V29C11 29.5523 10.5523 30 10 30H3C2.44772 30 2 29.5523 2 29V26Z" fill="url(#paint1_linear_2177_22050)"/>
<rect x="5" y="24" width="1" height="7" fill="#00A1DB"/>
</g>
</g>
<defs>
<linearGradient id="paint0_linear_2177_22050" x1="16" y1="5" x2="16" y2="26" gradientUnits="userSpaceOnUse">
<stop stop-color="#F4F7F6"/>
<stop offset="1" stop-color="#D8D8D8"/>
</linearGradient>
<linearGradient id="paint1_linear_2177_22050" x1="9.25" y1="25.6944" x2="7.05857" y2="30.766" gradientUnits="userSpaceOnUse">
<stop stop-color="#94E1FC"/>
<stop offset="1" stop-color="#FCFCFC"/>
</linearGradient>
<clipPath id="clip0_2177_22050">
<rect width="32" height="32" fill="white"/>
</clipPath>
<clipPath id="clip1_2177_22050">
<rect width="13" height="12" fill="white" transform="translate(0 20)"/>
</clipPath>
</defs>
</svg>
