<svg width="32" height="32" viewBox="0 0 32 32" fill="none" xmlns="http://www.w3.org/2000/svg">
<g clip-path="url(#clip0_2177_22137)">
<rect y="4" width="32" height="23" rx="3" fill="#FCFCFC" fill-opacity="0.75"/>
<rect x="1" y="5" width="30" height="21" rx="2" fill="url(#paint0_linear_2177_22137)"/>
<path d="M30 25L20.5 16.5" stroke="#919191"/>
<path d="M2 25L11.5 16.5" stroke="#919191"/>
<path d="M2 6L12.9058 17.8541C13.2845 18.2658 13.8183 18.5 14.3776 18.5H17.6224C18.1817 18.5 18.7155 18.2658 19.0942 17.8541L30 6" stroke="#919191"/>
<rect x="1.5" y="5.5" width="29" height="20" rx="1.5" stroke="#919191"/>
<g clip-path="url(#clip1_2177_22137)">
<path d="M4 20V19H7V20H11V23H10V32H1V23H0V20H4Z" fill="#FCFCFC" fill-opacity="0.75"/>
<rect x="1" y="21" width="9" height="1" fill="#EA212D"/>
<rect x="2" y="30" width="7" height="1" fill="#EA212D"/>
<rect x="5" y="20" width="1" height="2" fill="#EA212D"/>
<path d="M2 23H9V31H8V24H7V31H6V24H5V31H4V24H3V31H2V23Z" fill="#EA212D"/>
</g>
</g>
<defs>
<linearGradient id="paint0_linear_2177_22137" x1="16" y1="5" x2="16" y2="26" gradientUnits="userSpaceOnUse">
<stop stop-color="#F4F7F6"/>
<stop offset="1" stop-color="#D8D8D8"/>
</linearGradient>
<clipPath id="clip0_2177_22137">
<rect width="32" height="32" fill="white"/>
</clipPath>
<clipPath id="clip1_2177_22137">
<rect width="11" height="13" fill="white" transform="translate(0 19)"/>
</clipPath>
</defs>
</svg>
