<svg width="32" height="32" viewBox="0 0 32 32" fill="none" xmlns="http://www.w3.org/2000/svg">
<g clip-path="url(#clip0_2179_22317)">
<rect y="4" width="32" height="23" rx="3" fill="#FCFCFC" fill-opacity="0.75"/>
<rect x="1" y="5" width="30" height="21" rx="2" fill="url(#paint0_linear_2179_22317)"/>
<path d="M30 25L20.5 16.5" stroke="#919191"/>
<path d="M2 25L11.5 16.5" stroke="#919191"/>
<path d="M2 6L12.9058 17.8541C13.2845 18.2658 13.8183 18.5 14.3776 18.5H17.6224C18.1817 18.5 18.7155 18.2658 19.0942 17.8541L30 6" stroke="#919191"/>
<rect x="1.5" y="5.5" width="29" height="20" rx="1.5" stroke="#919191"/>
<g clip-path="url(#clip1_2179_22317)">
<path d="M12 31L12 27C12 25.3431 10.6569 24 9 24L5 24L5 21.2204C5 21.1345 4.89881 21.0885 4.83415 21.1451L1.08601 24.4247C1.04048 24.4646 1.04048 24.5354 1.08601 24.5753L4.83415 27.8549C4.89881 27.9115 5 27.8655 5 27.7796L5 25L9 25C10.1046 25 11 25.8954 11 27L11 31L12 31Z" fill="#219653"/>
<path d="M12.5 31L12.5 31.5L12 31.5L11 31.5L10.5 31.5L10.5 31L10.5 27C10.5 26.1716 9.82843 25.5 9 25.5L5.5 25.5L5.5 27.7796C5.5 28.2951 4.89285 28.5706 4.5049 28.2312L0.756757 24.9515C0.48356 24.7125 0.483561 24.2875 0.756757 24.0485L4.5049 20.7688C4.89285 20.4294 5.5 20.7049 5.5 21.2204L5.5 23.5L9 23.5C10.933 23.5 12.5 25.067 12.5 27L12.5 31Z" stroke="#FCFCFC" stroke-opacity="0.75"/>
</g>
</g>
<defs>
<linearGradient id="paint0_linear_2179_22317" x1="16" y1="5" x2="16" y2="26" gradientUnits="userSpaceOnUse">
<stop stop-color="#F4F7F6"/>
<stop offset="1" stop-color="#D8D8D8"/>
</linearGradient>
<clipPath id="clip0_2179_22317">
<rect width="32" height="32" fill="white"/>
</clipPath>
<clipPath id="clip1_2179_22317">
<rect width="12" height="13" fill="white" transform="matrix(4.37114e-08 -1 -1 -4.37114e-08 13 32)"/>
</clipPath>
</defs>
</svg>
