<svg width="32" height="32" viewBox="0 0 32 32" fill="none" xmlns="http://www.w3.org/2000/svg">
<g clip-path="url(#clip0_2181_22539)">
<path d="M8 3H24L31 15V29H1V15L8 3Z" fill="#FCFCFC" fill-opacity="0.75"/>
<path d="M8 2.5H7.71281L7.56811 2.74806L0.568111 14.7481L0.5 14.8648V15V29V29.5H1H31H31.5V29V15V14.8648L31.4319 14.7481L24.4319 2.74806L24.2872 2.5H24H8Z" stroke="#FCFCFC" stroke-opacity="0.75"/>
<path d="M1.5 15.1352L8.28719 3.5H23.7128L30.5 15.1352V28.5H1.5V15.1352Z" fill="#FCFCFC" stroke="#919191"/>
<path d="M30.5 15.5V28.5H1.5V15.5H10.5V18C10.5 18.8284 11.1716 19.5 12 19.5H20C20.8284 19.5 21.5 18.8284 21.5 18V15.5H30.5Z" fill="url(#paint0_linear_2181_22539)" stroke="#919191"/>
<rect x="9" y="7" width="14" height="1" fill="#3A3A3A"/>
<rect x="7" y="11" width="18" height="1" fill="#3A3A3A"/>
</g>
<defs>
<linearGradient id="paint0_linear_2181_22539" x1="16" y1="15" x2="16" y2="29" gradientUnits="userSpaceOnUse">
<stop stop-color="#F4F7F6"/>
<stop offset="1" stop-color="#D8D8D8"/>
</linearGradient>
<clipPath id="clip0_2181_22539">
<rect width="32" height="32" fill="white"/>
</clipPath>
</defs>
</svg>
