<svg width="32" height="32" viewBox="0 0 32 32" fill="none" xmlns="http://www.w3.org/2000/svg">
<g clip-path="url(#clip0_2181_22662)">
<g clip-path="url(#clip1_2181_22662)">
<path d="M1 13.3472C1 12.4903 1.36644 11.6743 2.00691 11.105L9.14751 4.75777C9.69666 4.26964 10.4059 4 11.1406 4H27C29.2091 4 31 5.79086 31 8V23C31 25.2091 29.2091 27 27 27H11.1406C10.4059 27 9.69666 26.7304 9.14751 26.2422L2.00691 19.895C1.36644 19.3257 1 18.5097 1 17.6528V13.3472Z" fill="#FCFCFC" fill-opacity="0.75"/>
<path d="M0.5 13.3472V17.6528C0.5 18.6525 0.927518 19.6045 1.67473 20.2687L8.81532 26.6159C9.456 27.1854 10.2834 27.5 11.1406 27.5H27C29.4853 27.5 31.5 25.4853 31.5 23V8C31.5 5.51472 29.4853 3.5 27 3.5H11.1406C10.2834 3.5 9.456 3.81458 8.81532 4.38407L1.67473 10.7313C0.927517 11.3955 0.5 12.3475 0.5 13.3472Z" stroke="#FCFCFC" stroke-opacity="0.75"/>
<path d="M1.5 17.6528V13.3472C1.5 12.6331 1.80537 11.9531 2.33909 11.4787L9.47969 5.13148C9.93732 4.7247 10.5283 4.5 11.1406 4.5H27C28.933 4.5 30.5 6.067 30.5 8V23C30.5 24.933 28.933 26.5 27 26.5H11.1406C10.5283 26.5 9.93732 26.2753 9.47969 25.8685L2.33909 19.5213C1.80537 19.0469 1.5 18.3669 1.5 17.6528Z" fill="#FCFCFC" stroke="#919191"/>
<circle cx="7.5" cy="15.5" r="1.5" fill="#919191"/>
<path d="M17 9H18V22H17V9Z" fill="#3A3A3A"/>
<path fill-rule="evenodd" clip-rule="evenodd" d="M21 10H15V9H21C22.6569 9 24 10.3431 24 12C24 13.6569 22.6569 15 21 15H15V14H21C22.1046 14 23 13.1046 23 12C23 10.8954 22.1046 10 21 10Z" fill="#3A3A3A"/>
<path d="M15 21H20V22H15V21Z" fill="#3A3A3A"/>
<path d="M15 17H21V18H15V17Z" fill="#3A3A3A"/>
<path d="M16.5 8.5H15H14.5V9V10V10.5H15H16.5V13.5H15H14.5V14V15V15.5H15H16.5V16.5H15H14.5V17V18V18.5H15H16.5V20.5H15H14.5V21V22V22.5H15H16.5H17H18H18.5H20H20.5V22V21V20.5H20H18.5V18.5H21H21.5V18V17V16.5H21H18.5V15.5H21C22.933 15.5 24.5 13.933 24.5 12C24.5 10.067 22.933 8.5 21 8.5H18.5H18H17H16.5ZM18.5 13.5V10.5H21C21.8284 10.5 22.5 11.1716 22.5 12C22.5 12.8284 21.8284 13.5 21 13.5H18.5Z" stroke="#FCFCFC" stroke-opacity="0.75"/>
</g>
</g>
<defs>
<clipPath id="clip0_2181_22662">
<rect width="32" height="32" fill="white"/>
</clipPath>
<clipPath id="clip1_2181_22662">
<rect width="32" height="32" fill="white"/>
</clipPath>
</defs>
</svg>
