<svg width="16" height="16" viewBox="0 0 16 16" fill="none" xmlns="http://www.w3.org/2000/svg">
<g clip-path="url(#clip0_674_20097)">
<path d="M12.0016 7L10 4L14 4L12.0016 7Z" fill="#0C121C"/>
<path d="M1.32951 2.90194C1.37626 2.66823 1.58146 2.5 1.8198 2.5H6.7802C7.09572 2.5 7.33237 2.78866 7.27049 3.09806L6.67049 6.09806C6.62374 6.33177 6.41854 6.5 6.1802 6.5H1.2198C0.904281 6.5 0.667634 6.21134 0.729514 5.90194L1.32951 2.90194Z" stroke="#0C121C"/>
<path d="M4 6.5H1.5C0.947715 6.5 0.5 6.05228 0.5 5.5V1.5H5.5C5.77614 1.5 6 1.72386 6 2V2" stroke="#0C121C"/>
<rect x="1" y="2" width="1" height="1" fill="#0C121C"/>
<rect width="3" height="2" rx="1" fill="#0C121C"/>
<path d="M9.32951 11.9019C9.37626 11.6682 9.58146 11.5 9.8198 11.5H14.7802C15.0957 11.5 15.3324 11.7887 15.2705 12.0981L14.6705 15.0981C14.6237 15.3318 14.4185 15.5 14.1802 15.5H9.2198C8.90428 15.5 8.66763 15.2113 8.72951 14.9019L9.32951 11.9019Z" stroke="#0C121C"/>
<path d="M12 15.5H9.5C8.94772 15.5 8.5 15.0523 8.5 14.5V10.5H13.5C13.7761 10.5 14 10.7239 14 11V11" stroke="#0C121C"/>
<rect x="9" y="11" width="1" height="1" fill="#0C121C"/>
<rect x="8" y="9" width="3" height="2" rx="1" fill="#0C121C"/>
</g>
<defs>
<clipPath id="clip0_674_20097">
<rect width="16" height="16" fill="white"/>
</clipPath>
</defs>
</svg>
