<svg width="8" height="8" viewBox="0 0 8 8" fill="none" xmlns="http://www.w3.org/2000/svg">
<g clip-path="url(#clip0_692_21124)">
<path d="M6.5 3.5L5 2L8 2L6.5 3.5Z" fill="#0C121C"/>
<path d="M0.364757 2.95097L0.704951 1.25H3.3901C3.54786 1.25 3.66618 1.39433 3.63524 1.54903L3.33524 3.04903C3.31187 3.16588 3.20927 3.25 3.0901 3.25H0.609902C0.45214 3.25 0.333817 3.10567 0.364757 2.95097Z" stroke="#0C121C" stroke-width="0.5"/>
<path d="M0 0.5C0 0.223858 0.223858 0 0.5 0V3.5C0.223858 3.5 0 3.27614 0 3V0.5Z" fill="#0C121C"/>
<path d="M1.5 0.5C1.5 0.223858 1.27614 0 1 0H0.5V1H1.5V0.5Z" fill="#0C121C"/>
<path d="M1 0.5L1 1L3 1C3 0.723858 2.77614 0.5 2.5 0.5L1 0.5Z" fill="#0C121C"/>
<path d="M4.36476 7.45097L4.70495 5.75H7.3901C7.54786 5.75 7.66618 5.89433 7.63524 6.04903L7.33524 7.54903C7.31187 7.66588 7.20927 7.75 7.0901 7.75H4.6099C4.45214 7.75 4.33382 7.60567 4.36476 7.45097Z" stroke="#0C121C" stroke-width="0.5"/>
<path d="M4 5C4 4.72386 4.22386 4.5 4.5 4.5V8C4.22386 8 4 7.77614 4 7.5V5Z" fill="#0C121C"/>
<path d="M5.5 5C5.5 4.72386 5.27614 4.5 5 4.5H4.5V5.5H5.5V5Z" fill="#0C121C"/>
<path d="M5 5L5 5.5L7 5.5C7 5.22386 6.77614 5 6.5 5L5 5Z" fill="#0C121C"/>
</g>
<defs>
<clipPath id="clip0_692_21124">
<rect width="8" height="8" fill="white"/>
</clipPath>
</defs>
</svg>
