<svg width="8" height="8" viewBox="0 0 8 8" fill="none" xmlns="http://www.w3.org/2000/svg">
<mask id="mask0_726_19806" style="mask-type:alpha" maskUnits="userSpaceOnUse" x="0" y="0" width="8" height="8">
<path fill-rule="evenodd" clip-rule="evenodd" d="M8 0H0V3H5H6V3.83333V8H8V0Z" fill="#D9D9D9"/>
</mask>
<g mask="url(#mask0_726_19806)">
<path d="M5 3L5 -2.62268e-07L6 6.3573e-08L8 2L8 3L5 3Z" fill="#0C121C"/>
<rect width="6" height="1" fill="#0C121C"/>
<rect y="7" width="8" height="1" fill="#0C121C"/>
<rect y="7" width="6" height="1" transform="rotate(-90 0 7)" fill="#0C121C"/>
<rect x="7" y="7" width="4" height="1" transform="rotate(-90 7 7)" fill="#0C121C"/>
</g>
<path d="M0.5 8H1.5L2.5 6.5L3.5 8H4.5L5 4H4L3.5 6.5L2.5 5L1.5 6.5L1 4H0L0.5 8Z" fill="#0C121C"/>
</svg>
