<svg width="24" height="24" viewBox="0 0 24 24" fill="none" xmlns="http://www.w3.org/2000/svg">
<g clip-path="url(#clip0_438_12861)">
<path d="M14 7.00339L18.002 3L18.002 11.0002L14 7.00339Z" fill="#0C121C"/>
<path d="M20 18.0034L24.002 14L24.002 22.0002L20 18.0034Z" fill="#0C121C"/>
<path d="M0.5 5.5C0.5 5.22386 0.723858 5 1 5H10C10.2761 5 10.5 5.22386 10.5 5.5V10C10.5 10.2761 10.2761 10.5 10 10.5H1C0.723858 10.5 0.5 10.2761 0.5 10V5.5Z" stroke="#0C121C"/>
<path d="M3 10.5H1.5C0.947715 10.5 0.5 10.0523 0.5 9.5V3.5H4.75H8C8.55228 3.5 9 3.94772 9 4.5V5.5" stroke="#0C121C"/>
<path d="M0.5 3V3C0.5 2.72386 0.723858 2.5 1 2.5H2.5C2.77614 2.5 3 2.72386 3 3V3" stroke="#0C121C"/>
<rect x="1" y="3" width="2" height="1" fill="#0C121C"/>
<rect x="1" y="4" width="8" height="1" fill="#0C121C"/>
<path d="M6.5 16.5C6.5 16.2239 6.72386 16 7 16H16C16.2761 16 16.5 16.2239 16.5 16.5V21C16.5 21.2761 16.2761 21.5 16 21.5H7C6.72386 21.5 6.5 21.2761 6.5 21V16.5Z" stroke="#0C121C"/>
<path d="M9 21.5H7.5C6.94772 21.5 6.5 21.0523 6.5 20.5V14.5H10.75H14C14.5523 14.5 15 14.9477 15 15.5V16.5" stroke="#0C121C"/>
<path d="M6.5 14V14C6.5 13.7239 6.72386 13.5 7 13.5H8.5C8.77614 13.5 9 13.7239 9 14V14" stroke="#0C121C"/>
<rect x="7" y="14" width="2" height="1" fill="#0C121C"/>
<rect x="7" y="15" width="8" height="1" fill="#0C121C"/>
</g>
<defs>
<clipPath id="clip0_438_12861">
<rect width="24" height="24" fill="white"/>
</clipPath>
</defs>
</svg>
