<svg width="8" height="8" viewBox="0 0 8 8" fill="none" xmlns="http://www.w3.org/2000/svg">
<g clip-path="url(#clip0_1020_25779)">
<path fill-rule="evenodd" clip-rule="evenodd" d="M8 0H0V8H8V0ZM1.08679 5.52C1.44279 5.896 1.95879 6.084 2.63479 6.084C2.95079 6.084 3.22879 6.052 3.46879 5.988C3.70879 5.924 3.89479 5.852 4.02679 5.772L3.76879 5.022C3.71679 5.046 3.65879 5.072 3.59479 5.1C3.53079 5.128 3.45679 5.154 3.37279 5.178C3.28879 5.198 3.19279 5.216 3.08479 5.232C2.97679 5.248 2.85479 5.256 2.71879 5.256C2.50279 5.256 2.31879 5.222 2.16679 5.154C2.01479 5.082 1.89079 4.986 1.79479 4.866C1.70279 4.746 1.63479 4.604 1.59079 4.44C1.55079 4.272 1.53079 4.092 1.53079 3.9C1.53079 3.66 1.56279 3.456 1.62679 3.288C1.69079 3.12 1.77479 2.984 1.87879 2.88C1.98679 2.772 2.10879 2.694 2.24479 2.646C2.38479 2.598 2.52679 2.574 2.67079 2.574C2.88679 2.574 3.07879 2.598 3.24679 2.646C3.41879 2.694 3.56879 2.752 3.69679 2.82L3.96679 2.064C3.93479 2.044 3.88279 2.016 3.81079 1.98C3.73879 1.944 3.64879 1.91 3.54079 1.878C3.43279 1.842 3.30679 1.812 3.16279 1.788C3.01879 1.76 2.85879 1.746 2.68279 1.746C2.37879 1.746 2.09679 1.794 1.83679 1.89C1.57679 1.986 1.35279 2.128 1.16479 2.316C0.976789 2.5 0.828789 2.728 0.720789 3C0.612789 3.268 0.558789 3.574 0.558789 3.918C0.558789 4.61 0.734789 5.144 1.08679 5.52ZM6.18702 5.256C6.10302 5.276 5.99502 5.286 5.86302 5.286C5.59902 5.286 5.37502 5.26 5.19102 5.208C5.01102 5.152 4.85902 5.09 4.73502 5.022L4.47102 5.766C4.52702 5.798 4.59502 5.832 4.67502 5.868C4.75902 5.904 4.85702 5.938 4.96902 5.97C5.08502 6.002 5.21702 6.028 5.36502 6.048C5.51302 6.072 5.67902 6.084 5.86302 6.084C6.41102 6.084 6.82102 5.978 7.09302 5.766C7.36502 5.55 7.50102 5.248 7.50102 4.86C7.50102 4.66 7.47502 4.49 7.42302 4.35C7.37102 4.21 7.29102 4.088 7.18302 3.984C7.07902 3.88 6.94702 3.79 6.78702 3.714C6.62702 3.634 6.43902 3.554 6.22302 3.474C6.11902 3.438 6.02302 3.404 5.93502 3.372C5.85102 3.336 5.77502 3.298 5.70702 3.258C5.64302 3.214 5.59302 3.166 5.55702 3.114C5.52102 3.062 5.50302 2.998 5.50302 2.922C5.50302 2.794 5.55102 2.7 5.64702 2.64C5.74702 2.576 5.90902 2.544 6.13302 2.544C6.33302 2.544 6.50302 2.568 6.64302 2.616C6.78702 2.66 6.91702 2.712 7.03302 2.772L7.30302 2.034C7.17102 1.962 7.00302 1.896 6.79902 1.836C6.59502 1.776 6.35302 1.746 6.07302 1.746C5.83702 1.746 5.62502 1.776 5.43702 1.836C5.24902 1.892 5.08902 1.974 4.95702 2.082C4.82502 2.19 4.72302 2.322 4.65102 2.478C4.57902 2.63 4.54302 2.802 4.54302 2.994C4.54302 3.186 4.57702 3.35 4.64502 3.486C4.71302 3.618 4.80102 3.732 4.90902 3.828C5.01702 3.92 5.13902 3.998 5.27502 4.062C5.41102 4.122 5.54702 4.176 5.68302 4.224C5.99502 4.328 6.21502 4.426 6.34302 4.518C6.47102 4.606 6.53502 4.718 6.53502 4.854C6.53502 4.918 6.52502 4.976 6.50502 5.028C6.48502 5.08 6.44902 5.126 6.39702 5.166C6.34502 5.202 6.27502 5.232 6.18702 5.256Z" fill="#0C121C"/>
</g>
<defs>
<clipPath id="clip0_1020_25779">
<rect width="8" height="8" fill="white"/>
</clipPath>
</defs>
</svg>
