<svg width="16" height="16" viewBox="0 0 16 16" fill="none" xmlns="http://www.w3.org/2000/svg">
<g clip-path="url(#clip0_726_19869)">
<mask id="mask0_726_19869" style="mask-type:alpha" maskUnits="userSpaceOnUse" x="0" y="0" width="16" height="16">
<path fill-rule="evenodd" clip-rule="evenodd" d="M16 0H0V11.4673C0.877823 10.3388 2.28137 9 3.99998 9C6.97063 9 9 13 9 13C9 13 8.10681 14.8152 6.597 16H16V0ZM1.08085 16C0.662192 15.7016 0.295124 15.358 0 15V16H1.08085Z" fill="#D9D9D9"/>
</mask>
<g mask="url(#mask0_726_19869)">
<rect y="0.666504" width="1" height="14" fill="#0C121C"/>
<rect x="15" y="4.6665" width="1" height="10" fill="#0C121C"/>
<rect x="1" y="13.6665" width="14" height="1" fill="#0C121C"/>
<rect x="1" y="0.666504" width="11" height="1" fill="#0C121C"/>
<path d="M12 2.08072L14.5858 4.6665H12V2.08072Z" stroke="#0C121C" stroke-width="2"/>
</g>
<path fill-rule="evenodd" clip-rule="evenodd" d="M0 13C0 13 1.62346 10 3.99999 10C6.37651 10 8 13 8 13C8 13 6.42541 16 3.99999 16C1.58434 16 0 13 0 13ZM4 15C5.10457 15 6 14.1046 6 13C6 11.8954 5.10457 11 4 11C2.89543 11 2 11.8954 2 13C2 14.1046 2.89543 15 4 15Z" fill="#0C121C"/>
<circle cx="4" cy="13" r="1" fill="#0C121C"/>
</g>
<defs>
<clipPath id="clip0_726_19869">
<rect width="16" height="16" fill="white"/>
</clipPath>
</defs>
</svg>
