<svg width="16" height="16" viewBox="0 0 16 16" fill="none" xmlns="http://www.w3.org/2000/svg">
<g clip-path="url(#clip0_697_21596)">
<mask id="mask0_697_21596" style="mask-type:alpha" maskUnits="userSpaceOnUse" x="0" y="0" width="16" height="16">
<path fill-rule="evenodd" clip-rule="evenodd" d="M16 0H0V8H5V13.7143V16H16V0Z" fill="#D9D9D9"/>
</mask>
<g mask="url(#mask0_697_21596)">
<path d="M15.1225 8.13245C15.5542 6.83739 14.5903 5.5 13.2251 5.5H4.44152C3.58066 5.5 2.81638 6.05086 2.54415 6.86754L0.877485 11.8675C0.445797 13.1626 1.40974 14.5 2.77485 14.5H11.5585C12.4193 14.5 13.1836 13.9491 13.4558 13.1325L15.1225 8.13245Z" stroke="#0C121C"/>
<path d="M0.5 12.5V2.5C0.5 1.94772 0.947715 1.5 1.5 1.5H4C4.55228 1.5 5 1.94772 5 2.5V3.5H11.5C12.0523 3.5 12.5 3.94772 12.5 4.5V5" stroke="#0C121C" stroke-linecap="round"/>
<path d="M5 2H1V5V10L2.5 6L4 5.5H12V4H5V2Z" fill="#0C121C"/>
</g>
<path d="M0 15L1 12L3 14L0 15Z" fill="#0C121C"/>
<path d="M4.82617 8.17578L5.53328 8.88289L2.70485 11.7113L1.99775 11.0042L4.82617 8.17578Z" fill="#0C121C"/>
<path d="M5.61719 9.96729L6.32429 10.6744L4.01247 12.9862L3.30536 12.2791L5.61719 9.96729Z" fill="#0C121C"/>
<path d="M7 10.002L6.29289 10.7091L4.29081 8.70697L4.99791 7.99987L7 10.002Z" fill="#0C121C"/>
</g>
<defs>
<clipPath id="clip0_697_21596">
<rect width="16" height="16" fill="white"/>
</clipPath>
</defs>
</svg>
