<svg width="16" height="16" viewBox="0 0 16 16" fill="none" xmlns="http://www.w3.org/2000/svg">
<g clip-path="url(#clip0_726_19953)">
<path fill-rule="evenodd" clip-rule="evenodd" d="M0 2C0 0.895432 0.895431 0 2 0H14C15.1046 0 16 0.895431 16 2V2.70059C16 7.11808 14.0528 11.311 10.6777 14.161L8.88201 15.6774C8.63533 15.8857 8.32288 16 8 16C7.67713 16 7.36467 15.8857 7.11799 15.6774L5.32229 14.161C1.94719 11.311 0 7.11808 0 2.7006V2ZM10.9999 10C10.9998 9 10.1 8 8.6 8H7.4C5.9 8 5 9 5 10V11H6V10H7V11H9V10H10L9.99994 11H10.9999V10ZM8 7C9.10457 7 10 6.10457 10 5C10 3.89543 9.10457 3 8 3C6.89543 3 6 3.89543 6 5C6 6.10457 6.89543 7 8 7Z" fill="#0C121C"/>
</g>
<defs>
<clipPath id="clip0_726_19953">
<rect width="16" height="16" fill="white"/>
</clipPath>
</defs>
</svg>
