<svg width="24" height="24" viewBox="0 0 24 24" fill="none" xmlns="http://www.w3.org/2000/svg">
<g clip-path="url(#clip0_437_11961)">
<path d="M18 15L18 16C18 18 17 20 14 20L13 20" stroke="#0C121C" stroke-width="2"/>
<path d="M17.9966 11L21 15.002L14.9998 15.002L17.9966 11Z" fill="#0C121C"/>
<mask id="mask0_437_11961" style="mask-type:alpha" maskUnits="userSpaceOnUse" x="0" y="13" width="11" height="11">
<path fill-rule="evenodd" clip-rule="evenodd" d="M0 13H11V24H0V13ZM2.0013 17.0001H9.0013V22.0001H2.0013V17.0001ZM3.0013 13.0001H2.0013V15.0001H3.0013V13.0001ZM4.0013 13.0001H5.0013V15.0001H4.0013V13.0001ZM7.0013 13.0001H6.0013V15.0001H7.0013V13.0001Z" fill="#D9D9D9"/>
</mask>
<g mask="url(#mask0_437_11961)">
<path d="M0 13H8L11 16V24H0V13Z" fill="#0C121C"/>
</g>
<path d="M14.3637 3.42397C14.4013 3.18006 14.6111 3 14.8579 3H22.8344C23.1408 3 23.3752 3.27315 23.3286 3.57603L22.6363 8.07603C22.5987 8.31994 22.3889 8.5 22.1421 8.5H14.1656C13.8592 8.5 13.6248 8.22685 13.6714 7.92397L14.3637 3.42397Z" stroke="#0C121C"/>
<path d="M16 8.5H14.5C13.9477 8.5 13.5 8.05228 13.5 7.5V1.5H17.75H21C21.5523 1.5 22 1.94772 22 2.5V3.5" stroke="#0C121C"/>
<path d="M13.5 1V1C13.5 0.723858 13.7239 0.5 14 0.5H15.5C15.7761 0.5 16 0.723858 16 1V1" stroke="#0C121C"/>
<rect x="14" y="1" width="2" height="1" fill="#0C121C"/>
<rect x="14" y="2" width="8" height="1" fill="#0C121C"/>
</g>
<defs>
<clipPath id="clip0_437_11961">
<rect width="24" height="24" fill="white"/>
</clipPath>
</defs>
</svg>
