<svg width="16" height="16" viewBox="0 0 16 16" fill="none" xmlns="http://www.w3.org/2000/svg">
<g clip-path="url(#clip0_691_21012)">
<path d="M8 13.5C10 13.5 11 12.5 11 11L11 10" stroke="#0C121C"/>
<path d="M11 8L13 11L9 11L11 8Z" fill="#0C121C"/>
<rect y="9" width="1" height="7" fill="#0C121C"/>
<rect x="2" y="9" width="1" height="3" fill="#0C121C"/>
<path d="M4 9H5L7 11V12H4V9Z" fill="#0C121C"/>
<rect x="7" y="11" width="1" height="7" transform="rotate(90 7 11)" fill="#0C121C"/>
<rect x="6" y="11" width="1" height="5" fill="#0C121C"/>
<rect y="15" width="7" height="1" fill="#0C121C"/>
<path d="M8 1C8 0.447715 8.44772 0 9 0H10C10.5523 0 11 0.447715 11 1V1H13C13.5523 1 14 1.44772 14 2V2H15C15.5523 2 16 2.44772 16 3V3L15 6H14L15 3H10L9 6H14H15L14.7764 6.44721C14.607 6.786 14.2607 7 13.882 7H9C8.44772 7 8 6.55228 8 6V6V1V1Z" fill="#0C121C"/>
</g>
<defs>
<clipPath id="clip0_691_21012">
<rect width="16" height="16" fill="white"/>
</clipPath>
</defs>
</svg>
