<svg width="16" height="16" viewBox="0 0 16 16" fill="none" xmlns="http://www.w3.org/2000/svg">
<g clip-path="url(#clip0_674_20097)">
<path d="M12.0016 7L10 4L14 4L12.0016 7Z" fill="#0C121C"/>
<path d="M0 1C0 0.447715 0.447715 0 1 0H2C2.55228 0 3 0.447715 3 1V1H5C5.55228 1 6 1.44772 6 2V2H7C7.55228 2 8 2.44772 8 3V3L7 6H6L7 3H2L1 6H6H7L6.77639 6.44721C6.607 6.786 6.26074 7 5.88197 7H1C0.447715 7 0 6.55228 0 6V6V1V1Z" fill="#0C121C"/>
<path d="M8 10C8 9.44772 8.44772 9 9 9H10C10.5523 9 11 9.44772 11 10V10H13C13.5523 10 14 10.4477 14 11V11H15C15.5523 11 16 11.4477 16 12V12L15 15H14L15 12H10L9 15H14H15L14.7764 15.4472C14.607 15.786 14.2607 16 13.882 16H9C8.44772 16 8 15.5523 8 15V15V10V10Z" fill="#0C121C"/>
</g>
<defs>
<clipPath id="clip0_674_20097">
<rect width="16" height="16" fill="white"/>
</clipPath>
</defs>
</svg>
