<svg width="16" height="16" viewBox="0 0 16 16" fill="none" xmlns="http://www.w3.org/2000/svg">
<g clip-path="url(#clip0_696_21270)">
<path d="M9 3.00163L12 1L12 5L9 3.00163Z" fill="#0C121C"/>
<path d="M13 12.0016L16 10L16 14L13 12.0016Z" fill="#0C121C"/>
<path d="M0 1C0 0.447715 0.447715 0 1 0H2C2.55228 0 3 0.447715 3 1V1H5C5.55228 1 6 1.44772 6 2V2H7C7.55228 2 8 2.44772 8 3V3V6H7V3H1V6H7H8V6C8 6.55228 7.55228 7 7 7H1C0.447715 7 0 6.55228 0 6V6V1V1Z" fill="#0C121C"/>
<path d="M4 10C4 9.44772 4.44772 9 5 9H6C6.55228 9 7 9.44772 7 10V10H9C9.55228 10 10 10.4477 10 11V11H11C11.5523 11 12 11.4477 12 12V12V15H11V12H5V15H11H12V15C12 15.5523 11.5523 16 11 16H5C4.44772 16 4 15.5523 4 15V15V10V10Z" fill="#0C121C"/>
</g>
<defs>
<clipPath id="clip0_696_21270">
<rect width="16" height="16" fill="white"/>
</clipPath>
</defs>
</svg>
