<svg width="16" height="16" viewBox="0 0 16 16" fill="none" xmlns="http://www.w3.org/2000/svg">
<g clip-path="url(#clip0_731_20330)">
<path d="M6.47487 6.47487C5.10804 7.84171 2.89196 7.84171 1.52513 6.47487C0.158291 5.10804 0.158291 2.89196 1.52513 1.52513C2.89196 0.158291 5.10804 0.158291 6.47487 1.52513C7.84171 2.89196 7.84171 5.10804 6.47487 6.47487Z" stroke="#0C121C"/>
<path d="M6 7L7 6L9.99935 9L9 9.99984L6 7Z" fill="#0C121C"/>
<path d="M7.99935 9.99984L9.99935 7.99984L15.9993 14.0349L14.0344 15.9998L7.99935 9.99984Z" fill="#0C121C"/>
<path d="M2 14L2 13L8 13L8 14L2 14Z" fill="#0C121C"/>
<path d="M0 13.502L3 11V16L0 13.502Z" fill="#0C121C"/>
</g>
<defs>
<clipPath id="clip0_731_20330">
<rect width="16" height="16" fill="white"/>
</clipPath>
</defs>
</svg>
