<svg width="16" height="16" viewBox="0 0 16 16" fill="none" xmlns="http://www.w3.org/2000/svg">
<path d="M0 3C0 1.89543 0.895431 1 2 1H4C5.10457 1 6 1.89543 6 3V3H11C12.1046 3 13 3.89543 13 5V5H13.5604C14.8225 5 15.7691 6.15465 15.5216 7.39223L14.3216 13.3922C14.1346 14.3271 13.3138 15 12.3604 15H5V14H12.2192C12.6781 14 13.0781 13.6877 13.1894 13.2425L14.6894 7.24254C14.8472 6.61139 14.3698 6 13.7192 6H3.82993C3.34871 6 2.93574 6.34274 2.84705 6.81571L1.72205 12.8157C1.60666 13.4311 2.07879 14 2.70493 14H5V15H2C0.89543 15 0 14.1046 0 13V3V3Z" fill="#0C121C"/>
</svg>
