<svg width="16" height="16" viewBox="0 0 16 16" fill="none" xmlns="http://www.w3.org/2000/svg">
<g clip-path="url(#clip0_739_20072)">
<path fill-rule="evenodd" clip-rule="evenodd" d="M8 15H12.3604C13.3138 15 14.1346 14.3271 14.3216 13.3922L15.5216 7.39223C15.7691 6.15465 14.8225 5 13.5604 5H13C13 3.89543 12.1046 3 11 3H6C6 1.89543 5.10457 1 4 1H2C0.895431 1 0 1.89543 0 3V11.3542C0.572728 10.7053 1.3527 10.2436 2.23635 10.0728L2.84705 6.81571C2.93574 6.34274 3.34871 6 3.82993 6H13.7192C14.3698 6 14.8472 6.61139 14.6894 7.24254L13.1894 13.2425C13.0781 13.6877 12.6781 14 12.2192 14H8V15Z" fill="#0C121C"/>
<path d="M0.5 15C0.5 13.2 1.28947 12 3 12C4.41447 12 5 13 5 14" stroke="#0C121C"/>
<path d="M5 16L7 14L3 14L5 16Z" fill="#0C121C"/>
</g>
<defs>
<clipPath id="clip0_739_20072">
<rect width="16" height="16" fill="white"/>
</clipPath>
</defs>
</svg>
