<svg width="16" height="16" viewBox="0 0 16 16" fill="none" xmlns="http://www.w3.org/2000/svg">
<g clip-path="url(#clip0_742_20210)">
<path fill-rule="evenodd" clip-rule="evenodd" d="M16.0005 7H13.9175C13.7645 6.0879 13.4057 5.24558 12.8905 4.52241L14.3639 3.04898L12.9497 1.63477L11.4759 3.1085C10.7527 2.59372 9.91046 2.23532 8.9985 2.08263V0H6.9985V2.08329C6.08768 2.2364 5.24649 2.59474 4.52412 3.10911L3.05093 1.63593L1.63672 3.05014L3.10985 4.52327C2.59496 5.24625 2.23637 6.08826 2.08341 7H4.64539C5.07567 5.55426 6.41494 4.5 8.00045 4.5C9.93345 4.5 11.5005 6.067 11.5005 8C11.5005 9.58551 10.4462 10.9248 9.00045 11.3551V13.917C9.91195 13.7641 10.7538 13.4057 11.4766 12.891L12.9495 14.3639L14.3637 12.9497L12.8909 11.4769C13.4059 10.7539 13.7645 9.91181 13.9175 9H16.0005V7Z" fill="#0C121C"/>
<path d="M1 9L5 13" stroke="#0C121C"/>
<path d="M0 8L4 8L5.61958e-07 12L0 8Z" fill="#0C121C"/>
<path d="M0.5 13V15.5H7.5V11V8.5H5" stroke="#0C121C"/>
</g>
<defs>
<clipPath id="clip0_742_20210">
<rect width="16" height="16" fill="white"/>
</clipPath>
</defs>
</svg>
