<svg width="16" height="16" viewBox="0 0 16 16" fill="none" xmlns="http://www.w3.org/2000/svg">
<g clip-path="url(#clip0_768_23186)">
<path fill-rule="evenodd" clip-rule="evenodd" d="M16 4L13 1H0V10H1V2H12V5H15V14H10V14.5V15H16V4Z" fill="#0C121C"/>
<rect x="2" y="13" width="5" height="1" fill="#0C121C"/>
<path d="M9 16L5 16L5 15L5 13.5L6 13.5L6 15L8 15L8 12L6 12L6 13.5L5 13.5L5 12L5 11L9 11L9 16Z" fill="#0C121C"/>
<path d="M0 11H4V13.5H3V12H1V15H3V13.5H4V15V16H0V11Z" fill="#0C121C"/>
</g>
<defs>
<clipPath id="clip0_768_23186">
<rect width="16" height="16" fill="white"/>
</clipPath>
</defs>
</svg>
