<svg width="16" height="16" viewBox="0 0 16 16" fill="none" xmlns="http://www.w3.org/2000/svg">
<g clip-path="url(#clip0_772_23630)">
<path fill-rule="evenodd" clip-rule="evenodd" d="M5 1H-11V2V3V14V15H-10H4H5V14V3V2V1ZM4 3H-10V14H4V3Z" fill="#0C121C"/>
<path fill-rule="evenodd" clip-rule="evenodd" d="M27 1H11V2V3V14V15H12H26H27V14V3V2V1ZM26 3H12V14H26V3Z" fill="#0C121C"/>
<rect x="7" y="13" width="2" height="2" fill="#0C121C"/>
<rect x="7" y="9" width="2" height="2" fill="#0C121C"/>
<rect x="7" y="5" width="2" height="2" fill="#0C121C"/>
<rect x="7" y="1" width="2" height="2" fill="#0C121C"/>
</g>
<defs>
<clipPath id="clip0_772_23630">
<rect width="16" height="16" fill="white"/>
</clipPath>
</defs>
</svg>
