<svg width="16" height="16" viewBox="0 0 16 16" fill="none" xmlns="http://www.w3.org/2000/svg">
<g clip-path="url(#clip0_772_23777)">
<path fill-rule="evenodd" clip-rule="evenodd" d="M16 10H11.0005C12.2147 9.08777 13 7.6356 13 6C13 3.23858 10.7614 1 8 1C5.23858 1 3 3.23858 3 6C3 7.6356 3.78534 9.08777 4.99951 10H4.33333L6.33333 13H16V10ZM3.996 15H15V14H7H4.5L4.05279 14.8944C4.03484 14.9303 4.01589 14.9655 3.996 15Z" fill="#0C121C"/>
<path d="M0 15.5C2 15.5 3 14.5 3 13L3 12" stroke="#0C121C"/>
<path d="M3 10L5 13L1 13L3 10Z" fill="#0C121C"/>
</g>
<defs>
<clipPath id="clip0_772_23777">
<rect width="16" height="16" fill="white"/>
</clipPath>
</defs>
</svg>
