<svg width="16" height="16" viewBox="0 0 16 16" fill="none" xmlns="http://www.w3.org/2000/svg">
<path fill-rule="evenodd" clip-rule="evenodd" d="M16 1H15H14.6667H1.33333H1H0V2V11H1V8V2H15L15 14L10 10L9 13L7 15H15H16V14V2V1ZM14 6C14 7.10457 13.1046 8 12 8C10.8954 8 10 7.10457 10 6C10 4.89543 10.8954 4 12 4C13.1046 4 14 4.89543 14 6Z" fill="#0C121C"/>
<path d="M3.93934 12.0607C4.52513 12.6464 5.47487 12.6464 6.06066 12.0607C6.64645 11.4749 6.64645 10.5251 6.06066 9.93934C5.47487 9.35355 4.52513 9.35355 3.93934 9.93934C3.35355 10.5251 3.35355 11.4749 3.93934 12.0607Z" stroke="#0C121C"/>
<path d="M4 12.5L3.5 12L2 13.5L2.5 14L4 12.5Z" fill="#0C121C"/>
<path d="M3.5 13.5L2.5 12.5L0.000325203 15.0175L0.982798 15.9999L3.5 13.5Z" fill="#0C121C"/>
</svg>
