<svg width="16" height="16" viewBox="0 0 16 16" fill="none" xmlns="http://www.w3.org/2000/svg">
<g clip-path="url(#clip0_800_21111)">
<path fill-rule="evenodd" clip-rule="evenodd" d="M4.5 11L7 8.5V6.5L4.5 4H2.5L0 6.5V8.5L2.5 11H4.5ZM3.5 9C4.32843 9 5 8.32843 5 7.5C5 6.67157 4.32843 6 3.5 6C2.67157 6 2 6.67157 2 7.5C2 8.32843 2.67157 9 3.5 9Z" fill="#0C121C"/>
<path fill-rule="evenodd" clip-rule="evenodd" d="M4.86505 11C6.12254 13.3789 8.62196 15 11.5 15C15.6421 15 19 11.6421 19 7.5C19 3.35786 15.6421 0 11.5 0C8.62196 0 6.12254 1.6211 4.86505 4L11.0018 4V11H4.86505ZM4.00177 7.66438V7.33562C4.00059 7.39027 4 7.44507 4 7.5C4 7.55493 4.00059 7.60973 4.00177 7.66438Z" fill="#0C121C"/>
</g>
<defs>
<clipPath id="clip0_800_21111">
<rect width="16" height="16" fill="white"/>
</clipPath>
</defs>
</svg>
