<svg width="16" height="16" viewBox="0 0 16 16" fill="none" xmlns="http://www.w3.org/2000/svg">
<g clip-path="url(#clip0_800_21161)">
<path fill-rule="evenodd" clip-rule="evenodd" d="M4.86505 11C6.12254 13.3789 8.62196 15 11.5 15C15.6421 15 19 11.6421 19 7.5C19 3.35786 15.6421 0 11.5 0C8.62196 0 6.12254 1.6211 4.86505 4L11.0018 4L11.0018 11H4.86505ZM4.00177 7.66437L4.00177 7.33563C4.00059 7.39028 4 7.44507 4 7.5C4 7.55493 4.00059 7.60972 4.00177 7.66437Z" fill="#0C121C"/>
<path d="M2 8L2 7L8 7L8 8L2 8Z" fill="#0C121C"/>
<path d="M0 7.50204L3 5V10L0 7.50204Z" fill="#0C121C"/>
</g>
<defs>
<clipPath id="clip0_800_21161">
<rect width="16" height="16" fill="white"/>
</clipPath>
</defs>
</svg>
