<svg width="16" height="16" viewBox="0 0 16 16" fill="none" xmlns="http://www.w3.org/2000/svg">
<g clip-path="url(#clip0_810_21466)">
<path fill-rule="evenodd" clip-rule="evenodd" d="M16 16C16 12.134 12.866 9 9 9H7C6.78534 9 6.57294 9.00966 6.36321 9.02858C7.36279 9.85393 8 11.1025 8 12.5C8 13.9136 7.34817 15.175 6.32867 16H11V14H13V16H16ZM8 0C5.79086 0 4 1.79086 4 4C4 6.20914 5.79086 8 8 8C10.2091 8 12 6.20914 12 4C12 1.79086 10.2091 0 8 0Z" fill="#0C121C"/>
<circle cx="3.5" cy="12.5" r="2" stroke="#0C121C"/>
<rect x="3" y="9" width="1" height="2" fill="#0C121C"/>
<rect x="0.671875" y="10.3789" width="1" height="2" transform="rotate(-45 0.671875 10.3789)" fill="#0C121C"/>
<rect x="7" y="12" width="1" height="2" transform="rotate(90 7 12)" fill="#0C121C"/>
<rect x="5.62109" y="9.67139" width="1" height="2" transform="rotate(45 5.62109 9.67139)" fill="#0C121C"/>
<rect x="3" y="14" width="1" height="2" fill="#0C121C"/>
<rect x="4.20703" y="13.9141" width="1" height="2" transform="rotate(-45 4.20703 13.9141)" fill="#0C121C"/>
<rect x="2" y="12" width="1" height="2" transform="rotate(90 2 12)" fill="#0C121C"/>
<rect x="2.08594" y="13.207" width="1" height="2" transform="rotate(45 2.08594 13.207)" fill="#0C121C"/>
</g>
<defs>
<clipPath id="clip0_810_21466">
<rect width="16" height="16" fill="white"/>
</clipPath>
</defs>
</svg>
