<svg width="16" height="16" viewBox="0 0 16 16" fill="none" xmlns="http://www.w3.org/2000/svg">
<g clip-path="url(#clip0_817_21420)">
<path fill-rule="evenodd" clip-rule="evenodd" d="M1.74853e-07 14L8.74228e-08 12L3.00019 10L9.00056 10L9.00056 15.9998L3.00019 15.9998L1.74853e-07 14ZM4 13C4 13.5523 3.55228 14 3 14C2.44772 14 2 13.5523 2 13C2 12.4477 2.44772 12 3 12C3.55228 12 4 12.4477 4 13Z" fill="#0C121C"/>
<path fill-rule="evenodd" clip-rule="evenodd" d="M16 4L13 1H0V10H1V2H12V5H15V14H10V14.25V15H16V4Z" fill="#0C121C"/>
</g>
<defs>
<clipPath id="clip0_817_21420">
<rect width="16" height="16" fill="white"/>
</clipPath>
</defs>
</svg>
