<svg width="16" height="16" viewBox="0 0 16 16" fill="none" xmlns="http://www.w3.org/2000/svg">
<path fill-rule="evenodd" clip-rule="evenodd" d="M16 1H0V15H16V1ZM6 6.00016L9 7.00016V8.00016H6L5.99868 9.00016H3L3.00264 8.00016H2V7.00016H3L3.00264 6.00016H6ZM3 11.0002H2V10.0002H9V11.0002L6.00132 12.0002H3.00264L3 11.0002ZM3 13.0002H6L6.00132 14.0002H3.00264L3 13.0002ZM1 2.00016H15V4.00016H1V2.00016ZM14 6.00016H12V7.00016H14V6.00016ZM12 9.00016H14V10.0002H12V9.00016ZM14 12.0002H12V13.0002H14V12.0002Z" fill="#0C121C"/>
</svg>
