<svg width="16" height="16" viewBox="0 0 16 16" fill="none" xmlns="http://www.w3.org/2000/svg">
<path fill-rule="evenodd" clip-rule="evenodd" d="M16 2H6V9H5C4.24495 9 3.5481 9.00033 2.91652 9.05296C2.28426 9.10565 1.75287 9.20856 1.32541 9.39558C0.908546 9.57796 0.591824 9.83928 0.371622 10.2246C0.146637 10.6184 0 11.1811 0 12C0 13.6569 1.34315 15 3 15H16V2ZM0 9.08753C0.269033 8.82778 0.58171 8.62943 0.924591 8.47942C1.49713 8.22894 2.15324 8.1131 2.83348 8.05641C3.5105 8 4.24656 8 4.98718 8H5V2V0H2C0.89543 0 0 0.895431 0 2V9.08753ZM10 5H12H13V6V12H12V6H10V12H9V6V5H10Z" fill="#0C121C"/>
</svg>
