<svg width="16" height="16" viewBox="0 0 16 16" fill="none" xmlns="http://www.w3.org/2000/svg">
<g clip-path="url(#clip0_834_23465)">
<path fill-rule="evenodd" clip-rule="evenodd" d="M16 16C16 12.134 12.866 9 9 9H7C6.77283 9 6.5482 9.01082 6.32657 9.03197C7.97901 9.274 9.15231 10.8544 8.83384 12.5529L8.1875 16H11V14H13V16H16ZM8 0C5.79086 0 4 1.79086 4 4C4 6.20914 5.79086 8 8 8C10.2091 8 12 6.20914 12 4C12 1.79086 10.2091 0 8 0Z" fill="#0C121C"/>
<path d="M0 10C0 9.44772 0.447715 9 1 9H2C2.55228 9 3 9.44772 3 10H5C5.55228 10 6 10.4477 6 11H7C7.55228 11 8 11.4477 8 12L7 15H6L7 12H2L1 15H6H7L6.77639 15.4472C6.607 15.786 6.26074 16 5.88197 16H1C0.447715 16 0 15.5523 0 15V10Z" fill="#0C121C"/>
</g>
<defs>
<clipPath id="clip0_834_23465">
<rect width="16" height="16" fill="white"/>
</clipPath>
</defs>
</svg>
