<svg width="16" height="16" viewBox="0 0 16 16" fill="none" xmlns="http://www.w3.org/2000/svg">
<path fill-rule="evenodd" clip-rule="evenodd" d="M16 1H0V4H16V1ZM7 15H15V5H1V7.76389C1.53076 7.28885 2.23165 7 3 7C4.65685 7 6 8.34315 6 10C6 10.8636 5.63511 11.6419 5.05111 12.1893C6.18952 12.6152 7 13.713 7 15Z" fill="#0C121C"/>
<path fill-rule="evenodd" clip-rule="evenodd" d="M3 12C4.10457 12 5 11.1046 5 10C5 8.89543 4.10457 8 3 8C1.89543 8 1 8.89543 1 10C1 11.1046 1.89543 12 3 12ZM0 15C0 14 0.9 13 2.4 13H3.6C5.1 13 5.99977 14 5.99989 15V16H4.99994L5 15H4V16H2V15H1V16H0V15Z" fill="#0C121C"/>
</svg>
