<svg width="16" height="16" viewBox="0 0 16 16" fill="none" xmlns="http://www.w3.org/2000/svg">
<g clip-path="url(#clip0_850_23218)">
<path fill-rule="evenodd" clip-rule="evenodd" d="M9.99844 4L12.9984 2V8H9V10H14H15V11V12H16V15H13V12H14V11H9V12H10V15H7V12H8V11H2V12H3V15H0V12H1V11V10H2H8V8H4V1H5.99844V4L9.99844 2V4ZM9.99844 5H11.9984V7H9.99844V5ZM7.99844 5H5.99844V7H7.99844V5Z" fill="#0C121C"/>
</g>
<defs>
<clipPath id="clip0_850_23218">
<rect width="16" height="16" fill="white"/>
</clipPath>
</defs>
</svg>
