<svg width="16" height="16" viewBox="0 0 16 16" fill="none" xmlns="http://www.w3.org/2000/svg">
<path fill-rule="evenodd" clip-rule="evenodd" d="M16 1H0V15H16V1ZM3.10859 10.167C3.26259 10.167 3.38859 10.1553 3.48659 10.132C3.58925 10.104 3.67092 10.069 3.73159 10.027C3.79225 9.98033 3.83425 9.92667 3.85759 9.866C3.88092 9.80533 3.89259 9.73767 3.89259 9.663C3.89259 9.50433 3.81792 9.37367 3.66859 9.271C3.51925 9.16367 3.26259 9.04933 2.89859 8.928C2.73992 8.872 2.58125 8.809 2.42259 8.739C2.26392 8.66433 2.12159 8.57333 1.99559 8.466C1.86959 8.354 1.76692 8.221 1.68759 8.067C1.60825 7.90833 1.56859 7.717 1.56859 7.493C1.56859 7.269 1.61059 7.06833 1.69459 6.891C1.77859 6.709 1.89759 6.555 2.05159 6.429C2.20559 6.303 2.39225 6.20733 2.61159 6.142C2.83092 6.072 3.07825 6.037 3.35359 6.037C3.68025 6.037 3.96259 6.072 4.20059 6.142C4.43859 6.212 4.63459 6.289 4.78859 6.373L4.47359 7.234C4.33825 7.164 4.18659 7.10333 4.01859 7.052C3.85525 6.996 3.65692 6.968 3.42359 6.968C3.16225 6.968 2.97325 7.00533 2.85659 7.08C2.74459 7.15 2.68859 7.25967 2.68859 7.409C2.68859 7.49767 2.70959 7.57233 2.75159 7.633C2.79359 7.69367 2.85192 7.74967 2.92659 7.801C3.00592 7.84767 3.09459 7.892 3.19259 7.934C3.29525 7.97133 3.40725 8.011 3.52859 8.053C3.78059 8.14633 3.99992 8.23967 4.18659 8.333C4.37325 8.42167 4.52725 8.52667 4.64859 8.648C4.77459 8.76933 4.86792 8.91167 4.92859 9.075C4.98925 9.23833 5.01959 9.43667 5.01959 9.67C5.01959 10.1227 4.86092 10.475 4.54359 10.727C4.22625 10.9743 3.74792 11.098 3.10859 11.098C2.89392 11.098 2.70025 11.084 2.52759 11.056C2.35492 11.0327 2.20092 11.0023 2.06559 10.965C1.93492 10.9277 1.82059 10.888 1.72259 10.846C1.62925 10.804 1.54992 10.7643 1.48459 10.727L1.79259 9.859C1.93725 9.93833 2.11459 10.0107 2.32459 10.076C2.53925 10.1367 2.80059 10.167 3.10859 10.167ZM6.7768 8.571C6.7768 8.809 6.8048 9.02367 6.8608 9.215C6.92147 9.40633 7.00547 9.572 7.1128 9.712C7.2248 9.84733 7.36014 9.95233 7.5188 10.027C7.67747 10.1017 7.85947 10.139 8.06481 10.139C8.26547 10.139 8.44514 10.1017 8.6038 10.027C8.76714 9.95233 8.90247 9.84733 9.0098 9.712C9.12181 9.572 9.2058 9.40633 9.2618 9.215C9.32247 9.02367 9.35281 8.809 9.35281 8.571C9.35281 8.333 9.32247 8.11833 9.2618 7.927C9.2058 7.731 9.12181 7.56533 9.0098 7.43C8.90247 7.29 8.76714 7.18267 8.6038 7.108C8.44514 7.03333 8.26547 6.996 8.06481 6.996C7.85947 6.996 7.67747 7.03567 7.5188 7.115C7.36014 7.18967 7.2248 7.297 7.1128 7.437C7.00547 7.57233 6.92147 7.738 6.8608 7.934C6.8048 8.12533 6.7768 8.33767 6.7768 8.571ZM10.4798 8.571C10.4798 8.91167 10.4378 9.21967 10.3538 9.495C10.2698 9.76567 10.1508 10.0037 9.9968 10.209C9.84747 10.4143 9.6678 10.5847 9.4578 10.72C9.2478 10.8553 9.0168 10.9533 8.7648 11.014C8.78814 11.1073 8.83947 11.182 8.91881 11.238C8.99814 11.2987 9.09847 11.3477 9.2198 11.385C9.34114 11.4223 9.48114 11.4503 9.6398 11.469C9.80314 11.4877 9.97814 11.504 10.1648 11.518L9.9408 12.316C9.57681 12.302 9.26414 12.2647 9.0028 12.204C8.74614 12.148 8.5268 12.0687 8.3448 11.966C8.16747 11.8633 8.02514 11.7373 7.9178 11.588C7.81514 11.4387 7.7358 11.266 7.6798 11.07C7.39047 11.0327 7.12214 10.9533 6.8748 10.832C6.62747 10.706 6.4128 10.538 6.2308 10.328C6.0488 10.118 5.90647 9.866 5.8038 9.572C5.70114 9.278 5.64981 8.94433 5.64981 8.571C5.64981 8.15567 5.71514 7.79167 5.84581 7.479C5.97647 7.16167 6.15147 6.89567 6.3708 6.681C6.5948 6.46633 6.85147 6.30533 7.14081 6.198C7.4348 6.09067 7.7428 6.037 8.06481 6.037C8.39614 6.037 8.70881 6.09067 9.0028 6.198C9.2968 6.30533 9.55347 6.46633 9.77281 6.681C9.99214 6.89567 10.1648 7.16167 10.2908 7.479C10.4168 7.79167 10.4798 8.15567 10.4798 8.571ZM14.6311 11V10.062H12.4821V6.149H11.3901V11H14.6311Z" fill="#0C121C"/>
</svg>
