<svg width="16" height="16" viewBox="0 0 16 16" fill="none" xmlns="http://www.w3.org/2000/svg">
<path fill-rule="evenodd" clip-rule="evenodd" d="M2 13.3287C2.82498 14.3482 4.08637 15 5.5 15C7.98528 15 10 12.9853 10 10.5C10 8.01472 7.98528 6 5.5 6C4.08637 6 2.82498 6.65183 2 7.67133V8H6V13H2V13.3287ZM1.25716 7C2.26595 5.7785 3.79206 5 5.5 5C6.02001 5 6.52317 5.07217 7 5.20703V1H0V7H1.25716ZM10.9998 3L9.25781 6.48405C10.3299 7.48767 10.9998 8.9156 10.9998 10.5C10.9998 11.4002 10.7836 12.2499 10.4001 13H15.9998L10.9998 3Z" fill="#0C121C"/>
<rect y="8" width="1" height="8" fill="#0C121C"/>
<rect y="9" width="5" height="3" fill="#0C121C"/>
</svg>
