<svg width="16" height="16" viewBox="0 0 16 16" fill="none" xmlns="http://www.w3.org/2000/svg">
<path fill-rule="evenodd" clip-rule="evenodd" d="M13 0L16 2L13 4V2.5C12.3663 2.5 11.8894 2.70714 11.5638 3.07925C11.2305 3.4601 11 4.07785 11 5H10C10 3.92215 10.2695 3.0399 10.8112 2.42075C11.3606 1.79286 12.1337 1.5 13 1.5V0ZM0 1V2V8H0.875H1V2H10V1H1H0ZM16 4H15V5V13H7V14H15H16V13V4ZM1.5129 12.6204C1.8119 12.8767 2.28581 13 3 13H4L4 12L6 13.5L4 15L4 14H3C2.21419 14 1.4381 13.8733 0.862104 13.3796C0.269476 12.8717 0 12.0752 0 11H1C1 11.9248 1.23052 12.3783 1.5129 12.6204ZM6.4871 9.37963C6.1881 9.12334 5.71419 9 5 9H4L4 10L2 8.5L4 7L4 8H5C5.78581 8 6.5619 8.12666 7.1379 8.62037C7.73052 9.12834 8 9.92476 8 11H7C7 10.0752 6.76948 9.62166 6.4871 9.37963Z" fill="#0C121C"/>
</svg>
