<svg width="16" height="16" viewBox="0 0 16 16" fill="none" xmlns="http://www.w3.org/2000/svg">
<g clip-path="url(#clip0_676_19659)">
<path fill-rule="evenodd" clip-rule="evenodd" d="M12.6799 2.01168C13.7978 0.601515 15.4188 -0.238879 15.9079 0.0602468C16.1728 0.222236 15.8352 0.542961 15.2925 1.05862C14.833 1.49517 14.2265 2.07142 13.714 2.80934C13.3512 3.31775 13.0593 3.87429 12.795 4.37818C12.3263 5.27192 11.9444 6 11.4082 6C10.5734 6 8.92113 4.17833 8.231 3.41742L8.2221 3.40761C7.60724 2.73814 8.38979 1.65558 9.10247 2.01168C9.98285 2.46749 11.3523 3.86339 11.3523 3.86339C11.3523 3.86339 11.548 3.4076 12.6799 2.01168ZM0 2V1H1H7V2H1V9H0V2ZM15 3H16V13V14H15H8V13H15V3ZM3 14C2.28581 14 1.8119 13.8767 1.5129 13.6204C1.23052 13.3783 1 12.9248 1 12H0C0 13.0752 0.269476 13.8717 0.862104 14.3796C1.4381 14.8733 2.21419 15 3 15H4L4 16L6 14.5L4 13L4 14H3ZM5 10C5.71419 10 6.1881 10.1233 6.4871 10.3796C6.76948 10.6217 7 11.0752 7 12H8C8 10.9248 7.73052 10.1283 7.1379 9.62037C6.5619 9.12666 5.78581 9 5 9H4L4 8L2 9.5L4 11L4 10H5Z" fill="#0C121C"/>
</g>
<defs>
<clipPath id="clip0_676_19659">
<rect width="16" height="16" fill="white"/>
</clipPath>
</defs>
</svg>
