<svg width="16" height="16" viewBox="0 0 16 16" fill="none" xmlns="http://www.w3.org/2000/svg">
<g clip-path="url(#clip0_884_24517)">
<path fill-rule="evenodd" clip-rule="evenodd" d="M12 1H16V15H12V1ZM10 15H6.00002L6.35485 14.2903C6.45099 14.098 6.5775 13.9225 6.72951 13.7705L7 13.5V14H9V13H7.5L7.90935 12.5907C8.8842 11.6158 9.47486 9.9749 8.5 9.00004C8.27046 8.7705 7.83016 8.75173 7.42099 8.79858C6.88058 8.86046 6.40483 9.14397 6 9.50848V1H10V15ZM4 1V11.5001L3.66155 11.8386C3.28928 12.2109 2.69212 12.2307 2.29592 11.8841L0.658516 10.4513C0.460143 10.2777 0.227379 10.2006 0 10.2019V1H4ZM1 2H3V7H1V2ZM7 2H9V7H7V2ZM15 2H13V7H15V2ZM13 13H15V14H13V13ZM4.67986 12.0117C5.79779 10.6015 7.41881 9.76112 7.9079 10.0602C8.17277 10.2222 7.8352 10.543 7.29246 11.0586C6.83299 11.4952 6.22648 12.0714 5.71396 12.8093C5.35121 13.3177 5.05931 13.8743 4.79502 14.3782C4.32626 15.2719 3.94438 16 3.40822 16C2.57337 16 0.921144 14.1783 0.231003 13.4174L0.222104 13.4076C-0.39276 12.7381 0.38979 11.6556 1.10247 12.0117C1.98285 12.4675 3.35232 13.8634 3.35232 13.8634C3.35232 13.8634 3.54795 13.4076 4.67986 12.0117Z" fill="#0C121C"/>
</g>
<defs>
<clipPath id="clip0_884_24517">
<rect width="16" height="16" fill="white"/>
</clipPath>
</defs>
</svg>
