<svg width="16" height="16" viewBox="0 0 16 16" fill="none" xmlns="http://www.w3.org/2000/svg">
<g clip-path="url(#clip0_889_24918)">
<path fill-rule="evenodd" clip-rule="evenodd" d="M16 1H0V15H16V1ZM3.30032 11.098C2.51165 11.098 1.90965 10.8787 1.49432 10.44C1.08365 10.0013 0.87832 9.37833 0.87832 8.571C0.87832 8.16967 0.94132 7.81267 1.06732 7.5C1.19332 7.18267 1.36599 6.91667 1.58532 6.702C1.80465 6.48267 2.06599 6.317 2.36932 6.205C2.67265 6.093 3.00165 6.037 3.35632 6.037C3.56165 6.037 3.74832 6.05333 3.91632 6.086C4.08432 6.114 4.23132 6.149 4.35732 6.191C4.48332 6.22833 4.58832 6.268 4.67232 6.31C4.75632 6.352 4.81699 6.38467 4.85432 6.408L4.53932 7.29C4.38999 7.21067 4.21499 7.143 4.01432 7.087C3.81832 7.031 3.59432 7.003 3.34232 7.003C3.17432 7.003 3.00865 7.031 2.84532 7.087C2.68665 7.143 2.54432 7.234 2.41832 7.36C2.29699 7.48133 2.19899 7.64 2.12432 7.836C2.04965 8.032 2.01232 8.27 2.01232 8.55C2.01232 8.774 2.03565 8.984 2.08232 9.18C2.13365 9.37133 2.21299 9.537 2.32032 9.677C2.43232 9.817 2.57699 9.929 2.75432 10.013C2.93165 10.0923 3.14632 10.132 3.39832 10.132C3.55699 10.132 3.69932 10.1227 3.82532 10.104C3.95132 10.0853 4.06332 10.0643 4.16132 10.041C4.25932 10.013 4.34565 9.98267 4.42032 9.95C4.49499 9.91733 4.56265 9.887 4.62332 9.859L4.92432 10.734C4.77032 10.8273 4.55332 10.9113 4.27332 10.986C3.99332 11.0607 3.66899 11.098 3.30032 11.098ZM9.07363 11C9.02229 10.832 8.96396 10.6593 8.89863 10.482L8.71663 9.95H6.82662C6.76596 10.1273 6.70296 10.3047 6.63762 10.482C6.57696 10.6593 6.52096 10.832 6.46962 11H5.33562C5.51762 10.4773 5.69029 9.99433 5.85362 9.551C6.01696 9.10767 6.17563 8.69 6.32963 8.298C6.48829 7.906 6.64229 7.535 6.79163 7.185C6.94562 6.83033 7.10429 6.485 7.26762 6.149H8.31063C8.46929 6.485 8.62562 6.83033 8.77962 7.185C8.93363 7.535 9.08763 7.906 9.24163 8.298C9.40029 8.69 9.56129 9.10767 9.72463 9.551C9.88796 9.99433 10.0606 10.4773 10.2426 11H9.07363ZM7.76463 7.248C7.74129 7.318 7.70629 7.41367 7.65963 7.535C7.61296 7.65633 7.55929 7.79633 7.49862 7.955C7.43796 8.11367 7.37029 8.28867 7.29563 8.48C7.22563 8.67133 7.15329 8.872 7.07862 9.082H8.45763C8.38296 8.872 8.31063 8.67133 8.24063 8.48C8.17063 8.28867 8.10296 8.11367 8.03763 7.955C7.97696 7.79633 7.92329 7.65633 7.87663 7.535C7.82996 7.41367 7.79262 7.318 7.76463 7.248ZM12.1375 10.125C12.0722 10.1203 12.0139 10.1157 11.9625 10.111V7.045C12.0325 7.03567 12.1072 7.031 12.1865 7.031C12.2659 7.02633 12.3429 7.024 12.4175 7.024C12.9635 7.024 13.3625 7.15467 13.6145 7.416C13.8665 7.67733 13.9925 8.06233 13.9925 8.571C13.9925 9.05633 13.8595 9.43667 13.5935 9.712C13.3322 9.98733 12.9285 10.125 12.3825 10.125H12.1375ZM14.9235 9.67C15.0542 9.35733 15.1195 8.991 15.1195 8.571C15.1195 8.13233 15.0542 7.75667 14.9235 7.444C14.7929 7.13133 14.6062 6.87467 14.3635 6.674C14.1209 6.47333 13.8292 6.32633 13.4885 6.233C13.1525 6.13967 12.7769 6.093 12.3615 6.093C12.1655 6.093 11.9299 6.10233 11.6545 6.121C11.3839 6.135 11.1225 6.16533 10.8705 6.212V10.937C11.1225 10.9883 11.3792 11.021 11.6405 11.035C11.9019 11.0537 12.1305 11.063 12.3265 11.063C12.7559 11.063 13.1432 11.0117 13.4885 10.909C13.8339 10.8063 14.1255 10.6523 14.3635 10.447C14.6062 10.2417 14.7929 9.98267 14.9235 9.67Z" fill="#0C121C"/>
</g>
<defs>
<clipPath id="clip0_889_24918">
<rect width="16" height="14" fill="white" transform="translate(0 1)"/>
</clipPath>
</defs>
</svg>
