<svg width="16" height="16" viewBox="0 0 16 16" fill="none" xmlns="http://www.w3.org/2000/svg">
<g clip-path="url(#clip0_889_24984)">
<path fill-rule="evenodd" clip-rule="evenodd" d="M16 1H0V2V3V12H1V3H15V14H9V15H15H16V14V3V2V1Z" fill="#0C121C"/>
<path d="M6 13L6 14L-4.37114e-08 14L0 13L6 13Z" fill="#0C121C"/>
<path d="M8 13.498L5 16L5 11L8 13.498Z" fill="#0C121C"/>
<path fill-rule="evenodd" clip-rule="evenodd" d="M3 5H5V6H3V5ZM7 5H9V6H7V5ZM13 5H11V6H13V5ZM3 8H5V9H3V8ZM9 8H7V9H9V8ZM11 8H13V9H11V8ZM13 11H11V12H13V11Z" fill="#0C121C"/>
</g>
<defs>
<clipPath id="clip0_889_24984">
<rect width="16" height="16" fill="white"/>
</clipPath>
</defs>
</svg>
