<svg width="16" height="16" viewBox="0 0 16 16" fill="none" xmlns="http://www.w3.org/2000/svg">
<g clip-path="url(#clip0_889_25089)">
<path fill-rule="evenodd" clip-rule="evenodd" d="M16 1H0V2V3V11H1V3H15V14H9V15H15H16V14V3V2V1Z" fill="#0C121C"/>
<path d="M2 13L2 14L8 14L8 13L2 13Z" fill="#0C121C"/>
<path d="M-2.18735e-07 13.498L3 16L3 11L-2.18735e-07 13.498Z" fill="#0C121C"/>
<path fill-rule="evenodd" clip-rule="evenodd" d="M3 5H5V6H3V5ZM7 5H9V6H7V5ZM13 5H11V6H13V5ZM3 8H5V9H3V8ZM9 8H7V9H9V8ZM11 8H13V9H11V8ZM13 11H11V12H13V11Z" fill="#0C121C"/>
</g>
<defs>
<clipPath id="clip0_889_25089">
<rect width="16" height="16" fill="white"/>
</clipPath>
</defs>
</svg>
