<svg width="24" height="24" viewBox="0 0 24 24" fill="none" xmlns="http://www.w3.org/2000/svg">
<g clip-path="url(#clip0_441_9330)">
<mask id="mask0_441_9330" style="mask-type:alpha" maskUnits="userSpaceOnUse" x="0" y="0" width="24" height="24">
<path fill-rule="evenodd" clip-rule="evenodd" d="M24 0H0V17.8149C1.15221 16.198 3.30556 14 6.49807 14C11.5482 14 13.9981 19.5 13.9981 19.5C13.9981 19.5 12.7551 22.4141 10.0908 24H24V0ZM2.23136 24C1.30614 23.5726 0.514938 23.0466 0 22.5V24H2.23136Z" fill="#219653"/>
</mask>
<g mask="url(#mask0_441_9330)">
<path d="M11 22V20H22V9H17V4H2V17H0V2H19L24 7V22H11Z" fill="#0C121C"/>
</g>
<path fill-rule="evenodd" clip-rule="evenodd" d="M0 19.5C0 19.5 2.63813 15 6.49998 15C10.3618 15 13 19.5 13 19.5C13 19.5 10.4413 24 6.49998 24C2.57456 24 0 19.5 0 19.5ZM6.5 17C5.11929 17 4 18.1193 4 19.5C4 20.8807 5.11929 22 6.5 22C7.88071 22 9 20.8807 9 19.5C9 18.1193 7.88071 17 6.5 17Z" fill="#0C121C"/>
<circle cx="6.5" cy="19.5" r="1.5" fill="#0C121C"/>
</g>
<defs>
<clipPath id="clip0_441_9330">
<rect width="24" height="24" fill="white"/>
</clipPath>
</defs>
</svg>
