<svg width="24" height="24" viewBox="0 0 24 24" fill="none" xmlns="http://www.w3.org/2000/svg">
<g clip-path="url(#clip0_441_9435)">
<path fill-rule="evenodd" clip-rule="evenodd" d="M0 2C0 0.895431 0.895431 0 2 0H22C23.1046 0 24 0.895431 24 2V7.63485C24 11.9942 22.1035 16.1379 18.8043 18.9872L13.3911 23.6622C13.1388 23.8801 12.8166 24 12.4832 24C12.1703 24 11.8665 23.8943 11.6211 23.7L5.68945 19.0042C2.0957 16.1591 0 11.8271 0 7.24347V2ZM17 13C16.9998 11.5 15.5 10 13 10H11C8.5 10 7 11.5 7 13V16H9V13H10V16H14V13H15V16H16.9998L17 13ZM12 9C13.6569 9 15 7.65685 15 6C15 4.34315 13.6569 3 12 3C10.3431 3 9 4.34315 9 6C9 7.65685 10.3431 9 12 9Z" fill="#0C121C"/>
</g>
<defs>
<clipPath id="clip0_441_9435">
<rect width="24" height="24" fill="white"/>
</clipPath>
</defs>
</svg>
