<svg width="24" height="24" viewBox="0 0 24 24" fill="none" xmlns="http://www.w3.org/2000/svg">
<g clip-path="url(#clip0_437_11961)">
<path d="M18 14L18 16C18 18 17 20 14 20L13 20" stroke="#0C121C" stroke-width="2"/>
<path d="M17.9966 11L21 15.002L14.9998 15.002L17.9966 11Z" fill="#0C121C"/>
<rect y="13" width="2" height="11" fill="#0C121C"/>
<rect x="3" y="13" width="1" height="3" fill="#0C121C"/>
<rect x="5" y="13" width="1" height="3" fill="#0C121C"/>
<rect x="1" y="22" width="9" height="2" fill="#0C121C"/>
<rect x="9" y="16" width="2" height="8" fill="#0C121C"/>
<path d="M1 15H7V13H8L11 16V17H1V15Z" fill="#0C121C"/>
<path d="M14 0C15 0 15 0 16 0C17 0 17 1 17 1C17 1 20 1 21 1C22 1 22 2 22 2C22 2 22 2 23 2C24 2 24 3 24 3H23.5H23H15L14 8H22L23 3H23.5H24L23 8C23 8 22.5 9 22 9C21.5 9 15 9 14 9C13 9 13 8 13 8V1C13 1 13 0 14 0Z" fill="#0C121C"/>
</g>
<defs>
<clipPath id="clip0_437_11961">
<rect width="24" height="24" fill="white"/>
</clipPath>
</defs>
</svg>
