<svg width="24" height="24" viewBox="0 0 24 24" fill="none" xmlns="http://www.w3.org/2000/svg">
<path d="M1 2C2 2 2 2 3 2C4 2 4 3 4 3C4 3 7 3 8 3C9 3 9 4 9 4C9 4 9 4 10 4C11 4 11 5 11 5H10.5H10H2L1 10H9L10 5H10.5H11L10 10C10 10 9.5 11 9 11C8.5 11 2 11 1 11C0 11 0 10 0 10V3C0 3 0 2 1 2Z" fill="#0C121C"/>
<path d="M14 13C15 13 15 13 16 13C17 13 17 14 17 14C17 14 20 14 21 14C22 14 22 15 22 15C22 15 22 15 23 15C24 15 24 16 24 16H23.5H23H15L14 21H22L23 16H23.5H24L23 21C23 21 22.5 22 22 22C21.5 22 15 22 14 22C13 22 13 21 13 21V14C13 14 13 13 14 13Z" fill="#0C121C"/>
<rect x="10" y="7" width="8" height="1" fill="#0C121C"/>
<rect x="17" y="7" width="1" height="8" fill="#0C121C"/>
<g clip-path="url(#clip0_441_9991)">
<path d="M0 23.9999L2 20L4 22L0 23.9999Z" fill="#0C121C"/>
<path d="M7.30273 14.6973L8.00984 15.4044L3.70714 19.7071L3.00004 19L7.30273 14.6973Z" fill="#0C121C"/>
<path d="M8.59375 16.0078L9.30086 16.7149L4.99987 21.0159L4.29276 20.3088L8.59375 16.0078Z" fill="#0C121C"/>
<path d="M10.0039 16.0195L9.2968 16.7266L7.27748 14.7073L7.98454 14.0002L10.0039 16.0195Z" fill="#0C121C"/>
</g>
<defs>
<clipPath id="clip0_441_9991">
<rect width="10" height="10" fill="white" transform="translate(0 14)"/>
</clipPath>
</defs>
</svg>
