<svg width="24" height="24" viewBox="0 0 24 24" fill="none" xmlns="http://www.w3.org/2000/svg">
<g clip-path="url(#clip0_442_9480)">
<path d="M24 6L24 2H20V6L24 6Z" fill="#0C121C"/>
<path d="M24 14L24 10H20V14L24 14Z" fill="#0C121C"/>
<path d="M24 22L24 18H20V22L24 22Z" fill="#0C121C"/>
<path d="M19 22L19 18H15V22L19 22Z" fill="#0C121C"/>
<path d="M19 6L19 2H15V6L19 6Z" fill="#0C121C"/>
<path d="M19 14L19 10H15V14L19 14Z" fill="#0C121C"/>
<path d="M14 6L14 2H10V6L14 6Z" fill="#0C121C"/>
<path d="M14 14L14 10H10V14L14 14Z" fill="#0C121C"/>
<path d="M9 6L9 2H5V6L9 6Z" fill="#0C121C"/>
<path d="M4 6L4 2H0V6L4 6Z" fill="#0C121C"/>
<path fill-rule="evenodd" clip-rule="evenodd" d="M5 23.6632C6.18247 23.1015 7 21.8962 7 20.5C7 18.567 5.433 17 3.5 17C1.567 17 0 18.567 0 20.5C0 21.8962 0.817526 23.1015 2 23.6632V20H5V23.6632Z" fill="#0C121C"/>
<path fill-rule="evenodd" clip-rule="evenodd" d="M3.5 9C2.67157 9 2 9.67157 2 10.5V18H5V10.5C5 9.67157 4.32843 9 3.5 9ZM3.5 11C3.77614 11 4 10.7761 4 10.5C4 10.2239 3.77614 10 3.5 10C3.22386 10 3 10.2239 3 10.5C3 10.7761 3.22386 11 3.5 11Z" fill="#0C121C"/>
</g>
<defs>
<clipPath id="clip0_442_9480">
<rect width="24" height="24" fill="white"/>
</clipPath>
</defs>
</svg>
