<svg width="24" height="24" viewBox="0 0 24 24" fill="none" xmlns="http://www.w3.org/2000/svg">
<g clip-path="url(#clip0_442_9528)">
<circle cx="12" cy="12" r="6.5" stroke="#0C121C" stroke-width="3"/>
<path d="M10.002 0L14.002 -2.71946e-08L14.002 5L10.002 5L10.002 0Z" fill="#0C121C"/>
<path d="M2.09961 4.92871L4.92804 2.10028L8.46357 5.63582L5.63514 8.46424L2.09961 4.92871Z" fill="#0C121C"/>
<path d="M0 14L-2.0204e-07 10L5 10L5 14L0 14Z" fill="#0C121C"/>
<path d="M4.92969 21.8994L2.10126 19.071L5.63679 15.5355L8.46522 18.3639L4.92969 21.8994Z" fill="#0C121C"/>
<path d="M14.002 24L10.002 24L10.002 19L14.002 19L14.002 24Z" fill="#0C121C"/>
<path d="M21.9023 19.0684L19.0739 21.8968L15.5384 18.3613L18.3668 15.5328L21.9023 19.0684Z" fill="#0C121C"/>
<path d="M24 10L24 14L19 14L19 10L24 10Z" fill="#0C121C"/>
<path d="M19.0703 2.10059L21.8987 4.92901L18.3632 8.46455L15.5348 5.63612L19.0703 2.10059Z" fill="#0C121C"/>
</g>
<defs>
<clipPath id="clip0_442_9528">
<rect width="24" height="24" fill="white"/>
</clipPath>
</defs>
</svg>
