<svg width="24" height="24" viewBox="0 0 24 24" fill="none" xmlns="http://www.w3.org/2000/svg">
<path fill-rule="evenodd" clip-rule="evenodd" d="M24 2H18V22H24V2ZM11.45 22H15V2H9V15H10.1776C11.4004 15 12.3369 16.0875 12.1555 17.2967L11.9 19H14V20H11.75L11.45 22ZM6 15V2H0V14H4C4.55228 14 5 14.4477 5 15H6ZM1 4H5V8H1V4ZM5 10H1V11H5V10ZM10 4H14V8H10V4ZM14 10H10V11H14V10ZM23 4H19V8H23V4ZM19 10H23V11H19V10ZM23 19H19V20H23V19Z" fill="#0C121C"/>
<path d="M1 15C2 15 2 15 3 15C4 15 4 16 4 16C4 16 7 16 8 16C9 16 9 17 9 17C9 17 9 17 10 17C11 17 11 18 11 18H10.5H10H2L1 23H9L10 18H10.5H11L10 23C10 23 9.5 24 9 24C8.5 24 2 24 1 24C0 24 0 23 0 23V16C0 16 0 15 1 15Z" fill="#0C121C"/>
</svg>
