<svg width="24" height="24" viewBox="0 0 24 24" fill="none" xmlns="http://www.w3.org/2000/svg">
<path d="M15 15.5C15 19.0899 12.0899 22 8.5 22C4.91015 22 2 19.0899 2 15.5C2 11.9101 4.91015 9 8.5 9C12.0899 9 15 11.9101 15 15.5Z" fill="#0C121C"/>
<path d="M23.9993 20L15.9993 4L13.1797 9.63926C14.8984 11.0136 15.9993 13.1282 15.9993 15.5C15.9993 17.1884 15.4414 18.7465 14.4999 20H23.9993Z" fill="#0C121C"/>
<path d="M0 12H1.86505C3.12254 9.6211 5.62196 8 8.5 8C9.0137 8 9.51534 8.05165 10 8.15003V2H0V12Z" fill="#0C121C"/>
</svg>
