<svg width="24" height="24" viewBox="0 0 24 24" fill="none" xmlns="http://www.w3.org/2000/svg">
<path fill-rule="evenodd" clip-rule="evenodd" d="M22 4H2V20H22V4ZM2 2H0V4V20V22H2H22H24V20V4V2H22H2Z" fill="#0C121C"/>
<path fill-rule="evenodd" clip-rule="evenodd" d="M10 11C10 9.56672 10.248 8.85331 10.5309 8.49969C10.7664 8.20531 11.1597 8 12 8C12.8459 8 13.2966 8.21079 13.5429 8.45711C13.7892 8.70343 14 9.15414 14 10C14 10.2078 13.9367 10.3602 13.772 10.5523C13.6105 10.7408 13.4143 10.9013 13.1331 11.1316C13.0499 11.1997 12.9592 11.2739 12.8598 11.3568C12.4668 11.6843 11.9885 12.1119 11.6191 12.707C11.2374 13.322 11 14.0678 11 15H13C13 14.4322 13.1376 14.053 13.3184 13.7617C13.5115 13.4506 13.7832 13.1907 14.1402 12.8932C14.1973 12.8457 14.2599 12.7947 14.3263 12.7407L14.3263 12.7406L14.3263 12.7406C14.6257 12.497 15.0014 12.1912 15.2905 11.8539C15.6883 11.3898 16 10.7922 16 10C16 8.84585 15.7108 7.79657 14.9571 7.04289C14.2034 6.28921 13.1541 6 12 6C10.8403 6 9.73363 6.29469 8.96913 7.2503C8.25202 8.14669 8 9.43327 8 11H10ZM13 18V16H11V18H13Z" fill="#0C121C"/>
</svg>
