<svg width="24" height="24" viewBox="0 0 24 24" fill="none" xmlns="http://www.w3.org/2000/svg">
<path fill-rule="evenodd" clip-rule="evenodd" d="M24 2H0V7H24V2ZM11 22H22V8H2V11.3542C2.73294 10.5238 3.80531 10 5 10C7.20914 10 9 11.7909 9 14C9 15.2188 8.45488 16.3103 7.59515 17.044C9.52203 17.3314 11 18.9931 11 21V22Z" fill="#0C121C"/>
<path fill-rule="evenodd" clip-rule="evenodd" d="M5 17C6.65685 17 8 15.6569 8 14C8 12.3431 6.65685 11 5 11C3.34315 11 2 12.3431 2 14C2 15.6569 3.34315 17 5 17ZM0 21C0 19.5 1.5 18 4 18H6C8.5 18 9.99981 19.5 10 21L9.99981 24H8V21H7V24H3V21H2V24H0V21Z" fill="#0C121C"/>
</svg>
