<svg width="24" height="24" viewBox="0 0 24 24" fill="none" xmlns="http://www.w3.org/2000/svg">
<path fill-rule="evenodd" clip-rule="evenodd" d="M24 1H22H2H0V3V5V7H2H22H24V5V3V1ZM24 8H22H2H0V10V12V14H2H6H22H24V12V10V8ZM24 15H22H6.45455L7.36364 17H22V19H8.27273L9.18182 21H22H24V19V17V15ZM2 3H22V5H2V3ZM2 10H22V12H2V10Z" fill="#0C121C"/>
<path fill-rule="evenodd" clip-rule="evenodd" d="M3 15L0 24H2L2.66667 22H6.11111L7 24H9L5 15H3ZM5.22222 20L4.14286 17.5714L3.33333 20H5.22222Z" fill="#0C121C"/>
</svg>
