<svg width="24" height="24" viewBox="0 0 24 24" fill="none" xmlns="http://www.w3.org/2000/svg">
<g clip-path="url(#clip0_484_13594)">
<path fill-rule="evenodd" clip-rule="evenodd" d="M11 0H13V2.12602C13.3669 2.22046 13.7135 2.36566 14.0318 2.55369L15.5352 1.05029L16.9494 2.46451L15.4461 3.96782C15.6342 4.28619 15.7795 4.6329 15.874 5H18V7H15.874C15.7795 7.3671 15.6342 7.71381 15.4461 8.03218L16.9496 9.53572L15.5354 10.9499L14.0318 9.44631C13.7135 9.63434 13.3669 9.77954 13 9.87398V12H11V9.87398C10.633 9.77953 10.2864 9.6343 9.96813 9.44624L8.46477 10.9496L7.05055 9.53538L8.55387 8.03206C8.36576 7.71372 8.22049 7.36706 8.12602 7H6V5H8.12602C8.22052 4.63282 8.36585 4.28605 8.55406 3.96763L7.05078 2.46436L8.46499 1.05014L9.96843 2.55358C10.2866 2.36561 10.6331 2.22044 11 2.12602V0ZM14 6C14 7.10457 13.1046 8 12 8C10.8954 8 10 7.10457 10 6C10 4.89543 10.8954 4 12 4C13.1046 4 14 4.89543 14 6ZM5 17C6.65685 17 8 15.6569 8 14C8 12.3431 6.65685 11 5 11C3.34315 11 2 12.3431 2 14C2 15.6569 3.34315 17 5 17ZM0 21C0 19.5 1.5 18 4 18H6C8.5 18 9.99981 19.5 10 21L9.99981 24H8V21H7V24H3V21H2V24H0V21ZM19 17C20.6569 17 22 15.6569 22 14C22 12.3431 20.6569 11 19 11C17.3431 11 16 12.3431 16 14C16 15.6569 17.3431 17 19 17ZM14 21C14 19.5 15.5 18 18 18H20C22.5 18 23.9998 19.5 24 21L23.9998 24H22V21H21V24H17V21H16V24H14V21Z" fill="#0C121C"/>
</g>
<defs>
<clipPath id="clip0_484_13594">
<rect width="24" height="24" fill="white"/>
</clipPath>
</defs>
</svg>
