<svg width="24" height="24" viewBox="0 0 24 24" fill="none" xmlns="http://www.w3.org/2000/svg">
<path fill-rule="evenodd" clip-rule="evenodd" d="M24 2H0V22H24V2ZM4.90749 14.636C4.75349 14.6727 4.55549 14.691 4.31349 14.691C3.82949 14.691 3.41883 14.6433 3.08149 14.548C2.75149 14.4453 2.47283 14.3317 2.24549 14.207L1.76149 15.571C1.86416 15.6297 1.98883 15.692 2.13549 15.758C2.28949 15.824 2.46916 15.8863 2.67449 15.945C2.88716 16.0037 3.12916 16.0513 3.40049 16.088C3.67183 16.132 3.97616 16.154 4.31349 16.154C5.31816 16.154 6.06983 15.9597 6.56849 15.571C7.06716 15.175 7.31649 14.6213 7.31649 13.91C7.31649 13.5433 7.26883 13.2317 7.17349 12.975C7.07816 12.7183 6.93149 12.4947 6.73349 12.304C6.54283 12.1133 6.30083 11.9483 6.00749 11.809C5.71416 11.6623 5.36949 11.5157 4.97349 11.369C4.78283 11.303 4.60683 11.2407 4.44549 11.182C4.29149 11.116 4.15216 11.0463 4.02749 10.973C3.91016 10.8923 3.81849 10.8043 3.75249 10.709C3.68649 10.6137 3.65349 10.4963 3.65349 10.357C3.65349 10.1223 3.74149 9.95 3.91749 9.84C4.10083 9.72267 4.39783 9.664 4.80849 9.664C5.17516 9.664 5.48683 9.708 5.74349 9.796C6.00749 9.87667 6.24583 9.972 6.45849 10.082L6.95349 8.729C6.71149 8.597 6.40349 8.476 6.02949 8.366C5.65549 8.256 5.21183 8.201 4.69849 8.201C4.26583 8.201 3.87716 8.256 3.53249 8.366C3.18783 8.46867 2.89449 8.619 2.65249 8.817C2.41049 9.015 2.22349 9.257 2.09149 9.543C1.95949 9.82167 1.89349 10.137 1.89349 10.489C1.89349 10.841 1.95583 11.1417 2.08049 11.391C2.20516 11.633 2.36649 11.842 2.56449 12.018C2.76249 12.1867 2.98616 12.3297 3.23549 12.447C3.48483 12.557 3.73416 12.656 3.98349 12.744C4.55549 12.9347 4.95883 13.1143 5.19349 13.283C5.42816 13.4443 5.54549 13.6497 5.54549 13.899C5.54549 14.0163 5.52716 14.1227 5.49049 14.218C5.45383 14.3133 5.38783 14.3977 5.29249 14.471C5.19716 14.537 5.06883 14.592 4.90749 14.636ZM10.2098 13.195C10.1218 12.8943 10.0778 12.557 10.0778 12.183C10.0778 11.8163 10.1218 11.4827 10.2098 11.182C10.3052 10.874 10.4372 10.6137 10.6058 10.401C10.7818 10.181 10.9945 10.0123 11.2438 9.895C11.4932 9.77033 11.7792 9.708 12.1018 9.708C12.4172 9.708 12.6995 9.76667 12.9488 9.884C13.2055 10.0013 13.4182 10.17 13.5868 10.39C13.7628 10.6027 13.8948 10.863 13.9828 11.171C14.0782 11.4717 14.1258 11.809 14.1258 12.183C14.1258 12.557 14.0782 12.8943 13.9828 13.195C13.8948 13.4957 13.7628 13.756 13.5868 13.976C13.4182 14.1887 13.2055 14.3537 12.9488 14.471C12.6995 14.5883 12.4172 14.647 12.1018 14.647C11.7792 14.647 11.4932 14.5883 11.2438 14.471C10.9945 14.3537 10.7818 14.1887 10.6058 13.976C10.4372 13.756 10.3052 13.4957 10.2098 13.195ZM15.6988 13.635C15.8308 13.2023 15.8968 12.7183 15.8968 12.183C15.8968 11.5303 15.7978 10.9583 15.5998 10.467C15.4018 9.96833 15.1305 9.55033 14.7858 9.213C14.4412 8.87567 14.0378 8.62267 13.5758 8.454C13.1138 8.28533 12.6225 8.201 12.1018 8.201C11.5958 8.201 11.1118 8.28533 10.6498 8.454C10.1952 8.62267 9.79184 8.87567 9.43984 9.213C9.09517 9.55033 8.82017 9.96833 8.61484 10.467C8.4095 10.9583 8.30684 11.5303 8.30684 12.183C8.30684 12.7697 8.3875 13.294 8.54884 13.756C8.71017 14.218 8.93384 14.614 9.21984 14.944C9.50584 15.274 9.84317 15.538 10.2318 15.736C10.6205 15.9267 11.0422 16.0513 11.4968 16.11C11.5848 16.418 11.7095 16.6893 11.8708 16.924C12.0395 17.1587 12.2632 17.3567 12.5418 17.518C12.8278 17.6793 13.1725 17.804 13.5758 17.892C13.9865 17.9873 14.4778 18.046 15.0498 18.068L15.4018 16.814C15.1085 16.792 14.8335 16.7663 14.5768 16.737C14.3275 16.7077 14.1075 16.6637 13.9168 16.605C13.7262 16.5463 13.5685 16.4693 13.4438 16.374C13.3192 16.286 13.2385 16.1687 13.2018 16.022C13.5978 15.9267 13.9608 15.7727 14.2908 15.56C14.6208 15.3473 14.9032 15.0797 15.1378 14.757C15.3798 14.4343 15.5668 14.0603 15.6988 13.635ZM22.4203 16V14.526H19.0433V8.377H17.3273V16H22.4203Z" fill="#0C121C"/>
</svg>
