<svg width="24" height="24" viewBox="0 0 24 24" fill="none" xmlns="http://www.w3.org/2000/svg">
<g clip-path="url(#clip0_487_14157)">
<path fill-rule="evenodd" clip-rule="evenodd" d="M19.998 0L24 3.00339L19.998 6.00024V4H19C18.1486 4 17.4043 4.2148 16.8902 4.64322C16.4082 5.04491 16 5.74048 16 7V8H14V7C14 5.25952 14.5918 3.95509 15.6098 3.10678C16.5957 2.2852 17.8514 2 19 2H19.998V0ZM0 2V4V12H1H2V4H13L14 2H2H0ZM22 6.5V20H11V22H22H24V20V5L22 6.5ZM9.10982 15.6432C8.59571 15.2148 7.85143 15 7 15H6.00195V17.0002L2 14.0034L6.00195 11V13H7C8.14857 13 9.40429 13.2852 10.3902 14.1068C11.4082 14.9551 12 16.2595 12 18V19H10V18C10 16.7405 9.59184 16.0449 9.10982 15.6432ZM2.89018 19.3568C3.40429 19.7852 4.14857 20 5 20H5.99805V17.9998L10 20.9966L5.99805 24V22H5C3.85143 22 2.59571 21.7148 1.60982 20.8932C0.591843 20.0449 0 18.7405 0 17V16H2V17C2 18.2595 2.40816 18.9551 2.89018 19.3568Z" fill="#0C121C"/>
</g>
<defs>
<clipPath id="clip0_487_14157">
<rect width="24" height="24" fill="white"/>
</clipPath>
</defs>
</svg>
