<svg width="24" height="24" viewBox="0 0 24 24" fill="none" xmlns="http://www.w3.org/2000/svg">
<path fill-rule="evenodd" clip-rule="evenodd" d="M15 15.5C15 18.9216 12.3562 21.7257 9 21.9811V21H5.03431C3.21102 19.8487 2 17.8158 2 15.5C2 11.9101 4.91015 9 8.5 9C12.0899 9 15 11.9101 15 15.5ZM1.86505 12H0V2H10V8.15003C9.51534 8.05165 9.0137 8 8.5 8C5.62196 8 3.12254 9.6211 1.86505 12ZM23.9993 20H14.4999C15.4414 18.7465 15.9993 17.1884 15.9993 15.5C15.9993 13.1282 14.8984 11.0136 13.1797 9.63926L15.9993 4L23.9993 20ZM2 22H0V24H2V22ZM3 22H5V24H3V22ZM8 22H6V24H8V22Z" fill="#0C121C"/>
</svg>
