<svg width="24" height="24" viewBox="0 0 24 24" fill="none" xmlns="http://www.w3.org/2000/svg">
<path fill-rule="evenodd" clip-rule="evenodd" d="M10 21.8261C12.8667 21.1489 15 18.5736 15 15.5C15 11.9101 12.0899 9 8.5 9C4.91015 9 2 11.9101 2 15.5C2 15.6682 2.00639 15.835 2.01894 16H10V21.8261ZM0 12H1.86505C3.12254 9.6211 5.62196 8 8.5 8C9.0137 8 9.51534 8.05165 10 8.15003V2H0V12ZM14.4999 20H23.9993L15.9993 4L13.1797 9.63926C14.8984 11.0136 15.9993 13.1282 15.9993 15.5C15.9993 17.1884 15.4414 18.7465 14.4999 20ZM3 19H7V20H3V19ZM2 19H0V20H2V19ZM3 21H7V22H3V21ZM2 21H0V22H2V21ZM3 23H7V24H3V23ZM8 18V24H9V18V17H0V18H8ZM2 23H0V24H2V23Z" fill="#0C121C"/>
</svg>
