<svg width="24" height="24" viewBox="0 0 24 24" fill="none" xmlns="http://www.w3.org/2000/svg">
<g clip-path="url(#clip0_487_16286)">
<path fill-rule="evenodd" clip-rule="evenodd" d="M12 24C14.3614 24 16.5635 23.3179 18.42 22.14L24 24V16V12C24 5.37258 18.6274 0 12 0C5.37258 0 0 5.37258 0 12C0 18.6274 5.37258 24 12 24ZM17 15C17 17.5 16.5 18 12 22C15 22 20 18.5 20 13C20 8 17 5 12 5V2L4 8L12 14V11C14.5604 11.2358 17 12.5 17 15Z" fill="#0C121C"/>
</g>
<defs>
<clipPath id="clip0_487_16286">
<rect width="24" height="24" fill="white"/>
</clipPath>
</defs>
</svg>
