<svg width="24" height="24" viewBox="0 0 24 24" fill="none" xmlns="http://www.w3.org/2000/svg">
<path fill-rule="evenodd" clip-rule="evenodd" d="M18 2H24V22H18V2ZM9 22V21.2128C9.33632 20.631 9.68624 20.0609 10 19.6185V20H14V19H10.5C11.4567 18.0433 13.6345 15.5596 13.8215 15.3462C13.831 15.3352 13.839 15.3257 13.8479 15.3142C14.4951 14.4836 14.1416 13.3073 13.8343 13.0001C13.3343 12.5003 12.5 12.0004 10.6418 13.1643C10.1277 13.4386 9.60146 13.8191 9 14.3542V2H15V22H9ZM6 2V17.7895C5.69732 18.2097 5.5 18.5 5.5 18.5C5.5 18.5 2.5 16 1 16C0.634584 16 0.298841 16.0594 0 16.1492V2H6ZM5 4H1V8H5V4ZM1 10H5V11H1V10ZM14 4H10V8H14V4ZM10 10H14V11H10V10ZM19 4H23V8H19V4ZM23 10H19V11H23V10ZM19 19H23V20H19V19ZM7.60477 17.3528C9.42141 15.0025 12.0556 13.6019 12.8503 14.1004C13.2807 14.3704 12.7322 14.9049 11.8503 15.7644C11.1036 16.4919 10.118 17.4524 9.28518 18.6822C8.69572 19.5296 8.22137 20.4572 7.79191 21.297C7.03017 22.7865 6.40962 24 5.53835 24C4.18173 24 1.49685 20.9639 0.375376 19.6957L0.360919 19.6794C-0.638235 18.5636 0.633409 16.7593 1.79152 17.3528C3.22213 18.1125 5.44752 20.439 5.44752 20.439C5.44752 20.439 5.76542 19.6793 7.60477 17.3528Z" fill="#0C121C"/>
</svg>
