<svg width="24" height="24" viewBox="0 0 24 24" fill="none" xmlns="http://www.w3.org/2000/svg">
<path fill-rule="evenodd" clip-rule="evenodd" d="M14.2968 4.72643L15.0039 4.01932L12.9845 2L12.2775 2.70712L12.2851 2.71471L8.00004 6.99976L8.70714 7.70686L12.9922 3.42182L13.5859 4.01549L9.29276 8.3086L9.99987 9.0157L14.293 4.7226L14.2968 4.72643ZM5 11.9997L7 7.99979L9 9.99979L5 11.9997ZM24 13.9998V16.9998V17.9998V20.9998H0V17.9998V16.9998V13.9998H3V15.9998H5V13.9998H7V15.9998H9V13.9998H11V15.9998H13V13.9998H15V15.9998H17V13.9998H19V15.9998H21V13.9998H24Z" fill="#0C121C"/>
</svg>
