<svg width="24" height="24" viewBox="0 0 24 24" fill="none" xmlns="http://www.w3.org/2000/svg">
<g clip-path="url(#clip0_490_17439)">
<path fill-rule="evenodd" clip-rule="evenodd" d="M7.0008 3H0.000803947L0.000803232 11L11.0008 11L11.0008 7H7.0008V3ZM8.0008 3V6L11.0008 6L8.0008 3ZM13.0008 3H20.0008V7H24.0008V11L13.0008 11L13.0008 3ZM21.0008 3L21.0008 6L24.0008 6L21.0008 3ZM13.0008 13L20.0008 13V17H24.0008V21L13.0008 21L13.0008 13ZM21.0008 13L21.0008 16L24.0008 16L21.0008 13ZM7 16.0001H-1V18.0001L7 18.0001V21.0001L11.002 16.9967L7 12.9999V16.0001Z" fill="#0C121C"/>
</g>
<defs>
<clipPath id="clip0_490_17439">
<rect width="24" height="24" fill="white"/>
</clipPath>
</defs>
</svg>
