<svg width="24" height="24" viewBox="0 0 24 24" fill="none" xmlns="http://www.w3.org/2000/svg">
<path d="M18.0034 10.002L14 6L22.0002 6L18.0034 10.002Z" fill="#0C121C"/>
<path d="M1.36373 5.42397C1.40126 5.18006 1.61113 5 1.85792 5H9.83439C10.1408 5 10.3752 5.27315 10.3286 5.57603L9.63627 10.076C9.59874 10.3199 9.38887 10.5 9.14208 10.5H1.16561C0.859168 10.5 0.624829 10.2269 0.671425 9.92397L1.36373 5.42397Z" stroke="#0C121C"/>
<path d="M3 10.5H1.5C0.947715 10.5 0.5 10.0523 0.5 9.5V3.5H4.75H8C8.55228 3.5 9 3.94772 9 4.5V5.5" stroke="#0C121C"/>
<path d="M0.5 3V3C0.5 2.72386 0.723858 2.5 1 2.5H2.5C2.77614 2.5 3 2.72386 3 3V3" stroke="#0C121C"/>
<rect x="1" y="3" width="2" height="1" fill="#0C121C"/>
<rect x="1" y="4" width="8" height="1" fill="#0C121C"/>
<path d="M14.3637 16.424C14.4013 16.1801 14.6111 16 14.8579 16H22.8344C23.1408 16 23.3752 16.2731 23.3286 16.576L22.6363 21.076C22.5987 21.3199 22.3889 21.5 22.1421 21.5H14.1656C13.8592 21.5 13.6248 21.2269 13.6714 20.924L14.3637 16.424Z" stroke="#0C121C"/>
<path d="M16 21.5H14.5C13.9477 21.5 13.5 21.0523 13.5 20.5V14.5H17.75H21C21.5523 14.5 22 14.9477 22 15.5V16.5" stroke="#0C121C"/>
<path d="M13.5 14V14C13.5 13.7239 13.7239 13.5 14 13.5H15.5C15.7761 13.5 16 13.7239 16 14V14" stroke="#0C121C"/>
<rect x="14" y="14" width="2" height="1" fill="#0C121C"/>
<rect x="14" y="15" width="8" height="1" fill="#0C121C"/>
</svg>
