<svg width="24" height="24" viewBox="0 0 24 24" fill="none" xmlns="http://www.w3.org/2000/svg">
<g clip-path="url(#clip0_1809_35057)">
<path d="M11 20H10C6.5 20 3 16.7293 3 11.6667C3 8.76094 4.153 6.44552 5.79722 5L7 4" stroke="#FCFCFC" stroke-opacity="0.75" stroke-width="4"/>
<path d="M2 1H10V9H7V8H6L7 6.5V4H4L3 5V4H2V1Z" fill="#FCFCFC" fill-opacity="0.75"/>
<path d="M10 20C6.5 20 3 16.7293 3 11.6667C3 8.76094 4.153 6.44552 5.79722 5" stroke="#00A1DB" stroke-width="2"/>
<rect x="8" y="8" width="6" height="1" transform="rotate(-90 8 8)" fill="#00A1DB"/>
<rect x="3" y="3" width="1" height="5" transform="rotate(-90 3 3)" fill="#00A1DB"/>
<rect x="5" y="6" width="2" height="2" transform="rotate(-90 5 6)" fill="#00A1DB"/>
<rect x="4" y="4" width="1" height="4" transform="rotate(-90 4 4)" fill="#00A1DB"/>
<rect x="7" y="7" width="4" height="1" transform="rotate(-90 7 7)" fill="#00A1DB"/>
</g>
<g clip-path="url(#clip1_1809_35057)">
<path d="M13 3H14C17.5 3 21 6.27072 21 11.3333C21 14.2391 19.847 16.5545 18.2028 18L17 19" stroke="#FCFCFC" stroke-opacity="0.75" stroke-width="4"/>
<path d="M22 22H14V14H17V15H18L17 16.5V19H20L21 18V19H22V22Z" fill="#FCFCFC" fill-opacity="0.75"/>
<path d="M14 3C17.5 3 21 6.27072 21 11.3333C21 14.2391 19.847 16.5545 18.2028 18" stroke="#00A1DB" stroke-width="2"/>
<rect x="16" y="15" width="6" height="1" transform="rotate(90 16 15)" fill="#00A1DB"/>
<rect x="21" y="20" width="1" height="5" transform="rotate(90 21 20)" fill="#00A1DB"/>
<rect x="19" y="17" width="2" height="2" transform="rotate(90 19 17)" fill="#00A1DB"/>
<rect x="20" y="19" width="1" height="4" transform="rotate(90 20 19)" fill="#00A1DB"/>
<rect x="17" y="16" width="4" height="1" transform="rotate(90 17 16)" fill="#00A1DB"/>
</g>
<defs>
<clipPath id="clip0_1809_35057">
<rect width="10" height="21" fill="white" transform="translate(1 1)"/>
</clipPath>
<clipPath id="clip1_1809_35057">
<rect width="10" height="21" fill="white" transform="matrix(-1 0 0 -1 23 22)"/>
</clipPath>
</defs>
</svg>
