<svg width="24" height="24" viewBox="0 0 24 24" fill="none" xmlns="http://www.w3.org/2000/svg">
<g clip-path="url(#clip0_1817_17627)">
<path d="M13 6H20V9H19V10H18V11H15V10H14V9H13V6Z" fill="#FCFCFC" fill-opacity="0.75"/>
<rect x="14" y="7" width="5" height="1" fill="#00A1DB"/>
<rect x="15" y="8" width="3" height="1" fill="#00A1DB"/>
<rect x="16" y="9" width="1" height="1" fill="#00A1DB"/>
</g>
<g clip-path="url(#clip1_1817_17627)">
<path d="M1 3V2H6V3H9V4H10V5H11V9H10V10H9V11H2V10H1V3Z" fill="#FCFCFC" fill-opacity="0.75"/>
<path d="M4 6H9V8H8V9H3V7H4V6Z" fill="url(#paint0_radial_1817_17627)"/>
<rect x="2" y="4" width="1" height="5" fill="#F2994A"/>
<rect x="2" y="3" width="3" height="1" fill="#F2994A"/>
<rect x="3" y="6" width="1" height="1" fill="#F2994A"/>
<rect x="9" y="6" width="1" height="2" fill="#F2994A"/>
<rect x="8" y="8" width="1" height="1" fill="#F2994A"/>
<rect x="3" y="9" width="5" height="1" fill="#F2994A"/>
<rect x="3" y="4" width="5" height="1" fill="#F2994A"/>
<rect x="3" y="5" width="6" height="1" fill="#F2994A"/>
</g>
<g clip-path="url(#clip2_1817_17627)">
<path d="M14 14V13H19V14H22V15H23V16H24V20H23V21H22V22H15V21H14V14Z" fill="#FCFCFC" fill-opacity="0.75"/>
<path d="M17 17H22V19H21V20H16V18H17V17Z" fill="url(#paint1_radial_1817_17627)"/>
<rect x="15" y="15" width="1" height="5" fill="#F2994A"/>
<rect x="15" y="14" width="3" height="1" fill="#F2994A"/>
<rect x="16" y="17" width="1" height="1" fill="#F2994A"/>
<rect x="22" y="17" width="1" height="2" fill="#F2994A"/>
<rect x="21" y="19" width="1" height="1" fill="#F2994A"/>
<rect x="16" y="20" width="5" height="1" fill="#F2994A"/>
<rect x="16" y="15" width="5" height="1" fill="#F2994A"/>
<rect x="16" y="16" width="6" height="1" fill="#F2994A"/>
</g>
<defs>
<radialGradient id="paint0_radial_1817_17627" cx="0" cy="0" r="1" gradientUnits="userSpaceOnUse" gradientTransform="translate(5.73913 9) rotate(-84.1325) scale(3.82775 5.78648)">
<stop stop-color="#F2994A"/>
<stop offset="0.588115" stop-color="#F2C94C"/>
<stop offset="1" stop-color="#FCFCFC"/>
</radialGradient>
<radialGradient id="paint1_radial_1817_17627" cx="0" cy="0" r="1" gradientUnits="userSpaceOnUse" gradientTransform="translate(18.7391 20) rotate(-84.1325) scale(3.82775 5.78648)">
<stop stop-color="#F2994A"/>
<stop offset="0.588115" stop-color="#F2C94C"/>
<stop offset="1" stop-color="#FCFCFC"/>
</radialGradient>
<clipPath id="clip0_1817_17627">
<rect width="7" height="5" fill="white" transform="translate(13 6)"/>
</clipPath>
<clipPath id="clip1_1817_17627">
<rect width="10" height="9" fill="white" transform="translate(1 2)"/>
</clipPath>
<clipPath id="clip2_1817_17627">
<rect width="10" height="9" fill="white" transform="translate(14 13)"/>
</clipPath>
</defs>
</svg>
