<svg width="24" height="24" viewBox="0 0 24 24" fill="none" xmlns="http://www.w3.org/2000/svg">
<g clip-path="url(#clip0_1817_18035)">
<path d="M23 12C23 13.4183 18.4183 20 12 20C5.58172 20 1 13.4183 1 12C1 10.5817 5.58172 4 12 4C18.4183 4 23 10.5817 23 12Z" fill="#FCFCFC" fill-opacity="0.75"/>
<path d="M21.5 12C21.5 12.0445 21.4726 12.1897 21.3543 12.4506C21.2433 12.6953 21.0729 12.9974 20.8434 13.3378C20.385 14.0178 19.709 14.8232 18.8534 15.5939C17.1366 17.1403 14.7507 18.5 12 18.5C9.24927 18.5 6.86344 17.1403 5.14658 15.5939C4.29102 14.8232 3.61502 14.0178 3.15656 13.3378C2.92711 12.9974 2.75673 12.6953 2.64572 12.4506C2.52742 12.1897 2.5 12.0445 2.5 12C2.5 11.9555 2.52742 11.8103 2.64572 11.5494C2.75673 11.3047 2.92711 11.0026 3.15656 10.6622C3.61502 9.9822 4.29102 9.17677 5.14658 8.40614C6.86344 6.85972 9.24927 5.5 12 5.5C14.7507 5.5 17.1366 6.85972 18.8534 8.40614C19.709 9.17677 20.385 9.9822 20.8434 10.6622C21.0729 11.0026 21.2433 11.3047 21.3543 11.5494C21.4726 11.8103 21.5 11.9555 21.5 12Z" fill="#D8D8D8" stroke="#919191"/>
<circle cx="12" cy="12" r="4" fill="#3A3A3A"/>
<circle cx="11" cy="11" r="1" fill="#D8D8D8"/>
</g>
<defs>
<clipPath id="clip0_1817_18035">
<rect width="22" height="16" fill="white" transform="translate(1 4)"/>
</clipPath>
</defs>
</svg>
