<svg width="24" height="24" viewBox="0 0 24 24" fill="none" xmlns="http://www.w3.org/2000/svg">
<g clip-path="url(#clip0_1823_17493)">
<path d="M7 2H2C0.895431 2 0 2.89543 0 4V19C0 20.6569 1.34315 22 3 22H18.6135C20.0104 22 21.2225 21.0358 21.5366 19.6746L24 9C24 7.34315 22.6569 6 21 6C21 4.89543 20.1046 4 19 4H9C9 2.89543 8.10457 2 7 2Z" fill="#FCFCFC" fill-opacity="0.75"/>
<path d="M6 3H3C1.89543 3 1 3.89543 1 5V18C1 19.6569 2.34315 21 4 21H17.7086C19.0615 21 20.2469 20.0945 20.6029 18.7894L23 10C23 8.34315 21.6569 7 20 7C20 5.89543 19.1046 5 18 5H8C8 3.89543 7.10457 3 6 3Z" fill="#F2994A"/>
<path d="M3.3971 11.2106C3.75306 9.90546 4.93853 9 6.29139 9H18.0722C20.0504 9 21.487 10.8809 20.9665 12.7894L19.6029 17.7894C19.2469 19.0945 18.0615 20 16.7086 20H4.92775C2.94963 20 1.51298 18.1191 2.03346 16.2106L3.3971 11.2106Z" fill="url(#paint0_radial_1823_17493)"/>
</g>
<path d="M0 18V24H6V23H7V22H8V21H9V20H10V19H11V15H10V14H9V13H5V14H4V15H3V16H2V17H1V18H0Z" fill="#FCFCFC" fill-opacity="0.75"/>
<rect x="2" y="18" width="1" height="1" fill="#3A3A3A"/>
<rect x="3" y="19" width="1" height="1" fill="#919191"/>
<rect x="4" y="20" width="1" height="1" fill="#919191"/>
<rect x="6" y="20" width="1" height="1" fill="#3A3A3A"/>
<rect x="5" y="21" width="1" height="1" fill="#3A3A3A"/>
<rect x="1" y="22" width="4" height="1" fill="#00A1DB"/>
<rect x="1" y="20" width="1" height="1" fill="#00A1DB"/>
<rect x="1" y="21" width="2" height="1" fill="#00A1DB"/>
<rect x="1" y="19" width="1" height="1" fill="#00A1DB"/>
<rect x="3" y="17" width="1" height="1" fill="#3A3A3A"/>
<rect x="7" y="19" width="1" height="1" fill="#3A3A3A"/>
<rect x="4" y="16" width="1" height="1" fill="#3A3A3A"/>
<rect x="8" y="18" width="1" height="1" fill="#3A3A3A"/>
<rect x="5" y="15" width="1" height="1" fill="#3A3A3A"/>
<rect x="9" y="17" width="1" height="1" fill="#3A3A3A"/>
<rect x="6" y="14" width="1" height="1" fill="#3A3A3A"/>
<rect x="7" y="14" width="1" height="1" fill="#3A3A3A"/>
<rect x="9" y="16" width="1" height="1" fill="#3A3A3A"/>
<rect x="8" y="16" width="1" height="1" fill="#C3C7C6"/>
<rect x="7" y="17" width="1" height="1" fill="#00A1DB"/>
<rect x="5" y="16" width="2" height="1" fill="#00A1DB"/>
<rect x="6" y="18" width="2" height="1" fill="#00A1DB"/>
<rect x="5" y="19" width="2" height="1" fill="#00A1DB"/>
<rect x="4" y="17" width="2" height="1" fill="#00A1DB"/>
<rect x="5" y="20" width="1" height="1" fill="#00A1DB"/>
<rect x="3" y="18" width="2" height="1" fill="#00A1DB"/>
<rect x="6" y="17" width="1" height="1" fill="#919191"/>
<rect x="5" y="18" width="1" height="1" fill="#919191"/>
<rect x="4" y="19" width="1" height="1" fill="#919191"/>
<rect x="8" y="15" width="1" height="1" fill="#3A3A3A"/>
<rect x="7" y="15" width="1" height="1" fill="#C3C7C6"/>
<defs>
<radialGradient id="paint0_radial_1823_17493" cx="0" cy="0" r="1" gradientUnits="userSpaceOnUse" gradientTransform="translate(10.587 20) rotate(-84.3975) scale(14.0286 20.2621)">
<stop stop-color="#FCFCFC"/>
<stop offset="1" stop-color="#F2C94C"/>
</radialGradient>
<clipPath id="clip0_1823_17493">
<rect width="24" height="20" fill="white" transform="translate(0 2)"/>
</clipPath>
</defs>
</svg>
