<svg width="24" height="24" viewBox="0 0 24 24" fill="none" xmlns="http://www.w3.org/2000/svg">
<g clip-path="url(#clip0_1827_17503)">
<path d="M22.7467 3.16066C21.4017 2.36299 16.9439 4.60404 13.8696 8.36447C10.7569 12.0869 10.2189 13.3024 10.2189 13.3024C10.2189 13.3024 6.45283 9.57997 4.0318 8.36447C2.07192 7.41487 -0.0800893 10.3017 1.61079 12.087C3.49381 14.1001 8.06685 19 10.3726 19C12.6783 19 13.9465 14.252 16.7134 10.4916C19.7877 6.19936 24.0917 3.95833 22.7467 3.16066Z" fill="#FCFCFC" fill-opacity="0.75"/>
<path d="M10.1038 12.497C10.0514 12.4472 9.99517 12.394 9.93531 12.3377C9.541 11.9665 8.98963 11.4586 8.36143 10.912C7.11794 9.83006 5.52904 8.5567 4.25614 7.91763L4.25617 7.91758L4.24982 7.91451C2.97824 7.2984 1.70374 7.95793 1.04109 8.91565C0.368588 9.88761 0.202569 11.3261 1.24662 12.4296C1.247 12.43 1.24738 12.4304 1.24777 12.4308L1.27399 12.4588C2.2178 13.4679 3.83141 15.1931 5.50162 16.6727C6.34463 17.4195 7.21448 18.1149 8.02992 18.6265C8.82634 19.1261 9.64686 19.5 10.3726 19.5C11.1387 19.5 11.7718 19.1008 12.3067 18.5466C12.8387 17.9955 13.3252 17.2386 13.8037 16.4049C14.081 15.9218 14.3578 15.41 14.6432 14.8823C15.3645 13.5486 16.1405 12.1138 17.1161 10.7879L17.1161 10.7879L17.1199 10.7827C18.4979 8.85878 20.1296 7.35506 21.3954 6.18858C21.5091 6.08387 21.6197 5.98187 21.727 5.88254C22.3593 5.29703 22.9167 4.76609 23.2184 4.31848C23.3668 4.09825 23.51 3.81862 23.4995 3.51142C23.487 3.15102 23.274 2.89206 23.0018 2.7306C22.4906 2.42743 21.7934 2.45828 21.1083 2.62214C20.3952 2.79268 19.5722 3.13696 18.7129 3.61671C16.9932 4.57684 15.0619 6.11672 13.4843 8.04582C11.9214 9.91496 10.9986 11.1621 10.4636 11.948C10.3162 12.1645 10.198 12.3464 10.1038 12.497Z" stroke="#FCFCFC" stroke-opacity="0.75"/>
<path d="M14.2532 8.68522L14.2532 8.68524L14.2567 8.68094C15.7531 6.85063 17.5871 5.39057 19.2004 4.48985C20.008 4.03899 20.7437 3.73754 21.3409 3.59471C21.9583 3.44704 22.3215 3.49387 22.4857 3.58724C22.4718 3.6218 22.4442 3.67798 22.3892 3.7596C22.166 4.09066 21.7074 4.5378 21.0476 5.14879C20.9402 5.24819 20.8287 5.35097 20.7134 5.45716C19.4525 6.61855 17.7493 8.18736 16.3088 10.1978C15.2899 11.583 14.4607 13.116 13.7295 14.4679C13.4527 14.9795 13.19 15.4652 12.9364 15.907C12.4638 16.7304 12.028 17.3955 11.5872 17.8521C11.1495 18.3057 10.7593 18.5 10.3726 18.5C9.94546 18.5 9.32969 18.2614 8.56134 17.7794C7.81199 17.3093 6.98856 16.654 6.16472 15.9242C4.52989 14.4759 2.94232 12.7786 1.99637 11.7673L1.97595 11.7454L1.97595 11.7454L1.97381 11.7431C1.32825 11.0616 1.39292 10.1647 1.86344 9.48464C2.34334 8.79104 3.12322 8.48184 3.81079 8.81299C4.9585 9.39006 6.46143 10.5844 7.70502 11.6664C8.32096 12.2024 8.86241 12.7011 9.24988 13.0658C9.44352 13.2481 9.59846 13.3967 9.70474 13.4995C9.75787 13.5509 9.79882 13.5908 9.82635 13.6177L9.85741 13.6482L9.86509 13.6557L9.86692 13.6575L9.86732 13.6579L9.86738 13.658L9.8674 13.658L10.3828 14.1674L10.6749 13.5075L10.6749 13.5074L10.6766 13.5038C10.6792 13.4983 10.6845 13.4876 10.6929 13.4712C10.7097 13.4384 10.739 13.3835 10.7849 13.3037C10.8768 13.1442 11.0344 12.8866 11.2903 12.5107C11.8023 11.7585 12.7044 10.5374 14.2532 8.68522Z" fill="url(#paint0_linear_1827_17503)" stroke="#219653"/>
</g>
<defs>
<linearGradient id="paint0_linear_1827_17503" x1="9.25" y1="14.6364" x2="1.88259" y2="5.58251" gradientUnits="userSpaceOnUse">
<stop stop-color="#6FCF97"/>
<stop offset="1" stop-color="#27AE60"/>
</linearGradient>
<clipPath id="clip0_1827_17503">
<rect width="24" height="24" fill="white"/>
</clipPath>
</defs>
</svg>
