<svg width="24" height="24" viewBox="0 0 24 24" fill="none" xmlns="http://www.w3.org/2000/svg">
<path d="M17 0H3V24H21V4H20V3H19V2H18V1H17V0Z" fill="#FCFCFC" fill-opacity="0.75"/>
<path d="M4 1H15V3H17V4H18V6H20V23H4V1Z" fill="url(#paint0_linear_1830_17673)"/>
<path fill-rule="evenodd" clip-rule="evenodd" d="M16 1H4V2V23H5H20V5H19V4H18V3H17V2H16V1ZM18 5H16V3H17V4H18V5ZM5 2H15V6H19V22H5V2Z" fill="#3A3A3A"/>
<g clip-path="url(#clip0_1830_17673)">
<path d="M5.99998 15C3.02933 15 1 19 1 19C1 19 2.98043 23 5.99998 23C9.03176 23 11 19 11 19C11 19 8.97063 15 5.99998 15Z" fill="#D8D8D8"/>
<path d="M1 19L0.554102 18.7738L0.44072 18.9972L0.551912 19.2218L1 19ZM1 19C0.551912 19.2218 0.551986 19.222 0.552067 19.2221L0.552267 19.2225L0.552805 19.2236L0.554429 19.2269L0.559866 19.2377L0.579419 19.2757C0.596282 19.3081 0.620786 19.3543 0.652706 19.4125C0.716509 19.5287 0.810153 19.6927 0.931846 19.8887C1.17458 20.2797 1.5322 20.803 1.99091 21.3287C2.89055 22.3598 4.26741 23.5 5.99998 23.5C7.73839 23.5 9.11523 22.3602 10.0139 21.3284C10.472 20.8025 10.8285 20.279 11.0703 19.888C11.1916 19.6919 11.2848 19.5278 11.3483 19.4115C11.3801 19.3534 11.4045 19.3071 11.4212 19.2746L11.4407 19.2366L11.4461 19.2258L11.4477 19.2225L11.4483 19.2214L11.4485 19.221C11.4486 19.2209 11.4486 19.2207 11 19M1 19C0.554102 18.7738 0.554175 18.7736 0.554256 18.7735L0.554457 18.7731L0.555 18.772L0.556647 18.7688L0.562179 18.7581L0.582112 18.7202C0.599307 18.6879 0.624297 18.6417 0.656818 18.5837C0.721824 18.4677 0.817135 18.3039 0.940666 18.1081C1.18707 17.7177 1.54905 17.195 2.01039 16.67C2.91377 15.6418 4.2908 14.5 5.99998 14.5C7.70916 14.5 9.0862 15.6418 9.98959 16.67C10.4509 17.195 10.8129 17.7177 11.0593 18.1081C11.1829 18.3039 11.2782 18.4677 11.3432 18.5837C11.3757 18.6417 11.4007 18.6879 11.4179 18.7202L11.4378 18.7581L11.4434 18.7688L11.445 18.772L11.4455 18.7731L11.4457 18.7735C11.4458 18.7736 11.4459 18.7738 11 19M11 19L11.4486 19.2207L11.5589 18.9966L11.4459 18.7738L11 19Z" stroke="#FCFCFC" stroke-opacity="0.75"/>
<path d="M10.2137 18.6418C10.3034 18.7841 10.3764 18.9071 10.4315 19.0031C10.378 19.0987 10.3071 19.2209 10.2198 19.362C9.99786 19.721 9.67285 20.1975 9.25988 20.6716C8.41651 21.6398 7.29335 22.5 5.99998 22.5C4.713 22.5 3.58987 21.6402 2.7444 20.6713C2.33056 20.197 2.00436 19.7203 1.7814 19.3612C1.69381 19.2202 1.62267 19.0981 1.5689 19.0025C1.62393 18.9065 1.69676 18.7838 1.78633 18.6418C2.01326 18.2823 2.34427 17.805 2.7616 17.33C3.61555 16.3582 4.73851 15.5 5.99998 15.5C7.26146 15.5 8.38443 16.3582 9.23838 17.33C9.65571 17.805 9.98674 18.2823 10.2137 18.6418Z" fill="#D8D8D8" stroke="#3A3A3A"/>
<circle cx="6" cy="19" r="2" fill="#3A3A3A"/>
<circle cx="5.5" cy="18.5" r="0.5" fill="#D8D8D8"/>
</g>
<defs>
<linearGradient id="paint0_linear_1830_17673" x1="12" y1="1" x2="12" y2="23" gradientUnits="userSpaceOnUse">
<stop stop-color="#FCFCFC"/>
<stop offset="1" stop-color="#E6EAEA"/>
</linearGradient>
<clipPath id="clip0_1830_17673">
<rect width="12" height="10" fill="white" transform="translate(0 14)"/>
</clipPath>
</defs>
</svg>
