<svg width="24" height="24" viewBox="0 0 24 24" fill="none" xmlns="http://www.w3.org/2000/svg">
<path d="M17 0H3V24H21V4H20V3H19V2H18V1H17V0Z" fill="#FCFCFC" fill-opacity="0.75"/>
<path d="M4 1H15V3H17V4H18V6H20V23H4V1Z" fill="url(#paint0_linear_1835_17373)"/>
<path fill-rule="evenodd" clip-rule="evenodd" d="M16 1H4V2V23H5H20V5H19V4H18V3H17V2H16V1ZM18 5H16V3H17V4H18V5ZM5 2H15V6H19V22H5V2Z" fill="#3A3A3A"/>
<rect x="10" y="8" width="5" height="1" fill="#D8D8D8"/>
<rect x="10" y="9" width="5" height="1" fill="#FCFCFC"/>
<rect x="15" y="8" width="4" height="1" fill="#D8D8D8"/>
<rect x="15" y="9" width="4" height="1" fill="#FCFCFC"/>
<rect x="9" y="2" width="1" height="7" fill="#D8D8D8"/>
<rect x="14" y="2" width="1" height="7" fill="#D8D8D8"/>
<rect x="9" y="9" width="1" height="8" fill="#D8D8D8"/>
<rect x="14" y="9" width="1" height="8" fill="#D8D8D8"/>
<rect x="5" y="8" width="4" height="1" fill="#D8D8D8"/>
<rect x="5" y="9" width="4" height="1" fill="#FCFCFC"/>
<rect x="10" y="16" width="5" height="1" fill="#FCFCFC"/>
<rect x="10" y="15" width="5" height="1" fill="#D8D8D8"/>
<rect x="5" y="15" width="4" height="1" fill="#D8D8D8"/>
<rect x="5" y="16" width="4" height="1" fill="#FCFCFC"/>
<rect x="14" y="16" width="1" height="6" fill="#D8D8D8"/>
<rect x="15" y="15" width="4" height="1" fill="#D8D8D8"/>
<rect x="15" y="16" width="4" height="1" fill="#FCFCFC"/>
<g clip-path="url(#clip0_1835_17373)">
<path d="M0 13H10V17H9V18H8V19H9V20H10V24H0V21V20H1V19H2V18H1V17H0V13Z" fill="#FCFCFC" fill-opacity="0.75"/>
<path d="M7.5 14H9L2.5 23H1L7.5 14Z" fill="#219653"/>
<path d="M2.5 14H1L7.5 23H9L2.5 14Z" fill="#219653"/>
</g>
<defs>
<linearGradient id="paint0_linear_1835_17373" x1="12" y1="1" x2="12" y2="23" gradientUnits="userSpaceOnUse">
<stop stop-color="#FCFCFC"/>
<stop offset="1" stop-color="#E6EAEA"/>
</linearGradient>
<clipPath id="clip0_1835_17373">
<rect width="10" height="11" fill="white" transform="translate(0 13)"/>
</clipPath>
</defs>
</svg>
