<svg width="24" height="24" viewBox="0 0 24 24" fill="none" xmlns="http://www.w3.org/2000/svg">
<g clip-path="url(#clip0_1843_17364)">
<g clip-path="url(#clip1_1843_17364)">
<circle cx="10.5" cy="10.5" r="10.5" fill="#FCFCFC" fill-opacity="0.75"/>
<rect x="16.4141" y="15" width="9" height="2" transform="rotate(45 16.4141 15)" fill="#3A3A3A"/>
<rect x="16.4141" y="14.2929" width="10" height="3" transform="rotate(45 16.4141 14.2929)" stroke="#FCFCFC" stroke-opacity="0.75"/>
<circle cx="10.5" cy="10.5" r="9" fill="url(#paint0_linear_1843_17364)" stroke="#00A1DB"/>
</g>
<g clip-path="url(#clip2_1843_17364)">
<path d="M6 11V9H8V5H13V9H15V11H16V16H11V12H10V16H5V11H6Z" fill="#FCFCFC" fill-opacity="0.75"/>
<rect x="7" y="10" width="1" height="3" fill="#3A3A3A"/>
<rect x="13" y="10" width="1" height="3" fill="#3A3A3A"/>
<rect x="7" y="10" width="7" height="1" fill="#3A3A3A"/>
<rect x="10" y="7" width="1" height="4" fill="#3A3A3A"/>
<rect x="12.5" y="12.5" width="2" height="2" fill="#D8D8D8" stroke="#3A3A3A"/>
<rect x="9.5" y="6.5" width="2" height="2" fill="#D8D8D8" stroke="#3A3A3A"/>
<rect x="6.5" y="12.5" width="2" height="2" fill="#D8D8D8" stroke="#3A3A3A"/>
</g>
</g>
<defs>
<linearGradient id="paint0_linear_1843_17364" x1="16.3056" y1="3.63889" x2="5.22222" y2="17.8889" gradientUnits="userSpaceOnUse">
<stop stop-color="#94E1FC"/>
<stop offset="1" stop-color="#FCFCFC"/>
</linearGradient>
<clipPath id="clip0_1843_17364">
<rect width="24" height="24" fill="white"/>
</clipPath>
<clipPath id="clip1_1843_17364">
<rect width="24" height="24" fill="white"/>
</clipPath>
<clipPath id="clip2_1843_17364">
<rect width="11" height="11" fill="white" transform="translate(5 5)"/>
</clipPath>
</defs>
</svg>
