<svg width="24" height="24" viewBox="0 0 24 24" fill="none" xmlns="http://www.w3.org/2000/svg">
<g clip-path="url(#clip0_1849_16172)">
<g clip-path="url(#clip1_1849_16172)">
<path d="M13 1H20V13H23V14H24V17H23V18H22V19H21V20H20V21H19V22H18V23H15V22H14V21H13V20H12V19H11V18H10V17H9V14H10V13H13V1Z" fill="#FCFCFC" fill-opacity="0.75"/>
<path d="M17 21L23 15L23 15L18 15L18 2L15 2L15 15L10 15L16 21L17 21Z" fill="url(#paint0_linear_1849_16172)"/>
<rect x="21" y="17" width="1" height="1" transform="rotate(90 21 17)" fill="#00A1DB"/>
<rect x="22" y="16" width="1" height="1" transform="rotate(90 22 16)" fill="#00A1DB"/>
<rect x="13" y="17" width="1" height="1" transform="rotate(90 13 17)" fill="#00A1DB"/>
<rect x="14" y="18" width="1" height="1" transform="rotate(90 14 18)" fill="#00A1DB"/>
<rect x="15" y="19" width="1" height="1" transform="rotate(90 15 19)" fill="#00A1DB"/>
<rect x="16" y="20" width="1" height="1" transform="rotate(90 16 20)" fill="#00A1DB"/>
<rect x="20" y="18" width="1" height="1" transform="rotate(90 20 18)" fill="#00A1DB"/>
<rect x="19" y="19" width="1" height="1" transform="rotate(90 19 19)" fill="#00A1DB"/>
<rect x="17" y="21" width="1" height="1" transform="rotate(90 17 21)" fill="#00A1DB"/>
<rect x="12" y="16" width="1" height="1" transform="rotate(90 12 16)" fill="#00A1DB"/>
<rect x="18" y="20" width="1" height="1" transform="rotate(90 18 20)" fill="#00A1DB"/>
<rect x="11" y="15" width="1" height="1" transform="rotate(90 11 15)" fill="#00A1DB"/>
<rect x="23" y="15" width="1" height="1" transform="rotate(90 23 15)" fill="#00A1DB"/>
<path d="M19 2L19 14L22 14L22 15L18 15L18 3L15 3L15 15L11 15L11 14L14 14L14 3L14 2L19 2Z" fill="#00A1DB"/>
</g>
<g clip-path="url(#clip2_1849_16172)">
<path d="M1 11L4 2H5L8 11H6.75L5.85 8L5.55 7L4.5 3.5L3.45 7H5.55L5.85 8H3.15L2.25 11H1Z" fill="#00A1DB"/>
<path d="M0.525658 10.8419L0.306287 11.5H1H2.25H2.62202L2.72891 11.1437L3.52202 8.5H5.47798L6.27109 11.1437L6.37798 11.5H6.75H8H8.69371L8.47434 10.8419L5.47434 1.84189L5.36038 1.5H5H4H3.63962L3.52566 1.84189L0.525658 10.8419ZM4.12202 6.5L4.5 5.24005L4.87798 6.5H4.12202Z" stroke="#FCFCFC" stroke-opacity="0.75"/>
</g>
<g clip-path="url(#clip3_1849_16172)">
<path d="M6 14H7V23H6V14Z" fill="#00A1DB"/>
<path d="M4.5 19H5.75L3.25 23H2L4.5 19Z" fill="#00A1DB"/>
<path fill-rule="evenodd" clip-rule="evenodd" d="M6 15H5C3.89543 15 3 15.8954 3 17C3 18.1046 3.89543 19 5 19H6V15ZM5 14C3.34315 14 2 15.3431 2 17C2 18.6569 3.34315 20 5 20H7V14H5Z" fill="#00A1DB"/>
<path d="M5.5 13.5H5C3.067 13.5 1.5 15.067 1.5 17C1.5 18.3002 2.20897 19.4348 3.26142 20.0383L1.576 22.735L1.09788 23.5H2H3.25H3.52712L3.674 23.265L5.40212 20.5H5.5V23V23.5H6H7H7.5V23V20.5V20V14V13.5H7H6H5.5ZM5 15.5H5.5V18.5H5C4.17157 18.5 3.5 17.8284 3.5 17C3.5 16.1716 4.17157 15.5 5 15.5Z" stroke="#FCFCFC" stroke-opacity="0.75"/>
</g>
</g>
<defs>
<linearGradient id="paint0_linear_1849_16172" x1="21.1944" y1="5.69444" x2="8.9998" y2="12.184" gradientUnits="userSpaceOnUse">
<stop stop-color="#94E1FC"/>
<stop offset="1" stop-color="#FCFCFC"/>
</linearGradient>
<clipPath id="clip0_1849_16172">
<rect width="24" height="24" fill="white"/>
</clipPath>
<clipPath id="clip1_1849_16172">
<rect width="24" height="17" fill="white" transform="translate(25) rotate(90)"/>
</clipPath>
<clipPath id="clip2_1849_16172">
<rect width="9" height="11" fill="white" transform="translate(0 1)"/>
</clipPath>
<clipPath id="clip3_1849_16172">
<rect width="7" height="11" fill="white" transform="translate(1 13)"/>
</clipPath>
</defs>
</svg>
