<svg width="24" height="24" viewBox="0 0 24 24" fill="none" xmlns="http://www.w3.org/2000/svg">
<g clip-path="url(#clip0_1851_15902)">
<path d="M13 4L19 4L19 5L20 5L20 8L22 8L22 11L21 11L21 12L20 12L20 13L17 13L17 12L16 12L16 11L15 11L15 8L17 8L17 7L13 7L13 4Z" fill="#FCFCFC" fill-opacity="0.75"/>
<rect x="16" y="9" width="5" height="1" fill="#00A1DB"/>
<rect x="17" y="10" width="3" height="1" fill="#00A1DB"/>
<rect x="18" y="11" width="1" height="1" fill="#00A1DB"/>
<rect x="14" y="5" width="4" height="1" fill="#00A1DB"/>
<rect x="18" y="6" width="1" height="3" fill="#00A1DB"/>
</g>
<path d="M1 1H11V2H12V10H1V1Z" fill="#FCFCFC" fill-opacity="0.75"/>
<path d="M8 5.5H10.5V8.5H2.5V2.5H7.5V5V5.5H8Z" fill="url(#paint0_linear_1851_15902)" stroke="#919191"/>
<path d="M9 2H10V3H11V4H9V2Z" fill="#919191"/>
<g clip-path="url(#clip1_1851_15902)">
<path d="M15 14H22V15H23V16H24V23H15V14Z" fill="#FCFCFC" fill-opacity="0.75"/>
<rect x="17" y="18" width="5" height="3" fill="url(#paint1_linear_1851_15902)"/>
<path d="M16 15H17V22H16V15Z" fill="#3A3A3A"/>
<rect x="18" y="15" width="1" height="2" fill="#3A3A3A"/>
<rect x="16" y="21" width="7" height="1" fill="#3A3A3A"/>
<path d="M22 17H23V22H22V17Z" fill="#3A3A3A"/>
<path d="M16 17H20V15H21V16H22V17H23V18H19.5H16V17Z" fill="#3A3A3A"/>
</g>
<defs>
<linearGradient id="paint0_linear_1851_15902" x1="6.5" y1="2" x2="6.5" y2="9" gradientUnits="userSpaceOnUse">
<stop stop-color="#F4F7F6"/>
<stop offset="1" stop-color="#D8D8D8"/>
</linearGradient>
<linearGradient id="paint1_linear_1851_15902" x1="19.5" y1="18" x2="19.5" y2="21" gradientUnits="userSpaceOnUse">
<stop stop-color="#FCFCFC"/>
<stop offset="1" stop-color="#E6EAEA"/>
</linearGradient>
<clipPath id="clip0_1851_15902">
<rect width="9" height="9" fill="white" transform="translate(13 4)"/>
</clipPath>
<clipPath id="clip1_1851_15902">
<rect width="9" height="9" fill="white" transform="translate(15 14)"/>
</clipPath>
</defs>
</svg>
