<svg width="24" height="24" viewBox="0 0 24 24" fill="none" xmlns="http://www.w3.org/2000/svg">
<g clip-path="url(#clip0_1855_15832)">
<path d="M24 2H20V0H14V2H1V22H24V2Z" fill="#FCFCFC" fill-opacity="0.75"/>
<path d="M12.5 3.5H2.5V20.5H12.5V3.5Z" fill="url(#paint0_linear_1855_15832)" stroke="#919191"/>
<path d="M12.5 3.5H22.5V20.5H12.5V3.5Z" fill="url(#paint1_linear_1855_15832)" stroke="#919191"/>
<rect x="5" y="7" width="5" height="1" fill="#3A3A3A"/>
<rect x="5" y="10" width="5" height="1" fill="#3A3A3A"/>
<rect x="5" y="13" width="5" height="1" fill="#3A3A3A"/>
<rect x="15" y="7" width="5" height="1" fill="#3A3A3A"/>
<rect x="15" y="10" width="5" height="1" fill="#3A3A3A"/>
<rect x="15" y="13" width="5" height="1" fill="#3A3A3A"/>
<rect x="15" y="16" width="5" height="1" fill="#3A3A3A"/>
<rect x="15" y="1" width="4" height="3" fill="#00A1DB"/>
<rect x="12" y="3" width="1" height="18" fill="#3A3A3A"/>
<g clip-path="url(#clip1_1855_15832)">
<path d="M6 15L1 15L1 16L6 16V15Z" fill="#00A1DB"/>
<path d="M4 15L3 15L3 23H4L4 15Z" fill="#00A1DB"/>
<path d="M6.5 15V14.5L6 14.5L4.5 14.5L4 14.5L3 14.5L2.5 14.5L1 14.5L0.5 14.5L0.5 15L0.5 16L0.5 16.5H1L2.5 16.5L2.5 23V23.5H3H4H4.5V23L4.5 16.5L6 16.5H6.5V16V15Z" stroke="#FCFCFC" stroke-opacity="0.75"/>
</g>
<rect x="1" y="17" width="1" height="4" fill="#FCFCFC" fill-opacity="0.75"/>
</g>
<defs>
<linearGradient id="paint0_linear_1855_15832" x1="9.33333" y1="12" x2="13" y2="12" gradientUnits="userSpaceOnUse">
<stop stop-color="#FCFCFC"/>
<stop offset="1" stop-color="#919191"/>
</linearGradient>
<linearGradient id="paint1_linear_1855_15832" x1="15.6667" y1="12" x2="12" y2="12" gradientUnits="userSpaceOnUse">
<stop stop-color="#FCFCFC"/>
<stop offset="1" stop-color="#919191"/>
</linearGradient>
<clipPath id="clip0_1855_15832">
<rect width="24" height="24" fill="white"/>
</clipPath>
<clipPath id="clip1_1855_15832">
<rect width="7" height="10" fill="white" transform="translate(0 14)"/>
</clipPath>
</defs>
</svg>
