<svg width="24" height="24" viewBox="0 0 24 24" fill="none" xmlns="http://www.w3.org/2000/svg">
<g clip-path="url(#clip0_1856_15502)">
<rect y="1" width="12" height="12" fill="#FCFCFC" fill-opacity="0.75"/>
<rect x="1" y="2" width="10" height="10" fill="#3A3A3A"/>
<path d="M8 21L16 5L24 21L8 21Z" fill="#FCFCFC" fill-opacity="0.75"/>
<path d="M10 20L16 7L22 20L10 20Z" fill="#3A3A3A"/>
<circle cx="9" cy="16" r="7" fill="#FCFCFC" fill-opacity="0.75"/>
<circle cx="9" cy="16" r="6" fill="#919191"/>
<g clip-path="url(#clip1_1856_15502)">
<rect width="3" height="11" transform="matrix(1 0 0 -1 0 24)" fill="#FCFCFC" fill-opacity="0.75"/>
<rect width="1" height="6" transform="matrix(1 0 0 -1 1 20)" fill="#00A1DB"/>
<rect width="1" height="2" transform="matrix(1 0 0 -1 1 23)" fill="#00A1DB"/>
</g>
</g>
<defs>
<clipPath id="clip0_1856_15502">
<rect width="24" height="24" fill="white"/>
</clipPath>
<clipPath id="clip1_1856_15502">
<rect width="3" height="11" fill="white" transform="matrix(1 0 0 -1 0 24)"/>
</clipPath>
</defs>
</svg>
