<svg width="24" height="24" viewBox="0 0 24 24" fill="none" xmlns="http://www.w3.org/2000/svg">
<g clip-path="url(#clip0_1857_15364)">
<g clip-path="url(#clip1_1857_15364)">
<path d="M3 21H21V23H3V21Z" fill="#3A3A3A"/>
<path d="M15.876 16C18.3354 14.6353 20 12.012 20 9C20 4.58172 16.4183 1 12 1C7.58172 1 4 4.58172 4 9C4 12.012 5.66458 14.6353 8.12399 16H1V20H23V16H15.876Z" fill="#919191"/>
<path d="M9 15H15V18H9V15Z" fill="#919191"/>
<path d="M2.5 20.5V21V23V23.5H3H21H21.5V23V21V20.5H23H23.5V20V16V15.5H23H17.4774C19.3253 13.9412 20.5 11.608 20.5 9C20.5 4.30558 16.6944 0.5 12 0.5C7.30558 0.5 3.5 4.30558 3.5 9C3.5 11.608 4.67471 13.9412 6.52258 15.5H1H0.5V16V20V20.5H1H2.5Z" stroke="#FCFCFC" stroke-opacity="0.75"/>
<rect x="3" y="21" width="18" height="2" fill="#3A3A3A"/>
<path d="M15.6334 15.5628L13.9444 16.5H15.876H22.5V19.5H1.5V16.5H8.12399H10.0556L8.3666 15.5628C6.0596 14.2826 4.5 11.8231 4.5 9C4.5 4.85786 7.85786 1.5 12 1.5C16.1421 1.5 19.5 4.85786 19.5 9C19.5 11.8231 17.9404 14.2826 15.6334 15.5628Z" fill="#919191" stroke="#3A3A3A"/>
<rect x="9" y="15" width="6" height="3" fill="#919191"/>
</g>
<path d="M0 18V24H6V23H7V22H8V21H9V20H10V19H11V15H10V14H9V13H5V14H4V15H3V16H2V17H1V18H0Z" fill="#FCFCFC" fill-opacity="0.75"/>
<rect x="2" y="18" width="1" height="1" fill="#3A3A3A"/>
<rect x="3" y="19" width="1" height="1" fill="#919191"/>
<rect x="4" y="20" width="1" height="1" fill="#919191"/>
<rect x="6" y="20" width="1" height="1" fill="#3A3A3A"/>
<rect x="5" y="21" width="1" height="1" fill="#3A3A3A"/>
<rect x="1" y="22" width="4" height="1" fill="#00A1DB"/>
<rect x="1" y="20" width="1" height="1" fill="#00A1DB"/>
<rect x="1" y="21" width="2" height="1" fill="#00A1DB"/>
<rect x="1" y="19" width="1" height="1" fill="#00A1DB"/>
<rect x="3" y="17" width="1" height="1" fill="#3A3A3A"/>
<rect x="7" y="19" width="1" height="1" fill="#3A3A3A"/>
<rect x="4" y="16" width="1" height="1" fill="#3A3A3A"/>
<rect x="8" y="18" width="1" height="1" fill="#3A3A3A"/>
<rect x="5" y="15" width="1" height="1" fill="#3A3A3A"/>
<rect x="9" y="17" width="1" height="1" fill="#3A3A3A"/>
<rect x="6" y="14" width="1" height="1" fill="#3A3A3A"/>
<rect x="7" y="14" width="1" height="1" fill="#3A3A3A"/>
<rect x="9" y="16" width="1" height="1" fill="#3A3A3A"/>
<rect x="8" y="16" width="1" height="1" fill="#C3C7C6"/>
<rect x="7" y="17" width="1" height="1" fill="#00A1DB"/>
<rect x="5" y="16" width="2" height="1" fill="#00A1DB"/>
<rect x="6" y="18" width="2" height="1" fill="#00A1DB"/>
<rect x="5" y="19" width="2" height="1" fill="#00A1DB"/>
<rect x="4" y="17" width="2" height="1" fill="#00A1DB"/>
<rect x="5" y="20" width="1" height="1" fill="#00A1DB"/>
<rect x="3" y="18" width="2" height="1" fill="#00A1DB"/>
<rect x="6" y="17" width="1" height="1" fill="#919191"/>
<rect x="5" y="18" width="1" height="1" fill="#919191"/>
<rect x="4" y="19" width="1" height="1" fill="#919191"/>
<rect x="8" y="15" width="1" height="1" fill="#3A3A3A"/>
<rect x="7" y="15" width="1" height="1" fill="#C3C7C6"/>
<rect x="1" y="16" width="1" height="1" fill="#FCFCFC" fill-opacity="0.75"/>
</g>
<defs>
<clipPath id="clip0_1857_15364">
<rect width="24" height="24" fill="white"/>
</clipPath>
<clipPath id="clip1_1857_15364">
<rect width="24" height="24" fill="white"/>
</clipPath>
</defs>
</svg>
