<svg width="24" height="24" viewBox="0 0 24 24" fill="none" xmlns="http://www.w3.org/2000/svg">
<g clip-path="url(#clip0_1857_15540)">
<rect y="1" width="24" height="22" fill="#FCFCFC" fill-opacity="0.75"/>
<rect x="1.5" y="7.5" width="21" height="14" fill="url(#paint0_linear_1857_15540)" stroke="#919191"/>
<path d="M1 2H23V5H22V3H20V5H18V3H16V5H14V3H12V5H1V2Z" fill="#3A3A3A"/>
<rect x="1" y="5" width="22" height="1" fill="#3A3A3A"/>
<g clip-path="url(#clip1_1857_15540)">
<path fill-rule="evenodd" clip-rule="evenodd" d="M6.12974 12.7131C6.03178 13.175 6 13.7563 6 14.5C6 15.2437 6.03178 15.825 6.12974 16.2869C6.22604 16.7408 6.37992 17.0478 6.60355 17.2714C6.82908 17.497 7.17022 17.6824 7.7218 17.8097C8.27735 17.9379 9.01519 18 10 18V19C8.98481 19 8.16015 18.9371 7.49695 18.7841C6.82978 18.6301 6.29592 18.378 5.89645 17.9786C5.49508 17.5772 5.27396 17.0717 5.15151 16.4944C5.03072 15.925 5 15.2563 5 14.5C5 13.7437 5.03072 13.075 5.15151 12.5056C5.27396 11.9283 5.49508 11.4228 5.89645 11.0214C6.29592 10.622 6.82978 10.3699 7.49695 10.2159C8.16015 10.0629 8.98481 10 10 10V11C9.01519 11 8.27735 11.0621 7.7218 11.1903C7.17022 11.3176 6.82908 11.503 6.60355 11.7286C6.37992 11.9522 6.22604 12.2592 6.12974 12.7131Z" fill="#FCFCFC" fill-opacity="0.75"/>
<path d="M10.5 18V17.5H10C9.03034 17.5 8.33593 17.4383 7.83423 17.3225C7.34058 17.2086 7.09572 17.0565 6.95711 16.9179C6.82224 16.783 6.70204 16.5752 6.61886 16.1831C6.53231 15.7751 6.5 15.2374 6.5 14.5C6.5 13.7626 6.53231 13.2249 6.61886 12.8169C6.70204 12.4248 6.82224 12.217 6.95711 12.0821C7.09572 11.9435 7.34058 11.7914 7.83423 11.6775C8.33593 11.5617 9.03034 11.5 10 11.5H10.5V11V10V9.5H10C8.96959 9.5 8.10153 9.56327 7.38452 9.72873C6.65964 9.89601 6.0294 10.1814 5.54289 10.6679C5.0526 11.1582 4.7979 11.763 4.66239 12.4019C4.53021 13.025 4.5 13.7372 4.5 14.5C4.5 15.2628 4.53021 15.975 4.66239 16.5981C4.7979 17.237 5.0526 17.8418 5.54289 18.3321C6.0294 18.8186 6.65964 19.104 7.38452 19.2713C8.10153 19.4367 8.96959 19.5 10 19.5H10.5V19V18Z" stroke="#FCFCFC" stroke-opacity="0.75"/>
<path d="M10 18.5C6 18.5 5.5 17.5 5.5 14.5C5.5 11.5 6 10.5 10 10.5" stroke="#3A3A3A"/>
</g>
<g clip-path="url(#clip2_1857_15540)">
<path d="M17.75 19H19L17 10H15.75L17.75 19Z" fill="#3A3A3A"/>
<path d="M17.75 19.5H17.3489L17.2619 19.1085L15.2619 10.1085L15.1267 9.5H15.75H17H17.4011L17.4881 9.89153L19.4881 18.8915L19.6233 19.5H19H17.75Z" stroke="#FCFCFC" stroke-opacity="0.75"/>
<rect x="12" y="15" width="2" height="2" fill="#3A3A3A"/>
<rect x="11.5" y="14.5" width="3" height="3" stroke="#FCFCFC" stroke-opacity="0.75"/>
<rect x="12" y="12" width="2" height="2" fill="#3A3A3A"/>
<rect x="11.5" y="11.5" width="3" height="3" stroke="#FCFCFC" stroke-opacity="0.75"/>
</g>
</g>
<defs>
<linearGradient id="paint0_linear_1857_15540" x1="12" y1="7" x2="12" y2="22" gradientUnits="userSpaceOnUse">
<stop stop-color="#FCFCFC"/>
<stop offset="1" stop-color="#E6EAEA"/>
</linearGradient>
<clipPath id="clip0_1857_15540">
<rect width="24" height="24" fill="white"/>
</clipPath>
<clipPath id="clip1_1857_15540">
<rect width="7" height="11" fill="white" transform="translate(4 9)"/>
</clipPath>
<clipPath id="clip2_1857_15540">
<rect width="9" height="11" fill="white" transform="translate(11 9)"/>
</clipPath>
</defs>
</svg>
