<svg width="24" height="24" viewBox="0 0 24 24" fill="none" xmlns="http://www.w3.org/2000/svg">
<g clip-path="url(#clip0_1861_15526)">
<path d="M1 1H18V2H19V3H20V4H21V5H22V6H23V23H1V1Z" fill="#FCFCFC" fill-opacity="0.75"/>
<path d="M21 7.5H21.5V21.5H2.5V2.5H16.5V3V3.5H17H17.5V4V4.5H18H18.5V5V5.5H19H19.5V6V6.5H20H20.5V7V7.5H21Z" fill="#D8D8D8" stroke="#919191"/>
<rect x="4.5" y="9.5" width="14" height="9" fill="url(#paint0_linear_1861_15526)" stroke="#00A1DB"/>
<rect x="4" y="2" width="10" height="5" fill="#3A3A3A"/>
<rect x="5" y="2" width="2" height="4" fill="#94E1FC"/>
<rect x="8" y="2" width="2" height="4" fill="#94E1FC"/>
<rect x="11" y="2" width="2" height="4" fill="#94E1FC"/>
</g>
<defs>
<linearGradient id="paint0_linear_1861_15526" x1="16.0833" y1="10.3889" x2="11.1644" y2="19.8754" gradientUnits="userSpaceOnUse">
<stop stop-color="#94E1FC"/>
<stop offset="1" stop-color="#FCFCFC"/>
</linearGradient>
<clipPath id="clip0_1861_15526">
<rect width="24" height="24" fill="white"/>
</clipPath>
</defs>
</svg>
