<svg width="24" height="24" viewBox="0 0 24 24" fill="none" xmlns="http://www.w3.org/2000/svg">
<g clip-path="url(#clip0_1864_15524)">
<path d="M2 6H15V7H2V6Z" fill="#F2994A"/>
<path d="M2 17H15V18H2V17Z" fill="#F2994A"/>
<path d="M2 1H4V23H2V1Z" fill="#F2994A"/>
<path d="M1.5 7V7.5V16.5V17V18V18.5V23V23.5H2H4H4.5V23V18.5H15H15.5V18V17V16.5H15H4.5V7.5H15H15.5V7V6V5.5H15H4.5V1V0.5H4H2H1.5V1V5.5V6V7Z" stroke="#FCFCFC" stroke-opacity="0.75"/>
<g clip-path="url(#clip1_1864_15524)">
<path d="M13 3V2H18V3H21V4H22V5H23V9H22V10H21V11H14V10H13V3Z" fill="#FCFCFC" fill-opacity="0.75"/>
<path d="M16 6H21V8H20V9H15V7H16V6Z" fill="url(#paint0_radial_1864_15524)"/>
<rect x="14" y="4" width="1" height="5" fill="#F2994A"/>
<rect x="14" y="3" width="3" height="1" fill="#F2994A"/>
<rect x="15" y="6" width="1" height="1" fill="#F2994A"/>
<rect x="21" y="6" width="1" height="2" fill="#F2994A"/>
<rect x="20" y="8" width="1" height="1" fill="#F2994A"/>
<rect x="15" y="9" width="5" height="1" fill="#F2994A"/>
<rect x="15" y="4" width="5" height="1" fill="#F2994A"/>
<rect x="15" y="5" width="6" height="1" fill="#F2994A"/>
</g>
<g clip-path="url(#clip2_1864_15524)">
<path d="M13 14V13H18V14H21V15H22V16H23V20H22V21H21V22H14V21H13V14Z" fill="#FCFCFC" fill-opacity="0.75"/>
<path d="M16 17H21V19H20V20H15V18H16V17Z" fill="url(#paint1_radial_1864_15524)"/>
<rect x="14" y="15" width="1" height="5" fill="#F2994A"/>
<rect x="14" y="14" width="3" height="1" fill="#F2994A"/>
<rect x="15" y="17" width="1" height="1" fill="#F2994A"/>
<rect x="21" y="17" width="1" height="2" fill="#F2994A"/>
<rect x="20" y="19" width="1" height="1" fill="#F2994A"/>
<rect x="15" y="20" width="5" height="1" fill="#F2994A"/>
<rect x="15" y="15" width="5" height="1" fill="#F2994A"/>
<rect x="15" y="16" width="6" height="1" fill="#F2994A"/>
</g>
</g>
<g clip-path="url(#clip3_1864_15524)">
<path d="M0 13H9V15H11V24H2V22H0V13Z" fill="#FCFCFC" fill-opacity="0.75"/>
<rect x="3.5" y="16.5" width="6" height="6" fill="url(#paint2_linear_1864_15524)" stroke="#00A1DB"/>
<path d="M1 14H8V15H2V21H1V14Z" fill="#00A1DB"/>
</g>
<defs>
<radialGradient id="paint0_radial_1864_15524" cx="0" cy="0" r="1" gradientUnits="userSpaceOnUse" gradientTransform="translate(17.7391 9) rotate(-84.1325) scale(3.82775 5.78648)">
<stop stop-color="#F2994A"/>
<stop offset="0.588115" stop-color="#F2C94C"/>
<stop offset="1" stop-color="#FCFCFC"/>
</radialGradient>
<radialGradient id="paint1_radial_1864_15524" cx="0" cy="0" r="1" gradientUnits="userSpaceOnUse" gradientTransform="translate(17.7391 20) rotate(-84.1325) scale(3.82775 5.78648)">
<stop stop-color="#F2994A"/>
<stop offset="0.588115" stop-color="#F2C94C"/>
<stop offset="1" stop-color="#FCFCFC"/>
</radialGradient>
<linearGradient id="paint2_linear_1864_15524" x1="8.63889" y1="16.9722" x2="4.55556" y2="22.2222" gradientUnits="userSpaceOnUse">
<stop stop-color="#94E1FC"/>
<stop offset="1" stop-color="#FCFCFC"/>
</linearGradient>
<clipPath id="clip0_1864_15524">
<rect width="24" height="22" fill="white" transform="translate(0 1)"/>
</clipPath>
<clipPath id="clip1_1864_15524">
<rect width="10" height="9" fill="white" transform="translate(13 2)"/>
</clipPath>
<clipPath id="clip2_1864_15524">
<rect width="10" height="9" fill="white" transform="translate(13 13)"/>
</clipPath>
<clipPath id="clip3_1864_15524">
<rect width="11" height="11" fill="white" transform="translate(0 13)"/>
</clipPath>
</defs>
</svg>
