<svg width="24" height="24" viewBox="0 0 24 24" fill="none" xmlns="http://www.w3.org/2000/svg">
<g clip-path="url(#clip0_1866_15799)">
<g clip-path="url(#clip1_1866_15799)">
<path d="M0 1H5V0H9V1H15V0H19V1H24V24H0V1Z" fill="#FCFCFC" fill-opacity="0.75"/>
<rect x="1.5" y="7.5" width="21" height="15" fill="#FCFCFC" stroke="#919191"/>
<path d="M19.5 5V2.5H22.5V7.5H1.5V2.5H4.5V5V5.5H5H9H9.5V5V2.5H14.5V5V5.5H15H19H19.5V5Z" fill="#94E1FC" stroke="#3A3A3A"/>
<rect x="2" y="3" width="2" height="2" fill="#00A1DB"/>
<rect x="6" y="1" width="2" height="3" fill="#3A3A3A"/>
<rect x="16" y="1" width="2" height="3" fill="#3A3A3A"/>
<rect x="20" y="3" width="2" height="2" fill="#00A1DB"/>
<rect x="10" y="3" width="4" height="2" fill="#00A1DB"/>
<rect x="4" y="10" width="4" height="2" fill="#919191"/>
<rect x="16" y="10" width="4" height="2" fill="#00A1DB"/>
<rect x="10" y="10" width="4" height="2" fill="#919191"/>
<rect x="10" y="14" width="4" height="2" fill="#919191"/>
<rect x="4" y="14" width="4" height="2" fill="#919191"/>
<rect x="16" y="14" width="4" height="2" fill="#00A1DB"/>
<rect x="10" y="18" width="4" height="2" fill="#919191"/>
<rect x="4" y="18" width="4" height="2" fill="#919191"/>
<rect x="16" y="18" width="4" height="2" fill="#00A1DB"/>
</g>
</g>
<defs>
<clipPath id="clip0_1866_15799">
<rect width="24" height="24" fill="white"/>
</clipPath>
<clipPath id="clip1_1866_15799">
<rect width="24" height="24" fill="white"/>
</clipPath>
</defs>
</svg>
