<svg width="24" height="24" viewBox="0 0 24 24" fill="none" xmlns="http://www.w3.org/2000/svg">
<g clip-path="url(#clip0_1866_15946)">
<path d="M1 1H19V2H23V8H19V9H23V15H19V16H23V22H19V23H1V1Z" fill="#FCFCFC" fill-opacity="0.75"/>
<rect x="19" y="3" width="3" height="4" fill="#3A3A3A"/>
<rect x="19" y="17" width="3" height="4" fill="#00A1DB"/>
<rect x="19" y="10" width="3" height="4" fill="#EA212D"/>
<rect x="4.5" y="2.5" width="13" height="19" fill="url(#paint0_linear_1866_15946)" stroke="#919191"/>
<rect x="2" y="2" width="1" height="20" fill="#919191"/>
<rect x="14" y="7" width="1" height="6" transform="rotate(90 14 7)" fill="#3A3A3A"/>
<rect x="14" y="9" width="1" height="6" transform="rotate(90 14 9)" fill="#3A3A3A"/>
<g clip-path="url(#clip1_1866_15946)">
<path d="M6 13L10 15V16H6L6.00188 17H3.00188V16H1L1 15H3L3.00188 13H6Z" fill="#00A1DB"/>
<path d="M3.00188 19H1V18H6H10V19L6.00188 21H3.00188V19Z" fill="#00A1DB"/>
<path d="M6.00188 22H3L3.00188 23H6.00188V22Z" fill="#00A1DB"/>
<path d="M6 12.5H6.11803L6.22361 12.5528L10.2236 14.5528L10.5 14.691V15V16V16.5H10H6.50094L6.50188 16.9991L6.50283 17.5H10H10.5V18V19V19.309L10.2237 19.4472L6.22557 21.4472L6.11997 21.5H6.50188V22V23V23.5H6.00188H3.00188H2.50283L2.50189 23.0009L2.5 22.0009L2.49906 21.5H2.50188V21V19.5H1H0.5V19V18V17.5H1H2.50188V17V16.5H1H0.499999L0.5 16L0.500001 15V14.5H1H2.50047L2.50188 12.9995L2.50236 12.5H3.00188H6Z" stroke="#FCFCFC" stroke-opacity="0.75"/>
</g>
</g>
<defs>
<linearGradient id="paint0_linear_1866_15946" x1="11" y1="2" x2="11" y2="22" gradientUnits="userSpaceOnUse">
<stop stop-color="#F4F7F6"/>
<stop offset="1" stop-color="#D8D8D8"/>
</linearGradient>
<clipPath id="clip0_1866_15946">
<rect width="24" height="24" fill="white"/>
</clipPath>
<clipPath id="clip1_1866_15946">
<rect width="11" height="12" fill="white" transform="translate(0 12)"/>
</clipPath>
</defs>
</svg>
