<svg width="24" height="24" viewBox="0 0 24 24" fill="none" xmlns="http://www.w3.org/2000/svg">
<g clip-path="url(#clip0_1868_15518)">
<path d="M0 8H6V11H17V8H24V20H21V22H2V20H0V8Z" fill="#FCFCFC" fill-opacity="0.75"/>
<path d="M18.5 11V9.5H22.5V18.5H20H4H1.5V9.5H4.5V11V11.5H5H18H18.5V11Z" fill="#94E1FC" stroke="#919191"/>
<path d="M3.5 16.5H19.5V20.5H3.5V16.5Z" fill="#FCFCFC" stroke="#919191"/>
<rect x="19" y="13" width="2" height="1" fill="#3A3A3A"/>
<rect x="4" y="18" width="15" height="2" fill="#00A1DB"/>
<path d="M6 2H16V3H17V11H6V2Z" fill="#FCFCFC" fill-opacity="0.75"/>
<path d="M13 6.5H15.5V9.5H7.5V3.5H12.5V6V6.5H13Z" fill="url(#paint0_linear_1868_15518)" stroke="#919191"/>
<path d="M14 3H15V4H16V5H14V3Z" fill="#919191"/>
</g>
<defs>
<linearGradient id="paint0_linear_1868_15518" x1="11.5" y1="3" x2="11.5" y2="10" gradientUnits="userSpaceOnUse">
<stop stop-color="#F4F7F6"/>
<stop offset="1" stop-color="#D8D8D8"/>
</linearGradient>
<clipPath id="clip0_1868_15518">
<rect width="24" height="24" fill="white"/>
</clipPath>
</defs>
</svg>
