<svg width="24" height="24" viewBox="0 0 24 24" fill="none" xmlns="http://www.w3.org/2000/svg">
<g clip-path="url(#clip0_1870_15224)">
<path d="M0 1H12V6H11V10H10V12H9V15H6V12H5V15H11V16H12V23H7V22H5V23H0V1Z" fill="#FCFCFC" fill-opacity="0.75"/>
<path d="M10 17.5H10.5V20.5H1.5V6.5H3.5V17V17.5H4H5H10Z" fill="url(#paint0_linear_1870_15224)" stroke="#919191"/>
<path d="M6 8.5H5.5V6.5H6H6.5V6V5V4.5H6H1.5V2.5H10.5V4.5H9H8.5V5V6V6.5H9H9.5V8.5H9H8.5V9V10.5H8H7H6.5V9V8.5H6Z" fill="url(#paint1_linear_1870_15224)" stroke="#919191"/>
<rect x="5" y="16" width="5" height="1" fill="#3A3A3A"/>
<rect x="1" y="21" width="3" height="1" fill="#3A3A3A"/>
<rect x="8" y="21" width="3" height="1" fill="#3A3A3A"/>
<rect x="7" y="11" width="1" height="3" fill="#3A3A3A"/>
</g>
<g clip-path="url(#clip1_1870_15224)">
<path d="M12 1H24V6H23V10H22V12H21V15H18V12H17V15H23V16H24V23H19V22H17V23H12V1Z" fill="#FCFCFC" fill-opacity="0.75"/>
<path d="M22 17.5H22.5V20.5H13.5V6.5H15.5V17V17.5H16H17H22Z" fill="url(#paint2_linear_1870_15224)" stroke="#919191"/>
<path d="M18 8.5H17.5V6.5H18H18.5V6V5V4.5H18H13.5V2.5H22.5V4.5H21H20.5V5V6V6.5H21H21.5V8.5H21H20.5V9V10.5H20H19H18.5V9V8.5H18Z" fill="url(#paint3_linear_1870_15224)" stroke="#919191"/>
<rect x="17" y="16" width="5" height="1" fill="#3A3A3A"/>
<rect x="13" y="21" width="3" height="1" fill="#3A3A3A"/>
<rect x="20" y="21" width="3" height="1" fill="#3A3A3A"/>
<rect x="19" y="11" width="1" height="3" fill="#3A3A3A"/>
</g>
<defs>
<linearGradient id="paint0_linear_1870_15224" x1="11" y1="14.1818" x2="1" y2="14.1818" gradientUnits="userSpaceOnUse">
<stop stop-color="#D8D8D8"/>
<stop offset="1" stop-color="#F4F7F6"/>
</linearGradient>
<linearGradient id="paint1_linear_1870_15224" x1="11" y1="6.90909" x2="1" y2="6.90909" gradientUnits="userSpaceOnUse">
<stop stop-color="#D8D8D8"/>
<stop offset="1" stop-color="#F4F7F6"/>
</linearGradient>
<linearGradient id="paint2_linear_1870_15224" x1="23" y1="14.1818" x2="13" y2="14.1818" gradientUnits="userSpaceOnUse">
<stop stop-color="#D8D8D8"/>
<stop offset="1" stop-color="#F4F7F6"/>
</linearGradient>
<linearGradient id="paint3_linear_1870_15224" x1="23" y1="6.90909" x2="13" y2="6.90909" gradientUnits="userSpaceOnUse">
<stop stop-color="#D8D8D8"/>
<stop offset="1" stop-color="#F4F7F6"/>
</linearGradient>
<clipPath id="clip0_1870_15224">
<rect width="12" height="22" fill="white" transform="translate(0 1)"/>
</clipPath>
<clipPath id="clip1_1870_15224">
<rect width="12" height="22" fill="white" transform="translate(12 1)"/>
</clipPath>
</defs>
</svg>
