<svg width="24" height="24" viewBox="0 0 24 24" fill="none" xmlns="http://www.w3.org/2000/svg">
<g clip-path="url(#clip0_1874_15171)">
<rect y="2" width="24" height="20" fill="#FCFCFC" fill-opacity="0.75"/>
<rect x="1.5" y="3.5" width="21" height="17" fill="url(#paint0_linear_1874_15171)" stroke="#919191"/>
<rect x="1" y="6" width="22" height="5" fill="#3A3A3A"/>
<rect x="13" y="13" width="7" height="1" fill="#919191"/>
<rect x="13" y="15" width="7" height="1" fill="#919191"/>
</g>
<g clip-path="url(#clip1_1874_15171)">
<circle cx="5.5" cy="16.5" r="3.5" fill="#FCFCFC" fill-opacity="0.75"/>
<path d="M0 23C0 20.7909 1.79086 19 4 19H7C9.20914 19 11 20.7909 11 23V24H0V23Z" fill="#FCFCFC" fill-opacity="0.75"/>
<path d="M6.4 20H4.6C2.35 20 1 21.25 1 22.5V23H3V22H4V23H7V22H8V23H9.99983L10 22.5C9.99983 21.25 8.65 20 6.4 20Z" fill="#00A1DB"/>
<circle cx="5.5" cy="16.5" r="2.5" fill="#00A1DB"/>
</g>
<defs>
<linearGradient id="paint0_linear_1874_15171" x1="23" y1="12.8182" x2="1" y2="12.8182" gradientUnits="userSpaceOnUse">
<stop stop-color="#F4F7F6"/>
<stop offset="1" stop-color="#D8D8D8"/>
</linearGradient>
<clipPath id="clip0_1874_15171">
<rect width="24" height="20" fill="white" transform="translate(0 2)"/>
</clipPath>
<clipPath id="clip1_1874_15171">
<rect width="11" height="11" fill="white" transform="translate(0 13)"/>
</clipPath>
</defs>
</svg>
