<svg width="24" height="24" viewBox="0 0 24 24" fill="none" xmlns="http://www.w3.org/2000/svg">
<g clip-path="url(#clip0_1886_14238)">
<path d="M17 0H3V24H21V4H20V3H19V2H18V1H17V0Z" fill="#FCFCFC" fill-opacity="0.75"/>
<path d="M4 1H15V3H17V4H18V6H20V23H4V1Z" fill="url(#paint0_linear_1886_14238)"/>
<path fill-rule="evenodd" clip-rule="evenodd" d="M16 1H4V2V23H5H20V5H19V4H18V3H17V2H16V1ZM18 5H16V3H17V4H18V5ZM5 2H15V6H19V22H5V2Z" fill="#3A3A3A"/>
<g clip-path="url(#clip1_1886_14238)">
<path d="M1 16V15H2V14H11V15H12V23H11V24H2V23H1V22H0V16H1Z" fill="#FCFCFC" fill-opacity="0.75"/>
<rect x="2" y="16" width="8" height="6" fill="url(#paint1_linear_1886_14238)"/>
<path d="M3 15H10V16H9.22222H3V15Z" fill="#00A1DB"/>
<path d="M3 22H10V23H9.22222H3V22Z" fill="#00A1DB"/>
<path d="M10 16H11V22H10V16Z" fill="#00A1DB"/>
<path d="M1 17H2V21H1V17Z" fill="#00A1DB"/>
<path d="M3 18H5V20H3V18Z" fill="#00A1DB"/>
<path d="M2 16H3V17H2V16Z" fill="#00A1DB"/>
<path d="M2 21H3V22H2V21Z" fill="#00A1DB"/>
</g>
</g>
<defs>
<linearGradient id="paint0_linear_1886_14238" x1="12" y1="1" x2="12" y2="23" gradientUnits="userSpaceOnUse">
<stop stop-color="#FCFCFC"/>
<stop offset="1" stop-color="#E6EAEA"/>
</linearGradient>
<linearGradient id="paint1_linear_1886_14238" x1="8.44444" y1="16.8333" x2="5.30109" y2="22.2219" gradientUnits="userSpaceOnUse">
<stop stop-color="#94E1FC"/>
<stop offset="1" stop-color="#FCFCFC"/>
</linearGradient>
<clipPath id="clip0_1886_14238">
<rect width="24" height="24" fill="white"/>
</clipPath>
<clipPath id="clip1_1886_14238">
<rect width="10" height="12" fill="white" transform="translate(12 14) rotate(90)"/>
</clipPath>
</defs>
</svg>
