<svg width="24" height="24" viewBox="0 0 24 24" fill="none" xmlns="http://www.w3.org/2000/svg">
<path d="M17 0H3V24H21V4H20V3H19V2H18V1H17V0Z" fill="#FCFCFC" fill-opacity="0.75"/>
<path d="M4 1H15V3H17V4H18V6H20V23H4V1Z" fill="url(#paint0_linear_1886_14303)"/>
<path fill-rule="evenodd" clip-rule="evenodd" d="M16 1H4V2V23H5H20V5H19V4H18V3H17V2H16V1ZM18 5H16V3H17V4H18V5ZM5 2H15V6H19V22H5V2Z" fill="#3A3A3A"/>
<g clip-path="url(#clip0_1886_14303)">
<circle cx="6" cy="17" r="4" fill="#FCFCFC" fill-opacity="0.75"/>
<path d="M0 18H12V23H11V24H1V23H0V18Z" fill="#FCFCFC" fill-opacity="0.75"/>
<circle cx="6" cy="17" r="2.5" fill="url(#paint1_linear_1886_14303)" stroke="#00A1DB"/>
<rect x="2" y="22" width="8" height="1" fill="#00A1DB"/>
<rect x="1.5" y="19.5" width="9" height="2" fill="#FCFCFC" stroke="#00A1DB"/>
<path d="M5 20V18H7V20H5Z" fill="#FCFCFC"/>
</g>
<defs>
<linearGradient id="paint0_linear_1886_14303" x1="12" y1="1" x2="12" y2="23" gradientUnits="userSpaceOnUse">
<stop stop-color="#FCFCFC"/>
<stop offset="1" stop-color="#E6EAEA"/>
</linearGradient>
<linearGradient id="paint1_linear_1886_14303" x1="7.83333" y1="14.8333" x2="4.33333" y2="19.3333" gradientUnits="userSpaceOnUse">
<stop stop-color="#94E1FC"/>
<stop offset="1" stop-color="#FCFCFC"/>
</linearGradient>
<clipPath id="clip0_1886_14303">
<rect width="12" height="11" fill="white" transform="translate(0 13)"/>
</clipPath>
</defs>
</svg>
