<svg width="24" height="24" viewBox="0 0 24 24" fill="none" xmlns="http://www.w3.org/2000/svg">
<path d="M17 0H3V24H21V4H20V3H19V2H18V1H17V0Z" fill="#FCFCFC" fill-opacity="0.75"/>
<path d="M4 1H15V3H17V4H18V6H20V23H4V1Z" fill="url(#paint0_linear_1886_14471)"/>
<path fill-rule="evenodd" clip-rule="evenodd" d="M16 1H4V2V23H5H20V5H19V4H18V3H17V2H16V1ZM18 5H16V3H17V4H18V5ZM5 2H15V6H19V22H5V2Z" fill="#3A3A3A"/>
<rect x="4" y="14" width="1" height="9" fill="#FCFCFC" fill-opacity="0.75"/>
<g clip-path="url(#clip0_1886_14471)">
<path d="M6 15L1 15L1 16L6 16V15Z" fill="#00A1DB"/>
<path d="M4 15L3 15L3 23H4L4 15Z" fill="#00A1DB"/>
<path d="M6.5 15V14.5L6 14.5L4.5 14.5L4 14.5L3 14.5L2.5 14.5L1 14.5L0.5 14.5L0.5 15L0.5 16L0.5 16.5H1L2.5 16.5L2.5 23V23.5H3H4H4.5V23L4.5 16.5L6 16.5H6.5V16V15Z" stroke="#FCFCFC" stroke-opacity="0.75"/>
</g>
<defs>
<linearGradient id="paint0_linear_1886_14471" x1="12" y1="1" x2="12" y2="23" gradientUnits="userSpaceOnUse">
<stop stop-color="#FCFCFC"/>
<stop offset="1" stop-color="#E6EAEA"/>
</linearGradient>
<clipPath id="clip0_1886_14471">
<rect width="7" height="10" fill="white" transform="translate(0 14)"/>
</clipPath>
</defs>
</svg>
