<svg width="24" height="24" viewBox="0 0 24 24" fill="none" xmlns="http://www.w3.org/2000/svg">
<path d="M17 0H3V24H21V4H20V3H19V2H18V1H17V0Z" fill="#FCFCFC" fill-opacity="0.75"/>
<path d="M4 1H15V3H17V4H18V6H20V23H4V1Z" fill="url(#paint0_linear_1888_14151)"/>
<path fill-rule="evenodd" clip-rule="evenodd" d="M16 1H4V2V23H5H20V5H19V4H18V3H17V2H16V1ZM18 5H16V3H17V4H18V5ZM5 2H15V6H19V22H5V2Z" fill="#3A3A3A"/>
<g clip-path="url(#clip0_1888_14151)">
<path d="M9 24L9 16L6 16L6 13L-4.80825e-07 13L0 24L9 24Z" fill="#FCFCFC" fill-opacity="0.75"/>
<path d="M4.5 17L4.5 14.5L1.5 14.5L1.5 22.5L7.5 22.5L7.5 17.5L5 17.5L4.5 17.5L4.5 17Z" fill="url(#paint1_linear_1888_14151)" stroke="#00A1DB"/>
</g>
<defs>
<linearGradient id="paint0_linear_1888_14151" x1="12" y1="1" x2="12" y2="23" gradientUnits="userSpaceOnUse">
<stop stop-color="#FCFCFC"/>
<stop offset="1" stop-color="#E6EAEA"/>
</linearGradient>
<linearGradient id="paint1_linear_1888_14151" x1="7.02778" y1="15.75" x2="0.859233" y2="19.4816" gradientUnits="userSpaceOnUse">
<stop stop-color="#94E1FC"/>
<stop offset="1" stop-color="#FCFCFC"/>
</linearGradient>
<clipPath id="clip0_1888_14151">
<rect width="9" height="11" fill="white" transform="translate(0 13)"/>
</clipPath>
</defs>
</svg>
