<svg width="24" height="24" viewBox="0 0 24 24" fill="none" xmlns="http://www.w3.org/2000/svg">
<path d="M17 0H3V24H21V4H20V3H19V2H18V1H17V0Z" fill="#FCFCFC" fill-opacity="0.75"/>
<path d="M4 1H15V3H17V4H18V6H20V23H4V1Z" fill="url(#paint0_linear_1888_14304)"/>
<path fill-rule="evenodd" clip-rule="evenodd" d="M16 1H4V2V23H5H20V5H19V4H18V3H17V2H16V1ZM18 5H16V3H17V4H18V5ZM5 2H15V6H19V22H5V2Z" fill="#3A3A3A"/>
<path d="M4 12H5V22H10V23H4V12Z" fill="#FCFCFC" fill-opacity="0.75"/>
<g clip-path="url(#clip0_1888_14304)">
<path d="M2 13V12H6V13H7V14H8V18H11V22H10V23H8V24H0V21H1V20H0V15H1V13H2Z" fill="#FCFCFC" fill-opacity="0.75"/>
<rect x="1" y="22" width="1" height="1" fill="#00A1DB"/>
<rect x="2" y="21" width="1" height="1" fill="#00A1DB"/>
<rect x="5" y="18" width="1" height="1" fill="#00A1DB"/>
<rect x="6" y="17" width="1" height="1" fill="#00A1DB"/>
<rect x="6" y="16" width="1" height="1" fill="#00A1DB"/>
<rect x="6" y="15" width="1" height="1" fill="#00A1DB"/>
<rect x="5" y="14" width="1" height="1" fill="#00A1DB"/>
<rect x="4" y="14" width="1" height="1" fill="#94E1FC"/>
<rect x="3" y="14" width="1" height="1" fill="#94E1FC"/>
<rect x="2" y="22" width="1" height="1" fill="#94E1FC"/>
<rect x="5" y="21" width="1" height="1" fill="#94E1FC"/>
<rect x="6" y="20" width="1" height="1" fill="#94E1FC"/>
<rect x="5" y="15" width="1" height="1" fill="#94E1FC"/>
<rect x="2" y="16" width="1" height="1" fill="#94E1FC"/>
<rect x="3" y="19" width="1" height="1" fill="#94E1FC"/>
<rect x="2" y="18" width="1" height="1" fill="#94E1FC"/>
<rect x="4" y="20" width="1" height="1" fill="#94E1FC"/>
<rect x="2" y="20" width="1" height="1" fill="#94E1FC"/>
<rect x="8" y="20" width="1" height="1" fill="#94E1FC"/>
<rect x="7" y="21" width="1" height="1" fill="#94E1FC"/>
<rect x="4" y="13" width="1" height="1" fill="#00A1DB"/>
<rect x="3" y="13" width="1" height="1" fill="#00A1DB"/>
<rect x="2" y="14" width="1" height="1" fill="#00A1DB"/>
<rect x="2" y="15" width="1" height="1" fill="#00A1DB"/>
<rect x="1" y="16" width="1" height="1" fill="#00A1DB"/>
<rect x="1" y="17" width="1" height="1" fill="#00A1DB"/>
<rect x="3" y="20" width="1" height="1" fill="#00A1DB"/>
<rect x="4" y="19" width="1" height="1" fill="#00A1DB"/>
<rect x="5" y="22" width="1" height="1" fill="#00A1DB"/>
<rect x="6" y="22" width="1" height="1" fill="#00A1DB"/>
<rect x="6" y="21" width="1" height="1" fill="#00A1DB"/>
<rect x="1" y="18" width="1" height="1" fill="#00A1DB"/>
<rect x="2" y="19" width="1" height="1" fill="#00A1DB"/>
<rect x="4" y="21" width="1" height="1" fill="#00A1DB"/>
<rect x="7" y="20" width="1" height="1" fill="#00A1DB"/>
<rect x="8" y="21" width="1" height="1" fill="#00A1DB"/>
<rect x="9" y="20" width="1" height="1" fill="#00A1DB"/>
<rect x="9" y="19" width="1" height="1" fill="#00A1DB"/>
</g>
<defs>
<linearGradient id="paint0_linear_1888_14304" x1="12" y1="1" x2="12" y2="23" gradientUnits="userSpaceOnUse">
<stop stop-color="#FCFCFC"/>
<stop offset="1" stop-color="#E6EAEA"/>
</linearGradient>
<clipPath id="clip0_1888_14304">
<rect width="11" height="12" fill="white" transform="translate(0 12)"/>
</clipPath>
</defs>
</svg>
