<svg width="24" height="24" viewBox="0 0 24 24" fill="none" xmlns="http://www.w3.org/2000/svg">
<g clip-path="url(#clip0_1890_14143)">
<path d="M7 2H2C0.895431 2 0 2.89543 0 4V19C0 20.6569 1.34315 22 3 22H21C22.6569 22 24 20.6569 24 19V9C24 7.34315 22.6569 6 21 6C21 4.89543 20.1046 4 19 4H9C9 2.89543 8.10457 2 7 2Z" fill="#FCFCFC" fill-opacity="0.75"/>
<path d="M6 3H3C1.89543 3 1 3.89543 1 5V18C1 19.6569 2.34315 21 4 21H20C21.6569 21 23 19.6569 23 18V10C23 8.34315 21.6569 7 20 7C20 5.89543 19.1046 5 18 5H8C8 3.89543 7.10457 3 6 3Z" fill="#00A1DB"/>
<path d="M2 12C2 10.3431 3.34315 9 5 9H19C20.6569 9 22 10.3431 22 12V17C22 18.6569 20.6569 20 19 20H5C3.34315 20 2 18.6569 2 17V12Z" fill="url(#paint0_linear_1890_14143)"/>
<rect x="9" y="9" width="3" height="1" fill="#00A1DB"/>
<rect x="11" y="10" width="3" height="1" fill="#00A1DB"/>
<rect x="11" y="12" width="3" height="1" fill="#00A1DB"/>
<rect x="9" y="11" width="3" height="1" fill="#00A1DB"/>
<rect x="9" y="15" width="3" height="1" fill="#00A1DB"/>
<rect x="11" y="16" width="3" height="1" fill="#00A1DB"/>
<rect x="9" y="17" width="3" height="1" fill="#00A1DB"/>
<rect x="11" y="18" width="3" height="1" fill="#00A1DB"/>
<rect x="9" y="19" width="3" height="1" fill="#00A1DB"/>
<rect x="9" y="13" width="3" height="1" fill="#00A1DB"/>
<rect x="11" y="14" width="3" height="1" fill="#00A1DB"/>
</g>
<defs>
<linearGradient id="paint0_linear_1890_14143" x1="18.1111" y1="10.5278" x2="13.3232" y2="21.7203" gradientUnits="userSpaceOnUse">
<stop stop-color="#94E1FC"/>
<stop offset="1" stop-color="#FCFCFC"/>
</linearGradient>
<clipPath id="clip0_1890_14143">
<rect width="24" height="20" fill="white" transform="translate(0 2)"/>
</clipPath>
</defs>
</svg>
