<svg width="24" height="24" viewBox="0 0 24 24" fill="none" xmlns="http://www.w3.org/2000/svg">
<g clip-path="url(#clip0_1891_14137)">
<g clip-path="url(#clip1_1891_14137)">
<path d="M2 0H22V6H23V7H24V24H0V7H1V6H2V0Z" fill="#FCFCFC" fill-opacity="0.75"/>
<path d="M1 8H2V7H3V6H4H20H21V7H22V8H23V13H1V8Z" fill="#919191"/>
<path d="M3.5 1.5H20.5V19.5H3.5V1.5Z" fill="url(#paint0_linear_1891_14137)" stroke="#00A1DB"/>
<path d="M1 10H2L10 18H14L22 10H23V23H1V10Z" fill="url(#paint1_linear_1891_14137)"/>
<path d="M1.5 22.5L8.5 15.5" stroke="#3A3A3A"/>
<path d="M22.5 22.5L15.5 15.5" stroke="#3A3A3A"/>
<path d="M1.5 9L10 17.5H14L22.5 9" stroke="#919191"/>
<rect x="1" y="9" width="1" height="14" fill="#919191"/>
<rect x="22" y="9" width="1" height="14" fill="#919191"/>
<path d="M1 22H23V23H1V22Z" fill="#919191"/>
<rect width="5" height="1" transform="matrix(-1 0 0 1 12 5)" fill="#00A1DB"/>
<rect width="10" height="1" transform="matrix(-1 0 0 1 17 8)" fill="#00A1DB"/>
<rect width="10" height="1" transform="matrix(-1 0 0 1 17 11)" fill="#00A1DB"/>
</g>
</g>
<defs>
<linearGradient id="paint0_linear_1891_14137" x1="12" y1="1" x2="12" y2="20" gradientUnits="userSpaceOnUse">
<stop stop-color="#FCFCFC"/>
<stop offset="1" stop-color="#E6EAEA"/>
</linearGradient>
<linearGradient id="paint1_linear_1891_14137" x1="12" y1="10" x2="12" y2="23" gradientUnits="userSpaceOnUse">
<stop stop-color="#F4F7F6"/>
<stop offset="1" stop-color="#D8D8D8"/>
</linearGradient>
<clipPath id="clip0_1891_14137">
<rect width="24" height="24" fill="white"/>
</clipPath>
<clipPath id="clip1_1891_14137">
<rect width="24" height="24" fill="white"/>
</clipPath>
</defs>
</svg>
