<svg width="24" height="24" viewBox="0 0 24 24" fill="none" xmlns="http://www.w3.org/2000/svg">
<g clip-path="url(#clip0_1897_14501)">
<path d="M4 11V10H20V11H21V23H20V24H4V23H3V11H4Z" fill="#FCFCFC" fill-opacity="0.75"/>
<path fill-rule="evenodd" clip-rule="evenodd" d="M7 5.5C7 3.01472 9.01472 1 11.5 1H12.5C14.9853 1 17 3.01472 17 5.5V12H16V5.5C16 3.567 14.433 2 12.5 2H11.5C9.567 2 8 3.567 8 5.5V12H7V5.5Z" fill="#3A3A3A"/>
<path d="M17 12.5H17.5V12V5.5C17.5 2.73858 15.2614 0.5 12.5 0.5H11.5C8.73858 0.5 6.5 2.73858 6.5 5.5V12V12.5H7H8H8.5V12V5.5C8.5 3.84315 9.84315 2.5 11.5 2.5H12.5C14.1569 2.5 15.5 3.84315 15.5 5.5V12V12.5H16H17Z" stroke="#FCFCFC" stroke-opacity="0.75"/>
<path d="M5 21.5H4.5V12.5H5H5.5V12V11.5H18.5V12V12.5H19H19.5V21.5H19H18.5V22V22.5H5.5V22V21.5H5Z" fill="url(#paint0_linear_1897_14501)" stroke="#919191"/>
<rect x="11" y="15" width="2" height="4" fill="#3A3A3A"/>
</g>
<defs>
<linearGradient id="paint0_linear_1897_14501" x1="12" y1="11" x2="12" y2="23" gradientUnits="userSpaceOnUse">
<stop stop-color="#F4F7F6"/>
<stop offset="1" stop-color="#D8D8D8"/>
</linearGradient>
<clipPath id="clip0_1897_14501">
<rect width="24" height="24" fill="white"/>
</clipPath>
</defs>
</svg>
