<svg width="24" height="24" viewBox="0 0 24 24" fill="none" xmlns="http://www.w3.org/2000/svg">
<g clip-path="url(#clip0_1899_13951)">
<path d="M4 1V0H21V1H22V23H21V24H4V23H3V1H4Z" fill="#FCFCFC" fill-opacity="0.75"/>
<path d="M5 2.5H5.5V2V1.5H19.5V2V2.5H20H20.5V21.5H20H19.5V22V22.5H5.5V22V21.5H5H4.5V2.5H5Z" fill="url(#paint0_linear_1899_13951)" stroke="#919191"/>
<rect x="4.5" y="2.5" width="16" height="6" fill="url(#paint1_linear_1899_13951)" stroke="#919191"/>
<rect x="17" y="4" width="1" height="3" fill="#919191"/>
<rect x="7" y="18" width="3" height="2" fill="#3A3A3A"/>
<rect x="7" y="14" width="3" height="2" fill="#3A3A3A"/>
<rect x="7" y="10" width="3" height="2" fill="#3A3A3A"/>
<rect x="11" y="14" width="3" height="2" fill="#3A3A3A"/>
<rect x="11" y="10" width="3" height="2" fill="#3A3A3A"/>
<rect x="15" y="10" width="3" height="2" fill="#3A3A3A"/>
<rect x="15" y="18" width="3" height="2" fill="#3A3A3A"/>
<rect x="15" y="14" width="3" height="2" fill="#3A3A3A"/>
<rect x="7" y="10" width="3" height="1" fill="#919191"/>
<rect x="7" y="14" width="3" height="1" fill="#919191"/>
<rect x="7" y="18" width="3" height="1" fill="#919191"/>
<rect x="11" y="10" width="3" height="1" fill="#919191"/>
<rect x="11" y="14" width="3" height="1" fill="#919191"/>
<rect x="15" y="10" width="3" height="1" fill="#919191"/>
<rect x="15" y="14" width="3" height="1" fill="#919191"/>
<rect x="15" y="18" width="3" height="1" fill="#919191"/>
<g clip-path="url(#clip1_1899_13951)">
<path d="M6 13L10 15V16H6L6.00188 17H3.00188V16H1L1 15H3L3.00188 13H6Z" fill="#00A1DB"/>
<path d="M3.00188 19H1V18H6H10V19L6.00188 21H3.00188V19Z" fill="#00A1DB"/>
<path d="M6.00188 22H3L3.00188 23H6.00188V22Z" fill="#00A1DB"/>
<path d="M6 12.5H6.11803L6.22361 12.5528L10.2236 14.5528L10.5 14.691V15V16V16.5H10H6.50094L6.50188 16.9991L6.50283 17.5H10H10.5V18V19V19.309L10.2237 19.4472L6.22557 21.4472L6.11997 21.5H6.50188V22V23V23.5H6.00188H3.00188H2.50283L2.50189 23.0009L2.5 22.0009L2.49906 21.5H2.50188V21V19.5H1H0.5V19V18V17.5H1H2.50188V17V16.5H1H0.499999L0.5 16L0.500001 15V14.5H1H2.50047L2.50188 12.9995L2.50236 12.5H3.00188H6Z" stroke="#FCFCFC" stroke-opacity="0.75"/>
</g>
</g>
<defs>
<linearGradient id="paint0_linear_1899_13951" x1="12.5" y1="1" x2="12.5" y2="23" gradientUnits="userSpaceOnUse">
<stop stop-color="#F4F7F6"/>
<stop offset="1" stop-color="#D8D8D8"/>
</linearGradient>
<linearGradient id="paint1_linear_1899_13951" x1="17.6944" y1="2.97222" x2="15.247" y2="10.6143" gradientUnits="userSpaceOnUse">
<stop stop-color="#94E1FC"/>
<stop offset="1" stop-color="#FCFCFC"/>
</linearGradient>
<clipPath id="clip0_1899_13951">
<rect width="24" height="24" fill="white"/>
</clipPath>
<clipPath id="clip1_1899_13951">
<rect width="11" height="12" fill="white" transform="translate(0 12)"/>
</clipPath>
</defs>
</svg>
