<svg width="24" height="24" viewBox="0 0 24 24" fill="none" xmlns="http://www.w3.org/2000/svg">
<g clip-path="url(#clip0_1899_14147)">
<path d="M0 2H24V19H21V22H3V19H0V2Z" fill="#FCFCFC" fill-opacity="0.75"/>
<path d="M1.5 3.5H22.5V17.5H1.5V3.5Z" fill="#94E1FC" stroke="#919191"/>
<rect x="4" y="20" width="16" height="1" fill="#3A3A3A"/>
<rect x="10" y="18" width="4" height="2" fill="#3A3A3A"/>
<g clip-path="url(#clip1_1899_14147)">
<circle cx="5.5" cy="16.5" r="3.5" fill="#FCFCFC" fill-opacity="0.75"/>
<path d="M0 23C0 20.7909 1.79086 19 4 19H7C9.20914 19 11 20.7909 11 23V24H0V23Z" fill="#FCFCFC" fill-opacity="0.75"/>
<path d="M6.4 20H4.6C2.35 20 1 21.25 1 22.5V23H3V22H4V23H7V22H8V23H9.99983L10 22.5C9.99983 21.25 8.65 20 6.4 20Z" fill="#3A3A3A"/>
<circle cx="5.5" cy="16.5" r="2.5" fill="#3A3A3A"/>
</g>
</g>
<defs>
<clipPath id="clip0_1899_14147">
<rect width="24" height="24" fill="white"/>
</clipPath>
<clipPath id="clip1_1899_14147">
<rect width="11" height="11" fill="white" transform="translate(0 13)"/>
</clipPath>
</defs>
</svg>
