<svg width="24" height="24" viewBox="0 0 24 24" fill="none" xmlns="http://www.w3.org/2000/svg">
<path d="M9 4H24V23H2V22H1V21H0V2H1V1H2V0H9V4Z" fill="#FCFCFC" fill-opacity="0.75"/>
<path d="M1 3H2V2H3V1H7V15H4V17H1V3Z" fill="url(#paint0_linear_1900_13739)"/>
<path d="M7 5H23V22H3V21H2V20H1V17H2V16H3V15H7V5Z" fill="url(#paint1_linear_1900_13739)"/>
<path d="M7 5H23V6H8V16H4V17H3V18H2V19H3V20H4V21V22H3V21H2V20H1V17H2V16H3V15H7V6V5Z" fill="#919191"/>
<path d="M4 21H22V5H23V22H4V21Z" fill="#919191"/>
<path d="M7 1H8V6H7V2H4V3H3V4H2V17H1V4V3H2V2H3V1H7Z" fill="#919191"/>
<g clip-path="url(#clip0_1900_13739)">
<path d="M11 9H17V18H16V10H12V18H11V9Z" fill="#3A3A3A"/>
<path d="M11 8.5H10.5V9V18V18.5H11H12H12.5V18V10.5H15.5V18V18.5H16H17H17.5V18V9V8.5H17H11Z" stroke="#FCFCFC" stroke-opacity="0.75"/>
</g>
<defs>
<linearGradient id="paint0_linear_1900_13739" x1="3" y1="9" x2="1" y2="9" gradientUnits="userSpaceOnUse">
<stop stop-color="#FCFCFC"/>
<stop offset="1" stop-color="#919191"/>
</linearGradient>
<linearGradient id="paint1_linear_1900_13739" x1="8.33333" y1="13.5" x2="1" y2="13.5" gradientUnits="userSpaceOnUse">
<stop stop-color="#FCFCFC"/>
<stop offset="1" stop-color="#919191"/>
</linearGradient>
<clipPath id="clip0_1900_13739">
<rect width="8" height="11" fill="white" transform="translate(10 8)"/>
</clipPath>
</defs>
</svg>
