<svg width="24" height="24" viewBox="0 0 24 24" fill="none" xmlns="http://www.w3.org/2000/svg">
<g clip-path="url(#clip0_1902_13748)">
<g clip-path="url(#clip1_1902_13748)">
<path d="M15 6V0H20V6H24V14H22V17H24V24H0V10H9V18H13V13H11V6H15Z" fill="#FCFCFC" fill-opacity="0.75"/>
<path d="M1 19H23V22H22V20H20V22H16V20H14V22H10V20H8V22H4V20H2V22H1V19Z" fill="#3A3A3A"/>
<path d="M1 22H23V23H1V22Z" fill="#3A3A3A"/>
<rect x="14.5" y="11.5" width="6" height="6" fill="url(#paint0_linear_1902_13748)" stroke="#919191"/>
<rect x="1.5" y="11.5" width="6" height="6" fill="url(#paint1_linear_1902_13748)" stroke="#919191"/>
<path d="M16 1H19V5H18V7H23V13H22V9H13V12H12V7H17V5H16V1Z" fill="#3A3A3A"/>
<rect x="17" y="2" width="1" height="2" fill="#D8D8D8"/>
<rect x="13" y="8" width="9" height="1" fill="#919191"/>
</g>
</g>
<defs>
<linearGradient id="paint0_linear_1902_13748" x1="17.5" y1="11" x2="17.5" y2="18" gradientUnits="userSpaceOnUse">
<stop stop-color="#F4F7F6"/>
<stop offset="1" stop-color="#D8D8D8"/>
</linearGradient>
<linearGradient id="paint1_linear_1902_13748" x1="4.5" y1="11" x2="4.5" y2="18" gradientUnits="userSpaceOnUse">
<stop stop-color="#F4F7F6"/>
<stop offset="1" stop-color="#D8D8D8"/>
</linearGradient>
<clipPath id="clip0_1902_13748">
<rect width="24" height="24" fill="white"/>
</clipPath>
<clipPath id="clip1_1902_13748">
<rect width="24" height="24" fill="white"/>
</clipPath>
</defs>
</svg>
