<svg width="24" height="24" viewBox="0 0 24 24" fill="none" xmlns="http://www.w3.org/2000/svg">
<g clip-path="url(#clip0_1904_13638)">
<path d="M6 4.5V9.5L11 13H12L17 9.5V4.5L12 1H11L6 4.5Z" fill="#FCFCFC" fill-opacity="0.75"/>
<path d="M7 9L11.5 12L16 9V5L11.5 2L7 5V9Z" fill="url(#paint0_linear_1904_13638)"/>
<path d="M15.5 8.73241L11.5 11.3991L7.5 8.73241V5.26759L11.5 2.60093L15.5 5.26759V8.73241Z" stroke="#919191"/>
</g>
<g clip-path="url(#clip1_1904_13638)">
<path d="M12 14.5V19.5L17 23H18L23 19.5V14.5L18 11H17L12 14.5Z" fill="#FCFCFC" fill-opacity="0.75"/>
<path d="M13 19L17.5 22L22 19V15L17.5 12L13 15V19Z" fill="url(#paint1_linear_1904_13638)"/>
<path d="M21.5 18.7324L17.5 21.3991L13.5 18.7324V15.2676L17.5 12.6009L21.5 15.2676V18.7324Z" stroke="#919191"/>
</g>
<g clip-path="url(#clip2_1904_13638)">
<path d="M0 13H3V14H8V20H3V24H0V13Z" fill="#FCFCFC" fill-opacity="0.75"/>
<rect x="1" y="15" width="6" height="4" fill="#00A1DB"/>
<rect x="1" y="14" width="1" height="9" fill="#00A1DB"/>
</g>
<defs>
<linearGradient id="paint0_linear_1904_13638" x1="14.25" y1="3.38889" x2="8.29502" y2="10.2796" gradientUnits="userSpaceOnUse">
<stop stop-color="#94E1FC"/>
<stop offset="1" stop-color="#FCFCFC"/>
</linearGradient>
<linearGradient id="paint1_linear_1904_13638" x1="20.25" y1="13.3889" x2="14.295" y2="20.2796" gradientUnits="userSpaceOnUse">
<stop stop-color="#94E1FC"/>
<stop offset="1" stop-color="#FCFCFC"/>
</linearGradient>
<clipPath id="clip0_1904_13638">
<rect width="11" height="12" fill="white" transform="translate(6 1)"/>
</clipPath>
<clipPath id="clip1_1904_13638">
<rect width="11" height="12" fill="white" transform="translate(12 11)"/>
</clipPath>
<clipPath id="clip2_1904_13638">
<rect width="8" height="11" fill="white" transform="translate(0 13)"/>
</clipPath>
</defs>
</svg>
