<svg width="24" height="24" viewBox="0 0 24 24" fill="none" xmlns="http://www.w3.org/2000/svg">
<g clip-path="url(#clip0_1908_13695)">
<path d="M5 1H20L23 4V22H22V23H3V22H2V4L5 1Z" fill="#FCFCFC" fill-opacity="0.75"/>
<path d="M4 20.5H3.5V5.5H21.5V20.5H21H20.5V21V21.5H4.5V21V20.5H4Z" fill="url(#paint0_linear_1908_13695)" stroke="#919191"/>
<path d="M9.5 9.5V9V8.5H15.5V9V9.5V10V10.5H9.5V10V9.5Z" fill="#3A3A3A" stroke="#919191"/>
<path d="M3.5 5.20711L6.20711 2.5H18.7929L21.5 5.20711V5.5H3.5V5.20711Z" fill="#D8D8D8" stroke="#919191"/>
<path d="M12 3H13V6H12V3Z" fill="#919191"/>
<g clip-path="url(#clip1_1908_13695)">
<circle cx="5.5" cy="16.5" r="3.5" fill="#FCFCFC" fill-opacity="0.75"/>
<path d="M0 23C0 20.7909 1.79086 19 4 19H7C9.20914 19 11 20.7909 11 23V24H0V23Z" fill="#FCFCFC" fill-opacity="0.75"/>
<path d="M6.4 20H4.6C2.35 20 1 21.25 1 22.5V23H3V22H4V23H7V22H8V23H9.99983L10 22.5C9.99983 21.25 8.65 20 6.4 20Z" fill="#00A1DB"/>
<circle cx="5.5" cy="16.5" r="2.5" fill="#00A1DB"/>
</g>
</g>
<defs>
<linearGradient id="paint0_linear_1908_13695" x1="12.5" y1="5" x2="12.5" y2="22" gradientUnits="userSpaceOnUse">
<stop stop-color="#F4F7F6"/>
<stop offset="1" stop-color="#D8D8D8"/>
</linearGradient>
<clipPath id="clip0_1908_13695">
<rect width="24" height="24" fill="white"/>
</clipPath>
<clipPath id="clip1_1908_13695">
<rect width="11" height="11" fill="white" transform="translate(0 13)"/>
</clipPath>
</defs>
</svg>
