<svg width="24" height="24" viewBox="0 0 24 24" fill="none" xmlns="http://www.w3.org/2000/svg">
<g clip-path="url(#clip0_1912_14131)">
<path d="M9 1C13 1 11 1 15 1C19 1 23 3 23 4C23 5 23 19 23 20C23 21 20 23 15 23C10 23 14 23 9 23C4 23 1 21 1 20C1 19 1 5 1 4C1 3 5 1 9 1Z" fill="#FCFCFC" fill-opacity="0.75"/>
<path d="M2.5 16.5V19.5" stroke="#919191"/>
<path d="M21.5 19.5C21.5 19.5593 21.4399 19.7589 20.9597 20.0427C20.5131 20.3067 19.8334 20.5618 18.9498 20.7827C17.1902 21.2226 14.7329 21.5 12 21.5C9.26714 21.5 6.80979 21.2226 5.0502 20.7827C4.16656 20.5618 3.48693 20.3067 3.04026 20.0427C2.56012 19.7589 2.5 19.5593 2.5 19.5C2.5 19.4407 2.56012 19.2411 3.04026 18.9573C3.48693 18.6933 4.16656 18.4382 5.0502 18.2173C6.80979 17.7774 9.26714 17.5 12 17.5C14.7329 17.5 17.1902 17.7774 18.9498 18.2173C19.8334 18.4382 20.5131 18.6933 20.9597 18.9573C21.4399 19.2411 21.5 19.4407 21.5 19.5Z" stroke="#919191"/>
<path d="M2 16.5L12 18.5L22 16.5L21 19.5C21 19.5 19.1406 21 12 21C4.85938 21 3 19.5 3 19.5L2 16.5Z" fill="#EA212D"/>
<path d="M2 16.5L12 18.5L22 16.5L21 19.5C21 19.5 19.1406 21 12 21C4.85938 21 3 19.5 3 19.5L2 16.5Z" fill="#919191"/>
<path d="M21.5 16.5V19.5" stroke="#919191"/>
<ellipse cx="12" cy="16.5" rx="10" ry="2.5" fill="#D8D8D8"/>
<path d="M20 16.2857C20 17.5481 15 18 12 18C9 18 4 17.5481 4 16.2857C4 14 7.58172 14 12 14C16.4183 14 20 14 20 16.2857Z" fill="#94E1FC"/>
<rect x="4" y="13" width="16" height="3" fill="#94E1FC"/>
<path d="M2.5 10.5V13.5" stroke="#919191"/>
<path d="M21.5 13.5C21.5 13.5593 21.4399 13.7589 20.9597 14.0427C20.5131 14.3067 19.8334 14.5618 18.9498 14.7827C17.1902 15.2226 14.7329 15.5 12 15.5C9.26714 15.5 6.80979 15.2226 5.0502 14.7827C4.16656 14.5618 3.48693 14.3067 3.04026 14.0427C2.56012 13.7589 2.5 13.5593 2.5 13.5C2.5 13.4407 2.56012 13.2411 3.04026 12.9573C3.48693 12.6933 4.16656 12.4382 5.0502 12.2173C6.80979 11.7774 9.26714 11.5 12 11.5C14.7329 11.5 17.1902 11.7774 18.9498 12.2173C19.8334 12.4382 20.5131 12.6933 20.9597 12.9573C21.4399 13.2411 21.5 13.4407 21.5 13.5Z" stroke="#919191"/>
<path d="M2 10.5L12 12.5L22 10.5L21 13.5C21 13.5 19.1406 15 12 15C4.85938 15 3 13.5 3 13.5L2 10.5Z" fill="#EA212D"/>
<path d="M2 10.5L12 12.5L22 10.5L21 13.5C21 13.5 19.1406 15 12 15C4.85938 15 3 13.5 3 13.5L2 10.5Z" fill="#919191"/>
<path d="M21.5 10.5V13.5" stroke="#919191"/>
<ellipse cx="12" cy="10.5" rx="10" ry="2.5" fill="#D8D8D8"/>
<path d="M20 10.2857C20 11.5481 15 12 12 12C9 12 4 11.5481 4 10.2857C4 8 7.58172 8 12 8C16.4183 8 20 8 20 10.2857Z" fill="#94E1FC"/>
<rect x="4" y="7" width="16" height="3" fill="#94E1FC"/>
<path d="M2.5 4.5V7.5" stroke="#919191"/>
<path d="M21.5 7.5C21.5 7.55926 21.4399 7.75888 20.9597 8.04268C20.5131 8.30669 19.8334 8.56178 18.9498 8.7827C17.1902 9.22259 14.7329 9.5 12 9.5C9.26714 9.5 6.80979 9.22259 5.0502 8.7827C4.16656 8.56178 3.48693 8.30669 3.04026 8.04268C2.56012 7.75888 2.5 7.55926 2.5 7.5C2.5 7.44074 2.56012 7.24112 3.04026 6.95732C3.48693 6.69331 4.16656 6.43821 5.0502 6.2173C6.80979 5.77741 9.26714 5.5 12 5.5C14.7329 5.5 17.1902 5.77741 18.9498 6.2173C19.8334 6.43821 20.5131 6.69331 20.9597 6.95732C21.4399 7.24112 21.5 7.44074 21.5 7.5Z" stroke="#919191"/>
<path d="M2 4.5L12 6.5L22 4.5L21 7.5C21 7.5 19.1406 9 12 9C4.85938 9 3 7.5 3 7.5L2 4.5Z" fill="#EA212D"/>
<path d="M2 4.5L12 6.5L22 4.5L21 7.5C21 7.5 19.1406 9 12 9C4.85938 9 3 7.5 3 7.5L2 4.5Z" fill="#919191"/>
<path d="M21.5 4.5V7.5" stroke="#919191"/>
<ellipse cx="12" cy="4.5" rx="10" ry="2.5" fill="#D8D8D8"/>
</g>
<defs>
<clipPath id="clip0_1912_14131">
<rect width="22" height="22" fill="white" transform="translate(1 1)"/>
</clipPath>
</defs>
</svg>
