<svg width="24" height="24" viewBox="0 0 24 24" fill="none" xmlns="http://www.w3.org/2000/svg">
<g clip-path="url(#clip0_1913_13738)">
<path d="M5 1H20L23 4V22H22V23H3V22H2V4L5 1Z" fill="#FCFCFC" fill-opacity="0.75"/>
<path d="M4 20.5H3.5V5.5H21.5V20.5H21H20.5V21V21.5H4.5V21V20.5H4Z" fill="url(#paint0_linear_1913_13738)" stroke="#919191"/>
<path d="M9.5 9.5V9V8.5H15.5V9V9.5V10V10.5H9.5V10V9.5Z" fill="#3A3A3A" stroke="#919191"/>
<path d="M3.5 5.20711L6.20711 2.5H18.7929L21.5 5.20711V5.5H3.5V5.20711Z" fill="#D8D8D8" stroke="#919191"/>
<path d="M12 3H13V6H12V3Z" fill="#919191"/>
<g clip-path="url(#clip1_1913_13738)">
<path d="M0 15H11V24H0V15Z" fill="#FCFCFC" fill-opacity="0.75"/>
<path d="M1.5 16.5H9.5V19.5V22.5H1.5V16.5Z" fill="url(#paint1_linear_1913_13738)" stroke="#00A1DB"/>
<rect x="1" y="18" width="9" height="2" fill="#00A1DB"/>
</g>
</g>
<defs>
<linearGradient id="paint0_linear_1913_13738" x1="12.5" y1="5" x2="12.5" y2="22" gradientUnits="userSpaceOnUse">
<stop stop-color="#F4F7F6"/>
<stop offset="1" stop-color="#D8D8D8"/>
</linearGradient>
<linearGradient id="paint1_linear_1913_13738" x1="8.25" y1="16.9722" x2="4.51841" y2="23.1408" gradientUnits="userSpaceOnUse">
<stop stop-color="#94E1FC"/>
<stop offset="1" stop-color="#FCFCFC"/>
</linearGradient>
<clipPath id="clip0_1913_13738">
<rect width="24" height="24" fill="white"/>
</clipPath>
<clipPath id="clip1_1913_13738">
<rect width="11" height="9" fill="white" transform="translate(0 15)"/>
</clipPath>
</defs>
</svg>
