<svg width="24" height="24" viewBox="0 0 24 24" fill="none" xmlns="http://www.w3.org/2000/svg">
<g clip-path="url(#clip0_1917_13335)">
<circle cx="6.5" cy="15.5" r="3.5" fill="#FCFCFC" fill-opacity="0.75"/>
<path d="M1 22C1 19.7909 2.79086 18 5 18H8C10.2091 18 12 19.7909 12 22V23H1V22Z" fill="#FCFCFC" fill-opacity="0.75"/>
<path d="M7.4 19H5.6C3.35 19 2 20.25 2 21.5V22H4V21H5V22H8V21H9V22H10.9998L11 21.5C10.9998 20.25 9.65 19 7.4 19Z" fill="#919191"/>
<circle cx="6.5" cy="15.5" r="2.5" fill="#919191"/>
</g>
<g clip-path="url(#clip1_1917_13335)">
<circle cx="18.5" cy="15.5" r="3.5" fill="#FCFCFC" fill-opacity="0.75"/>
<path d="M13 22C13 19.7909 14.7909 18 17 18H20C22.2091 18 24 19.7909 24 22V23H13V22Z" fill="#FCFCFC" fill-opacity="0.75"/>
<path d="M19.4 19H17.6C15.35 19 14 20.25 14 21.5V22H16V21H17V22H20V21H21V22H22.9998L23 21.5C22.9998 20.25 21.65 19 19.4 19Z" fill="#919191"/>
<circle cx="18.5" cy="15.5" r="2.5" fill="#919191"/>
</g>
<g clip-path="url(#clip2_1917_13335)">
<path d="M7 2H10V1H14V2H17V5H18V9H17V12H14V13H10V12H7V9H6V5H7V2Z" fill="#FCFCFC" fill-opacity="0.75"/>
<rect x="8" y="3" width="2" height="2" fill="#3A3A3A"/>
<rect x="8" y="9" width="2" height="2" fill="#3A3A3A"/>
<rect x="14" y="9" width="2" height="2" fill="#3A3A3A"/>
<rect x="14" y="3" width="2" height="2" fill="#3A3A3A"/>
<rect x="11" y="2" width="2" height="2" fill="#3A3A3A"/>
<rect x="15" y="6" width="2" height="2" fill="#3A3A3A"/>
<rect x="11" y="10" width="2" height="2" fill="#3A3A3A"/>
<rect x="7" y="6" width="2" height="2" fill="#3A3A3A"/>
<rect x="9" y="4" width="6" height="6" fill="#3A3A3A"/>
<path d="M11 6H13V8H11V6Z" fill="#FCFCFC"/>
</g>
<defs>
<clipPath id="clip0_1917_13335">
<rect width="11" height="11" fill="white" transform="translate(1 12)"/>
</clipPath>
<clipPath id="clip1_1917_13335">
<rect width="11" height="11" fill="white" transform="translate(13 12)"/>
</clipPath>
<clipPath id="clip2_1917_13335">
<rect width="12" height="12" fill="white" transform="translate(6 1)"/>
</clipPath>
</defs>
</svg>
