<svg width="24" height="24" viewBox="0 0 24 24" fill="none" xmlns="http://www.w3.org/2000/svg">
<g clip-path="url(#clip0_1921_13213)">
<rect y="2" width="24" height="20" fill="#FCFCFC" fill-opacity="0.75"/>
<rect x="1.5" y="3.5" width="21" height="17" fill="#FCFCFC" stroke="#919191"/>
</g>
<path d="M11 8V7H16V14H15V15H14V16H13V17H12V18H9V10H10V8H11Z" fill="#FCFCFC" fill-opacity="0.75"/>
<rect x="10" y="12" width="5" height="1" fill="#3A3A3A"/>
<rect x="10" y="15" width="2" height="1" fill="#3A3A3A"/>
<rect x="10" y="16" width="1" height="1" fill="#3A3A3A"/>
<rect x="11" y="14" width="2" height="1" fill="#3A3A3A"/>
<rect x="12" y="13" width="2" height="1" fill="#3A3A3A"/>
<rect x="10" y="11" width="3" height="1" fill="#3A3A3A"/>
<rect x="11" y="10" width="3" height="1" fill="#3A3A3A"/>
<rect x="11" y="9" width="4" height="1" fill="#3A3A3A"/>
<rect x="12" y="8" width="3" height="1" fill="#3A3A3A"/>
<defs>
<clipPath id="clip0_1921_13213">
<rect width="24" height="20" fill="white" transform="translate(0 2)"/>
</clipPath>
</defs>
</svg>
