<svg width="24" height="24" viewBox="0 0 24 24" fill="none" xmlns="http://www.w3.org/2000/svg">
<g clip-path="url(#clip0_1922_13281)">
<path d="M4 1V0H21V1H22V23H21V24H4V23H3V1H4Z" fill="#FCFCFC" fill-opacity="0.75"/>
<path d="M5 2.5H5.5V2V1.5H19.5V2V2.5H20H20.5V21.5H20H19.5V22V22.5H5.5V22V21.5H5H4.5V2.5H5Z" fill="url(#paint0_linear_1922_13281)" stroke="#919191"/>
<rect x="4.5" y="2.5" width="16" height="6" fill="url(#paint1_linear_1922_13281)" stroke="#919191"/>
<rect x="17" y="4" width="1" height="3" fill="#919191"/>
<rect x="7" y="18" width="3" height="2" fill="#3A3A3A"/>
<rect x="7" y="14" width="3" height="2" fill="#3A3A3A"/>
<rect x="7" y="10" width="3" height="2" fill="#3A3A3A"/>
<rect x="11" y="18" width="3" height="2" fill="#3A3A3A"/>
<rect x="11" y="14" width="3" height="2" fill="#3A3A3A"/>
<rect x="11" y="10" width="3" height="2" fill="#3A3A3A"/>
<rect x="15" y="10" width="3" height="2" fill="#3A3A3A"/>
<rect x="15" y="18" width="3" height="2" fill="#3A3A3A"/>
<rect x="15" y="14" width="3" height="2" fill="#3A3A3A"/>
<rect x="7" y="10" width="3" height="1" fill="#919191"/>
<rect x="7" y="14" width="3" height="1" fill="#919191"/>
<rect x="7" y="18" width="3" height="1" fill="#919191"/>
<rect x="11" y="10" width="3" height="1" fill="#919191"/>
<rect x="11" y="14" width="3" height="1" fill="#919191"/>
<rect x="11" y="18" width="3" height="1" fill="#919191"/>
<rect x="15" y="10" width="3" height="1" fill="#919191"/>
<rect x="15" y="14" width="3" height="1" fill="#919191"/>
<rect x="15" y="18" width="3" height="1" fill="#919191"/>
<path d="M2 14V13H7V20H6V21H5V22H4V23H3V24H0V16H1V14H2Z" fill="#FCFCFC" fill-opacity="0.75"/>
<rect x="1" y="18" width="5" height="1" fill="#00A1DB"/>
<rect x="1" y="21" width="2" height="1" fill="#00A1DB"/>
<rect x="1" y="22" width="1" height="1" fill="#00A1DB"/>
<rect x="2" y="20" width="2" height="1" fill="#00A1DB"/>
<rect x="3" y="19" width="2" height="1" fill="#00A1DB"/>
<rect x="1" y="17" width="3" height="1" fill="#00A1DB"/>
<rect x="2" y="16" width="3" height="1" fill="#00A1DB"/>
<rect x="2" y="15" width="4" height="1" fill="#00A1DB"/>
<rect x="3" y="14" width="3" height="1" fill="#00A1DB"/>
</g>
<defs>
<linearGradient id="paint0_linear_1922_13281" x1="12.5" y1="1" x2="12.5" y2="23" gradientUnits="userSpaceOnUse">
<stop stop-color="#F4F7F6"/>
<stop offset="1" stop-color="#D8D8D8"/>
</linearGradient>
<linearGradient id="paint1_linear_1922_13281" x1="17.6944" y1="2.97222" x2="15.247" y2="10.6143" gradientUnits="userSpaceOnUse">
<stop stop-color="#94E1FC"/>
<stop offset="1" stop-color="#FCFCFC"/>
</linearGradient>
<clipPath id="clip0_1922_13281">
<rect width="24" height="24" fill="white"/>
</clipPath>
</defs>
</svg>
