<svg width="24" height="24" viewBox="0 0 24 24" fill="none" xmlns="http://www.w3.org/2000/svg">
<g clip-path="url(#clip0_1923_13208)">
<rect y="1" width="24" height="22" fill="#FCFCFC" fill-opacity="0.75"/>
<rect x="1.5" y="4.5" width="21" height="17" fill="#FCFCFC" stroke="#919191"/>
<rect x="1.5" y="2.5" width="21" height="3" fill="#94E1FC" stroke="#3A3A3A"/>
<rect x="2" y="3" width="20" height="1" fill="#00A1DB"/>
</g>
<rect x="10" y="9" width="10" height="1" fill="#919191"/>
<rect x="10" y="15" width="10" height="1" fill="#919191"/>
<rect x="14" y="11" width="6" height="1" fill="#919191"/>
<rect x="14" y="17" width="6" height="1" fill="#919191"/>
<g clip-path="url(#clip1_1923_13208)">
<path d="M3 7H7V11H8V14H3V11H4V10H3V7Z" fill="#FCFCFC" fill-opacity="0.75"/>
<rect x="5" y="8" width="1" height="5" fill="#00A1DB"/>
<rect x="4" y="12" width="3" height="1" fill="#00A1DB"/>
<rect x="4" y="8" width="2" height="1" fill="#00A1DB"/>
</g>
<g clip-path="url(#clip2_1923_13208)">
<rect x="3" y="13" width="5" height="7" fill="#FCFCFC" fill-opacity="0.75"/>
<rect x="6" y="14" width="1" height="3" fill="#00A1DB"/>
<rect x="4" y="16" width="1" height="3" fill="#00A1DB"/>
<rect x="4" y="18" width="3" height="1" fill="#00A1DB"/>
<rect x="4" y="14" width="3" height="1" fill="#00A1DB"/>
<rect x="4" y="16" width="3" height="1" fill="#00A1DB"/>
</g>
<defs>
<clipPath id="clip0_1923_13208">
<rect width="24" height="22" fill="white" transform="translate(0 1)"/>
</clipPath>
<clipPath id="clip1_1923_13208">
<rect width="5" height="7" fill="white" transform="translate(3 7)"/>
</clipPath>
<clipPath id="clip2_1923_13208">
<rect width="5" height="7" fill="white" transform="translate(3 13)"/>
</clipPath>
</defs>
</svg>
