<svg width="24" height="24" viewBox="0 0 24 24" fill="none" xmlns="http://www.w3.org/2000/svg">
<g clip-path="url(#clip0_1923_13343)">
<path d="M10 2H13L16 10V11H7V10L10 2Z" fill="#FCFCFC" fill-opacity="0.75"/>
<path d="M10 1.5H9.6535L9.53184 1.82444L6.53184 9.82444L6.5 9.90933V10V11V11.5H7H16H16.5V11V10V9.90933L16.4682 9.82444L13.4682 1.82444L13.3465 1.5H13H10Z" stroke="#FCFCFC" stroke-opacity="0.75"/>
<path d="M7.5 10.0907L10.3465 2.5H12.6535L15.5 10.0907V10.5H7.5V10.0907Z" fill="#94E1FC" stroke="#00A1DB"/>
<path d="M16 13H19L22 21V22H13V21L16 13Z" fill="#FCFCFC" fill-opacity="0.75"/>
<path d="M16 12.5H15.6535L15.5318 12.8244L12.5318 20.8244L12.5 20.9093V21V22V22.5H13H22H22.5V22V21V20.9093L22.4682 20.8244L19.4682 12.8244L19.3465 12.5H19H16Z" stroke="#FCFCFC" stroke-opacity="0.75"/>
<path d="M13.5 21.0907L16.3465 13.5H18.6535L21.5 21.0907V21.5H13.5V21.0907Z" fill="#94E1FC" stroke="#00A1DB"/>
<g clip-path="url(#clip1_1923_13343)">
<path fill-rule="evenodd" clip-rule="evenodd" d="M1 14H9.00049V16H7V15H3V16H4V17H5V18H6V19H5V20H4V21H3V22H7V21H9.00049V23H1V21H2V20H3V19H4V18H3V17H2V16H1V14Z" fill="#3A3A3A"/>
<path d="M1 13.5H0.5V14V16V16.5H1H1.5V17V17.5H2H2.5V18V18.5V19V19.5H2H1.5V20V20.5H1H0.5V21V23V23.5H1H9.00049H9.50049V23V21V20.5H9.00049H7H6.5V21V21.5H4.5V21V20.5H5H5.5V20V19.5H6H6.5V19V18V17.5H6H5.5V17V16.5H5H4.5V16V15.5H6.5V16V16.5H7H9.00049H9.50049V16V14V13.5H9.00049H1Z" stroke="#FCFCFC" stroke-opacity="0.75"/>
</g>
</g>
<defs>
<clipPath id="clip0_1923_13343">
<rect width="24" height="24" fill="white"/>
</clipPath>
<clipPath id="clip1_1923_13343">
<rect width="10" height="11" fill="white" transform="translate(0 13)"/>
</clipPath>
</defs>
</svg>
