<svg width="24" height="24" viewBox="0 0 24 24" fill="none" xmlns="http://www.w3.org/2000/svg">
<g clip-path="url(#clip0_1924_12845)">
<rect y="2" width="24" height="20" fill="#FCFCFC" fill-opacity="0.75"/>
<rect x="1.5" y="3.5" width="21" height="17" fill="#FCFCFC" stroke="#919191"/>
</g>
<g clip-path="url(#clip1_1924_12845)">
<path d="M18 14V17H17V18H16V19H13V17H11V16H10V15H9V16H8V17H3V14H6V13H7V12H6V11H5V10H3V7H7V8H8V9H9V10H10V9H11V8H12V7H16V5H19V6H20V7H21V10H20V11H19V12H16V10H14V11H13V12H12V13H13V12H16V13H17V14H18Z" fill="#FCFCFC" fill-opacity="0.75"/>
<rect x="19" y="9" width="1" height="1" transform="rotate(-90 19 9)" fill="#3A3A3A"/>
<rect x="18" y="10" width="3" height="1" transform="rotate(-90 18 10)" fill="#3A3A3A"/>
<rect x="17" y="11" width="5" height="1" transform="rotate(-90 17 11)" fill="#3A3A3A"/>
<rect width="1" height="1" transform="matrix(1 0 0 -1 12 10)" fill="#3A3A3A"/>
<rect width="1" height="1" transform="matrix(1 0 0 -1 11 11)" fill="#3A3A3A"/>
<rect width="1" height="1" transform="matrix(1 0 0 -1 10 12)" fill="#3A3A3A"/>
<rect width="1" height="1" transform="matrix(1 0 0 -1 9 13)" fill="#3A3A3A"/>
<rect width="1" height="1" transform="matrix(1 0 0 -1 8 14)" fill="#3A3A3A"/>
<rect width="1" height="1" transform="matrix(1 0 0 -1 7 15)" fill="#3A3A3A"/>
<rect width="1" height="1" transform="matrix(1 0 0 -1 6 16)" fill="#3A3A3A"/>
<rect width="2" height="1" transform="matrix(1 0 0 -1 4 16)" fill="#3A3A3A"/>
<rect x="17" y="9" width="4" height="1" transform="rotate(-180 17 9)" fill="#3A3A3A"/>
<rect x="11" y="14" width="1" height="1" fill="#3A3A3A"/>
<rect x="10" y="13" width="1" height="1" fill="#3A3A3A"/>
<rect x="9" y="12" width="1" height="1" fill="#3A3A3A"/>
<rect x="8" y="11" width="1" height="1" fill="#3A3A3A"/>
<rect x="7" y="10" width="1" height="1" fill="#3A3A3A"/>
<rect x="6" y="9" width="1" height="1" fill="#3A3A3A"/>
<rect x="5" y="8" width="1" height="1" fill="#3A3A3A"/>
<rect x="4" y="8" width="2" height="1" fill="#3A3A3A"/>
<rect x="12" y="15" width="2" height="1" fill="#3A3A3A"/>
<rect width="1" height="1" transform="matrix(4.37114e-08 1 1 -4.37114e-08 16 15)" fill="#3A3A3A"/>
<rect width="3" height="1" transform="matrix(4.37114e-08 1 1 -4.37114e-08 15 14)" fill="#3A3A3A"/>
<rect width="5" height="1" transform="matrix(4.37114e-08 1 1 -4.37114e-08 14 13)" fill="#3A3A3A"/>
</g>
<defs>
<clipPath id="clip0_1924_12845">
<rect width="24" height="20" fill="white" transform="translate(0 2)"/>
</clipPath>
<clipPath id="clip1_1924_12845">
<rect width="18" height="14" fill="white" transform="translate(3 5)"/>
</clipPath>
</defs>
</svg>
