<svg width="24" height="24" viewBox="0 0 24 24" fill="none" xmlns="http://www.w3.org/2000/svg">
<g clip-path="url(#clip0_1926_13080)">
<g clip-path="url(#clip1_1926_13080)">
<rect x="22" width="24" height="20" transform="rotate(90 22 0)" fill="#FCFCFC" fill-opacity="0.75"/>
<rect x="20.5" y="1.5" width="21" height="17" transform="rotate(90 20.5 1.5)" fill="#FCFCFC" stroke="#919191"/>
</g>
<g clip-path="url(#clip2_1926_13080)">
<path d="M1 14V13H7V14H11V20H5V16H3V17H0V14H1Z" fill="#FCFCFC" fill-opacity="0.75"/>
<rect x="1" y="15" width="1" height="1" fill="#00A1DB"/>
<rect x="6" y="15" width="1" height="1" fill="#00A1DB"/>
<rect x="2" y="14" width="4" height="1" fill="#00A1DB"/>
<rect x="7" y="16" width="2" height="2" fill="#00A1DB"/>
<rect x="9" y="15" width="1" height="4" fill="#00A1DB"/>
<rect x="6" y="18" width="4" height="1" fill="#00A1DB"/>
</g>
<g clip-path="url(#clip3_1926_13080)">
<path d="M10 23V24H4V23H0V17H6V21H8V20H11V23H10Z" fill="#FCFCFC" fill-opacity="0.75"/>
<rect x="10" y="22" width="1" height="1" transform="rotate(180 10 22)" fill="#00A1DB"/>
<rect x="5" y="22" width="1" height="1" transform="rotate(180 5 22)" fill="#00A1DB"/>
<rect x="9" y="23" width="4" height="1" transform="rotate(180 9 23)" fill="#00A1DB"/>
<rect x="4" y="21" width="2" height="2" transform="rotate(180 4 21)" fill="#00A1DB"/>
<rect x="2" y="22" width="1" height="4" transform="rotate(180 2 22)" fill="#00A1DB"/>
<rect x="5" y="19" width="4" height="1" transform="rotate(180 5 19)" fill="#00A1DB"/>
</g>
<g clip-path="url(#clip4_1926_13080)">
<path d="M13 1H17V2H18V3H19V2H20V1H21V0H24V3H23V5H22V6H21V8H20V9H17V8H16V7H15V6H14V5H13V1Z" fill="#FCFCFC" fill-opacity="0.75"/>
<path d="M18 4V5H19V4H20V3H21V2H22V1H23V2H22V4H21V5H20V7H19V8H18V7H17V6H16V5H15V4H14V2H16V3H17V4H18Z" fill="#3A3A3A"/>
<rect x="14" y="6" width="1" height="1" fill="#FCFCFC" fill-opacity="0.75"/>
</g>
<rect x="3" y="16" width="1" height="1" fill="#FCFCFC" fill-opacity="0.75"/>
<rect x="17" y="1" width="3" height="1" fill="#FCFCFC" fill-opacity="0.75"/>
</g>
<defs>
<clipPath id="clip0_1926_13080">
<rect width="24" height="24" fill="white"/>
</clipPath>
<clipPath id="clip1_1926_13080">
<rect width="24" height="20" fill="white" transform="translate(22) rotate(90)"/>
</clipPath>
<clipPath id="clip2_1926_13080">
<rect width="11" height="7" fill="white" transform="translate(0 13)"/>
</clipPath>
<clipPath id="clip3_1926_13080">
<rect width="11" height="7" fill="white" transform="matrix(-1 0 0 -1 11 24)"/>
</clipPath>
<clipPath id="clip4_1926_13080">
<rect width="11" height="9" fill="white" transform="translate(13)"/>
</clipPath>
</defs>
</svg>
