<svg width="24" height="24" viewBox="0 0 24 24" fill="none" xmlns="http://www.w3.org/2000/svg">
<g clip-path="url(#clip0_1939_12449)">
<rect y="1" width="24" height="22" fill="#FCFCFC" fill-opacity="0.75"/>
<rect x="1.5" y="4.5" width="21" height="17" fill="#FCFCFC" stroke="#919191"/>
<rect x="1.5" y="2.5" width="21" height="3" fill="#94E1FC" stroke="#3A3A3A"/>
<rect x="2" y="3" width="20" height="1" fill="#00A1DB"/>
</g>
<rect x="4" y="9" width="4" height="2" fill="#919191"/>
<rect x="16" y="9" width="4" height="2" fill="#919191"/>
<rect x="10" y="9" width="4" height="2" fill="#919191"/>
<rect x="10" y="13" width="4" height="2" fill="#919191"/>
<rect x="16" y="13" width="4" height="2" fill="#919191"/>
<rect x="16" y="17" width="4" height="2" fill="#919191"/>
<g clip-path="url(#clip1_1939_12449)">
<path d="M3 16V15H6V18H11V21H6V24H3V23H2V22H1V21H0V18H1V17H2V16H3Z" fill="#FCFCFC" fill-opacity="0.75"/>
<rect x="4" y="19" width="6" height="1" fill="#00A1DB"/>
<rect x="5" y="16" width="7" height="1" transform="rotate(90 5 16)" fill="#00A1DB"/>
<rect x="4" y="17" width="5" height="1" transform="rotate(90 4 17)" fill="#00A1DB"/>
<rect x="3" y="18" width="3" height="1" transform="rotate(90 3 18)" fill="#00A1DB"/>
<rect x="2" y="19" width="1" height="1" transform="rotate(90 2 19)" fill="#00A1DB"/>
</g>
<defs>
<clipPath id="clip0_1939_12449">
<rect width="24" height="22" fill="white" transform="translate(0 1)"/>
</clipPath>
<clipPath id="clip1_1939_12449">
<rect width="11" height="9" fill="white" transform="translate(0 15)"/>
</clipPath>
</defs>
</svg>
