<svg width="24" height="24" viewBox="0 0 24 24" fill="none" xmlns="http://www.w3.org/2000/svg">
<g clip-path="url(#clip0_1940_11567)">
<path d="M11 11L11 1L10 1L10 -4.37114e-08L2 -3.93402e-07L2 11L11 11Z" fill="#FCFCFC" fill-opacity="0.75"/>
<path d="M6.5 4L6.5 1.5L3.5 1.5L3.5 9.5L9.5 9.5L9.5 4.5L7 4.5L6.5 4.5L6.5 4Z" fill="url(#paint0_linear_1940_11567)" stroke="#919191"/>
<path d="M10 3L10 2L9 2L9 1L8 1L8 3L10 3Z" fill="#919191"/>
<path d="M22 11L22 1L21 1L21 -4.37114e-08L13 -3.93402e-07L13 11L22 11Z" fill="#FCFCFC" fill-opacity="0.75"/>
<path d="M17.5 4L17.5 1.5L14.5 1.5L14.5 9.5L20.5 9.5L20.5 4.5L18 4.5L17.5 4.5L17.5 4Z" fill="url(#paint1_linear_1940_11567)" stroke="#919191"/>
<path d="M21 3L21 2L20 2L20 1L19 1L19 3L21 3Z" fill="#919191"/>
<path d="M22 24L22 14L21 14L21 13L13 13L13 24L22 24Z" fill="#FCFCFC" fill-opacity="0.75"/>
<path d="M17.5 17L17.5 14.5L14.5 14.5L14.5 22.5L20.5 22.5L20.5 17.5L18 17.5L17.5 17.5L17.5 17Z" fill="url(#paint2_linear_1940_11567)" stroke="#919191"/>
<path d="M21 16L21 15L20 15L20 14L19 14L19 16L21 16Z" fill="#919191"/>
<path d="M0 18V24H6V23H7V22H8V21H9V20H10V19H11V15H10V14H9V13H5V14H4V15H3V16H2V17H1V18H0Z" fill="#FCFCFC" fill-opacity="0.75"/>
<rect x="2" y="18" width="1" height="1" fill="#3A3A3A"/>
<rect x="3" y="19" width="1" height="1" fill="#919191"/>
<rect x="4" y="20" width="1" height="1" fill="#919191"/>
<rect x="6" y="20" width="1" height="1" fill="#3A3A3A"/>
<rect x="5" y="21" width="1" height="1" fill="#3A3A3A"/>
<rect x="1" y="22" width="4" height="1" fill="#00A1DB"/>
<rect x="1" y="20" width="1" height="1" fill="#00A1DB"/>
<rect x="1" y="21" width="2" height="1" fill="#00A1DB"/>
<rect x="1" y="19" width="1" height="1" fill="#00A1DB"/>
<rect x="3" y="17" width="1" height="1" fill="#3A3A3A"/>
<rect x="7" y="19" width="1" height="1" fill="#3A3A3A"/>
<rect x="4" y="16" width="1" height="1" fill="#3A3A3A"/>
<rect x="8" y="18" width="1" height="1" fill="#3A3A3A"/>
<rect x="5" y="15" width="1" height="1" fill="#3A3A3A"/>
<rect x="9" y="17" width="1" height="1" fill="#3A3A3A"/>
<rect x="6" y="14" width="1" height="1" fill="#3A3A3A"/>
<rect x="7" y="14" width="1" height="1" fill="#3A3A3A"/>
<rect x="9" y="16" width="1" height="1" fill="#3A3A3A"/>
<rect x="8" y="16" width="1" height="1" fill="#C3C7C6"/>
<rect x="7" y="17" width="1" height="1" fill="#00A1DB"/>
<rect x="5" y="16" width="2" height="1" fill="#00A1DB"/>
<rect x="6" y="18" width="2" height="1" fill="#00A1DB"/>
<rect x="5" y="19" width="2" height="1" fill="#00A1DB"/>
<rect x="4" y="17" width="2" height="1" fill="#00A1DB"/>
<rect x="5" y="20" width="1" height="1" fill="#00A1DB"/>
<rect x="3" y="18" width="2" height="1" fill="#00A1DB"/>
<rect x="6" y="17" width="1" height="1" fill="#919191"/>
<rect x="5" y="18" width="1" height="1" fill="#919191"/>
<rect x="4" y="19" width="1" height="1" fill="#919191"/>
<rect x="8" y="15" width="1" height="1" fill="#3A3A3A"/>
<rect x="7" y="15" width="1" height="1" fill="#C3C7C6"/>
</g>
<defs>
<linearGradient id="paint0_linear_1940_11567" x1="10" y1="5.5" x2="3" y2="5.5" gradientUnits="userSpaceOnUse">
<stop stop-color="#F4F7F6"/>
<stop offset="1" stop-color="#D8D8D8"/>
</linearGradient>
<linearGradient id="paint1_linear_1940_11567" x1="21" y1="5.5" x2="14" y2="5.5" gradientUnits="userSpaceOnUse">
<stop stop-color="#F4F7F6"/>
<stop offset="1" stop-color="#D8D8D8"/>
</linearGradient>
<linearGradient id="paint2_linear_1940_11567" x1="21" y1="18.5" x2="14" y2="18.5" gradientUnits="userSpaceOnUse">
<stop stop-color="#F4F7F6"/>
<stop offset="1" stop-color="#D8D8D8"/>
</linearGradient>
<clipPath id="clip0_1940_11567">
<rect width="24" height="24" fill="white"/>
</clipPath>
</defs>
</svg>
