<svg width="24" height="24" viewBox="0 0 24 24" fill="none" xmlns="http://www.w3.org/2000/svg">
<g clip-path="url(#clip0_1944_11495)">
<path d="M4 1H7V5H10V10H7V23H4V10H1V5H4V1Z" fill="#FCFCFC" fill-opacity="0.75"/>
<path d="M18 1H21V5H24V10H21V23H18V10H15V5H18V1Z" fill="#FCFCFC" fill-opacity="0.75"/>
<path d="M11 23H14V19H17V14H14V1H11V14H8V19H11V23Z" fill="#FCFCFC" fill-opacity="0.75"/>
<rect x="5" y="2" width="1" height="20" fill="#3A3A3A"/>
<rect x="19" y="2" width="1" height="20" fill="#3A3A3A"/>
<rect x="12" y="2" width="1" height="20" fill="#3A3A3A"/>
<rect x="2" y="6" width="7" height="3" fill="#919191"/>
<rect x="16" y="6" width="7" height="3" fill="#919191"/>
<rect x="9" y="15" width="7" height="3" fill="#919191"/>
</g>
<defs>
<clipPath id="clip0_1944_11495">
<rect width="24" height="24" fill="white"/>
</clipPath>
</defs>
</svg>
