<svg width="24" height="24" viewBox="0 0 24 24" fill="none" xmlns="http://www.w3.org/2000/svg">
<g clip-path="url(#clip0_1945_11570)">
<rect y="2" width="24" height="20" fill="#FCFCFC" fill-opacity="0.75"/>
<rect x="1" y="3" width="22" height="18" fill="#FCFCFC"/>
</g>
<rect x="13" y="9" width="3" height="1" fill="#3A3A3A"/>
<rect x="13" y="12" width="3" height="1" fill="#3A3A3A"/>
<rect x="13" y="15" width="3" height="1" fill="#3A3A3A"/>
<rect x="12" y="10" width="1" height="5" fill="#3A3A3A"/>
<rect x="16" y="10" width="1" height="1" fill="#3A3A3A"/>
<rect x="16" y="13" width="1" height="2" fill="#3A3A3A"/>
<g clip-path="url(#clip1_1945_11570)">
<path d="M7 9V8H10V14H11V17H6V14H7V12H6V9H7Z" fill="#FCFCFC" fill-opacity="0.75"/>
<rect x="7" y="15" width="3" height="1" fill="#3A3A3A"/>
<rect x="7" y="10" width="2" height="1" fill="#3A3A3A"/>
<rect x="7.99219" y="9.00098" width="1" height="7" transform="rotate(-0.105746 7.99219 9.00098)" fill="#3A3A3A"/>
</g>
<defs>
<clipPath id="clip0_1945_11570">
<rect width="24" height="20" fill="white" transform="translate(0 2)"/>
</clipPath>
<clipPath id="clip1_1945_11570">
<rect width="5" height="9" fill="white" transform="translate(6 8)"/>
</clipPath>
</defs>
</svg>
