<svg width="24" height="24" viewBox="0 0 24 24" fill="none" xmlns="http://www.w3.org/2000/svg">
<g clip-path="url(#clip0_1945_11619)">
<rect y="2" width="24" height="20" fill="#FCFCFC" fill-opacity="0.75"/>
<rect x="1" y="3" width="22" height="18" fill="#FCFCFC"/>
</g>
<rect x="15" y="9" width="1" height="7" fill="#3A3A3A"/>
<rect x="12" y="9" width="1" height="4" fill="#3A3A3A"/>
<rect x="12" y="12" width="4" height="1" fill="#3A3A3A"/>
<g clip-path="url(#clip1_1945_11619)">
<path d="M7 9H10V13H8V15H10V16H7V12H9V10H7V9Z" fill="#3A3A3A"/>
<path d="M7 8.5H6.5V9V10V10.5H7H8.5V11.5H7H6.5V12V16V16.5H7H10H10.5V16V15V14.5H10H8.5V13.5H10H10.5V13V9V8.5H10H7Z" stroke="#FCFCFC" stroke-opacity="0.75"/>
</g>
<defs>
<clipPath id="clip0_1945_11619">
<rect width="24" height="20" fill="white" transform="translate(0 2)"/>
</clipPath>
<clipPath id="clip1_1945_11619">
<rect width="5" height="9" fill="white" transform="translate(6 8)"/>
</clipPath>
</defs>
</svg>
