<svg width="24" height="24" viewBox="0 0 24 24" fill="none" xmlns="http://www.w3.org/2000/svg">
<g clip-path="url(#clip0_1947_11540)">
<rect x="1" y="1" width="22" height="22" fill="#FCFCFC" fill-opacity="0.75"/>
<rect x="4.5" y="2.5" width="17" height="19" fill="url(#paint0_linear_1947_11540)" stroke="#919191"/>
<path d="M13 13H18V14H13V13Z" fill="#3A3A3A"/>
<path d="M8 13H13V14H8V13Z" fill="#3A3A3A"/>
<rect x="8.5" y="6.5" width="9" height="4" fill="#FCFCFC" stroke="#3A3A3A"/>
<rect x="2" y="2" width="1" height="20" fill="#919191"/>
<path d="M0 13H3V17H4V13H7V24H4V20H3V24H0V13Z" fill="#FCFCFC" fill-opacity="0.75"/>
<rect x="1" y="14" width="1" height="9" fill="#3A3A3A"/>
<rect x="5" y="14" width="1" height="9" fill="#3A3A3A"/>
<rect x="1" y="18" width="5" height="1" fill="#3A3A3A"/>
<g clip-path="url(#clip1_1947_11540)">
<path d="M8 16V15H11V21H12V24H7V21H8V19H7V16H8Z" fill="#FCFCFC" fill-opacity="0.75"/>
<rect x="8" y="22" width="3" height="1" fill="#3A3A3A"/>
<rect x="8" y="17" width="2" height="1" fill="#3A3A3A"/>
<rect x="8.99219" y="16.001" width="1" height="7" transform="rotate(-0.105746 8.99219 16.001)" fill="#3A3A3A"/>
</g>
</g>
<defs>
<linearGradient id="paint0_linear_1947_11540" x1="13" y1="2" x2="13" y2="22" gradientUnits="userSpaceOnUse">
<stop stop-color="#F4F7F6"/>
<stop offset="1" stop-color="#D8D8D8"/>
</linearGradient>
<clipPath id="clip0_1947_11540">
<rect width="24" height="24" fill="white"/>
</clipPath>
<clipPath id="clip1_1947_11540">
<rect width="5" height="9" fill="white" transform="translate(7 15)"/>
</clipPath>
</defs>
</svg>
