<svg width="24" height="24" viewBox="0 0 24 24" fill="none" xmlns="http://www.w3.org/2000/svg">
<g clip-path="url(#clip0_1947_11683)">
<rect x="1" y="1" width="22" height="22" fill="#FCFCFC" fill-opacity="0.75"/>
<rect x="4.5" y="2.5" width="17" height="19" fill="url(#paint0_linear_1947_11683)" stroke="#919191"/>
<path d="M13 13H18V14H13V13Z" fill="#3A3A3A"/>
<path d="M8 13H13V14H8V13Z" fill="#3A3A3A"/>
<rect x="8.5" y="6.5" width="9" height="4" fill="#FCFCFC" stroke="#3A3A3A"/>
<rect x="2" y="2" width="1" height="20" fill="#919191"/>
<g clip-path="url(#clip1_1947_11683)">
<path d="M6 15L1 15L1 16L6 16V15Z" fill="#3A3A3A"/>
<path d="M4 15L3 15L3 23H4L4 15Z" fill="#3A3A3A"/>
<path d="M6.5 15V14.5L6 14.5L4.5 14.5L4 14.5L3 14.5L2.5 14.5L1 14.5L0.5 14.5L0.5 15L0.5 16L0.5 16.5H1L2.5 16.5L2.5 23V23.5H3H4H4.5V23L4.5 16.5L6 16.5H6.5V16V15Z" stroke="#FCFCFC" stroke-opacity="0.75"/>
</g>
</g>
<defs>
<linearGradient id="paint0_linear_1947_11683" x1="13" y1="2" x2="13" y2="22" gradientUnits="userSpaceOnUse">
<stop stop-color="#F4F7F6"/>
<stop offset="1" stop-color="#D8D8D8"/>
</linearGradient>
<clipPath id="clip0_1947_11683">
<rect width="24" height="24" fill="white"/>
</clipPath>
<clipPath id="clip1_1947_11683">
<rect width="7" height="10" fill="white" transform="translate(0 14)"/>
</clipPath>
</defs>
</svg>
