<svg width="24" height="24" viewBox="0 0 24 24" fill="none" xmlns="http://www.w3.org/2000/svg">
<g clip-path="url(#clip0_1949_11615)">
<path d="M10 14H19V16H10V14Z" fill="#3A3A3A"/>
<path d="M12 2H14V19H15V20H16V21H10V20H11V19H12V2Z" fill="#3A3A3A"/>
<path fill-rule="evenodd" clip-rule="evenodd" d="M18 4H11V3H10V2H12H18C20.7614 2 23 4.23858 23 7C23 9.76142 20.7614 12 18 12H10V10H18C19.6569 10 21 8.65685 21 7C21 5.34315 19.6569 4 18 4Z" fill="#3A3A3A"/>
<path d="M10 13.5H9.5V14V16V16.5H10H11.5V18.5H11H10.5V19V19.5H10H9.5V20V21V21.5H10H16H16.5V21V20V19.5H16H15.5V19V18.5H15H14.5V16.5H19H19.5V16V14V13.5H19H14.5V12.5H18C21.0376 12.5 23.5 10.0376 23.5 7C23.5 3.96243 21.0376 1.5 18 1.5H14.5H14H12H10H9.5V2V3V3.5H10H10.5V4V4.5H11H11.5V9.5H10H9.5V10V12V12.5H10H11.5V13.5H10ZM18 9.5H14.5V4.5H18C19.3807 4.5 20.5 5.61929 20.5 7C20.5 8.38071 19.3807 9.5 18 9.5Z" stroke="#FCFCFC" stroke-opacity="0.75"/>
<g clip-path="url(#clip1_1949_11615)">
<path d="M9 24L9 16L6 16L6 13L-4.80825e-07 13L0 24L9 24Z" fill="#FCFCFC" fill-opacity="0.75"/>
<path d="M4.5 17L4.5 14.5L1.5 14.5L1.5 22.5L7.5 22.5L7.5 17.5L5 17.5L4.5 17.5L4.5 17Z" fill="url(#paint0_linear_1949_11615)" stroke="#00A1DB"/>
</g>
</g>
<defs>
<linearGradient id="paint0_linear_1949_11615" x1="7.02778" y1="15.75" x2="0.859233" y2="19.4816" gradientUnits="userSpaceOnUse">
<stop stop-color="#94E1FC"/>
<stop offset="1" stop-color="#FCFCFC"/>
</linearGradient>
<clipPath id="clip0_1949_11615">
<rect width="24" height="24" fill="white"/>
</clipPath>
<clipPath id="clip1_1949_11615">
<rect width="9" height="11" fill="white" transform="translate(0 13)"/>
</clipPath>
</defs>
</svg>
