<svg width="24" height="24" viewBox="0 0 24 24" fill="none" xmlns="http://www.w3.org/2000/svg">
<g clip-path="url(#clip0_1954_11121)">
<path d="M24 7L24 1H0V7L24 7Z" fill="#FCFCFC" fill-opacity="0.75"/>
<path d="M23 6L23 2H1V6L23 6Z" fill="#D8D8D8"/>
<path d="M23 4L23 2H1V4L23 4Z" fill="#919191"/>
<path d="M24 15L24 9H11V15L24 15Z" fill="#FCFCFC" fill-opacity="0.75"/>
<path d="M23 14L23 10H12V14L23 14Z" fill="#D8D8D8"/>
<path d="M23 12L23 10H12V12L23 12Z" fill="#919191"/>
<path d="M24 23L24 17H15V23L24 23Z" fill="#FCFCFC" fill-opacity="0.75"/>
<path d="M23 22L23 18H16V22L23 22Z" fill="#D8D8D8"/>
<path d="M23 20L23 18H16V20L23 20Z" fill="#919191"/>
<g clip-path="url(#clip1_1954_11121)">
<path d="M0 15.5V20.5L5 24H6L11 20.5V15.5L6 12H5L0 15.5Z" fill="#FCFCFC" fill-opacity="0.75"/>
<path d="M5.5 22.3991L1.5 19.7324V16.2676L5.5 13.6009L9.5 16.2676V19.7324L5.5 22.3991Z" stroke="#3A3A3A"/>
</g>
</g>
<defs>
<clipPath id="clip0_1954_11121">
<rect width="24" height="24" fill="white"/>
</clipPath>
<clipPath id="clip1_1954_11121">
<rect width="11" height="12" fill="white" transform="translate(0 12)"/>
</clipPath>
</defs>
</svg>
