<svg width="24" height="24" viewBox="0 0 24 24" fill="none" xmlns="http://www.w3.org/2000/svg">
<g clip-path="url(#clip0_1954_11146)">
<path d="M24 2H20V0H14V2H1V22H24V2Z" fill="#FCFCFC" fill-opacity="0.75"/>
<path d="M12.5 3.5H2.5V20.5H12.5V3.5Z" fill="url(#paint0_linear_1954_11146)" stroke="#919191"/>
<path d="M12.5 3.5H22.5V20.5H12.5V3.5Z" fill="url(#paint1_linear_1954_11146)" stroke="#919191"/>
<rect x="5" y="7" width="5" height="1" fill="#3A3A3A"/>
<rect x="5" y="10" width="5" height="1" fill="#3A3A3A"/>
<rect x="15" y="7" width="5" height="1" fill="#3A3A3A"/>
<rect x="15" y="10" width="5" height="1" fill="#3A3A3A"/>
<rect x="15" y="13" width="5" height="1" fill="#3A3A3A"/>
<rect x="15" y="16" width="5" height="1" fill="#3A3A3A"/>
<rect x="15" y="1" width="4" height="3" fill="#00A1DB"/>
<rect x="12" y="3" width="1" height="18" fill="#3A3A3A"/>
<g clip-path="url(#clip1_1954_11146)">
<path d="M0 15.5V20.5L5 24H6L11 20.5V15.5L6 12H5L0 15.5Z" fill="#FCFCFC" fill-opacity="0.75"/>
<path d="M1 20L5.5 23L10 20V16L5.5 13L1 16V20Z" fill="url(#paint2_linear_1954_11146)"/>
<path d="M5.5 22.3991L1.5 19.7324V16.2676L5.5 13.6009L9.5 16.2676V19.7324L5.5 22.3991Z" stroke="#919191"/>
</g>
</g>
<defs>
<linearGradient id="paint0_linear_1954_11146" x1="9.33333" y1="12" x2="13" y2="12" gradientUnits="userSpaceOnUse">
<stop stop-color="#FCFCFC"/>
<stop offset="1" stop-color="#919191"/>
</linearGradient>
<linearGradient id="paint1_linear_1954_11146" x1="15.6667" y1="12" x2="12" y2="12" gradientUnits="userSpaceOnUse">
<stop stop-color="#FCFCFC"/>
<stop offset="1" stop-color="#919191"/>
</linearGradient>
<linearGradient id="paint2_linear_1954_11146" x1="8.25" y1="14.3889" x2="2.29502" y2="21.2796" gradientUnits="userSpaceOnUse">
<stop stop-color="#94E1FC"/>
<stop offset="1" stop-color="#FCFCFC"/>
</linearGradient>
<clipPath id="clip0_1954_11146">
<rect width="24" height="24" fill="white"/>
</clipPath>
<clipPath id="clip1_1954_11146">
<rect width="11" height="12" fill="white" transform="translate(0 12)"/>
</clipPath>
</defs>
</svg>
