<svg width="24" height="24" viewBox="0 0 24 24" fill="none" xmlns="http://www.w3.org/2000/svg">
<g clip-path="url(#clip0_1954_11202)">
<rect x="1" y="1" width="22" height="22" fill="#FCFCFC" fill-opacity="0.75"/>
<rect x="2.5" y="2.5" width="19" height="19" fill="#FCFCFC" stroke="#919191"/>
<rect x="5" y="5" width="14" height="14" fill="url(#paint0_linear_1954_11202)"/>
<path d="M5 9V19H19L5 9Z" fill="url(#paint1_linear_1954_11202)"/>
<path d="M19 12V19H7L19 12Z" fill="url(#paint2_linear_1954_11202)"/>
</g>
<path d="M0 18V24H6V23H7V22H8V21H9V20H10V19H11V15H10V14H9V13H5V14H4V15H3V16H2V17H1V18H0Z" fill="#FCFCFC" fill-opacity="0.75"/>
<rect x="2" y="18" width="1" height="1" fill="#3A3A3A"/>
<rect x="3" y="19" width="1" height="1" fill="#919191"/>
<rect x="4" y="20" width="1" height="1" fill="#919191"/>
<rect x="6" y="20" width="1" height="1" fill="#3A3A3A"/>
<rect x="5" y="21" width="1" height="1" fill="#3A3A3A"/>
<rect x="1" y="22" width="4" height="1" fill="#00A1DB"/>
<rect x="1" y="20" width="1" height="1" fill="#00A1DB"/>
<rect x="1" y="21" width="2" height="1" fill="#00A1DB"/>
<rect x="1" y="19" width="1" height="1" fill="#00A1DB"/>
<rect x="3" y="17" width="1" height="1" fill="#3A3A3A"/>
<rect x="7" y="19" width="1" height="1" fill="#3A3A3A"/>
<rect x="4" y="16" width="1" height="1" fill="#3A3A3A"/>
<rect x="8" y="18" width="1" height="1" fill="#3A3A3A"/>
<rect x="5" y="15" width="1" height="1" fill="#3A3A3A"/>
<rect x="9" y="17" width="1" height="1" fill="#3A3A3A"/>
<rect x="6" y="14" width="1" height="1" fill="#3A3A3A"/>
<rect x="7" y="14" width="1" height="1" fill="#3A3A3A"/>
<rect x="9" y="16" width="1" height="1" fill="#3A3A3A"/>
<rect x="8" y="16" width="1" height="1" fill="#C3C7C6"/>
<rect x="7" y="17" width="1" height="1" fill="#00A1DB"/>
<rect x="5" y="16" width="2" height="1" fill="#00A1DB"/>
<rect x="6" y="18" width="2" height="1" fill="#00A1DB"/>
<rect x="5" y="19" width="2" height="1" fill="#00A1DB"/>
<rect x="4" y="17" width="2" height="1" fill="#00A1DB"/>
<rect x="5" y="20" width="1" height="1" fill="#00A1DB"/>
<rect x="3" y="18" width="2" height="1" fill="#00A1DB"/>
<rect x="6" y="17" width="1" height="1" fill="#919191"/>
<rect x="5" y="18" width="1" height="1" fill="#919191"/>
<rect x="4" y="19" width="1" height="1" fill="#919191"/>
<rect x="8" y="15" width="1" height="1" fill="#3A3A3A"/>
<rect x="7" y="15" width="1" height="1" fill="#C3C7C6"/>
<defs>
<linearGradient id="paint0_linear_1954_11202" x1="16.2778" y1="6.94444" x2="8.11111" y2="17.4444" gradientUnits="userSpaceOnUse">
<stop stop-color="#94E1FC"/>
<stop offset="1" stop-color="#FCFCFC"/>
</linearGradient>
<linearGradient id="paint1_linear_1954_11202" x1="10.25" y1="16.2727" x2="5.66291" y2="10.5331" gradientUnits="userSpaceOnUse">
<stop stop-color="#6FCF97"/>
<stop offset="1" stop-color="#27AE60"/>
</linearGradient>
<linearGradient id="paint2_linear_1954_11202" x1="18.5714" y1="12" x2="15.0283" y2="18.9416" gradientUnits="userSpaceOnUse">
<stop stop-color="#6FCF97"/>
<stop offset="1" stop-color="#219653"/>
</linearGradient>
<clipPath id="clip0_1954_11202">
<rect width="22" height="22" fill="white" transform="translate(1 1)"/>
</clipPath>
</defs>
</svg>
