<svg width="24" height="24" viewBox="0 0 24 24" fill="none" xmlns="http://www.w3.org/2000/svg">
<g clip-path="url(#clip0_1954_11293)">
<rect y="1" width="24" height="22" fill="#FCFCFC" fill-opacity="0.75"/>
<rect x="1.5" y="4.5" width="21" height="17" fill="#FCFCFC" stroke="#919191"/>
<rect x="1.5" y="2.5" width="21" height="3" fill="#94E1FC" stroke="#3A3A3A"/>
<rect x="2" y="3" width="20" height="1" fill="#00A1DB"/>
</g>
<rect x="4" y="9" width="4" height="2" fill="#919191"/>
<rect x="16" y="9" width="4" height="2" fill="#919191"/>
<rect x="10" y="9" width="4" height="2" fill="#919191"/>
<rect x="10" y="13" width="4" height="2" fill="#919191"/>
<rect x="16" y="13" width="4" height="2" fill="#919191"/>
<rect x="16" y="17" width="4" height="2" fill="#919191"/>
<g clip-path="url(#clip1_1954_11293)">
<path d="M9 24L9 16L6 16L6 13L-4.80825e-07 13L0 24L9 24Z" fill="#FCFCFC" fill-opacity="0.75"/>
<path d="M4.5 17L4.5 14.5L1.5 14.5L1.5 22.5L7.5 22.5L7.5 17.5L5 17.5L4.5 17.5L4.5 17Z" fill="url(#paint0_linear_1954_11293)" stroke="#00A1DB"/>
</g>
<defs>
<linearGradient id="paint0_linear_1954_11293" x1="7.02778" y1="15.75" x2="0.859233" y2="19.4816" gradientUnits="userSpaceOnUse">
<stop stop-color="#94E1FC"/>
<stop offset="1" stop-color="#FCFCFC"/>
</linearGradient>
<clipPath id="clip0_1954_11293">
<rect width="24" height="22" fill="white" transform="translate(0 1)"/>
</clipPath>
<clipPath id="clip1_1954_11293">
<rect width="9" height="11" fill="white" transform="translate(0 13)"/>
</clipPath>
</defs>
</svg>
