<svg width="24" height="24" viewBox="0 0 24 24" fill="none" xmlns="http://www.w3.org/2000/svg">
<g clip-path="url(#clip0_1965_10769)">
<path fill-rule="evenodd" clip-rule="evenodd" d="M14 5C14 2.79094 15.7907 1.00011 17.9998 1C20.209 0.999886 22 2.79078 22 5V18.0227C22 20.7729 19.7788 23.0068 17.0286 23.0226C14.256 23.0384 12 20.7953 12 18.0227V11.0457C12 10.4935 12.4477 10.0457 13 10.0457C13.5523 10.0457 14 10.4935 14 11.0457V5ZM17.0172 21.0226C18.6673 21.0132 20 19.6728 20 18.0227V15.0457C20 16.7026 18.6569 18.0457 17 18.0457C15.3431 18.0457 14 16.7026 14 15.0457V18.0227C14 19.6862 15.3536 21.0321 17.0172 21.0226ZM17 16.0457C17.5523 16.0457 18 15.598 18 15.0457V9.04574C18 8.49346 18.4477 8.04574 19 8.04574C19.5523 8.04574 20 8.49346 20 9.04574V5C20 3.89539 19.1045 2.99994 17.9999 3C16.8954 3.00006 16 3.89547 16 5V15.0457C16 15.598 16.4477 16.0457 17 16.0457Z" fill="#3A3A3A"/>
<path d="M17.9998 0.5C15.5146 0.500128 13.5 2.51481 13.5 5V9.6311C13.3436 9.57582 13.1753 9.54574 13 9.54574C12.1716 9.54574 11.5 10.2173 11.5 11.0457V18.0227C11.5 21.0725 13.9817 23.54 17.0315 23.5226C20.0567 23.5053 22.5 21.0479 22.5 18.0227V5C22.5 2.51463 20.4851 0.499872 17.9998 0.5ZM19.5 18.0227C19.5 19.3978 18.3894 20.5148 17.0143 20.5226C15.628 20.5306 14.5 19.409 14.5 18.0227V17.4952C15.1353 18.1435 16.0207 18.5457 17 18.5457C17.9793 18.5457 18.8647 18.1435 19.5 17.4952V18.0227ZM17.5 15.0457C17.5 15.3219 17.2761 15.5457 17 15.5457C16.7239 15.5457 16.5 15.3219 16.5 15.0457V5C16.5 4.1716 17.1715 3.50004 17.9999 3.5C18.8284 3.49996 19.5 4.17154 19.5 5V7.6311C19.3436 7.57582 19.1753 7.54574 19 7.54574C18.1716 7.54574 17.5 8.21732 17.5 9.04574V15.0457Z" stroke="#FCFCFC" stroke-opacity="0.75" stroke-linecap="round"/>
</g>
<g clip-path="url(#clip1_1965_10769)">
<path d="M0 16H4V17H5V18H6V17H7V16H8V15H11V18H10V20H9V21H8V23H7V24H4V23H3V22H2V21H1V20H0V16Z" fill="#FCFCFC" fill-opacity="0.75"/>
<path d="M5 19V20H6V19H7V18H8V17H9V16H10V17H9V19H8V20H7V22H6V23H5V22H4V21H3V20H2V19H1V17H3V18H4V19H5Z" fill="#00A1DB"/>
<rect x="1" y="21" width="1" height="1" fill="#FCFCFC" fill-opacity="0.75"/>
</g>
<defs>
<clipPath id="clip0_1965_10769">
<rect width="12" height="24" fill="white" transform="translate(11)"/>
</clipPath>
<clipPath id="clip1_1965_10769">
<rect width="11" height="9" fill="white" transform="translate(0 15)"/>
</clipPath>
</defs>
</svg>
