<svg width="300" height="300" viewBox="0 0 300 300" fill="none" xmlns="http://www.w3.org/2000/svg">
<g clip-path="url(#clip0_2155_6327)">
<rect width="300" height="300" fill="#202121"/>
<g clip-path="url(#clip1_2155_6327)">
<g clip-path="url(#clip2_2155_6327)">
<mask id="mask0_2155_6327" style="mask-type:alpha" maskUnits="userSpaceOnUse" x="37" y="141" width="24" height="24">
<path fill-rule="evenodd" clip-rule="evenodd" d="M61 141H37V165H61V141ZM49 161C50.1046 161 51 160.105 51 159C51 157.895 50.1046 157 49 157C47.8954 157 47 157.895 47 159C47 160.105 47.8954 161 49 161Z" fill="#D9D9D9"/>
</mask>
<g mask="url(#mask0_2155_6327)">
<rect x="41" y="151" width="16" height="13" fill="#818285"/>
<path fill-rule="evenodd" clip-rule="evenodd" d="M52 152V147C52 145.343 50.6569 144 49 144C47.3431 144 46 145.343 46 147V152H44V147C44 144.239 46.2386 142 49 142C51.7614 142 54 144.239 54 147V152H52Z" fill="#818285"/>
</g>
</g>
<mask id="path-4-inside-1_2155_6327" fill="white">
<path fill-rule="evenodd" clip-rule="evenodd" d="M128 143H104V149H128V143ZM126 145H124V147H126V145ZM120 145H122V147H120V145ZM118 145H116V147H118V145Z"/>
</mask>
<path fill-rule="evenodd" clip-rule="evenodd" d="M128 143H104V149H128V143ZM126 145H124V147H126V145ZM120 145H122V147H120V145ZM118 145H116V147H118V145Z" fill="#818285"/>
<path d="M104 143V142H103V143H104ZM128 143H129V142H128V143ZM104 149H103V150H104V149ZM128 149V150H129V149H128ZM124 145V144H123V145H124ZM126 145H127V144H126V145ZM124 147H123V148H124V147ZM126 147V148H127V147H126ZM122 145H123V144H122V145ZM120 145V144H119V145H120ZM122 147V148H123V147H122ZM120 147H119V148H120V147ZM116 145V144H115V145H116ZM118 145H119V144H118V145ZM116 147H115V148H116V147ZM118 147V148H119V147H118ZM104 144H128V142H104V144ZM105 149V143H103V149H105ZM128 148H104V150H128V148ZM127 143V149H129V143H127ZM124 146H126V144H124V146ZM125 147V145H123V147H125ZM126 146H124V148H126V146ZM125 145V147H127V145H125ZM122 144H120V146H122V144ZM123 147V145H121V147H123ZM120 148H122V146H120V148ZM119 145V147H121V145H119ZM116 146H118V144H116V146ZM117 147V145H115V147H117ZM118 146H116V148H118V146ZM117 145V147H119V145H117Z" fill="#818285" mask="url(#path-4-inside-1_2155_6327)"/>
<mask id="path-6-inside-2_2155_6327" fill="white">
<path fill-rule="evenodd" clip-rule="evenodd" d="M128 150H104V156H128V150ZM126 152H124V154H126V152ZM120 152H122V154H120V152ZM118 152H116V154H118V152Z"/>
</mask>
<path fill-rule="evenodd" clip-rule="evenodd" d="M128 150H104V156H128V150ZM126 152H124V154H126V152ZM120 152H122V154H120V152ZM118 152H116V154H118V152Z" fill="#818285"/>
<path d="M104 150V149H103V150H104ZM128 150H129V149H128V150ZM104 156H103V157H104V156ZM128 156V157H129V156H128ZM124 152V151H123V152H124ZM126 152H127V151H126V152ZM124 154H123V155H124V154ZM126 154V155H127V154H126ZM122 152H123V151H122V152ZM120 152V151H119V152H120ZM122 154V155H123V154H122ZM120 154H119V155H120V154ZM116 152V151H115V152H116ZM118 152H119V151H118V152ZM116 154H115V155H116V154ZM118 154V155H119V154H118ZM104 151H128V149H104V151ZM105 156V150H103V156H105ZM128 155H104V157H128V155ZM127 150V156H129V150H127ZM124 153H126V151H124V153ZM125 154V152H123V154H125ZM126 153H124V155H126V153ZM125 152V154H127V152H125ZM122 151H120V153H122V151ZM123 154V152H121V154H123ZM120 155H122V153H120V155ZM119 152V154H121V152H119ZM116 153H118V151H116V153ZM117 154V152H115V154H117ZM118 153H116V155H118V153ZM117 152V154H119V152H117Z" fill="#818285" mask="url(#path-6-inside-2_2155_6327)"/>
<mask id="path-8-inside-3_2155_6327" fill="white">
<path fill-rule="evenodd" clip-rule="evenodd" d="M128 157H104V163H128V157ZM126 159H124V161H126V159ZM120 159H122V161H120V159ZM118 159H116V161H118V159Z"/>
</mask>
<path fill-rule="evenodd" clip-rule="evenodd" d="M128 157H104V163H128V157ZM126 159H124V161H126V159ZM120 159H122V161H120V159ZM118 159H116V161H118V159Z" fill="#818285"/>
<path d="M104 157V156H103V157H104ZM128 157H129V156H128V157ZM104 163H103V164H104V163ZM128 163V164H129V163H128ZM124 159V158H123V159H124ZM126 159H127V158H126V159ZM124 161H123V162H124V161ZM126 161V162H127V161H126ZM122 159H123V158H122V159ZM120 159V158H119V159H120ZM122 161V162H123V161H122ZM120 161H119V162H120V161ZM116 159V158H115V159H116ZM118 159H119V158H118V159ZM116 161H115V162H116V161ZM118 161V162H119V161H118ZM104 158H128V156H104V158ZM105 163V157H103V163H105ZM128 162H104V164H128V162ZM127 157V163H129V157H127ZM124 160H126V158H124V160ZM125 161V159H123V161H125ZM126 160H124V162H126V160ZM125 159V161H127V159H125ZM122 158H120V160H122V158ZM123 161V159H121V161H123ZM120 162H122V160H120V162ZM119 159V161H121V159H119ZM116 160H118V158H116V160ZM117 161V159H115V161H117ZM118 160H116V162H118V160ZM117 159V161H119V159H117Z" fill="#818285" mask="url(#path-8-inside-3_2155_6327)"/>
<path fill-rule="evenodd" clip-rule="evenodd" d="M171 159H195V163H171V159ZM175 161C175 161.552 174.552 162 174 162C173.448 162 173 161.552 173 161C173 160.448 173.448 160 174 160C174.552 160 175 160.448 175 161ZM180 162C180.552 162 181 161.552 181 161C181 160.448 180.552 160 180 160C179.448 160 179 160.448 179 161C179 161.552 179.448 162 180 162ZM187 161C187 161.552 186.552 162 186 162C185.448 162 185 161.552 185 161C185 160.448 185.448 160 186 160C186.552 160 187 160.448 187 161ZM192 162C192.552 162 193 161.552 193 161C193 160.448 192.552 160 192 160C191.448 160 191 160.448 191 161C191 161.552 191.448 162 192 162Z" fill="#818285"/>
<rect x="186" y="151" width="7" height="7" fill="#818285"/>
<rect x="172" y="151" width="7" height="7" fill="#818285"/>
<rect x="188" y="141" width="3" height="4" fill="#818285"/>
<rect x="189" y="145" width="1" height="4" fill="#818285"/>
<rect x="184" y="148" width="1" height="4" fill="#818285"/>
<rect x="194" y="149" width="1" height="4" fill="#818285"/>
<rect x="195" y="147" width="2" height="11" transform="rotate(90 195 147)" fill="#818285"/>
<path d="M257 162.834L253 160.434V156.566L257 154.166L261 156.566V160.434L257 162.834Z" stroke="#818285" stroke-width="2"/>
<path d="M252 161L257 164L262 161V156L257 153L252 156V161Z" fill="#818285"/>
<path d="M250 151.834L246 149.434V145.566L250 143.166L254 145.566V149.434L250 151.834Z" stroke="#818285" stroke-width="2"/>
<path d="M245 150L250 153L255 150V145L250 142L245 145V150Z" fill="#818285"/>
<path d="M238 160H242V161H244V160H248V165H238V160Z" fill="#818285"/>
<rect x="238" y="157" width="10" height="2" fill="#818285"/>
<rect x="241" y="155" width="4" height="1" fill="#818285"/>
<rect x="244" y="155" width="1" height="2" fill="#818285"/>
<rect x="241" y="155" width="1" height="2" fill="#818285"/>
<g clip-path="url(#clip3_2155_6327)">
<mask id="mask1_2155_6327" style="mask-type:alpha" maskUnits="userSpaceOnUse" x="37" y="87" width="24" height="24">
<path fill-rule="evenodd" clip-rule="evenodd" d="M61 87H37V101H41C41.5523 101 42 101.448 42 102H47.1776C48.4004 102 49.3369 103.087 49.1555 104.297L48.15 111H61V87Z" fill="#D9D9D9"/>
</mask>
<g mask="url(#mask1_2155_6327)">
<path fill-rule="evenodd" clip-rule="evenodd" d="M43 89H37V109H43V89ZM42 91H38V95H42V91ZM38 97H42V98H38V97ZM42 106H38V107H42V106Z" fill="#818285"/>
<path fill-rule="evenodd" clip-rule="evenodd" d="M46 89H52V109H46V89ZM47 91H51V95H47V91ZM51 97H47V98H51V97Z" fill="#818285"/>
<path fill-rule="evenodd" clip-rule="evenodd" d="M61 89H55V109H61V89ZM60 91H56V95H60V91ZM56 97H60V98H56V97ZM60 106H56V107H60V106Z" fill="#818285"/>
</g>
<path d="M38.8579 105H46.8344C47.1408 105 47.3752 105.273 47.3286 105.576L46.6363 110.076C46.5987 110.32 46.3889 110.5 46.1421 110.5H38.1656C37.8592 110.5 37.6248 110.227 37.6714 109.924L38.3637 105.424C38.4013 105.18 38.6111 105 38.8579 105Z" stroke="#818285"/>
<path d="M40 110.5H38.5C37.9477 110.5 37.5 110.052 37.5 109.5V103.5H41.75H45C45.5523 103.5 46 103.948 46 104.5V105.5" stroke="#818285"/>
<path d="M37.5 103V103C37.5 102.724 37.7239 102.5 38 102.5H39.5C39.7761 102.5 40 102.724 40 103V103" stroke="#818285"/>
<rect x="38" y="103" width="2" height="1" fill="#818285"/>
<rect x="38" y="104" width="8" height="1" fill="#818285"/>
</g>
<g clip-path="url(#clip4_2155_6327)">
<path fill-rule="evenodd" clip-rule="evenodd" d="M110 89H104V109H110V89ZM109 91H105V95H109V91ZM105 97H109V98H105V97ZM109 106H105V107H109V106Z" fill="#818285"/>
<path fill-rule="evenodd" clip-rule="evenodd" d="M119 89H113V109H119V89ZM118 91H114V95H118V91ZM114 97H118V98H114V97ZM118 106H114V107H118V106Z" fill="#818285"/>
<path fill-rule="evenodd" clip-rule="evenodd" d="M128 89H122V109H128V89ZM127 91H123V95H127V91ZM123 97H127V98H123V97ZM127 106H123V107H127V106Z" fill="#818285"/>
</g>
<g clip-path="url(#clip5_2155_6327)">
<mask id="mask2_2155_6327" style="mask-type:alpha" maskUnits="userSpaceOnUse" x="171" y="87" width="24" height="24">
<path fill-rule="evenodd" clip-rule="evenodd" d="M195 87H171V99H180V111H195V87Z" fill="#D9D9D9"/>
</mask>
<g mask="url(#mask2_2155_6327)">
<path d="M193.879 96.4851C194.194 95.2228 193.24 94 191.938 94H176.617C175.674 94 174.859 94.6588 174.661 95.5809L172.518 105.581C172.252 106.826 173.201 108 174.474 108H189.438C190.356 108 191.156 107.375 191.379 106.485L193.879 96.4851Z" stroke="#818285" stroke-width="2"/>
<path d="M179 108H174C172.895 108 172 107.105 172 106V91C172 90.4477 172.448 90 173 90H178C178.552 90 179 90.4477 179 91V92H189C190.105 92 191 92.8954 191 94V94H178" stroke="#818285" stroke-width="2" stroke-linecap="round"/>
<path d="M178 91H172V95V99H174V95H178V91Z" fill="#818285"/>
</g>
<path d="M177 111H179L176 101H174L177 111Z" fill="#818285"/>
<rect x="171" y="107" width="2" height="2" fill="#818285"/>
<rect x="171" y="103" width="2" height="2" fill="#818285"/>
</g>
<path fill-rule="evenodd" clip-rule="evenodd" d="M257 93H243V110H257V93ZM247 108L247 96H245L245 108H247ZM251 96L251 108H249L249 96H251ZM255 108L255 96H253L253 108H255Z" fill="#818285"/>
<rect x="241" y="90" width="18" height="2" fill="#818285"/>
<rect x="247" y="88" width="6" height="1" fill="#818285"/>
<rect x="247" y="88" width="1" height="2" fill="#818285"/>
<rect x="252" y="88" width="1" height="2" fill="#818285"/>
<path d="M37 39H44V43H48V47H37V39Z" fill="#818285"/>
<path d="M45 42L45 39L48 42L45 42Z" fill="#818285"/>
<path d="M50 49H57V53H61V57H50V49Z" fill="#818285"/>
<path d="M58 52L58 49L61 52L58 52Z" fill="#818285"/>
<path d="M42.2322 55.7678C43.2085 56.7441 44.7915 56.7441 45.7678 55.7678C46.7441 54.7915 46.7441 53.2085 45.7678 52.2322C44.7915 51.2559 43.2085 51.2559 42.2322 52.2322C41.2559 53.2085 41.2559 54.7915 42.2322 55.7678Z" stroke="#818285"/>
<path d="M42.9995 56.0001L41.9995 55.0001L39.9995 57.0001L40.9995 58.0001L42.9995 56.0001Z" fill="#818285"/>
<path d="M41.4995 58.0001L39.9995 56.5001L36.9995 59.5001L38.4995 61.0001L41.4995 58.0001Z" fill="#818285"/>
<g clip-path="url(#clip6_2155_6327)">
<path fill-rule="evenodd" clip-rule="evenodd" d="M104 39H128V59H104V39ZM106 41H126V44H106V41ZM110 47H106V49H110V47ZM114 47H118V49H114V47ZM126 47H122V49H126V47ZM106 51H110V53H106V51ZM118 51H114V53H118V51ZM122 51H126V53H122V51ZM110 55H106V57H110V55ZM114 55H118V57H114V55ZM126 55H122V57H126V55Z" fill="#818285"/>
</g>
<g clip-path="url(#clip7_2155_6327)">
<mask id="mask3_2155_6327" style="mask-type:alpha" maskUnits="userSpaceOnUse" x="171" y="37" width="24" height="24">
<path fill-rule="evenodd" clip-rule="evenodd" d="M171 37H195V61H171V37ZM174 57V47H192V57H174ZM175 38H173V42H175V38ZM177 38H179V42H177V38ZM183 38H181V42H183V38Z" fill="#D9D9D9"/>
</mask>
<g mask="url(#mask3_2155_6327)">
<path d="M171 38H188L195 45V60H171V38Z" fill="#818285"/>
</g>
</g>
<rect x="238" y="57" width="16" height="2" transform="rotate(-90 238 57)" fill="#818285"/>
<rect x="260" y="57" width="16" height="2" transform="rotate(-90 260 57)" fill="#818285"/>
<rect x="238" y="57" width="24" height="2" fill="#818285"/>
<path d="M238 39H240H260V39H262V41H238V39Z" fill="#818285"/>
<circle cx="255.5" cy="46.5" r="3.5" fill="#818285"/>
<path d="M246 49L240 55V57H260V56L253 52L251 55L246 49Z" fill="#818285"/>
</g>
<g clip-path="url(#clip8_2155_6327)">
<rect x="38" y="264" width="11" height="4" fill="#818285"/>
<rect x="42" y="262" width="5" height="2" fill="#818285"/>
<rect x="44" y="251" width="1" height="7" fill="#818285"/>
<rect x="38" y="252" width="3" height="12" fill="#818285"/>
<rect x="38" y="248" width="10" height="3" fill="#818285"/>
<rect x="42" y="252" width="5" height="3" fill="#818285"/>
<rect x="43" y="251" width="3" height="6" fill="#818285"/>
<rect x="51" y="264" width="11" height="4" fill="#818285"/>
<rect x="55" y="262" width="5" height="2" fill="#818285"/>
<rect x="57" y="251" width="1" height="7" fill="#818285"/>
<rect x="51" y="252" width="3" height="12" fill="#818285"/>
<rect x="51" y="248" width="10" height="3" fill="#818285"/>
<rect x="55" y="252" width="5" height="3" fill="#818285"/>
<rect x="56" y="251" width="3" height="6" fill="#818285"/>
<rect width="24" height="4" transform="matrix(-1 0 0 1 129 263)" fill="#818285"/>
<rect width="24" height="4" transform="matrix(-1 0 0 1 129 248)" fill="#818285"/>
<rect width="6" height="4" transform="matrix(-1 0 0 1 127 253)" fill="#818285"/>
<rect width="2" height="2" transform="matrix(-1 0 0 1 125 258)" fill="#818285"/>
<rect width="6" height="10" transform="matrix(-1 0 0 1 113 253)" fill="#818285"/>
<rect width="6" height="2" transform="matrix(-1 0 0 1 127 266)" fill="#818285"/>
<rect width="6" height="2" transform="matrix(-1 0 0 1 113 266)" fill="#818285"/>
<g clip-path="url(#clip9_2155_6327)">
<mask id="mask4_2155_6327" style="mask-type:alpha" maskUnits="userSpaceOnUse" x="172" y="246" width="24" height="24">
<path fill-rule="evenodd" clip-rule="evenodd" d="M196 246H172V263.815C173.152 262.198 175.306 260 178.498 260C183.548 260 185.998 265.5 185.998 265.5C185.998 265.5 184.755 268.414 182.091 270H196V246ZM174.231 270C173.306 269.573 172.515 269.047 172 268.5V270H174.231Z" fill="#219653"/>
</mask>
<g mask="url(#mask4_2155_6327)">
<rect x="173" y="249" width="22" height="18" stroke="#818285" stroke-width="2"/>
<rect x="172" y="252" width="24" height="5" fill="#818285"/>
</g>
<path fill-rule="evenodd" clip-rule="evenodd" d="M172 265.5C172 265.5 174.638 261 178.5 261C182.362 261 185 265.5 185 265.5C185 265.5 182.441 270 178.5 270C174.575 270 172 265.5 172 265.5ZM178.5 263C177.119 263 176 264.119 176 265.5C176 266.881 177.119 268 178.5 268C179.881 268 181 266.881 181 265.5C181 264.119 179.881 263 178.5 263Z" fill="#818285"/>
<circle cx="178.5" cy="265.5" r="1.5" fill="#818285"/>
</g>
<rect width="4" height="8" transform="matrix(-1 0 0 1 248 260)" fill="#818285"/>
<rect width="2" height="12" transform="matrix(-1 0 0 1 247 248)" fill="#818285"/>
<rect width="4" height="4" transform="matrix(-1 0 0 1 247 249)" fill="#818285"/>
<path d="M252 254C250 252.5 247 253 247 253V249C247 249 250.5 249.5 252 252C253.5 254.5 252 254 252 254Z" fill="#818285"/>
<rect width="4" height="6" transform="matrix(-1 0 0 1 243 248)" fill="#818285"/>
<path fill-rule="evenodd" clip-rule="evenodd" d="M257 262H259L260 248H256L257 262ZM258 251C258.552 251 259 250.552 259 250C259 249.448 258.552 249 258 249C257.448 249 257 249.448 257 250C257 250.552 257.448 251 258 251Z" fill="#818285"/>
<path fill-rule="evenodd" clip-rule="evenodd" d="M260 267.584C261.766 266.812 263 265.05 263 263C263 260.239 260.761 258 258 258C255.239 258 253 260.239 253 263C253 265.05 254.234 266.812 256 267.584V262H260V267.584Z" fill="#818285"/>
<g clip-path="url(#clip10_2155_6327)">
<circle cx="42.5" cy="215.5" r="3.5" stroke="#818285" stroke-width="2"/>
<circle cx="57.5" cy="215.5" r="3.5" stroke="#818285" stroke-width="2"/>
<path d="M59 196V196C60.5621 197.562 60.5621 200.095 59 201.657L45.6214 215.035L42.793 212.207L59 196Z" fill="#818285"/>
<path d="M41.0005 196V196C39.4384 197.562 39.4384 200.095 41.0005 201.657L54.3986 215.055L57.227 212.227L41.0005 196Z" fill="#818285"/>
</g>
<path d="M123.003 206.002L119 202L127 202L123.003 206.002Z" fill="#818285"/>
<path d="M106.858 201H114.834C115.141 201 115.375 201.273 115.329 201.576L114.636 206.076C114.599 206.32 114.389 206.5 114.142 206.5H106.166C105.859 206.5 105.625 206.227 105.671 205.924L106.364 201.424C106.401 201.18 106.611 201 106.858 201Z" stroke="#818285"/>
<path d="M108 206.5H106.5C105.948 206.5 105.5 206.052 105.5 205.5V199.5H109.75H113C113.552 199.5 114 199.948 114 200.5V201.5" stroke="#818285"/>
<path d="M105.5 199V199C105.5 198.724 105.724 198.5 106 198.5H107.5C107.776 198.5 108 198.724 108 199V199" stroke="#818285"/>
<rect x="106" y="199" width="2" height="1" fill="#818285"/>
<rect x="106" y="200" width="8" height="1" fill="#818285"/>
<path d="M119.858 212H127.834C128.141 212 128.375 212.273 128.329 212.576L127.636 217.076C127.599 217.32 127.389 217.5 127.142 217.5H119.166C118.859 217.5 118.625 217.227 118.671 216.924L119.364 212.424C119.401 212.18 119.611 212 119.858 212Z" stroke="#818285"/>
<path d="M121 217.5H119.5C118.948 217.5 118.5 217.052 118.5 216.5V210.5H122.75H126C126.552 210.5 127 210.948 127 211.5V212.5" stroke="#818285"/>
<path d="M118.5 210V210C118.5 209.724 118.724 209.5 119 209.5H120.5C120.776 209.5 121 209.724 121 210V210" stroke="#818285"/>
<rect x="119" y="210" width="2" height="1" fill="#818285"/>
<rect x="119" y="211" width="8" height="1" fill="#818285"/>
<g clip-path="url(#clip11_2155_6327)">
<mask id="mask5_2155_6327" style="mask-type:alpha" maskUnits="userSpaceOnUse" x="172" y="196" width="24" height="24">
<path fill-rule="evenodd" clip-rule="evenodd" d="M191 196H172V203H178V214H172V220H178V215H185V220H196V205H191V196Z" fill="#D9D9D9"/>
</mask>
<g mask="url(#mask5_2155_6327)">
<path d="M174 198H194V218H174V198Z" stroke="#818285" stroke-width="2"/>
</g>
<path d="M195.724 199.181C194.256 198.283 189.393 200.805 186.04 205.035C182.644 209.223 182.057 210.59 182.057 210.59C182.057 210.59 177.949 206.402 175.307 205.035C173.169 203.967 170.822 207.214 172.666 209.223C174.721 211.488 179.709 217 182.225 217C184.74 217 186.123 211.659 189.142 207.428C192.496 202.599 197.191 200.078 195.724 199.181Z" fill="#818285"/>
</g>
<g clip-path="url(#clip12_2155_6327)">
<mask id="mask6_2155_6327" style="mask-type:alpha" maskUnits="userSpaceOnUse" x="239" y="196" width="24" height="24">
<path fill-rule="evenodd" clip-rule="evenodd" d="M263 196H239V216L242 212L247 213V216L243 220H263V196Z" fill="#D9D9D9"/>
</mask>
<g mask="url(#mask6_2155_6327)">
<path d="M261.879 205.485C262.194 204.223 261.24 203 259.938 203H244.617C243.674 203 242.859 203.659 242.661 204.581L240.518 214.581C240.252 215.826 241.201 217 242.474 217H257.438C258.356 217 259.156 216.375 259.379 215.485L261.879 205.485Z" stroke="#818285" stroke-width="2"/>
<path d="M247 217H242C240.895 217 240 216.105 240 215V200C240 199.448 240.448 199 241 199H246C246.552 199 247 199.448 247 200V201H257C258.105 201 259 201.895 259 203V203H246" stroke="#818285" stroke-width="2" stroke-linecap="round"/>
<path d="M246 200H240V204V208H242V204H246V200Z" fill="#818285"/>
</g>
<g clip-path="url(#clip13_2155_6327)">
<path d="M239 220L241 216L243 218L239 220Z" fill="#818285"/>
<path d="M246.303 210.697L247.01 211.404L242.707 215.707L242 215L246.303 210.697Z" fill="#818285"/>
<path d="M247.594 212.008L248.301 212.715L244 217.016L243.293 216.309L247.594 212.008Z" fill="#818285"/>
<path d="M249.004 212.02L248.297 212.727L246.277 210.708L246.985 210L249.004 212.02Z" fill="#818285"/>
</g>
</g>
</g>
</g>
<defs>
<clipPath id="clip0_2155_6327">
<rect width="300" height="300" fill="white"/>
</clipPath>
<clipPath id="clip1_2155_6327">
<rect width="1304" height="128" fill="white" transform="translate(37 37)"/>
</clipPath>
<clipPath id="clip2_2155_6327">
<rect width="24" height="24" fill="white" transform="translate(37 141)"/>
</clipPath>
<clipPath id="clip3_2155_6327">
<rect width="24" height="24" fill="white" transform="translate(37 87)"/>
</clipPath>
<clipPath id="clip4_2155_6327">
<rect width="24" height="24" fill="white" transform="translate(104 87)"/>
</clipPath>
<clipPath id="clip5_2155_6327">
<rect width="24" height="24" fill="white" transform="translate(171 87)"/>
</clipPath>
<clipPath id="clip6_2155_6327">
<rect width="24" height="24" fill="white" transform="translate(104 37)"/>
</clipPath>
<clipPath id="clip7_2155_6327">
<rect width="24" height="24" fill="white" transform="translate(171 37)"/>
</clipPath>
<clipPath id="clip8_2155_6327">
<rect width="1304" height="128" fill="white" transform="translate(-565 196)"/>
</clipPath>
<clipPath id="clip9_2155_6327">
<rect width="24" height="24" fill="white" transform="translate(172 246)"/>
</clipPath>
<clipPath id="clip10_2155_6327">
<rect width="24" height="24" fill="white" transform="translate(38 196)"/>
</clipPath>
<clipPath id="clip11_2155_6327">
<rect width="24" height="24" fill="white" transform="translate(172 196)"/>
</clipPath>
<clipPath id="clip12_2155_6327">
<rect width="24" height="24" fill="white" transform="translate(239 196)"/>
</clipPath>
<clipPath id="clip13_2155_6327">
<rect width="10" height="10" fill="white" transform="translate(239 210)"/>
</clipPath>
</defs>
</svg>
