<svg width="8" height="8" viewBox="0 0 8 8" fill="none" xmlns="http://www.w3.org/2000/svg">
<g clip-path="url(#clip0_715_19718)">
<mask id="mask0_715_19718" style="mask-type:alpha" maskUnits="userSpaceOnUse" x="0" y="0" width="8" height="8">
<path d="M0 0H2V7H8V8H0V0Z" fill="#D9D9D9"/>
</mask>
<g mask="url(#mask0_715_19718)">
<rect x="4" y="5" width="1" height="2" fill="#0C121C"/>
<path d="M1 2H2V3H1V2Z" fill="#0C121C"/>
<rect y="2" width="1" height="5" fill="#0C121C"/>
<rect y="7" width="5" height="1" fill="#0C121C"/>
<mask id="path-6-inside-1_715_19718" fill="white">
<path d="M5 5L2 2V5H5Z"/>
</mask>
<path d="M2 2L3.41421 0.585786L0 -2.82843V2H2ZM5 5V7H9.82843L6.41421 3.58579L5 5ZM2 5H0V7H2V5ZM0.585786 3.41421L3.58579 6.41421L6.41421 3.58579L3.41421 0.585786L0.585786 3.41421ZM5 3H2V7H5V3ZM4 5V2H0V5H4Z" fill="#0C121C" mask="url(#path-6-inside-1_715_19718)"/>
</g>
<rect x="7" y="3" width="1" height="2" fill="#0C121C"/>
<path d="M4 0H5V1H4V0Z" fill="#0C121C"/>
<rect x="3" width="1" height="5" fill="#0C121C"/>
<rect x="3" y="5" width="5" height="1" fill="#0C121C"/>
<mask id="path-12-inside-2_715_19718" fill="white">
<path d="M8 3L5 0V3H8Z"/>
</mask>
<path d="M5 0L6.41421 -1.41421L3 -4.82843V0H5ZM8 3V5H12.8284L9.41421 1.58579L8 3ZM5 3H3V5H5V3ZM3.58579 1.41421L6.58579 4.41421L9.41421 1.58579L6.41421 -1.41421L3.58579 1.41421ZM8 1H5V5H8V1ZM7 3V0H3V3H7Z" fill="#0C121C" mask="url(#path-12-inside-2_715_19718)"/>
</g>
<defs>
<clipPath id="clip0_715_19718">
<rect width="8" height="8" fill="white"/>
</clipPath>
</defs>
</svg>
