<svg width="8" height="8" viewBox="0 0 8 8" fill="none" xmlns="http://www.w3.org/2000/svg">
<g clip-path="url(#clip0_716_19570)">
<path d="M0 2H2V7H5V8H2H0V2Z" fill="#0C121C"/>
<rect x="7" y="3" width="1" height="2" fill="#0C121C"/>
<path d="M4 0H5V1H4V0Z" fill="#0C121C"/>
<rect x="3" width="1" height="5" fill="#0C121C"/>
<rect x="3" y="5" width="5" height="1" fill="#0C121C"/>
<mask id="path-6-inside-1_716_19570" fill="white">
<path d="M8 3L5 0V3H8Z"/>
</mask>
<path d="M5 0L6.41421 -1.41421L3 -4.82843V0H5ZM8 3V5H12.8284L9.41421 1.58579L8 3ZM5 3H3V5H5V3ZM3.58579 1.41421L6.58579 4.41421L9.41421 1.58579L6.41421 -1.41421L3.58579 1.41421ZM8 1H5V5H8V1ZM7 3V0H3V3H7Z" fill="#0C121C" mask="url(#path-6-inside-1_716_19570)"/>
</g>
<defs>
<clipPath id="clip0_716_19570">
<rect width="8" height="8" fill="white"/>
</clipPath>
</defs>
</svg>
