<svg width="16" height="16" viewBox="0 0 16 16" fill="none" xmlns="http://www.w3.org/2000/svg">
<g clip-path="url(#clip0_689_20588)">
<mask id="mask0_689_20588" style="mask-type:alpha" maskUnits="userSpaceOnUse" x="0" y="0" width="16" height="16">
<path fill-rule="evenodd" clip-rule="evenodd" d="M16 0H0V12H1H6V14.6667V16H16V0Z" fill="#D9D9D9"/>
</mask>
<g mask="url(#mask0_689_20588)">
<rect y="1" width="1" height="14" fill="#0C121C"/>
<rect x="15" y="5" width="1" height="10" fill="#0C121C"/>
<rect x="1" y="14" width="14" height="1" fill="#0C121C"/>
<rect x="1" y="1" width="11" height="1" fill="#0C121C"/>
<path d="M12 2.41421L14.5858 5H12V2.41421Z" stroke="#0C121C" stroke-width="2"/>
</g>
<path d="M0 16L1 13L3 15L0 16Z" fill="#0C121C"/>
<path d="M4.82617 9.17578L5.53328 9.88289L2.70485 12.7113L1.99775 12.0042L4.82617 9.17578Z" fill="#0C121C"/>
<path d="M5.61719 10.9673L6.32429 11.6744L4.01247 13.9862L3.30536 13.2791L5.61719 10.9673Z" fill="#0C121C"/>
<path d="M7 11.002L6.29289 11.7091L4.29081 9.70697L4.99791 8.99987L7 11.002Z" fill="#0C121C"/>
</g>
<defs>
<clipPath id="clip0_689_20588">
<rect width="16" height="16" fill="white"/>
</clipPath>
</defs>
</svg>
