<svg width="16" height="16" viewBox="0 0 16 16" fill="none" xmlns="http://www.w3.org/2000/svg">
<g clip-path="url(#clip0_1805_34852)">
<path d="M1 0H6V1H7V2H8V7H1V0Z" fill="#FCFCFC" fill-opacity="0.75"/>
<path d="M3 3H6V5H3V3Z" fill="url(#paint0_linear_1805_34852)"/>
<rect x="2" y="1" width="1" height="5" fill="#3A3A3A"/>
<rect x="4" y="1" width="1" height="2" fill="#3A3A3A"/>
<rect x="6" y="2" width="1" height="3" transform="rotate(90 6 2)" fill="#3A3A3A"/>
<rect x="6" y="3" width="1" height="3" fill="#3A3A3A"/>
<rect x="2" y="5" width="5" height="1" fill="#3A3A3A"/>
</g>
<g clip-path="url(#clip1_1805_34852)">
<path d="M8 10V9H12V10H15V11H16V14H15V15H14V16H8V10Z" fill="#FCFCFC" fill-opacity="0.75"/>
<rect x="9" y="10" width="2" height="1" fill="#F2994A"/>
<rect x="10" y="12" width="1" height="1" fill="#F2994A"/>
<rect x="14" y="12" width="1" height="1" fill="#F2994A"/>
<rect x="13" y="13" width="1" height="1" fill="#F2994A"/>
<rect x="9" y="11" width="1" height="4" fill="#F2994A"/>
<path d="M9 14H13V15H9V14Z" fill="#F2994A"/>
<rect x="10" y="11" width="4" height="1" fill="#F2994A"/>
<path d="M11 12H14V13H13V14H10V13H11V12Z" fill="url(#paint1_radial_1805_34852)"/>
</g>
<g clip-path="url(#clip2_1805_34852)">
<path d="M9 1H13V2H14V4H15V7H14V8H11V7H10V4H9V1Z" fill="#FCFCFC" fill-opacity="0.75"/>
<rect x="11" y="5" width="3" height="1" fill="#00A1DB"/>
<rect x="12" y="3" width="1" height="2" fill="#00A1DB"/>
<rect x="12" y="6" width="1" height="1" fill="#00A1DB"/>
<rect x="10" y="2" width="2" height="1" fill="#00A1DB"/>
</g>
<defs>
<linearGradient id="paint0_linear_1805_34852" x1="4.5" y1="3" x2="4.5" y2="5" gradientUnits="userSpaceOnUse">
<stop stop-color="#FCFCFC"/>
<stop offset="1" stop-color="#E6EAEA"/>
</linearGradient>
<radialGradient id="paint1_radial_1805_34852" cx="0" cy="0" r="1" gradientUnits="userSpaceOnUse" gradientTransform="translate(11.8261 14) rotate(-84.1325) scale(2.55183 3.85765)">
<stop stop-color="#F2994A"/>
<stop offset="0.588115" stop-color="#F2C94C"/>
<stop offset="1" stop-color="#FCFCFC"/>
</radialGradient>
<clipPath id="clip0_1805_34852">
<rect width="7" height="7" fill="white" transform="translate(1)"/>
</clipPath>
<clipPath id="clip1_1805_34852">
<rect width="8" height="7" fill="white" transform="translate(8 9)"/>
</clipPath>
<clipPath id="clip2_1805_34852">
<rect width="6" height="7" fill="white" transform="translate(9 1)"/>
</clipPath>
</defs>
</svg>
