<svg width="16" height="16" viewBox="0 0 16 16" fill="none" xmlns="http://www.w3.org/2000/svg">
<g clip-path="url(#clip0_1815_17595)">
<path d="M0 1H3V0H8V1H11V14H0V1Z" fill="#FCFCFC" fill-opacity="0.75"/>
<rect x="2" y="3" width="7" height="9" fill="url(#paint0_linear_1815_17595)"/>
<path d="M5 2H6V3H7V4H4V3H5V2Z" fill="#FCFCFC"/>
<path d="M4 1H7V1.5V3H6V2H5V3H2V12H9V3H8V5H3V3H4V4H7V2H10V13H1V2H4V1Z" fill="#3A3A3A"/>
<path d="M6 5H14V6H15V7H16V17H6V5Z" fill="#FCFCFC" fill-opacity="0.75"/>
<path d="M7 6H13V7H14V8H15V16H7V6Z" fill="url(#paint1_linear_1815_17595)"/>
<path fill-rule="evenodd" clip-rule="evenodd" d="M13 6H7V7V16H15V8H14V7H13V6ZM14 9H13H12V8V7H8V15H14V9Z" fill="#3A3A3A"/>
</g>
<defs>
<linearGradient id="paint0_linear_1815_17595" x1="8.75" y1="3" x2="1.5211" y2="11.5973" gradientUnits="userSpaceOnUse">
<stop stop-color="#94E1FC"/>
<stop offset="1" stop-color="#00A1DB"/>
</linearGradient>
<linearGradient id="paint1_linear_1815_17595" x1="11" y1="6" x2="11" y2="16" gradientUnits="userSpaceOnUse">
<stop stop-color="#FCFCFC"/>
<stop offset="1" stop-color="#E6EAEA"/>
</linearGradient>
<clipPath id="clip0_1815_17595">
<rect width="16" height="16" fill="white"/>
</clipPath>
</defs>
</svg>
