<svg width="16" height="16" viewBox="0 0 16 16" fill="none" xmlns="http://www.w3.org/2000/svg">
<g clip-path="url(#clip0_1817_17772)">
<path d="M2 1V0H6V1H9V2H10V5H9V6H8V7H2V1Z" fill="#FCFCFC" fill-opacity="0.75"/>
<rect x="3" y="1" width="2" height="1" fill="#F2994A"/>
<rect x="4" y="3" width="1" height="1" fill="#F2994A"/>
<rect x="8" y="3" width="1" height="1" fill="#F2994A"/>
<rect x="7" y="4" width="1" height="1" fill="#F2994A"/>
<rect x="3" y="2" width="1" height="4" fill="#F2994A"/>
<path d="M3 5H7V6H3V5Z" fill="#F2994A"/>
<rect x="4" y="2" width="4" height="1" fill="#F2994A"/>
<path d="M5 3H8V4H7V5H4V4H5V3Z" fill="url(#paint0_radial_1817_17772)"/>
</g>
<g clip-path="url(#clip1_1817_17772)">
<path d="M2 9V8H6V9H9V10H10V13H9V14H8V15H2V9Z" fill="#FCFCFC" fill-opacity="0.75"/>
<rect x="3" y="9" width="2" height="1" fill="#F2994A"/>
<rect x="4" y="11" width="1" height="1" fill="#F2994A"/>
<rect x="8" y="11" width="1" height="1" fill="#F2994A"/>
<rect x="7" y="12" width="1" height="1" fill="#F2994A"/>
<rect x="3" y="10" width="1" height="4" fill="#F2994A"/>
<path d="M3 13H7V14H3V13Z" fill="#F2994A"/>
<rect x="4" y="10" width="4" height="1" fill="#F2994A"/>
<path d="M5 11H8V12H7V13H4V12H5V11Z" fill="url(#paint1_radial_1817_17772)"/>
</g>
<g clip-path="url(#clip2_1817_17772)">
<path d="M15 1L15 6L12 6L12 5L11 5L11 2L12 2L12 1L15 1Z" fill="#FCFCFC" fill-opacity="0.75"/>
<rect x="13" y="3" width="1" height="1" transform="rotate(90 13 3)" fill="#00A1DB"/>
<rect x="14" y="2" width="3" height="1" transform="rotate(90 14 2)" fill="#00A1DB"/>
</g>
<g clip-path="url(#clip3_1817_17772)">
<path d="M15 9L15 14L12 14L12 13L11 13L11 10L12 10L12 9L15 9Z" fill="#FCFCFC" fill-opacity="0.75"/>
<rect x="13" y="11" width="1" height="1" transform="rotate(90 13 11)" fill="#00A1DB"/>
<rect x="14" y="10" width="3" height="1" transform="rotate(90 14 10)" fill="#00A1DB"/>
</g>
<defs>
<radialGradient id="paint0_radial_1817_17772" cx="0" cy="0" r="1" gradientUnits="userSpaceOnUse" gradientTransform="translate(5.82609 5) rotate(-84.1325) scale(2.55183 3.85765)">
<stop stop-color="#F2994A"/>
<stop offset="0.588115" stop-color="#F2C94C"/>
<stop offset="1" stop-color="#FCFCFC"/>
</radialGradient>
<radialGradient id="paint1_radial_1817_17772" cx="0" cy="0" r="1" gradientUnits="userSpaceOnUse" gradientTransform="translate(5.82609 13) rotate(-84.1325) scale(2.55183 3.85765)">
<stop stop-color="#F2994A"/>
<stop offset="0.588115" stop-color="#F2C94C"/>
<stop offset="1" stop-color="#FCFCFC"/>
</radialGradient>
<clipPath id="clip0_1817_17772">
<rect width="8" height="7" fill="white" transform="translate(2)"/>
</clipPath>
<clipPath id="clip1_1817_17772">
<rect width="8" height="7" fill="white" transform="translate(2 8)"/>
</clipPath>
<clipPath id="clip2_1817_17772">
<rect width="5" height="4" fill="white" transform="translate(15 1) rotate(90)"/>
</clipPath>
<clipPath id="clip3_1817_17772">
<rect width="5" height="4" fill="white" transform="translate(15 9) rotate(90)"/>
</clipPath>
</defs>
</svg>
