<svg width="16" height="16" viewBox="0 0 16 16" fill="none" xmlns="http://www.w3.org/2000/svg">
<g clip-path="url(#clip0_1827_17528)">
<path d="M11 0H2V16H14V3H13V2H12V1H11V0Z" fill="#FCFCFC" fill-opacity="0.75"/>
<path d="M3 1H10V2H11V3H12V4H13V15H3V1Z" fill="url(#paint0_linear_1827_17528)"/>
<path fill-rule="evenodd" clip-rule="evenodd" d="M3 1H10V2H11V3H10V4H11V3H12V4H13V15H3V2V1ZM12 5H10H9V4V2H4V14H12V5Z" fill="#3A3A3A"/>
</g>
<rect x="8" y="7" width="3" height="1" fill="#D8D8D8"/>
<rect x="8" y="8" width="3" height="1" fill="#FCFCFC"/>
<rect x="5" y="7" width="3" height="1" fill="#D8D8D8"/>
<rect x="5" y="8" width="3" height="1" fill="#FCFCFC"/>
<rect x="5" y="4" width="3" height="1" fill="#D8D8D8"/>
<rect x="5" y="5" width="3" height="1" fill="#FCFCFC"/>
<rect x="8" y="10" width="3" height="1" fill="#D8D8D8"/>
<rect x="8" y="11" width="3" height="1" fill="#FCFCFC"/>
<g clip-path="url(#clip1_1827_17528)">
<path d="M0 8H3V9H6V8H9L8 16H1L0 8Z" fill="#FCFCFC" fill-opacity="0.75"/>
<path d="M1 9H2L3 15H2L1 9Z" fill="#00A1DB"/>
<path d="M5 10H4L2 15H3L5 10Z" fill="#00A1DB"/>
<path d="M4 10H5L7 15H6L4 10Z" fill="#00A1DB"/>
<path d="M8 9H7L6 15H7L8 9Z" fill="#00A1DB"/>
</g>
<defs>
<linearGradient id="paint0_linear_1827_17528" x1="8" y1="1" x2="8" y2="15" gradientUnits="userSpaceOnUse">
<stop stop-color="#FCFCFC"/>
<stop offset="1" stop-color="#E6EAEA"/>
</linearGradient>
<clipPath id="clip0_1827_17528">
<rect width="12" height="16" fill="white" transform="translate(2)"/>
</clipPath>
<clipPath id="clip1_1827_17528">
<rect width="9" height="8" fill="white" transform="translate(0 8)"/>
</clipPath>
</defs>
</svg>
