<svg width="16" height="16" viewBox="0 0 16 16" fill="none" xmlns="http://www.w3.org/2000/svg">
<g clip-path="url(#clip0_726_19747)">
<mask id="mask0_726_19747" style="mask-type:alpha" maskUnits="userSpaceOnUse" x="0" y="0" width="16" height="16">
<path fill-rule="evenodd" clip-rule="evenodd" d="M16 0H0V8H1H8V14V16H16V0Z" fill="#D9D9D9"/>
</mask>
<g mask="url(#mask0_726_19747)">
<rect y="1" width="1" height="14" fill="#0C121C"/>
<rect x="15" y="5" width="1" height="10" fill="#0C121C"/>
<rect x="1" y="14" width="14" height="1" fill="#0C121C"/>
<rect x="1" y="1" width="11" height="1" fill="#0C121C"/>
<path d="M12 2.41421L14.5858 5H12V2.41421Z" stroke="#0C121C" stroke-width="2"/>
</g>
<path fill-rule="evenodd" clip-rule="evenodd" d="M1 16L-3.0598e-07 9L1 9L2 13L3.5 10L5 13L6 9L7 9L6 16L5 16L3.5 12.5L2 16L1 16Z" fill="#0C121C"/>
</g>
<defs>
<clipPath id="clip0_726_19747">
<rect width="16" height="16" fill="white"/>
</clipPath>
</defs>
</svg>
