<svg width="16" height="16" viewBox="0 0 16 16" fill="none" xmlns="http://www.w3.org/2000/svg">
<path fill-rule="evenodd" clip-rule="evenodd" d="M0 1V10H1V2H12V5H15V14H9V15H16V4L13 1H0Z" fill="#0C121C"/>
<path fill-rule="evenodd" clip-rule="evenodd" d="M0 13C0 13 1.62346 10 3.99999 10C6.37651 10 8 13 8 13C8 13 6.42541 16 3.99999 16C1.58434 16 0 13 0 13ZM4 15C5.10457 15 6 14.1046 6 13C6 11.8954 5.10457 11 4 11C2.89543 11 2 11.8954 2 13C2 14.1046 2.89543 15 4 15Z" fill="#0C121C"/>
<circle cx="4" cy="13" r="1" fill="#0C121C"/>
</svg>
