<svg width="16" height="16" viewBox="0 0 16 16" fill="none" xmlns="http://www.w3.org/2000/svg">
<g clip-path="url(#clip0_1832_17268)">
<g clip-path="url(#clip1_1832_17268)">
<rect width="16" height="5" fill="#FCFCFC" fill-opacity="0.75"/>
<path d="M1 1H15V4H13V2H12V4H11H10V2H9V4H7V2H6V4H4V2H3V4H1V1Z" fill="#3A3A3A"/>
</g>
<g clip-path="url(#clip2_1832_17268)">
<rect width="16" height="5" transform="matrix(1 0 0 -1 0 16)" fill="#FCFCFC" fill-opacity="0.75"/>
<path d="M1 15H15V12H13V14H12V12H11H10V14H9V12H7V14H6V12H4V14H3V12H1V15Z" fill="#3A3A3A"/>
</g>
<path fill-rule="evenodd" clip-rule="evenodd" d="M1.5 11L7.5 5H14.5L8.5 11H1.5Z" fill="#FCFCFC" fill-opacity="0.75"/>
<path fill-rule="evenodd" clip-rule="evenodd" d="M3 11L9 5H13L7 11H3Z" fill="#919191"/>
</g>
<defs>
<clipPath id="clip0_1832_17268">
<rect width="16" height="16" fill="white"/>
</clipPath>
<clipPath id="clip1_1832_17268">
<rect width="16" height="5" fill="white" transform="matrix(1 0 0 -1 0 5)"/>
</clipPath>
<clipPath id="clip2_1832_17268">
<rect width="16" height="5" fill="white" transform="translate(0 11)"/>
</clipPath>
</defs>
</svg>
