<svg width="16" height="16" viewBox="0 0 16 16" fill="none" xmlns="http://www.w3.org/2000/svg">
<g clip-path="url(#clip0_740_20016)">
<path d="M16 15L16 12H13V15L16 15Z" fill="#0C121C"/>
<path d="M16 9L16 6H13V9L16 9Z" fill="#0C121C"/>
<path d="M16 3L16 0H13V3L16 3Z" fill="#0C121C"/>
<path d="M4 3L4 0H1V3L4 3Z" fill="#0C121C"/>
<path d="M12 3L12 0H9V3L12 3Z" fill="#0C121C"/>
<path d="M12 9L12 6H9V9L12 9Z" fill="#0C121C"/>
<path d="M12 15L12 12H9V15L12 15Z" fill="#0C121C"/>
<path d="M8 3L8 0H5V3L8 3Z" fill="#0C121C"/>
<path d="M8 9L8 6H5V9L8 9Z" fill="#0C121C"/>
<path d="M0 14C0 12.8954 0.895431 12 2 12C3.10457 12 4 12.8954 4 14V15C4 15.5523 3.55228 16 3 16V14H1V16C0.447715 16 0 15.5523 0 15V14Z" fill="#0C121C"/>
<path d="M1 8C1 7.44772 1.44772 7 2 7C2.55228 7 3 7.44772 3 8V13H1V8Z" fill="#0C121C"/>
</g>
<defs>
<clipPath id="clip0_740_20016">
<rect width="16" height="16" fill="white"/>
</clipPath>
</defs>
</svg>
