<svg width="16" height="16" viewBox="0 0 16 16" fill="none" xmlns="http://www.w3.org/2000/svg">
<path fill-rule="evenodd" clip-rule="evenodd" d="M16 1H12V15H16V1ZM8.375 15H10V1H6V9H7.09015C8.34242 9 9.28667 10.1378 9.05589 11.3686L8.75 13H9V14H8.5625L8.375 15ZM4 9V1H0V8H3C3.55228 8 4 8.44771 4 9ZM3 2H1V7H3V2ZM9 2H7V7H9V2ZM13 2H15V7H13V2ZM15 13H13V14H15V13Z" fill="#0C121C"/>
<path d="M0 10C0 9.44772 0.447715 9 1 9H2C2.55228 9 3 9.44772 3 10V10H5C5.55228 10 6 10.4477 6 11V11H7C7.55228 11 8 11.4477 8 12V12L7 15H6L7 12H2L1 15H6H7L6.77639 15.4472C6.607 15.786 6.26074 16 5.88197 16H1C0.447715 16 0 15.5523 0 15V15V10V10Z" fill="#0C121C"/>
</svg>
