<svg width="16" height="16" viewBox="0 0 16 16" fill="none" xmlns="http://www.w3.org/2000/svg">
<g clip-path="url(#clip0_1844_17036)">
<g clip-path="url(#clip1_1844_17036)">
<path d="M0 8L-1.74846e-07 12L1 12L1 13L3 13L3 14L6 14L6 13L7 13L7 10L6 10L6 9L3 9L3 8L0 8Z" fill="#FCFCFC" fill-opacity="0.75"/>
<rect width="3" height="1" transform="matrix(-4.37114e-08 1 1 4.37114e-08 4 10)" fill="#00A1DB"/>
<rect width="1" height="2" transform="matrix(-4.37114e-08 1 1 4.37114e-08 2 11)" fill="#00A1DB"/>
<rect width="1" height="1" transform="matrix(-4.37114e-08 1 1 4.37114e-08 5 11)" fill="#00A1DB"/>
<rect width="2" height="1" transform="matrix(-4.37114e-08 1 1 4.37114e-08 1 9)" fill="#00A1DB"/>
</g>
<g clip-path="url(#clip2_1844_17036)">
<path d="M0 0H8V1H9V8H0V0Z" fill="#FCFCFC" fill-opacity="0.75"/>
<path d="M5 4.5H7.5V6.5H1.5V1.5H4.5V4V4.5H5Z" fill="url(#paint0_linear_1844_17036)" stroke="#919191"/>
<path d="M6 1H7V2H8V3H6V1Z" fill="#919191"/>
</g>
<g clip-path="url(#clip3_1844_17036)">
<path d="M7 8H15V9H16V16H7V8Z" fill="#FCFCFC" fill-opacity="0.75"/>
<path d="M12 12.5H14.5V14.5H8.5V9.5H11.5V12V12.5H12Z" fill="url(#paint1_linear_1844_17036)" stroke="#919191"/>
<path d="M13 9H14V10H15V11H13V9Z" fill="#919191"/>
</g>
</g>
<defs>
<linearGradient id="paint0_linear_1844_17036" x1="4.5" y1="1" x2="4.5" y2="7" gradientUnits="userSpaceOnUse">
<stop stop-color="#F4F7F6"/>
<stop offset="1" stop-color="#D8D8D8"/>
</linearGradient>
<linearGradient id="paint1_linear_1844_17036" x1="11.5" y1="9" x2="11.5" y2="15" gradientUnits="userSpaceOnUse">
<stop stop-color="#F4F7F6"/>
<stop offset="1" stop-color="#D8D8D8"/>
</linearGradient>
<clipPath id="clip0_1844_17036">
<rect width="16" height="16" fill="white"/>
</clipPath>
<clipPath id="clip1_1844_17036">
<rect width="6" height="7" fill="white" transform="matrix(-4.37114e-08 1 1 4.37114e-08 0 8)"/>
</clipPath>
<clipPath id="clip2_1844_17036">
<rect width="9" height="8" fill="white"/>
</clipPath>
<clipPath id="clip3_1844_17036">
<rect width="9" height="8" fill="white" transform="translate(7 8)"/>
</clipPath>
</defs>
</svg>
