<svg width="16" height="16" viewBox="0 0 16 16" fill="none" xmlns="http://www.w3.org/2000/svg">
<g clip-path="url(#clip0_1844_17142)">
<g clip-path="url(#clip1_1844_17142)">
<rect width="16" height="16" fill="#FCFCFC" fill-opacity="0.75"/>
<rect x="1.5" y="3.5" width="13" height="11" fill="#FCFCFC" stroke="#919191"/>
<rect x="1.5" y="1.5" width="13" height="3" fill="#94E1FC" stroke="#3A3A3A"/>
<rect x="2" y="2" width="12" height="1" fill="#00A1DB"/>
</g>
<rect x="2" y="8" width="4" height="1" fill="#D8D8D8"/>
<rect x="6" y="8" width="5" height="1" fill="#D8D8D8"/>
<rect x="5" y="5" width="1" height="3" fill="#D8D8D8"/>
<rect x="10" y="5" width="1" height="3" fill="#D8D8D8"/>
<rect x="10" y="8" width="1" height="4" fill="#D8D8D8"/>
<rect x="10" y="11" width="1" height="3" fill="#D8D8D8"/>
<rect x="10" y="8" width="4" height="1" fill="#D8D8D8"/>
<rect x="10" y="11" width="4" height="1" fill="#D8D8D8"/>
<g clip-path="url(#clip2_1844_17142)">
<path d="M0 9H4V10H5V9H6V8H9V11H8V13H7V15H6V16H3V15H2V14H1V13H0V9Z" fill="#FCFCFC" fill-opacity="0.75"/>
<path d="M4 11V12H5V11H6V10H7V9H8V10H7V11V12H6V14H5V15H4V14H3V13H2V12H1V11V10H2H3V11H4Z" fill="#00A1DB"/>
</g>
<rect x="1" y="14" width="1" height="1" fill="#FCFCFC" fill-opacity="0.75"/>
</g>
<defs>
<clipPath id="clip0_1844_17142">
<rect width="16" height="16" fill="white"/>
</clipPath>
<clipPath id="clip1_1844_17142">
<rect width="16" height="16" fill="white"/>
</clipPath>
<clipPath id="clip2_1844_17142">
<rect width="9" height="8" fill="white" transform="translate(0 8)"/>
</clipPath>
</defs>
</svg>
