<svg width="16" height="16" viewBox="0 0 16 16" fill="none" xmlns="http://www.w3.org/2000/svg">
<g clip-path="url(#clip0_1849_16176)">
<g clip-path="url(#clip1_1849_16176)">
<path d="M13 16L13 15L14 15L14 14L15 14L15 13L16 13L16 10L15 10L15 9L14 9L14 -8.74228e-08L9 -3.0598e-07L9 9L8 9L8 10L7 10L7 13L8 13L8 14L9 14L9 15L10 15L10 16L13 16Z" fill="#FCFCFC" fill-opacity="0.75"/>
<path d="M12 14L15 11L12 11L12 2L11 2L11 11L8 11L11 14L12 14Z" fill="url(#paint0_linear_1849_16176)"/>
<path d="M14 10L14 11L12 11L12 2L11 2L11 11L9 11L9 10L10 10L10 1L13 1L13 10L14 10Z" fill="#00A1DB"/>
<rect x="12" y="14" width="1" height="1" transform="rotate(90 12 14)" fill="#00A1DB"/>
<rect x="14" y="12" width="1" height="1" transform="rotate(90 14 12)" fill="#00A1DB"/>
<rect x="15" y="11" width="1" height="1" transform="rotate(90 15 11)" fill="#00A1DB"/>
<rect width="1" height="1" transform="matrix(-4.37114e-08 1 1 4.37114e-08 9 12)" fill="#00A1DB"/>
<rect width="1" height="1" transform="matrix(-4.37114e-08 1 1 4.37114e-08 8 11)" fill="#00A1DB"/>
<rect x="13" y="13" width="1" height="1" transform="rotate(90 13 13)" fill="#00A1DB"/>
<rect width="1" height="1" transform="matrix(-4.37114e-08 1 1 4.37114e-08 10 13)" fill="#00A1DB"/>
</g>
<g clip-path="url(#clip2_1849_16176)">
<path d="M0 8H3V7H4V8H7V7L4.5 0H2.5L0 7V8Z" fill="#FCFCFC" fill-opacity="0.75"/>
<path d="M3 1H4L6 7H4.75L4 4V3H3V4L2.25 7H1L3 1Z" fill="#00A1DB"/>
<path d="M2 4H5V5H2V4Z" fill="#00A1DB"/>
</g>
<g clip-path="url(#clip3_1849_16176)">
<path d="M4 9H5V15H4V9Z" fill="#00A1DB"/>
<path d="M1 14H2V15H1V14Z" fill="#00A1DB"/>
<path d="M2 12H3V14H2V12Z" fill="#00A1DB"/>
<path fill-rule="evenodd" clip-rule="evenodd" d="M4 10H3C2.44772 10 2 10.4477 2 11C2 11.5523 2.44772 12 3 12H4V10ZM3 9C1.89543 9 1 9.89543 1 11C1 12.1046 1.89543 13 3 13H5V9H3Z" fill="#00A1DB"/>
<path d="M3.5 8.5H3C1.61929 8.5 0.5 9.61929 0.5 11C0.5 11.8179 0.892777 12.5441 1.5 13.0002V13.5H1H0.5V14V15V15.5H1H2H2.5V15V14.5H3H3.5V15V15.5H4H5H5.5V15V13.5V13V9V8.5H5H4H3.5ZM3 10.5H3.5V11.5H3C2.72386 11.5 2.5 11.2761 2.5 11C2.5 10.7239 2.72386 10.5 3 10.5Z" stroke="#FCFCFC" stroke-opacity="0.75"/>
</g>
</g>
<defs>
<linearGradient id="paint0_linear_1849_16176" x1="14.0278" y1="4.33333" x2="7.04022" y2="7.50361" gradientUnits="userSpaceOnUse">
<stop stop-color="#94E1FC"/>
<stop offset="1" stop-color="#FCFCFC"/>
</linearGradient>
<clipPath id="clip0_1849_16176">
<rect width="16" height="16" fill="white"/>
</clipPath>
<clipPath id="clip1_1849_16176">
<rect width="16" height="9" fill="white" transform="translate(16) rotate(90)"/>
</clipPath>
<clipPath id="clip2_1849_16176">
<rect width="7" height="8" fill="white"/>
</clipPath>
<clipPath id="clip3_1849_16176">
<rect width="6" height="8" fill="white" transform="translate(0 8)"/>
</clipPath>
</defs>
</svg>
