<svg width="16" height="16" viewBox="0 0 16 16" fill="none" xmlns="http://www.w3.org/2000/svg">
<path fill-rule="evenodd" clip-rule="evenodd" d="M16 1H12V15H16V1ZM7.82929 15H10V1H6V11.1707C6.85241 11.472 7.52801 12.1476 7.82929 13H9V14H8C8 14.3506 7.93985 14.6872 7.82929 15ZM4 11V1H0V11.7639C0.530757 11.2889 1.23165 11 2 11H4ZM3 2H1V7H3V2ZM9 2H7V7H9V2ZM13 2H15V7H13V2ZM15 13H13V14H15V13Z" fill="#0C121C"/>
<path fill-rule="evenodd" clip-rule="evenodd" d="M2 12C0.895431 12 0 12.8954 0 14C0 15.1046 0.89543 16 2 16H5C6.10457 16 7 15.1046 7 14C7 12.8954 6.10457 12 5 12H2ZM2 15C2.55228 15 3 14.5523 3 14C3 13.4477 2.55228 13 2 13C1.44772 13 1 13.4477 1 14C1 14.5523 1.44772 15 2 15Z" fill="#0C121C"/>
</svg>
