<svg width="16" height="16" viewBox="0 0 16 16" fill="none" xmlns="http://www.w3.org/2000/svg">
<g clip-path="url(#clip0_1853_15965)">
<path d="M14.8388 3.10041C13.9829 2.60187 11.1461 4.00252 9.18975 6.3528C7.20891 8.67933 6.86655 9.43898 6.86655 9.43898C6.86655 9.43898 4.46998 7.11248 2.92933 6.3528C1.68213 5.75929 0.31267 7.56357 1.38868 8.67935C2.58697 9.93758 5.49709 13 6.96438 13C8.43166 13 9.23868 10.0325 10.9994 7.68224C12.9558 4.9996 15.6947 3.59895 14.8388 3.10041Z" fill="#FCFCFC" fill-opacity="0.75"/>
<path d="M6.75944 8.65217C6.51137 8.42368 6.17764 8.12294 5.80052 7.80066C5.00929 7.12449 3.98288 6.31481 3.15045 5.90435L3.15048 5.90431L3.14418 5.90131C2.23466 5.4685 1.33635 5.938 0.87905 6.58713C0.411554 7.25073 0.286507 8.25553 1.0276 9.02521L1.04605 9.04459C1.64631 9.6749 2.67803 10.7583 3.74746 11.6887C4.2875 12.1586 4.84951 12.6004 5.38039 12.9275C5.89277 13.2432 6.45081 13.5 6.96438 13.5C7.51749 13.5 7.96363 13.2156 8.32287 12.8501C8.67855 12.4882 8.99778 11.9979 9.30354 11.4748C9.48466 11.1648 9.66351 10.84 9.84668 10.5074C10.3035 9.67783 10.7871 8.79953 11.3996 7.98202L11.3996 7.98205L11.4034 7.97685C12.2685 6.79065 13.2933 5.86294 14.0998 5.13291C14.1717 5.06778 14.2419 5.00422 14.3101 4.9422C14.7073 4.58106 15.0805 4.23377 15.2874 3.9323C15.3881 3.78561 15.5085 3.56822 15.4995 3.31287C15.4887 3.00304 15.3001 2.79044 15.0905 2.66836C14.7035 2.44293 14.202 2.4762 13.7558 2.58102C13.2819 2.69236 12.7427 2.91492 12.1866 3.21988C11.0733 3.83033 9.8265 4.80693 8.80727 6.03075C7.81024 7.20189 7.21915 7.98611 6.8744 8.48351C6.8326 8.54381 6.79438 8.59997 6.75944 8.65217Z" stroke="#FCFCFC" stroke-opacity="0.75"/>
<path d="M9.8807 6.32414L9.88073 6.32416L9.88428 6.31988C10.8205 5.19519 11.8875 4.38999 12.8064 3.92887C13.2667 3.69788 13.6755 3.56038 14.0011 3.50595C14.1846 3.47527 14.3211 3.47417 14.4183 3.48569C14.2773 3.69643 14.0094 3.98641 13.6194 4.37889C13.5007 4.49829 13.3733 4.62471 13.2391 4.75789C12.4618 5.52896 11.4561 6.52676 10.5979 7.70296C9.98813 8.5173 9.47438 9.39187 9.02823 10.1514C8.82186 10.5027 8.62995 10.8294 8.44969 11.1141C8.15198 11.5843 7.88691 11.9428 7.6276 12.1817C7.37486 12.4145 7.16458 12.5002 6.96438 12.5002C6.7443 12.5002 6.38834 12.3742 5.90495 12.0763C5.44006 11.7899 4.92453 11.3875 4.40385 10.9345C3.37006 10.035 2.36462 8.97928 1.76223 8.34676L1.75075 8.33471L1.75076 8.3347L1.74859 8.33245C1.41498 7.98651 1.43677 7.53199 1.69656 7.16323C1.96604 6.78071 2.37456 6.64452 2.7117 6.80314C3.44635 7.16589 4.43625 7.80814 5.25928 8.37357C5.66777 8.65421 6.02883 8.9115 6.28773 9.09862C6.41712 9.19214 6.52084 9.26801 6.59203 9.32037L6.67352 9.38052L6.69434 9.39597L6.69949 9.3998L6.70071 9.40071L6.70098 9.40091L6.70101 9.40094L6.70102 9.40094L7.09556 9.69528L7.39592 9.30554L7.39596 9.3055L7.39599 9.30545L7.39601 9.30543L7.39604 9.30539L7.39677 9.30444L7.40075 9.29932L7.41916 9.27583C7.43629 9.25404 7.46345 9.21973 7.50247 9.17096C7.58053 9.0734 7.70594 8.9182 7.89348 8.68999C8.2686 8.23353 8.89167 7.48578 9.8807 6.32414Z" fill="url(#paint0_linear_1853_15965)" stroke="#919191"/>
</g>
<defs>
<linearGradient id="paint0_linear_1853_15965" x1="8.00001" y1="2.979" x2="8.00001" y2="13.0002" gradientUnits="userSpaceOnUse">
<stop stop-color="#F4F7F6"/>
<stop offset="1" stop-color="#D8D8D8"/>
</linearGradient>
<clipPath id="clip0_1853_15965">
<rect width="16" height="16" fill="white"/>
</clipPath>
</defs>
</svg>
