<svg width="16" height="16" viewBox="0 0 16 16" fill="none" xmlns="http://www.w3.org/2000/svg">
<g clip-path="url(#clip0_770_23265)">
<path fill-rule="evenodd" clip-rule="evenodd" d="M16 1H12V15H16V1ZM10 10V1H6V10H10ZM4 10V1H0V10H4ZM3 2H1V7H3V2ZM9 2H7V7H9V2ZM13 2H15V7H13V2ZM15 13H13V14H15V13Z" fill="#0C121C"/>
<rect x="2" y="13" width="5" height="1" fill="#0C121C"/>
<path d="M9 16L5 16L5 15L5 13.5L6 13.5L6 15L8 15L8 12L6 12L6 13.5L5 13.5L5 12L5 11L9 11L9 16Z" fill="#0C121C"/>
<path d="M0 11H4V13.5H3V12H1V15H3V13.5H4V15V16H0V11Z" fill="#0C121C"/>
</g>
<defs>
<clipPath id="clip0_770_23265">
<rect width="16" height="16" fill="white"/>
</clipPath>
</defs>
</svg>
