<svg width="16" height="16" viewBox="0 0 16 16" fill="none" xmlns="http://www.w3.org/2000/svg">
<g clip-path="url(#clip0_1855_15763)">
<g clip-path="url(#clip1_1855_15763)">
<rect width="16" height="16" fill="#FCFCFC" fill-opacity="0.75"/>
<g clip-path="url(#clip2_1855_15763)">
<rect x="1" y="1" width="1" height="14" fill="#3A3A3A"/>
<rect x="4" y="1" width="1" height="14" fill="#3A3A3A"/>
<rect x="1" y="14" width="4" height="1" fill="#3A3A3A"/>
<rect x="1" y="1" width="4" height="1" fill="#3A3A3A"/>
<rect x="2" y="7" width="2" height="5" fill="#919191"/>
<rect x="2" y="2" width="2" height="1" fill="#919191"/>
<rect x="2" y="13" width="2" height="1" fill="#919191"/>
</g>
<g clip-path="url(#clip3_1855_15763)">
<rect x="6" y="1" width="1" height="14" fill="#3A3A3A"/>
<rect x="9" y="1" width="1" height="14" fill="#3A3A3A"/>
<rect x="6" y="14" width="4" height="1" fill="#3A3A3A"/>
<rect x="6" y="1" width="4" height="1" fill="#3A3A3A"/>
<rect x="7" y="7" width="2" height="5" fill="#919191"/>
<rect x="7" y="2" width="2" height="1" fill="#919191"/>
<rect x="7" y="13" width="2" height="1" fill="#919191"/>
</g>
<g clip-path="url(#clip4_1855_15763)">
<rect x="11" y="1" width="1" height="14" fill="#3A3A3A"/>
<rect x="14" y="1" width="1" height="14" fill="#3A3A3A"/>
<rect x="11" y="14" width="4" height="1" fill="#3A3A3A"/>
<rect x="11" y="1" width="4" height="1" fill="#3A3A3A"/>
<rect x="12" y="7" width="2" height="5" fill="#919191"/>
<rect x="12" y="2" width="2" height="1" fill="#919191"/>
<rect x="12" y="13" width="2" height="1" fill="#919191"/>
</g>
</g>
<g clip-path="url(#clip5_1855_15763)">
<rect y="9" width="11" height="7" fill="#FCFCFC" fill-opacity="0.75"/>
<rect x="3" y="12" width="5" height="1" fill="#00A1DB"/>
<path d="M10 15L6 15L6 14L6 12.5L7 12.5L7 14L9 14L9 11L7 11L7 12.5L6 12.5L6 11L6 10L10 10L10 15Z" fill="#00A1DB"/>
<path d="M1 10H5V12.5H4V11H2V14H4V12.5H5V14V15H1V10Z" fill="#00A1DB"/>
</g>
</g>
<defs>
<clipPath id="clip0_1855_15763">
<rect width="16" height="16" fill="white"/>
</clipPath>
<clipPath id="clip1_1855_15763">
<rect width="16" height="16" fill="white"/>
</clipPath>
<clipPath id="clip2_1855_15763">
<rect width="4" height="14" fill="white" transform="translate(1 1)"/>
</clipPath>
<clipPath id="clip3_1855_15763">
<rect width="4" height="14" fill="white" transform="translate(6 1)"/>
</clipPath>
<clipPath id="clip4_1855_15763">
<rect width="4" height="14" fill="white" transform="translate(11 1)"/>
</clipPath>
<clipPath id="clip5_1855_15763">
<rect width="11" height="7" fill="white" transform="translate(0 9)"/>
</clipPath>
</defs>
</svg>
