<svg width="16" height="16" viewBox="0 0 16 16" fill="none" xmlns="http://www.w3.org/2000/svg">
<g clip-path="url(#clip0_772_23505)">
<path fill-rule="evenodd" clip-rule="evenodd" d="M5.03552 14.9763C5.18821 14.992 5.34317 15 5.5 15C7.98528 15 10 12.9853 10 10.5C10 8.01472 7.98528 6 5.5 6C3.01472 6 1 8.01472 1 10.5C1 10.7223 1.01612 10.9408 1.04725 11.1545C1.34658 11.0543 1.66695 11 2 11V9L8 13L5.03552 14.9763ZM0 8H0.59971C1.51007 6.21916 3.36266 5 5.5 5C6.02001 5 6.52317 5.07217 7 5.20703V1H0V8ZM10.9998 3L9.25781 6.48405C10.3299 7.48767 10.9998 8.9156 10.9998 10.5C10.9998 11.4002 10.7836 12.2499 10.4001 13H15.9998L10.9998 3Z" fill="#0C121C"/>
<path d="M0.5 16C0.5 14 1.5 13 3 13L4 13" stroke="#0C121C"/>
<path d="M6 13L3 11L3 15L6 13Z" fill="#0C121C"/>
</g>
<defs>
<clipPath id="clip0_772_23505">
<rect width="16" height="16" fill="white"/>
</clipPath>
</defs>
</svg>
