<svg width="16" height="16" viewBox="0 0 16 16" fill="none" xmlns="http://www.w3.org/2000/svg">
<g clip-path="url(#clip0_1856_15536)">
<g clip-path="url(#clip1_1856_15536)">
<rect x="10" y="3" width="10" height="10" fill="#FCFCFC" fill-opacity="0.75"/>
<rect x="12" y="7" width="6" height="4" fill="#FCFCFC"/>
<rect x="11" y="4" width="8" height="1" fill="#00A1DB"/>
<rect x="11" y="6" width="8" height="1" fill="#00A1DB"/>
<rect x="12" y="5" width="6" height="1" fill="#94E1FC"/>
<rect x="11" y="11" width="8" height="1" fill="#00A1DB"/>
<rect x="11" y="4" width="1" height="3" fill="#00A1DB"/>
<rect x="11" y="7" width="1" height="4" fill="#00A1DB"/>
</g>
<g clip-path="url(#clip2_1856_15536)">
<rect x="-10" width="16" height="16" fill="#FCFCFC" fill-opacity="0.75"/>
<rect x="-8.5" y="3.5" width="13" height="11" fill="#FCFCFC" stroke="#919191"/>
<rect x="-8.5" y="1.5" width="13" height="3" fill="#94E1FC" stroke="#3A3A3A"/>
<rect x="-8" y="2" width="12" height="1" fill="#00A1DB"/>
</g>
<rect y="7" width="3" height="2" fill="#D8D8D8"/>
<rect y="10" width="3" height="2" fill="#D8D8D8"/>
<g clip-path="url(#clip3_1856_15536)">
<rect x="7" y="13" width="2" height="2" fill="#00A1DB"/>
<rect x="6.5" y="12.5" width="3" height="3" stroke="#FCFCFC" stroke-opacity="0.75"/>
<rect x="7" y="5" width="2" height="2" fill="#00A1DB"/>
<rect x="6.5" y="4.5" width="3" height="3" stroke="#FCFCFC" stroke-opacity="0.75"/>
<rect x="7" y="9" width="2" height="2" fill="#00A1DB"/>
<rect x="6.5" y="8.5" width="3" height="3" stroke="#FCFCFC" stroke-opacity="0.75"/>
<rect x="7" y="1" width="2" height="2" fill="#00A1DB"/>
<rect x="6.5" y="0.5" width="3" height="3" stroke="#FCFCFC" stroke-opacity="0.75"/>
</g>
</g>
<defs>
<clipPath id="clip0_1856_15536">
<rect width="16" height="16" fill="white"/>
</clipPath>
<clipPath id="clip1_1856_15536">
<rect width="8" height="10" fill="white" transform="translate(10 3)"/>
</clipPath>
<clipPath id="clip2_1856_15536">
<rect width="16" height="16" fill="white" transform="translate(-10)"/>
</clipPath>
<clipPath id="clip3_1856_15536">
<rect width="4" height="16" fill="white" transform="translate(6)"/>
</clipPath>
</defs>
</svg>
