<svg width="16" height="16" viewBox="0 0 16 16" fill="none" xmlns="http://www.w3.org/2000/svg">
<g clip-path="url(#clip0_1857_15369)">
<g clip-path="url(#clip1_1857_15369)">
<path d="M2 14H14V15H2V14Z" fill="#3A3A3A"/>
<path d="M1 10H15V13H1V10Z" fill="#919191"/>
<path d="M13 6C13 8.76142 10.7614 11 8 11C5.23858 11 3 8.76142 3 6C3 3.23858 5.23858 1 8 1C10.7614 1 13 3.23858 13 6Z" fill="#919191"/>
<path d="M6 9H10V12H6V9Z" fill="#919191"/>
<path d="M1.5 13.5V14V15V15.5H2H14H14.5V15V14V13.5H15H15.5V13V10V9.5H15H12.2428C13.0282 8.54906 13.5 7.32963 13.5 6C13.5 2.96243 11.0376 0.5 8 0.5C4.96243 0.5 2.5 2.96243 2.5 6C2.5 7.32963 2.97182 8.54906 3.75716 9.5H1H0.5V10V13V13.5H1H1.5Z" stroke="#FCFCFC" stroke-opacity="0.75"/>
<rect x="2" y="14" width="12" height="1" fill="#3A3A3A"/>
<path d="M1.5 10.5H14.5V12.5H1.5V10.5Z" fill="#919191" stroke="#3A3A3A"/>
<circle cx="8" cy="6" r="4.5" fill="#919191" stroke="#3A3A3A"/>
<rect x="6" y="9" width="4" height="3" fill="#919191"/>
</g>
<g clip-path="url(#clip2_1857_15369)">
<path d="M0 16V11H1V10H2V9H3V8H4V7H8V8H9V12H8V13H7V14H6V15H5V16H0Z" fill="#FCFCFC" fill-opacity="0.75"/>
<rect x="2" y="11" width="1" height="1" fill="#3A3A3A"/>
<rect x="4" y="13" width="1" height="1" fill="#3A3A3A"/>
<rect x="3" y="10" width="1" height="1" fill="#3A3A3A"/>
<rect x="5" y="12" width="1" height="1" fill="#3A3A3A"/>
<rect x="4" y="9" width="1" height="1" fill="#3A3A3A"/>
<rect x="6" y="9" width="1" height="1" fill="#FCFCFC"/>
<rect x="2" y="14" width="1" height="1" fill="#00A1DB"/>
<rect x="5" y="11" width="1" height="1" fill="#00A1DB"/>
<rect x="4" y="10" width="1" height="1" fill="#00A1DB"/>
<rect x="1" y="13" width="1" height="2" fill="#00A1DB"/>
<rect x="3" y="11" width="2" height="2" fill="#00A1DB"/>
<path d="M5 9H6V10H7V11H5V9Z" fill="#00A1DB"/>
<rect x="1" y="12" width="1" height="1" fill="#919191"/>
<rect x="3" y="14" width="1" height="1" fill="#919191"/>
<rect x="6" y="11" width="1" height="1" fill="#3A3A3A"/>
<rect x="7" y="9" width="1" height="2" fill="#3A3A3A"/>
<rect x="5" y="8" width="2" height="1" fill="#3A3A3A"/>
</g>
</g>
<defs>
<clipPath id="clip0_1857_15369">
<rect width="16" height="16" fill="white"/>
</clipPath>
<clipPath id="clip1_1857_15369">
<rect width="16" height="16" fill="white"/>
</clipPath>
<clipPath id="clip2_1857_15369">
<rect width="9" height="9" fill="white" transform="translate(0 7)"/>
</clipPath>
</defs>
</svg>
