<svg width="16" height="16" viewBox="0 0 16 16" fill="none" xmlns="http://www.w3.org/2000/svg">
<g clip-path="url(#clip0_1857_15544)">
<g clip-path="url(#clip1_1857_15544)">
<rect width="16" height="16" fill="#FCFCFC" fill-opacity="0.75"/>
<rect x="1.5" y="5.5" width="13" height="9" fill="url(#paint0_linear_1857_15544)" stroke="#919191"/>
<path d="M1 1H15V2V3H14V2H13V3H12V2H11V3H10V2H9V3H1V1Z" fill="#3A3A3A"/>
<rect x="1" y="3" width="14" height="1" fill="#3A3A3A"/>
</g>
<g clip-path="url(#clip2_1857_15544)">
<path fill-rule="evenodd" clip-rule="evenodd" d="M4.35414 8.35366C4.13793 8.56974 4 8.99674 4 10C4 11.0036 4.13756 11.4305 4.35355 11.6464C4.56955 11.8624 4.99643 12 6 12V13C5.00357 13 4.18045 12.8876 3.64645 12.3536C3.11244 11.8195 3 10.9964 3 10C3 9.00326 3.113 8.18026 3.64725 7.64634C4.18142 7.1125 5.00434 7 6 7V8C4.99751 8 4.57043 8.1375 4.35414 8.35366Z" fill="#FCFCFC" fill-opacity="0.75"/>
<path d="M6.5 12V11.5H6C4.99171 11.5 4.76374 11.3495 4.70711 11.2929C4.65047 11.2363 4.5 11.0083 4.5 10C4.5 8.99235 4.65074 8.76413 4.70758 8.70732C4.76458 8.65036 4.99295 8.5 6 8.5H6.5V8V7V6.5H6C5.00702 6.5 3.98668 6.60023 3.2938 7.29268C2.60076 7.98529 2.5 9.00578 2.5 10C2.5 10.9936 2.60012 12.0143 3.29289 12.7071C3.98567 13.3999 5.0064 13.5 6 13.5H6.5V13V12Z" stroke="#FCFCFC" stroke-opacity="0.75"/>
<path d="M6 12.5C4 12.5 3.5 12 3.5 10C3.5 8 4.00185 7.5 6 7.5" stroke="#3A3A3A"/>
</g>
<g clip-path="url(#clip3_1857_15544)">
<path d="M12 13H13L12 7H11L12 13Z" fill="#3A3A3A"/>
<path d="M12 13.5H11.5764L11.5068 13.0822L10.5068 7.0822L10.4098 6.5H11H12H12.4236L12.4932 6.9178L13.4932 12.9178L13.5902 13.5H13H12Z" stroke="#FCFCFC" stroke-opacity="0.75"/>
<rect x="8" y="11" width="1" height="1" fill="#3A3A3A"/>
<rect x="7.5" y="10.5" width="2" height="2" stroke="#FCFCFC" stroke-opacity="0.75"/>
<rect x="8" y="8" width="1" height="1" fill="#3A3A3A"/>
<rect x="7.5" y="7.5" width="2" height="2" stroke="#FCFCFC" stroke-opacity="0.75"/>
</g>
</g>
<defs>
<linearGradient id="paint0_linear_1857_15544" x1="8" y1="5" x2="8" y2="15" gradientUnits="userSpaceOnUse">
<stop stop-color="#FCFCFC"/>
<stop offset="1" stop-color="#E6EAEA"/>
</linearGradient>
<clipPath id="clip0_1857_15544">
<rect width="16" height="16" fill="white"/>
</clipPath>
<clipPath id="clip1_1857_15544">
<rect width="16" height="16" fill="white"/>
</clipPath>
<clipPath id="clip2_1857_15544">
<rect width="5" height="8" fill="white" transform="translate(2 6)"/>
</clipPath>
<clipPath id="clip3_1857_15544">
<rect width="7" height="8" fill="white" transform="translate(7 6)"/>
</clipPath>
</defs>
</svg>
