<svg width="16" height="16" viewBox="0 0 16 16" fill="none" xmlns="http://www.w3.org/2000/svg">
<g clip-path="url(#clip0_1859_15415)">
<circle cx="8" cy="4" r="3" fill="#FCFCFC" fill-opacity="0.75"/>
<circle cx="8" cy="4" r="3.5" stroke="#FCFCFC" stroke-opacity="0.75"/>
<path d="M2 13C2 10.2386 4.23858 8 7 8H9C11.7614 8 14 10.2386 14 13V15H11V13H10V15H6V13H5V15H2V13Z" fill="#FCFCFC" fill-opacity="0.75"/>
<path d="M14 15.5H14.5V15V13C14.5 9.96243 12.0376 7.5 9 7.5H7C3.96243 7.5 1.5 9.96243 1.5 13V15V15.5H2H5H5.5H6H10H10.5H11H14Z" stroke="#FCFCFC" stroke-opacity="0.75"/>
<circle cx="8" cy="4" r="2.5" fill="url(#paint0_linear_1859_15415)" stroke="#919191"/>
<path d="M11.5 13V12.5H11H10H9.5V13V14.5H6.5V13V12.5H6H5H4.5V13V14.5H2.5V13C2.5 10.5147 4.51472 8.5 7 8.5H9C11.4853 8.5 13.5 10.5147 13.5 13V14.5H11.5V13Z" fill="url(#paint1_linear_1859_15415)" stroke="#919191"/>
</g>
<defs>
<linearGradient id="paint0_linear_1859_15415" x1="11" y1="4.27273" x2="5" y2="4.27273" gradientUnits="userSpaceOnUse">
<stop stop-color="#F4F7F6"/>
<stop offset="1" stop-color="#D8D8D8"/>
</linearGradient>
<linearGradient id="paint1_linear_1859_15415" x1="14" y1="11.8182" x2="2" y2="11.8182" gradientUnits="userSpaceOnUse">
<stop stop-color="#F4F7F6"/>
<stop offset="1" stop-color="#D8D8D8"/>
</linearGradient>
<clipPath id="clip0_1859_15415">
<rect width="16" height="16" fill="white"/>
</clipPath>
</defs>
</svg>
