<svg width="16" height="16" viewBox="0 0 16 16" fill="none" xmlns="http://www.w3.org/2000/svg">
<path fill-rule="evenodd" clip-rule="evenodd" d="M0 1H16V15H0V1ZM1.0013 1.99984H15.0013V3.99984H1.0013V1.99984ZM4.0013 5.99984H2.0013V6.99984H4.0013V5.99984ZM7.0013 5.99984H9.0013V6.99984H7.0013V5.99984ZM14.0013 5.99984H12.0013V6.99984H14.0013V5.99984ZM2.0013 8.99984H4.0013V9.99984H2.0013V8.99984ZM9.0013 8.99984H7.0013V9.99984H9.0013V8.99984ZM12.0013 8.99984H14.0013V9.99984H12.0013V8.99984ZM4.0013 11.9998H2.0013V12.9998H4.0013V11.9998ZM7.0013 11.9998H9.0013V12.9998H7.0013V11.9998ZM14.0013 11.9998H12.0013V12.9998H14.0013V11.9998Z" fill="#0C121C"/>
</svg>
