<svg width="16" height="16" viewBox="0 0 16 16" fill="none" xmlns="http://www.w3.org/2000/svg">
<g clip-path="url(#clip0_1863_15567)">
<rect x="1" y="1" width="14" height="14" fill="#FCFCFC" fill-opacity="0.75"/>
<rect x="2.5" y="2.5" width="11" height="11" fill="#FCFCFC" stroke="#919191"/>
<rect x="4" y="4" width="8" height="8" fill="url(#paint0_linear_1863_15567)"/>
<path d="M4 6L12 12H4V6Z" fill="url(#paint1_linear_1863_15567)"/>
<path d="M12 8L5 12H12V8Z" fill="url(#paint2_linear_1863_15567)"/>
</g>
<g clip-path="url(#clip1_1863_15567)">
<path fill-rule="evenodd" clip-rule="evenodd" d="M6.70678 10.7071C6.31626 11.0976 5.68309 11.0976 5.29257 10.7071C4.90204 10.3166 4.90204 9.68342 5.29257 9.29289C5.68309 8.90237 6.31626 8.90237 6.70678 9.29289C7.09731 9.68342 7.09731 10.3166 6.70678 10.7071ZM4.58546 11.4142C5.36651 12.1953 6.63284 12.1953 7.41389 11.4142C8.19494 10.6332 8.19494 9.36683 7.41389 8.58579C6.63284 7.80474 5.36651 7.80474 4.58546 8.58579C3.80441 9.36683 3.80441 10.6332 4.58546 11.4142Z" fill="#3A3A3A"/>
<path d="M4.99967 11.5L4.49967 11L2.99967 12.5L3.49967 13L4.99967 11.5Z" fill="#3A3A3A"/>
<path d="M4.49967 12.5L3.49967 11.5L1 14.0175L1.98247 14.9999L4.49967 12.5Z" fill="#3A3A3A"/>
<path d="M4.23191 8.23223C3.48317 8.98098 3.30864 10.0865 3.70833 11.0016L3.49842 10.7916L3.14487 11.1477L0.645195 13.6652L0.294141 14.0187L0.646451 14.371L1.62892 15.3535L1.98126 15.7058L2.33481 15.3547L4.85201 12.8548L5.208 12.5012L4.99812 12.2913C5.91318 12.691 7.0187 12.5165 7.76744 11.7678C8.74375 10.7915 8.74375 9.20854 7.76744 8.23223C6.79113 7.25592 5.20822 7.25592 4.23191 8.23223ZM6.35323 10.3536C6.15797 10.5488 5.84138 10.5488 5.64612 10.3536C5.45086 10.1583 5.45086 9.84171 5.64612 9.64645C5.84138 9.45118 6.15797 9.45118 6.35323 9.64645C6.54849 9.84171 6.54849 10.1583 6.35323 10.3536Z" stroke="#FCFCFC" stroke-opacity="0.75"/>
<path d="M4.93934 11.0607C5.52513 11.6464 6.47487 11.6464 7.06066 11.0607C7.64645 10.4749 7.64645 9.52513 7.06066 8.93934C6.47487 8.35355 5.52513 8.35355 4.93934 8.93934C4.35355 9.52513 4.35355 10.4749 4.93934 11.0607Z" stroke="#3A3A3A"/>
<path d="M5 11.5L4.5 11L3 12.5L3.5 13L5 11.5Z" fill="#3A3A3A"/>
<path d="M4.5 12.5L3.5 11.5L1.00033 14.0175L1.9828 14.9999L4.5 12.5Z" fill="#3A3A3A"/>
</g>
<defs>
<linearGradient id="paint0_linear_1863_15567" x1="10.4444" y1="5.11111" x2="5.77778" y2="11.1111" gradientUnits="userSpaceOnUse">
<stop stop-color="#94E1FC"/>
<stop offset="1" stop-color="#FCFCFC"/>
</linearGradient>
<linearGradient id="paint1_linear_1863_15567" x1="7" y1="10.3636" x2="4.22115" y2="7.05218" gradientUnits="userSpaceOnUse">
<stop stop-color="#6FCF97"/>
<stop offset="1" stop-color="#27AE60"/>
</linearGradient>
<linearGradient id="paint2_linear_1863_15567" x1="11.75" y1="8" x2="9.75" y2="12" gradientUnits="userSpaceOnUse">
<stop stop-color="#6FCF97"/>
<stop offset="1" stop-color="#219653"/>
</linearGradient>
<clipPath id="clip0_1863_15567">
<rect width="14" height="14" fill="white" transform="translate(1 1)"/>
</clipPath>
<clipPath id="clip1_1863_15567">
<rect width="9" height="9" fill="white" transform="matrix(-1 0 0 1 9 7)"/>
</clipPath>
</defs>
</svg>
