<svg width="16" height="16" viewBox="0 0 16 16" fill="none" xmlns="http://www.w3.org/2000/svg">
<g clip-path="url(#clip0_1864_15527)">
<g clip-path="url(#clip1_1864_15527)">
<path d="M1 3H9V4H1V3Z" fill="#F2994A"/>
<path d="M1 12H9V13H1V12Z" fill="#F2994A"/>
<path d="M2 1L2 15H1L1 1H2Z" fill="#F2994A"/>
<path d="M2.5 11.5L2.5 4.5H9H9.5V4V3V2.5H9H2.5L2.5 1V0.5H2H1H0.500001L0.500001 1L0.5 2.5V3V4V4.5V11.5V12V13V13.5L0.5 15L0.5 15.5H1H2H2.5V15L2.5 13.5H9H9.5V13V12V11.5H9H2.5Z" stroke="#FCFCFC" stroke-opacity="0.75"/>
<g clip-path="url(#clip2_1864_15527)">
<path d="M8 1V0H12V1H15V2H16V5H15V6H14V7H8V1Z" fill="#FCFCFC" fill-opacity="0.75"/>
<rect x="9" y="1" width="2" height="1" fill="#F2994A"/>
<rect x="10" y="3" width="1" height="1" fill="#F2994A"/>
<rect x="14" y="3" width="1" height="1" fill="#F2994A"/>
<rect x="13" y="4" width="1" height="1" fill="#F2994A"/>
<rect x="9" y="2" width="1" height="4" fill="#F2994A"/>
<path d="M9 5H13V6H9V5Z" fill="#F2994A"/>
<rect x="10" y="2" width="4" height="1" fill="#F2994A"/>
<path d="M11 3H14V4H13V5H10V4H11V3Z" fill="url(#paint0_radial_1864_15527)"/>
</g>
<g clip-path="url(#clip3_1864_15527)">
<path d="M8 10V9H12V10H15V11H16V14H15V15H14V16H8V10Z" fill="#FCFCFC" fill-opacity="0.75"/>
<rect x="9" y="10" width="2" height="1" fill="#F2994A"/>
<rect x="10" y="12" width="1" height="1" fill="#F2994A"/>
<rect x="14" y="12" width="1" height="1" fill="#F2994A"/>
<rect x="13" y="13" width="1" height="1" fill="#F2994A"/>
<rect x="9" y="11" width="1" height="4" fill="#F2994A"/>
<path d="M9 14H13V15H9V14Z" fill="#F2994A"/>
<rect x="10" y="11" width="4" height="1" fill="#F2994A"/>
<path d="M11 12H14V13H13V14H10V13H11V12Z" fill="url(#paint1_radial_1864_15527)"/>
</g>
</g>
<g clip-path="url(#clip4_1864_15527)">
<path d="M0 8H7V10H8V16H2V15H0V8Z" fill="#FCFCFC" fill-opacity="0.75"/>
<rect x="3.5" y="11.5" width="3" height="3" fill="url(#paint2_linear_1864_15527)" stroke="#00A1DB"/>
<rect x="1" y="9" width="1" height="5" fill="#00A1DB"/>
<rect x="1" y="9" width="5" height="1" fill="#00A1DB"/>
</g>
</g>
<defs>
<radialGradient id="paint0_radial_1864_15527" cx="0" cy="0" r="1" gradientUnits="userSpaceOnUse" gradientTransform="translate(11.8261 5) rotate(-84.1325) scale(2.55183 3.85765)">
<stop stop-color="#F2994A"/>
<stop offset="0.588115" stop-color="#F2C94C"/>
<stop offset="1" stop-color="#FCFCFC"/>
</radialGradient>
<radialGradient id="paint1_radial_1864_15527" cx="0" cy="0" r="1" gradientUnits="userSpaceOnUse" gradientTransform="translate(11.8261 14) rotate(-84.1325) scale(2.55183 3.85765)">
<stop stop-color="#F2994A"/>
<stop offset="0.588115" stop-color="#F2C94C"/>
<stop offset="1" stop-color="#FCFCFC"/>
</radialGradient>
<linearGradient id="paint2_linear_1864_15527" x1="6.22222" y1="11.5556" x2="3.88889" y2="14.5556" gradientUnits="userSpaceOnUse">
<stop stop-color="#94E1FC"/>
<stop offset="1" stop-color="#FCFCFC"/>
</linearGradient>
<clipPath id="clip0_1864_15527">
<rect width="16" height="16" fill="white"/>
</clipPath>
<clipPath id="clip1_1864_15527">
<rect width="16" height="16" fill="white"/>
</clipPath>
<clipPath id="clip2_1864_15527">
<rect width="8" height="7" fill="white" transform="translate(8)"/>
</clipPath>
<clipPath id="clip3_1864_15527">
<rect width="8" height="7" fill="white" transform="translate(8 9)"/>
</clipPath>
<clipPath id="clip4_1864_15527">
<rect width="8" height="8" fill="white" transform="translate(0 8)"/>
</clipPath>
</defs>
</svg>
