<svg width="16" height="16" viewBox="0 0 16 16" fill="none" xmlns="http://www.w3.org/2000/svg">
<g clip-path="url(#clip0_1866_15801)">
<g clip-path="url(#clip1_1866_15801)">
<path d="M0 1H3V0H6V1H10V0H13V1H16V16H0V1Z" fill="#FCFCFC" fill-opacity="0.75"/>
<rect x="1.5" y="5.5" width="13" height="9" fill="#FCFCFC" stroke="#919191"/>
<path d="M1 4H3H6H10H13H15V6H1V4Z" fill="#94E1FC"/>
<rect x="1" y="5" width="14" height="1" fill="#3A3A3A"/>
<rect x="1" y="2" width="1" height="4" fill="#3A3A3A"/>
<rect x="1" y="2" width="2" height="1" fill="#3A3A3A"/>
<rect x="6" y="2" width="4" height="1" fill="#00A1DB"/>
<rect x="2" y="3" width="1" height="1" fill="#00A1DB"/>
<rect x="13" y="3" width="1" height="1" fill="#00A1DB"/>
<rect x="6" y="3" width="4" height="1" fill="#00A1DB"/>
<rect x="6" y="2" width="4" height="1" fill="#3A3A3A"/>
<rect x="13" y="2" width="2" height="1" fill="#3A3A3A"/>
<rect x="14" y="2" width="1" height="4" fill="#3A3A3A"/>
<rect x="11" y="1" width="1" height="2" fill="#3A3A3A"/>
<rect x="4" y="1" width="1" height="2" fill="#3A3A3A"/>
<rect x="4" y="8" width="3" height="2" fill="#919191"/>
<rect x="9" y="8" width="3" height="2" fill="#00A1DB"/>
<rect x="4" y="11" width="3" height="2" fill="#919191"/>
<rect x="9" y="11" width="3" height="2" fill="#00A1DB"/>
</g>
</g>
<defs>
<clipPath id="clip0_1866_15801">
<rect width="16" height="16" fill="white"/>
</clipPath>
<clipPath id="clip1_1866_15801">
<rect width="16" height="16" fill="white"/>
</clipPath>
</defs>
</svg>
