<svg width="16" height="16" viewBox="0 0 16 16" fill="none" xmlns="http://www.w3.org/2000/svg">
<g clip-path="url(#clip0_1866_15952)">
<g clip-path="url(#clip1_1866_15952)">
<path d="M0 0H13V1H16V5H13V6H16V10H13V11H16V15H13V16H0V0Z" fill="#FCFCFC" fill-opacity="0.75"/>
<rect x="3.5" y="1.5" width="8" height="13" fill="url(#paint0_linear_1866_15952)" stroke="#919191"/>
<rect x="1" y="1" width="1" height="14" fill="#919191"/>
<rect x="5" y="5" width="5" height="1" fill="#3A3A3A"/>
<rect x="13" y="2" width="2" height="2" fill="#3A3A3A"/>
<rect x="13" y="7" width="2" height="2" fill="#EA212D"/>
<rect x="13" y="12" width="2" height="2" fill="#00A1DB"/>
</g>
<g clip-path="url(#clip2_1866_15952)">
<path d="M0 8H2V7H5L9 8V14L6 15V16H2V14H0V8Z" fill="#FCFCFC" fill-opacity="0.75"/>
<path d="M5 8L8 9V10H5L4.99868 11H3L3.00264 10H1V9H3L3.00264 8H5Z" fill="#00A1DB"/>
<path d="M3 13H1V12H8V13L5.00132 14L5 15H3.00264V14L3 13Z" fill="#00A1DB"/>
</g>
<rect x="1" y="14" width="1" height="1" fill="#FCFCFC" fill-opacity="0.75"/>
</g>
<defs>
<linearGradient id="paint0_linear_1866_15952" x1="7.5" y1="1" x2="7.5" y2="15" gradientUnits="userSpaceOnUse">
<stop stop-color="#F4F7F6"/>
<stop offset="1" stop-color="#D8D8D8"/>
</linearGradient>
<clipPath id="clip0_1866_15952">
<rect width="16" height="16" fill="white"/>
</clipPath>
<clipPath id="clip1_1866_15952">
<rect width="16" height="16" fill="white"/>
</clipPath>
<clipPath id="clip2_1866_15952">
<rect width="9" height="9" fill="white" transform="translate(0 7)"/>
</clipPath>
</defs>
</svg>
