<svg width="16" height="16" viewBox="0 0 16 16" fill="none" xmlns="http://www.w3.org/2000/svg">
<g clip-path="url(#clip0_1868_15516)">
<g clip-path="url(#clip1_1868_15516)">
<path d="M0 5H4V8H12V5H16V14H14V16H2V14H0V5Z" fill="#FCFCFC" fill-opacity="0.75"/>
<path d="M12.5 8V6.5H14.5V12.5H12H4H1.5V6.5H3.5V8V8.5H4H12H12.5V8Z" fill="#94E1FC" stroke="#919191"/>
<rect x="3.5" y="11.5" width="9" height="3" fill="#FCFCFC" stroke="#919191"/>
<rect x="4" y="12" width="8" height="2" fill="#00A1DB"/>
<rect x="3" y="11" width="10" height="1" fill="#FCFCFC"/>
<rect x="11" y="10" width="2" height="1" fill="#3A3A3A"/>
<path d="M4 0H10V1H11V2H12V8H4V0Z" fill="#FCFCFC" fill-opacity="0.75"/>
<path d="M10 3.5H10.5V6.5H5.5V1.5H8.5V2V2.5H9H9.5V3V3.5H10Z" fill="url(#paint0_linear_1868_15516)" stroke="#919191"/>
</g>
</g>
<defs>
<linearGradient id="paint0_linear_1868_15516" x1="8" y1="1" x2="8" y2="7" gradientUnits="userSpaceOnUse">
<stop stop-color="#F4F7F6"/>
<stop offset="1" stop-color="#D8D8D8"/>
</linearGradient>
<clipPath id="clip0_1868_15516">
<rect width="16" height="16" fill="white"/>
</clipPath>
<clipPath id="clip1_1868_15516">
<rect width="16" height="16" fill="white"/>
</clipPath>
</defs>
</svg>
