<svg width="16" height="16" viewBox="0 0 16 16" fill="none" xmlns="http://www.w3.org/2000/svg">
<g clip-path="url(#clip0_1870_15122)">
<g clip-path="url(#clip1_1870_15122)">
<rect width="16" height="16" fill="#FCFCFC" fill-opacity="0.75"/>
<g clip-path="url(#clip2_1870_15122)">
<rect x="1" y="1" width="1" height="14" fill="#3A3A3A"/>
<rect x="4" y="1" width="1" height="14" fill="#3A3A3A"/>
<rect x="1" y="14" width="4" height="1" fill="#3A3A3A"/>
<rect x="1" y="1" width="4" height="1" fill="#3A3A3A"/>
<rect x="2" y="7" width="2" height="5" fill="#919191"/>
<rect x="2" y="2" width="2" height="1" fill="#919191"/>
<rect x="2" y="13" width="2" height="1" fill="#919191"/>
</g>
<g clip-path="url(#clip3_1870_15122)">
<rect x="6" y="1" width="1" height="14" fill="#3A3A3A"/>
<rect x="9" y="1" width="1" height="14" fill="#3A3A3A"/>
<rect x="6" y="14" width="4" height="1" fill="#3A3A3A"/>
<rect x="6" y="1" width="4" height="1" fill="#3A3A3A"/>
<rect x="7" y="7" width="2" height="5" fill="#919191"/>
<rect x="7" y="2" width="2" height="1" fill="#919191"/>
<rect x="7" y="13" width="2" height="1" fill="#919191"/>
</g>
<g clip-path="url(#clip4_1870_15122)">
<rect x="11" y="1" width="1" height="14" fill="#3A3A3A"/>
<rect x="14" y="1" width="1" height="14" fill="#3A3A3A"/>
<rect x="11" y="14" width="4" height="1" fill="#3A3A3A"/>
<rect x="11" y="1" width="4" height="1" fill="#3A3A3A"/>
<rect x="12" y="7" width="2" height="5" fill="#919191"/>
<rect x="12" y="2" width="2" height="1" fill="#919191"/>
<rect x="12" y="13" width="2" height="1" fill="#919191"/>
</g>
</g>
<g clip-path="url(#clip5_1870_15122)">
<path d="M0 7H4V8H6H7H8H10V16H0V7Z" fill="#FCFCFC" fill-opacity="0.75"/>
<path d="M9 9H8V10H7V11H6V9H5V10H4V11H3V8H1.00156V15H2V14V12H4V14H6V12H8V14H2V15H8H9V9Z" fill="#00A1DB"/>
</g>
</g>
<defs>
<clipPath id="clip0_1870_15122">
<rect width="16" height="16" fill="white"/>
</clipPath>
<clipPath id="clip1_1870_15122">
<rect width="16" height="16" fill="white"/>
</clipPath>
<clipPath id="clip2_1870_15122">
<rect width="4" height="14" fill="white" transform="translate(1 1)"/>
</clipPath>
<clipPath id="clip3_1870_15122">
<rect width="4" height="14" fill="white" transform="translate(6 1)"/>
</clipPath>
<clipPath id="clip4_1870_15122">
<rect width="4" height="14" fill="white" transform="translate(11 1)"/>
</clipPath>
<clipPath id="clip5_1870_15122">
<rect width="10" height="9" fill="white" transform="translate(0 7)"/>
</clipPath>
</defs>
</svg>
