<svg width="16" height="16" viewBox="0 0 16 16" fill="none" xmlns="http://www.w3.org/2000/svg">
<g clip-path="url(#clip0_1871_15004)">
<path d="M11 5C11 6.65685 9.65685 8 8 8C6.34315 8 5 6.65685 5 5C5 4.64936 5.06015 4.31278 5.17071 4H4V3H5V2H7V1H9V2H11V3H12V4H10.8293C10.9398 4.31278 11 4.64936 11 5Z" fill="#FCFCFC" fill-opacity="0.75"/>
<path d="M3.5 4V4.5H4H4.53551C4.5121 4.66345 4.5 4.83041 4.5 5C4.5 6.933 6.067 8.5 8 8.5C9.933 8.5 11.5 6.933 11.5 5C11.5 4.83041 11.4879 4.66345 11.4645 4.5H12H12.5V4V3V2.5H12H11.5V2V1.5H11H9.5V1V0.5H9H7H6.5V1V1.5H5H4.5V2V2.5H4H3.5V3V4Z" stroke="#FCFCFC" stroke-opacity="0.75"/>
<path d="M2 14C2 11.2386 4.23858 9 7 9H9C11.7614 9 14 11.2386 14 14V15H11V13H10V15H6V13H5V15H2V14Z" fill="#FCFCFC" fill-opacity="0.75"/>
<path d="M14 15.5H14.5V15V14C14.5 10.9624 12.0376 8.5 9 8.5H7C3.96243 8.5 1.5 10.9624 1.5 14V15V15.5H2H5H5.5H6H10H10.5H11H14Z" stroke="#FCFCFC" stroke-opacity="0.75"/>
<path d="M10.45 5.5C10.2184 6.64112 9.20948 7.5 8 7.5C6.79052 7.5 5.78164 6.64112 5.55001 5.5H10.45Z" fill="url(#paint0_linear_1871_15004)" stroke="#919191"/>
<path d="M11.5 13V12.5H11H10H9.5V13V14.5H6.5V13V12.5H6H5H4.5V13V14.5H2.5V14C2.5 11.5147 4.51472 9.5 7 9.5H9C11.4853 9.5 13.5 11.5147 13.5 14V14.5H11.5V13Z" fill="url(#paint1_linear_1871_15004)" stroke="#919191"/>
<path d="M12 4H4V3H5V2.00005L6 2V3H7V1H9V3H10V2H11V3H12V4Z" fill="#F2994A"/>
</g>
<defs>
<linearGradient id="paint0_linear_1871_15004" x1="11" y1="6.63636" x2="5" y2="6.63636" gradientUnits="userSpaceOnUse">
<stop stop-color="#F4F7F6"/>
<stop offset="1" stop-color="#D8D8D8"/>
</linearGradient>
<linearGradient id="paint1_linear_1871_15004" x1="14" y1="12.2727" x2="2" y2="12.2727" gradientUnits="userSpaceOnUse">
<stop stop-color="#F4F7F6"/>
<stop offset="1" stop-color="#D8D8D8"/>
</linearGradient>
<clipPath id="clip0_1871_15004">
<rect width="16" height="16" fill="white"/>
</clipPath>
</defs>
</svg>
