<svg width="16" height="16" viewBox="0 0 16 16" fill="none" xmlns="http://www.w3.org/2000/svg">
<g clip-path="url(#clip0_793_25563)">
<path fill-rule="evenodd" clip-rule="evenodd" d="M6 0.535129C4.8044 1.22675 4 2.51944 4 4H12C12 2.51944 11.1956 1.22675 10 0.535129V3H9V0.126017C8.68038 0.043753 8.3453 0 8 0C7.6547 0 7.31962 0.043753 7 0.126017V3H6V0.535129ZM11.874 5H4.12602C4.57006 6.72523 6.13616 8 8 8C9.86384 8 11.4299 6.72523 11.874 5Z" fill="#0C121C"/>
<path d="M0 16C0 12.134 3.13401 9 7 9H9C12.866 9 16 12.134 16 16V16H13V14H11V16H5V14H3V16H0V16Z" fill="#0C121C"/>
<rect x="3" y="3" width="10" height="1" fill="#0C121C"/>
</g>
<defs>
<clipPath id="clip0_793_25563">
<rect width="16" height="16" fill="white"/>
</clipPath>
</defs>
</svg>
