<svg width="16" height="16" viewBox="0 0 16 16" fill="none" xmlns="http://www.w3.org/2000/svg">
<g clip-path="url(#clip0_1872_15006)">
<g clip-path="url(#clip1_1872_15006)">
<path d="M1 8H2V15H1V8Z" fill="#00A1DB"/>
<path fill-rule="evenodd" clip-rule="evenodd" d="M3.8103 9.56056C3.94751 9.32535 4 9.13187 4 9H5C5 9.36813 4.86499 9.73715 4.67408 10.0644C4.48011 10.3969 4.21017 10.7183 3.89468 10.9987C3.27202 11.5522 2.40877 12 1.5 12V11C2.09123 11 2.72798 10.6978 3.23032 10.2513C3.47733 10.0317 3.67614 9.79055 3.8103 9.56056Z" fill="#00A1DB"/>
<path fill-rule="evenodd" clip-rule="evenodd" d="M3.17506 13.0041C3.68716 13.6301 3.99955 14.397 4 15.0004L5 14.9996C4.99933 14.103 4.56173 13.1199 3.9491 12.3709C3.34217 11.6289 2.46467 11 1.5 11V12C2.03533 12 2.65727 12.3711 3.17506 13.0041Z" fill="#00A1DB"/>
<path d="M1 7.5H0.5V8V15V15.5H1H2H2.5V15V13.0102C2.59582 13.1004 2.69238 13.2037 2.78805 13.3206C3.24974 13.8851 3.49966 14.5439 3.5 15.0007L3.50037 15.5007L4.00037 15.5004L5.00037 15.4996L5.50037 15.4993L5.5 14.9993C5.49922 13.9558 4.99891 12.8646 4.33612 12.0544C4.2137 11.9047 4.07876 11.7564 3.93249 11.6142C4.03571 11.5359 4.13401 11.4549 4.22686 11.3724C4.57658 11.0615 4.8821 10.7002 5.10597 10.3164C5.32369 9.94313 5.5 9.48632 5.5 9V8.5H5H4H3.5V9C3.5 8.99997 3.5 9.00198 3.49961 9.00614C3.49923 9.01027 3.4985 9.01619 3.49714 9.02392C3.49441 9.03954 3.48939 9.06113 3.48056 9.08862C3.46279 9.14392 3.43126 9.21803 3.37841 9.30863L3.8103 9.56056L3.37841 9.30863C3.27415 9.48736 3.11091 9.68846 2.89814 9.87759C2.77082 9.99076 2.63673 10.0904 2.5 10.1749V8V7.5H2H1Z" stroke="#FCFCFC" stroke-opacity="0.75"/>
</g>
<g clip-path="url(#clip2_1872_15006)">
<path d="M16 15L16 0L9 3.0598e-07L9 2.8125L9 3.75L9 4.6875L9 5.625L9 6.5625L9 8.4375L9 9.375L9 11.25L9 12.1875L9 15L16 15Z" fill="#FCFCFC" fill-opacity="0.75"/>
<path d="M15 14L15 1L10 1L10 3.4375L10 4.25L10 5.0625L10 5.875L10 6.6875L10 8.3125L10 9.125L10 10.75L10 11.5625L10 14L15 14Z" fill="#D8D8D8"/>
<rect x="14" y="1" width="1" height="13" fill="#00A1DB"/>
<rect x="10" y="1" width="5" height="1" fill="#00A1DB"/>
<rect x="10" y="4" width="3" height="1" fill="#00A1DB"/>
<rect x="10" y="7" width="3" height="1" fill="#00A1DB"/>
<rect x="10" y="10" width="3" height="1" fill="#00A1DB"/>
<rect x="10" y="13" width="5" height="1" fill="#00A1DB"/>
</g>
</g>
<defs>
<clipPath id="clip0_1872_15006">
<rect width="16" height="16" fill="white"/>
</clipPath>
<clipPath id="clip1_1872_15006">
<rect width="6" height="9" fill="white" transform="translate(0 7)"/>
</clipPath>
<clipPath id="clip2_1872_15006">
<rect width="7" height="15" fill="white" transform="translate(9)"/>
</clipPath>
</defs>
</svg>
