<svg width="16" height="16" viewBox="0 0 16 16" fill="none" xmlns="http://www.w3.org/2000/svg">
<rect y="1" width="16" height="14" fill="#FCFCFC" fill-opacity="0.75"/>
<rect x="1.5" y="2.5" width="13" height="11" fill="url(#paint0_linear_1874_15007)" stroke="#919191"/>
<rect x="1" y="4" width="14" height="3" fill="#3A3A3A"/>
<rect x="9" y="9" width="4" height="1" fill="#919191"/>
<g clip-path="url(#clip0_1874_15007)">
<path d="M5 8L8 9V10H5L4.99868 11H3L3.00264 10H1V9H3L3.00264 8H5Z" fill="#00A1DB"/>
<path d="M3 13H1V12H8V13L5.00132 14L5 15H3.00264V14L3 13Z" fill="#00A1DB"/>
<path d="M5 7.5H5.08114L5.15811 7.52566L8.15811 8.52566L8.5 8.63962V9V10V10.5H8H5.49934L5.49868 11.0007L5.49802 11.5H8H8.5V12V13V13.3603L8.15818 13.4743L5.50084 14.3605L5.5 15.0007L5.49934 15.5H5H3.00264H2.50264V15V14.0006V14L2.50132 13.5H1H0.5V13V12V11.5H1H2.49868L2.5 10.9987L2.50132 10.5H1H0.5V10V9V8.5H1H2.50132L2.50264 7.99868L2.50395 7.5H3.00264H5Z" stroke="#FCFCFC" stroke-opacity="0.75"/>
</g>
<defs>
<linearGradient id="paint0_linear_1874_15007" x1="15" y1="8.54545" x2="1" y2="8.54545" gradientUnits="userSpaceOnUse">
<stop stop-color="#F4F7F6"/>
<stop offset="1" stop-color="#D8D8D8"/>
</linearGradient>
<clipPath id="clip0_1874_15007">
<rect width="9" height="9" fill="white" transform="translate(0 7)"/>
</clipPath>
</defs>
</svg>
