<svg width="16" height="16" viewBox="0 0 16 16" fill="none" xmlns="http://www.w3.org/2000/svg">
<g clip-path="url(#clip0_1874_15077)">
<path d="M3 0H14L16 3V15H15V16H2V15H1V3L3 0Z" fill="#FCFCFC" fill-opacity="0.75"/>
<path d="M3 13.5H2.5V4.5H14.5V13.5H14H13.5V14V14.5H3.5V14V13.5H3Z" fill="url(#paint0_linear_1874_15077)" stroke="#919191"/>
<path d="M2.5 4.15139L4.26759 1.5H12.7324L14.5 4.15139V4.5H2.5V4.15139Z" fill="#D8D8D8" stroke="#919191"/>
<rect x="6" y="7" width="5" height="1" fill="#3A3A3A"/>
<rect x="8" y="2" width="1" height="2" fill="#919191"/>
<g clip-path="url(#clip1_1874_15077)">
<path d="M4 7L4 10L6 10L6 13L8 13L8 16L-4.30645e-06 16L-3.8147e-06 7L4 7Z" fill="#FCFCFC" fill-opacity="0.75"/>
<rect x="3" y="8" width="1" height="2" transform="rotate(90 3 8)" fill="#00A1DB"/>
<rect x="5" y="11" width="1" height="4" transform="rotate(90 5 11)" fill="#00A1DB"/>
<rect x="7" y="14" width="1" height="6" transform="rotate(90 7 14)" fill="#00A1DB"/>
</g>
</g>
<defs>
<linearGradient id="paint0_linear_1874_15077" x1="8.5" y1="4" x2="8.5" y2="15" gradientUnits="userSpaceOnUse">
<stop stop-color="#F4F7F6"/>
<stop offset="1" stop-color="#D8D8D8"/>
</linearGradient>
<clipPath id="clip0_1874_15077">
<rect width="16" height="16" fill="white"/>
</clipPath>
<clipPath id="clip1_1874_15077">
<rect width="8" height="9" fill="white" transform="translate(0 7)"/>
</clipPath>
</defs>
</svg>
