<svg width="16" height="16" viewBox="0 0 16 16" fill="none" xmlns="http://www.w3.org/2000/svg">
<g clip-path="url(#clip0_1881_15302)">
<g clip-path="url(#clip1_1881_15302)">
<rect width="16" height="16" fill="#FCFCFC" fill-opacity="0.75"/>
<rect x="1.5" y="3.5" width="13" height="11" fill="#FCFCFC" stroke="#919191"/>
<rect x="1.5" y="1.5" width="13" height="3" fill="#94E1FC" stroke="#3A3A3A"/>
<rect x="2" y="2" width="12" height="1" fill="#00A1DB"/>
</g>
<rect x="2" y="8" width="4" height="1" fill="#D8D8D8"/>
<rect x="6" y="8" width="5" height="1" fill="#D8D8D8"/>
<rect x="5" y="5" width="1" height="3" fill="#D8D8D8"/>
<rect x="10" y="5" width="1" height="3" fill="#D8D8D8"/>
<rect x="10" y="8" width="1" height="4" fill="#D8D8D8"/>
<rect x="10" y="11" width="1" height="3" fill="#D8D8D8"/>
<rect x="6" y="11" width="5" height="1" fill="#D8D8D8"/>
<rect x="10" y="8" width="4" height="1" fill="#D8D8D8"/>
<rect x="10" y="11" width="4" height="1" fill="#D8D8D8"/>
<g clip-path="url(#clip2_1881_15302)">
<path d="M0 13C0 11.8954 0.895431 11 2 11H5C6.10457 11 7 11.8954 7 13V16H0V13Z" fill="#FCFCFC" fill-opacity="0.75"/>
<path d="M6 14C6 12.8954 5.10457 12 4 12H3C1.89543 12 1 12.8954 1 14V15H2V14H3V15H4.00006L4 14H5V15H6V14Z" fill="#00A1DB"/>
<circle cx="3.5" cy="9.5" r="2.5" fill="#FCFCFC" fill-opacity="0.75"/>
<circle cx="3.5" cy="9.5" r="1.5" fill="#00A1DB"/>
</g>
<rect x="1" y="9" width="1" height="3" fill="#FCFCFC" fill-opacity="0.75"/>
</g>
<defs>
<clipPath id="clip0_1881_15302">
<rect width="16" height="16" fill="white"/>
</clipPath>
<clipPath id="clip1_1881_15302">
<rect width="16" height="16" fill="white"/>
</clipPath>
<clipPath id="clip2_1881_15302">
<rect width="7" height="9" fill="white" transform="translate(0 7)"/>
</clipPath>
</defs>
</svg>
