<svg width="16" height="16" viewBox="0 0 16 16" fill="none" xmlns="http://www.w3.org/2000/svg">
<g clip-path="url(#clip0_1883_14985)">
<rect y="1" width="16" height="14" fill="#FCFCFC" fill-opacity="0.75"/>
<rect x="1.5" y="2.5" width="13" height="11" fill="#FCFCFC" stroke="#919191"/>
</g>
<rect x="4" y="9" width="4" height="1" fill="#3A3A3A"/>
<rect x="4" y="7" width="4" height="1" fill="#3A3A3A"/>
<rect x="4" y="5" width="1" height="3" fill="#3A3A3A"/>
<rect x="11" y="5" width="1" height="3" fill="#3A3A3A"/>
<rect x="8" y="9" width="4" height="1" fill="#3A3A3A"/>
<rect x="8" y="7" width="4" height="1" fill="#3A3A3A"/>
<rect x="4" y="5" width="4" height="1" fill="#3A3A3A"/>
<rect x="8" y="5" width="4" height="1" fill="#3A3A3A"/>
<g clip-path="url(#clip1_1883_14985)">
<rect y="7" width="3" height="9" fill="#FCFCFC" fill-opacity="0.75"/>
<rect x="1" y="11" width="1" height="4" fill="#3A3A3A"/>
<rect x="1" y="8" width="1" height="2" fill="#3A3A3A"/>
</g>
<defs>
<clipPath id="clip0_1883_14985">
<rect width="16" height="14" fill="white" transform="translate(0 1)"/>
</clipPath>
<clipPath id="clip1_1883_14985">
<rect width="3" height="9" fill="white" transform="translate(0 7)"/>
</clipPath>
</defs>
</svg>
