<svg width="16" height="16" viewBox="0 0 16 16" fill="none" xmlns="http://www.w3.org/2000/svg">
<g clip-path="url(#clip0_1885_15105)">
<g clip-path="url(#clip1_1885_15105)">
<path d="M16 0H0V5H1V10H0V15H1V16H15V15H16V10H7V5H8V9H10V10H13V9H15V5H16V0Z" fill="#FCFCFC" fill-opacity="0.75"/>
<rect x="-0.5" y="0.5" width="13" height="2" transform="matrix(-1 0 0 1 14 1)" fill="url(#paint0_linear_1885_15105)" stroke="#919191"/>
<rect width="1" height="2" transform="matrix(-1 0 0 1 12 7)" fill="#3A3A3A"/>
<rect x="-0.5" y="0.5" width="4" height="2" transform="matrix(-1 0 0 1 13 5)" fill="url(#paint1_linear_1885_15105)" stroke="#919191"/>
<path d="M5.5 11V5.5H2.5V11V11.5H2H1.5V13.5H2H6H11H14.5V11.5H6H5.5V11Z" fill="url(#paint2_linear_1885_15105)" stroke="#919191"/>
<rect width="4" height="1" transform="matrix(-1 0 0 1 14 14)" fill="#3A3A3A"/>
<rect width="4" height="1" transform="matrix(-1 0 0 1 6 14)" fill="#3A3A3A"/>
</g>
<g clip-path="url(#clip2_1885_15105)">
<rect y="7" width="3" height="9" fill="#FCFCFC" fill-opacity="0.75"/>
<rect x="1" y="11" width="1" height="4" fill="#3A3A3A"/>
<rect x="1" y="8" width="1" height="2" fill="#3A3A3A"/>
</g>
</g>
<defs>
<linearGradient id="paint0_linear_1885_15105" x1="14" y1="1.63636" x2="6.72715e-09" y2="1.63636" gradientUnits="userSpaceOnUse">
<stop stop-color="#F4F7F6"/>
<stop offset="1" stop-color="#D8D8D8"/>
</linearGradient>
<linearGradient id="paint1_linear_1885_15105" x1="5" y1="1.63636" x2="2.40255e-09" y2="1.63636" gradientUnits="userSpaceOnUse">
<stop stop-color="#F4F7F6"/>
<stop offset="1" stop-color="#D8D8D8"/>
</linearGradient>
<linearGradient id="paint2_linear_1885_15105" x1="1" y1="9.90909" x2="15" y2="9.90909" gradientUnits="userSpaceOnUse">
<stop stop-color="#F4F7F6"/>
<stop offset="1" stop-color="#D8D8D8"/>
</linearGradient>
<clipPath id="clip0_1885_15105">
<rect width="16" height="16" fill="white"/>
</clipPath>
<clipPath id="clip1_1885_15105">
<rect width="16" height="16" fill="white"/>
</clipPath>
<clipPath id="clip2_1885_15105">
<rect width="3" height="9" fill="white" transform="translate(0 7)"/>
</clipPath>
</defs>
</svg>
