<svg width="16" height="16" viewBox="0 0 16 16" fill="none" xmlns="http://www.w3.org/2000/svg">
<g clip-path="url(#clip0_1886_14235)">
<path d="M11 0H2V16H14V3H13V2H12V1H11V0Z" fill="#FCFCFC" fill-opacity="0.75"/>
<path d="M3 1H10V2H11V3H12V4H13V15H3V1Z" fill="url(#paint0_linear_1886_14235)"/>
<path fill-rule="evenodd" clip-rule="evenodd" d="M3 1H10V2H11V3H10V4H11V3H12V4H13V15H3V2V1ZM12 5H10H9V4V2H4V14H12V5Z" fill="#3A3A3A"/>
</g>
<g clip-path="url(#clip1_1886_14235)">
<path d="M9 16L9 9L1 9L1 10L-2.62268e-07 10L-4.37114e-08 15L1 15L1 16L9 16Z" fill="#FCFCFC" fill-opacity="0.75"/>
<path d="M7 14L7 11L2 11.0002L2 14L7 14Z" fill="url(#paint1_linear_1886_14235)"/>
<rect x="3" y="12" width="1" height="1" fill="#00A1DB"/>
<rect x="2" y="10" width="6" height="1" fill="#00A1DB"/>
<rect x="1" y="11" width="1" height="3" fill="#00A1DB"/>
<rect x="7" y="11" width="1" height="3" fill="#00A1DB"/>
<rect x="2" y="14" width="6" height="1" fill="#00A1DB"/>
</g>
<defs>
<linearGradient id="paint0_linear_1886_14235" x1="8" y1="1" x2="8" y2="15" gradientUnits="userSpaceOnUse">
<stop stop-color="#FCFCFC"/>
<stop offset="1" stop-color="#E6EAEA"/>
</linearGradient>
<linearGradient id="paint1_linear_1886_14235" x1="6.30556" y1="11.5833" x2="4.06016" y2="14.494" gradientUnits="userSpaceOnUse">
<stop stop-color="#94E1FC"/>
<stop offset="1" stop-color="#FCFCFC"/>
</linearGradient>
<clipPath id="clip0_1886_14235">
<rect width="12" height="16" fill="white" transform="translate(2)"/>
</clipPath>
<clipPath id="clip1_1886_14235">
<rect width="9" height="7" fill="white" transform="translate(0 9)"/>
</clipPath>
</defs>
</svg>
