<svg width="16" height="16" viewBox="0 0 16 16" fill="none" xmlns="http://www.w3.org/2000/svg">
<g clip-path="url(#clip0_1886_14392)">
<path d="M11 0H2V16H14V3H13V2H12V1H11V0Z" fill="#FCFCFC" fill-opacity="0.75"/>
<path d="M3 1H10V2H11V3H12V4H13V15H3V1Z" fill="url(#paint0_linear_1886_14392)"/>
<path fill-rule="evenodd" clip-rule="evenodd" d="M3 1H10V2H11V3H10V4H11V3H12V4H13V15H3V2V1ZM12 5H10H9V4V2H4V14H12V5Z" fill="#3A3A3A"/>
</g>
<rect x="3" y="7" width="1" height="8" fill="#FCFCFC" fill-opacity="0.75"/>
<g clip-path="url(#clip1_1886_14392)">
<path d="M1 9V7H10V9H11V12H10V16H1V12H0V9H1Z" fill="#FCFCFC" fill-opacity="0.75"/>
<rect x="5" y="8" width="1" height="7" fill="#00A1DB"/>
<rect x="8" y="8" width="1" height="7" fill="#00A1DB"/>
<rect x="2" y="8" width="1" height="7" fill="#00A1DB"/>
<rect x="4" y="12" width="3" height="1" fill="#00A1DB"/>
<rect x="7" y="10" width="3" height="1" fill="#00A1DB"/>
<rect x="1" y="10" width="3" height="1" fill="#00A1DB"/>
</g>
<defs>
<linearGradient id="paint0_linear_1886_14392" x1="8" y1="1" x2="8" y2="15" gradientUnits="userSpaceOnUse">
<stop stop-color="#FCFCFC"/>
<stop offset="1" stop-color="#E6EAEA"/>
</linearGradient>
<clipPath id="clip0_1886_14392">
<rect width="12" height="16" fill="white" transform="translate(2)"/>
</clipPath>
<clipPath id="clip1_1886_14392">
<rect width="11" height="9" fill="white" transform="translate(0 7)"/>
</clipPath>
</defs>
</svg>
