<svg width="16" height="16" viewBox="0 0 16 16" fill="none" xmlns="http://www.w3.org/2000/svg">
<g clip-path="url(#clip0_1886_14467)">
<path d="M11 0H2V16H14V3H13V2H12V1H11V0Z" fill="#FCFCFC" fill-opacity="0.75"/>
<path d="M3 1H10V2H11V3H12V4H13V15H3V1Z" fill="url(#paint0_linear_1886_14467)"/>
<path fill-rule="evenodd" clip-rule="evenodd" d="M3 1H10V2H11V3H10V4H11V3H12V4H13V15H3V2V1ZM12 5H10H9V4V2H4V14H12V5Z" fill="#3A3A3A"/>
</g>
<rect x="3" y="8" width="1" height="7" fill="#FCFCFC" fill-opacity="0.75"/>
<g clip-path="url(#clip1_1886_14467)">
<path d="M1 9H4V10H1V9Z" fill="#00A1DB"/>
<path d="M2 10H3V15H2V10Z" fill="#00A1DB"/>
<path d="M1 8.5H0.5V9V10V10.5H1H1.5V15V15.5H2H3H3.5V15V10.5H4H4.5V10V9V8.5H4H1Z" stroke="#FCFCFC" stroke-opacity="0.75"/>
</g>
<defs>
<linearGradient id="paint0_linear_1886_14467" x1="8" y1="1" x2="8" y2="15" gradientUnits="userSpaceOnUse">
<stop stop-color="#FCFCFC"/>
<stop offset="1" stop-color="#E6EAEA"/>
</linearGradient>
<clipPath id="clip0_1886_14467">
<rect width="12" height="16" fill="white" transform="translate(2)"/>
</clipPath>
<clipPath id="clip1_1886_14467">
<rect width="5" height="8" fill="white" transform="translate(0 8)"/>
</clipPath>
</defs>
</svg>
