<svg width="16" height="16" viewBox="0 0 16 16" fill="none" xmlns="http://www.w3.org/2000/svg">
<g clip-path="url(#clip0_1888_14147)">
<path d="M11 0H2V16H14V3H13V2H12V1H11V0Z" fill="#FCFCFC" fill-opacity="0.75"/>
<path d="M3 1H10V2H11V3H12V4H13V15H3V1Z" fill="url(#paint0_linear_1888_14147)"/>
<path fill-rule="evenodd" clip-rule="evenodd" d="M3 1H10V2H11V3H10V4H11V3H12V4H13V15H3V2V1ZM12 5H10H9V4V2H4V14H12V5Z" fill="#3A3A3A"/>
</g>
<g clip-path="url(#clip1_1888_14147)">
<path d="M7 16L7 9L5 9L5 7L5.60272e-07 7L4.76837e-07 16L7 16Z" fill="#FCFCFC" fill-opacity="0.75"/>
<path d="M3.5 10L3.5 8.5L1.5 8.5L1.5 14.5L5.5 14.5L5.5 10.5L4 10.5L3.5 10.5L3.5 10Z" fill="url(#paint1_linear_1888_14147)" stroke="#00A1DB"/>
</g>
<defs>
<linearGradient id="paint0_linear_1888_14147" x1="8" y1="1" x2="8" y2="15" gradientUnits="userSpaceOnUse">
<stop stop-color="#FCFCFC"/>
<stop offset="1" stop-color="#E6EAEA"/>
</linearGradient>
<linearGradient id="paint1_linear_1888_14147" x1="5.30556" y1="9.36111" x2="0.706499" y2="11.9161" gradientUnits="userSpaceOnUse">
<stop stop-color="#94E1FC"/>
<stop offset="1" stop-color="#FCFCFC"/>
</linearGradient>
<clipPath id="clip0_1888_14147">
<rect width="12" height="16" fill="white" transform="translate(2)"/>
</clipPath>
<clipPath id="clip1_1888_14147">
<rect width="7" height="9" fill="white" transform="translate(0 7)"/>
</clipPath>
</defs>
</svg>
