<svg width="16" height="16" viewBox="0 0 16 16" fill="none" xmlns="http://www.w3.org/2000/svg">
<path fill-rule="evenodd" clip-rule="evenodd" d="M16 4L13 1H0V9H0.875H1V2H12V5H15V14H7V14.25V15H16V4Z" fill="#0C121C"/>
<path d="M0 14L1 11L3 13L0 14Z" fill="#0C121C"/>
<path d="M4.82813 7.17578L5.53523 7.88289L2.7068 10.7113L1.9997 10.0042L4.82813 7.17578Z" fill="#0C121C"/>
<path d="M5.61719 8.96729L6.32429 9.67439L4.01247 11.9862L3.30536 11.2791L5.61719 8.96729Z" fill="#0C121C"/>
<path d="M7 9.00195L6.29289 9.70906L4.29081 7.70697L4.99791 6.99987L7 9.00195Z" fill="#0C121C"/>
<rect y="15" width="6" height="1" fill="#0C121C"/>
</svg>
