<svg width="16" height="16" viewBox="0 0 16 16" fill="none" xmlns="http://www.w3.org/2000/svg">
<g clip-path="url(#clip0_1890_14145)">
<path d="M4 0H2C0.895431 0 0 0.895431 0 2V13C0 14.1046 0.89543 15 2 15H5H14C15.1046 15 16 14.1046 16 13V6C16 4.89543 15.1046 4 14 4H13C13 2.89543 12.1046 2 11 2H6C6 0.895431 5.10457 0 4 0Z" fill="#FCFCFC" fill-opacity="0.75"/>
<path d="M1 3V12C1 13.1046 1.89543 14 3 14H4H13C14.1046 14 15 13.1046 15 12V7C15 5.89543 14.1046 5 13 5H12C12 3.89543 11.1046 3 10 3H5C5 1.89543 4.10457 1 3 1C1.89543 1 1 1.89543 1 3Z" fill="#00A1DB"/>
<path d="M2 12V7C2 6.44772 2.44772 6 3 6H13C13.5523 6 14 6.44772 14 7V12C14 12.5523 13.5523 13 13 13H3C2.44772 13 2 12.5523 2 12Z" fill="url(#paint0_linear_1890_14145)"/>
<rect x="6" y="6" width="2" height="1" fill="#00A1DB"/>
<rect x="7" y="7" width="2" height="1" fill="#00A1DB"/>
<rect x="6" y="8" width="2" height="1" fill="#00A1DB"/>
<rect x="7" y="9" width="2" height="1" fill="#00A1DB"/>
<rect x="6" y="10" width="2" height="1" fill="#00A1DB"/>
<rect x="7" y="11" width="2" height="1" fill="#00A1DB"/>
<rect x="6" y="12" width="2" height="1" fill="#00A1DB"/>
</g>
<defs>
<linearGradient id="paint0_linear_1890_14145" x1="11.6667" y1="6.97222" x2="8.49639" y2="13.9598" gradientUnits="userSpaceOnUse">
<stop stop-color="#94E1FC"/>
<stop offset="1" stop-color="#FCFCFC"/>
</linearGradient>
<clipPath id="clip0_1890_14145">
<rect width="16" height="15" fill="white"/>
</clipPath>
</defs>
</svg>
