<svg width="16" height="16" viewBox="0 0 16 16" fill="none" xmlns="http://www.w3.org/2000/svg">
<g clip-path="url(#clip0_1891_14095)">
<path d="M0 0H5V3H3V7H13V3H11V0H16V11H15V11.2918C15 13.3398 13.305 15 11.257 15C9.88662 15 8.61287 14.2257 8 13C7.38713 14.2257 6.11338 15 4.74297 15C2.69498 15 1 13.3398 1 11.2918V11H0V0Z" fill="#FCFCFC" fill-opacity="0.75"/>
<path d="M12 1H15V10H14V2H12V1Z" fill="#3A3A3A"/>
<path d="M1 1H4V2H2V10H1V1Z" fill="#3A3A3A"/>
<rect x="7" y="9" width="2" height="1" fill="#3A3A3A"/>
<path d="M9.5 8.5H13.5V11.5C13.5 12.6046 12.6046 13.5 11.5 13.5C10.3954 13.5 9.5 12.6046 9.5 11.5V8.5Z" fill="url(#paint0_linear_1891_14095)" stroke="#3A3A3A"/>
<path d="M2.5 8.5H6.5V11.5C6.5 12.6046 5.60457 13.5 4.5 13.5C3.39543 13.5 2.5 12.6046 2.5 11.5V8.5Z" fill="url(#paint1_linear_1891_14095)" stroke="#3A3A3A"/>
</g>
<defs>
<linearGradient id="paint0_linear_1891_14095" x1="13.0278" y1="8.83333" x2="9.42524" y2="12.6932" gradientUnits="userSpaceOnUse">
<stop stop-color="#94E1FC"/>
<stop offset="1" stop-color="#FCFCFC"/>
</linearGradient>
<linearGradient id="paint1_linear_1891_14095" x1="6.02778" y1="8.83333" x2="2.42524" y2="12.6932" gradientUnits="userSpaceOnUse">
<stop stop-color="#94E1FC"/>
<stop offset="1" stop-color="#FCFCFC"/>
</linearGradient>
<clipPath id="clip0_1891_14095">
<rect width="16" height="15" fill="white"/>
</clipPath>
</defs>
</svg>
