<svg width="16" height="16" viewBox="0 0 16 16" fill="none" xmlns="http://www.w3.org/2000/svg">
<path fill-rule="evenodd" clip-rule="evenodd" d="M16 10H11.0005C12.2147 9.08777 13 7.6356 13 6C13 3.23858 10.7614 1 8 1C5.23858 1 3 3.23858 3 6C3 6.80143 3.18855 7.55882 3.52372 8.23023L5 7L9 11L6.8 13H16V10ZM4.6 15H15V14H5.7L4.6 15Z" fill="#0C121C"/>
<path d="M0 16L1 13L3 15L0 16Z" fill="#0C121C"/>
<path d="M4.82813 9.17578L5.53523 9.88289L2.7068 12.7113L1.9997 12.0042L4.82813 9.17578Z" fill="#0C121C"/>
<path d="M5.61719 10.9673L6.32429 11.6744L4.01247 13.9862L3.30536 13.2791L5.61719 10.9673Z" fill="#0C121C"/>
<path d="M7 11.002L6.29289 11.7091L4.29081 9.70697L4.99791 8.99987L7 11.002Z" fill="#0C121C"/>
</svg>
