<svg width="16" height="16" viewBox="0 0 16 16" fill="none" xmlns="http://www.w3.org/2000/svg">
<path fill-rule="evenodd" clip-rule="evenodd" d="M0 2V13V14H1H15H16V13V2V1H15H1H0V2ZM15 13V2H1V13H15Z" fill="#0C121C"/>
<path fill-rule="evenodd" clip-rule="evenodd" d="M6 7C6 5.78368 6.24978 5.35937 6.44509 5.19661C6.65644 5.02049 6.95606 5 7.5 5C8.04318 5 8.37305 5.0163 8.59765 5.16603C8.76644 5.27855 9 5.56603 9 6.5C9 6.9074 8.9011 7.14807 8.77902 7.32103C8.64411 7.51216 8.45934 7.65549 8.2 7.85L8.17971 7.86521C7.94183 8.04349 7.63742 8.27164 7.40402 8.60228C7.1511 8.96057 7 9.4074 7 10H8C8 9.5926 8.0989 9.35193 8.22098 9.17897C8.35589 8.98784 8.54066 8.84451 8.8 8.65L8.82029 8.63479C9.05817 8.45651 9.36259 8.22836 9.59598 7.89772C9.8489 7.53943 10 7.0926 10 6.5C10 5.43397 9.73356 4.72145 9.15235 4.33397C8.64891 3.99835 8.0126 3.99928 7.55838 3.99994L7.5 4L7.44272 3.99993L7.44271 3.99993C6.98679 3.99911 6.32148 3.99791 5.80491 4.42839C5.25022 4.89063 5 5.71632 5 7H6ZM8 12V11H7V12H8Z" fill="#0C121C"/>
</svg>
