<svg width="16" height="16" viewBox="0 0 16 16" fill="none" xmlns="http://www.w3.org/2000/svg">
<g clip-path="url(#clip0_1897_14285)">
<g clip-path="url(#clip1_1897_14285)">
<rect width="16" height="16" fill="#FCFCFC" fill-opacity="0.75"/>
<rect x="1.5" y="5.5" width="13" height="9" fill="url(#paint0_linear_1897_14285)" stroke="#919191"/>
<path d="M1 1H15V2V3H14V2H13V3H12V2H11V3H10V2H9V3H1V1Z" fill="#3A3A3A"/>
<rect x="1" y="3" width="14" height="1" fill="#3A3A3A"/>
</g>
<g clip-path="url(#clip2_1897_14285)">
<path d="M5 9C5 7.34315 6.34315 6 8 6C9.65685 6 11 7.34315 11 9V11H10V12H9V14H6V10H5V9Z" fill="#FCFCFC" fill-opacity="0.75"/>
<rect x="7" y="12" width="1" height="1" fill="#3A3A3A"/>
<path d="M6.5 9C6.5 7.5 7.3125 7.5 8 7.5C8.6875 7.5 9.5 7.5 9.5 9C9.5 10.5 7.5 10 7.5 11" stroke="#3A3A3A"/>
</g>
</g>
<defs>
<linearGradient id="paint0_linear_1897_14285" x1="8" y1="5" x2="8" y2="15" gradientUnits="userSpaceOnUse">
<stop stop-color="#FCFCFC"/>
<stop offset="1" stop-color="#E6EAEA"/>
</linearGradient>
<clipPath id="clip0_1897_14285">
<rect width="16" height="16" fill="white"/>
</clipPath>
<clipPath id="clip1_1897_14285">
<rect width="16" height="16" fill="white"/>
</clipPath>
<clipPath id="clip2_1897_14285">
<rect width="6" height="8" fill="white" transform="translate(5 6)"/>
</clipPath>
</defs>
</svg>
