<svg width="16" height="16" viewBox="0 0 16 16" fill="none" xmlns="http://www.w3.org/2000/svg">
<g clip-path="url(#clip0_1897_14410)">
<g clip-path="url(#clip1_1897_14410)">
<rect width="16" height="16" fill="#FCFCFC" fill-opacity="0.75"/>
<rect x="1.5" y="1.5" width="13" height="3" fill="url(#paint0_linear_1897_14410)" stroke="#919191"/>
<rect x="12" y="3" width="1" height="1" fill="#3A3A3A"/>
<rect x="10" y="3" width="1" height="1" fill="#3A3A3A"/>
<rect x="8" y="3" width="1" height="1" fill="#3A3A3A"/>
<rect x="1.5" y="6.5" width="13" height="3" fill="url(#paint1_linear_1897_14410)" stroke="#919191"/>
<rect x="12" y="8" width="1" height="1" fill="#3A3A3A"/>
<rect x="10" y="8" width="1" height="1" fill="#3A3A3A"/>
<rect x="8" y="8" width="1" height="1" fill="#3A3A3A"/>
<rect x="1.5" y="11.5" width="13" height="3" fill="url(#paint2_linear_1897_14410)" stroke="#919191"/>
<rect x="12" y="13" width="1" height="1" fill="#3A3A3A"/>
<rect x="10" y="13" width="1" height="1" fill="#3A3A3A"/>
<rect x="8" y="13" width="1" height="1" fill="#3A3A3A"/>
</g>
</g>
<defs>
<linearGradient id="paint0_linear_1897_14410" x1="8" y1="1" x2="8" y2="5" gradientUnits="userSpaceOnUse">
<stop stop-color="#F4F7F6"/>
<stop offset="1" stop-color="#D8D8D8"/>
</linearGradient>
<linearGradient id="paint1_linear_1897_14410" x1="8" y1="6" x2="8" y2="10" gradientUnits="userSpaceOnUse">
<stop stop-color="#F4F7F6"/>
<stop offset="1" stop-color="#D8D8D8"/>
</linearGradient>
<linearGradient id="paint2_linear_1897_14410" x1="8" y1="11" x2="8" y2="15" gradientUnits="userSpaceOnUse">
<stop stop-color="#F4F7F6"/>
<stop offset="1" stop-color="#D8D8D8"/>
</linearGradient>
<clipPath id="clip0_1897_14410">
<rect width="16" height="16" fill="white"/>
</clipPath>
<clipPath id="clip1_1897_14410">
<rect width="16" height="16" fill="white"/>
</clipPath>
</defs>
</svg>
