<svg width="16" height="16" viewBox="0 0 16 16" fill="none" xmlns="http://www.w3.org/2000/svg">
<g clip-path="url(#clip0_825_22115)">
<path fill-rule="evenodd" clip-rule="evenodd" d="M9 12C9 12.5523 8.55228 13 8 13C7.44772 13 7 12.5523 7 12C7 11.4477 7.44772 11 8 11C8.55228 11 9 11.4477 9 12ZM13 7H11V4C11 2.34315 9.65685 1 8 1C6.34315 1 5 2.34315 5 4V7H3V15H13V7ZM10 4V7H6V4C6 2.89543 6.89543 2 8 2C9.10457 2 10 2.89543 10 4Z" fill="#0C121C"/>
</g>
<defs>
<clipPath id="clip0_825_22115">
<rect width="16" height="16" fill="white"/>
</clipPath>
</defs>
</svg>
