<svg width="16" height="16" viewBox="0 0 16 16" fill="none" xmlns="http://www.w3.org/2000/svg">
<g clip-path="url(#clip0_1899_14006)">
<path d="M1 0H2H14H15V1V15H14V16H2V15H1V1V0Z" fill="#FCFCFC" fill-opacity="0.75"/>
<path d="M3 13.5H2.5V2.5H13.5V13.5H13H12.5V14V14.5H3.5V14V13.5H3Z" fill="url(#paint0_linear_1899_14006)" stroke="#818285"/>
<path d="M2.5 1.5H3H13H13.5V2V5.5H2.5V2V1.5Z" fill="url(#paint1_linear_1899_14006)" stroke="#818285"/>
<rect x="11" y="3" width="1" height="1" fill="#919191"/>
<rect x="7" y="7" width="2" height="1" fill="#3A3A3A"/>
<rect x="10" y="7" width="2" height="1" fill="#3A3A3A"/>
<rect x="10" y="9" width="2" height="1" fill="#3A3A3A"/>
<rect x="10" y="11" width="2" height="1" fill="#3A3A3A"/>
<g clip-path="url(#clip1_1899_14006)">
<path d="M5 7L7 9L10 10.2727L8 12.5L8.33333 16L5 15L1.75376 16L2 12.5L0 10.2727L3 9L5 7Z" fill="#FCFCFC" fill-opacity="0.75"/>
<path d="M5 8.87323L5.92341 10.1954L6.0323 10.3513L6.21727 10.3954L7.88507 10.7934L6.68874 11.7451L6.44135 11.9419L6.51302 12.2497L6.94402 14.1011L5.21537 13.276L4.99712 13.1719L4.77996 13.2783L3.10117 14.101L3.48948 12.2384L3.55235 11.9368L3.31126 11.7451L2.11493 10.7934L3.78273 10.3954L3.9677 10.3513L4.07659 10.1954L5 8.87323Z" fill="url(#paint2_linear_1899_14006)" stroke="#00A1DB"/>
</g>
</g>
<defs>
<linearGradient id="paint0_linear_1899_14006" x1="8" y1="2" x2="8" y2="15" gradientUnits="userSpaceOnUse">
<stop stop-color="#F4F7F6"/>
<stop offset="1" stop-color="#D8D8D8"/>
</linearGradient>
<linearGradient id="paint1_linear_1899_14006" x1="11.6667" y1="1.69444" x2="9.9016" y2="7.14095" gradientUnits="userSpaceOnUse">
<stop stop-color="#94E1FC"/>
<stop offset="1" stop-color="#FCFCFC"/>
</linearGradient>
<linearGradient id="paint2_linear_1899_14006" x1="7.44444" y1="8.97222" x2="3.52531" y2="14.731" gradientUnits="userSpaceOnUse">
<stop stop-color="#94E1FC"/>
<stop offset="1" stop-color="#FCFCFC"/>
</linearGradient>
<clipPath id="clip0_1899_14006">
<rect width="16" height="16" fill="white"/>
</clipPath>
<clipPath id="clip1_1899_14006">
<rect width="10" height="9" fill="white" transform="translate(0 7)"/>
</clipPath>
</defs>
</svg>
