<svg width="16" height="16" viewBox="0 0 16 16" fill="none" xmlns="http://www.w3.org/2000/svg">
<g clip-path="url(#clip0_1899_14064)">
<path d="M1 0H2H14H15V1V15H14V16H2V15H1V1V0Z" fill="#FCFCFC" fill-opacity="0.75"/>
<path d="M3 13.5H2.5V2.5H13.5V13.5H13H12.5V14V14.5H3.5V14V13.5H3Z" fill="url(#paint0_linear_1899_14064)" stroke="#818285"/>
<path d="M2.5 1.5H3H13H13.5V2V5.5H2.5V2V1.5Z" fill="url(#paint1_linear_1899_14064)" stroke="#818285"/>
<rect x="11" y="3" width="1" height="1" fill="#919191"/>
<rect x="7" y="7" width="2" height="1" fill="#3A3A3A"/>
<rect x="10" y="7" width="2" height="1" fill="#3A3A3A"/>
<rect x="10" y="9" width="2" height="1" fill="#3A3A3A"/>
<rect x="10" y="11" width="2" height="1" fill="#3A3A3A"/>
<g clip-path="url(#clip1_1899_14064)">
<path d="M2 11V7H7V11H9V16H0V11H2Z" fill="#FCFCFC" fill-opacity="0.75"/>
<rect x="1.5" y="12.5" width="2" height="2" fill="#94E1FC" stroke="#00A1DB"/>
<rect x="3.5" y="8.5" width="2" height="2" fill="#94E1FC" stroke="#00A1DB"/>
<rect x="5.5" y="12.5" width="2" height="2" fill="#94E1FC" stroke="#00A1DB"/>
</g>
</g>
<defs>
<linearGradient id="paint0_linear_1899_14064" x1="8" y1="2" x2="8" y2="15" gradientUnits="userSpaceOnUse">
<stop stop-color="#F4F7F6"/>
<stop offset="1" stop-color="#D8D8D8"/>
</linearGradient>
<linearGradient id="paint1_linear_1899_14064" x1="11.6667" y1="1.69444" x2="9.9016" y2="7.14095" gradientUnits="userSpaceOnUse">
<stop stop-color="#94E1FC"/>
<stop offset="1" stop-color="#FCFCFC"/>
</linearGradient>
<clipPath id="clip0_1899_14064">
<rect width="16" height="16" fill="white"/>
</clipPath>
<clipPath id="clip1_1899_14064">
<rect width="9" height="9" fill="white" transform="translate(0 7)"/>
</clipPath>
</defs>
</svg>
