<svg width="16" height="16" viewBox="0 0 16 16" fill="none" xmlns="http://www.w3.org/2000/svg">
<path fill-rule="evenodd" clip-rule="evenodd" d="M16 1H15H1H0V2V8H1V2H15V12H7V13V14V15H16V14H9V13H15H16V12V2V1Z" fill="#0C121C"/>
<path fill-rule="evenodd" clip-rule="evenodd" d="M3 12C4.10457 12 5 11.1046 5 10C5 8.89543 4.10457 8 3 8C1.89543 8 1 8.89543 1 10C1 11.1046 1.89543 12 3 12ZM0 15C0 14 0.9 13 2.4 13H3.6C5.1 13 5.99977 14 5.99989 15V16H4.99994L5 15H4V16H2V15H1V16H0V15Z" fill="#0C121C"/>
</svg>
