<svg width="16" height="16" viewBox="0 0 16 16" fill="none" xmlns="http://www.w3.org/2000/svg">
<g clip-path="url(#clip0_1908_13630)">
<path d="M3 0H14L16 3V15H15V16H2V15H1V3L3 0Z" fill="#FCFCFC" fill-opacity="0.75"/>
<path d="M3 13.5H2.5V4.5H14.5V13.5H14H13.5V14V14.5H3.5V14V13.5H3Z" fill="url(#paint0_linear_1908_13630)" stroke="#919191"/>
<path d="M2.5 4.15139L4.26759 1.5H12.7324L14.5 4.15139V4.5H2.5V4.15139Z" fill="#D8D8D8" stroke="#919191"/>
<rect x="6" y="7" width="5" height="1" fill="#3A3A3A"/>
<rect x="8" y="2" width="1" height="2" fill="#919191"/>
<g clip-path="url(#clip1_1908_13630)">
<path d="M0 8H8V9H9V16H0V8Z" fill="#FCFCFC" fill-opacity="0.75"/>
<path d="M5 12.5H7.5V14.5H1.5V9.5H4.5V12V12.5H5Z" fill="url(#paint1_linear_1908_13630)" stroke="#00A1DB"/>
<path d="M6 9H7V10H8V11H6V9Z" fill="#00A1DB"/>
</g>
</g>
<defs>
<linearGradient id="paint0_linear_1908_13630" x1="8.5" y1="4" x2="8.5" y2="15" gradientUnits="userSpaceOnUse">
<stop stop-color="#F4F7F6"/>
<stop offset="1" stop-color="#D8D8D8"/>
</linearGradient>
<linearGradient id="paint1_linear_1908_13630" x1="6.63889" y1="9.83333" x2="3.30556" y2="14.8333" gradientUnits="userSpaceOnUse">
<stop stop-color="#94E1FC"/>
<stop offset="1" stop-color="#FCFCFC"/>
</linearGradient>
<clipPath id="clip0_1908_13630">
<rect width="16" height="16" fill="white"/>
</clipPath>
<clipPath id="clip1_1908_13630">
<rect width="9" height="8" fill="white" transform="translate(0 8)"/>
</clipPath>
</defs>
</svg>
