<svg width="16" height="16" viewBox="0 0 16 16" fill="none" xmlns="http://www.w3.org/2000/svg">
<g clip-path="url(#clip0_1908_13816)">
<path d="M0 8H6V9H7V10H8V16H0V8Z" fill="#FCFCFC" fill-opacity="0.75"/>
<path d="M6 11.5H6.5V14.5H1.5V9.5H4.5V10V10.5H5H5.5V11V11.5H6Z" fill="url(#paint0_linear_1908_13816)" stroke="#919191"/>
<path d="M8 8H14V9H15V10H16V16H8V8Z" fill="#FCFCFC" fill-opacity="0.75"/>
<path d="M14 11.5H14.5V14.5H9.5V9.5H12.5V10V10.5H13H13.5V11V11.5H14Z" fill="url(#paint1_linear_1908_13816)" stroke="#919191"/>
<path d="M4 0H10V1H11V2H12V8H4V0Z" fill="#FCFCFC" fill-opacity="0.75"/>
<path d="M10 3.5H10.5V6.5H5.5V1.5H8.5V2V2.5H9H9.5V3V3.5H10Z" fill="url(#paint2_linear_1908_13816)" stroke="#00A1DB"/>
</g>
<defs>
<linearGradient id="paint0_linear_1908_13816" x1="4" y1="9" x2="4" y2="15" gradientUnits="userSpaceOnUse">
<stop stop-color="#F4F7F6"/>
<stop offset="1" stop-color="#D8D8D8"/>
</linearGradient>
<linearGradient id="paint1_linear_1908_13816" x1="12" y1="9" x2="12" y2="15" gradientUnits="userSpaceOnUse">
<stop stop-color="#F4F7F6"/>
<stop offset="1" stop-color="#D8D8D8"/>
</linearGradient>
<linearGradient id="paint2_linear_1908_13816" x1="9.83333" y1="1.83333" x2="6.33333" y2="6.33333" gradientUnits="userSpaceOnUse">
<stop stop-color="#94E1FC"/>
<stop offset="1" stop-color="#FCFCFC"/>
</linearGradient>
<clipPath id="clip0_1908_13816">
<rect width="16" height="16" fill="white"/>
</clipPath>
</defs>
</svg>
