<svg width="16" height="16" viewBox="0 0 16 16" fill="none" xmlns="http://www.w3.org/2000/svg">
<path fill-rule="evenodd" clip-rule="evenodd" d="M13 1L16 4V15H7.63691C7.93941 14.6527 8.19621 14.3054 8.40256 14H15V5H12V2H1V10.3676C0.617214 10.7217 0.281563 11.1053 0 11.4673V1H13ZM3.99999 10C1.62346 10 0 13 0 13C0 13 1.58434 16 3.99999 16C6.42541 16 8 13 8 13C8 13 6.37651 10 3.99999 10ZM6 13C6 14.1046 5.10457 15 4 15C2.89543 15 2 14.1046 2 13C2 11.8954 2.89543 11 4 11C5.10457 11 6 11.8954 6 13ZM5 13C5 13.5523 4.55228 14 4 14C3.44772 14 3 13.5523 3 13C3 12.4477 3.44772 12 4 12C4.55228 12 5 12.4477 5 13ZM3 4H6V7H3V4ZM7 6H11V7H7V6Z" fill="#0C121C"/>
</svg>
