<svg width="16" height="16" viewBox="0 0 16 16" fill="none" xmlns="http://www.w3.org/2000/svg">
<g clip-path="url(#clip0_1914_13823)">
<g clip-path="url(#clip1_1914_13823)">
<path d="M16 5L16 14L0 14L-5.24537e-07 2L13 2L13 3L14 3L14 4L15 4L15 5L16 5Z" fill="#FCFCFC" fill-opacity="0.75"/>
<path d="M15 13L15 6L14 6L14 5L13 5L13 4L12 4L12 3L1 3L1 13L15 13Z" fill="url(#paint0_linear_1914_13823)"/>
<path fill-rule="evenodd" clip-rule="evenodd" d="M15 13L15 6L14 6L14 5L13 5L13 6L12 6L12 5L13 5L13 4L12 4L12 3L1 3L1 13L14 13L15 13ZM11 4L11 6L11 7L12 7L14 7L14 12L2 12L2 4L11 4Z" fill="#3A3A3A"/>
</g>
<rect x="2" y="8" width="1" height="4" transform="rotate(-90 2 8)" fill="#FCFCFC"/>
<rect x="6" y="8" width="1" height="4" transform="rotate(-90 6 8)" fill="#FCFCFC"/>
<rect x="2" y="7" width="1" height="4" transform="rotate(-90 2 7)" fill="#D8D8D8"/>
<rect x="6" y="7" width="1" height="4" transform="rotate(-90 6 7)" fill="#D8D8D8"/>
<rect x="5" y="7" width="3" height="1" transform="rotate(-90 5 7)" fill="#D8D8D8"/>
<rect x="5" y="9" width="3" height="1" transform="rotate(-90 5 9)" fill="#D8D8D8"/>
<rect x="2" y="11" width="1" height="4" transform="rotate(-90 2 11)" fill="#FCFCFC"/>
<rect x="6" y="11" width="1" height="4" transform="rotate(-90 6 11)" fill="#FCFCFC"/>
<rect x="10" y="11" width="1" height="4" transform="rotate(-90 10 11)" fill="#FCFCFC"/>
<rect x="2" y="10" width="1" height="4" transform="rotate(-90 2 10)" fill="#D8D8D8"/>
<rect x="6" y="10" width="1" height="4" transform="rotate(-90 6 10)" fill="#D8D8D8"/>
<rect x="10" y="10" width="1" height="4" transform="rotate(-90 10 10)" fill="#D8D8D8"/>
<rect x="5" y="12" width="3" height="1" transform="rotate(-90 5 12)" fill="#D8D8D8"/>
<rect x="10" y="7" width="3" height="1" transform="rotate(-90 10 7)" fill="#D8D8D8"/>
<rect x="10" y="9" width="3" height="1" transform="rotate(-90 10 9)" fill="#D8D8D8"/>
<rect x="10" y="12" width="3" height="1" transform="rotate(-90 10 12)" fill="#D8D8D8"/>
<g clip-path="url(#clip2_1914_13823)">
<path d="M1 8V7H8V8H9V16H0V8H1Z" fill="#FCFCFC" fill-opacity="0.75"/>
<path d="M1.5 10.5H7.5V14.5H1.5V10.5Z" fill="url(#paint1_linear_1914_13823)" stroke="#919191"/>
<path d="M2.5 9V8.5H6.5V9V9.5H7H7.5V10.5H1.5V9.5H2H2.5V9Z" fill="#D8D8D8" stroke="#919191"/>
<path d="M4 12H5V13H4V12Z" fill="#3A3A3A"/>
</g>
</g>
<defs>
<linearGradient id="paint0_linear_1914_13823" x1="15" y1="8" x2="1" y2="8" gradientUnits="userSpaceOnUse">
<stop stop-color="#FCFCFC"/>
<stop offset="1" stop-color="#E6EAEA"/>
</linearGradient>
<linearGradient id="paint1_linear_1914_13823" x1="4.5" y1="10" x2="4.5" y2="15" gradientUnits="userSpaceOnUse">
<stop stop-color="#F4F7F6"/>
<stop offset="1" stop-color="#D8D8D8"/>
</linearGradient>
<clipPath id="clip0_1914_13823">
<rect width="16" height="16" fill="white"/>
</clipPath>
<clipPath id="clip1_1914_13823">
<rect width="12" height="16" fill="white" transform="matrix(-4.37114e-08 -1 -1 4.37114e-08 16 14)"/>
</clipPath>
<clipPath id="clip2_1914_13823">
<rect width="9" height="9" fill="white" transform="translate(0 7)"/>
</clipPath>
</defs>
</svg>
