<svg width="16" height="16" viewBox="0 0 16 16" fill="none" xmlns="http://www.w3.org/2000/svg">
<g clip-path="url(#clip0_1914_13917)">
<g clip-path="url(#clip1_1914_13917)">
<path d="M16 5L16 14L0 14L-5.24537e-07 2L13 2L13 3L14 3L14 4L15 4L15 5L16 5Z" fill="#FCFCFC" fill-opacity="0.75"/>
<path d="M15 13L15 6L14 6L14 5L13 5L13 4L12 4L12 3L1 3L1 13L15 13Z" fill="url(#paint0_linear_1914_13917)"/>
<path fill-rule="evenodd" clip-rule="evenodd" d="M15 13L15 6L14 6L14 5L13 5L13 6L12 6L12 5L13 5L13 4L12 4L12 3L1 3L1 13L14 13L15 13ZM11 4L11 6L11 7L12 7L14 7L14 12L2 12L2 4L11 4Z" fill="#3A3A3A"/>
</g>
<rect x="2" y="8" width="1" height="4" transform="rotate(-90 2 8)" fill="#FCFCFC"/>
<rect x="6" y="8" width="1" height="4" transform="rotate(-90 6 8)" fill="#FCFCFC"/>
<rect x="2" y="7" width="1" height="4" transform="rotate(-90 2 7)" fill="#D8D8D8"/>
<rect x="6" y="7" width="1" height="4" transform="rotate(-90 6 7)" fill="#D8D8D8"/>
<rect x="5" y="7" width="3" height="1" transform="rotate(-90 5 7)" fill="#D8D8D8"/>
<rect x="5" y="9" width="3" height="1" transform="rotate(-90 5 9)" fill="#D8D8D8"/>
<rect x="2" y="11" width="1" height="4" transform="rotate(-90 2 11)" fill="#FCFCFC"/>
<rect x="6" y="11" width="1" height="4" transform="rotate(-90 6 11)" fill="#FCFCFC"/>
<rect x="10" y="11" width="1" height="4" transform="rotate(-90 10 11)" fill="#FCFCFC"/>
<rect x="2" y="10" width="1" height="4" transform="rotate(-90 2 10)" fill="#D8D8D8"/>
<rect x="6" y="10" width="1" height="4" transform="rotate(-90 6 10)" fill="#D8D8D8"/>
<rect x="10" y="10" width="1" height="4" transform="rotate(-90 10 10)" fill="#D8D8D8"/>
<rect x="5" y="12" width="3" height="1" transform="rotate(-90 5 12)" fill="#D8D8D8"/>
<rect x="10" y="7" width="3" height="1" transform="rotate(-90 10 7)" fill="#D8D8D8"/>
<rect x="10" y="9" width="3" height="1" transform="rotate(-90 10 9)" fill="#D8D8D8"/>
<rect x="10" y="12" width="3" height="1" transform="rotate(-90 10 12)" fill="#D8D8D8"/>
<path d="M1 8H2V12H4V13H1V8Z" fill="#FCFCFC" fill-opacity="0.75"/>
<g clip-path="url(#clip2_1914_13917)">
<path d="M1 9H4V10H1V9Z" fill="#EA212D"/>
<path d="M2 10H3V15H2V10Z" fill="#EA212D"/>
<path d="M1 8.5H0.5V9V10V10.5H1H1.5V15V15.5H2H3H3.5V15V10.5H4H4.5V10V9V8.5H4H1Z" stroke="#FCFCFC" stroke-opacity="0.75"/>
</g>
</g>
<defs>
<linearGradient id="paint0_linear_1914_13917" x1="15" y1="8" x2="1" y2="8" gradientUnits="userSpaceOnUse">
<stop stop-color="#FCFCFC"/>
<stop offset="1" stop-color="#E6EAEA"/>
</linearGradient>
<clipPath id="clip0_1914_13917">
<rect width="16" height="16" fill="white"/>
</clipPath>
<clipPath id="clip1_1914_13917">
<rect width="12" height="16" fill="white" transform="matrix(-4.37114e-08 -1 -1 4.37114e-08 16 14)"/>
</clipPath>
<clipPath id="clip2_1914_13917">
<rect width="5" height="8" fill="white" transform="translate(0 8)"/>
</clipPath>
</defs>
</svg>
