<svg width="16" height="16" viewBox="0 0 16 16" fill="none" xmlns="http://www.w3.org/2000/svg">
<g clip-path="url(#clip0_1917_13228)">
<path d="M3 0H14L16 3V15H15V16H2V15H1V3L3 0Z" fill="#FCFCFC" fill-opacity="0.75"/>
<path d="M3 13.5H2.5V4.5H14.5V13.5H14H13.5V14V14.5H3.5V14V13.5H3Z" fill="url(#paint0_linear_1917_13228)" stroke="#919191"/>
<path d="M2.5 4.15139L4.26759 1.5H12.7324L14.5 4.15139V4.5H2.5V4.15139Z" fill="#D8D8D8" stroke="#919191"/>
<rect x="6" y="7" width="5" height="1" fill="#3A3A3A"/>
<rect x="8" y="2" width="1" height="2" fill="#919191"/>
<g clip-path="url(#clip1_1917_13228)">
<path d="M7 12L7 13L6 13L4 13L4 12L8.74228e-08 12L3.49691e-07 9L4 9L4 8L6 8L7 8L7 9L8 9L8 12L7 12Z" fill="#FCFCFC" fill-opacity="0.75"/>
<rect x="5" y="12" width="3" height="1" transform="rotate(-90 5 12)" fill="#EA212D"/>
<path d="M7 10L7 11L1 11L1 10L7 10Z" fill="#EA212D"/>
</g>
<g clip-path="url(#clip2_1917_13228)">
<path d="M1 15L1 16L2 16L4 16L4 15L8 15L8 12L4 12L4 11L2 11L1 11L1 12L-3.49691e-07 12L-8.74228e-08 15L1 15Z" fill="#FCFCFC" fill-opacity="0.75"/>
<rect width="3" height="1" transform="matrix(-1.31134e-07 -1 -1 1.31134e-07 3 15)" fill="#219653"/>
<path d="M1 13L1 14L7 14L7 13L1 13Z" fill="#219653"/>
</g>
</g>
<defs>
<linearGradient id="paint0_linear_1917_13228" x1="8.5" y1="4" x2="8.5" y2="15" gradientUnits="userSpaceOnUse">
<stop stop-color="#F4F7F6"/>
<stop offset="1" stop-color="#D8D8D8"/>
</linearGradient>
<clipPath id="clip0_1917_13228">
<rect width="16" height="16" fill="white"/>
</clipPath>
<clipPath id="clip1_1917_13228">
<rect width="8" height="5" fill="white" transform="translate(0 8)"/>
</clipPath>
<clipPath id="clip2_1917_13228">
<rect width="8" height="5" fill="white" transform="matrix(-1 0 0 1 8 11)"/>
</clipPath>
</defs>
</svg>
