<svg width="16" height="16" viewBox="0 0 16 16" fill="none" xmlns="http://www.w3.org/2000/svg">
<g clip-path="url(#clip0_1923_13211)">
<g clip-path="url(#clip1_1923_13211)">
<rect width="16" height="16" fill="#FCFCFC" fill-opacity="0.75"/>
<rect x="1.5" y="3.5" width="13" height="11" fill="#FCFCFC" stroke="#919191"/>
<rect x="1.5" y="1.5" width="13" height="3" fill="#94E1FC" stroke="#3A3A3A"/>
<rect x="2" y="2" width="12" height="1" fill="#00A1DB"/>
</g>
<rect x="7" y="6" width="5" height="1" fill="#919191"/>
<rect x="9" y="8" width="3" height="1" fill="#919191"/>
<rect x="7" y="10" width="5" height="1" fill="#919191"/>
<rect x="9" y="12" width="3" height="1" fill="#919191"/>
<rect x="2" y="9" width="4" height="5" fill="#FCFCFC" fill-opacity="0.75"/>
<rect x="3" y="10" width="2" height="1" fill="#00A1DB"/>
<rect x="3" y="12" width="2" height="1" fill="#00A1DB"/>
<rect x="4" y="10" width="1" height="2" fill="#00A1DB"/>
<path d="M2 5H6V10H3V8H2V5Z" fill="#FCFCFC" fill-opacity="0.75"/>
<rect x="3" y="6" width="2" height="1" fill="#00A1DB"/>
<rect x="4" y="6" width="1" height="3" fill="#00A1DB"/>
</g>
<defs>
<clipPath id="clip0_1923_13211">
<rect width="16" height="16" fill="white"/>
</clipPath>
<clipPath id="clip1_1923_13211">
<rect width="16" height="16" fill="white"/>
</clipPath>
</defs>
</svg>
