<svg width="16" height="16" viewBox="0 0 16 16" fill="none" xmlns="http://www.w3.org/2000/svg">
<path fill-rule="evenodd" clip-rule="evenodd" d="M8 14.2422C9.20599 13.435 10 12.0602 10 10.5C10 8.01472 7.98528 6 5.5 6C3.18372 6 1.27619 7.75002 1.02746 10H8V14.2422ZM0 8H0.59971C1.51007 6.21916 3.36266 5 5.5 5C6.02001 5 6.52317 5.07217 7 5.20703V1H0V8ZM10.9998 3L9.25781 6.48405C10.3299 7.48767 10.9998 8.9156 10.9998 10.5C10.9998 11.4002 10.7836 12.2499 10.4001 13H15.9998L10.9998 3ZM2 13H5V14H2V13ZM1 13H0V14H1V13ZM2 15H5V16H2V15ZM1 15H0V16H1V15ZM6 16V12H0V11H7V12V16H6Z" fill="#0C121C"/>
</svg>
