<svg width="16" height="16" viewBox="0 0 16 16" fill="none" xmlns="http://www.w3.org/2000/svg">
<g clip-path="url(#clip0_1930_12451)">
<rect width="8" height="8" fill="#FCFCFC" fill-opacity="0.75"/>
<rect x="1" y="1" width="6" height="6" fill="#3A3A3A"/>
<path d="M6 12L11 1.5L16 12L6 12Z" fill="#FCFCFC" fill-opacity="0.75"/>
<path d="M7.5 11L11 3L14.5 11L7.5 11Z" fill="#3A3A3A"/>
<circle cx="6" cy="10" r="5" fill="#FCFCFC" fill-opacity="0.75"/>
<circle cx="6" cy="10" r="4" fill="#919191"/>
<g clip-path="url(#clip1_1930_12451)">
<rect y="9" width="9" height="7" fill="#FCFCFC" fill-opacity="0.75"/>
<rect x="3" y="12" width="3" height="1" fill="#3A3A3A"/>
<rect x="1" y="12" width="1" height="1" fill="#3A3A3A"/>
<rect x="3" y="14" width="3" height="1" fill="#3A3A3A"/>
<rect x="1" y="14" width="1" height="1" fill="#3A3A3A"/>
<rect x="7" y="11" width="1" height="4" fill="#3A3A3A"/>
<rect x="1" y="11" width="1" height="7" transform="rotate(-90 1 11)" fill="#3A3A3A"/>
</g>
</g>
<defs>
<clipPath id="clip0_1930_12451">
<rect width="16" height="16" fill="white"/>
</clipPath>
<clipPath id="clip1_1930_12451">
<rect width="9" height="7" fill="white" transform="translate(0 9)"/>
</clipPath>
</defs>
</svg>
