<svg width="16" height="16" viewBox="0 0 16 16" fill="none" xmlns="http://www.w3.org/2000/svg">
<g clip-path="url(#clip0_879_24449)">
<path fill-rule="evenodd" clip-rule="evenodd" d="M8 16C9.80118 16 11.4633 15.4047 12.8005 14.4002L16 16V11V8C16 3.58172 12.4183 0 8 0C3.58172 0 0 3.58172 0 8C0 12.4183 3.58172 16 8 16ZM10.9987 9.99984C10.9987 11.6665 10.9987 12.3332 7.9987 14.9998C9.9987 14.9998 13.4987 11.6665 13.4987 7.99984C13.4987 4.6665 11.3333 2.99984 8 2.99984V0.999837L2.9987 4.49984L8 7.99984V5.99984C9.70693 6.15704 10.9987 8.33317 10.9987 9.99984Z" fill="#0C121C"/>
</g>
<defs>
<clipPath id="clip0_879_24449">
<rect width="16" height="16" fill="white"/>
</clipPath>
</defs>
</svg>
