<svg width="16" height="16" viewBox="0 0 16 16" fill="none" xmlns="http://www.w3.org/2000/svg">
<g clip-path="url(#clip0_1938_12360)">
<path d="M11 5C11 5.35064 10.9398 5.68722 10.8293 6C10.4175 7.16519 9.30622 8 8 8C6.69378 8 5 7 5 5H4V4H5V1H11V4H12L12 5H11Z" fill="#FCFCFC" fill-opacity="0.75"/>
<path d="M3.5 5V5.5H4H4.53156C4.79167 7.51178 6.60657 8.5 8 8.5C9.5247 8.5 10.8205 7.52534 11.3007 6.16662C11.3762 5.95295 11.4316 5.72994 11.4645 5.5H12H12.5L12.5 5L12.5 4L12.5 3.5H12H11.5V1V0.5H11H5H4.5V1V3.5H4H3.5V4V5Z" stroke="#FCFCFC" stroke-opacity="0.75"/>
<path d="M2 14C2 11.2386 4.23858 9 7 9H9C11.7614 9 14 11.2386 14 14V15H11V13H10V15H6V13H5V15H2V14Z" fill="#FCFCFC" fill-opacity="0.75"/>
<path d="M14 15.5H14.5V15V14C14.5 10.9624 12.0376 8.5 9 8.5H7C3.96243 8.5 1.5 10.9624 1.5 14V15V15.5H2H5H5.5H6H10H10.5H11H14Z" stroke="#FCFCFC" stroke-opacity="0.75"/>
<path d="M10.45 5.5C10.2184 6.64112 9.20948 7.5 8 7.5C6.79052 7.5 5.78164 6.64112 5.55001 5.5H10.45Z" fill="url(#paint0_linear_1938_12360)" stroke="#919191"/>
<path d="M5 12.5H4.5V13V14.5H2.5V14C2.5 11.5147 4.51472 9.5 7 9.5H9C11.4853 9.5 13.5 11.5147 13.5 14V14.5H11.5V13V12.5H11H10H9.5V13V14.5H6.5V13V12.5H6H5Z" fill="url(#paint1_linear_1938_12360)" stroke="#919191"/>
<path d="M5.5 4V1.5H10.5V4V4.5H5.5V4Z" fill="#3A3A3A" stroke="#919191"/>
<rect x="4" y="4" width="8" height="1" fill="#919191"/>
</g>
<defs>
<linearGradient id="paint0_linear_1938_12360" x1="11" y1="6.63636" x2="5" y2="6.63636" gradientUnits="userSpaceOnUse">
<stop stop-color="#F4F7F6"/>
<stop offset="1" stop-color="#D8D8D8"/>
</linearGradient>
<linearGradient id="paint1_linear_1938_12360" x1="14" y1="12.2727" x2="2" y2="12.2727" gradientUnits="userSpaceOnUse">
<stop stop-color="#F4F7F6"/>
<stop offset="1" stop-color="#D8D8D8"/>
</linearGradient>
<clipPath id="clip0_1938_12360">
<rect width="16" height="16" fill="white"/>
</clipPath>
</defs>
</svg>
