<svg width="16" height="16" viewBox="0 0 16 16" fill="none" xmlns="http://www.w3.org/2000/svg">
<g clip-path="url(#clip0_1938_12393)">
<g clip-path="url(#clip1_1938_12393)">
<rect width="16" height="16" fill="#FCFCFC" fill-opacity="0.75"/>
<g clip-path="url(#clip2_1938_12393)">
<rect x="1" y="1" width="1" height="14" fill="#3A3A3A"/>
<rect x="4" y="1" width="1" height="14" fill="#3A3A3A"/>
<rect x="1" y="14" width="4" height="1" fill="#3A3A3A"/>
<rect x="1" y="1" width="4" height="1" fill="#3A3A3A"/>
<rect x="2" y="7" width="2" height="5" fill="#919191"/>
<rect x="2" y="2" width="2" height="1" fill="#919191"/>
<rect x="2" y="13" width="2" height="1" fill="#919191"/>
</g>
<g clip-path="url(#clip3_1938_12393)">
<rect x="6" y="1" width="1" height="14" fill="#3A3A3A"/>
<rect x="9" y="1" width="1" height="14" fill="#3A3A3A"/>
<rect x="6" y="14" width="4" height="1" fill="#3A3A3A"/>
<rect x="6" y="1" width="4" height="1" fill="#3A3A3A"/>
<rect x="7" y="7" width="2" height="5" fill="#919191"/>
<rect x="7" y="2" width="2" height="1" fill="#919191"/>
<rect x="7" y="13" width="2" height="1" fill="#919191"/>
</g>
<g clip-path="url(#clip4_1938_12393)">
<rect x="11" y="1" width="1" height="14" fill="#3A3A3A"/>
<rect x="14" y="1" width="1" height="14" fill="#3A3A3A"/>
<rect x="11" y="14" width="4" height="1" fill="#3A3A3A"/>
<rect x="11" y="1" width="4" height="1" fill="#3A3A3A"/>
<rect x="12" y="7" width="2" height="5" fill="#919191"/>
<rect x="12" y="2" width="2" height="1" fill="#919191"/>
<rect x="12" y="13" width="2" height="1" fill="#919191"/>
</g>
</g>
<g clip-path="url(#clip5_1938_12393)">
<path d="M0 9H4V10H5V9H6V8H9V11H8V13H7V15H6V16H3V15H2V14H1V13H0V9Z" fill="#FCFCFC" fill-opacity="0.75"/>
<path d="M4 11V12H5V11H6V10H7V9H8V10H7V11V12H6V14H5V15H4V14H3V13H2V12H1V11V10H2H3V11H4Z" fill="#00A1DB"/>
</g>
<rect x="1" y="14" width="1" height="1" fill="#FCFCFC" fill-opacity="0.75"/>
</g>
<defs>
<clipPath id="clip0_1938_12393">
<rect width="16" height="16" fill="white"/>
</clipPath>
<clipPath id="clip1_1938_12393">
<rect width="16" height="16" fill="white"/>
</clipPath>
<clipPath id="clip2_1938_12393">
<rect width="4" height="14" fill="white" transform="translate(1 1)"/>
</clipPath>
<clipPath id="clip3_1938_12393">
<rect width="4" height="14" fill="white" transform="translate(6 1)"/>
</clipPath>
<clipPath id="clip4_1938_12393">
<rect width="4" height="14" fill="white" transform="translate(11 1)"/>
</clipPath>
<clipPath id="clip5_1938_12393">
<rect width="9" height="8" fill="white" transform="translate(0 8)"/>
</clipPath>
</defs>
</svg>
