<svg width="16" height="16" viewBox="0 0 16 16" fill="none" xmlns="http://www.w3.org/2000/svg">
<g clip-path="url(#clip0_1938_12489)">
<g clip-path="url(#clip1_1938_12489)">
<rect width="16" height="16" fill="#FCFCFC" fill-opacity="0.75"/>
<rect x="1.5" y="5.5" width="13" height="9" fill="url(#paint0_linear_1938_12489)" stroke="#919191"/>
<path d="M1 1H15V2V3H14V2H13V3H12V2H11V3H10V2H9V3H1V1Z" fill="#3A3A3A"/>
<rect x="1" y="3" width="14" height="1" fill="#3A3A3A"/>
</g>
<g clip-path="url(#clip2_1938_12489)">
<path d="M11 11L11 12L10 12L8 12L8 11L4 11L4 8L8 8L8 7L10 7L11 7L11 8L12 8L12 11L11 11Z" fill="#FCFCFC" fill-opacity="0.75"/>
<rect x="9" y="11" width="3" height="1" transform="rotate(-90 9 11)" fill="#00A1DB"/>
<path d="M11 9L11 10L5 10L5 9L11 9Z" fill="#00A1DB"/>
</g>
</g>
<defs>
<linearGradient id="paint0_linear_1938_12489" x1="8" y1="5" x2="8" y2="15" gradientUnits="userSpaceOnUse">
<stop stop-color="#FCFCFC"/>
<stop offset="1" stop-color="#E6EAEA"/>
</linearGradient>
<clipPath id="clip0_1938_12489">
<rect width="16" height="16" fill="white"/>
</clipPath>
<clipPath id="clip1_1938_12489">
<rect width="16" height="16" fill="white"/>
</clipPath>
<clipPath id="clip2_1938_12489">
<rect width="8" height="5" fill="white" transform="translate(4 7)"/>
</clipPath>
</defs>
</svg>
