<svg width="16" height="16" viewBox="0 0 16 16" fill="none" xmlns="http://www.w3.org/2000/svg">
<g clip-path="url(#clip0_887_24676)">
<path fill-rule="evenodd" clip-rule="evenodd" d="M16 8C16 3.58172 12.4183 0 8 0C3.58172 0 0 3.58172 0 8H2V13.2916C3.46589 14.9525 5.61061 16 8 16C9.80118 16 11.4633 15.4047 12.8005 14.4002L16 16V11V8ZM7.9987 14.9998C10.9987 12.3332 10.9987 11.6665 10.9987 9.99984C10.9987 8.33317 9.70693 6.15704 8 5.99984V7.99984L2.9987 4.49984L8 0.999837V2.99984C11.3333 2.99984 13.4987 4.6665 13.4987 7.99984C13.4987 11.6665 9.9987 14.9998 7.9987 14.9998Z" fill="#0C121C"/>
<rect width="1" height="5" transform="matrix(1 0 0 -1 0 14)" fill="#0C121C"/>
<rect width="1" height="1" transform="matrix(1 0 0 -1 0 16)" fill="#0C121C"/>
</g>
<defs>
<clipPath id="clip0_887_24676">
<rect width="16" height="16" fill="white"/>
</clipPath>
</defs>
</svg>
