<svg width="16" height="16" viewBox="0 0 16 16" fill="none" xmlns="http://www.w3.org/2000/svg">
<g clip-path="url(#clip0_1939_12444)">
<g clip-path="url(#clip1_1939_12444)">
<rect width="16" height="16" fill="#FCFCFC" fill-opacity="0.75"/>
<rect x="1.5" y="3.5" width="13" height="11" fill="#FCFCFC" stroke="#919191"/>
<rect x="1.5" y="1.5" width="13" height="3" fill="#94E1FC" stroke="#3A3A3A"/>
<rect x="2" y="2" width="12" height="1" fill="#00A1DB"/>
</g>
<rect x="4" y="7" width="3" height="2" fill="#919191"/>
<rect x="9" y="7" width="3" height="2" fill="#919191"/>
<rect x="9" y="10" width="3" height="2" fill="#919191"/>
<g clip-path="url(#clip2_1939_12444)">
<path d="M1 11V10H2V9H5V11H9V14H5V16H2V15H1V14H0V11H1Z" fill="#FCFCFC" fill-opacity="0.75"/>
<path d="M3 13L3 12L8 12L8 13L3 13Z" fill="#00A1DB"/>
<rect x="2" y="12" width="1" height="1" transform="rotate(90 2 12)" fill="#00A1DB"/>
<rect x="3" y="11" width="3" height="1" transform="rotate(90 3 11)" fill="#00A1DB"/>
<rect x="4" y="10" width="5" height="1" transform="rotate(90 4 10)" fill="#00A1DB"/>
</g>
</g>
<defs>
<clipPath id="clip0_1939_12444">
<rect width="16" height="16" fill="white"/>
</clipPath>
<clipPath id="clip1_1939_12444">
<rect width="16" height="16" fill="white"/>
</clipPath>
<clipPath id="clip2_1939_12444">
<rect width="9" height="7" fill="white" transform="translate(0 9)"/>
</clipPath>
</defs>
</svg>
