<svg width="16" height="16" viewBox="0 0 16 16" fill="none" xmlns="http://www.w3.org/2000/svg">
<g clip-path="url(#clip0_1944_11493)">
<rect x="7" width="3" height="3" fill="#FCFCFC" fill-opacity="0.75"/>
<path d="M3 3V0H6V3H8V7H6V16H3V7H1V3H3Z" fill="#FCFCFC" fill-opacity="0.75"/>
<path d="M11 3V0H14V3H16V7H14V16H11V7H9V3H11Z" fill="#FCFCFC" fill-opacity="0.75"/>
<path d="M7 13V16H10V13H11V9H10V7H7V9H6V13H7Z" fill="#FCFCFC" fill-opacity="0.75"/>
<rect x="4" y="1" width="1" height="14" fill="#3A3A3A"/>
<rect x="12" y="1" width="1" height="14" fill="#3A3A3A"/>
<rect x="8" y="1" width="1" height="14" fill="#3A3A3A"/>
<rect x="2" y="4" width="5" height="2" fill="#919191"/>
<rect x="10" y="4" width="5" height="2" fill="#919191"/>
<rect x="6" y="10" width="5" height="2" fill="#919191"/>
</g>
<defs>
<clipPath id="clip0_1944_11493">
<rect width="16" height="16" fill="white"/>
</clipPath>
</defs>
</svg>
