<svg width="16" height="16" viewBox="0 0 16 16" fill="none" xmlns="http://www.w3.org/2000/svg">
<g clip-path="url(#clip0_1945_11615)">
<rect y="1" width="16" height="14" fill="#FCFCFC" fill-opacity="0.75"/>
<rect x="1" y="2" width="14" height="12" fill="#FCFCFC"/>
</g>
<rect x="9" y="5" width="1" height="3" fill="#3A3A3A"/>
<rect x="10" y="7" width="2" height="1" fill="#3A3A3A"/>
<rect x="11" y="5" width="1" height="5" fill="#3A3A3A"/>
<g clip-path="url(#clip1_1945_11615)">
<path d="M4 5H7V8H5V9H7V10H4V7H6V6H4V5Z" fill="#3A3A3A"/>
<path d="M4 4.5H3.5V5V6V6.5V7V10V10.5H4H7H7.5V10V9V8.5V8V5V4.5H7H4Z" stroke="#FCFCFC" stroke-opacity="0.75"/>
</g>
<defs>
<clipPath id="clip0_1945_11615">
<rect width="16" height="14" fill="white" transform="translate(0 1)"/>
</clipPath>
<clipPath id="clip1_1945_11615">
<rect width="5" height="7" fill="white" transform="translate(3 4)"/>
</clipPath>
</defs>
</svg>
