<svg width="16" height="16" viewBox="0 0 16 16" fill="none" xmlns="http://www.w3.org/2000/svg">
<g clip-path="url(#clip0_1947_11681)">
<rect width="16" height="16" fill="#FCFCFC" fill-opacity="0.75"/>
<rect x="3.5" y="1.5" width="11" height="13" fill="url(#paint0_linear_1947_11681)" stroke="#919191"/>
<rect x="6.5" y="4.5" width="5" height="3" fill="#FCFCFC" stroke="#3A3A3A"/>
<rect x="9" y="9" width="3" height="1" fill="#3A3A3A"/>
<rect x="6" y="9" width="3" height="1" fill="#3A3A3A"/>
<rect x="1" y="1" width="1" height="14" fill="#919191"/>
<g clip-path="url(#clip1_1947_11681)">
<path d="M1 9H4V10H1V9Z" fill="#3A3A3A"/>
<path d="M2 10H3V15H2V10Z" fill="#3A3A3A"/>
<path d="M1 8.5H0.5V9V10V10.5H1H1.5V15V15.5H2H3H3.5V15V10.5H4H4.5V10V9V8.5H4H1Z" stroke="#FCFCFC" stroke-opacity="0.75"/>
</g>
</g>
<defs>
<linearGradient id="paint0_linear_1947_11681" x1="9" y1="1" x2="9" y2="15" gradientUnits="userSpaceOnUse">
<stop stop-color="#F4F7F6"/>
<stop offset="1" stop-color="#D8D8D8"/>
</linearGradient>
<clipPath id="clip0_1947_11681">
<rect width="16" height="16" fill="white"/>
</clipPath>
<clipPath id="clip1_1947_11681">
<rect width="5" height="8" fill="white" transform="translate(0 8)"/>
</clipPath>
</defs>
</svg>
