<svg width="16" height="16" viewBox="0 0 16 16" fill="none" xmlns="http://www.w3.org/2000/svg">
<g clip-path="url(#clip0_1949_11479)">
<rect width="16" height="16" fill="#FCFCFC" fill-opacity="0.75"/>
<rect x="3.5" y="1.5" width="11" height="13" fill="url(#paint0_linear_1949_11479)" stroke="#919191"/>
<rect x="6.5" y="4.5" width="5" height="3" fill="#FCFCFC" stroke="#3A3A3A"/>
<rect x="9" y="9" width="3" height="1" fill="#3A3A3A"/>
<rect x="6" y="9" width="3" height="1" fill="#3A3A3A"/>
<rect x="1" y="1" width="1" height="14" fill="#919191"/>
<g clip-path="url(#clip1_1949_11479)">
<path d="M7 16L7 9L5 9L5 7L5.60272e-07 7L4.76837e-07 16L7 16Z" fill="#FCFCFC" fill-opacity="0.75"/>
<path d="M3.5 10L3.5 8.5L1.5 8.5L1.5 14.5L5.5 14.5L5.5 10.5L4 10.5L3.5 10.5L3.5 10Z" fill="url(#paint1_linear_1949_11479)" stroke="#00A1DB"/>
</g>
</g>
<defs>
<linearGradient id="paint0_linear_1949_11479" x1="9" y1="1" x2="9" y2="15" gradientUnits="userSpaceOnUse">
<stop stop-color="#F4F7F6"/>
<stop offset="1" stop-color="#D8D8D8"/>
</linearGradient>
<linearGradient id="paint1_linear_1949_11479" x1="5.30556" y1="9.36111" x2="0.706499" y2="11.9161" gradientUnits="userSpaceOnUse">
<stop stop-color="#94E1FC"/>
<stop offset="1" stop-color="#FCFCFC"/>
</linearGradient>
<clipPath id="clip0_1949_11479">
<rect width="16" height="16" fill="white"/>
</clipPath>
<clipPath id="clip1_1949_11479">
<rect width="7" height="9" fill="white" transform="translate(0 7)"/>
</clipPath>
</defs>
</svg>
