<svg width="16" height="16" viewBox="0 0 16 16" fill="none" xmlns="http://www.w3.org/2000/svg">
<g clip-path="url(#clip0_1951_11259)">
<rect y="1" width="16" height="14" fill="#FCFCFC" fill-opacity="0.75"/>
<rect x="1.5" y="2.5" width="13" height="11" fill="#FCFCFC" stroke="#919191"/>
</g>
<g clip-path="url(#clip1_1951_11259)">
<path d="M2 10C2 8.89543 2.89543 8 4 8H7C8.10457 8 9 8.89543 9 10V13H2V10Z" fill="#FCFCFC" fill-opacity="0.75"/>
<path d="M8 11C8 9.89543 7.10457 9 6 9H5C3.89543 9 3 9.89543 3 11V12H4V11H5V12H6.00006L6 11H7V12H8V11Z" fill="#00A1DB"/>
<circle cx="5.5" cy="6.5" r="2.5" fill="#FCFCFC" fill-opacity="0.75"/>
<circle cx="5.5" cy="6.5" r="1.5" fill="#00A1DB"/>
</g>
<rect x="9" y="5" width="4" height="1" fill="#3A3A3A"/>
<rect x="9" y="7" width="4" height="1" fill="#3A3A3A"/>
<defs>
<clipPath id="clip0_1951_11259">
<rect width="16" height="14" fill="white" transform="translate(0 1)"/>
</clipPath>
<clipPath id="clip1_1951_11259">
<rect width="7" height="9" fill="white" transform="translate(2 4)"/>
</clipPath>
</defs>
</svg>
