<svg width="16" height="16" viewBox="0 0 16 16" fill="none" xmlns="http://www.w3.org/2000/svg">
<path d="M5 14H11V15H10V16H6V15H5V14Z" fill="#FCFCFC" fill-opacity="0.75"/>
<g clip-path="url(#clip0_1951_11299)">
<path d="M1 13V14H15V13H16V2H15V1H1V2H0V13H1Z" fill="#FCFCFC" fill-opacity="0.75"/>
<path d="M2 11.5H2.5V12V12.5H13.5V12V11.5H14H14.5V3.5H14H13.5V3V2.5H2.5V3V3.5H2H1.5V11.5H2Z" fill="url(#paint0_linear_1951_11299)" stroke="#919191"/>
</g>
<g clip-path="url(#clip1_1951_11299)">
<rect x="6" y="13" width="1" height="1" fill="#919191"/>
<path d="M6 12H10V13H9V14H7V13H6V12Z" fill="#FCFCFC"/>
<rect x="9" y="13" width="1" height="1" fill="#919191"/>
<rect x="7" y="14" width="2" height="1" fill="#919191"/>
</g>
<rect x="4" y="9" width="4" height="1" fill="#3A3A3A"/>
<rect x="4" y="7" width="4" height="1" fill="#3A3A3A"/>
<rect x="8" y="9" width="4" height="1" fill="#3A3A3A"/>
<rect x="8" y="7" width="4" height="1" fill="#3A3A3A"/>
<rect x="4" y="5" width="4" height="1" fill="#3A3A3A"/>
<defs>
<linearGradient id="paint0_linear_1951_11299" x1="8" y1="13" x2="8" y2="2" gradientUnits="userSpaceOnUse">
<stop stop-color="#FCFCFC"/>
<stop offset="1" stop-color="#E6EAEA"/>
</linearGradient>
<clipPath id="clip0_1951_11299">
<rect width="16" height="13" fill="white" transform="translate(0 1)"/>
</clipPath>
<clipPath id="clip1_1951_11299">
<rect width="4" height="3" fill="white" transform="translate(6 12)"/>
</clipPath>
</defs>
</svg>
