<svg width="16" height="16" viewBox="0 0 16 16" fill="none" xmlns="http://www.w3.org/2000/svg">
<g clip-path="url(#clip0_1952_11108)">
<g clip-path="url(#clip1_1952_11108)">
<path d="M0 2H4V0H12V2H16V16H0V2Z" fill="#FCFCFC" fill-opacity="0.75"/>
<rect x="1" y="3" width="14" height="12" fill="#3A3A3A"/>
<path d="M1 8H3V10H6V8H10V10H13V8H15V15H1V8Z" fill="#D8D8D8"/>
<path d="M1 3H15V7H1V3Z" fill="url(#paint0_linear_1952_11108)"/>
<rect x="5" y="1" width="6" height="1" fill="#3A3A3A"/>
<rect x="5" y="1" width="1" height="2" fill="#3A3A3A"/>
<rect x="10" y="1" width="1" height="2" fill="#3A3A3A"/>
<rect x="1.5" y="3.5" width="13" height="11" stroke="#919191"/>
<rect x="2" y="8" width="1" height="1" fill="#FCFCFC"/>
<rect x="13" y="8" width="1" height="1" fill="#FCFCFC"/>
<rect x="6" y="8" width="4" height="1" fill="#FCFCFC"/>
<rect x="3" y="10" width="3" height="1" fill="#FCFCFC"/>
<rect x="10" y="10" width="3" height="1" fill="#FCFCFC"/>
</g>
</g>
<defs>
<linearGradient id="paint0_linear_1952_11108" x1="8" y1="3" x2="8" y2="7" gradientUnits="userSpaceOnUse">
<stop stop-color="#919191"/>
<stop offset="1" stop-color="#D8D8D8"/>
</linearGradient>
<clipPath id="clip0_1952_11108">
<rect width="16" height="16" fill="white"/>
</clipPath>
<clipPath id="clip1_1952_11108">
<rect width="16" height="16" fill="white"/>
</clipPath>
</defs>
</svg>
