<svg width="16" height="16" viewBox="0 0 16 16" fill="none" xmlns="http://www.w3.org/2000/svg">
<g clip-path="url(#clip0_1954_11118)">
<path d="M8 5H0V0H16V15H10V10H8V5Z" fill="#FCFCFC" fill-opacity="0.75"/>
<rect x="1" y="1" width="14" height="3" fill="#D8D8D8"/>
<rect x="1" y="1" width="14" height="2" fill="#919191"/>
<rect x="9" y="6" width="6" height="3" fill="#D8D8D8"/>
<rect x="9" y="6" width="6" height="2" fill="#919191"/>
<rect x="11" y="11" width="4" height="3" fill="#D8D8D8"/>
<rect x="11" y="11" width="4" height="2" fill="#919191"/>
<g clip-path="url(#clip1_1954_11118)">
<path d="M0 13.5455L3.5 16H4.5L8 13.5455V9.45455L4.5 7H3.5L0 9.45455V13.5455Z" fill="#FCFCFC" fill-opacity="0.75"/>
<path d="M4 14.4073L1.5 12.8164V10.1836L4 8.59265L6.5 10.1836V12.8164L4 14.4073Z" stroke="#3A3A3A"/>
</g>
</g>
<defs>
<clipPath id="clip0_1954_11118">
<rect width="16" height="16" fill="white"/>
</clipPath>
<clipPath id="clip1_1954_11118">
<rect width="8" height="9" fill="white" transform="translate(0 7)"/>
</clipPath>
</defs>
</svg>
