<svg width="16" height="16" viewBox="0 0 16 16" fill="none" xmlns="http://www.w3.org/2000/svg">
<g clip-path="url(#clip0_1933_13146)">
<rect y="2" width="16" height="12" fill="#FCFCFC" fill-opacity="0.75"/>
<rect x="1.5" y="3.5" width="13" height="9" fill="url(#paint0_linear_1933_13146)" stroke="#919191"/>
<rect x="7" y="9" width="2" height="1" fill="#919191"/>
<rect x="12" y="10" width="1" height="1" fill="#919191"/>
<rect x="11" y="9" width="1" height="1" fill="#919191"/>
<rect x="10" y="8" width="1" height="1" fill="#919191"/>
<rect x="13" y="11" width="1" height="1" fill="#919191"/>
<rect x="14" y="11" width="1" height="1" fill="#919191"/>
<rect x="11" y="6" width="1" height="1" fill="#919191"/>
<rect x="10" y="7" width="1" height="1" fill="#919191"/>
<rect x="9" y="8" width="1" height="1" fill="#919191"/>
<rect x="12" y="5" width="1" height="1" fill="#919191"/>
<rect x="13" y="4" width="1" height="1" fill="#919191"/>
<rect x="14" y="3" width="1" height="1" fill="#919191"/>
<rect x="4" y="6" width="1" height="1" fill="#919191"/>
<rect x="5" y="7" width="1" height="1" fill="#919191"/>
<rect x="6" y="8" width="1" height="1" fill="#919191"/>
<rect x="3" y="5" width="1" height="1" fill="#919191"/>
<rect x="2" y="4" width="1" height="1" fill="#919191"/>
<rect x="1" y="3" width="1" height="1" fill="#919191"/>
<rect x="1" y="11" width="1" height="1" fill="#919191"/>
<rect x="3" y="10" width="1" height="1" fill="#919191"/>
<rect x="4" y="9" width="1" height="1" fill="#919191"/>
<rect x="5" y="8" width="1" height="1" fill="#919191"/>
<rect x="2" y="11" width="1" height="1" fill="#919191"/>
<g clip-path="url(#clip1_1933_13146)">
<path d="M2 7H5V8H7V11H6V16H1V11H0V8H2V7Z" fill="#FCFCFC" fill-opacity="0.75"/>
<rect x="1" y="9" width="5" height="1" fill="#EA212D"/>
<rect x="2" y="14" width="3" height="1" fill="#EA212D"/>
<path d="M2 11H5V12V15H4V12H3V15H2V11Z" fill="#EA212D"/>
<rect x="3" y="8" width="1" height="1" fill="#EA212D"/>
</g>
</g>
<defs>
<linearGradient id="paint0_linear_1933_13146" x1="8" y1="3" x2="8" y2="13" gradientUnits="userSpaceOnUse">
<stop stop-color="#F4F7F6"/>
<stop offset="1" stop-color="#D8D8D8"/>
</linearGradient>
<clipPath id="clip0_1933_13146">
<rect width="16" height="16" fill="white"/>
</clipPath>
<clipPath id="clip1_1933_13146">
<rect width="7" height="9" fill="white" transform="translate(0 7)"/>
</clipPath>
</defs>
</svg>
