<svg width="16" height="16" viewBox="0 0 16 16" fill="none" xmlns="http://www.w3.org/2000/svg">
<g clip-path="url(#clip0_1959_10880)">
<rect y="2" width="16" height="12" fill="#FCFCFC" fill-opacity="0.75"/>
<rect x="1.5" y="3.5" width="13" height="9" fill="url(#paint0_linear_1959_10880)" stroke="#919191"/>
<rect x="7" y="9" width="2" height="1" fill="#919191"/>
<rect x="12" y="10" width="1" height="1" fill="#919191"/>
<rect x="11" y="9" width="1" height="1" fill="#919191"/>
<rect x="10" y="8" width="1" height="1" fill="#919191"/>
<rect x="13" y="11" width="1" height="1" fill="#919191"/>
<rect x="14" y="11" width="1" height="1" fill="#919191"/>
<rect x="11" y="6" width="1" height="1" fill="#919191"/>
<rect x="10" y="7" width="1" height="1" fill="#919191"/>
<rect x="9" y="8" width="1" height="1" fill="#919191"/>
<rect x="12" y="5" width="1" height="1" fill="#919191"/>
<rect x="13" y="4" width="1" height="1" fill="#919191"/>
<rect x="14" y="3" width="1" height="1" fill="#919191"/>
<rect x="4" y="6" width="1" height="1" fill="#919191"/>
<rect x="5" y="7" width="1" height="1" fill="#919191"/>
<rect x="6" y="8" width="1" height="1" fill="#919191"/>
<rect x="3" y="5" width="1" height="1" fill="#919191"/>
<rect x="2" y="4" width="1" height="1" fill="#919191"/>
<rect x="1" y="3" width="1" height="1" fill="#919191"/>
<rect x="1" y="11" width="1" height="1" fill="#919191"/>
<rect x="3" y="10" width="1" height="1" fill="#919191"/>
<rect x="4" y="9" width="1" height="1" fill="#919191"/>
<rect x="5" y="8" width="1" height="1" fill="#919191"/>
<rect x="2" y="11" width="1" height="1" fill="#919191"/>
<g clip-path="url(#clip1_1959_10880)">
<path d="M8 11V10H7V9H4V11H0V14H4V16H7V15H8V14H9V11H8Z" fill="#FCFCFC" fill-opacity="0.75"/>
<path d="M6 13L6 12L1 12L1 13L6 13Z" fill="#00A1DB"/>
<rect width="1" height="1" transform="matrix(4.37114e-08 1 1 -4.37114e-08 7 12)" fill="#00A1DB"/>
<rect width="3" height="1" transform="matrix(4.37114e-08 1 1 -4.37114e-08 6 11)" fill="#00A1DB"/>
<rect width="5" height="1" transform="matrix(4.37114e-08 1 1 -4.37114e-08 5 10)" fill="#00A1DB"/>
</g>
<rect x="3" y="10" width="1" height="1" fill="#FCFCFC" fill-opacity="0.75"/>
</g>
<defs>
<linearGradient id="paint0_linear_1959_10880" x1="8" y1="3" x2="8" y2="13" gradientUnits="userSpaceOnUse">
<stop stop-color="#F4F7F6"/>
<stop offset="1" stop-color="#D8D8D8"/>
</linearGradient>
<clipPath id="clip0_1959_10880">
<rect width="16" height="16" fill="white"/>
</clipPath>
<clipPath id="clip1_1959_10880">
<rect width="9" height="7" fill="white" transform="matrix(-1 0 0 1 9 9)"/>
</clipPath>
</defs>
</svg>
