<svg width="16" height="16" viewBox="0 0 16 16" fill="none" xmlns="http://www.w3.org/2000/svg">
<g clip-path="url(#clip0_1965_10766)">
<g clip-path="url(#clip1_1965_10766)">
<path fill-rule="evenodd" clip-rule="evenodd" d="M11 3C11 1.89543 11.8954 1 13 1C14.1046 1 15 1.89543 15 3V12.4771C15 13.869 13.8633 14.9928 12.4716 14.977C11.102 14.9614 10 13.8468 10 12.4771V7.5C10 7.22386 10.2239 7 10.5 7C10.7761 7 11 7.22386 11 7.5V3ZM12.483 13.977C13.318 13.9865 14 13.3122 14 12.4771V10.6364C14 11.4648 13.3284 12.1364 12.5 12.1364C11.6716 12.1364 11 11.4648 11 10.6364V12.4771C11 13.2989 11.6612 13.9677 12.483 13.977ZM12.5 11.1364C12.7761 11.1364 13 10.9125 13 10.6364V6.09091C13 5.81477 13.2239 5.59091 13.5 5.59091C13.7761 5.59091 14 5.81477 14 6.09091V3C14 2.44772 13.5523 2 13 2C12.4477 2 12 2.44772 12 3V10.6364C12 10.9125 12.2239 11.1364 12.5 11.1364Z" fill="#3A3A3A"/>
<path d="M13 0.5C11.6193 0.5 10.5 1.61929 10.5 3V6.5C9.94772 6.5 9.5 6.94771 9.5 7.5V12.4771C9.5 14.1207 10.8225 15.4583 12.4659 15.4769C14.136 15.4959 15.5 14.1473 15.5 12.4771V3C15.5 1.61929 14.3807 0.5 13 0.5ZM11.5 12.4771V12.3688C11.7942 12.539 12.1357 12.6364 12.5 12.6364C12.8643 12.6364 13.2058 12.539 13.5 12.3688V12.4771C13.5 13.0339 13.0453 13.4834 12.4886 13.4771C11.9408 13.4709 11.5 13.025 11.5 12.4771ZM13.5 3V5.09091C12.9477 5.09091 12.5 5.53862 12.5 6.09091V3C12.5 2.72386 12.7239 2.5 13 2.5C13.2761 2.5 13.5 2.72386 13.5 3Z" stroke="#FCFCFC" stroke-opacity="0.75" stroke-linecap="round"/>
</g>
<g clip-path="url(#clip2_1965_10766)">
<path d="M0 9H4V10H5V9H6V8H9V11H8V13H7V15H6V16H3V15H2V14H1V13H0V9Z" fill="#FCFCFC" fill-opacity="0.75"/>
<path d="M4 11V12H5V11H6V10H7V9H8V10H7V11V12H6V14H5V15H4V14H3V13H2V12H1V11V10H2H3V11H4Z" fill="#00A1DB"/>
</g>
</g>
<defs>
<clipPath id="clip0_1965_10766">
<rect width="16" height="16" fill="white"/>
</clipPath>
<clipPath id="clip1_1965_10766">
<rect width="7" height="16" fill="white" transform="translate(9)"/>
</clipPath>
<clipPath id="clip2_1965_10766">
<rect width="9" height="8" fill="white" transform="translate(0 8)"/>
</clipPath>
</defs>
</svg>
