<svg width="16" height="16" viewBox="0 0 16 16" fill="none" xmlns="http://www.w3.org/2000/svg">
<g clip-path="url(#clip0_1964_10833)">
<g clip-path="url(#clip1_1964_10833)">
<path fill-rule="evenodd" clip-rule="evenodd" d="M1 1H15V4H14V2H5L10 8L5 14H14V12H15V15H1V14L6 8L1 2V1Z" fill="#3A3A3A"/>
<path d="M1 0.5H0.5V1V2V2.18102L0.615889 2.32009L5.34915 8L0.615889 13.6799L0.5 13.819V14V15V15.5H1H15H15.5V15V12V11.5H15H14H13.5V12V13.5H6.06752L10.3841 8.32009L10.6509 8L10.3841 7.67991L6.06752 2.5H13.5V4V4.5H14H15H15.5V4V1V0.5H15H1Z" stroke="#FCFCFC" stroke-opacity="0.75"/>
</g>
<g clip-path="url(#clip2_1964_10833)">
<path d="M7 11V10H3V11H0V16H5V14H8V11H7Z" fill="#FCFCFC" fill-opacity="0.75"/>
<rect width="2" height="1" transform="matrix(-1 0 0 1 4 14)" fill="#EA212D"/>
<rect width="1" height="3" transform="matrix(-1 0 0 1 2 12)" fill="#EA212D"/>
<rect width="2" height="1" transform="matrix(-1 0 0 1 6 11)" fill="#EA212D"/>
<rect width="1" height="1" transform="matrix(-1 0 0 1 4 12)" fill="#EA212D"/>
<rect width="1" height="1" transform="matrix(-1 0 0 1 3 13)" fill="#EA212D"/>
<rect width="1" height="1" transform="matrix(-1 0 0 1 7 12)" fill="#EA212D"/>
</g>
</g>
<defs>
<clipPath id="clip0_1964_10833">
<rect width="16" height="16" fill="white"/>
</clipPath>
<clipPath id="clip1_1964_10833">
<rect width="16" height="16" fill="white"/>
</clipPath>
<clipPath id="clip2_1964_10833">
<rect width="8" height="6" fill="white" transform="matrix(-1 0 0 1 8 10)"/>
</clipPath>
</defs>
</svg>
