<svg width="16" height="16" viewBox="0 0 16 16" fill="none" xmlns="http://www.w3.org/2000/svg">
<g clip-path="url(#clip0_689_20663)">
<path d="M10.5 5.81644L8 7.40735L5.5 5.81644V3.18356L8 1.59265L10.5 3.18356V5.81644Z" stroke="#0C121C"/>
<path d="M10.5 5.81644L8 7.40735L5.5 5.81644V3.18356L8 1.59265L10.5 3.18356V5.81644Z" fill="#0C121C" stroke="#0C121C"/>
<path d="M5.5 12.8164L3 14.4073L0.5 12.8164V10.1836L3 8.59265L5.5 10.1836V12.8164Z" stroke="#0C121C"/>
<path d="M15.5 12.8164L13 14.4073L10.5 12.8164V10.1836L13 8.59265L15.5 10.1836V12.8164Z" stroke="#0C121C"/>
<path d="M15.5 12.8164L13 14.4073L10.5 12.8164V10.1836L13 8.59265L15.5 10.1836V12.8164Z" fill="#0C121C" stroke="#0C121C"/>
</g>
<defs>
<clipPath id="clip0_689_20663">
<rect width="16" height="16" fill="white"/>
</clipPath>
</defs>
</svg>
