<svg width="16" height="16" viewBox="0 0 16 16" fill="none" xmlns="http://www.w3.org/2000/svg">
<g clip-path="url(#clip0_696_21480)">
<mask id="mask0_696_21480" style="mask-type:alpha" maskUnits="userSpaceOnUse" x="0" y="0" width="16" height="16">
<path fill-rule="evenodd" clip-rule="evenodd" d="M12 0H0V5H3V12H0V16H4V13H9V16H16V6H12V0Z" fill="#D9D9D9"/>
</mask>
<g mask="url(#mask0_696_21480)">
<rect x="1.5" y="1.5" width="13" height="13" stroke="#0C121C"/>
</g>
<path d="M15.8158 2.12049C14.8376 1.52224 11.5956 3.20303 9.35972 6.02336C7.0959 8.81519 6.70463 9.72678 6.70463 9.72678C6.70463 9.72678 3.96569 6.93498 2.20495 6.02336C0.779581 5.31115 -0.785519 7.47628 0.444208 8.81523C1.81368 10.3251 5.13953 14 6.81643 14C8.49333 14 9.41563 10.439 11.4279 7.61868C13.6638 4.39952 16.794 2.71874 15.8158 2.12049Z" fill="#0C121C"/>
</g>
<defs>
<clipPath id="clip0_696_21480">
<rect width="16" height="16" fill="white"/>
</clipPath>
</defs>
</svg>
