<svg width="24" height="24" viewBox="0 0 24 24" fill="none" xmlns="http://www.w3.org/2000/svg">
<path d="M17 0H3V24H21V4H20V3H19V2H18V1H17V0Z" fill="#FCFCFC" fill-opacity="0.75"/>
<path d="M4 1H15V3H17V4H18V6H20V23H4V1Z" fill="url(#paint0_linear_1805_34482)"/>
<path fill-rule="evenodd" clip-rule="evenodd" d="M16 1H4V2V23H5H20V5H19V4H18V3H17V2H16V1ZM18 5H16V3H17V4H18V5ZM5 2H15V6H19V22H5V2Z" fill="#3A3A3A"/>
<path d="M0 18V24H6V23H7V22H8V21H9V20H10V19H11V15H10V14H9V13H5V14H4V15H3V16H2V17H1V18H0Z" fill="#FCFCFC" fill-opacity="0.75"/>
<rect x="2" y="18" width="1" height="1" fill="#3A3A3A"/>
<rect x="3" y="19" width="1" height="1" fill="#919191"/>
<rect x="4" y="20" width="1" height="1" fill="#919191"/>
<rect x="6" y="20" width="1" height="1" fill="#3A3A3A"/>
<rect x="5" y="21" width="1" height="1" fill="#3A3A3A"/>
<rect x="1" y="22" width="4" height="1" fill="#00A1DB"/>
<rect x="1" y="20" width="1" height="1" fill="#00A1DB"/>
<rect x="1" y="21" width="2" height="1" fill="#00A1DB"/>
<rect x="1" y="19" width="1" height="1" fill="#00A1DB"/>
<rect x="3" y="17" width="1" height="1" fill="#3A3A3A"/>
<rect x="7" y="19" width="1" height="1" fill="#3A3A3A"/>
<rect x="4" y="16" width="1" height="1" fill="#3A3A3A"/>
<rect x="8" y="18" width="1" height="1" fill="#3A3A3A"/>
<rect x="5" y="15" width="1" height="1" fill="#3A3A3A"/>
<rect x="9" y="17" width="1" height="1" fill="#3A3A3A"/>
<rect x="6" y="14" width="1" height="1" fill="#3A3A3A"/>
<rect x="7" y="14" width="1" height="1" fill="#3A3A3A"/>
<rect x="9" y="16" width="1" height="1" fill="#3A3A3A"/>
<rect x="8" y="16" width="1" height="1" fill="#C3C7C6"/>
<rect x="7" y="17" width="1" height="1" fill="#00A1DB"/>
<rect x="5" y="16" width="2" height="1" fill="#00A1DB"/>
<rect x="6" y="18" width="2" height="1" fill="#00A1DB"/>
<rect x="5" y="19" width="2" height="1" fill="#00A1DB"/>
<rect x="4" y="17" width="2" height="1" fill="#00A1DB"/>
<rect x="5" y="20" width="1" height="1" fill="#00A1DB"/>
<rect x="3" y="18" width="2" height="1" fill="#00A1DB"/>
<rect x="6" y="17" width="1" height="1" fill="#919191"/>
<rect x="5" y="18" width="1" height="1" fill="#919191"/>
<rect x="4" y="19" width="1" height="1" fill="#919191"/>
<rect x="8" y="15" width="1" height="1" fill="#3A3A3A"/>
<rect x="7" y="15" width="1" height="1" fill="#C3C7C6"/>
<defs>
<linearGradient id="paint0_linear_1805_34482" x1="12" y1="1" x2="12" y2="23" gradientUnits="userSpaceOnUse">
<stop stop-color="#FCFCFC"/>
<stop offset="1" stop-color="#E6EAEA"/>
</linearGradient>
</defs>
</svg>
