<svg width="24" height="24" viewBox="0 0 24 24" fill="none" xmlns="http://www.w3.org/2000/svg">
<g clip-path="url(#clip0_1805_34774)">
<path d="M7 4.5V9.5L12 13H13L18 9.5V4.5L13 1H12L7 4.5Z" fill="#FCFCFC" fill-opacity="0.75"/>
<path d="M8 9L12.5 12L17 9V5L12.5 2L8 5V9Z" fill="url(#paint0_linear_1805_34774)"/>
<path d="M16.5 8.73241L12.5 11.3991L8.5 8.73241V5.26759L12.5 2.60093L16.5 5.26759V8.73241Z" stroke="#919191"/>
</g>
<g clip-path="url(#clip1_1805_34774)">
<path d="M13 14.5V19.5L18 23H19L24 19.5V14.5L19 11H18L13 14.5Z" fill="#FCFCFC" fill-opacity="0.75"/>
<path d="M14 19L18.5 22L23 19V15L18.5 12L14 15V19Z" fill="url(#paint1_linear_1805_34774)"/>
<path d="M22.5 18.7324L18.5 21.3991L14.5 18.7324V15.2676L18.5 12.6009L22.5 15.2676V18.7324Z" stroke="#919191"/>
</g>
<g clip-path="url(#clip2_1805_34774)">
<path d="M1 14.5V19.5L6 23H7L12 19.5V14.5L7 11H6L1 14.5Z" fill="#FCFCFC" fill-opacity="0.75"/>
<path d="M2 19L6.5 22L11 19V15L6.5 12L2 15V19Z" fill="#FCFCFC" fill-opacity="0.75"/>
<path d="M10.5 18.7324L6.5 21.3991L2.5 18.7324V15.2676L6.5 12.6009L10.5 15.2676V18.7324Z" stroke="#3A3A3A"/>
</g>
<defs>
<linearGradient id="paint0_linear_1805_34774" x1="15.25" y1="3.38889" x2="9.29502" y2="10.2796" gradientUnits="userSpaceOnUse">
<stop stop-color="#94E1FC"/>
<stop offset="1" stop-color="#FCFCFC"/>
</linearGradient>
<linearGradient id="paint1_linear_1805_34774" x1="21.25" y1="13.3889" x2="15.295" y2="20.2796" gradientUnits="userSpaceOnUse">
<stop stop-color="#94E1FC"/>
<stop offset="1" stop-color="#FCFCFC"/>
</linearGradient>
<clipPath id="clip0_1805_34774">
<rect width="11" height="12" fill="white" transform="translate(7 1)"/>
</clipPath>
<clipPath id="clip1_1805_34774">
<rect width="11" height="12" fill="white" transform="translate(13 11)"/>
</clipPath>
<clipPath id="clip2_1805_34774">
<rect width="11" height="12" fill="white" transform="translate(1 11)"/>
</clipPath>
</defs>
</svg>
