<svg width="24" height="24" viewBox="0 0 24 24" fill="none" xmlns="http://www.w3.org/2000/svg">
<g clip-path="url(#clip0_1805_34848)">
<path d="M1 1H8V2H9V3H10V10H1V1Z" fill="#FCFCFC" fill-opacity="0.75"/>
<rect x="3" y="5" width="5" height="3" fill="url(#paint0_linear_1805_34848)"/>
<path d="M2 2H3V9H2V2Z" fill="#3A3A3A"/>
<rect x="4" y="2" width="1" height="2" fill="#3A3A3A"/>
<rect x="2" y="8" width="7" height="1" fill="#3A3A3A"/>
<path d="M8 4H9V9H8V4Z" fill="#3A3A3A"/>
<path d="M2 4H6V2H7V3H8V4H9V5H5.5H2V4Z" fill="#3A3A3A"/>
</g>
<g clip-path="url(#clip1_1805_34848)">
<path d="M13 15V14H18V15H21V16H22V17H23V21H22V22H21V23H14V22H13V15Z" fill="#FCFCFC" fill-opacity="0.75"/>
<path d="M16 18H21V20H20V21H15V19H16V18Z" fill="url(#paint1_radial_1805_34848)"/>
<rect x="14" y="16" width="1" height="5" fill="#F2994A"/>
<rect x="14" y="15" width="3" height="1" fill="#F2994A"/>
<rect x="15" y="18" width="1" height="1" fill="#F2994A"/>
<rect x="21" y="18" width="1" height="2" fill="#F2994A"/>
<rect x="20" y="20" width="1" height="1" fill="#F2994A"/>
<rect x="15" y="21" width="5" height="1" fill="#F2994A"/>
<rect x="15" y="16" width="5" height="1" fill="#F2994A"/>
<rect x="15" y="17" width="6" height="1" fill="#F2994A"/>
</g>
<g clip-path="url(#clip2_1805_34848)">
<path d="M11 4H17V5H18V8H20V11H19V12H18V13H15V12H14V11H13V8H15V7H11V4Z" fill="#FCFCFC" fill-opacity="0.75"/>
<rect x="14" y="9" width="5" height="1" fill="#00A1DB"/>
<rect x="15" y="10" width="3" height="1" fill="#00A1DB"/>
<rect x="16" y="11" width="1" height="1" fill="#00A1DB"/>
<rect x="12" y="5" width="4" height="1" fill="#00A1DB"/>
<rect x="16" y="6" width="1" height="3" fill="#00A1DB"/>
</g>
<defs>
<linearGradient id="paint0_linear_1805_34848" x1="5.5" y1="5" x2="5.5" y2="8" gradientUnits="userSpaceOnUse">
<stop stop-color="#FCFCFC"/>
<stop offset="1" stop-color="#E6EAEA"/>
</linearGradient>
<radialGradient id="paint1_radial_1805_34848" cx="0" cy="0" r="1" gradientUnits="userSpaceOnUse" gradientTransform="translate(17.7391 21) rotate(-84.1325) scale(3.82775 5.78648)">
<stop stop-color="#F2994A"/>
<stop offset="0.588115" stop-color="#F2C94C"/>
<stop offset="1" stop-color="#FCFCFC"/>
</radialGradient>
<clipPath id="clip0_1805_34848">
<rect width="9" height="9" fill="white" transform="translate(1 1)"/>
</clipPath>
<clipPath id="clip1_1805_34848">
<rect width="10" height="9" fill="white" transform="translate(13 14)"/>
</clipPath>
<clipPath id="clip2_1805_34848">
<rect width="9" height="9" fill="white" transform="translate(11 4)"/>
</clipPath>
</defs>
</svg>
