<svg width="24" height="24" viewBox="0 0 24 24" fill="none" xmlns="http://www.w3.org/2000/svg">
<g clip-path="url(#clip0_1815_17509)">
<path d="M3 3H12V4H13V5H14V6H15V19H3V3Z" fill="#FCFCFC" fill-opacity="0.75"/>
<path d="M4 4H11V5H12V6H13V7H14V18H4V4Z" fill="url(#paint0_linear_1815_17509)"/>
<path fill-rule="evenodd" clip-rule="evenodd" d="M4 4H11V5H12V6H11V7H12V6H13V7H14V18H4V5V4ZM13 8H11H10V7V5H5V17H13V8Z" fill="#3A3A3A"/>
</g>
<g clip-path="url(#clip1_1815_17509)">
<path d="M9 5H18V6H19V7H20V8H21V21H9V5Z" fill="#FCFCFC" fill-opacity="0.75"/>
<path d="M10 6H17V7H18V8H19V9H20V20H10V6Z" fill="url(#paint1_linear_1815_17509)"/>
<path fill-rule="evenodd" clip-rule="evenodd" d="M10 6H17V7H18V8H17V9H18V8H19V9H20V20H10V7V6ZM19 10H17H16V9V7H11V19H19V10Z" fill="#3A3A3A"/>
</g>
<defs>
<linearGradient id="paint0_linear_1815_17509" x1="9" y1="4" x2="9" y2="18" gradientUnits="userSpaceOnUse">
<stop stop-color="#FCFCFC"/>
<stop offset="1" stop-color="#E6EAEA"/>
</linearGradient>
<linearGradient id="paint1_linear_1815_17509" x1="15" y1="6" x2="15" y2="20" gradientUnits="userSpaceOnUse">
<stop stop-color="#FCFCFC"/>
<stop offset="1" stop-color="#E6EAEA"/>
</linearGradient>
<clipPath id="clip0_1815_17509">
<rect width="12" height="16" fill="white" transform="translate(3 3)"/>
</clipPath>
<clipPath id="clip1_1815_17509">
<rect width="12" height="16" fill="white" transform="translate(9 5)"/>
</clipPath>
</defs>
</svg>
