<svg width="24" height="24" viewBox="0 0 24 24" fill="none" xmlns="http://www.w3.org/2000/svg">
<g clip-path="url(#clip0_1815_17584)">
<path d="M5 3V2H6V1H13V2H14V3H17V21H2V3H5Z" fill="#FCFCFC" fill-opacity="0.75"/>
<path d="M4 5H15V19H4V5Z" fill="url(#paint0_linear_1815_17584)"/>
<path d="M6 4.5H6.5V4V3.5H7H7.5V3V2.5H11.5V3V3.5H12H12.5V4V4.5H13H15.5V19.5H3.5V4.5H6Z" stroke="#3A3A3A"/>
<path d="M8 3H8.2V3H8.8V3H9V4H8V3Z" fill="#919191"/>
<path d="M10 3H10.2V3H10.8V3H11V4H10V3Z" fill="#919191"/>
<path d="M6 5H7V6H12V5H13V7H6V5Z" fill="#3A3A3A"/>
</g>
<g clip-path="url(#clip1_1815_17584)">
<path d="M10 7H19V8H20V9H21V10H22V23H10V7Z" fill="#FCFCFC" fill-opacity="0.75"/>
<path d="M11 8H18V9H19V10H20V11H21V22H11V8Z" fill="url(#paint1_linear_1815_17584)"/>
<path fill-rule="evenodd" clip-rule="evenodd" d="M11 8H18V9H19V10H18V11H19V10H20V11H21V22H11V9V8ZM20 12H18H17V11V9H12V21H20V12Z" fill="#3A3A3A"/>
</g>
<defs>
<linearGradient id="paint0_linear_1815_17584" x1="14.6071" y1="5" x2="3.38233" y2="18.4859" gradientUnits="userSpaceOnUse">
<stop stop-color="#94E1FC"/>
<stop offset="1" stop-color="#00A1DB"/>
</linearGradient>
<linearGradient id="paint1_linear_1815_17584" x1="16" y1="8" x2="16" y2="22" gradientUnits="userSpaceOnUse">
<stop stop-color="#FCFCFC"/>
<stop offset="1" stop-color="#E6EAEA"/>
</linearGradient>
<clipPath id="clip0_1815_17584">
<rect width="15" height="20" fill="white" transform="translate(2 1)"/>
</clipPath>
<clipPath id="clip1_1815_17584">
<rect width="12" height="16" fill="white" transform="translate(10 7)"/>
</clipPath>
</defs>
</svg>
