<svg width="24" height="24" viewBox="0 0 24 24" fill="none" xmlns="http://www.w3.org/2000/svg">
<g clip-path="url(#clip0_438_12861)">
<path d="M14 7.00339L18.002 3L18.002 11.0002L14 7.00339Z" fill="#0C121C"/>
<path d="M20 18.0034L24.002 14L24.002 22.0002L20 18.0034Z" fill="#0C121C"/>
<path d="M0 3C0 2.44772 0.447715 2 1 2V2V9.5C1 9.77614 1.22386 10 1.5 10H9.5C9.77614 10 10 9.77614 10 9.5V5.5C10 5.22386 9.77614 5 9.5 5H1V2H3C3.55228 2 4 2.44772 4 3V3H8C8.55228 3 9 3.44772 9 4V4H10C10.5523 4 11 4.44772 11 5V10C11 10.5523 10.5523 11 10 11H1C0.447715 11 0 10.5523 0 10V3Z" fill="#0C121C"/>
<path d="M6 14C6 13.4477 6.44772 13 7 13V13V20.5C7 20.7761 7.22386 21 7.5 21H15.5C15.7761 21 16 20.7761 16 20.5V16.5C16 16.2239 15.7761 16 15.5 16H7V13H9C9.55228 13 10 13.4477 10 14V14H14C14.5523 14 15 14.4477 15 15V15H16C16.5523 15 17 15.4477 17 16V21C17 21.5523 16.5523 22 16 22H7C6.44771 22 6 21.5523 6 21V14Z" fill="#0C121C"/>
</g>
<defs>
<clipPath id="clip0_438_12861">
<rect width="24" height="24" fill="white"/>
</clipPath>
</defs>
</svg>
