<svg width="24" height="24" viewBox="0 0 24 24" fill="none" xmlns="http://www.w3.org/2000/svg">
<g clip-path="url(#clip0_1817_17767)">
<path d="M21 4L21 11L18 11L18 10L17 10L17 9L16 9L16 6L17 6L17 5L18 5L18 4L21 4Z" fill="#FCFCFC" fill-opacity="0.75"/>
<rect x="20" y="5" width="5" height="1" transform="rotate(90 20 5)" fill="#00A1DB"/>
<rect x="19" y="6" width="3" height="1" transform="rotate(90 19 6)" fill="#00A1DB"/>
<rect x="18" y="7" width="1" height="1" transform="rotate(90 18 7)" fill="#00A1DB"/>
</g>
<g clip-path="url(#clip1_1817_17767)">
<path d="M3 3V2H8V3H11V4H12V5H13V9H12V10H11V11H4V10H3V3Z" fill="#FCFCFC" fill-opacity="0.75"/>
<path d="M6 6H11V8H10V9H5V7H6V6Z" fill="url(#paint0_radial_1817_17767)"/>
<rect x="4" y="4" width="1" height="5" fill="#F2994A"/>
<rect x="4" y="3" width="3" height="1" fill="#F2994A"/>
<rect x="5" y="6" width="1" height="1" fill="#F2994A"/>
<rect x="11" y="6" width="1" height="2" fill="#F2994A"/>
<rect x="10" y="8" width="1" height="1" fill="#F2994A"/>
<rect x="5" y="9" width="5" height="1" fill="#F2994A"/>
<rect x="5" y="4" width="5" height="1" fill="#F2994A"/>
<rect x="5" y="5" width="6" height="1" fill="#F2994A"/>
</g>
<g clip-path="url(#clip2_1817_17767)">
<path d="M21 15L21 22L18 22L18 21L17 21L17 20L16 20L16 17L17 17L17 16L18 16L18 15L21 15Z" fill="#FCFCFC" fill-opacity="0.75"/>
<rect x="20" y="16" width="5" height="1" transform="rotate(90 20 16)" fill="#00A1DB"/>
<rect x="19" y="17" width="3" height="1" transform="rotate(90 19 17)" fill="#00A1DB"/>
<rect x="18" y="18" width="1" height="1" transform="rotate(90 18 18)" fill="#00A1DB"/>
</g>
<g clip-path="url(#clip3_1817_17767)">
<path d="M3 14V13H8V14H11V15H12V16H13V20H12V21H11V22H4V21H3V14Z" fill="#FCFCFC" fill-opacity="0.75"/>
<path d="M6 17H11V19H10V20H5V18H6V17Z" fill="url(#paint1_radial_1817_17767)"/>
<rect x="4" y="15" width="1" height="5" fill="#F2994A"/>
<rect x="4" y="14" width="3" height="1" fill="#F2994A"/>
<rect x="5" y="17" width="1" height="1" fill="#F2994A"/>
<rect x="11" y="17" width="1" height="2" fill="#F2994A"/>
<rect x="10" y="19" width="1" height="1" fill="#F2994A"/>
<rect x="5" y="20" width="5" height="1" fill="#F2994A"/>
<rect x="5" y="15" width="5" height="1" fill="#F2994A"/>
<rect x="5" y="16" width="6" height="1" fill="#F2994A"/>
</g>
<defs>
<radialGradient id="paint0_radial_1817_17767" cx="0" cy="0" r="1" gradientUnits="userSpaceOnUse" gradientTransform="translate(7.73913 9) rotate(-84.1325) scale(3.82775 5.78648)">
<stop stop-color="#F2994A"/>
<stop offset="0.588115" stop-color="#F2C94C"/>
<stop offset="1" stop-color="#FCFCFC"/>
</radialGradient>
<radialGradient id="paint1_radial_1817_17767" cx="0" cy="0" r="1" gradientUnits="userSpaceOnUse" gradientTransform="translate(7.73913 20) rotate(-84.1325) scale(3.82775 5.78648)">
<stop stop-color="#F2994A"/>
<stop offset="0.588115" stop-color="#F2C94C"/>
<stop offset="1" stop-color="#FCFCFC"/>
</radialGradient>
<clipPath id="clip0_1817_17767">
<rect width="7" height="5" fill="white" transform="translate(21 4) rotate(90)"/>
</clipPath>
<clipPath id="clip1_1817_17767">
<rect width="10" height="9" fill="white" transform="translate(3 2)"/>
</clipPath>
<clipPath id="clip2_1817_17767">
<rect width="7" height="5" fill="white" transform="translate(21 15) rotate(90)"/>
</clipPath>
<clipPath id="clip3_1817_17767">
<rect width="10" height="9" fill="white" transform="translate(3 13)"/>
</clipPath>
</defs>
</svg>
