<svg width="24" height="24" viewBox="0 0 24 24" fill="none" xmlns="http://www.w3.org/2000/svg">
<path fill-rule="evenodd" clip-rule="evenodd" d="M0 4V19C0 19.2919 0.0416808 19.574 0.119415 19.8408L3 16L4.81063 8.75746C4.92193 8.3123 5.32191 8 5.78078 8H9H18H20.7192C21.3698 8 21.8472 8.61139 21.6894 9.24253L19.1894 19.2425C19.0781 19.6877 18.6781 20 18.2192 20H8L6 22H18.6135C20.0104 22 21.2225 21.0358 21.5366 19.6746L24 9C24 7.34315 22.6569 6 21 6C21 4.89543 20.1046 4 19 4H18H9C9 2.89543 8.10457 2 7 2H2C0.895431 2 0 2.89543 0 4Z" fill="#0C121C"/>
<g clip-path="url(#clip0_441_9142)">
<path d="M0 23.9999L2 20L4 22L0 23.9999Z" fill="#0C121C"/>
<path d="M7.30273 14.6973L8.00984 15.4044L3.70714 19.7071L3.00004 19L7.30273 14.6973Z" fill="#0C121C"/>
<path d="M8.59375 16.0078L9.30086 16.7149L4.99987 21.0159L4.29276 20.3088L8.59375 16.0078Z" fill="#0C121C"/>
<path d="M10.0039 16.0195L9.2968 16.7266L7.27748 14.7073L7.98454 14.0002L10.0039 16.0195Z" fill="#0C121C"/>
</g>
<defs>
<clipPath id="clip0_441_9142">
<rect width="10" height="10" fill="white" transform="translate(0 14)"/>
</clipPath>
</defs>
</svg>
