<svg width="24" height="24" viewBox="0 0 24 24" fill="none" xmlns="http://www.w3.org/2000/svg">
<g clip-path="url(#clip0_441_9185)">
<mask id="mask0_441_9185" style="mask-type:alpha" maskUnits="userSpaceOnUse" x="0" y="0" width="24" height="24">
<path fill-rule="evenodd" clip-rule="evenodd" d="M24 0H0V17H11V24H24V0Z" fill="#D9D9D9"/>
</mask>
<g mask="url(#mask0_441_9185)">
<path d="M22.8787 9.48507C23.1943 8.22278 22.2396 7 20.9384 7H5.61683C4.67376 7 3.85883 7.6588 3.66123 8.58094L1.51837 18.5809C1.25158 19.826 2.20069 21 3.47397 21H18.4384C19.3562 21 20.1561 20.3754 20.3787 19.4851L22.8787 9.48507Z" stroke="#0C121C" stroke-width="2"/>
<path d="M8 21H3C1.89543 21 1 20.1046 1 19V4C1 3.44772 1.44772 3 2 3H7C7.55228 3 8 3.44772 8 4V5H18C19.1046 5 20 5.89543 20 7V7H7" stroke="#0C121C" stroke-width="2" stroke-linecap="round"/>
<path d="M7 4H1V8V12H3V8H7V4Z" fill="#0C121C"/>
</g>
<rect x="10" y="18" width="2" height="10" transform="rotate(90 10 18)" fill="#0C121C"/>
</g>
<defs>
<clipPath id="clip0_441_9185">
<rect width="24" height="24" fill="white"/>
</clipPath>
</defs>
</svg>
