<svg width="24" height="24" viewBox="0 0 24 24" fill="none" xmlns="http://www.w3.org/2000/svg">
<path d="M17 0H3V24H21V4H20V3H19V2H18V1H17V0Z" fill="#FCFCFC" fill-opacity="0.75"/>
<path d="M4 1H15V3H17V4H18V6H20V23H4V1Z" fill="url(#paint0_linear_1835_17604)"/>
<path fill-rule="evenodd" clip-rule="evenodd" d="M16 1H4V2V23H5H20V5H19V4H18V3H17V2H16V1ZM18 5H16V3H17V4H18V5ZM5 2H15V6H19V22H5V2Z" fill="#3A3A3A"/>
<g clip-path="url(#clip0_1835_17604)">
<path d="M2 16V12H8V13H9V14H10V16H12V23H10V24H2V23H0V16H2Z" fill="#FCFCFC" fill-opacity="0.75"/>
<path d="M8 15.5H8.5V18.5H3.5V13.5H6.5V14V14.5H7H7.5V15V15.5H8Z" fill="#FCFCFC" stroke="#919191"/>
<rect x="9" y="22" width="1" height="6" transform="rotate(90 9 22)" fill="#3A3A3A"/>
<path d="M9 18L9 22L1 22L1 18L9 18Z" fill="#3A3A3A"/>
<path d="M11 18L11 22L9 22L9 20L10 20L10 19L9 19L9 18L11 18Z" fill="#3A3A3A"/>
<rect x="11" y="17" width="1" height="10" transform="rotate(90 11 17)" fill="#919191"/>
<rect x="10" y="21" width="1" height="8" transform="rotate(90 10 21)" fill="#919191"/>
</g>
<defs>
<linearGradient id="paint0_linear_1835_17604" x1="12" y1="1" x2="12" y2="23" gradientUnits="userSpaceOnUse">
<stop stop-color="#FCFCFC"/>
<stop offset="1" stop-color="#E6EAEA"/>
</linearGradient>
<clipPath id="clip0_1835_17604">
<rect width="12" height="12" fill="white" transform="translate(0 12)"/>
</clipPath>
</defs>
</svg>
