<svg width="24" height="24" viewBox="0 0 24 24" fill="none" xmlns="http://www.w3.org/2000/svg">
<g clip-path="url(#clip0_1835_17717)">
<g clip-path="url(#clip1_1835_17717)">
<circle cx="10.5" cy="10.5" r="10.5" fill="#FCFCFC" fill-opacity="0.75"/>
<rect x="16.4141" y="15" width="9" height="2" transform="rotate(45 16.4141 15)" fill="#3A3A3A"/>
<rect x="16.4141" y="14.2929" width="10" height="3" transform="rotate(45 16.4141 14.2929)" stroke="#FCFCFC" stroke-opacity="0.75"/>
<circle cx="10.5" cy="10.5" r="9" fill="url(#paint0_linear_1835_17717)" stroke="#00A1DB"/>
</g>
<g clip-path="url(#clip2_1835_17717)">
<path d="M8 7V6H11V9H16V12H11V15H8V14H7V13H6V12H5V9H6V8H7V7H8Z" fill="#FCFCFC" fill-opacity="0.75"/>
<rect x="9" y="10" width="6" height="1" fill="#3A3A3A"/>
<rect x="10" y="7" width="7" height="1" transform="rotate(90 10 7)" fill="#3A3A3A"/>
<rect x="9" y="8" width="5" height="1" transform="rotate(90 9 8)" fill="#3A3A3A"/>
<rect x="8" y="9" width="3" height="1" transform="rotate(90 8 9)" fill="#3A3A3A"/>
<rect x="7" y="10" width="1" height="1" transform="rotate(90 7 10)" fill="#3A3A3A"/>
</g>
</g>
<defs>
<linearGradient id="paint0_linear_1835_17717" x1="16.3056" y1="3.63889" x2="5.22222" y2="17.8889" gradientUnits="userSpaceOnUse">
<stop stop-color="#94E1FC"/>
<stop offset="1" stop-color="#FCFCFC"/>
</linearGradient>
<clipPath id="clip0_1835_17717">
<rect width="24" height="24" fill="white"/>
</clipPath>
<clipPath id="clip1_1835_17717">
<rect width="24" height="24" fill="white"/>
</clipPath>
<clipPath id="clip2_1835_17717">
<rect width="11" height="9" fill="white" transform="translate(5 6)"/>
</clipPath>
</defs>
</svg>
