<svg width="24" height="24" viewBox="0 0 24 24" fill="none" xmlns="http://www.w3.org/2000/svg">
<g clip-path="url(#clip0_441_9673)">
<path d="M10.3891 10.3891C8.2412 12.537 4.7588 12.537 2.61091 10.3891C0.463029 8.2412 0.463029 4.7588 2.61091 2.61091C4.7588 0.463029 8.2412 0.463029 10.3891 2.61091C12.537 4.7588 12.537 8.2412 10.3891 10.3891Z" stroke="#0C121C" stroke-width="2"/>
<path d="M10 11.4737L11.4737 10L15.158 13.6842L13.6843 15.1579L10 11.4737Z" fill="#0C121C"/>
<path d="M12 15L15 12L24 21.0527L21.0526 24L12 15Z" fill="#0C121C"/>
<path d="M3 21L3 19L12 19L12 21L3 21Z" fill="#0C121C"/>
<path d="M-0.00195312 20.0034L4 16V24.0002L-0.00195312 20.0034Z" fill="#0C121C"/>
</g>
<defs>
<clipPath id="clip0_441_9673">
<rect width="24" height="24" fill="white"/>
</clipPath>
</defs>
</svg>
