<svg width="24" height="24" viewBox="0 0 24 24" fill="none" xmlns="http://www.w3.org/2000/svg">
<path d="M6 7H17V17H16V8H6V7Z" fill="#F2994A"/>
<path d="M6 6.5H5.5V7V8V8.5H6H15.5V17V17.5H16H17H17.5V17V7V6.5H17H6Z" stroke="#FCFCFC" stroke-opacity="0.75"/>
<g clip-path="url(#clip0_1838_17020)">
<path d="M13 14V13H18V14H21V15H22V16H23V20H22V21H21V22H14V21H13V14Z" fill="#FCFCFC" fill-opacity="0.75"/>
<path d="M16 17H21V19H20V20H15V18H16V17Z" fill="url(#paint0_radial_1838_17020)"/>
<rect x="14" y="15" width="1" height="5" fill="#F2994A"/>
<rect x="14" y="14" width="3" height="1" fill="#F2994A"/>
<rect x="15" y="17" width="1" height="1" fill="#F2994A"/>
<rect x="21" y="17" width="1" height="2" fill="#F2994A"/>
<rect x="20" y="19" width="1" height="1" fill="#F2994A"/>
<rect x="15" y="20" width="5" height="1" fill="#F2994A"/>
<rect x="15" y="15" width="5" height="1" fill="#F2994A"/>
<rect x="15" y="16" width="6" height="1" fill="#F2994A"/>
</g>
<g clip-path="url(#clip1_1838_17020)">
<path d="M1 3V2H6V3H9V4H10V5H11V9H10V10H9V11H2V10H1V3Z" fill="#FCFCFC" fill-opacity="0.75"/>
<path d="M4 6H9V8H8V9H3V7H4V6Z" fill="url(#paint1_radial_1838_17020)"/>
<rect x="2" y="4" width="1" height="5" fill="#F2994A"/>
<rect x="2" y="3" width="3" height="1" fill="#F2994A"/>
<rect x="3" y="6" width="1" height="1" fill="#F2994A"/>
<rect x="9" y="6" width="1" height="2" fill="#F2994A"/>
<rect x="8" y="8" width="1" height="1" fill="#F2994A"/>
<rect x="3" y="9" width="5" height="1" fill="#F2994A"/>
<rect x="3" y="4" width="5" height="1" fill="#F2994A"/>
<rect x="3" y="5" width="6" height="1" fill="#F2994A"/>
</g>
<path d="M4 17H0V20H4V24H7V20H11V17H7V13H4V17Z" fill="#FCFCFC" fill-opacity="0.75"/>
<rect x="5" y="14" width="1" height="9" fill="#00A1DB"/>
<rect x="10" y="18" width="1" height="9" transform="rotate(90 10 18)" fill="#00A1DB"/>
<defs>
<radialGradient id="paint0_radial_1838_17020" cx="0" cy="0" r="1" gradientUnits="userSpaceOnUse" gradientTransform="translate(17.7391 20) rotate(-84.1325) scale(3.82775 5.78648)">
<stop stop-color="#F2994A"/>
<stop offset="0.588115" stop-color="#F2C94C"/>
<stop offset="1" stop-color="#FCFCFC"/>
</radialGradient>
<radialGradient id="paint1_radial_1838_17020" cx="0" cy="0" r="1" gradientUnits="userSpaceOnUse" gradientTransform="translate(5.73913 9) rotate(-84.1325) scale(3.82775 5.78648)">
<stop stop-color="#F2994A"/>
<stop offset="0.588115" stop-color="#F2C94C"/>
<stop offset="1" stop-color="#FCFCFC"/>
</radialGradient>
<clipPath id="clip0_1838_17020">
<rect width="10" height="9" fill="white" transform="translate(13 13)"/>
</clipPath>
<clipPath id="clip1_1838_17020">
<rect width="10" height="9" fill="white" transform="translate(1 2)"/>
</clipPath>
</defs>
</svg>
