<svg width="24" height="24" viewBox="0 0 24 24" fill="none" xmlns="http://www.w3.org/2000/svg">
<g clip-path="url(#clip0_1842_16994)">
<path d="M2 1H23V5.5L15 12.5V19.5L13 23H10V12.5L2 5.5V1Z" fill="#FCFCFC" fill-opacity="0.75"/>
<path d="M11.7324 21.5H11.5V12V11.7731L11.3293 11.6237L3.5 4.77312V2.5H21.5V4.77312L13.6707 11.6237L13.5 11.7731V12V18.8486L11.7324 21.5Z" fill="url(#paint0_linear_1842_16994)" stroke="#919191"/>
<path d="M1 16V14H2V13H7V20H6V21H5V22H4V23H3V24H0V16H1Z" fill="#FCFCFC" fill-opacity="0.75"/>
<rect x="1" y="18" width="5" height="1" fill="#00A1DB"/>
<rect x="1" y="21" width="2" height="1" fill="#00A1DB"/>
<rect x="1" y="22" width="1" height="1" fill="#00A1DB"/>
<rect x="2" y="20" width="2" height="1" fill="#00A1DB"/>
<rect x="3" y="19" width="2" height="1" fill="#00A1DB"/>
<rect x="1" y="17" width="3" height="1" fill="#00A1DB"/>
<rect x="2" y="16" width="3" height="1" fill="#00A1DB"/>
<rect x="2" y="15" width="4" height="1" fill="#00A1DB"/>
<rect x="3" y="14" width="3" height="1" fill="#00A1DB"/>
</g>
<defs>
<linearGradient id="paint0_linear_1842_16994" x1="22" y1="12.9091" x2="3" y2="12.9091" gradientUnits="userSpaceOnUse">
<stop stop-color="#F4F7F6"/>
<stop offset="1" stop-color="#D8D8D8"/>
</linearGradient>
<clipPath id="clip0_1842_16994">
<rect width="24" height="24" fill="white"/>
</clipPath>
</defs>
</svg>
