<svg width="24" height="24" viewBox="0 0 24 24" fill="none" xmlns="http://www.w3.org/2000/svg">
<g clip-path="url(#clip0_1842_17204)">
<rect y="1" width="24" height="22" fill="#FCFCFC" fill-opacity="0.75"/>
<rect x="1.5" y="4.5" width="21" height="17" fill="#FCFCFC" stroke="#919191"/>
<rect x="1.5" y="2.5" width="21" height="3" fill="#94E1FC" stroke="#3A3A3A"/>
<rect x="2" y="3" width="20" height="1" fill="#00A1DB"/>
</g>
<rect x="4" y="9" width="4" height="2" fill="#919191"/>
<rect x="16" y="9" width="4" height="2" fill="#919191"/>
<rect x="10" y="9" width="4" height="2" fill="#919191"/>
<rect x="10" y="13" width="4" height="2" fill="#919191"/>
<rect x="16" y="13" width="4" height="2" fill="#919191"/>
<rect x="16" y="17" width="4" height="2" fill="#919191"/>
<g clip-path="url(#clip1_1842_17204)">
<path d="M2 18V13H6V18H7V19H8V23H7V24H1V23H0V19H1V18H2Z" fill="#FCFCFC" fill-opacity="0.75"/>
<rect x="3" y="14" width="2" height="5" fill="#00A1DB"/>
<rect x="2" y="19" width="4" height="2" fill="#00A1DB"/>
<rect x="1" y="20" width="1" height="2" fill="#00A1DB"/>
<rect x="5" y="21" width="1" height="2" fill="#00A1DB"/>
<rect x="6" y="20" width="1" height="2" fill="#00A1DB"/>
<rect x="2" y="21" width="1" height="2" fill="#00A1DB"/>
</g>
<defs>
<clipPath id="clip0_1842_17204">
<rect width="24" height="22" fill="white" transform="translate(0 1)"/>
</clipPath>
<clipPath id="clip1_1842_17204">
<rect width="8" height="11" fill="white" transform="translate(0 13)"/>
</clipPath>
</defs>
</svg>
