<svg width="24" height="24" viewBox="0 0 24 24" fill="none" xmlns="http://www.w3.org/2000/svg">
<g clip-path="url(#clip0_442_9575)">
<path fill-rule="evenodd" clip-rule="evenodd" d="M14.002 4.25254V0H10.002V4.25153C9.26702 4.44049 8.57295 4.73125 7.93564 5.10789L4.92804 2.10028L2.09961 4.92871L5.10739 7.93649C4.73133 8.573 4.44092 9.26612 4.25203 10H7.41604C8.1876 8.2341 9.94968 7 12 7C14.7614 7 17 9.23858 17 12C17 14.0503 15.7659 15.8124 14 16.584V20H14.002V19.7475C14.7366 19.5582 15.4304 19.2671 16.0674 18.8903L19.0739 21.8968L21.9023 19.0684L18.8944 16.0604C19.2696 15.4248 19.5594 14.7327 19.748 14H24V10H19.748C19.559 9.2658 19.2684 8.57238 18.8921 7.93564L21.8987 4.92901L19.0703 2.10059L16.0635 5.10739C15.4276 4.73166 14.7351 4.44144 14.002 4.25254Z" fill="#0C121C"/>
<path d="M2 14L6.99988 19.0001" stroke="#0C121C" stroke-width="2"/>
<path d="M0 12L6 12L8.42938e-07 18L0 12Z" fill="#0C121C"/>
<path d="M1 20V23H11V18V13H8" stroke="#0C121C" stroke-width="2"/>
</g>
<defs>
<clipPath id="clip0_442_9575">
<rect width="24" height="24" fill="white"/>
</clipPath>
</defs>
</svg>
