<svg width="24" height="24" viewBox="0 0 24 24" fill="none" xmlns="http://www.w3.org/2000/svg">
<g clip-path="url(#clip0_1843_17087)">
<mask id="path-1-outside-1_1843_17087" maskUnits="userSpaceOnUse" x="0" y="0" width="24" height="24" fill="black">
<rect fill="white" width="24" height="24"/>
<path fill-rule="evenodd" clip-rule="evenodd" d="M10.002 1H14.002V5.29046C14.4666 5.4289 14.9111 5.6143 15.3298 5.84114L18.0703 3.10059L20.8987 5.92901L18.1584 8.66937C18.3858 9.08891 18.5715 9.5343 18.7101 10H23V14H18.7101C18.5715 14.4657 18.3857 14.9111 18.1583 15.3307L21.3633 18.5356L18.5349 21.3641L15.3297 18.1589C14.911 18.3857 14.4666 18.5711 14.002 18.7095V23H10.002V18.7107C9.53587 18.5721 9.09012 18.3863 8.67024 18.1589L5.92969 20.8994L3.10126 18.071L5.84162 15.3306C5.61424 14.9111 5.42848 14.4657 5.28988 14H1V10H5.28988C5.42838 9.53462 5.61398 9.08953 5.84114 8.67024L3.09961 5.92871L5.92804 3.10028L8.66937 5.84162C9.0895 5.61392 9.53555 5.42796 10.002 5.2893V1ZM12 14C13.1046 14 14 13.1046 14 12C14 10.8954 13.1046 10 12 10C10.8954 10 10 10.8954 10 12C10 13.1046 10.8954 14 12 14Z"/>
</mask>
<path fill-rule="evenodd" clip-rule="evenodd" d="M10.002 1H14.002V5.29046C14.4666 5.4289 14.9111 5.6143 15.3298 5.84114L18.0703 3.10059L20.8987 5.92901L18.1584 8.66937C18.3858 9.08891 18.5715 9.5343 18.7101 10H23V14H18.7101C18.5715 14.4657 18.3857 14.9111 18.1583 15.3307L21.3633 18.5356L18.5349 21.3641L15.3297 18.1589C14.911 18.3857 14.4666 18.5711 14.002 18.7095V23H10.002V18.7107C9.53587 18.5721 9.09012 18.3863 8.67024 18.1589L5.92969 20.8994L3.10126 18.071L5.84162 15.3306C5.61424 14.9111 5.42848 14.4657 5.28988 14H1V10H5.28988C5.42838 9.53462 5.61398 9.08953 5.84114 8.67024L3.09961 5.92871L5.92804 3.10028L8.66937 5.84162C9.0895 5.61392 9.53555 5.42796 10.002 5.2893V1ZM12 14C13.1046 14 14 13.1046 14 12C14 10.8954 13.1046 10 12 10C10.8954 10 10 10.8954 10 12C10 13.1046 10.8954 14 12 14Z" fill="#FCFCFC" fill-opacity="0.75"/>
<path d="M14.002 1H15.002V0H14.002V1ZM10.002 1V0H9.00195V1H10.002ZM14.002 5.29046H13.002V6.03597L13.7164 6.24883L14.002 5.29046ZM15.3298 5.84114L14.8534 6.72039L15.5093 7.07577L16.0369 6.54825L15.3298 5.84114ZM18.0703 3.10059L18.7774 2.39348L18.0703 1.68637L17.3632 2.39348L18.0703 3.10059ZM20.8987 5.92901L21.6058 6.63612L22.313 5.92901L21.6058 5.22191L20.8987 5.92901ZM18.1584 8.66937L17.4513 7.96226L16.9237 8.48986L17.2792 9.14586L18.1584 8.66937ZM18.7101 10L17.7517 10.2852L17.9644 11H18.7101V10ZM23 10H24V9H23V10ZM23 14V15H24V14H23ZM18.7101 14V13H17.9644L17.7517 13.7148L18.7101 14ZM18.1583 15.3307L17.2792 14.8542L16.9236 15.5102L17.4512 16.0378L18.1583 15.3307ZM21.3633 18.5356L22.0704 19.2428L22.7775 18.5356L22.0704 17.8285L21.3633 18.5356ZM18.5349 21.3641L17.8277 22.0712L18.5349 22.7783L19.242 22.0712L18.5349 21.3641ZM15.3297 18.1589L16.0368 17.4518L15.5093 16.9243L14.8533 17.2796L15.3297 18.1589ZM14.002 18.7095L13.7164 17.7512L13.002 17.964V18.7095H14.002ZM14.002 23V24H15.002V23H14.002ZM10.002 23H9.00195V24H10.002V23ZM10.002 18.7107H11.002V17.9647L10.2869 17.7522L10.002 18.7107ZM8.67024 18.1589L9.14661 17.2796L8.49066 16.9242L7.96314 17.4518L8.67024 18.1589ZM5.92969 20.8994L5.22258 21.6065L5.92969 22.3136L6.63679 21.6065L5.92969 20.8994ZM3.10126 18.071L2.39415 17.3639L1.68705 18.071L2.39415 18.7781L3.10126 18.071ZM5.84162 15.3306L6.54872 16.0377L7.07632 15.5101L6.7208 14.8541L5.84162 15.3306ZM5.28988 14L6.24833 13.7148L6.03561 13H5.28988V14ZM1 14H0V15H1V14ZM1 10V9H0V10H1ZM5.28988 10V11H6.03561L6.24833 10.2852L5.28988 10ZM5.84114 8.67024L6.72039 9.14661L7.07577 8.49066L6.54825 7.96314L5.84114 8.67024ZM3.09961 5.92871L2.3925 5.2216L1.6854 5.92871L2.3925 6.63582L3.09961 5.92871ZM5.92804 3.10028L6.63514 2.39318L5.92804 1.68607L5.22093 2.39318L5.92804 3.10028ZM8.66937 5.84162L7.96226 6.54872L8.48986 7.07632L9.14586 6.7208L8.66937 5.84162ZM10.002 5.2893L10.2869 6.24783L11.002 6.03526V5.2893H10.002ZM14.002 0H10.002V2H14.002V0ZM15.002 5.29046V1H13.002V5.29046H15.002ZM15.8061 4.96189C15.3274 4.70255 14.8191 4.49048 14.2875 4.33209L13.7164 6.24883C14.1141 6.36732 14.4947 6.52604 14.8534 6.72039L15.8061 4.96189ZM16.0369 6.54825L18.7774 3.80769L17.3632 2.39348L14.6227 5.13403L16.0369 6.54825ZM17.3632 3.80769L20.1916 6.63612L21.6058 5.22191L18.7774 2.39348L17.3632 3.80769ZM20.1916 5.22191L17.4513 7.96226L18.8655 9.37648L21.6058 6.63612L20.1916 5.22191ZM19.6686 9.71475C19.51 9.18194 19.2975 8.67252 19.0376 8.19288L17.2792 9.14586C17.474 9.5053 17.633 9.88666 17.7517 10.2852L19.6686 9.71475ZM23 9H18.7101V11H23V9ZM24 14V10H22V14H24ZM18.7101 15H23V13H18.7101V15ZM19.0375 15.8072C19.2975 15.3275 19.51 14.8181 19.6686 14.2852L17.7517 13.7148C17.633 14.1134 17.474 14.4947 17.2792 14.8542L19.0375 15.8072ZM22.0704 17.8285L18.8655 14.6236L17.4512 16.0378L20.6562 19.2428L22.0704 17.8285ZM19.242 22.0712L22.0704 19.2428L20.6562 17.8285L17.8277 20.657L19.242 22.0712ZM14.6226 18.866L17.8277 22.0712L19.242 20.657L16.0368 17.4518L14.6226 18.866ZM14.2875 19.6679C14.8191 19.5095 15.3274 19.2975 15.806 19.0382L14.8533 17.2796C14.4946 17.474 14.1141 17.6327 13.7164 17.7512L14.2875 19.6679ZM15.002 23V18.7095H13.002V23H15.002ZM10.002 24H14.002V22H10.002V24ZM9.00195 18.7107V23H11.002V18.7107H9.00195ZM8.19388 19.0381C8.6739 19.2982 9.18373 19.5107 9.71698 19.6692L10.2869 17.7522C9.88801 17.6336 9.50633 17.4745 9.14661 17.2796L8.19388 19.0381ZM6.63679 21.6065L9.37735 18.866L7.96314 17.4518L5.22258 20.1923L6.63679 21.6065ZM2.39415 18.7781L5.22258 21.6065L6.63679 20.1923L3.80837 17.3639L2.39415 18.7781ZM5.13451 14.6235L2.39415 17.3639L3.80837 18.7781L6.54872 16.0377L5.13451 14.6235ZM4.33143 14.2852C4.49 14.8181 4.70248 15.3275 4.96244 15.8071L6.7208 14.8541C6.52599 14.4947 6.36696 14.1133 6.24833 13.7148L4.33143 14.2852ZM1 15H5.28988V13H1V15ZM0 10V14H2V10H0ZM5.28988 9H1V11H5.28988V9ZM4.96189 8.19388C4.70219 8.67323 4.48989 9.18231 4.33143 9.71475L6.24833 10.2852C6.36687 9.88694 6.52577 9.50583 6.72039 9.14661L4.96189 8.19388ZM2.3925 6.63582L5.13403 9.37735L6.54825 7.96314L3.80672 5.2216L2.3925 6.63582ZM5.22093 2.39318L2.3925 5.2216L3.80672 6.63582L6.63514 3.80739L5.22093 2.39318ZM9.37648 5.13451L6.63514 2.39318L5.22093 3.80739L7.96226 6.54872L9.37648 5.13451ZM9.71698 4.33076C9.18336 4.4894 8.67319 4.70212 8.19288 4.96243L9.14586 6.7208C9.50581 6.52571 9.88773 6.36651 10.2869 6.24783L9.71698 4.33076ZM9.00195 1V5.2893H11.002V1H9.00195ZM13 12C13 12.5523 12.5523 13 12 13V15C13.6569 15 15 13.6569 15 12H13ZM12 11C12.5523 11 13 11.4477 13 12H15C15 10.3431 13.6569 9 12 9V11ZM11 12C11 11.4477 11.4477 11 12 11V9C10.3431 9 9 10.3431 9 12H11ZM12 13C11.4477 13 11 12.5523 11 12H9C9 13.6569 10.3431 15 12 15V13Z" fill="#FCFCFC" fill-opacity="0.75" mask="url(#path-1-outside-1_1843_17087)"/>
<mask id="path-3-inside-2_1843_17087" fill="white">
<path fill-rule="evenodd" clip-rule="evenodd" d="M10.002 1H14.002V5.29046C14.4666 5.4289 14.9111 5.6143 15.3298 5.84114L18.0703 3.10059L20.8987 5.92901L18.1584 8.66937C18.3858 9.08891 18.5715 9.5343 18.7101 10H23V14H18.7101C18.5715 14.4657 18.3857 14.9111 18.1583 15.3307L21.3633 18.5356L18.5349 21.3641L15.3297 18.1589C14.911 18.3857 14.4666 18.5711 14.002 18.7095V23H10.002V18.7107C9.53587 18.5721 9.09012 18.3863 8.67024 18.1589L5.92969 20.8994L3.10126 18.071L5.84162 15.3306C5.61424 14.9111 5.42848 14.4657 5.28988 14H1V10H5.28988C5.42838 9.53462 5.61398 9.08953 5.84114 8.67024L3.09961 5.92871L5.92804 3.10028L8.66937 5.84162C9.0895 5.61392 9.53555 5.42796 10.002 5.2893V1ZM12 14C13.1046 14 14 13.1046 14 12C14 10.8954 13.1046 10 12 10C10.8954 10 10 10.8954 10 12C10 13.1046 10.8954 14 12 14Z"/>
</mask>
<path fill-rule="evenodd" clip-rule="evenodd" d="M10.002 1H14.002V5.29046C14.4666 5.4289 14.9111 5.6143 15.3298 5.84114L18.0703 3.10059L20.8987 5.92901L18.1584 8.66937C18.3858 9.08891 18.5715 9.5343 18.7101 10H23V14H18.7101C18.5715 14.4657 18.3857 14.9111 18.1583 15.3307L21.3633 18.5356L18.5349 21.3641L15.3297 18.1589C14.911 18.3857 14.4666 18.5711 14.002 18.7095V23H10.002V18.7107C9.53587 18.5721 9.09012 18.3863 8.67024 18.1589L5.92969 20.8994L3.10126 18.071L5.84162 15.3306C5.61424 14.9111 5.42848 14.4657 5.28988 14H1V10H5.28988C5.42838 9.53462 5.61398 9.08953 5.84114 8.67024L3.09961 5.92871L5.92804 3.10028L8.66937 5.84162C9.0895 5.61392 9.53555 5.42796 10.002 5.2893V1ZM12 14C13.1046 14 14 13.1046 14 12C14 10.8954 13.1046 10 12 10C10.8954 10 10 10.8954 10 12C10 13.1046 10.8954 14 12 14Z" fill="#D8D8D8"/>
<path d="M14.002 1H15.002V0H14.002V1ZM10.002 1V0H9.00195V1H10.002ZM14.002 5.29046H13.002V6.03597L13.7164 6.24883L14.002 5.29046ZM15.3298 5.84114L14.8534 6.72039L15.5093 7.07577L16.0369 6.54825L15.3298 5.84114ZM18.0703 3.10059L18.7774 2.39348L18.0703 1.68637L17.3632 2.39348L18.0703 3.10059ZM20.8987 5.92901L21.6058 6.63612L22.313 5.92901L21.6058 5.22191L20.8987 5.92901ZM18.1584 8.66937L17.4513 7.96226L16.9237 8.48986L17.2792 9.14586L18.1584 8.66937ZM18.7101 10L17.7517 10.2852L17.9644 11H18.7101V10ZM23 10H24V9H23V10ZM23 14V15H24V14H23ZM18.7101 14V13H17.9644L17.7517 13.7148L18.7101 14ZM18.1583 15.3307L17.2792 14.8542L16.9236 15.5102L17.4512 16.0378L18.1583 15.3307ZM21.3633 18.5356L22.0704 19.2428L22.7775 18.5356L22.0704 17.8285L21.3633 18.5356ZM18.5349 21.3641L17.8277 22.0712L18.5349 22.7783L19.242 22.0712L18.5349 21.3641ZM15.3297 18.1589L16.0368 17.4518L15.5093 16.9243L14.8533 17.2796L15.3297 18.1589ZM14.002 18.7095L13.7164 17.7512L13.002 17.964V18.7095H14.002ZM14.002 23V24H15.002V23H14.002ZM10.002 23H9.00195V24H10.002V23ZM10.002 18.7107H11.002V17.9647L10.2869 17.7522L10.002 18.7107ZM8.67024 18.1589L9.14661 17.2796L8.49066 16.9242L7.96314 17.4518L8.67024 18.1589ZM5.92969 20.8994L5.22258 21.6065L5.92969 22.3136L6.63679 21.6065L5.92969 20.8994ZM3.10126 18.071L2.39415 17.3639L1.68705 18.071L2.39415 18.7781L3.10126 18.071ZM5.84162 15.3306L6.54872 16.0377L7.07632 15.5101L6.7208 14.8541L5.84162 15.3306ZM5.28988 14L6.24833 13.7148L6.03561 13H5.28988V14ZM1 14H0V15H1V14ZM1 10V9H0V10H1ZM5.28988 10V11H6.03561L6.24833 10.2852L5.28988 10ZM5.84114 8.67024L6.72039 9.14661L7.07577 8.49066L6.54825 7.96314L5.84114 8.67024ZM3.09961 5.92871L2.3925 5.2216L1.6854 5.92871L2.3925 6.63582L3.09961 5.92871ZM5.92804 3.10028L6.63514 2.39318L5.92804 1.68607L5.22093 2.39318L5.92804 3.10028ZM8.66937 5.84162L7.96226 6.54872L8.48986 7.07632L9.14586 6.7208L8.66937 5.84162ZM10.002 5.2893L10.2869 6.24783L11.002 6.03526V5.2893H10.002ZM14.002 0H10.002V2H14.002V0ZM15.002 5.29046V1H13.002V5.29046H15.002ZM15.8061 4.96189C15.3274 4.70255 14.8191 4.49048 14.2875 4.33209L13.7164 6.24883C14.1141 6.36732 14.4947 6.52604 14.8534 6.72039L15.8061 4.96189ZM16.0369 6.54825L18.7774 3.80769L17.3632 2.39348L14.6227 5.13403L16.0369 6.54825ZM17.3632 3.80769L20.1916 6.63612L21.6058 5.22191L18.7774 2.39348L17.3632 3.80769ZM20.1916 5.22191L17.4513 7.96226L18.8655 9.37648L21.6058 6.63612L20.1916 5.22191ZM19.6686 9.71475C19.51 9.18194 19.2975 8.67252 19.0376 8.19288L17.2792 9.14586C17.474 9.5053 17.633 9.88666 17.7517 10.2852L19.6686 9.71475ZM23 9H18.7101V11H23V9ZM24 14V10H22V14H24ZM18.7101 15H23V13H18.7101V15ZM19.0375 15.8072C19.2975 15.3275 19.51 14.8181 19.6686 14.2852L17.7517 13.7148C17.633 14.1134 17.474 14.4947 17.2792 14.8542L19.0375 15.8072ZM22.0704 17.8285L18.8655 14.6236L17.4512 16.0378L20.6562 19.2428L22.0704 17.8285ZM19.242 22.0712L22.0704 19.2428L20.6562 17.8285L17.8277 20.657L19.242 22.0712ZM14.6226 18.866L17.8277 22.0712L19.242 20.657L16.0368 17.4518L14.6226 18.866ZM14.2875 19.6679C14.8191 19.5095 15.3274 19.2975 15.806 19.0382L14.8533 17.2796C14.4946 17.474 14.1141 17.6327 13.7164 17.7512L14.2875 19.6679ZM15.002 23V18.7095H13.002V23H15.002ZM10.002 24H14.002V22H10.002V24ZM9.00195 18.7107V23H11.002V18.7107H9.00195ZM8.19388 19.0381C8.6739 19.2982 9.18373 19.5107 9.71698 19.6692L10.2869 17.7522C9.88801 17.6336 9.50633 17.4745 9.14661 17.2796L8.19388 19.0381ZM6.63679 21.6065L9.37735 18.866L7.96314 17.4518L5.22258 20.1923L6.63679 21.6065ZM2.39415 18.7781L5.22258 21.6065L6.63679 20.1923L3.80837 17.3639L2.39415 18.7781ZM5.13451 14.6235L2.39415 17.3639L3.80837 18.7781L6.54872 16.0377L5.13451 14.6235ZM4.33143 14.2852C4.49 14.8181 4.70248 15.3275 4.96244 15.8071L6.7208 14.8541C6.52599 14.4947 6.36696 14.1133 6.24833 13.7148L4.33143 14.2852ZM1 15H5.28988V13H1V15ZM0 10V14H2V10H0ZM5.28988 9H1V11H5.28988V9ZM4.96189 8.19388C4.70219 8.67323 4.48989 9.18231 4.33143 9.71475L6.24833 10.2852C6.36687 9.88694 6.52577 9.50583 6.72039 9.14661L4.96189 8.19388ZM2.3925 6.63582L5.13403 9.37735L6.54825 7.96314L3.80672 5.2216L2.3925 6.63582ZM5.22093 2.39318L2.3925 5.2216L3.80672 6.63582L6.63514 3.80739L5.22093 2.39318ZM9.37648 5.13451L6.63514 2.39318L5.22093 3.80739L7.96226 6.54872L9.37648 5.13451ZM9.71698 4.33076C9.18336 4.4894 8.67319 4.70212 8.19288 4.96243L9.14586 6.7208C9.50581 6.52571 9.88773 6.36651 10.2869 6.24783L9.71698 4.33076ZM9.00195 1V5.2893H11.002V1H9.00195ZM13 12C13 12.5523 12.5523 13 12 13V15C13.6569 15 15 13.6569 15 12H13ZM12 11C12.5523 11 13 11.4477 13 12H15C15 10.3431 13.6569 9 12 9V11ZM11 12C11 11.4477 11.4477 11 12 11V9C10.3431 9 9 10.3431 9 12H11ZM12 13C11.4477 13 11 12.5523 11 12H9C9 13.6569 10.3431 15 12 15V13Z" fill="#919191" mask="url(#path-3-inside-2_1843_17087)"/>
<g clip-path="url(#clip1_1843_17087)">
<rect y="13" width="11" height="11" fill="#FCFCFC" fill-opacity="0.75"/>
<path d="M1 20H2V22H9V15H7V14H10V23H1V20Z" fill="#00A1DB"/>
<rect x="5" y="18" width="1" height="1" transform="rotate(180 5 18)" fill="#00A1DB"/>
<rect x="6" y="19" width="1" height="1" transform="rotate(180 6 19)" fill="#00A1DB"/>
<rect x="4" y="17" width="2" height="2" transform="rotate(180 4 17)" fill="#00A1DB"/>
<rect x="2" y="18" width="1" height="4" transform="rotate(180 2 18)" fill="#00A1DB"/>
<rect x="5" y="15" width="4" height="1" transform="rotate(180 5 15)" fill="#00A1DB"/>
<rect x="7" y="20" width="1" height="1" transform="rotate(180 7 20)" fill="#00A1DB"/>
<rect x="7" y="20" width="1" height="1" transform="rotate(180 7 20)" fill="#00A1DB"/>
</g>
</g>
<defs>
<clipPath id="clip0_1843_17087">
<rect width="24" height="24" fill="white"/>
</clipPath>
<clipPath id="clip1_1843_17087">
<rect width="11" height="11" fill="white" transform="translate(0 13)"/>
</clipPath>
</defs>
</svg>
