<svg width="24" height="24" viewBox="0 0 24 24" fill="none" xmlns="http://www.w3.org/2000/svg">
<g clip-path="url(#clip0_1844_17032)">
<path d="M3 12L3 18L4 18L4 19L7 19L7 21L10 21L10 20L11 20L11 19L12 19L12 16L11 16L11 15L10 15L10 14L7 14L7 16L6 16L6 12L3 12Z" fill="#FCFCFC" fill-opacity="0.75"/>
<rect width="5" height="1" transform="matrix(-4.37114e-08 1 1 4.37114e-08 8 15)" fill="#00A1DB"/>
<rect width="3" height="1" transform="matrix(-4.37114e-08 1 1 4.37114e-08 9 16)" fill="#00A1DB"/>
<rect width="1" height="1" transform="matrix(-4.37114e-08 1 1 4.37114e-08 10 17)" fill="#00A1DB"/>
<rect width="4" height="1" transform="matrix(-4.37114e-08 1 1 4.37114e-08 4 13)" fill="#00A1DB"/>
<rect width="1" height="3" transform="matrix(-4.37114e-08 1 1 4.37114e-08 5 17)" fill="#00A1DB"/>
</g>
<path d="M1 2H11V3H12V11H1V2Z" fill="#FCFCFC" fill-opacity="0.75"/>
<path d="M8 6.5H10.5V9.5H2.5V3.5H7.5V6V6.5H8Z" fill="url(#paint0_linear_1844_17032)" stroke="#919191"/>
<path d="M9 3H10V4H11V5H9V3Z" fill="#919191"/>
<path d="M13 13H23V14H24V22H13V13Z" fill="#FCFCFC" fill-opacity="0.75"/>
<path d="M20 17.5H22.5V20.5H14.5V14.5H19.5V17V17.5H20Z" fill="url(#paint1_linear_1844_17032)" stroke="#919191"/>
<path d="M21 14H22V15H23V16H21V14Z" fill="#919191"/>
<defs>
<linearGradient id="paint0_linear_1844_17032" x1="6.5" y1="3" x2="6.5" y2="10" gradientUnits="userSpaceOnUse">
<stop stop-color="#F4F7F6"/>
<stop offset="1" stop-color="#D8D8D8"/>
</linearGradient>
<linearGradient id="paint1_linear_1844_17032" x1="18.5" y1="14" x2="18.5" y2="21" gradientUnits="userSpaceOnUse">
<stop stop-color="#F4F7F6"/>
<stop offset="1" stop-color="#D8D8D8"/>
</linearGradient>
<clipPath id="clip0_1844_17032">
<rect width="9" height="9" fill="white" transform="matrix(-4.37114e-08 1 1 4.37114e-08 3 12)"/>
</clipPath>
</defs>
</svg>
