<svg width="24" height="24" viewBox="0 0 24 24" fill="none" xmlns="http://www.w3.org/2000/svg">
<g clip-path="url(#clip0_1844_17136)">
<rect y="1" width="24" height="22" fill="#FCFCFC" fill-opacity="0.75"/>
<rect x="1.5" y="4.5" width="21" height="17" fill="#FCFCFC" stroke="#919191"/>
<rect x="1.5" y="2.5" width="21" height="3" fill="#94E1FC" stroke="#3A3A3A"/>
<rect x="2" y="3" width="20" height="1" fill="#00A1DB"/>
</g>
<rect x="8" y="6" width="1" height="5" fill="#D8D8D8"/>
<rect x="8" y="10" width="1" height="6" fill="#D8D8D8"/>
<rect x="8" y="16" width="1" height="5" fill="#D8D8D8"/>
<rect x="15" y="6" width="1" height="5" fill="#D8D8D8"/>
<rect x="15" y="10" width="1" height="6" fill="#D8D8D8"/>
<rect x="15" y="16" width="1" height="5" fill="#D8D8D8"/>
<rect x="2" y="11" width="7" height="1" fill="#D8D8D8"/>
<rect x="8" y="11" width="8" height="1" fill="#D8D8D8"/>
<rect x="15" y="11" width="7" height="1" fill="#D8D8D8"/>
<rect x="8" y="16" width="8" height="1" fill="#D8D8D8"/>
<rect x="15" y="16" width="7" height="1" fill="#D8D8D8"/>
<g clip-path="url(#clip1_1844_17136)">
<path d="M0 16H4V17H5V18H6V17H7V16H8V15H11V18H10V20H9V21H8V23H7V24H4V23H3V22H2V21H1V20H0V16Z" fill="#FCFCFC" fill-opacity="0.75"/>
<path d="M5 19V20H6V19H7V18H8V17H9V16H10V17H9V19H8V20H7V22H6V23H5V22H4V21H3V20H2V19H1V17H3V18H4V19H5Z" fill="#00A1DB"/>
<rect x="1" y="21" width="1" height="1" fill="#FCFCFC" fill-opacity="0.75"/>
</g>
<defs>
<clipPath id="clip0_1844_17136">
<rect width="24" height="22" fill="white" transform="translate(0 1)"/>
</clipPath>
<clipPath id="clip1_1844_17136">
<rect width="11" height="9" fill="white" transform="translate(0 15)"/>
</clipPath>
</defs>
</svg>
