<svg width="24" height="24" viewBox="0 0 24 24" fill="none" xmlns="http://www.w3.org/2000/svg">
<g clip-path="url(#clip0_1847_16605)">
<path d="M7 2H2C0.895431 2 0 2.89543 0 4V19C0 20.6569 1.34315 22 3 22H18.6135C20.0104 22 21.2225 21.0358 21.5366 19.6746L24 9C24 7.34315 22.6569 6 21 6C21 4.89543 20.1046 4 19 4H9C9 2.89543 8.10457 2 7 2Z" fill="#FCFCFC" fill-opacity="0.75"/>
<path d="M6 3H3C1.89543 3 1 3.89543 1 5V18C1 19.6569 2.34315 21 4 21H17.7086C19.0615 21 20.2469 20.0945 20.6029 18.7894L23 10C23 8.34315 21.6569 7 20 7C20 5.89543 19.1046 5 18 5H8C8 3.89543 7.10457 3 6 3Z" fill="#F2994A"/>
<path d="M3.3971 11.2106C3.75306 9.90546 4.93853 9 6.29139 9H18.0722C20.0504 9 21.487 10.8809 20.9665 12.7894L19.6029 17.7894C19.2469 19.0945 18.0615 20 16.7086 20H4.92775C2.94963 20 1.51298 18.1191 2.03346 16.2106L3.3971 11.2106Z" fill="url(#paint0_radial_1847_16605)"/>
</g>
<g clip-path="url(#clip1_1847_16605)">
<path d="M1 23V24H7V23H11V17H5V21H3V20H0V23H1Z" fill="#FCFCFC" fill-opacity="0.75"/>
<rect width="1" height="1" transform="matrix(1 0 0 -1 1 22)" fill="#00A1DB"/>
<rect width="1" height="1" transform="matrix(1 0 0 -1 6 22)" fill="#00A1DB"/>
<rect width="4" height="1" transform="matrix(1 0 0 -1 2 23)" fill="#00A1DB"/>
<rect width="2" height="2" transform="matrix(1 0 0 -1 7 21)" fill="#00A1DB"/>
<rect width="1" height="4" transform="matrix(1 0 0 -1 9 22)" fill="#00A1DB"/>
<rect width="4" height="1" transform="matrix(1 0 0 -1 6 19)" fill="#00A1DB"/>
</g>
<defs>
<radialGradient id="paint0_radial_1847_16605" cx="0" cy="0" r="1" gradientUnits="userSpaceOnUse" gradientTransform="translate(10.587 20) rotate(-84.3975) scale(14.0286 20.2621)">
<stop stop-color="#FCFCFC"/>
<stop offset="1" stop-color="#F2C94C"/>
</radialGradient>
<clipPath id="clip0_1847_16605">
<rect width="24" height="20" fill="white" transform="translate(0 2)"/>
</clipPath>
<clipPath id="clip1_1847_16605">
<rect width="11" height="7" fill="white" transform="matrix(1 0 0 -1 0 24)"/>
</clipPath>
</defs>
</svg>
