<svg width="24" height="24" viewBox="0 0 24 24" fill="none" xmlns="http://www.w3.org/2000/svg">
<g clip-path="url(#clip0_1848_16186)">
<rect x="11" y="1" width="4" height="22" fill="#FCFCFC" fill-opacity="0.75"/>
<rect x="12" y="20" width="2" height="2" fill="#3A3A3A"/>
<path d="M12 2H14V18H12V2Z" fill="#3A3A3A"/>
</g>
<g clip-path="url(#clip1_1848_16186)">
<path d="M4.94922 16.8268L2.12079 13.9983L-0.000528634 16.1197L2.8279 18.9481L-0.000528634 21.7765L2.12079 23.8978L4.94922 21.0694L7.77765 23.8978L9.89897 21.7765L7.07054 18.9481L9.89897 16.1197L7.77765 13.9983L4.94922 16.8268Z" fill="#FCFCFC" fill-opacity="0.75"/>
<rect x="7.77734" y="15.4126" width="1" height="9" transform="rotate(45 7.77734 15.4126)" fill="#EA212D"/>
<rect x="8.48438" y="21.7764" width="1" height="9" transform="rotate(135 8.48438 21.7764)" fill="#EA212D"/>
</g>
<defs>
<clipPath id="clip0_1848_16186">
<rect width="4" height="22" fill="white" transform="translate(11 1)"/>
</clipPath>
<clipPath id="clip1_1848_16186">
<rect width="10" height="10" fill="white" transform="translate(0 14)"/>
</clipPath>
</defs>
</svg>
