<svg width="24" height="24" viewBox="0 0 24 24" fill="none" xmlns="http://www.w3.org/2000/svg">
<path fill-rule="evenodd" clip-rule="evenodd" d="M24 2H18V22H24V2ZM13.7439 22H15V2H9V16H9.5C11.4593 16 13.1262 17.2522 13.7439 19H14V20H13.9725C13.9907 20.1642 14 20.331 14 20.5C14 21.026 13.9098 21.5308 13.7439 22ZM6 16V2H0V17.6713C0.824978 16.6518 2.08637 16 3.5 16H6ZM1 4H5V8H1V4ZM5 10H1V11H5V10ZM10 4H14V8H10V4ZM14 10H10V11H14V10ZM23 4H19V8H23V4ZM19 10H23V11H19V10ZM23 19H19V20H23V19Z" fill="#0C121C"/>
<path fill-rule="evenodd" clip-rule="evenodd" d="M3.5 17C1.567 17 0 18.567 0 20.5C0 22.433 1.567 24 3.5 24H9.5C11.433 24 13 22.433 13 20.5C13 18.567 11.433 17 9.5 17H3.5ZM3.5 23C4.88071 23 6 21.8807 6 20.5C6 19.1193 4.88071 18 3.5 18C2.11929 18 1 19.1193 1 20.5C1 21.8807 2.11929 23 3.5 23Z" fill="#0C121C"/>
</svg>
