<svg width="24" height="24" viewBox="0 0 24 24" fill="none" xmlns="http://www.w3.org/2000/svg">
<g clip-path="url(#clip0_1853_15813)">
<rect y="1" width="24" height="22" fill="#FCFCFC" fill-opacity="0.75"/>
<g clip-path="url(#clip1_1853_15813)">
<path fill-rule="evenodd" clip-rule="evenodd" d="M7 2H1V22H7V2ZM6 4H2V10H6V4ZM2 15H6V16H2V15ZM6 18H2V19H6V18Z" fill="#919191"/>
<rect x="1" y="21" width="6" height="1" fill="#3A3A3A"/>
<rect x="1" y="2" width="6" height="1" fill="#3A3A3A"/>
<rect x="6" y="2" width="1" height="20" fill="#3A3A3A"/>
<rect x="1" y="2" width="1" height="20" fill="#3A3A3A"/>
</g>
<g clip-path="url(#clip2_1853_15813)">
<path fill-rule="evenodd" clip-rule="evenodd" d="M15 2H9V22H15V2ZM14 4H10V10H14V4ZM10 15H14V16H10V15ZM14 18H10V19H14V18Z" fill="#919191"/>
<rect x="9" y="21" width="6" height="1" fill="#3A3A3A"/>
<rect x="9" y="2" width="6" height="1" fill="#3A3A3A"/>
<rect x="14" y="2" width="1" height="20" fill="#3A3A3A"/>
<rect x="9" y="2" width="1" height="20" fill="#3A3A3A"/>
</g>
<g clip-path="url(#clip3_1853_15813)">
<path fill-rule="evenodd" clip-rule="evenodd" d="M23 2H17V22H23V2ZM22 4H18V10H22V4ZM18 15H22V16H18V15ZM22 18H18V19H22V18Z" fill="#919191"/>
<rect x="17" y="21" width="6" height="1" fill="#3A3A3A"/>
<rect x="17" y="2" width="6" height="1" fill="#3A3A3A"/>
<rect x="22" y="2" width="1" height="20" fill="#3A3A3A"/>
<rect x="17" y="2" width="1" height="20" fill="#3A3A3A"/>
</g>
<g clip-path="url(#clip4_1853_15813)">
<path d="M1 17V16H10V17H11V23H10V24H1V23H0V17H1Z" fill="#FCFCFC" fill-opacity="0.75"/>
<path d="M4 17H8H9V18H10V19V21V22H9V23H8H4V22H5V21H6V20V19H5V18H4V17Z" fill="#00A1DB"/>
<path d="M2 17H4V18H3V19H2V21H3V22H4V23H2V22H1V21V19V18H2V17Z" fill="#00A1DB"/>
</g>
</g>
<defs>
<clipPath id="clip0_1853_15813">
<rect width="24" height="24" fill="white"/>
</clipPath>
<clipPath id="clip1_1853_15813">
<rect width="6" height="20" fill="white" transform="translate(1 2)"/>
</clipPath>
<clipPath id="clip2_1853_15813">
<rect width="6" height="20" fill="white" transform="translate(9 2)"/>
</clipPath>
<clipPath id="clip3_1853_15813">
<rect width="6" height="20" fill="white" transform="translate(17 2)"/>
</clipPath>
<clipPath id="clip4_1853_15813">
<rect width="11" height="8" fill="white" transform="translate(0 16)"/>
</clipPath>
</defs>
</svg>
