<svg width="24" height="24" viewBox="0 0 24 24" fill="none" xmlns="http://www.w3.org/2000/svg">
<g clip-path="url(#clip0_1853_15963)">
<path d="M22.7467 4.16066C21.4017 3.36299 16.9439 5.60404 13.8696 9.36447C10.7569 13.0869 10.2189 14.3024 10.2189 14.3024C10.2189 14.3024 6.45283 10.58 4.0318 9.36447C2.07192 8.41487 -0.0800893 11.3017 1.61079 13.087C3.49381 15.1001 8.06685 20 10.3726 20C12.6783 20 13.9465 15.252 16.7134 11.4916C19.7877 7.19936 24.0917 4.95833 22.7467 4.16066Z" fill="#FCFCFC" fill-opacity="0.75"/>
<path d="M10.1038 13.497C10.0514 13.4472 9.99517 13.394 9.93531 13.3377C9.541 12.9665 8.98963 12.4586 8.36143 11.912C7.11794 10.8301 5.52904 9.5567 4.25614 8.91763L4.25617 8.91758L4.24982 8.91451C2.97824 8.2984 1.70374 8.95793 1.04109 9.91565C0.368588 10.8876 0.202569 12.3261 1.24662 13.4296C1.247 13.43 1.24738 13.4304 1.24777 13.4308L1.27399 13.4588C2.2178 14.4679 3.83141 16.1931 5.50162 17.6727C6.34463 18.4195 7.21448 19.1149 8.02992 19.6265C8.82634 20.1261 9.64686 20.5 10.3726 20.5C11.1387 20.5 11.7718 20.1008 12.3067 19.5466C12.8387 18.9955 13.3252 18.2386 13.8037 17.4049C14.081 16.9218 14.3578 16.41 14.6432 15.8823C15.3645 14.5486 16.1405 13.1138 17.1161 11.7879L17.1161 11.7879L17.1199 11.7827C18.4979 9.85878 20.1296 8.35506 21.3954 7.18858C21.5091 7.08387 21.6197 6.98187 21.727 6.88254C22.3593 6.29703 22.9167 5.76609 23.2184 5.31848C23.3668 5.09825 23.51 4.81862 23.4995 4.51142C23.487 4.15102 23.274 3.89206 23.0018 3.7306C22.4906 3.42743 21.7934 3.45828 21.1083 3.62214C20.3952 3.79268 19.5722 4.13696 18.7129 4.61671C16.9932 5.57684 15.0619 7.11672 13.4843 9.04582C11.9214 10.915 10.9986 12.1621 10.4636 12.948C10.3162 13.1645 10.198 13.3464 10.1038 13.497Z" stroke="#FCFCFC" stroke-opacity="0.75"/>
<path d="M14.2532 9.68522L14.2532 9.68524L14.2567 9.68094C15.7531 7.85063 17.5871 6.39057 19.2004 5.48985C20.008 5.03899 20.7437 4.73754 21.3409 4.59471C21.9583 4.44704 22.3215 4.49387 22.4857 4.58724C22.4718 4.6218 22.4442 4.67798 22.3892 4.7596C22.166 5.09066 21.7074 5.5378 21.0476 6.14879C20.9402 6.24819 20.8287 6.35097 20.7134 6.45716C19.4525 7.61855 17.7493 9.18736 16.3088 11.1978C15.2899 12.583 14.4607 14.116 13.7295 15.4679C13.4527 15.9795 13.19 16.4652 12.9364 16.907C12.4638 17.7304 12.028 18.3955 11.5872 18.8521C11.1495 19.3057 10.7593 19.5 10.3726 19.5C9.94546 19.5 9.32969 19.2614 8.56134 18.7794C7.81199 18.3093 6.98856 17.654 6.16472 16.9242C4.52989 15.4759 2.94232 13.7786 1.99637 12.7673L1.97595 12.7454L1.97595 12.7454L1.97381 12.7431C1.32825 12.0616 1.39292 11.1647 1.86344 10.4846C2.34334 9.79104 3.12322 9.48184 3.81079 9.81299C4.9585 10.3901 6.46143 11.5844 7.70502 12.6664C8.32096 13.2024 8.86241 13.7011 9.24988 14.0658C9.44352 14.2481 9.59846 14.3967 9.70474 14.4995C9.75787 14.5509 9.79882 14.5908 9.82635 14.6177L9.85741 14.6482L9.86509 14.6557L9.86692 14.6575L9.86732 14.6579L9.86738 14.658L9.8674 14.658L10.3828 15.1674L10.6749 14.5075L10.6749 14.5074L10.6766 14.5038C10.6792 14.4983 10.6845 14.4876 10.6929 14.4712C10.7097 14.4384 10.739 14.3835 10.7849 14.3037C10.8768 14.1442 11.0344 13.8866 11.2903 13.5107C11.8023 12.7585 12.7044 11.5374 14.2532 9.68522Z" fill="url(#paint0_linear_1853_15963)" stroke="#919191"/>
</g>
<defs>
<linearGradient id="paint0_linear_1853_15963" x1="12" y1="4" x2="12" y2="20" gradientUnits="userSpaceOnUse">
<stop stop-color="#F4F7F6"/>
<stop offset="1" stop-color="#D8D8D8"/>
</linearGradient>
<clipPath id="clip0_1853_15963">
<rect width="24" height="24" fill="white"/>
</clipPath>
</defs>
</svg>
