<svg width="24" height="24" viewBox="0 0 24 24" fill="none" xmlns="http://www.w3.org/2000/svg">
<path d="M17 0H3V24H21V4H20V3H19V2H18V1H17V0Z" fill="#FCFCFC" fill-opacity="0.75"/>
<path d="M4 1H15V3H17V4H18V6H20V23H4V1Z" fill="url(#paint0_linear_1855_15714)"/>
<path fill-rule="evenodd" clip-rule="evenodd" d="M16 1H4V2V23H5H20V5H19V4H18V3H17V2H16V1ZM18 5H16V3H17V4H18V5ZM5 2H15V6H19V22H5V2Z" fill="#3A3A3A"/>
<g clip-path="url(#clip0_1855_15714)">
<rect y="16" width="14" height="8" fill="#FCFCFC" fill-opacity="0.75"/>
<path d="M1 17H6V20H5V18H2V22H5V20H6V22V23H1V17Z" fill="#00A1DB"/>
<path d="M13 23L8 23L8 22L8 20L9 20L9 22L12 22L12 18L9 18L9 20L8 20L8 18L8 17L13 17L13 23Z" fill="#00A1DB"/>
<path d="M3 19H11V21H3V19Z" fill="#00A1DB"/>
</g>
<defs>
<linearGradient id="paint0_linear_1855_15714" x1="12" y1="1" x2="12" y2="23" gradientUnits="userSpaceOnUse">
<stop stop-color="#FCFCFC"/>
<stop offset="1" stop-color="#E6EAEA"/>
</linearGradient>
<clipPath id="clip0_1855_15714">
<rect width="14" height="8" fill="white" transform="translate(0 16)"/>
</clipPath>
</defs>
</svg>
