<svg width="24" height="24" viewBox="0 0 24 24" fill="none" xmlns="http://www.w3.org/2000/svg">
<g clip-path="url(#clip0_1855_15760)">
<rect y="1" width="24" height="22" fill="#FCFCFC" fill-opacity="0.75"/>
<g clip-path="url(#clip1_1855_15760)">
<path fill-rule="evenodd" clip-rule="evenodd" d="M7 2H1V22H7V2ZM6 4H2V10H6V4ZM2 15H6V16H2V15ZM6 18H2V19H6V18Z" fill="#919191"/>
<rect x="1" y="21" width="6" height="1" fill="#3A3A3A"/>
<rect x="1" y="2" width="6" height="1" fill="#3A3A3A"/>
<rect x="6" y="2" width="1" height="20" fill="#3A3A3A"/>
<rect x="1" y="2" width="1" height="20" fill="#3A3A3A"/>
</g>
<g clip-path="url(#clip2_1855_15760)">
<path fill-rule="evenodd" clip-rule="evenodd" d="M15 2H9V22H15V2ZM14 4H10V10H14V4ZM10 15H14V16H10V15ZM14 18H10V19H14V18Z" fill="#919191"/>
<rect x="9" y="21" width="6" height="1" fill="#3A3A3A"/>
<rect x="9" y="2" width="6" height="1" fill="#3A3A3A"/>
<rect x="14" y="2" width="1" height="20" fill="#3A3A3A"/>
<rect x="9" y="2" width="1" height="20" fill="#3A3A3A"/>
</g>
<g clip-path="url(#clip3_1855_15760)">
<path fill-rule="evenodd" clip-rule="evenodd" d="M23 2H17V22H23V2ZM22 4H18V10H22V4ZM18 15H22V16H18V15ZM22 18H18V19H22V18Z" fill="#919191"/>
<rect x="17" y="21" width="6" height="1" fill="#3A3A3A"/>
<rect x="17" y="2" width="6" height="1" fill="#3A3A3A"/>
<rect x="22" y="2" width="1" height="20" fill="#3A3A3A"/>
<rect x="17" y="2" width="1" height="20" fill="#3A3A3A"/>
</g>
<g clip-path="url(#clip4_1855_15760)">
<rect y="16" width="14" height="8" fill="#FCFCFC" fill-opacity="0.75"/>
<path d="M1 17H6V20H5V18H2V22H5V20H6V22V23H1V17Z" fill="#00A1DB"/>
<path d="M13 23L8 23L8 22L8 20L9 20L9 22L12 22L12 18L9 18L9 20L8 20L8 18L8 17L13 17L13 23Z" fill="#00A1DB"/>
<path d="M3 19H11V21H3V19Z" fill="#00A1DB"/>
</g>
</g>
<defs>
<clipPath id="clip0_1855_15760">
<rect width="24" height="24" fill="white"/>
</clipPath>
<clipPath id="clip1_1855_15760">
<rect width="6" height="20" fill="white" transform="translate(1 2)"/>
</clipPath>
<clipPath id="clip2_1855_15760">
<rect width="6" height="20" fill="white" transform="translate(9 2)"/>
</clipPath>
<clipPath id="clip3_1855_15760">
<rect width="6" height="20" fill="white" transform="translate(17 2)"/>
</clipPath>
<clipPath id="clip4_1855_15760">
<rect width="14" height="8" fill="white" transform="translate(0 16)"/>
</clipPath>
</defs>
</svg>
