<svg width="24" height="24" viewBox="0 0 24 24" fill="none" xmlns="http://www.w3.org/2000/svg">
<path d="M0 2H7V6H11V10H0V2Z" fill="#0C121C"/>
<path d="M8 5L8 2L11 5L8 5Z" fill="#0C121C"/>
<path d="M13 12H20V16H24V20H13V12Z" fill="#0C121C"/>
<path d="M21 15L21 12L24 15L21 15Z" fill="#0C121C"/>
<path d="M5.23223 18.7678C6.20854 19.7441 7.79146 19.7441 8.76777 18.7678C9.74408 17.7915 9.74408 16.2085 8.76777 15.2322C7.79146 14.2559 6.20854 14.2559 5.23223 15.2322C4.25592 16.2085 4.25592 17.7915 5.23223 18.7678Z" stroke="#0C121C"/>
<path d="M6 19L5 18L3 20L4 21L6 19Z" fill="#0C121C"/>
<path d="M4.5 21L3 19.5L0 22.5L1.5 24L4.5 21Z" fill="#0C121C"/>
</svg>
