<svg width="24" height="24" viewBox="0 0 24 24" fill="none" xmlns="http://www.w3.org/2000/svg">
<path fill-rule="evenodd" clip-rule="evenodd" d="M7.84555 21.9675C8.06078 21.989 8.2791 22 8.5 22C12.0899 22 15 19.0899 15 15.5C15 11.9101 12.0899 9 8.5 9C4.91015 9 2 11.9101 2 15.5C2 16.1568 2.0974 16.7908 2.27855 17.3883C2.79994 17.1394 3.38369 17 4 17H5V14L12 19L7.84555 21.9675ZM0 12H1.86505C3.12254 9.6211 5.62196 8 8.5 8C9.0137 8 9.51534 8.05165 10 8.15003V2H0V12ZM14.4999 20H23.9993L15.9993 4L13.1797 9.63926C14.8984 11.0136 15.9993 13.1282 15.9993 15.5C15.9993 17.1884 15.4414 18.7465 14.4999 20Z" fill="#0C121C"/>
<path d="M7 19L5 19C3 19 1 20 1 23L1 24" stroke="#0C121C" stroke-width="2"/>
<path d="M10 19.0034L5.99805 16L5.99805 22.0002L10 19.0034Z" fill="#0C121C"/>
</svg>
