<svg width="24" height="24" viewBox="0 0 24 24" fill="none" xmlns="http://www.w3.org/2000/svg">
<g clip-path="url(#clip0_1856_15530)">
<g clip-path="url(#clip1_1856_15530)">
<rect x="-16" y="1" width="24" height="22" fill="#FCFCFC" fill-opacity="0.75"/>
<rect x="-14.5" y="4.5" width="21" height="17" fill="#FCFCFC" stroke="#919191"/>
<rect x="-14.5" y="2.5" width="21" height="3" fill="#94E1FC" stroke="#3A3A3A"/>
<rect x="-14" y="3" width="20" height="1" fill="#00A1DB"/>
</g>
<g clip-path="url(#clip2_1856_15530)">
<rect x="16" y="4" width="16" height="16" fill="#FCFCFC" fill-opacity="0.75"/>
<rect x="17.5" y="7.5" width="13" height="11" fill="#FCFCFC" stroke="#00A1DB"/>
<rect x="17.5" y="5.5" width="13" height="3" fill="#94E1FC" stroke="#00A1DB"/>
</g>
<g clip-path="url(#clip3_1856_15530)">
<rect x="11" y="21" width="2" height="3" fill="#00A1DB"/>
<rect x="10.5" y="20.5" width="3" height="4" stroke="#FCFCFC" stroke-opacity="0.75"/>
<rect x="11" y="14" width="2" height="3" fill="#00A1DB"/>
<rect x="10.5" y="13.5" width="3" height="4" stroke="#FCFCFC" stroke-opacity="0.75"/>
<rect x="11" y="7" width="2" height="3" fill="#00A1DB"/>
<rect x="10.5" y="6.5" width="3" height="4" stroke="#FCFCFC" stroke-opacity="0.75"/>
<rect x="11" width="2" height="3" fill="#00A1DB"/>
<rect x="10.5" y="-0.5" width="3" height="4" stroke="#FCFCFC" stroke-opacity="0.75"/>
</g>
<rect y="9" width="4" height="2" fill="#D8D8D8"/>
<rect y="13" width="4" height="2" fill="#D8D8D8"/>
<rect y="17" width="4" height="2" fill="#D8D8D8"/>
<rect x="20" y="11" width="3" height="2" fill="#D8D8D8"/>
<rect x="20" y="14" width="3" height="2" fill="#D8D8D8"/>
</g>
<defs>
<clipPath id="clip0_1856_15530">
<rect width="24" height="24" fill="white"/>
</clipPath>
<clipPath id="clip1_1856_15530">
<rect width="24" height="22" fill="white" transform="translate(-16 1)"/>
</clipPath>
<clipPath id="clip2_1856_15530">
<rect width="16" height="16" fill="white" transform="translate(16 4)"/>
</clipPath>
<clipPath id="clip3_1856_15530">
<rect width="4" height="24" fill="white" transform="translate(10)"/>
</clipPath>
</defs>
</svg>
