<svg width="24" height="24" viewBox="0 0 24 24" fill="none" xmlns="http://www.w3.org/2000/svg">
<path fill-rule="evenodd" clip-rule="evenodd" d="M24 2H0V6H24V2ZM24 7H0V22H24V7ZM5 15C5 13.5534 5.25534 12.9639 5.64018 12.6432C6.09037 12.2681 7.00498 12 9 12V10C6.99502 10 5.40963 10.2319 4.35982 11.1068C3.24466 12.0361 3 13.4466 3 15C3 16.5534 3.24466 17.9639 4.35982 18.8932C5.40963 19.7681 6.99502 20 9 20V18C7.00498 18 6.09037 17.7319 5.64018 17.3568C5.25534 17.0361 5 16.4466 5 15ZM15 10H17L20 20H18L15 10ZM14 18V16H12V18H14ZM12 14V12H14V14H12ZM23 3H21V5H23V3ZM17 3H19V5H17V3ZM15 3H13V5H15V3Z" fill="#0C121C"/>
</svg>
