<svg width="24" height="24" viewBox="0 0 24 24" fill="none" xmlns="http://www.w3.org/2000/svg">
<g clip-path="url(#clip0_1857_15597)">
<g clip-path="url(#clip1_1857_15597)">
<path d="M13.9248 1L13.4065 7.03571L18 10.6748L12.1974 12.289L10.012 18L6.94412 12.9619L1 12.8524L4.90652 8.12451L3.41823 2.34583L8.9005 4.46192L13.9248 1Z" fill="#FCFCFC" fill-opacity="0.75"/>
<path d="M14.423 1.04278L14.5136 -0.0129168L13.6411 0.588274L8.83423 3.90038L3.59827 1.87938L2.69165 1.52943L2.93403 2.47054L4.35877 8.00246L0.614554 12.5339L-0.0458834 13.3332L0.99079 13.3523L6.66004 13.4568L9.58498 18.2601L10.1149 19.1303L10.479 18.1787L12.5743 12.7031L18.134 11.1565L19.0808 10.8931L18.3105 10.2829L13.9277 6.8107L14.423 1.04278Z" stroke="#FCFCFC" stroke-opacity="0.75"/>
<path d="M12.5 11.5L23 21L21 23L11.5 12.5L12.5 11.5Z" fill="#00A1DB"/>
<path d="M12.8355 11.1292L12.4828 10.8101L12.1464 11.1464L11.1464 12.1464L10.8101 12.4828L11.1292 12.8355L20.6292 23.3355L20.9819 23.7252L21.3536 23.3536L23.3536 21.3536L23.7252 20.9819L23.3355 20.6292L12.8355 11.1292Z" stroke="#FCFCFC" stroke-opacity="0.75"/>
<path d="M13.336 2.01292L12.9084 6.99293L12.8854 7.26072L13.096 7.42763L16.9192 10.4565L12.0634 11.8073L11.8205 11.8749L11.7304 12.1103L9.90918 16.8697L7.37117 12.7019L7.22819 12.4671L6.95333 12.462L2.04588 12.3716L5.29197 8.443L5.45427 8.24656L5.39072 7.99981L4.14481 3.16224L8.72046 4.92837L8.96678 5.02345L9.1842 4.87364L13.336 2.01292Z" fill="#94E1FC" stroke="#00A1DB"/>
</g>
</g>
<defs>
<clipPath id="clip0_1857_15597">
<rect width="24" height="24" fill="white"/>
</clipPath>
<clipPath id="clip1_1857_15597">
<rect width="24" height="24" fill="white"/>
</clipPath>
</defs>
</svg>
