<svg width="24" height="24" viewBox="0 0 24 24" fill="none" xmlns="http://www.w3.org/2000/svg">
<g clip-path="url(#clip0_1859_15413)">
<circle cx="12" cy="6" r="5" fill="#FCFCFC" fill-opacity="0.75"/>
<circle cx="12" cy="6" r="5.5" stroke="#FCFCFC" stroke-opacity="0.75"/>
<path d="M2 21C2 16.5817 5.58172 13 10 13H14C18.4183 13 22 16.5817 22 21V23H17V20H15V23H9V20H7V23H2V21Z" fill="#FCFCFC" fill-opacity="0.75"/>
<path d="M22 23.5H22.5V23V21C22.5 16.3056 18.6944 12.5 14 12.5H10C5.30558 12.5 1.5 16.3056 1.5 21V23V23.5H2H7H7.5V23V20.5H8.5V23V23.5H9H15H15.5V23V20.5H16.5V23V23.5H17H22Z" stroke="#FCFCFC" stroke-opacity="0.75"/>
<circle cx="12" cy="6" r="4.5" fill="url(#paint0_linear_1859_15413)" stroke="#919191"/>
<path d="M6.5 20V22.5H2.5V21C2.5 16.8579 5.85786 13.5 10 13.5H14C18.1421 13.5 21.5 16.8579 21.5 21V22.5H17.5V20V19.5H17H15H14.5V20V22.5H9.5V20V19.5H9H7H6.5V20Z" fill="url(#paint1_linear_1859_15413)" stroke="#919191"/>
</g>
<defs>
<linearGradient id="paint0_linear_1859_15413" x1="17" y1="6.45455" x2="7" y2="6.45455" gradientUnits="userSpaceOnUse">
<stop stop-color="#F4F7F6"/>
<stop offset="1" stop-color="#D8D8D8"/>
</linearGradient>
<linearGradient id="paint1_linear_1859_15413" x1="22" y1="18.4545" x2="2" y2="18.4545" gradientUnits="userSpaceOnUse">
<stop stop-color="#F4F7F6"/>
<stop offset="1" stop-color="#D8D8D8"/>
</linearGradient>
<clipPath id="clip0_1859_15413">
<rect width="24" height="24" fill="white"/>
</clipPath>
</defs>
</svg>
