<svg width="24" height="24" viewBox="0 0 24 24" fill="none" xmlns="http://www.w3.org/2000/svg">
<g clip-path="url(#clip0_448_11144)">
<path fill-rule="evenodd" clip-rule="evenodd" d="M0 2H24V22H0V2ZM2 4H22V7H2V4ZM6 10H2V12H6V10ZM10 10H14V12H10V10ZM22 10H18V12H22V10ZM2 14H6V16H2V14ZM14 14H10V16H14V14ZM18 14H22V16H18V14ZM6 18H2V20H6V18ZM10 18H14V20H10V18ZM22 18H18V20H22V18Z" fill="#0C121C"/>
</g>
<defs>
<clipPath id="clip0_448_11144">
<rect width="24" height="24" fill="white"/>
</clipPath>
</defs>
</svg>
