<svg width="24" height="24" viewBox="0 0 24 24" fill="none" xmlns="http://www.w3.org/2000/svg">
<g clip-path="url(#clip0_1863_15569)">
<rect x="1" y="1" width="22" height="22" fill="#FCFCFC" fill-opacity="0.75"/>
<rect x="2.5" y="2.5" width="19" height="19" fill="#FCFCFC" stroke="#919191"/>
<rect x="5" y="5" width="14" height="14" fill="url(#paint0_linear_1863_15569)"/>
<path d="M5 9V19H19L5 9Z" fill="url(#paint1_linear_1863_15569)"/>
<path d="M19 12V19H7L19 12Z" fill="url(#paint2_linear_1863_15569)"/>
</g>
<g clip-path="url(#clip1_1863_15569)">
<path d="M6 19L5 18L3.5 19.5L4.5 20.5L6 19Z" fill="#3A3A3A"/>
<path d="M5 20.5L3.5 19L1 21.5L2.5 23L5 20.5Z" fill="#3A3A3A"/>
<path d="M5.52981 20.1773C6.82377 20.7759 8.40801 20.5417 9.47487 19.4749C10.8417 18.108 10.8417 15.892 9.47487 14.5251C8.10804 13.1583 5.89196 13.1583 4.52513 14.5251C3.45827 15.592 3.22413 17.1762 3.8227 18.4702L3.75 18.5429L3.5 18.2929L3.14645 18.6464L0.646447 21.1464L0.292893 21.5L0.646447 21.8536L2.14645 23.3536L2.5 23.7071L2.85355 23.3536L5.35355 20.8536L5.70711 20.5L5.45711 20.25L5.52981 20.1773Z" stroke="#FCFCFC" stroke-opacity="0.75"/>
<path d="M5.23223 18.7678C6.20854 19.7441 7.79146 19.7441 8.76777 18.7678C9.74408 17.7915 9.74408 16.2085 8.76777 15.2322C7.79146 14.2559 6.20854 14.2559 5.23223 15.2322C4.25592 16.2085 4.25592 17.7915 5.23223 18.7678Z" stroke="#3A3A3A"/>
<path d="M5.93934 18.0607C6.52513 18.6464 7.47487 18.6464 8.06066 18.0607C8.64645 17.4749 8.64645 16.5251 8.06066 15.9393C7.47487 15.3536 6.52513 15.3536 5.93934 15.9393C5.35355 16.5251 5.35355 17.4749 5.93934 18.0607Z" stroke="#FCFCFC" stroke-opacity="0.75"/>
<path d="M6 19L5 18L3.5 19.5L4.5 20.5L6 19Z" fill="#3A3A3A"/>
<path d="M5 20.5L3.5 19L1 21.5L2.5 23L5 20.5Z" fill="#3A3A3A"/>
</g>
<defs>
<linearGradient id="paint0_linear_1863_15569" x1="16.2778" y1="6.94444" x2="8.11111" y2="17.4444" gradientUnits="userSpaceOnUse">
<stop stop-color="#94E1FC"/>
<stop offset="1" stop-color="#FCFCFC"/>
</linearGradient>
<linearGradient id="paint1_linear_1863_15569" x1="10.25" y1="16.2727" x2="5.66291" y2="10.5331" gradientUnits="userSpaceOnUse">
<stop stop-color="#6FCF97"/>
<stop offset="1" stop-color="#27AE60"/>
</linearGradient>
<linearGradient id="paint2_linear_1863_15569" x1="18.5714" y1="12" x2="15.0283" y2="18.9416" gradientUnits="userSpaceOnUse">
<stop stop-color="#6FCF97"/>
<stop offset="1" stop-color="#219653"/>
</linearGradient>
<clipPath id="clip0_1863_15569">
<rect width="22" height="22" fill="white" transform="translate(1 1)"/>
</clipPath>
<clipPath id="clip1_1863_15569">
<rect width="11" height="11" fill="white" transform="matrix(-1 0 0 1 11 13)"/>
</clipPath>
</defs>
</svg>
