<svg width="24" height="24" viewBox="0 0 24 24" fill="none" xmlns="http://www.w3.org/2000/svg">
<g clip-path="url(#clip0_1866_15932)">
<path d="M13 1L22 5V7H13L13.0038 10H6.00377V7H2L2 4H6L6.00377 1H13Z" fill="#FCFCFC" fill-opacity="0.75"/>
<path d="M6.00377 14H2V11H22V13L13.0038 17H6.00377V14Z" fill="#FCFCFC" fill-opacity="0.75"/>
<path d="M13.0038 18H6L6.00377 23H13.0038V18Z" fill="#FCFCFC" fill-opacity="0.75"/>
<path d="M13 0.5H13.1061L13.2031 0.543094L22.2031 4.54309L22.5 4.67506V5V7V7.5H22H13.5006L13.5038 9.99937L13.5044 10.5H22H22.5V11V13V13.3249L22.2031 13.4569L13.2069 17.4569L13.1099 17.5H13.5038V18V23V23.5H13.0038H6.00377H5.50415L5.50377 23.0004L5.5 18.0004L5.49962 17.5H5.50377V17V14.5H2H1.5V14V11V10.5H2H5.50377V10V7.5H2H1.5V7L1.5 4V3.5H2H5.50063L5.50377 0.999372L5.5044 0.5H6.00377H13Z" stroke="#FCFCFC" stroke-opacity="0.75"/>
<path d="M6 4.5H2.5L2.5 6.5H6.00377H6.50377V7V9.5H12.5031L12.5 7.00063L12.4994 6.5H13H21.5V5.32494L12.8939 1.5H6.50314L6.5 4.00063L6.49937 4.5H6ZM6.00377 13.5H6.50377V14V16.5H12.8976L21.5 12.6751V11.5H2.5V13.5H6.00377ZM12.5038 18.5H6.50038L6.50339 22.5H12.5038V18.5Z" fill="url(#paint0_linear_1866_15932)" stroke="#919191"/>
</g>
<defs>
<linearGradient id="paint0_linear_1866_15932" x1="2" y1="13" x2="22" y2="13" gradientUnits="userSpaceOnUse">
<stop stop-color="#D8D8D8"/>
<stop offset="1" stop-color="#F4F7F6"/>
</linearGradient>
<clipPath id="clip0_1866_15932">
<rect width="24" height="24" fill="white"/>
</clipPath>
</defs>
</svg>
