<svg width="24" height="24" viewBox="0 0 24 24" fill="none" xmlns="http://www.w3.org/2000/svg">
<path fill-rule="evenodd" clip-rule="evenodd" d="M24 2H18V22H24V2ZM14 22H15V2H9V13V16L14 13V19V20V22ZM6 14.8V2H0V13H4V16L6 14.8ZM1 4H5V8H1V4ZM5 10H1V11H5V10ZM10 4H14V8H10V4ZM14 10H10V11H14V10ZM23 4H19V8H23V4ZM19 10H23V11H19V10ZM23 19H19V20H23V19Z" fill="#0C121C"/>
<path fill-rule="evenodd" clip-rule="evenodd" d="M8 18L13 15V24H0V14H3V18L8 15V18ZM9 20H12V22H9V20ZM8 20H5V22H8V20ZM1 20H4V22H1V20Z" fill="#0C121C"/>
</svg>
