<svg width="24" height="24" viewBox="0 0 24 24" fill="none" xmlns="http://www.w3.org/2000/svg">
<g clip-path="url(#clip0_1870_15191)">
<path d="M1 1H18V2H19V3H20V4H21V5H22V6H23V23H1V1Z" fill="#FCFCFC" fill-opacity="0.75"/>
<path d="M21 7.5H21.5V21.5H2.5V2.5H16.5V3V3.5H17H17.5V4V4.5H18H18.5V5V5.5H19H19.5V6V6.5H20H20.5V7V7.5H21Z" fill="#D8D8D8" stroke="#919191"/>
<rect x="4.5" y="9.5" width="14" height="9" fill="url(#paint0_linear_1870_15191)" stroke="#00A1DB"/>
<rect x="4" y="2" width="10" height="5" fill="#3A3A3A"/>
<rect x="5" y="2" width="2" height="4" fill="#94E1FC"/>
<rect x="8" y="2" width="2" height="4" fill="#94E1FC"/>
<rect x="11" y="2" width="2" height="4" fill="#94E1FC"/>
<g clip-path="url(#clip1_1870_15191)">
<path d="M0 13H9V15H11V24H2V22H0V13Z" fill="#FCFCFC" fill-opacity="0.75"/>
<rect x="3.5" y="16.5" width="6" height="6" fill="url(#paint1_linear_1870_15191)" stroke="#00A1DB"/>
<path d="M1 14H8V15H2V21H1V14Z" fill="#00A1DB"/>
</g>
</g>
<defs>
<linearGradient id="paint0_linear_1870_15191" x1="16.0833" y1="10.3889" x2="11.1644" y2="19.8754" gradientUnits="userSpaceOnUse">
<stop stop-color="#94E1FC"/>
<stop offset="1" stop-color="#FCFCFC"/>
</linearGradient>
<linearGradient id="paint1_linear_1870_15191" x1="8.63889" y1="16.9722" x2="4.55556" y2="22.2222" gradientUnits="userSpaceOnUse">
<stop stop-color="#94E1FC"/>
<stop offset="1" stop-color="#FCFCFC"/>
</linearGradient>
<clipPath id="clip0_1870_15191">
<rect width="24" height="24" fill="white"/>
</clipPath>
<clipPath id="clip1_1870_15191">
<rect width="11" height="11" fill="white" transform="translate(0 13)"/>
</clipPath>
</defs>
</svg>
