<svg width="24" height="24" viewBox="0 0 24 24" fill="none" xmlns="http://www.w3.org/2000/svg">
<g clip-path="url(#clip0_1870_15294)">
<path d="M24 1H0V7H2V16H0V22H2V23H10V22H14V23H22V22H24V16H10V7H14V12H16V15H20V12H22V7H24V1Z" fill="#FCFCFC" fill-opacity="0.75"/>
<rect x="-0.5" y="0.5" width="5" height="3" transform="matrix(-1 0 0 1 20 7)" fill="url(#paint0_linear_1870_15294)" stroke="#919191"/>
<rect width="2" height="2" transform="matrix(-1 0 0 1 19 12)" fill="#3A3A3A"/>
<path d="M8.5 17V7.5H3.5V17V17.5H3H1.5V20.5H3H9H16H22H22.5V17.5H9H8.5V17Z" fill="url(#paint1_linear_1870_15294)" stroke="#919191"/>
<rect width="6" height="1" transform="matrix(-1 0 0 1 21 21)" fill="#3A3A3A"/>
<rect width="6" height="1" transform="matrix(-1 0 0 1 9 21)" fill="#3A3A3A"/>
<path d="M22.5 2.5H1.5V5.5H22.5V2.5Z" fill="url(#paint2_linear_1870_15294)" stroke="#919191"/>
</g>
<defs>
<linearGradient id="paint0_linear_1870_15294" x1="6" y1="2.18182" x2="2.88306e-09" y2="2.18182" gradientUnits="userSpaceOnUse">
<stop stop-color="#F4F7F6"/>
<stop offset="1" stop-color="#D8D8D8"/>
</linearGradient>
<linearGradient id="paint1_linear_1870_15294" x1="1" y1="14.6364" x2="23" y2="14.6364" gradientUnits="userSpaceOnUse">
<stop stop-color="#F4F7F6"/>
<stop offset="1" stop-color="#D8D8D8"/>
</linearGradient>
<linearGradient id="paint2_linear_1870_15294" x1="1" y1="4.18182" x2="23" y2="4.18182" gradientUnits="userSpaceOnUse">
<stop stop-color="#F4F7F6"/>
<stop offset="1" stop-color="#D8D8D8"/>
</linearGradient>
<clipPath id="clip0_1870_15294">
<rect width="24" height="22" fill="white" transform="translate(0 1)"/>
</clipPath>
</defs>
</svg>
