<svg width="24" height="24" viewBox="0 0 24 24" fill="none" xmlns="http://www.w3.org/2000/svg">
<g clip-path="url(#clip0_1871_15002)">
<path d="M19 7H17.917C17.441 9.83771 14.973 12 12 12C9.027 12 6.55904 9.83771 6.08296 7H5V4H6.34141C7.16508 1.66962 9.38756 0 12 0C14.6124 0 16.8349 1.66962 17.6586 4H19V7Z" fill="#FCFCFC" fill-opacity="0.75"/>
<path d="M2 21C2 16.5817 5.58172 13 10 13H14C18.4183 13 22 16.5817 22 21V23H17V20H15V23H9V20H7V23H2V21Z" fill="#FCFCFC" fill-opacity="0.75"/>
<path d="M22 23.5H22.5V23V21C22.5 16.3056 18.6944 12.5 14 12.5H10C5.30558 12.5 1.5 16.3056 1.5 21V23V23.5H2H7H7.5V23V20.5H8.5V23V23.5H9H15H15.5V23V20.5H16.5V23V23.5H17H22Z" stroke="#FCFCFC" stroke-opacity="0.75"/>
<path d="M16.4439 7.5C16.2982 8.1581 15.8728 8.82098 15.2165 9.36505C14.3989 10.0428 13.261 10.5 12 10.5C10.739 10.5 9.60115 10.0428 8.78355 9.36505C8.12716 8.82098 7.70176 8.1581 7.55608 7.5H12H16.4439Z" fill="url(#paint0_linear_1871_15002)" stroke="#919191"/>
<path d="M6.5 20V22.5H2.5V21C2.5 16.8579 5.85786 13.5 10 13.5H14C18.1421 13.5 21.5 16.8579 21.5 21V22.5H17.5V20V19.5H17H15H14.5V20V22.5H9.5V20V19.5H9H7H6.5V20Z" fill="url(#paint1_linear_1871_15002)" stroke="#919191"/>
<path d="M18 5V6.00015H6V5.00015H7C7.25812 3.50436 7.69822 2.73197 9 2.00015V4.00015H11V1H13V4H15V2.00015C16.301 2.73211 16.742 3.50482 17 5H18Z" fill="#F2994A"/>
</g>
<defs>
<linearGradient id="paint0_linear_1871_15002" x1="17" y1="9.18182" x2="7" y2="9.18182" gradientUnits="userSpaceOnUse">
<stop stop-color="#F4F7F6"/>
<stop offset="1" stop-color="#D8D8D8"/>
</linearGradient>
<linearGradient id="paint1_linear_1871_15002" x1="22" y1="18.4545" x2="2" y2="18.4545" gradientUnits="userSpaceOnUse">
<stop stop-color="#F4F7F6"/>
<stop offset="1" stop-color="#D8D8D8"/>
</linearGradient>
<clipPath id="clip0_1871_15002">
<rect width="24" height="24" fill="white"/>
</clipPath>
</defs>
</svg>
