<svg width="24" height="24" viewBox="0 0 24 24" fill="none" xmlns="http://www.w3.org/2000/svg">
<g clip-path="url(#clip0_1872_15003)">
<g clip-path="url(#clip1_1872_15003)">
<path fill-rule="evenodd" clip-rule="evenodd" d="M5.50193 18.4409C6.28205 17.9951 7 17.26 7 16H8C8 17.74 6.96795 18.7549 5.99807 19.3091C5.51585 19.5847 5.03836 19.7546 4.68424 19.8558C4.50622 19.9066 4.35689 19.9408 4.25037 19.9626C4.19705 19.9734 4.15427 19.9812 4.12379 19.9865C4.10854 19.9891 4.09635 19.9911 4.08744 19.9924L4.07654 19.9941L4.07298 19.9946L4.07169 19.9948C4.07169 19.9948 4.07071 19.995 4 19.5L4.07169 19.9948L4.03553 20H3.33203V19H3.9597C3.98053 18.9964 4.01121 18.9908 4.05041 18.9828C4.1353 18.9654 4.2594 18.9371 4.40951 18.8942C4.71164 18.8079 5.10915 18.6653 5.50193 18.4409Z" fill="#00A1DB"/>
<path fill-rule="evenodd" clip-rule="evenodd" d="M4 20C5.72386 20 7 21.2761 7 23H8C8 20.7239 6.27614 19 4 19H3V20H4Z" fill="#00A1DB"/>
<path d="M3 13.5H2.5V14V18.5V19V20V20.5V23V23.5H3H4H4.5V23V20.5438C5.68375 20.7566 6.5 21.7249 6.5 23V23.5H7H8H8.5V23C8.5 21.5044 7.8312 20.2164 6.76387 19.4063C7.66209 18.7425 8.5 17.6621 8.5 16V15.5H8H7H6.5V16C6.5 17.021 5.93794 17.6159 5.25386 18.0068C4.99538 18.1545 4.7317 18.2636 4.5 18.3423V14V13.5H4H3Z" stroke="#FCFCFC" stroke-opacity="0.75"/>
<rect x="3.25" y="14.25" width="0.5" height="8.5" stroke="#00A1DB" stroke-width="0.5"/>
<path d="M7.5 16C7.5 19 4 19.5 4 19.5H3.33203" stroke="#00A1DB"/>
<path d="M7.5 23C7.5 21 6 19.5 4 19.5H3" stroke="#00A1DB"/>
</g>
<g clip-path="url(#clip2_1872_15003)">
<path d="M22 0L22 24L13 24L13 21L13 19L13 17L13 15L13 13L13 11L13 9L13 7L13 5L13 3L13 -3.49691e-07L22 0Z" fill="#FCFCFC" fill-opacity="0.75"/>
<path d="M21 1L21 23L14 23L14 20.25L14 18.4167L14 16.5833L14 14.75L14 12.9167L14 11.0833L14 9.25L14 7.41667L14 5.58333L14 3.75L14 1L21 1Z" fill="#D8D8D8"/>
<path d="M21 1L21 23L20 23L20 20.25L20 18.4167L20 16.5833L20 14.75L20 12.9167L20 11.0833L20 9.25L20 7.41667L20 5.58333L20 3.75L20 1L21 1Z" fill="#00A1DB"/>
<path d="M21 1L21 2L14 2L14 1.875L14 1.79167L14 1.70833L14 1.625L14 1.54167L14 1.45833L14 1.375L14 1.29167L14 1.20833L14 1.125L14 1L21 1Z" fill="#00A1DB"/>
<path d="M21 22L21 23L14 23L14 22.875L14 22.7917L14 22.7083L14 22.625L14 22.5417L14 22.4583L14 22.375L14 22.2917L14 22.2083L14 22.125L14 22L21 22Z" fill="#00A1DB"/>
<rect width="4" height="1" transform="matrix(-1 0 0 1 18 4)" fill="#00A1DB"/>
<rect width="4" height="1" transform="matrix(-1 0 0 1 18 7)" fill="#00A1DB"/>
<rect width="4" height="1" transform="matrix(-1 0 0 1 18 10)" fill="#00A1DB"/>
<rect width="4" height="1" transform="matrix(-1 0 0 1 18 13)" fill="#00A1DB"/>
<rect width="4" height="1" transform="matrix(-1 0 0 1 18 16)" fill="#00A1DB"/>
<rect width="4" height="1" transform="matrix(-1 0 0 1 18 19)" fill="#00A1DB"/>
</g>
</g>
<defs>
<clipPath id="clip0_1872_15003">
<rect width="24" height="24" fill="white"/>
</clipPath>
<clipPath id="clip1_1872_15003">
<rect width="7" height="11" fill="white" transform="translate(2 13)"/>
</clipPath>
<clipPath id="clip2_1872_15003">
<rect width="24" height="9" fill="white" transform="translate(13 24) rotate(-90)"/>
</clipPath>
</defs>
</svg>
