<svg width="24" height="24" viewBox="0 0 24 24" fill="none" xmlns="http://www.w3.org/2000/svg">
<path fill-rule="evenodd" clip-rule="evenodd" d="M23.9998 2H22H2H0V4V6V11V17.8146C0.48694 17.1313 1.15265 16.3443 2 15.6632V11H22V20H13.7514C13.4993 20.4724 13.0516 21.2228 12.3976 22H22H23.9998V2ZM22 4H2V6H22V4Z" fill="#0C121C"/>
<path fill-rule="evenodd" clip-rule="evenodd" d="M0 19.5C0 19.5 2.63813 15 6.49998 15C10.3618 15 13 19.5 13 19.5C13 19.5 10.4413 24 6.49998 24C2.57456 24 0 19.5 0 19.5ZM6.5 17C5.11929 17 4 18.1193 4 19.5C4 20.8807 5.11929 22 6.5 22C7.88071 22 9 20.8807 9 19.5C9 18.1193 7.88071 17 6.5 17Z" fill="#0C121C"/>
<circle cx="6.5" cy="19.5" r="1.5" fill="#0C121C"/>
</svg>
