<svg width="24" height="24" viewBox="0 0 24 24" fill="none" xmlns="http://www.w3.org/2000/svg">
<path d="M10 13H9V6H11V7H13V5H12V4H11V3H10H9V2H7V3H5V2H1V7H5V6H7V13H6V22H10V13Z" fill="#FCFCFC" fill-opacity="0.75"/>
<path d="M10 12.5H10.5V13V22V22.5H10H6H5.5V22V13V12.5H6H6.5V6.5H5.5V7V7.5H5H1H0.5V7V2V1.5H1H5H5.5V2V2.5H6.5V2V1.5H7H9H9.5V2V2.5H10H11H11.5V3V3.5H12H12.5V4V4.5H13H13.5V5V7V7.5H13H11H10.5V7V6.5H9.5V12.5H10Z" stroke="#FCFCFC" stroke-opacity="0.75"/>
<path d="M11.5 5.5H11H9H8.5V6V13V13.5H9H9.5V21.5H6.5V13.5H7H7.5V13V6V5.5H7H5H4.5V6V6.5H1.5V2.5H4.5V3V3.5H5H7H7.5V3V2.5H8.5V3V3.5H9H10H10.5V4V4.5H11H11.5V5V5.5ZM11.5 5.5V6V6.5H12.5V5.5H12H11.5Z" fill="#919191" stroke="#3A3A3A"/>
<g clip-path="url(#clip0_1875_15225)">
<path d="M15 17V16H16V15H17V14H18V7H17V3H18V2H19V4H18V6H20V4H19V2H20V3H21V7H20V14H21V15H22V16H23V21H22V22H21V18H17V22H16V21H15V20V17Z" fill="#3A3A3A"/>
<path d="M15 15.5H14.5V16V17V20V21V21.5H15H15.5V22V22.5H16H17H17.5V22V18.5H20.5V22V22.5H21H22H22.5V22V21.5H23H23.5V21V16V15.5H23H22.5V15V14.5H22H21.5V14V13.5H21H20.5V7.5H21H21.5V7V3V2.5H21H20.5V2V1.5H20H19.5H19H18.5H18H17.5V2V2.5H17H16.5V3V7V7.5H17H17.5V13.5H17H16.5V14V14.5H16H15.5V15V15.5H15ZM19 4.5H19.5V5.5H18.5V4.5H19Z" stroke="#FCFCFC" stroke-opacity="0.75"/>
</g>
<defs>
<clipPath id="clip0_1875_15225">
<rect width="10" height="22" fill="white" transform="translate(14 1)"/>
</clipPath>
</defs>
</svg>
