<svg width="24" height="24" viewBox="0 0 24 24" fill="none" xmlns="http://www.w3.org/2000/svg">
<g clip-path="url(#clip0_1878_14975)">
<g clip-path="url(#clip1_1878_14975)">
<path d="M13 23C9 23 5 21 5 17L12 17L12 16L13 16L13 8L12 8L12 7L5 7C5 3 9 1 13 1C17 1 21 3 21 7L22 7L22 8L25 8L25 16L22 16L22 17L21 17C21 21 17 23 13 23Z" fill="#FCFCFC" fill-opacity="0.75"/>
<path d="M5 16.5L4.5 16.5L4.5 17C4.5 19.194 5.60741 20.8392 7.22265 21.916C8.82307 22.983 10.9258 23.5 13 23.5C15.0742 23.5 17.1769 22.983 18.7774 21.916C20.2675 20.9226 21.3254 19.4454 21.4803 17.5L22 17.5L22.5 17.5L22.5 17L22.5 16.5L25 16.5L25.5 16.5L25.5 16L25.5 8L25.5 7.5L25 7.5L22.5 7.5L22.5 7L22.5 6.5L22 6.5L21.4803 6.5C21.3254 4.55455 20.2675 3.07738 18.7773 2.08398C17.1769 1.01703 15.0742 0.500001 13 0.500001C10.9258 0.500001 8.82307 1.01703 7.22265 2.08398C5.60741 3.1608 4.5 4.80605 4.5 7L4.5 7.5L5 7.5L11.5 7.5L11.5 8L11.5 8.5L12 8.5L12.5 8.5L12.5 15.5L12 15.5L11.5 15.5L11.5 16L11.5 16.5L5 16.5Z" stroke="#FCFCFC" stroke-opacity="0.75"/>
<path d="M5.52358 6.5C5.67312 4.94173 6.52347 3.75195 7.77735 2.91603C9.17693 1.98297 11.0742 1.5 13 1.5C14.9258 1.5 16.8231 1.98297 18.2226 2.91603C19.6074 3.8392 20.5 5.19395 20.5 7L20.5 7.5L21 7.5L21.5 7.5L21.5 8L21.5 8.5L22 8.5L24.5 8.5L24.5 15.5L22 15.5L21.5 15.5L21.5 16L21.5 16.5L21 16.5L20.5 16.5L20.5 17C20.5 18.806 19.6074 20.1608 18.2227 21.084C16.8231 22.017 14.9258 22.5 13 22.5C11.0742 22.5 9.17693 22.017 7.77735 21.084C6.52347 20.248 5.67312 19.0583 5.52358 17.5L12 17.5L12.5 17.5L12.5 17L12.5 16.5L13 16.5L13.5 16.5L13.5 16L13.5 8L13.5 7.5L13 7.5L12.5 7.5L12.5 7L12.5 6.5L12 6.5L5.52358 6.5Z" fill="url(#paint0_linear_1878_14975)" stroke="#919191"/>
</g>
<g clip-path="url(#clip2_1878_14975)">
<path d="M3 8H7V9H8V10H9V14H8V15H7V16H3V15H2V14H1V10H2V9H3V8Z" fill="#FCFCFC" fill-opacity="0.75"/>
<path d="M3 7.5H2.5V8V8.5H2H1.5V9V9.5H1H0.5V10V14V14.5H1H1.5V15V15.5H2H2.5V16V16.5H3H7H7.5V16V15.5H8H8.5V15V14.5H9H9.5V14V10V9.5H9H8.5V9V8.5H8H7.5V8V7.5H7H3Z" stroke="#FCFCFC" stroke-opacity="0.75"/>
<path d="M3.5 9V8.5H6.5V9V9.5H7H7.5V10V10.5H8H8.5V13.5H8H7.5V14V14.5H7H6.5V15V15.5H3.5V15V14.5H3H2.5V14V13.5H2H1.5V10.5H2H2.5V10V9.5H3H3.5V9Z" fill="#94E1FC" stroke="#00A1DB"/>
<rect x="4" y="11" width="2" height="2" fill="#FCFCFC"/>
</g>
</g>
<defs>
<linearGradient id="paint0_linear_1878_14975" x1="14.0909" y1="23" x2="14.0909" y2="0.999999" gradientUnits="userSpaceOnUse">
<stop stop-color="#F4F7F6"/>
<stop offset="1" stop-color="#D8D8D8"/>
</linearGradient>
<clipPath id="clip0_1878_14975">
<rect width="24" height="24" fill="white"/>
</clipPath>
<clipPath id="clip1_1878_14975">
<rect width="24" height="24" fill="white"/>
</clipPath>
<clipPath id="clip2_1878_14975">
<rect width="10" height="10" fill="white" transform="translate(0 7)"/>
</clipPath>
</defs>
</svg>
