<svg width="24" height="24" viewBox="0 0 24 24" fill="none" xmlns="http://www.w3.org/2000/svg">
<g clip-path="url(#clip0_1881_15159)">
<path d="M10 2H13L16 10V11H7V10L10 2Z" fill="#FCFCFC" fill-opacity="0.75"/>
<path d="M10 1.5H9.6535L9.53184 1.82444L6.53184 9.82444L6.5 9.90933V10V11V11.5H7H16H16.5V11V10V9.90933L16.4682 9.82444L13.4682 1.82444L13.3465 1.5H13H10Z" stroke="#FCFCFC" stroke-opacity="0.75"/>
<path d="M7.5 10.0907L10.3465 2.5H12.6535L15.5 10.0907V10.5H7.5V10.0907Z" fill="#94E1FC" stroke="#00A1DB"/>
<path d="M5 13H8L11 21V22H2V21L5 13Z" fill="#FCFCFC" fill-opacity="0.75"/>
<path d="M5 12.5H4.6535L4.53184 12.8244L1.53184 20.8244L1.5 20.9093V21V22V22.5H2H11H11.5V22V21V20.9093L11.4682 20.8244L8.46816 12.8244L8.3465 12.5H8H5Z" stroke="#FCFCFC" stroke-opacity="0.75"/>
<path d="M2.5 21.0907L5.3465 13.5H7.6535L10.5 21.0907V21.5H2.5V21.0907Z" fill="#94E1FC" stroke="#00A1DB"/>
<path d="M16 13H19L22 21V22H13V21L16 13Z" fill="#FCFCFC" fill-opacity="0.75"/>
<path d="M16 12.5H15.6535L15.5318 12.8244L12.5318 20.8244L12.5 20.9093V21V22V22.5H13H22H22.5V22V21V20.9093L22.4682 20.8244L19.4682 12.8244L19.3465 12.5H19H16Z" stroke="#FCFCFC" stroke-opacity="0.75"/>
<path d="M13.5 21.0907L16.3465 13.5H18.6535L21.5 21.0907V21.5H13.5V21.0907Z" fill="#94E1FC" stroke="#00A1DB"/>
</g>
<defs>
<clipPath id="clip0_1881_15159">
<rect width="24" height="24" fill="white"/>
</clipPath>
</defs>
</svg>
