<svg width="24" height="24" viewBox="0 0 24 24" fill="none" xmlns="http://www.w3.org/2000/svg">
<g clip-path="url(#clip0_456_14831)">
<path fill-rule="evenodd" clip-rule="evenodd" d="M12 24C18.6274 24 24 18.6274 24 12C24 5.37258 18.6274 0 12 0C5.37258 0 0 5.37258 0 12C0 18.6274 5.37258 24 12 24ZM12 20C10.0886 20 7 18.8263 7 14.7692C7 10.7121 12 3 12 3C12 3 17 10.7868 17 14.7692C17 18.7517 13.9114 20 12 20ZM8.25 14.1154C8.25 15.8079 10.0274 17.3846 10.75 17.3846V9.53846C10.75 9.53846 8.25 12.398 8.25 14.1154Z" fill="#0C121C"/>
</g>
<defs>
<clipPath id="clip0_456_14831">
<rect width="24" height="24" fill="white"/>
</clipPath>
</defs>
</svg>
