<svg width="24" height="24" viewBox="0 0 24 24" fill="none" xmlns="http://www.w3.org/2000/svg">
<g clip-path="url(#clip0_1882_14884)">
<rect y="1" width="24" height="22" fill="#FCFCFC" fill-opacity="0.75"/>
<rect x="1.5" y="4.5" width="21" height="17" fill="#FCFCFC" stroke="#919191"/>
<rect x="1.5" y="2.5" width="21" height="3" fill="#94E1FC" stroke="#3A3A3A"/>
<rect x="2" y="3" width="20" height="1" fill="#00A1DB"/>
</g>
<rect x="8" y="6" width="1" height="5" fill="#D8D8D8"/>
<rect x="8" y="10" width="1" height="6" fill="#D8D8D8"/>
<rect x="8" y="16" width="1" height="5" fill="#D8D8D8"/>
<rect x="15" y="6" width="1" height="5" fill="#D8D8D8"/>
<rect x="15" y="10" width="1" height="6" fill="#D8D8D8"/>
<rect x="15" y="16" width="1" height="5" fill="#D8D8D8"/>
<rect x="2" y="11" width="7" height="1" fill="#D8D8D8"/>
<rect x="8" y="11" width="8" height="1" fill="#D8D8D8"/>
<rect x="15" y="11" width="7" height="1" fill="#D8D8D8"/>
<rect x="2" y="16" width="7" height="1" fill="#D8D8D8"/>
<rect x="8" y="16" width="8" height="1" fill="#D8D8D8"/>
<rect x="15" y="16" width="7" height="1" fill="#D8D8D8"/>
<defs>
<clipPath id="clip0_1882_14884">
<rect width="24" height="22" fill="white" transform="translate(0 1)"/>
</clipPath>
</defs>
</svg>
