<svg width="24" height="24" viewBox="0 0 24 24" fill="none" xmlns="http://www.w3.org/2000/svg">
<g clip-path="url(#clip0_457_15041)">
<path fill-rule="evenodd" clip-rule="evenodd" d="M24 24C24 18.4772 19.5228 14 14 14H11.7468C12.5376 15.1338 13.0015 16.5128 13.0015 18C13.0015 20.5463 11.6419 22.7751 9.60904 24H17V21H19V24H24ZM12 0C8.68629 0 6 2.68629 6 6C6 9.31371 8.68629 12 12 12C15.3137 12 18 9.31371 18 6C18 2.68629 15.3137 0 12 0Z" fill="#0C121C"/>
<circle cx="6" cy="18" r="3" stroke="#0C121C" stroke-width="2"/>
<rect x="5" y="12" width="2" height="3" fill="#0C121C"/>
<rect x="1.05078" y="14.4644" width="2" height="3" transform="rotate(-45 1.05078 14.4644)" fill="#0C121C"/>
<rect x="12" y="17" width="2" height="3" transform="rotate(90 12 17)" fill="#0C121C"/>
<rect x="9.53516" y="13.0503" width="2" height="3" transform="rotate(45 9.53516 13.0503)" fill="#0C121C"/>
<rect x="5" y="21" width="2" height="3" fill="#0C121C"/>
<rect x="7.41406" y="20.8286" width="2" height="3" transform="rotate(-45 7.41406 20.8286)" fill="#0C121C"/>
<rect x="3" y="17" width="2" height="3" transform="rotate(90 3 17)" fill="#0C121C"/>
<rect x="3.17188" y="19.4141" width="2" height="3" transform="rotate(45 3.17188 19.4141)" fill="#0C121C"/>
</g>
<defs>
<clipPath id="clip0_457_15041">
<rect width="24" height="24" fill="white"/>
</clipPath>
</defs>
</svg>
