<svg width="24" height="24" viewBox="0 0 24 24" fill="none" xmlns="http://www.w3.org/2000/svg">
<g clip-path="url(#clip0_1883_14982)">
<rect y="2" width="24" height="20" fill="#FCFCFC" fill-opacity="0.75"/>
<rect x="1.5" y="3.5" width="21" height="17" fill="#FCFCFC" stroke="#919191"/>
</g>
<rect x="5" y="7" width="7" height="1" fill="#3A3A3A"/>
<rect x="12" y="7" width="7" height="1" fill="#3A3A3A"/>
<rect x="5" y="16" width="7" height="1" fill="#3A3A3A"/>
<rect x="12" y="16" width="7" height="1" fill="#3A3A3A"/>
<rect x="5" y="13" width="7" height="1" fill="#3A3A3A"/>
<rect x="12" y="13" width="7" height="1" fill="#3A3A3A"/>
<rect x="5" y="10" width="7" height="1" fill="#3A3A3A"/>
<rect x="5" y="7" width="1" height="4" fill="#3A3A3A"/>
<rect x="18" y="7" width="1" height="4" fill="#3A3A3A"/>
<rect x="12" y="10" width="7" height="1" fill="#3A3A3A"/>
<g clip-path="url(#clip1_1883_14982)">
<rect y="13" width="3" height="11" fill="#FCFCFC" fill-opacity="0.75"/>
<rect x="1" y="17" width="1" height="6" fill="#3A3A3A"/>
<rect x="1" y="14" width="1" height="2" fill="#3A3A3A"/>
</g>
<defs>
<clipPath id="clip0_1883_14982">
<rect width="24" height="20" fill="white" transform="translate(0 2)"/>
</clipPath>
<clipPath id="clip1_1883_14982">
<rect width="3" height="11" fill="white" transform="translate(0 13)"/>
</clipPath>
</defs>
</svg>
