<svg width="24" height="24" viewBox="0 0 24 24" fill="none" xmlns="http://www.w3.org/2000/svg">
<g clip-path="url(#clip0_1885_15135)">
<rect y="2" width="24" height="20" fill="#FCFCFC" fill-opacity="0.75"/>
<rect x="1.5" y="3.5" width="21" height="17" fill="#FCFCFC" stroke="#919191"/>
</g>
<rect x="5" y="7" width="7" height="1" fill="#3A3A3A"/>
<rect x="12" y="7" width="7" height="1" fill="#3A3A3A"/>
<rect x="12" y="16" width="7" height="1" fill="#3A3A3A"/>
<rect x="12" y="13" width="7" height="1" fill="#3A3A3A"/>
<rect x="5" y="10" width="7" height="1" fill="#3A3A3A"/>
<rect x="5" y="7" width="1" height="4" fill="#3A3A3A"/>
<rect x="18" y="7" width="1" height="4" fill="#3A3A3A"/>
<rect x="12" y="10" width="7" height="1" fill="#3A3A3A"/>
<g clip-path="url(#clip1_1885_15135)">
<path d="M0 12H9V13H11V23H9V24H0V12Z" fill="#FCFCFC" fill-opacity="0.75"/>
<rect x="1.5" y="13.5" width="6" height="9" fill="#D8D8D8" stroke="#919191"/>
<rect x="9" y="14" width="1" height="2" fill="#3A3A3A"/>
<rect x="3" y="16" width="3" height="1" fill="#3A3A3A"/>
<rect x="9" y="20" width="1" height="2" fill="#00A1DB"/>
<rect x="9" y="17" width="1" height="2" fill="#EA212D"/>
</g>
<defs>
<clipPath id="clip0_1885_15135">
<rect width="24" height="20" fill="white" transform="translate(0 2)"/>
</clipPath>
<clipPath id="clip1_1885_15135">
<rect width="11" height="12" fill="white" transform="translate(0 12)"/>
</clipPath>
</defs>
</svg>
