<svg width="24" height="24" viewBox="0 0 24 24" fill="none" xmlns="http://www.w3.org/2000/svg">
<g clip-path="url(#clip0_460_11321)">
<path fill-rule="evenodd" clip-rule="evenodd" d="M5 17C6.65685 17 8 15.6569 8 14C8 12.3431 6.65685 11 5 11C3.34315 11 2 12.3431 2 14C2 15.6569 3.34315 17 5 17ZM0 21C0 19.5 1.5 18 4 18H6C8.5 18 9.99981 19.5 10 21L9.99981 24H8V21H7V24H3V21H2V24H0V21Z" fill="#0C121C"/>
<path fill-rule="evenodd" clip-rule="evenodd" d="M19 17C20.6569 17 22 15.6569 22 14C22 12.3431 20.6569 11 19 11C17.3431 11 16 12.3431 16 14C16 15.6569 17.3431 17 19 17ZM14 21C14 19.5 15.5 18 18 18H20C22.5 18 23.9998 19.5 24 21L23.9998 24H22V21H21V24H17V21H16V24H14V21Z" fill="#0C121C"/>
<path fill-rule="evenodd" clip-rule="evenodd" d="M11.9985 0C10.3417 0 8.99852 1.34315 8.99852 3C8.99852 4.65685 10.3417 6 11.9985 6C13.6554 6 14.9985 4.65685 14.9985 3C14.9985 1.34315 13.6554 0 11.9985 0ZM16.9306 9.44633C16.1631 9.79542 15.4994 10.3328 14.9985 10.9995V10H13.9985V13H9.99852V10H8.99852V10.9995C8.49761 10.3328 7.8339 9.79539 7.06641 9.44631C7.38484 8.15192 8.8077 7 10.9985 7H12.9985C15.1894 7 16.6121 8.15194 16.9306 9.44633Z" fill="#0C121C"/>
</g>
<defs>
<clipPath id="clip0_460_11321">
<rect width="24" height="24" fill="white"/>
</clipPath>
</defs>
</svg>
