<svg width="24" height="24" viewBox="0 0 24 24" fill="none" xmlns="http://www.w3.org/2000/svg">
<path fill-rule="evenodd" clip-rule="evenodd" d="M24 7L19 2H0V18L2 14L2 4H17V9H22V20H9V22H24V7Z" fill="#0C121C"/>
<g clip-path="url(#clip0_461_11705)">
<path d="M0 20.9999L2 17L4 19L0 20.9999Z" fill="#0C121C"/>
<path d="M7.30469 11.6973L8.01179 12.4044L3.70909 16.7071L3.00199 16L7.30469 11.6973Z" fill="#0C121C"/>
<path d="M8.59375 13.0078L9.30086 13.7149L4.99987 18.0159L4.29276 17.3088L8.59375 13.0078Z" fill="#0C121C"/>
<path d="M10.0039 13.0195L9.2968 13.7266L7.27748 11.7073L7.98454 11.0002L10.0039 13.0195Z" fill="#0C121C"/>
</g>
<rect y="22" width="8" height="2" fill="#0C121C"/>
<defs>
<clipPath id="clip0_461_11705">
<rect width="10" height="10" fill="white" transform="translate(0 11)"/>
</clipPath>
</defs>
</svg>
