<svg width="24" height="24" viewBox="0 0 24 24" fill="none" xmlns="http://www.w3.org/2000/svg">
<g clip-path="url(#clip0_1891_14093)">
<path d="M0 1H5V4H3V10H21V4H19V1H24V15H23V17C23 19.7614 20.7614 22 18 22H16.9039C14.6095 22 12.6096 20.4385 12.0532 18.2127L12 18L11.9468 18.2127C11.3904 20.4385 9.39046 22 7.09612 22H6C3.23858 22 1 19.7614 1 17V15H0V1Z" fill="#FCFCFC" fill-opacity="0.75"/>
<path d="M2.5 11.5H10.5V16.5C10.5 18.7091 8.70914 20.5 6.5 20.5C4.29086 20.5 2.5 18.7091 2.5 16.5V11.5Z" fill="url(#paint0_linear_1891_14093)" stroke="#3A3A3A"/>
<path d="M13.5 11.5H21.5V16.5C21.5 18.7091 19.7091 20.5 17.5 20.5C15.2909 20.5 13.5 18.7091 13.5 16.5V11.5Z" fill="url(#paint1_linear_1891_14093)" stroke="#3A3A3A"/>
<rect x="11" y="13" width="2" height="1" fill="#3A3A3A"/>
<path d="M1 2H4V3H2V14H1V2Z" fill="#3A3A3A"/>
<path d="M20 2H23V14H22V3H20V2Z" fill="#3A3A3A"/>
</g>
<defs>
<linearGradient id="paint0_linear_1891_14093" x1="9.25" y1="12.3889" x2="3.29502" y2="19.2796" gradientUnits="userSpaceOnUse">
<stop stop-color="#94E1FC"/>
<stop offset="1" stop-color="#FCFCFC"/>
</linearGradient>
<linearGradient id="paint1_linear_1891_14093" x1="20.25" y1="12.3889" x2="14.295" y2="19.2796" gradientUnits="userSpaceOnUse">
<stop stop-color="#94E1FC"/>
<stop offset="1" stop-color="#FCFCFC"/>
</linearGradient>
<clipPath id="clip0_1891_14093">
<rect width="24" height="24" fill="white"/>
</clipPath>
</defs>
</svg>
