<svg width="24" height="24" viewBox="0 0 24 24" fill="none" xmlns="http://www.w3.org/2000/svg">
<g clip-path="url(#clip0_1894_14097)">
<g clip-path="url(#clip1_1894_14097)">
<path d="M1 15L0.999999 8L12 8L12 4L13 4L13 3L16 3L16 4L17 4L17 5L18 5L18 6L19 6L19 7L20 7L20 8L21 8L21 9L22 9L22 10L23 10L23 13L22 13L22 14L21 14L21 15L20 15L20 16L19 16L19 17L18 17L18 18L17 18L17 19L16 19L16 20L13 20L13 19L12 19L12 15L1 15Z" fill="#FCFCFC" fill-opacity="0.75"/>
<path d="M21 11L15 5L14 5L14 10L3 10L3 13L14 13L14 18L15 18L21 12L21 11Z" fill="url(#paint0_linear_1894_14097)"/>
<path d="M2 9L13 9V5H14V10L3 10L3 13L14 13V18H13V14L3 14H2L2 9Z" fill="#00A1DB"/>
<rect x="17" y="7" width="1" height="1" fill="#00A1DB"/>
<rect x="16" y="6" width="1" height="1" fill="#00A1DB"/>
<rect x="17" y="15" width="1" height="1" fill="#00A1DB"/>
<rect x="18" y="14" width="1" height="1" fill="#00A1DB"/>
<rect x="19" y="13" width="1" height="1" fill="#00A1DB"/>
<rect x="20" y="12" width="1" height="1" fill="#00A1DB"/>
<rect x="18" y="8" width="1" height="1" fill="#00A1DB"/>
<rect x="19" y="9" width="1" height="1" fill="#00A1DB"/>
<rect x="21" y="11" width="1" height="1" fill="#00A1DB"/>
<rect x="16" y="16" width="1" height="1" fill="#00A1DB"/>
<rect x="20" y="10" width="1" height="1" fill="#00A1DB"/>
<rect x="15" y="17" width="1" height="1" fill="#00A1DB"/>
<rect x="14" y="18" width="1" height="1" fill="#00A1DB"/>
<rect x="15" y="5" width="1" height="1" fill="#00A1DB"/>
<rect x="14" y="4" width="1" height="1" fill="#00A1DB"/>
</g>
</g>
<defs>
<linearGradient id="paint0_linear_1894_14097" x1="6.5" y1="6.80556" x2="13.1817" y2="18.7004" gradientUnits="userSpaceOnUse">
<stop stop-color="#94E1FC"/>
<stop offset="1" stop-color="#FCFCFC"/>
</linearGradient>
<clipPath id="clip0_1894_14097">
<rect width="24" height="24" fill="white"/>
</clipPath>
<clipPath id="clip1_1894_14097">
<rect width="24" height="17" fill="white" transform="translate(0 3)"/>
</clipPath>
</defs>
</svg>
