<svg width="24" height="24" viewBox="0 0 24 24" fill="none" xmlns="http://www.w3.org/2000/svg">
<g clip-path="url(#clip0_1897_14281)">
<rect y="1" width="24" height="22" fill="#FCFCFC" fill-opacity="0.75"/>
<rect x="1.5" y="7.5" width="21" height="14" fill="url(#paint0_linear_1897_14281)" stroke="#919191"/>
<path d="M1 2H23V5H22V3H20V5H18V3H16V5H14V3H12V5H1V2Z" fill="#3A3A3A"/>
<rect x="1" y="5" width="22" height="1" fill="#3A3A3A"/>
<g clip-path="url(#clip1_1897_14281)">
<path d="M8 13C8 10.7909 9.79086 9 12 9C14.2091 9 16 10.7909 16 13V13.117C16 14.8387 14.8983 16.3672 13.2649 16.9117L13 17V20H10V14H8V13Z" fill="#FCFCFC" fill-opacity="0.75"/>
<rect x="11.25" y="18.25" width="0.5" height="0.5" stroke="#3A3A3A" stroke-width="0.5"/>
<path d="M9.5 13C9.5 12 10 10.5 12 10.5C14 10.5 14.5 12 14.5 13C14.5 15.5 11.5 15.5 11.5 15.5L11.5 17" stroke="#3A3A3A"/>
</g>
</g>
<defs>
<linearGradient id="paint0_linear_1897_14281" x1="12" y1="7" x2="12" y2="22" gradientUnits="userSpaceOnUse">
<stop stop-color="#FCFCFC"/>
<stop offset="1" stop-color="#E6EAEA"/>
</linearGradient>
<clipPath id="clip0_1897_14281">
<rect width="24" height="24" fill="white"/>
</clipPath>
<clipPath id="clip1_1897_14281">
<rect width="8" height="11" fill="white" transform="translate(8 9)"/>
</clipPath>
</defs>
</svg>
