<svg width="24" height="24" viewBox="0 0 24 24" fill="none" xmlns="http://www.w3.org/2000/svg">
<g clip-path="url(#clip0_1897_14319)">
<g clip-path="url(#clip1_1897_14319)">
<path d="M23 15L23 8L12 8L12 4L11 4L11 3L8 3L8 4L7 4L7 5L6 5L6 6L5 6L5 7L4 7L4 8L3 8L3 9L2 9L2 10L1 10L1 13L2 13L2 14L3 14L3 15L4 15L4 16L5 16L5 17L6 17L6 18L7 18L7 19L8 19L8 20L11 20L11 19L12 19L12 15L23 15Z" fill="#FCFCFC" fill-opacity="0.75"/>
<path d="M3 11L9 5L10 5L10 10L21 10L21 13L10 13L10 18L9 18L3 12L3 11Z" fill="url(#paint0_linear_1897_14319)"/>
<path d="M22 9L11 9V5H10V10L21 10V13L10 13V18H11V14L21 14H22V9Z" fill="#C10D3B"/>
<rect width="1" height="1" transform="matrix(-1 0 0 1 7 7)" fill="#C10D3B"/>
<rect width="1" height="1" transform="matrix(-1 0 0 1 8 6)" fill="#C10D3B"/>
<rect width="1" height="1" transform="matrix(-1 0 0 1 7 15)" fill="#C10D3B"/>
<rect width="1" height="1" transform="matrix(-1 0 0 1 6 14)" fill="#C10D3B"/>
<rect width="1" height="1" transform="matrix(-1 0 0 1 5 13)" fill="#C10D3B"/>
<rect width="1" height="1" transform="matrix(-1 0 0 1 4 12)" fill="#C10D3B"/>
<rect width="1" height="1" transform="matrix(-1 0 0 1 6 8)" fill="#C10D3B"/>
<rect width="1" height="1" transform="matrix(-1 0 0 1 5 9)" fill="#C10D3B"/>
<rect width="1" height="1" transform="matrix(-1 0 0 1 3 11)" fill="#C10D3B"/>
<rect width="1" height="1" transform="matrix(-1 0 0 1 8 16)" fill="#C10D3B"/>
<rect width="1" height="1" transform="matrix(-1 0 0 1 4 10)" fill="#C10D3B"/>
<rect width="1" height="1" transform="matrix(-1 0 0 1 9 17)" fill="#C10D3B"/>
<rect width="1" height="1" transform="matrix(-1 0 0 1 10 18)" fill="#C10D3B"/>
<rect width="1" height="1" transform="matrix(-1 0 0 1 9 5)" fill="#C10D3B"/>
<rect width="1" height="1" transform="matrix(-1 0 0 1 10 4)" fill="#C10D3B"/>
</g>
</g>
<defs>
<linearGradient id="paint0_linear_1897_14319" x1="5.7" y1="19" x2="21.3487" y2="10.4643" gradientUnits="userSpaceOnUse">
<stop stop-color="#FFBEC2"/>
<stop offset="1" stop-color="#EA212D"/>
</linearGradient>
<clipPath id="clip0_1897_14319">
<rect width="24" height="24" fill="white"/>
</clipPath>
<clipPath id="clip1_1897_14319">
<rect width="24" height="17" fill="white" transform="matrix(-1 0 0 1 24 3)"/>
</clipPath>
</defs>
</svg>
