<svg width="24" height="24" viewBox="0 0 24 24" fill="none" xmlns="http://www.w3.org/2000/svg">
<g clip-path="url(#clip0_1897_14408)">
<rect y="1" width="24" height="22" fill="#FCFCFC" fill-opacity="0.75"/>
<rect x="1.5" y="2.5" width="21" height="5" fill="url(#paint0_linear_1897_14408)" stroke="#919191"/>
<rect x="20" y="5" width="1" height="1" fill="#3A3A3A"/>
<rect x="18" y="5" width="1" height="1" fill="#3A3A3A"/>
<rect x="16" y="5" width="1" height="1" fill="#3A3A3A"/>
<rect x="1.5" y="9.5" width="21" height="5" fill="url(#paint1_linear_1897_14408)" stroke="#919191"/>
<rect x="20" y="12" width="1" height="1" fill="#3A3A3A"/>
<rect x="18" y="12" width="1" height="1" fill="#3A3A3A"/>
<rect x="16" y="12" width="1" height="1" fill="#3A3A3A"/>
<rect x="1.5" y="16.5" width="21" height="5" fill="url(#paint2_linear_1897_14408)" stroke="#919191"/>
<rect x="20" y="19" width="1" height="1" fill="#3A3A3A"/>
<rect x="18" y="19" width="1" height="1" fill="#3A3A3A"/>
<rect x="16" y="19" width="1" height="1" fill="#3A3A3A"/>
</g>
<defs>
<linearGradient id="paint0_linear_1897_14408" x1="12" y1="2" x2="12" y2="8" gradientUnits="userSpaceOnUse">
<stop stop-color="#F4F7F6"/>
<stop offset="1" stop-color="#D8D8D8"/>
</linearGradient>
<linearGradient id="paint1_linear_1897_14408" x1="12" y1="9" x2="12" y2="15" gradientUnits="userSpaceOnUse">
<stop stop-color="#F4F7F6"/>
<stop offset="1" stop-color="#D8D8D8"/>
</linearGradient>
<linearGradient id="paint2_linear_1897_14408" x1="12" y1="16" x2="12" y2="22" gradientUnits="userSpaceOnUse">
<stop stop-color="#F4F7F6"/>
<stop offset="1" stop-color="#D8D8D8"/>
</linearGradient>
<clipPath id="clip0_1897_14408">
<rect width="24" height="24" fill="white"/>
</clipPath>
</defs>
</svg>
