<svg width="24" height="24" viewBox="0 0 24 24" fill="none" xmlns="http://www.w3.org/2000/svg">
<g clip-path="url(#clip0_463_12150)">
<path fill-rule="evenodd" clip-rule="evenodd" d="M14 18C14 19.1046 13.1046 20 12 20C10.8954 20 10 19.1046 10 18C10 16.8954 10.8954 16 12 16C13.1046 16 14 16.8954 14 18ZM20 10H17V6C17 3.23858 14.7614 1 12 1C9.23858 1 7 3.23858 7 6V10H4V23H20V10ZM15 6V10H9V6C9 4.34315 10.3431 3 12 3C13.6569 3 15 4.34315 15 6Z" fill="#0C121C"/>
</g>
<defs>
<clipPath id="clip0_463_12150">
<rect width="24" height="24" fill="white"/>
</clipPath>
</defs>
</svg>
