<svg width="24" height="24" viewBox="0 0 24 24" fill="none" xmlns="http://www.w3.org/2000/svg">
<g clip-path="url(#clip0_463_12165)">
<path fill-rule="evenodd" clip-rule="evenodd" d="M24 2H0V22H5.00188L5 20H9.00188V22H24V2ZM22 4H2V7H22V4ZM18 10H22V12H18V10ZM22 14H18V16H22V14ZM18 18H22V20H18V18ZM8 10L13 12V13H9L9.00188 15H5.00188V13H3L3 12H5L5.00188 10H8ZM5.00188 17H3V16H13V17L9.00188 19H5.00188V17Z" fill="#0C121C"/>
</g>
<defs>
<clipPath id="clip0_463_12165">
<rect width="24" height="24" fill="white"/>
</clipPath>
</defs>
</svg>
