<svg width="24" height="24" viewBox="0 0 24 24" fill="none" xmlns="http://www.w3.org/2000/svg">
<g clip-path="url(#clip0_1899_14061)">
<path d="M4 1V0H21V1H22V23H21V24H4V23H3V1H4Z" fill="#FCFCFC" fill-opacity="0.75"/>
<path d="M5 2.5H5.5V2V1.5H19.5V2V2.5H20H20.5V21.5H20H19.5V22V22.5H5.5V22V21.5H5H4.5V2.5H5Z" fill="url(#paint0_linear_1899_14061)" stroke="#919191"/>
<rect x="4.5" y="2.5" width="16" height="6" fill="url(#paint1_linear_1899_14061)" stroke="#919191"/>
<rect x="17" y="4" width="1" height="3" fill="#919191"/>
<rect x="7" y="10" width="3" height="2" fill="#3A3A3A"/>
<rect x="11" y="14" width="3" height="2" fill="#3A3A3A"/>
<rect x="11" y="10" width="3" height="2" fill="#3A3A3A"/>
<rect x="15" y="10" width="3" height="2" fill="#3A3A3A"/>
<rect x="15" y="18" width="3" height="2" fill="#3A3A3A"/>
<rect x="15" y="14" width="3" height="2" fill="#3A3A3A"/>
<rect x="7" y="10" width="3" height="1" fill="#919191"/>
<rect x="11" y="10" width="3" height="1" fill="#919191"/>
<rect x="11" y="14" width="3" height="1" fill="#919191"/>
<rect x="15" y="10" width="3" height="1" fill="#919191"/>
<rect x="15" y="14" width="3" height="1" fill="#919191"/>
<rect x="15" y="18" width="3" height="1" fill="#919191"/>
<g clip-path="url(#clip1_1899_14061)">
<path d="M1 17H3V13H8V17H10V19H11V24H6H5H0V19H1V17Z" fill="#FCFCFC" fill-opacity="0.75"/>
<rect x="2" y="18" width="1" height="3" fill="#00A1DB"/>
<rect x="8" y="18" width="1" height="3" fill="#00A1DB"/>
<rect x="2" y="18" width="7" height="1" fill="#00A1DB"/>
<rect x="5" y="15" width="1" height="4" fill="#00A1DB"/>
<rect x="7.5" y="20.5" width="2" height="2" fill="#94E1FC" stroke="#00A1DB"/>
<rect x="4.5" y="14.5" width="2" height="2" fill="#94E1FC" stroke="#00A1DB"/>
<rect x="1.5" y="20.5" width="2" height="2" fill="#94E1FC" stroke="#00A1DB"/>
</g>
</g>
<defs>
<linearGradient id="paint0_linear_1899_14061" x1="12.5" y1="1" x2="12.5" y2="23" gradientUnits="userSpaceOnUse">
<stop stop-color="#F4F7F6"/>
<stop offset="1" stop-color="#D8D8D8"/>
</linearGradient>
<linearGradient id="paint1_linear_1899_14061" x1="17.6944" y1="2.97222" x2="15.247" y2="10.6143" gradientUnits="userSpaceOnUse">
<stop stop-color="#94E1FC"/>
<stop offset="1" stop-color="#FCFCFC"/>
</linearGradient>
<clipPath id="clip0_1899_14061">
<rect width="24" height="24" fill="white"/>
</clipPath>
<clipPath id="clip1_1899_14061">
<rect width="11" height="11" fill="white" transform="translate(0 13)"/>
</clipPath>
</defs>
</svg>
