<svg width="24" height="24" viewBox="0 0 24 24" fill="none" xmlns="http://www.w3.org/2000/svg">
<g clip-path="url(#clip0_466_18365)">
<path fill-rule="evenodd" clip-rule="evenodd" d="M24.0008 24C24.0008 18.4772 19.5237 14 14.0008 14H10.0008C8.4362 14 6.95548 14.3593 5.63672 15H9.00084C9.55313 15 10.0008 15.4477 10.0008 16C11.3171 16 12.3252 17.1706 12.13 18.4723L11.3008 24H17.0008V21H19.0008V24H24.0008ZM12.0008 0C8.68714 0 6.00084 2.68629 6.00084 6C6.00084 9.31371 8.68714 12 12.0008 12C15.3146 12 18.0008 9.31371 18.0008 6C18.0008 2.68629 15.3146 0 12.0008 0Z" fill="#0C121C"/>
<path d="M1 15C2 15 2 15 3 15C4 15 4 16 4 16C4 16 7 16 8 16C9 16 9 17 9 17C9 17 9 17 10 17C11 17 11 18 11 18H10.5H10H2L1 23H9L10 18H10.5H11L10 23C10 23 9.5 24 9 24C8.5 24 2 24 1 24C0 24 0 23 0 23V16C0 16 0 15 1 15Z" fill="#0C121C"/>
</g>
<defs>
<clipPath id="clip0_466_18365">
<rect width="24" height="24" fill="white"/>
</clipPath>
</defs>
</svg>
