<svg width="24" height="24" viewBox="0 0 24 24" fill="none" xmlns="http://www.w3.org/2000/svg">
<path d="M0 2H10V3H11V11H0V2Z" fill="#FCFCFC" fill-opacity="0.75"/>
<path d="M7 6.5H9.5V9.5H1.5V3.5H6.5V6V6.5H7Z" fill="url(#paint0_linear_1908_13730)" stroke="#919191"/>
<path d="M8 3H9V4H10V5H8V3Z" fill="#919191"/>
<path d="M13 2H23V3H24V11H13V2Z" fill="#FCFCFC" fill-opacity="0.75"/>
<path d="M20 6.5H22.5V9.5H14.5V3.5H19.5V6V6.5H20Z" fill="url(#paint1_linear_1908_13730)" stroke="#919191"/>
<path d="M21 3H22V4H23V5H21V3Z" fill="#919191"/>
<path d="M7 13H17V14H18V22H7V13Z" fill="#FCFCFC" fill-opacity="0.75"/>
<path d="M14 17.5H16.5V20.5H8.5V14.5H13.5V17V17.5H14Z" fill="url(#paint2_linear_1908_13730)" stroke="#00A1DB"/>
<path d="M15 14H16V15H17V16H15V14Z" fill="#00A1DB"/>
<defs>
<linearGradient id="paint0_linear_1908_13730" x1="5.5" y1="3" x2="5.5" y2="10" gradientUnits="userSpaceOnUse">
<stop stop-color="#F4F7F6"/>
<stop offset="1" stop-color="#D8D8D8"/>
</linearGradient>
<linearGradient id="paint1_linear_1908_13730" x1="18.5" y1="3" x2="18.5" y2="10" gradientUnits="userSpaceOnUse">
<stop stop-color="#F4F7F6"/>
<stop offset="1" stop-color="#D8D8D8"/>
</linearGradient>
<linearGradient id="paint2_linear_1908_13730" x1="15.25" y1="14.9722" x2="11.5184" y2="21.1408" gradientUnits="userSpaceOnUse">
<stop stop-color="#94E1FC"/>
<stop offset="1" stop-color="#FCFCFC"/>
</linearGradient>
</defs>
</svg>
