<svg width="24" height="24" viewBox="0 0 24 24" fill="none" xmlns="http://www.w3.org/2000/svg">
<path d="M17 0H3V24H21V4H20V3H19V2H18V1H17V0Z" fill="#FCFCFC" fill-opacity="0.75"/>
<path d="M4 1H15V3H17V4H18V6H20V23H4V1Z" fill="url(#paint0_linear_1908_13925)"/>
<path fill-rule="evenodd" clip-rule="evenodd" d="M16 1H4V2V23H5H20V5H19V4H18V3H17V2H16V1ZM18 5H16V3H17V4H18V5ZM5 2H15V6H19V22H5V2Z" fill="#3A3A3A"/>
<rect x="10" y="8" width="5" height="1" fill="#D8D8D8"/>
<rect x="10" y="9" width="5" height="1" fill="#FCFCFC"/>
<rect x="15" y="8" width="4" height="1" fill="#D8D8D8"/>
<rect x="15" y="9" width="4" height="1" fill="#FCFCFC"/>
<rect x="9" y="2" width="1" height="7" fill="#D8D8D8"/>
<rect x="14" y="2" width="1" height="7" fill="#D8D8D8"/>
<rect x="9" y="9" width="1" height="8" fill="#D8D8D8"/>
<rect x="9" y="16" width="1" height="6" fill="#D8D8D8"/>
<rect x="14" y="9" width="1" height="8" fill="#D8D8D8"/>
<rect x="5" y="8" width="4" height="1" fill="#D8D8D8"/>
<rect x="5" y="9" width="4" height="1" fill="#FCFCFC"/>
<rect x="10" y="16" width="5" height="1" fill="#FCFCFC"/>
<rect x="10" y="15" width="5" height="1" fill="#D8D8D8"/>
<rect x="5" y="15" width="4" height="1" fill="#D8D8D8"/>
<rect x="5" y="16" width="4" height="1" fill="#FCFCFC"/>
<rect x="14" y="16" width="1" height="6" fill="#D8D8D8"/>
<rect x="15" y="15" width="4" height="1" fill="#D8D8D8"/>
<rect x="15" y="16" width="4" height="1" fill="#FCFCFC"/>
<g clip-path="url(#clip0_1908_13925)">
<path d="M6 13L10 15V16H6L6.00188 17H3.00188V16H1L1 15H3L3.00188 13H6Z" fill="#00A1DB"/>
<path d="M3.00188 19H1V18H6H10V19L6.00188 21H3.00188V19Z" fill="#00A1DB"/>
<path d="M6.00188 22H3L3.00188 23H6.00188V22Z" fill="#00A1DB"/>
<path d="M6 12.5H6.11803L6.22361 12.5528L10.2236 14.5528L10.5 14.691V15V16V16.5H10H6.50094L6.50188 16.9991L6.50283 17.5H10H10.5V18V19V19.309L10.2237 19.4472L6.22557 21.4472L6.11997 21.5H6.50188V22V23V23.5H6.00188H3.00188H2.50283L2.50189 23.0009L2.5 22.0009L2.49906 21.5H2.50188V21V19.5H1H0.5V19V18V17.5H1H2.50188V17V16.5H1H0.499999L0.5 16L0.500001 15V14.5H1H2.50047L2.50188 12.9995L2.50236 12.5H3.00188H6Z" stroke="#FCFCFC" stroke-opacity="0.75"/>
</g>
<defs>
<linearGradient id="paint0_linear_1908_13925" x1="12" y1="1" x2="12" y2="23" gradientUnits="userSpaceOnUse">
<stop stop-color="#FCFCFC"/>
<stop offset="1" stop-color="#E6EAEA"/>
</linearGradient>
<clipPath id="clip0_1908_13925">
<rect width="11" height="12" fill="white" transform="translate(0 12)"/>
</clipPath>
</defs>
</svg>
