<svg width="24" height="24" viewBox="0 0 24 24" fill="none" xmlns="http://www.w3.org/2000/svg">
<path d="M17 0H3V24H21V4H20V3H19V2H18V1H17V0Z" fill="#FCFCFC" fill-opacity="0.75"/>
<path d="M4 1H15V3H17V4H18V6H20V23H4V1Z" fill="url(#paint0_linear_1912_13856)"/>
<path fill-rule="evenodd" clip-rule="evenodd" d="M16 1H4V2V23H5H20V5H19V4H18V3H17V2H16V1ZM18 5H16V3H17V4H18V5ZM5 2H15V6H19V22H5V2Z" fill="#3A3A3A"/>
<rect x="10" y="8" width="5" height="1" fill="#D8D8D8"/>
<rect x="10" y="9" width="5" height="1" fill="#FCFCFC"/>
<rect x="15" y="8" width="4" height="1" fill="#D8D8D8"/>
<rect x="15" y="9" width="4" height="1" fill="#FCFCFC"/>
<rect x="9" y="2" width="1" height="7" fill="#D8D8D8"/>
<rect x="14" y="2" width="1" height="7" fill="#D8D8D8"/>
<rect x="9" y="9" width="1" height="8" fill="#D8D8D8"/>
<rect x="9" y="16" width="1" height="6" fill="#D8D8D8"/>
<rect x="14" y="9" width="1" height="8" fill="#D8D8D8"/>
<rect x="5" y="8" width="4" height="1" fill="#D8D8D8"/>
<rect x="5" y="9" width="4" height="1" fill="#FCFCFC"/>
<rect x="10" y="16" width="5" height="1" fill="#FCFCFC"/>
<rect x="10" y="15" width="5" height="1" fill="#D8D8D8"/>
<rect x="5" y="15" width="4" height="1" fill="#D8D8D8"/>
<rect x="5" y="16" width="4" height="1" fill="#FCFCFC"/>
<rect x="14" y="16" width="1" height="6" fill="#D8D8D8"/>
<rect x="15" y="15" width="4" height="1" fill="#D8D8D8"/>
<rect x="15" y="16" width="4" height="1" fill="#FCFCFC"/>
<g clip-path="url(#clip0_1912_13856)">
<path d="M0 13H9V15H11V24H2V22H0V13Z" fill="#FCFCFC" fill-opacity="0.75"/>
<rect x="3.5" y="16.5" width="6" height="6" fill="url(#paint1_linear_1912_13856)" stroke="#00A1DB"/>
<path d="M1 14H8V15H2V21H1V14Z" fill="#00A1DB"/>
</g>
<defs>
<linearGradient id="paint0_linear_1912_13856" x1="12" y1="1" x2="12" y2="23" gradientUnits="userSpaceOnUse">
<stop stop-color="#FCFCFC"/>
<stop offset="1" stop-color="#E6EAEA"/>
</linearGradient>
<linearGradient id="paint1_linear_1912_13856" x1="8.63889" y1="16.9722" x2="4.55556" y2="22.2222" gradientUnits="userSpaceOnUse">
<stop stop-color="#94E1FC"/>
<stop offset="1" stop-color="#FCFCFC"/>
</linearGradient>
<clipPath id="clip0_1912_13856">
<rect width="11" height="11" fill="white" transform="translate(0 13)"/>
</clipPath>
</defs>
</svg>
