<svg width="24" height="24" viewBox="0 0 24 24" fill="none" xmlns="http://www.w3.org/2000/svg">
<g clip-path="url(#clip0_1914_13827)">
<path d="M24 7L24 21L0 21L-7.86805e-07 3L20 3L20 4L21 4L21 5L22 5L22 6L23 6L23 7L24 7Z" fill="#FCFCFC" fill-opacity="0.75"/>
<path d="M23 20L23 9L21 9L21 7L20 7L20 6L18 6L18 4L0.999999 4L1 20L23 20Z" fill="url(#paint0_linear_1914_13827)"/>
<path fill-rule="evenodd" clip-rule="evenodd" d="M23 8L23 20L22 20L1 20L1 19L0.999999 4L19 4L19 5L20 5L20 6L21 6L21 7L22 7L22 8L23 8ZM19 6L19 8L21 8L21 7L20 7L20 6L19 6ZM22 19L22 9L18 9L18 5L2 5L2 19L22 19Z" fill="#3A3A3A"/>
<path d="M2 10H12V11H2V10Z" fill="#FCFCFC"/>
<path d="M12 10H22V11H12V10Z" fill="#FCFCFC"/>
<path d="M2 9H9V10H2V9Z" fill="#D8D8D8"/>
<path d="M8 9H15V10H8V9Z" fill="#D8D8D8"/>
<path d="M15 9H22V10H15V9Z" fill="#D8D8D8"/>
<path d="M2 15H12V16H2V15Z" fill="#FCFCFC"/>
<path d="M12 15H22V16H12V15Z" fill="#FCFCFC"/>
<path d="M2 14H9V15H2V14Z" fill="#D8D8D8"/>
<path d="M9 14H16V15H9V14Z" fill="#D8D8D8"/>
<path d="M15 14H22V15H15V14Z" fill="#D8D8D8"/>
<path d="M8 5H9V10H8V5Z" fill="#D8D8D8"/>
<path d="M8 10H9V15H8V10Z" fill="#D8D8D8"/>
<path d="M8 14H9V19H8V14Z" fill="#D8D8D8"/>
<path d="M15 5H16V10H15V5Z" fill="#D8D8D8"/>
<path d="M15 10H16V15H15V10Z" fill="#D8D8D8"/>
<path d="M15 14H16V19H15V14Z" fill="#D8D8D8"/>
<g clip-path="url(#clip1_1914_13827)">
<path d="M1 14V13H10V14H11V24H0V14H1Z" fill="#FCFCFC" fill-opacity="0.75"/>
<path d="M1.5 16.5H9.5V22.5H1.5V16.5Z" fill="url(#paint1_linear_1914_13827)" stroke="#919191"/>
<path d="M2.5 15V14.5H8.5V15V15.5H9H9.5V16.5H1.5V15.5H2H2.5V15Z" fill="#D8D8D8" stroke="#919191"/>
<path d="M4 18H7V19H4V18Z" fill="#3A3A3A"/>
</g>
</g>
<defs>
<linearGradient id="paint0_linear_1914_13827" x1="23" y1="12" x2="1" y2="12" gradientUnits="userSpaceOnUse">
<stop stop-color="#FCFCFC"/>
<stop offset="1" stop-color="#E6EAEA"/>
</linearGradient>
<linearGradient id="paint1_linear_1914_13827" x1="5.5" y1="16" x2="5.5" y2="23" gradientUnits="userSpaceOnUse">
<stop stop-color="#F4F7F6"/>
<stop offset="1" stop-color="#D8D8D8"/>
</linearGradient>
<clipPath id="clip0_1914_13827">
<rect width="24" height="24" fill="white"/>
</clipPath>
<clipPath id="clip1_1914_13827">
<rect width="11" height="11" fill="white" transform="translate(0 13)"/>
</clipPath>
</defs>
</svg>
