<svg width="24" height="24" viewBox="0 0 24 24" fill="none" xmlns="http://www.w3.org/2000/svg">
<g clip-path="url(#clip0_1917_13225)">
<path d="M5 1H20L23 4V22H22V23H3V22H2V4L5 1Z" fill="#FCFCFC" fill-opacity="0.75"/>
<path d="M4 20.5H3.5V5.5H21.5V20.5H21H20.5V21V21.5H4.5V21V20.5H4Z" fill="url(#paint0_linear_1917_13225)" stroke="#919191"/>
<path d="M9.5 9.5V9V8.5H15.5V9V9.5V10V10.5H9.5V10V9.5Z" fill="#3A3A3A" stroke="#919191"/>
<path d="M3.5 5.20711L6.20711 2.5H18.7929L21.5 5.20711V5.5H3.5V5.20711Z" fill="#D8D8D8" stroke="#919191"/>
<path d="M12 3H13V6H12V3Z" fill="#919191"/>
<g clip-path="url(#clip1_1917_13225)">
<path d="M7 20L5 20L5 18L1.74846e-07 18L4.37114e-07 15L5 15L5 13L7 13L8 13L8 14L9 14L9 15L10 15L10 18L9 18L9 19L8 19L8 20L7 20Z" fill="#FCFCFC" fill-opacity="0.75"/>
<rect x="9" y="17" width="8" height="0.999999" transform="rotate(-180 9 17)" fill="#EA212D"/>
<rect x="6" y="19" width="5" height="1" transform="rotate(-90 6 19)" fill="#EA212D"/>
<rect x="7" y="18" width="3" height="1" transform="rotate(-90 7 18)" fill="#EA212D"/>
</g>
<g clip-path="url(#clip2_1917_13225)">
<path d="M3 24L5 24L5 22L10 22L10 19L5 19L5 17L3 17L2 17L2 18L0.999999 18L1 19L-4.37114e-07 19L-1.74846e-07 22L1 22L1 23L2 23L2 24L3 24Z" fill="#FCFCFC" fill-opacity="0.75"/>
<rect width="8" height="0.999999" transform="matrix(1 -8.74228e-08 -8.74228e-08 -1 1 21)" fill="#219653"/>
<rect width="5" height="1" transform="matrix(-1.31134e-07 -1 -1 1.31134e-07 4 23)" fill="#219653"/>
<rect width="3" height="1" transform="matrix(-1.31134e-07 -1 -1 1.31134e-07 3 22)" fill="#219653"/>
</g>
</g>
<defs>
<linearGradient id="paint0_linear_1917_13225" x1="12.5" y1="5" x2="12.5" y2="22" gradientUnits="userSpaceOnUse">
<stop stop-color="#F4F7F6"/>
<stop offset="1" stop-color="#D8D8D8"/>
</linearGradient>
<clipPath id="clip0_1917_13225">
<rect width="24" height="24" fill="white"/>
</clipPath>
<clipPath id="clip1_1917_13225">
<rect width="10" height="7" fill="white" transform="translate(0 13)"/>
</clipPath>
<clipPath id="clip2_1917_13225">
<rect width="10" height="7" fill="white" transform="matrix(-1 0 0 1 10 17)"/>
</clipPath>
</defs>
</svg>
