<svg width="24" height="24" viewBox="0 0 24 24" fill="none" xmlns="http://www.w3.org/2000/svg">
<path fill-rule="evenodd" clip-rule="evenodd" d="M4 2V6L0 6V2H4ZM9 6V2H5V6L9 6ZM14 6V2H10V6L14 6ZM24 2V6L20 6V2H24ZM24 10V14H20V10H24ZM24 18H20V22H24V18ZM19 22H15V18H19V22ZM19 6V2H15V6L19 6ZM19 10V14H15V10H19ZM14 10V14H10V10H14ZM5 23.6632C6.18247 23.1015 7 21.8962 7 20.5C7 19.1038 6.18247 17.8985 5 17.3368V10.5C5 9.67157 4.32843 9 3.5 9C2.67157 9 2 9.67157 2 10.5V17.3368C0.817526 17.8985 0 19.1038 0 20.5C0 21.8962 0.817526 23.1015 2 23.6632V20H5V23.6632ZM4 10.5C4 10.7761 3.77614 11 3.5 11C3.22386 11 3 10.7761 3 10.5C3 10.2239 3.22386 10 3.5 10C3.77614 10 4 10.2239 4 10.5Z" fill="#0C121C"/>
</svg>
