<svg width="24" height="24" viewBox="0 0 24 24" fill="none" xmlns="http://www.w3.org/2000/svg">
<path fill-rule="evenodd" clip-rule="evenodd" d="M3.80957 20C4.9925 21.2327 6.65664 22 8.5 22C12.0899 22 15 19.0899 15 15.5C15 11.9101 12.0899 9 8.5 9C6.18423 9 4.15132 10.211 3 12.0343V13H9V20H3.80957ZM1.86505 12C3.12254 9.6211 5.62196 8 8.5 8C9.0137 8 9.51534 8.05165 10 8.15003V2H0V12H1.86505ZM14.4999 20H23.9993L15.9993 4L13.1797 9.63926C14.8984 11.0136 15.9993 13.1282 15.9993 15.5C15.9993 17.1884 15.4414 18.7465 14.4999 20Z" fill="#0C121C"/>
<rect y="13" width="2" height="11" fill="#0C121C"/>
<rect y="14" width="8" height="5" fill="#0C121C"/>
</svg>
