<svg width="24" height="24" viewBox="0 0 24 24" fill="none" xmlns="http://www.w3.org/2000/svg">
<g clip-path="url(#clip0_1923_13375)">
<path d="M6.72104 7.81275C6.97353 5.08583 9.26142 3 12 3C14.7386 3 17.0265 5.08583 17.279 7.81275L17.602 11.302C17.6449 11.7651 17.7522 12.2199 17.9207 12.6533L20 18V20H4V18L6.07928 12.6533C6.24782 12.2199 6.35508 11.7651 6.39796 11.302L6.72104 7.81275Z" fill="#FCFCFC" fill-opacity="0.75"/>
<path d="M20.5 18V17.9062L20.466 17.8188L18.3867 12.4721C18.235 12.082 18.1385 11.6727 18.0999 11.2559L17.7768 7.76665C17.5005 4.78255 14.9969 2.5 12 2.5C9.00314 2.5 6.49948 4.78255 6.22317 7.76665L5.90009 11.2559C5.8615 11.6727 5.76497 12.082 5.61328 12.4721L3.534 17.8188L3.5 17.9062V18V20V20.5H4H20H20.5V20V18Z" stroke="#FCFCFC" stroke-opacity="0.75"/>
<rect x="10" y="1" width="4" height="3" fill="#3A3A3A"/>
<rect x="9.5" y="0.5" width="5" height="4" stroke="#FCFCFC" stroke-opacity="0.75"/>
<path d="M15 20C15 21.6569 13.6569 23 12 23C10.3431 23 9 21.6569 9 20C9 20 10.3431 20 12 20C13.6569 20 15 20 15 20Z" fill="#3A3A3A"/>
<path d="M15.5 20V19.5L15 19.5L15 20L15 19.5H14.9999H14.9998H14.999H14.9961L14.9845 19.5L14.9391 19.5L14.7642 19.5L14.1213 19.5L12 19.5L9.87868 19.5L9.23575 19.5L9.06095 19.5L9.01549 19.5L9.0039 19.5H9.00098H9.00024H9.00006H9.00001L9 20L9 19.5L8.5 19.5V20C8.5 21.933 10.067 23.5 12 23.5C13.933 23.5 15.5 21.933 15.5 20Z" stroke="#FCFCFC" stroke-opacity="0.75"/>
<path d="M7.21891 7.85885C7.44759 5.38911 9.5197 3.5 12 3.5C14.4803 3.5 16.5524 5.38911 16.7811 7.85885L17.1042 11.3481C17.1513 11.8575 17.2693 12.3578 17.4547 12.8345L19.5 18.0938V19.5H4.5V18.0938L6.54528 12.8345C6.73068 12.3578 6.84867 11.8575 6.89583 11.3481L7.21891 7.85885Z" fill="url(#paint0_linear_1923_13375)" stroke="#919191"/>
</g>
<defs>
<linearGradient id="paint0_linear_1923_13375" x1="20" y1="12.2727" x2="4" y2="12.2727" gradientUnits="userSpaceOnUse">
<stop stop-color="#F4F7F6"/>
<stop offset="1" stop-color="#D8D8D8"/>
</linearGradient>
<clipPath id="clip0_1923_13375">
<rect width="24" height="24" fill="white"/>
</clipPath>
</defs>
</svg>
