<svg width="24" height="24" viewBox="0 0 24 24" fill="none" xmlns="http://www.w3.org/2000/svg">
<path fill-rule="evenodd" clip-rule="evenodd" d="M14 0H10V2.31933C7.63972 3.09585 5.86933 5.21123 5.62884 7.80849L5.44998 9.7402C5.37342 10.567 5.09214 11.3618 4.63153 12.0527L2 16V18H22V16L19.3685 12.0527C18.9079 11.3618 18.6266 10.567 18.55 9.74019L18.3712 7.80849C18.1307 5.21123 16.3603 3.09585 14 2.31933V0ZM16 20C16 22.2091 14.2091 24 12 24C9.79086 24 8 22.2091 8 20L12 20L16 20Z" fill="#0C121C"/>
</svg>
