<svg width="24" height="24" viewBox="0 0 24 24" fill="none" xmlns="http://www.w3.org/2000/svg">
<g clip-path="url(#clip0_486_14104)">
<path fill-rule="evenodd" clip-rule="evenodd" d="M0 0H24V8.00216L19.998 3.99878V7H13H12.6301L12.3492 7.24074L9.95741 9.29086L11.4661 10.6319L13.3699 9H19.998V11.999L24 8.00216V24H0V17H4H4.38661L4.67267 16.7399L6.9738 14.648L5.47049 13.3117L3.61339 15H0V9H3.6198L12.3356 16.7474L12.6198 17H13H14.998V19.999L19 16.0022L18 15.0018V15H17.9982L14.998 11.9988V15H13.3802L4.66436 7.25259L4.3802 7H4H0V0Z" fill="#0C121C"/>
</g>
<defs>
<clipPath id="clip0_486_14104">
<rect width="24" height="24" fill="white"/>
</clipPath>
</defs>
</svg>
