<svg width="24" height="24" viewBox="0 0 24 24" fill="none" xmlns="http://www.w3.org/2000/svg">
<g clip-path="url(#clip0_1926_12965)">
<g clip-path="url(#clip1_1926_12965)">
<rect x="22" width="24" height="20" transform="rotate(90 22 0)" fill="#FCFCFC" fill-opacity="0.75"/>
<rect x="20.5" y="1.5" width="21" height="17" transform="rotate(90 20.5 1.5)" fill="#FCFCFC" stroke="#919191"/>
</g>
<g clip-path="url(#clip2_1926_12965)">
<g clip-path="url(#clip3_1926_12965)">
<path d="M1 14V13H7V14H11V20H5V16H3V17H0V14H1Z" fill="#FCFCFC" fill-opacity="0.75"/>
<rect x="1" y="15" width="1" height="1" fill="#00A1DB"/>
<rect x="6" y="15" width="1" height="1" fill="#00A1DB"/>
<rect x="2" y="14" width="4" height="1" fill="#00A1DB"/>
<rect x="7" y="16" width="2" height="2" fill="#00A1DB"/>
<rect x="9" y="15" width="1" height="4" fill="#00A1DB"/>
<rect x="6" y="18" width="4" height="1" fill="#00A1DB"/>
</g>
<g clip-path="url(#clip4_1926_12965)">
<path d="M10 23V24H4V23H0V17H6V21H8V20H11V23H10Z" fill="#FCFCFC" fill-opacity="0.75"/>
<rect x="10" y="22" width="1" height="1" transform="rotate(180 10 22)" fill="#00A1DB"/>
<rect x="5" y="22" width="1" height="1" transform="rotate(180 5 22)" fill="#00A1DB"/>
<rect x="9" y="23" width="4" height="1" transform="rotate(180 9 23)" fill="#00A1DB"/>
<rect x="4" y="21" width="2" height="2" transform="rotate(180 4 21)" fill="#00A1DB"/>
<rect x="2" y="22" width="1" height="4" transform="rotate(180 2 22)" fill="#00A1DB"/>
<rect x="5" y="19" width="4" height="1" transform="rotate(180 5 19)" fill="#00A1DB"/>
</g>
</g>
<g clip-path="url(#clip5_1926_12965)">
<path d="M21 1V0H18V3H13V6H18V9H21V8H22V7H23V6H24V3H23V2H22V1H21Z" fill="#FCFCFC" fill-opacity="0.75"/>
<rect width="6" height="1" transform="matrix(-1 0 0 1 20 4)" fill="#3A3A3A"/>
<rect width="7" height="1" transform="matrix(4.37114e-08 1 1 -4.37114e-08 19 1)" fill="#3A3A3A"/>
<rect width="5" height="1" transform="matrix(4.37114e-08 1 1 -4.37114e-08 20 2)" fill="#3A3A3A"/>
<rect width="3" height="1" transform="matrix(4.37114e-08 1 1 -4.37114e-08 21 3)" fill="#3A3A3A"/>
<rect width="1" height="1" transform="matrix(4.37114e-08 1 1 -4.37114e-08 22 4)" fill="#3A3A3A"/>
</g>
<rect x="3" y="16" width="1" height="1" fill="#FCFCFC" fill-opacity="0.75"/>
</g>
<defs>
<clipPath id="clip0_1926_12965">
<rect width="24" height="24" fill="white"/>
</clipPath>
<clipPath id="clip1_1926_12965">
<rect width="24" height="20" fill="white" transform="translate(22) rotate(90)"/>
</clipPath>
<clipPath id="clip2_1926_12965">
<rect width="11" height="11" fill="white" transform="translate(0 13)"/>
</clipPath>
<clipPath id="clip3_1926_12965">
<rect width="11" height="7" fill="white" transform="translate(0 13)"/>
</clipPath>
<clipPath id="clip4_1926_12965">
<rect width="11" height="7" fill="white" transform="matrix(-1 0 0 -1 11 24)"/>
</clipPath>
<clipPath id="clip5_1926_12965">
<rect width="11" height="9" fill="white" transform="matrix(-1 0 0 1 24 0)"/>
</clipPath>
</defs>
</svg>
