<svg width="24" height="24" viewBox="0 0 24 24" fill="none" xmlns="http://www.w3.org/2000/svg">
<g clip-path="url(#clip0_1930_12454)">
<rect y="1" width="12" height="12" fill="#FCFCFC" fill-opacity="0.75"/>
<rect x="1" y="2" width="10" height="10" fill="#3A3A3A"/>
<path d="M8 21L16 5L24 21L8 21Z" fill="#FCFCFC" fill-opacity="0.75"/>
<path d="M10 20L16 7L22 20L10 20Z" fill="#3A3A3A"/>
<circle cx="9" cy="16" r="7" fill="#FCFCFC" fill-opacity="0.75"/>
<circle cx="9" cy="16" r="6" fill="#919191"/>
<g clip-path="url(#clip1_1930_12454)">
<rect y="15" width="11" height="9" fill="#FCFCFC" fill-opacity="0.75"/>
<rect x="4" y="18" width="4" height="1" fill="#3A3A3A"/>
<rect x="1" y="18" width="2" height="1" fill="#3A3A3A"/>
<rect x="4" y="20" width="4" height="1" fill="#3A3A3A"/>
<rect x="1" y="20" width="2" height="1" fill="#3A3A3A"/>
<rect x="4" y="22" width="4" height="1" fill="#3A3A3A"/>
<rect x="9" y="17" width="1" height="6" fill="#3A3A3A"/>
<rect x="1" y="17" width="1" height="9" transform="rotate(-90 1 17)" fill="#3A3A3A"/>
<rect x="1" y="22" width="2" height="1" fill="#3A3A3A"/>
</g>
</g>
<defs>
<clipPath id="clip0_1930_12454">
<rect width="24" height="24" fill="white"/>
</clipPath>
<clipPath id="clip1_1930_12454">
<rect width="11" height="9" fill="white" transform="translate(0 15)"/>
</clipPath>
</defs>
</svg>
