<svg width="24" height="24" viewBox="0 0 24 24" fill="none" xmlns="http://www.w3.org/2000/svg">
<g clip-path="url(#clip0_1938_12391)">
<rect y="1" width="24" height="22" fill="#FCFCFC" fill-opacity="0.75"/>
<g clip-path="url(#clip1_1938_12391)">
<path fill-rule="evenodd" clip-rule="evenodd" d="M7 2H1V22H7V2ZM6 4H2V10H6V4ZM2 15H6V16H2V15ZM6 18H2V19H6V18Z" fill="#919191"/>
<rect x="1" y="21" width="6" height="1" fill="#3A3A3A"/>
<rect x="1" y="2" width="6" height="1" fill="#3A3A3A"/>
<rect x="6" y="2" width="1" height="20" fill="#3A3A3A"/>
<rect x="1" y="2" width="1" height="20" fill="#3A3A3A"/>
</g>
<g clip-path="url(#clip2_1938_12391)">
<path fill-rule="evenodd" clip-rule="evenodd" d="M15 2H9V22H15V2ZM14 4H10V10H14V4ZM10 15H14V16H10V15ZM14 18H10V19H14V18Z" fill="#919191"/>
<rect x="9" y="21" width="6" height="1" fill="#3A3A3A"/>
<rect x="9" y="2" width="6" height="1" fill="#3A3A3A"/>
<rect x="14" y="2" width="1" height="20" fill="#3A3A3A"/>
<rect x="9" y="2" width="1" height="20" fill="#3A3A3A"/>
</g>
<g clip-path="url(#clip3_1938_12391)">
<path fill-rule="evenodd" clip-rule="evenodd" d="M23 2H17V22H23V2ZM22 4H18V10H22V4ZM18 15H22V16H18V15ZM22 18H18V19H22V18Z" fill="#919191"/>
<rect x="17" y="21" width="6" height="1" fill="#3A3A3A"/>
<rect x="17" y="2" width="6" height="1" fill="#3A3A3A"/>
<rect x="22" y="2" width="1" height="20" fill="#3A3A3A"/>
<rect x="17" y="2" width="1" height="20" fill="#3A3A3A"/>
</g>
<g clip-path="url(#clip4_1938_12391)">
<path d="M0 16H4V17H5V18H6V17H7V16H8V15H11V18H10V20H9V21H8V23H7V24H4V23H3V22H2V21H1V20H0V16Z" fill="#FCFCFC" fill-opacity="0.75"/>
<path d="M5 19V20H6V19H7V18H8V17H9V16H10V17H9V19H8V20H7V22H6V23H5V22H4V21H3V20H2V19H1V17H3V18H4V19H5Z" fill="#00A1DB"/>
<rect x="1" y="21" width="1" height="1" fill="#FCFCFC" fill-opacity="0.75"/>
</g>
</g>
<defs>
<clipPath id="clip0_1938_12391">
<rect width="24" height="24" fill="white"/>
</clipPath>
<clipPath id="clip1_1938_12391">
<rect width="6" height="20" fill="white" transform="translate(1 2)"/>
</clipPath>
<clipPath id="clip2_1938_12391">
<rect width="6" height="20" fill="white" transform="translate(9 2)"/>
</clipPath>
<clipPath id="clip3_1938_12391">
<rect width="6" height="20" fill="white" transform="translate(17 2)"/>
</clipPath>
<clipPath id="clip4_1938_12391">
<rect width="11" height="9" fill="white" transform="translate(0 15)"/>
</clipPath>
</defs>
</svg>
