<svg width="24" height="24" viewBox="0 0 24 24" fill="none" xmlns="http://www.w3.org/2000/svg">
<g clip-path="url(#clip0_1938_12486)">
<rect y="1" width="24" height="22" fill="#FCFCFC" fill-opacity="0.75"/>
<rect x="1.5" y="7.5" width="21" height="14" fill="url(#paint0_linear_1938_12486)" stroke="#919191"/>
<path d="M1 2H23V5H22V3H20V5H18V3H16V5H14V3H12V5H1V2Z" fill="#3A3A3A"/>
<rect x="1" y="5" width="22" height="1" fill="#3A3A3A"/>
<g clip-path="url(#clip1_1938_12486)">
<path d="M14 18L12 18L12 16L7 16L7 13L12 13L12 11L14 11L15 11L15 12L16 12L16 13L17 13L17 16L16 16L16 17L15 17L15 18L14 18Z" fill="#FCFCFC" fill-opacity="0.75"/>
<rect x="16" y="15" width="8" height="0.999999" transform="rotate(-180 16 15)" fill="#00A1DB"/>
<rect x="13" y="17" width="5" height="1" transform="rotate(-90 13 17)" fill="#00A1DB"/>
<rect x="14" y="16" width="3" height="1" transform="rotate(-90 14 16)" fill="#00A1DB"/>
</g>
</g>
<defs>
<linearGradient id="paint0_linear_1938_12486" x1="12" y1="7" x2="12" y2="22" gradientUnits="userSpaceOnUse">
<stop stop-color="#FCFCFC"/>
<stop offset="1" stop-color="#E6EAEA"/>
</linearGradient>
<clipPath id="clip0_1938_12486">
<rect width="24" height="24" fill="white"/>
</clipPath>
<clipPath id="clip1_1938_12486">
<rect width="10" height="7" fill="white" transform="translate(7 11)"/>
</clipPath>
</defs>
</svg>
