<svg width="24" height="24" viewBox="0 0 24 24" fill="none" xmlns="http://www.w3.org/2000/svg">
<g clip-path="url(#clip0_489_16905)">
<path fill-rule="evenodd" clip-rule="evenodd" d="M24 12C24 5.37258 18.6274 0 12 0C5.37258 0 0 5.37258 0 12C0 12.3368 0.0138713 12.6703 0.0410738 13H3V19.9375C5.19883 22.4287 8.41592 24 12 24C14.3614 24 16.5635 23.3179 18.42 22.14L24 24V16V12ZM12 22C16.5 18 17 17.5 17 15C17 12.5 14.5604 11.2358 12 11V14L4 8L12 2V5C17 5 20 8 20 13C20 18.5 15 22 12 22Z" fill="#0C121C"/>
<rect width="2" height="7" transform="matrix(1 0 0 -1 0 21)" fill="#0C121C"/>
<rect width="2" height="2" transform="matrix(1 0 0 -1 0 24)" fill="#0C121C"/>
</g>
<defs>
<clipPath id="clip0_489_16905">
<rect width="24" height="24" fill="white"/>
</clipPath>
</defs>
</svg>
