<svg width="24" height="24" viewBox="0 0 24 24" fill="none" xmlns="http://www.w3.org/2000/svg">
<g clip-path="url(#clip0_1939_12280)">
<rect y="1" width="24" height="22" fill="#FCFCFC" fill-opacity="0.75"/>
<rect x="1.5" y="4.5" width="21" height="17" fill="#FCFCFC" stroke="#919191"/>
<rect x="1.5" y="2.5" width="21" height="3" fill="#94E1FC" stroke="#3A3A3A"/>
<rect x="2" y="3" width="20" height="1" fill="#00A1DB"/>
</g>
<rect x="4" y="9" width="4" height="2" fill="#919191"/>
<rect x="16" y="9" width="4" height="2" fill="#919191"/>
<rect x="10" y="9" width="4" height="2" fill="#919191"/>
<rect x="10" y="13" width="4" height="2" fill="#919191"/>
<rect x="16" y="13" width="4" height="2" fill="#919191"/>
<rect x="16" y="17" width="4" height="2" fill="#919191"/>
<path d="M0 15H10V16H11V24H0V15Z" fill="#FCFCFC" fill-opacity="0.75"/>
<path d="M7 19.5H9.5V22.5H1.5V16.5H6.5V19V19.5H7Z" fill="url(#paint0_linear_1939_12280)" stroke="#00A1DB"/>
<path d="M8 16H9V17H10V18H8V16Z" fill="#00A1DB"/>
<defs>
<linearGradient id="paint0_linear_1939_12280" x1="8.25" y1="16.9722" x2="4.51841" y2="23.1408" gradientUnits="userSpaceOnUse">
<stop stop-color="#94E1FC"/>
<stop offset="1" stop-color="#FCFCFC"/>
</linearGradient>
<clipPath id="clip0_1939_12280">
<rect width="24" height="22" fill="white" transform="translate(0 1)"/>
</clipPath>
</defs>
</svg>
