<svg width="24" height="24" viewBox="0 0 24 24" fill="none" xmlns="http://www.w3.org/2000/svg">
<g clip-path="url(#clip0_1939_12379)">
<rect y="1" width="24" height="22" fill="#FCFCFC" fill-opacity="0.75"/>
<rect x="1.5" y="4.5" width="21" height="17" fill="#FCFCFC" stroke="#919191"/>
<rect x="1.5" y="2.5" width="21" height="3" fill="#94E1FC" stroke="#3A3A3A"/>
<rect x="2" y="3" width="20" height="1" fill="#00A1DB"/>
</g>
<rect x="4" y="9" width="4" height="2" fill="#919191"/>
<rect x="16" y="9" width="4" height="2" fill="#919191"/>
<rect x="10" y="9" width="4" height="2" fill="#919191"/>
<rect x="10" y="13" width="4" height="2" fill="#919191"/>
<rect x="16" y="13" width="4" height="2" fill="#919191"/>
<rect x="16" y="17" width="4" height="2" fill="#919191"/>
<g clip-path="url(#clip1_1939_12379)">
<path d="M8 16V15H5V18H0V21H5V24H8V23H9V22H10V21H11V18H10V17H9V16H8Z" fill="#FCFCFC" fill-opacity="0.75"/>
<rect width="6" height="1" transform="matrix(-1 0 0 1 7 19)" fill="#00A1DB"/>
<rect width="7" height="1" transform="matrix(4.37114e-08 1 1 -4.37114e-08 6 16)" fill="#00A1DB"/>
<rect width="5" height="1" transform="matrix(4.37114e-08 1 1 -4.37114e-08 7 17)" fill="#00A1DB"/>
<rect width="3" height="1" transform="matrix(4.37114e-08 1 1 -4.37114e-08 8 18)" fill="#00A1DB"/>
<rect width="1" height="1" transform="matrix(4.37114e-08 1 1 -4.37114e-08 9 19)" fill="#00A1DB"/>
</g>
<rect x="1" y="21" width="4" height="1" fill="#FCFCFC" fill-opacity="0.75"/>
<defs>
<clipPath id="clip0_1939_12379">
<rect width="24" height="22" fill="white" transform="translate(0 1)"/>
</clipPath>
<clipPath id="clip1_1939_12379">
<rect width="11" height="9" fill="white" transform="matrix(-1 0 0 1 11 15)"/>
</clipPath>
</defs>
</svg>
