<svg width="24" height="24" viewBox="0 0 24 24" fill="none" xmlns="http://www.w3.org/2000/svg">
<g clip-path="url(#clip0_1940_11554)">
<path d="M4 11V10H20V11H21V23H20V24H4V23H3V11H4Z" fill="#FCFCFC" fill-opacity="0.75"/>
<path fill-rule="evenodd" clip-rule="evenodd" d="M13 5.5C13 3.01472 15.0147 1 17.5 1H18.5C20.9853 1 23 3.01472 23 5.5V12H22V5.5C22 3.567 20.433 2 18.5 2H17.5C15.567 2 14 3.567 14 5.5V12H13V5.5Z" fill="#3A3A3A"/>
<path d="M23 12.5H23.5V12V5.5C23.5 2.73858 21.2614 0.5 18.5 0.5H17.5C14.7386 0.5 12.5 2.73858 12.5 5.5V12V12.5H13H14H14.5V12V5.5C14.5 3.84315 15.8431 2.5 17.5 2.5H18.5C20.1569 2.5 21.5 3.84315 21.5 5.5V12V12.5H22H23Z" stroke="#FCFCFC" stroke-opacity="0.75"/>
<path d="M18.5 22V22.5H5.5V22V21.5H5H4.5V12.5H5H5.5V12V11.5H18.5V12V12.5H19H19.5V21.5H19H18.5V22Z" fill="url(#paint0_linear_1940_11554)" stroke="#919191"/>
<rect x="11" y="15" width="2" height="4" fill="#3A3A3A"/>
</g>
<defs>
<linearGradient id="paint0_linear_1940_11554" x1="12" y1="11" x2="12" y2="23" gradientUnits="userSpaceOnUse">
<stop stop-color="#F4F7F6"/>
<stop offset="1" stop-color="#D8D8D8"/>
</linearGradient>
<clipPath id="clip0_1940_11554">
<rect width="24" height="24" fill="white"/>
</clipPath>
</defs>
</svg>
