<svg width="24" height="24" viewBox="0 0 24 24" fill="none" xmlns="http://www.w3.org/2000/svg">
<g clip-path="url(#clip0_1947_11623)">
<rect x="1" y="1" width="22" height="22" fill="#FCFCFC" fill-opacity="0.75"/>
<rect x="4.5" y="2.5" width="17" height="19" fill="url(#paint0_linear_1947_11623)" stroke="#919191"/>
<path d="M13 13H18V14H13V13Z" fill="#3A3A3A"/>
<path d="M8 13H13V14H8V13Z" fill="#3A3A3A"/>
<rect x="8.5" y="6.5" width="9" height="4" fill="#FCFCFC" stroke="#3A3A3A"/>
<rect x="2" y="2" width="1" height="20" fill="#919191"/>
<path d="M0 13H3V17H4V13H7V24H4V20H3V24H0V13Z" fill="#FCFCFC" fill-opacity="0.75"/>
<rect x="1" y="14" width="1" height="9" fill="#3A3A3A"/>
<rect x="5" y="14" width="1" height="9" fill="#3A3A3A"/>
<rect x="1" y="18" width="5" height="1" fill="#3A3A3A"/>
<g clip-path="url(#clip1_1947_11623)">
<path d="M8 16H11V20H9V22H11V23H8V19H10V17H8V16Z" fill="#3A3A3A"/>
<path d="M8 15.5H7.5V16V17V17.5H8H9.5V18.5H8H7.5V19V23V23.5H8H11H11.5V23V22V21.5H11H9.5V20.5H11H11.5V20V16V15.5H11H8Z" stroke="#FCFCFC" stroke-opacity="0.75"/>
</g>
</g>
<defs>
<linearGradient id="paint0_linear_1947_11623" x1="13" y1="2" x2="13" y2="22" gradientUnits="userSpaceOnUse">
<stop stop-color="#F4F7F6"/>
<stop offset="1" stop-color="#D8D8D8"/>
</linearGradient>
<clipPath id="clip0_1947_11623">
<rect width="24" height="24" fill="white"/>
</clipPath>
<clipPath id="clip1_1947_11623">
<rect width="5" height="9" fill="white" transform="translate(7 15)"/>
</clipPath>
</defs>
</svg>
