<svg width="24" height="24" viewBox="0 0 24 24" fill="none" xmlns="http://www.w3.org/2000/svg">
<g clip-path="url(#clip0_1949_11454)">
<rect x="1" y="1" width="22" height="22" fill="#FCFCFC" fill-opacity="0.75"/>
<rect x="4.5" y="2.5" width="17" height="19" fill="url(#paint0_linear_1949_11454)" stroke="#919191"/>
<path d="M13 13H18V14H13V13Z" fill="#3A3A3A"/>
<path d="M8 13H13V14H8V13Z" fill="#3A3A3A"/>
<rect x="8.5" y="6.5" width="9" height="4" fill="#FCFCFC" stroke="#3A3A3A"/>
<rect x="2" y="2" width="1" height="20" fill="#919191"/>
<path d="M0 15H10V16H11V24H0V15Z" fill="#FCFCFC" fill-opacity="0.75"/>
<path d="M7 19.5H9.5V22.5H1.5V16.5H6.5V19V19.5H7Z" fill="url(#paint1_linear_1949_11454)" stroke="#00A1DB"/>
<path d="M8 16H9V17H10V18H8V16Z" fill="#00A1DB"/>
<rect y="13" width="7" height="2" fill="#FCFCFC" fill-opacity="0.75"/>
<rect x="1" y="14" width="5" height="1" fill="#00A1DB"/>
</g>
<defs>
<linearGradient id="paint0_linear_1949_11454" x1="13" y1="2" x2="13" y2="22" gradientUnits="userSpaceOnUse">
<stop stop-color="#F4F7F6"/>
<stop offset="1" stop-color="#D8D8D8"/>
</linearGradient>
<linearGradient id="paint1_linear_1949_11454" x1="8.25" y1="16.9722" x2="4.51841" y2="23.1408" gradientUnits="userSpaceOnUse">
<stop stop-color="#94E1FC"/>
<stop offset="1" stop-color="#FCFCFC"/>
</linearGradient>
<clipPath id="clip0_1949_11454">
<rect width="24" height="24" fill="white"/>
</clipPath>
</defs>
</svg>
