<svg width="24" height="24" viewBox="0 0 24 24" fill="none" xmlns="http://www.w3.org/2000/svg">
<g clip-path="url(#clip0_1949_11484)">
<rect x="1" y="1" width="22" height="22" fill="#FCFCFC" fill-opacity="0.75"/>
<rect x="4.5" y="2.5" width="17" height="19" fill="url(#paint0_linear_1949_11484)" stroke="#919191"/>
<path d="M13 13H18V14H13V13Z" fill="#3A3A3A"/>
<path d="M8 13H13V14H8V13Z" fill="#3A3A3A"/>
<rect x="8.5" y="6.5" width="9" height="4" fill="#FCFCFC" stroke="#3A3A3A"/>
<rect x="2" y="2" width="1" height="20" fill="#919191"/>
<g clip-path="url(#clip1_1949_11484)">
<path d="M9 24L9 16L6 16L6 13L-4.80825e-07 13L0 24L9 24Z" fill="#FCFCFC" fill-opacity="0.75"/>
<path d="M4.5 17L4.5 14.5L1.5 14.5L1.5 22.5L7.5 22.5L7.5 17.5L5 17.5L4.5 17.5L4.5 17Z" fill="url(#paint1_linear_1949_11484)" stroke="#00A1DB"/>
</g>
</g>
<defs>
<linearGradient id="paint0_linear_1949_11484" x1="13" y1="2" x2="13" y2="22" gradientUnits="userSpaceOnUse">
<stop stop-color="#F4F7F6"/>
<stop offset="1" stop-color="#D8D8D8"/>
</linearGradient>
<linearGradient id="paint1_linear_1949_11484" x1="7.02778" y1="15.75" x2="0.859233" y2="19.4816" gradientUnits="userSpaceOnUse">
<stop stop-color="#94E1FC"/>
<stop offset="1" stop-color="#FCFCFC"/>
</linearGradient>
<clipPath id="clip0_1949_11484">
<rect width="24" height="24" fill="white"/>
</clipPath>
<clipPath id="clip1_1949_11484">
<rect width="9" height="11" fill="white" transform="translate(0 13)"/>
</clipPath>
</defs>
</svg>
