<svg width="24" height="24" viewBox="0 0 24 24" fill="none" xmlns="http://www.w3.org/2000/svg">
<g clip-path="url(#clip0_1949_11519)">
<rect x="1" y="1" width="22" height="22" fill="#FCFCFC" fill-opacity="0.75"/>
<rect x="4.5" y="2.5" width="17" height="19" fill="url(#paint0_linear_1949_11519)" stroke="#919191"/>
<path d="M13 13H18V14H13V13Z" fill="#3A3A3A"/>
<path d="M8 13H13V14H8V13Z" fill="#3A3A3A"/>
<rect x="8.5" y="6.5" width="9" height="4" fill="#FCFCFC" stroke="#3A3A3A"/>
<rect x="2" y="2" width="1" height="20" fill="#919191"/>
<g clip-path="url(#clip1_1949_11519)">
<path d="M6 13L8.5 15.5L12 17L10 19.5V24L6 23L2.10451 24L2 19.5L0 17L3.5 15.5L6 13Z" fill="#FCFCFC" fill-opacity="0.75"/>
<path d="M6 14.8901L7.25301 16.7354L7.36092 16.8943L7.54748 16.9401L9.90858 17.5197L8.18338 18.9312L7.94408 19.127L8.01234 19.4286L8.61478 22.0903L6.22034 20.9148L5.99705 20.8052L5.77494 20.9172L3.44838 22.0899L3.99004 19.4175L4.04991 19.1221L3.81662 18.9312L2.09142 17.5197L4.45252 16.9401L4.63908 16.8943L4.74699 16.7354L6 14.8901Z" fill="url(#paint1_linear_1949_11519)" stroke="#00A1DB"/>
</g>
</g>
<defs>
<linearGradient id="paint0_linear_1949_11519" x1="13" y1="2" x2="13" y2="22" gradientUnits="userSpaceOnUse">
<stop stop-color="#F4F7F6"/>
<stop offset="1" stop-color="#D8D8D8"/>
</linearGradient>
<linearGradient id="paint1_linear_1949_11519" x1="9.05556" y1="15.25" x2="3.96607" y2="22.5207" gradientUnits="userSpaceOnUse">
<stop stop-color="#94E1FC"/>
<stop offset="1" stop-color="#FCFCFC"/>
</linearGradient>
<clipPath id="clip0_1949_11519">
<rect width="24" height="24" fill="white"/>
</clipPath>
<clipPath id="clip1_1949_11519">
<rect width="12" height="11" fill="white" transform="translate(0 13)"/>
</clipPath>
</defs>
</svg>
