<svg width="24" height="24" viewBox="0 0 24 24" fill="none" xmlns="http://www.w3.org/2000/svg">
<g clip-path="url(#clip0_1950_11520)">
<rect x="18" y="1" width="6" height="22" fill="#FCFCFC" fill-opacity="0.75"/>
<rect x="22" y="2" width="1" height="20" fill="#00A1DB"/>
<rect x="19" y="2" width="1" height="20" fill="#00A1DB"/>
<g clip-path="url(#clip1_1950_11520)">
<path d="M5 1H12V12H16V13H17V16H16V17H15V18H14V19H13V20H12V21H11V22H10V23H7V22H6V21H5V20H4V19H3V18H2V17H1L1 16H-6.55671e-07L1.2358e-06 13H1V12H5V1Z" fill="#FCFCFC" fill-opacity="0.75"/>
<path d="M9 21L15 15L15 14L10 14L10 3L7 3L7 14L2 14L2 15L8 21L9 21Z" fill="url(#paint0_linear_1950_11520)"/>
<path d="M11 2L11 13L15 13L15 14L10 14L10 3L7 3L7 14L2 14L2 13L6 13L6 3L6 2L11 2Z" fill="#00A1DB"/>
<rect x="13" y="17" width="1" height="1" transform="rotate(90 13 17)" fill="#00A1DB"/>
<rect x="14" y="16" width="1" height="1" transform="rotate(90 14 16)" fill="#00A1DB"/>
<rect x="5" y="17" width="1" height="1" transform="rotate(90 5 17)" fill="#00A1DB"/>
<rect x="6" y="18" width="1" height="1" transform="rotate(90 6 18)" fill="#00A1DB"/>
<rect x="7" y="19" width="1" height="1" transform="rotate(90 7 19)" fill="#00A1DB"/>
<rect x="8" y="20" width="1" height="1" transform="rotate(90 8 20)" fill="#00A1DB"/>
<rect x="12" y="18" width="1" height="1" transform="rotate(90 12 18)" fill="#00A1DB"/>
<rect x="11" y="19" width="1" height="1" transform="rotate(90 11 19)" fill="#00A1DB"/>
<rect x="9" y="21" width="1" height="1" transform="rotate(90 9 21)" fill="#00A1DB"/>
<rect x="4" y="16" width="1" height="1" transform="rotate(90 4 16)" fill="#00A1DB"/>
<rect x="10" y="20" width="1" height="1" transform="rotate(90 10 20)" fill="#00A1DB"/>
<rect x="3" y="15" width="1" height="1" transform="rotate(90 3 15)" fill="#00A1DB"/>
<rect x="2" y="14" width="1" height="1" transform="rotate(90 2 14)" fill="#00A1DB"/>
<rect x="15" y="15" width="1" height="1" transform="rotate(90 15 15)" fill="#00A1DB"/>
<rect x="16" y="14" width="1" height="1" transform="rotate(90 16 14)" fill="#00A1DB"/>
</g>
</g>
<defs>
<linearGradient id="paint0_linear_1950_11520" x1="13.1944" y1="6.5" x2="1.29959" y2="13.1817" gradientUnits="userSpaceOnUse">
<stop stop-color="#94E1FC"/>
<stop offset="1" stop-color="#FCFCFC"/>
</linearGradient>
<clipPath id="clip0_1950_11520">
<rect width="24" height="24" fill="white"/>
</clipPath>
<clipPath id="clip1_1950_11520">
<rect width="24" height="17" fill="white" transform="translate(17) rotate(90)"/>
</clipPath>
</defs>
</svg>
