<svg width="24" height="24" viewBox="0 0 24 24" fill="none" xmlns="http://www.w3.org/2000/svg">
<g clip-path="url(#clip0_1951_11208)">
<rect y="1" width="24" height="22" fill="#FCFCFC" fill-opacity="0.75"/>
<rect x="1.5" y="4.5" width="21" height="17" fill="#FCFCFC" stroke="#919191"/>
<rect x="1.5" y="2.5" width="21" height="3" fill="#94E1FC" stroke="#3A3A3A"/>
<rect x="2" y="3" width="20" height="1" fill="#00A1DB"/>
</g>
<rect x="4" y="9" width="4" height="2" fill="#919191"/>
<rect x="16" y="9" width="4" height="2" fill="#919191"/>
<rect x="10" y="9" width="4" height="2" fill="#919191"/>
<rect x="10" y="13" width="4" height="2" fill="#919191"/>
<rect x="16" y="13" width="4" height="2" fill="#919191"/>
<rect x="16" y="17" width="4" height="2" fill="#919191"/>
<g clip-path="url(#clip1_1951_11208)">
<path d="M2 21L1 21L1 18L4 18L4 13L7 13L7 18L10 18L10 21L9 21L9 22L8 22L8 23L7 23L7 24L4 24L4 23L3 23L3 22L2 22L2 21Z" fill="#FCFCFC" fill-opacity="0.75"/>
<rect x="5" y="20" width="6" height="1" transform="rotate(-90 5 20)" fill="#00A1DB"/>
<rect x="2" y="19" width="7" height="1" fill="#00A1DB"/>
<rect x="3" y="20" width="5" height="1" fill="#00A1DB"/>
<rect x="4" y="21" width="3" height="1" fill="#00A1DB"/>
<rect x="5" y="22" width="1" height="1" fill="#00A1DB"/>
</g>
<rect x="1" y="21" width="1" height="1" fill="#FCFCFC" fill-opacity="0.75"/>
<defs>
<clipPath id="clip0_1951_11208">
<rect width="24" height="22" fill="white" transform="translate(0 1)"/>
</clipPath>
<clipPath id="clip1_1951_11208">
<rect width="11" height="9" fill="white" transform="translate(1 24) rotate(-90)"/>
</clipPath>
</defs>
</svg>
