<svg width="24" height="24" viewBox="0 0 24 24" fill="none" xmlns="http://www.w3.org/2000/svg">
<g clip-path="url(#clip0_1951_11256)">
<rect y="2" width="24" height="20" fill="#FCFCFC" fill-opacity="0.75"/>
<rect x="1.5" y="3.5" width="21" height="17" fill="#FCFCFC" stroke="#919191"/>
</g>
<g clip-path="url(#clip1_1951_11256)">
<circle cx="8.5" cy="10.5" r="3.5" fill="#FCFCFC" fill-opacity="0.75"/>
<path d="M3 17C3 14.7909 4.79086 13 7 13H10C12.2091 13 14 14.7909 14 17V18H3V17Z" fill="#FCFCFC" fill-opacity="0.75"/>
<path d="M9.4 14H7.6C5.35 14 4 15.25 4 16.5V17H6V16H7V17H10V16H11V17H12.9998L13 16.5C12.9998 15.25 11.65 14 9.4 14Z" fill="#00A1DB"/>
<circle cx="8.5" cy="10.5" r="2.5" fill="#00A1DB"/>
</g>
<rect x="14" y="10" width="6" height="1" fill="#3A3A3A"/>
<rect x="14" y="7" width="6" height="1" fill="#3A3A3A"/>
<defs>
<clipPath id="clip0_1951_11256">
<rect width="24" height="20" fill="white" transform="translate(0 2)"/>
</clipPath>
<clipPath id="clip1_1951_11256">
<rect width="11" height="11" fill="white" transform="translate(3 7)"/>
</clipPath>
</defs>
</svg>
