<svg width="24" height="24" viewBox="0 0 24 24" fill="none" xmlns="http://www.w3.org/2000/svg">
<path d="M9 22H15V23H14V24H10V23H9V22Z" fill="#FCFCFC" fill-opacity="0.75"/>
<g clip-path="url(#clip0_1951_11303)">
<path d="M1 22H23V21H24V3H23V2H1V3H0V21H1V22Z" fill="#FCFCFC" fill-opacity="0.75"/>
<path d="M2 4.5H1.5V19.5H2H2.5V20V20.5H21.5V20V19.5H22H22.5V4.5H22H21.5V4V3.5H2.5V4V4.5H2Z" fill="url(#paint0_linear_1951_11303)" stroke="#919191"/>
</g>
<g clip-path="url(#clip1_1951_11303)">
<rect x="10" y="21" width="1" height="1" fill="#919191"/>
<path d="M10 20H14V21H13V22H11V21H10V20Z" fill="#FCFCFC"/>
<rect x="13" y="21" width="1" height="1" fill="#919191"/>
<rect x="11" y="22" width="2" height="1" fill="#919191"/>
</g>
<rect x="5" y="7" width="7" height="1" fill="#3A3A3A"/>
<rect x="5" y="16" width="7" height="1" fill="#3A3A3A"/>
<rect x="12" y="16" width="7" height="1" fill="#3A3A3A"/>
<rect x="5" y="13" width="7" height="1" fill="#3A3A3A"/>
<rect x="12" y="13" width="7" height="1" fill="#3A3A3A"/>
<rect x="5" y="10" width="7" height="1" fill="#3A3A3A"/>
<rect x="12" y="10" width="7" height="1" fill="#3A3A3A"/>
<defs>
<linearGradient id="paint0_linear_1951_11303" x1="12" y1="21" x2="12" y2="3" gradientUnits="userSpaceOnUse">
<stop stop-color="#FCFCFC"/>
<stop offset="1" stop-color="#E6EAEA"/>
</linearGradient>
<clipPath id="clip0_1951_11303">
<rect width="24" height="20" fill="white" transform="translate(0 2)"/>
</clipPath>
<clipPath id="clip1_1951_11303">
<rect width="4" height="3" fill="white" transform="translate(10 20)"/>
</clipPath>
</defs>
</svg>
