<svg width="24" height="24" viewBox="0 0 24 24" fill="none" xmlns="http://www.w3.org/2000/svg">
<g clip-path="url(#clip0_1952_11110)">
<path d="M0 4H6V1H18V4H24V23H0V4Z" fill="#FCFCFC" fill-opacity="0.75"/>
<rect x="1" y="6" width="22" height="12" fill="#3A3A3A"/>
<path d="M1 12H5V14H9V12H15V14H19V12H23V22H1V12Z" fill="#D8D8D8"/>
<path d="M1 5H23V11H1V5Z" fill="url(#paint0_linear_1952_11110)"/>
<rect x="7" y="2" width="10" height="1" fill="#3A3A3A"/>
<rect x="7" y="3" width="10" height="1" fill="#919191"/>
<rect x="5" y="14" width="4" height="1" fill="#FCFCFC"/>
<rect x="2" y="12" width="3" height="1" fill="#FCFCFC"/>
<rect x="19" y="12" width="3" height="1" fill="#FCFCFC"/>
<rect x="9" y="12" width="6" height="1" fill="#FCFCFC"/>
<rect x="15" y="14" width="4" height="1" fill="#FCFCFC"/>
<rect x="7" y="3" width="1" height="2" fill="#3A3A3A"/>
<rect x="16" y="3" width="1" height="2" fill="#3A3A3A"/>
<rect x="1.5" y="5.5" width="21" height="16" stroke="#919191"/>
</g>
<defs>
<linearGradient id="paint0_linear_1952_11110" x1="12" y1="5" x2="12" y2="11" gradientUnits="userSpaceOnUse">
<stop stop-color="#919191"/>
<stop offset="1" stop-color="#D8D8D8"/>
</linearGradient>
<clipPath id="clip0_1952_11110">
<rect width="24" height="24" fill="white"/>
</clipPath>
</defs>
</svg>
