<svg width="24" height="24" viewBox="0 0 24 24" fill="none" xmlns="http://www.w3.org/2000/svg">
<g clip-path="url(#clip0_1955_10761)">
<rect y="3" width="24" height="17" fill="#FCFCFC" fill-opacity="0.75"/>
<rect x="1.5" y="4.5" width="21" height="14" fill="url(#paint0_linear_1955_10761)" stroke="#919191"/>
<rect x="10" y="13" width="4" height="1" fill="#919191"/>
<rect x="15" y="11" width="1" height="1" fill="#919191"/>
<rect x="14" y="12" width="1" height="1" fill="#919191"/>
<rect x="8" y="11" width="1" height="1" fill="#919191"/>
<rect x="9" y="12" width="1" height="1" fill="#919191"/>
<rect x="23" y="19" width="1" height="1" transform="rotate(180 23 19)" fill="#919191"/>
<rect x="22" y="18" width="1" height="1" transform="rotate(180 22 18)" fill="#919191"/>
<rect x="21" y="17" width="1" height="1" transform="rotate(180 21 17)" fill="#919191"/>
<rect x="20" y="16" width="1" height="1" transform="rotate(180 20 16)" fill="#919191"/>
<rect x="19" y="15" width="1" height="1" transform="rotate(180 19 15)" fill="#919191"/>
<rect x="18" y="14" width="1" height="1" transform="rotate(180 18 14)" fill="#919191"/>
<rect x="17" y="13" width="1" height="1" transform="rotate(180 17 13)" fill="#919191"/>
<rect width="1" height="1" transform="matrix(1 0 0 -1 2 18)" fill="#919191"/>
<rect width="1" height="1" transform="matrix(1 0 0 -1 3 17)" fill="#919191"/>
<rect width="1" height="1" transform="matrix(1 0 0 -1 4 16)" fill="#919191"/>
<rect width="1" height="1" transform="matrix(1 0 0 -1 5 15)" fill="#919191"/>
<rect width="1" height="1" transform="matrix(1 0 0 -1 6 14)" fill="#919191"/>
<rect width="1" height="1" transform="matrix(1 0 0 -1 7 13)" fill="#919191"/>
<rect width="1" height="1" transform="matrix(1 0 0 -1 8 12)" fill="#919191"/>
<rect width="1" height="1" transform="matrix(-1 0 0 1 22 5)" fill="#919191"/>
<rect width="1" height="1" transform="matrix(-1 0 0 1 21 6)" fill="#919191"/>
<rect width="1" height="1" transform="matrix(-1 0 0 1 20 7)" fill="#919191"/>
<rect width="1" height="1" transform="matrix(-1 0 0 1 19 8)" fill="#919191"/>
<rect width="1" height="1" transform="matrix(-1 0 0 1 18 9)" fill="#919191"/>
<rect width="1" height="1" transform="matrix(-1 0 0 1 17 10)" fill="#919191"/>
<rect x="2" y="5" width="1" height="1" fill="#919191"/>
<rect x="3" y="6" width="1" height="1" fill="#919191"/>
<rect x="4" y="7" width="1" height="1" fill="#919191"/>
<rect x="5" y="8" width="1" height="1" fill="#919191"/>
<rect x="6" y="9" width="1" height="1" fill="#919191"/>
<rect x="7" y="10" width="1" height="1" fill="#919191"/>
<g clip-path="url(#clip1_1955_10761)">
<path d="M1 15V14H6V15H10V16H11V23H10V24H1V23H0V15H1Z" fill="#FCFCFC" fill-opacity="0.75"/>
<path d="M2 18H9V22H2V18Z" fill="url(#paint1_linear_1955_10761)"/>
<rect x="1" y="18" width="1" height="4" fill="#00A1DB"/>
<rect x="2" y="15" width="3" height="1" fill="#00A1DB"/>
<rect x="4" y="17" width="1" height="5" fill="#00A1DB"/>
<rect x="9" y="18" width="1" height="4" fill="#00A1DB"/>
<rect x="2" y="22" width="7" height="1" fill="#00A1DB"/>
<path d="M1 16H8V17H1V16Z" fill="#00A1DB"/>
<path d="M1 17H9V18H1V17Z" fill="#00A1DB"/>
</g>
</g>
<defs>
<linearGradient id="paint0_linear_1955_10761" x1="12" y1="4" x2="12" y2="19" gradientUnits="userSpaceOnUse">
<stop stop-color="#F4F7F6"/>
<stop offset="1" stop-color="#D8D8D8"/>
</linearGradient>
<linearGradient id="paint1_linear_1955_10761" x1="7.63889" y1="18.5556" x2="5.85195" y2="22.5762" gradientUnits="userSpaceOnUse">
<stop stop-color="#94E1FC"/>
<stop offset="1" stop-color="#FCFCFC"/>
</linearGradient>
<clipPath id="clip0_1955_10761">
<rect width="24" height="24" fill="white"/>
</clipPath>
<clipPath id="clip1_1955_10761">
<rect width="11" height="10" fill="white" transform="translate(0 14)"/>
</clipPath>
</defs>
</svg>
