<svg width="24" height="24" viewBox="0 0 24 24" fill="none" xmlns="http://www.w3.org/2000/svg">
<g clip-path="url(#clip0_1959_10983)">
<rect y="3" width="24" height="17" fill="#FCFCFC" fill-opacity="0.75"/>
<rect x="1.5" y="4.5" width="21" height="14" fill="url(#paint0_linear_1959_10983)" stroke="#919191"/>
<rect x="10" y="13" width="4" height="1" fill="#919191"/>
<rect x="15" y="11" width="1" height="1" fill="#919191"/>
<rect x="14" y="12" width="1" height="1" fill="#919191"/>
<rect x="8" y="11" width="1" height="1" fill="#919191"/>
<rect x="9" y="12" width="1" height="1" fill="#919191"/>
<rect x="23" y="19" width="1" height="1" transform="rotate(180 23 19)" fill="#919191"/>
<rect x="22" y="18" width="1" height="1" transform="rotate(180 22 18)" fill="#919191"/>
<rect x="21" y="17" width="1" height="1" transform="rotate(180 21 17)" fill="#919191"/>
<rect x="20" y="16" width="1" height="1" transform="rotate(180 20 16)" fill="#919191"/>
<rect x="19" y="15" width="1" height="1" transform="rotate(180 19 15)" fill="#919191"/>
<rect x="18" y="14" width="1" height="1" transform="rotate(180 18 14)" fill="#919191"/>
<rect x="17" y="13" width="1" height="1" transform="rotate(180 17 13)" fill="#919191"/>
<rect width="1" height="1" transform="matrix(1 0 0 -1 2 18)" fill="#919191"/>
<rect width="1" height="1" transform="matrix(1 0 0 -1 3 17)" fill="#919191"/>
<rect width="1" height="1" transform="matrix(1 0 0 -1 4 16)" fill="#919191"/>
<rect width="1" height="1" transform="matrix(1 0 0 -1 5 15)" fill="#919191"/>
<rect width="1" height="1" transform="matrix(1 0 0 -1 6 14)" fill="#919191"/>
<rect width="1" height="1" transform="matrix(1 0 0 -1 7 13)" fill="#919191"/>
<rect width="1" height="1" transform="matrix(1 0 0 -1 8 12)" fill="#919191"/>
<rect width="1" height="1" transform="matrix(-1 0 0 1 22 5)" fill="#919191"/>
<rect width="1" height="1" transform="matrix(-1 0 0 1 21 6)" fill="#919191"/>
<rect width="1" height="1" transform="matrix(-1 0 0 1 20 7)" fill="#919191"/>
<rect width="1" height="1" transform="matrix(-1 0 0 1 19 8)" fill="#919191"/>
<rect width="1" height="1" transform="matrix(-1 0 0 1 18 9)" fill="#919191"/>
<rect width="1" height="1" transform="matrix(-1 0 0 1 17 10)" fill="#919191"/>
<rect x="2" y="5" width="1" height="1" fill="#919191"/>
<rect x="3" y="6" width="1" height="1" fill="#919191"/>
<rect x="4" y="7" width="1" height="1" fill="#919191"/>
<rect x="5" y="8" width="1" height="1" fill="#919191"/>
<rect x="6" y="9" width="1" height="1" fill="#919191"/>
<rect x="7" y="10" width="1" height="1" fill="#919191"/>
<g clip-path="url(#clip1_1959_10983)">
<path d="M2 16V13H8V24H0V16H2Z" fill="#FCFCFC" fill-opacity="0.75"/>
<path d="M3 14H7V23H1V17H2V22H6V15H4V19H5V20H4.5H3V14Z" fill="#00A1DB"/>
</g>
</g>
<defs>
<linearGradient id="paint0_linear_1959_10983" x1="12" y1="4" x2="12" y2="19" gradientUnits="userSpaceOnUse">
<stop stop-color="#F4F7F6"/>
<stop offset="1" stop-color="#D8D8D8"/>
</linearGradient>
<clipPath id="clip0_1959_10983">
<rect width="24" height="24" fill="white"/>
</clipPath>
<clipPath id="clip1_1959_10983">
<rect width="8" height="11" fill="white" transform="translate(0 13)"/>
</clipPath>
</defs>
</svg>
