<svg width="24" height="24" viewBox="0 0 24 24" fill="none" xmlns="http://www.w3.org/2000/svg">
<g clip-path="url(#clip0_1960_10896)">
<path d="M6 2H18L23 11V22H1V11L6 2Z" fill="#FCFCFC" fill-opacity="0.75"/>
<path d="M6 1.5H5.7058L5.56292 1.75718L0.562921 10.7572L0.5 10.8704V11V22V22.5H1H23H23.5V22V11V10.8704L23.4371 10.7572L18.4371 1.75718L18.2942 1.5H18H6Z" stroke="#FCFCFC" stroke-opacity="0.75"/>
<path d="M1.5 11.1296L6.2942 2.5H17.7058L22.5 11.1296V21.5H1.5V11.1296Z" fill="#FCFCFC" stroke="#919191"/>
<path d="M16.5 14V11.5H22.5V21.5H1.5V11.5H7.5V14V14.5H8H16H16.5V14Z" fill="url(#paint0_linear_1960_10896)" stroke="#919191"/>
<rect x="7" y="5" width="10" height="1" fill="#3A3A3A"/>
<rect x="5" y="8" width="14" height="1" fill="#3A3A3A"/>
<g clip-path="url(#clip1_1960_10896)">
<path d="M0 13H9V15H11V24H2V22H0V13Z" fill="#FCFCFC" fill-opacity="0.75"/>
<rect x="3.5" y="16.5" width="6" height="6" fill="url(#paint1_linear_1960_10896)" stroke="#00A1DB"/>
<path d="M1 14H8V15H2V21H1V14Z" fill="#00A1DB"/>
</g>
</g>
<defs>
<linearGradient id="paint0_linear_1960_10896" x1="12" y1="11" x2="12" y2="22" gradientUnits="userSpaceOnUse">
<stop stop-color="#F4F7F6"/>
<stop offset="1" stop-color="#D8D8D8"/>
</linearGradient>
<linearGradient id="paint1_linear_1960_10896" x1="8.63889" y1="16.9722" x2="4.55556" y2="22.2222" gradientUnits="userSpaceOnUse">
<stop stop-color="#94E1FC"/>
<stop offset="1" stop-color="#FCFCFC"/>
</linearGradient>
<clipPath id="clip0_1960_10896">
<rect width="24" height="24" fill="white"/>
</clipPath>
<clipPath id="clip1_1960_10896">
<rect width="11" height="11" fill="white" transform="translate(0 13)"/>
</clipPath>
</defs>
</svg>
