<svg width="24" height="24" viewBox="0 0 24 24" fill="none" xmlns="http://www.w3.org/2000/svg">
<g clip-path="url(#clip0_1960_11027)">
<path d="M6 2H18L23 11V22H1V11L6 2Z" fill="#FCFCFC" fill-opacity="0.75"/>
<path d="M6 1.5H5.7058L5.56292 1.75718L0.562921 10.7572L0.5 10.8704V11V22V22.5H1H23H23.5V22V11V10.8704L23.4371 10.7572L18.4371 1.75718L18.2942 1.5H18H6Z" stroke="#FCFCFC" stroke-opacity="0.75"/>
<path d="M1.5 11.1296L6.2942 2.5H17.7058L22.5 11.1296V21.5H1.5V11.1296Z" fill="#FCFCFC" stroke="#919191"/>
<path d="M16.5 14V11.5H22.5V21.5H1.5V11.5H7.5V14V14.5H8H16H16.5V14Z" fill="url(#paint0_linear_1960_11027)" stroke="#919191"/>
<rect x="7" y="5" width="10" height="1" fill="#3A3A3A"/>
<rect x="5" y="8" width="14" height="1" fill="#3A3A3A"/>
<path d="M0 15H10V16H11V24H0V15Z" fill="#FCFCFC" fill-opacity="0.75"/>
<path d="M7 19.5H9.5V22.5H1.5V16.5H6.5V19V19.5H7Z" fill="url(#paint1_linear_1960_11027)" stroke="#00A1DB"/>
<path d="M8 16H9V17H10V18H8V16Z" fill="#00A1DB"/>
</g>
<defs>
<linearGradient id="paint0_linear_1960_11027" x1="12" y1="11" x2="12" y2="22" gradientUnits="userSpaceOnUse">
<stop stop-color="#F4F7F6"/>
<stop offset="1" stop-color="#D8D8D8"/>
</linearGradient>
<linearGradient id="paint1_linear_1960_11027" x1="8.25" y1="16.9722" x2="4.51841" y2="23.1408" gradientUnits="userSpaceOnUse">
<stop stop-color="#94E1FC"/>
<stop offset="1" stop-color="#FCFCFC"/>
</linearGradient>
<clipPath id="clip0_1960_11027">
<rect width="24" height="24" fill="white"/>
</clipPath>
</defs>
</svg>
