<svg width="24" height="24" viewBox="0 0 24 24" fill="none" xmlns="http://www.w3.org/2000/svg">
<path d="M0 4C0 2.89543 0.895431 2 2 2H7C8.10457 2 9 2.89543 9 4V4H18V8H9H5.78078C5.32191 8 4.92193 8.3123 4.81063 8.75746L2.31063 18.7575C2.15285 19.3886 2.63021 20 3.28078 20H18.2192C18.6781 20 19.0781 19.6877 19.1894 19.2425L21.6894 9.24253C21.8472 8.61139 21.3698 8 20.7192 8H18V4H19C20.1046 4 21 4.89543 21 6V6V6C22.6569 6 24 7.34315 24 9V9L21.5366 19.6746C21.2225 21.0358 20.0104 22 18.6135 22H3C1.34315 22 0 20.6569 0 19V4Z" fill="#0C121C"/>
</svg>
