<svg width="24" height="24" viewBox="0 0 24 24" fill="none" xmlns="http://www.w3.org/2000/svg">
<path fill-rule="evenodd" clip-rule="evenodd" d="M24 2H23H1H0V3V16H2V6H22V20H11V22H23H24V21V3V2Z" fill="#0C121C"/>
<path fill-rule="evenodd" clip-rule="evenodd" d="M15 17.5V21H16L16 16H23V15H16V11H23V10H16V5H15V10H9V5H8V10H1V11H8V14H9V11H15L15 15L15 16V17.5ZM7 16V15H1V16H3H7Z" fill="#0C121C"/>
<path d="M12.8503 14.1004C12.0556 13.6019 9.42141 15.0025 7.60477 17.3528C5.76542 19.6793 5.44752 20.439 5.44752 20.439C5.44752 20.439 3.22213 18.1125 1.79152 17.3528C0.633409 16.7593 -0.638235 18.5636 0.360919 19.6794C1.47361 20.9376 4.17587 24 5.53835 24C6.90083 24 7.6502 21.0325 9.28518 18.6822C11.1018 15.9996 13.6451 14.599 12.8503 14.1004Z" fill="#0C121C"/>
</svg>
