<svg width="24" height="24" viewBox="0 0 24 24" fill="none" xmlns="http://www.w3.org/2000/svg">
<path fill-rule="evenodd" clip-rule="evenodd" d="M24 2H23H1H0V3V11H2V6H22V20H9H7V22H23H24V21V3V2Z" fill="#0C121C"/>
<path fill-rule="evenodd" clip-rule="evenodd" d="M9 18H20V17H9V18ZM9 15H20V14H9V15ZM9 12H20V11H9V12ZM4 8H14V9H4V8Z" fill="#0C121C"/>
<rect x="3.5" y="22.5" width="1" height="1" fill="#0C121C" stroke="#0C121C"/>
<path d="M1 17C1 14 2 13 4 13C6 13 7 14 7 16C7 18 4 18 4 21" stroke="#0C121C" stroke-width="2"/>
</svg>
