<svg width="24" height="24" viewBox="0 0 24 24" fill="none" xmlns="http://www.w3.org/2000/svg">
<g clip-path="url(#clip0_1182_29501)">
<path fill-rule="evenodd" clip-rule="evenodd" d="M24 9C24 7.34315 22.6569 6 21 6C21 4.89543 20.1046 4 19 4H18H9C9 2.89543 8.10457 2 7 2H2C0.895431 2 0 2.89543 0 4V17.1822C0.77362 16.0187 1.94254 15.1406 3.31505 14.7398L4.81063 8.75746C4.92193 8.3123 5.32191 8 5.78078 8H9H18H20.7192C21.3698 8 21.8472 8.61139 21.6894 9.24253L19.1894 19.2425C19.0781 19.6877 18.6781 20 18.2192 20H14L12.3333 22H18.6135C20.0104 22 21.2225 21.0358 21.5366 19.6746L24 9Z" fill="#0C121C"/>
<path d="M1 22C1 19 2.76316 17 5.5 17C7.76316 17 9 19 9 20L9 21" stroke="#0C121C" stroke-width="2"/>
<path d="M9 24L12 20L6 20L9 24Z" fill="#0C121C"/>
</g>
<defs>
<clipPath id="clip0_1182_29501">
<rect width="24" height="24" fill="white"/>
</clipPath>
</defs>
</svg>
