<svg width="24" height="24" viewBox="0 0 24 24" fill="none" xmlns="http://www.w3.org/2000/svg">
<g clip-path="url(#clip0_444_10060)">
<path d="M0 0H7V4H11V8H0V0Z" fill="#0C121C"/>
<path d="M8 3L8 -1.21594e-06L11 3L8 3Z" fill="#0C121C"/>
<path d="M18 8L18 6C18 4 17 2 14 2L13 2" stroke="#0C121C" stroke-width="2"/>
<path d="M17.9966 11L21 6.99805L14.9998 6.99805L17.9966 11Z" fill="#0C121C"/>
<rect x="13" y="13" width="2" height="11" fill="#0C121C"/>
<rect x="16" y="13" width="1" height="3" fill="#0C121C"/>
<rect x="18" y="13" width="1" height="3" fill="#0C121C"/>
<rect x="14" y="22" width="9" height="2" fill="#0C121C"/>
<rect x="22" y="16" width="2" height="8" fill="#0C121C"/>
<path d="M14 15H20V13H21L24 16V17H14V15Z" fill="#0C121C"/>
</g>
<defs>
<clipPath id="clip0_444_10060">
<rect width="24" height="24" fill="white"/>
</clipPath>
</defs>
</svg>
