<svg width="24" height="24" viewBox="0 0 24 24" fill="none" xmlns="http://www.w3.org/2000/svg">
<path fill-rule="evenodd" clip-rule="evenodd" d="M24 2H18V22H24V2ZM13 22H15V2H9V17H13V19H14V20H13V22ZM6 17V2H0V17H6ZM1 4H5V8H1V4ZM5 10H1V11H5V10ZM10 4H14V8H10V4ZM14 10H10V11H14V10ZM23 4H19V8H23V4ZM19 10H23V11H19V10ZM23 19H19V20H23V19Z" fill="#0C121C"/>
<path d="M0 18H5V21H4V19H1V23H4V21H5V23V24H0V18Z" fill="#0C121C"/>
<path d="M12 24L7 24L7 23L7 21L8 21L8 23L11 23L11 19L8 19L8 21L7 21L7 19L7 18L12 18L12 24Z" fill="#0C121C"/>
<rect x="2" y="20" width="8" height="2" fill="#0C121C"/>
</svg>
