<svg width="24" height="24" viewBox="0 0 24 24" fill="none" xmlns="http://www.w3.org/2000/svg">
<path fill-rule="evenodd" clip-rule="evenodd" d="M24 2H22H2H0V3V4V18H2V12V4H22V19L15 15L13 18L9.8 22H24V21V20V4V3V2ZM17.5 13C19.433 13 21 11.433 21 9.5C21 7.567 19.433 6 17.5 6C15.567 6 14 7.567 14 9.5C14 11.433 15.567 13 17.5 13Z" fill="#0C121C"/>
<path d="M5.23223 18.7678C6.20854 19.7441 7.79146 19.7441 8.76777 18.7678C9.74408 17.7915 9.74408 16.2085 8.76777 15.2322C7.79146 14.2559 6.20854 14.2559 5.23223 15.2322C4.25592 16.2085 4.25592 17.7915 5.23223 18.7678Z" stroke="#0C121C"/>
<path d="M6 19L5 18L3 20L4 21L6 19Z" fill="#0C121C"/>
<path d="M4.5 21L3 19.5L0 22.5L1.5 24L4.5 21Z" fill="#0C121C"/>
</svg>
