<svg width="24" height="24" viewBox="0 0 24 24" fill="none" xmlns="http://www.w3.org/2000/svg">
<g clip-path="url(#clip0_449_12277)">
<path fill-rule="evenodd" clip-rule="evenodd" d="M24 4C24 4 24 3 23 3H22C22 3 22 2 21 2H17C17 2 17 1 16 1H14C13 1 13 2 13 2V5L2 5V0H0V14H2V6L13 6V9C13 9 13 10 14 10H22C22.5 10 23 9 23 9L24 4ZM10 19V20H13V22C13 22 13 23 14 23H22C22.5 23 23 22 23 22L24 17C24 17 24 16 23 16H22C22 16 22 15 21 15H17C17 15 17 14 16 14H14C13 14 13 15 13 15V19H10ZM15 4H23L22 9H14L15 4ZM23 17H15L14 22H22L23 17Z" fill="#0C121C"/>
<rect x="2" y="17" width="7" height="7" fill="#0C121C"/>
<path fill-rule="evenodd" clip-rule="evenodd" d="M7 15H0V22H1V16H7V15Z" fill="#0C121C"/>
</g>
<defs>
<clipPath id="clip0_449_12277">
<rect width="24" height="24" fill="white"/>
</clipPath>
</defs>
</svg>
