<svg width="24" height="24" viewBox="0 0 24 24" fill="none" xmlns="http://www.w3.org/2000/svg">
<path fill-rule="evenodd" clip-rule="evenodd" d="M24 3H21V7H24V3ZM24 10H21V14H24V10ZM24 17H21V21H24V17ZM7 22H17V2H0V13H1V11H6L11 13V16H7V17H11V20L7 22ZM20 2H18V22H20V2Z" fill="#0C121C"/>
<path d="M5 12L10 14V15H6L6.00188 17H2.00188V15H0L9.53674e-07 14H2L2.00188 12H5Z" fill="#0C121C"/>
<path d="M2.00188 19H0V18H10V19L6.00188 21H2.00188V19Z" fill="#0C121C"/>
<path d="M6.00188 22H2L2.00188 24H6.00188V22Z" fill="#0C121C"/>
</svg>
