<svg width="24" height="24" viewBox="0 0 24 24" fill="none" xmlns="http://www.w3.org/2000/svg">
<g clip-path="url(#clip0_457_14890)">
<path fill-rule="evenodd" clip-rule="evenodd" d="M24 2H23H1H0V3V12H2V11V6H22V20H11V22H23H24V21V3V2Z" fill="#0C121C"/>
<path d="M6 19H4C1.5 19 0 20.5 0 22V25H2V22H3V25H7V22H8V25H9.99981L10 22C9.99981 20.5 8.5 19 6 19Z" fill="#0C121C"/>
<circle cx="5" cy="15" r="3" fill="#0C121C"/>
<path fill-rule="evenodd" clip-rule="evenodd" d="M9 16H15V21H16L16 16H23V15H16V11H23V10H16V5H15V10H9V5H8V10H1V11H2H8H9H15V15H9V16Z" fill="#0C121C"/>
</g>
<defs>
<clipPath id="clip0_457_14890">
<rect width="24" height="24" fill="white"/>
</clipPath>
</defs>
</svg>
