<svg width="24" height="24" viewBox="0 0 24 24" fill="none" xmlns="http://www.w3.org/2000/svg">
<g clip-path="url(#clip0_461_11846)">
<path fill-rule="evenodd" clip-rule="evenodd" d="M0 2H2H4V4H2V11H9H11V13H13V11H15H22V4H20V2H22H24V11V13V17C24 19.7614 21.7614 22 19 22H18C15.2386 22 13 19.7614 13 17V15H11V17C11 19.7614 8.76142 22 6 22H5C2.23858 22 0 19.7614 0 17V13V11V2ZM9 13H2V17C2 18.6569 3.34315 20 5 20H6C7.65685 20 9 18.6569 9 17V13ZM22 13H15V17C15 18.6569 16.3431 20 18 20H19C20.6569 20 22 18.6569 22 17V13Z" fill="#0C121C"/>
</g>
<defs>
<clipPath id="clip0_461_11846">
<rect width="24" height="24" fill="white"/>
</clipPath>
</defs>
</svg>
