<svg width="24" height="24" viewBox="0 0 24 24" fill="none" xmlns="http://www.w3.org/2000/svg">
<path fill-rule="evenodd" clip-rule="evenodd" d="M24 16H15.876C18.3354 14.6353 20 12.012 20 9C20 4.58172 16.4183 1 12 1C7.58172 1 4 4.58172 4 9C4 10.9545 4.70094 12.7454 5.86515 14.1348L8 12L12 16L8 20H24V16ZM5 23H22V21H7L5 23Z" fill="#0C121C"/>
<g clip-path="url(#clip0_462_11879)">
<path d="M0 23.9999L2 20L4 22L0 23.9999Z" fill="#0C121C"/>
<path d="M7.30469 14.6973L8.01179 15.4044L3.70909 19.7071L3.00199 19L7.30469 14.6973Z" fill="#0C121C"/>
<path d="M8.59375 16.0078L9.30086 16.7149L4.99987 21.0159L4.29276 20.3088L8.59375 16.0078Z" fill="#0C121C"/>
<path d="M10.0039 16.0195L9.2968 16.7266L7.27748 14.7073L7.98454 14.0002L10.0039 16.0195Z" fill="#0C121C"/>
</g>
<defs>
<clipPath id="clip0_462_11879">
<rect width="10" height="10" fill="white" transform="translate(0 14)"/>
</clipPath>
</defs>
</svg>
