<svg width="24" height="24" viewBox="0 0 24 24" fill="none" xmlns="http://www.w3.org/2000/svg">
<path fill-rule="evenodd" clip-rule="evenodd" d="M24 2H0V8H24V2ZM12 4H14V6H12V4ZM18 4H16V6H18V4ZM22 4H20V6H22V4Z" fill="#0C121C"/>
<path fill-rule="evenodd" clip-rule="evenodd" d="M24 9H0V15H24V9ZM12 11H14V13H12V11ZM18 11H16V13H18V11ZM22 11H20V13H22V11Z" fill="#0C121C"/>
<path fill-rule="evenodd" clip-rule="evenodd" d="M24 16H0V22H24V16ZM12 18H14V20H12V18ZM18 18H16V20H18V18ZM22 18H20V20H22V18Z" fill="#0C121C"/>
</svg>
