<svg width="24" height="24" viewBox="0 0 24 24" fill="none" xmlns="http://www.w3.org/2000/svg">
<path fill-rule="evenodd" clip-rule="evenodd" d="M24 2H22H2H0V4V14C0 12.5194 0.804397 11.2267 2 10.5351V4H22V17H9C10.1046 17 11 17.8954 11 19V22H24V20H14V19H22H24V17V4V2Z" fill="#0C121C"/>
<path fill-rule="evenodd" clip-rule="evenodd" d="M5 17C6.65685 17 8 15.6569 8 14C8 12.3431 6.65685 11 5 11C3.34315 11 2 12.3431 2 14C2 15.6569 3.34315 17 5 17ZM0 21C0 19.5 1.5 18 4 18H6C8.5 18 9.99981 19.5 10 21L9.99981 24H8V21H7V24H3V21H2V24H0V21Z" fill="#0C121C"/>
</svg>
