<svg width="24" height="24" viewBox="0 0 24 24" fill="none" xmlns="http://www.w3.org/2000/svg">
<path fill-rule="evenodd" clip-rule="evenodd" d="M20 0H17V4H18V6H13V7V8V11H14V8H18H19H23V12H24V8V6H19V4H20V0ZM22 10H15V17H22V10ZM24 18H0V22H24V18ZM3 21C3.55228 21 4 20.5523 4 20C4 19.4477 3.55228 19 3 19C2.44772 19 2 19.4477 2 20C2 20.5523 2.44772 21 3 21ZM10 20C10 20.5523 9.55229 21 9 21C8.44771 21 8 20.5523 8 20C8 19.4477 8.44771 19 9 19C9.55229 19 10 19.4477 10 20ZM15 21C15.5523 21 16 20.5523 16 20C16 19.4477 15.5523 19 15 19C14.4477 19 14 19.4477 14 20C14 20.5523 14.4477 21 15 21ZM22 20C22 20.5523 21.5523 21 21 21C20.4477 21 20 20.5523 20 20C20 19.4477 20.4477 19 21 19C21.5523 19 22 19.4477 22 20ZM1 10H8V17H1V10Z" fill="#0C121C"/>
</svg>
