<svg width="24" height="24" viewBox="0 0 24 24" fill="none" xmlns="http://www.w3.org/2000/svg">
<path fill-rule="evenodd" clip-rule="evenodd" d="M24 2H0V7H24V2ZM8 22H22V8H2V13H3L4 16V13H8V14H9.5C10.8807 14 12 15.1193 12 16.5C12 17.8807 10.8807 19 9.5 19H8V22Z" fill="#0C121C"/>
<path fill-rule="evenodd" clip-rule="evenodd" d="M5 24H7V14H5V24ZM5 24L4.99841 19.9998L2.00043 14L2 14.8499V14H0V24H2V18.003L5 24ZM9.5 18C10.3284 18 11 17.3284 11 16.5C11 15.6716 10.3284 15 9.5 15C8.67157 15 8 15.6716 8 16.5C8 17.3284 8.67157 18 9.5 18Z" fill="#0C121C"/>
</svg>
