<svg width="24" height="24" viewBox="0 0 24 24" fill="none" xmlns="http://www.w3.org/2000/svg">
<g clip-path="url(#clip0_487_14230)">
<path fill-rule="evenodd" clip-rule="evenodd" d="M18.6048 3.3528C20.4214 1.00252 23.0556 -0.398131 23.8503 0.100411C24.2807 0.370394 23.7322 0.904935 22.8503 1.76437C22.1036 2.49194 21.118 3.45236 20.2852 4.68224C19.6957 5.52958 19.2214 6.45715 18.7919 7.29696C18.0302 8.78653 17.4096 10 16.5383 10C15.1817 10 12.4969 6.96389 11.3754 5.6957L11.3609 5.67935C10.3618 4.56357 11.6334 2.75929 12.7915 3.3528C14.2221 4.11248 16.4475 6.43898 16.4475 6.43898C16.4475 6.43898 16.7654 5.67933 18.6048 3.3528ZM0 4V2H2H10V4H2V12H0V4ZM22 5L24 3V4V20V22H22H12V20H22V5ZM9.10982 15.6432C8.59571 15.2148 7.85143 15 7 15H6.00195V17.0002L2 14.0034L6.00195 11V13H7C8.14857 13 9.40429 13.2852 10.3902 14.1068C11.4082 14.9551 12 16.2595 12 18V19H10V18C10 16.7405 9.59184 16.0449 9.10982 15.6432ZM2.89018 19.3568C3.40429 19.7852 4.14857 20 5 20H5.99805V17.9998L10 20.9966L5.99805 24V22H5C3.85143 22 2.59571 21.7148 1.60982 20.8932C0.591843 20.0449 0 18.7405 0 17V16H2V17C2 18.2595 2.40816 18.9551 2.89018 19.3568Z" fill="#0C121C"/>
</g>
<defs>
<clipPath id="clip0_487_14230">
<rect width="24" height="24" fill="white"/>
</clipPath>
</defs>
</svg>
