<svg width="24" height="24" viewBox="0 0 24 24" fill="none" xmlns="http://www.w3.org/2000/svg">
<g clip-path="url(#clip0_489_17175)">
<path fill-rule="evenodd" clip-rule="evenodd" d="M24 2H0V22H24V2ZM4.61479 16.154C3.37546 16.154 2.42946 15.8093 1.77679 15.12C1.13146 14.4307 0.808789 13.4517 0.808789 12.183C0.808789 11.5523 0.907789 10.9913 1.10579 10.5C1.30379 10.0013 1.57512 9.58333 1.91979 9.246C2.26446 8.90133 2.67512 8.641 3.15179 8.465C3.62846 8.289 4.14546 8.201 4.70279 8.201C5.02546 8.201 5.31879 8.22667 5.58279 8.278C5.84679 8.322 6.07779 8.377 6.27579 8.443C6.47379 8.50167 6.63879 8.564 6.77079 8.63C6.90279 8.696 6.99812 8.74733 7.05679 8.784L6.56179 10.17C6.32712 10.0453 6.05212 9.939 5.73679 9.851C5.42879 9.763 5.07679 9.719 4.68079 9.719C4.41679 9.719 4.15646 9.763 3.89979 9.851C3.65046 9.939 3.42679 10.082 3.22879 10.28C3.03812 10.4707 2.88412 10.72 2.76679 11.028C2.64946 11.336 2.59079 11.71 2.59079 12.15C2.59079 12.502 2.62746 12.832 2.70079 13.14C2.78146 13.4407 2.90612 13.701 3.07479 13.921C3.25079 14.141 3.47812 14.317 3.75679 14.449C4.03546 14.5737 4.37279 14.636 4.76879 14.636C5.01812 14.636 5.24179 14.6213 5.43979 14.592C5.63779 14.5627 5.81379 14.5297 5.96779 14.493C6.12179 14.449 6.25746 14.4013 6.37479 14.35C6.49212 14.2987 6.59846 14.251 6.69379 14.207L7.16679 15.582C6.92479 15.7287 6.58379 15.8607 6.14379 15.978C5.70379 16.0953 5.19412 16.154 4.61479 16.154ZM13.6871 16C13.6065 15.736 13.5148 15.4647 13.4121 15.186L13.1261 14.35H10.1561C10.0608 14.6287 9.96179 14.9073 9.85913 15.186C9.76379 15.4647 9.67579 15.736 9.59513 16H7.81313C8.09912 15.1787 8.37046 14.4197 8.62712 13.723C8.88379 13.0263 9.13312 12.37 9.37512 11.754C9.62446 11.138 9.86646 10.555 10.1011 10.005C10.3431 9.44767 10.5925 8.905 10.8491 8.377H12.4881C12.7375 8.905 12.9831 9.44767 13.2251 10.005C13.4671 10.555 13.7091 11.138 13.9511 11.754C14.2005 12.37 14.4535 13.0263 14.7101 13.723C14.9668 14.4197 15.2381 15.1787 15.5241 16H13.6871ZM11.6301 10.104C11.5935 10.214 11.5385 10.3643 11.4651 10.555C11.3918 10.7457 11.3075 10.9657 11.2121 11.215C11.1168 11.4643 11.0105 11.7393 10.8931 12.04C10.7831 12.3407 10.6695 12.656 10.5521 12.986H12.7191C12.6018 12.656 12.4881 12.3407 12.3781 12.04C12.2681 11.7393 12.1618 11.4643 12.0591 11.215C11.9638 10.9657 11.8795 10.7457 11.8061 10.555C11.7328 10.3643 11.6741 10.214 11.6301 10.104ZM18.5019 14.625C18.3992 14.6177 18.3075 14.6103 18.2269 14.603V9.785C18.3369 9.77033 18.4542 9.763 18.5789 9.763C18.7035 9.75567 18.8245 9.752 18.9419 9.752C19.7999 9.752 20.4269 9.95733 20.8229 10.368C21.2189 10.7787 21.4169 11.3837 21.4169 12.183C21.4169 12.9457 21.2079 13.5433 20.7899 13.976C20.3792 14.4087 19.7449 14.625 18.8869 14.625H18.5019ZM22.8799 13.91C23.0852 13.4187 23.1879 12.843 23.1879 12.183C23.1879 11.4937 23.0852 10.9033 22.8799 10.412C22.6745 9.92067 22.3812 9.51733 21.9999 9.202C21.6185 8.88667 21.1602 8.65567 20.6249 8.509C20.0969 8.36233 19.5065 8.289 18.8539 8.289C18.5459 8.289 18.1755 8.30367 17.7429 8.333C17.3175 8.355 16.9069 8.40267 16.5109 8.476V15.901C16.9069 15.9817 17.3102 16.033 17.7209 16.055C18.1315 16.0843 18.4909 16.099 18.7989 16.099C19.4735 16.099 20.0822 16.0183 20.6249 15.857C21.1675 15.6957 21.6259 15.4537 21.9999 15.131C22.3812 14.8083 22.6745 14.4013 22.8799 13.91Z" fill="#0C121C"/>
</g>
<defs>
<clipPath id="clip0_489_17175">
<rect width="24" height="20" fill="white" transform="translate(0 2)"/>
</clipPath>
</defs>
</svg>
