<svg width="24" height="24" viewBox="0 0 24 24" fill="none" xmlns="http://www.w3.org/2000/svg">
<g clip-path="url(#clip0_489_17267)">
<path fill-rule="evenodd" clip-rule="evenodd" d="M24 2H23H1H0V3V18.5L2 16.5V6H22V20H13V22H23H24V21V3V2Z" fill="#0C121C"/>
<path d="M3.00391 19L3.00391 21L12.0039 21L12.0039 19L3.00391 19Z" fill="#0C121C"/>
<path d="M-3.49987e-07 19.9966L4.00195 24L4.00195 15.9998L-3.49987e-07 19.9966Z" fill="#0C121C"/>
<path fill-rule="evenodd" clip-rule="evenodd" d="M4 8H8V10H4V8ZM16 8H20V10H16V8ZM14 8H10V10H14V8ZM10 12H14V14H10V12ZM8 12H4V14H8V12ZM16 12H20V14H16V12ZM20 16H16V18H20V16Z" fill="#0C121C"/>
</g>
<defs>
<clipPath id="clip0_489_17267">
<rect width="24" height="24" fill="white"/>
</clipPath>
</defs>
</svg>
