<svg width="24" height="24" viewBox="0 0 24 24" fill="none" xmlns="http://www.w3.org/2000/svg">
<g clip-path="url(#clip0_489_17330)">
<path fill-rule="evenodd" clip-rule="evenodd" d="M15 0L7 6.0049L15 12V8.05217C16.2833 8.1902 17.3983 8.60202 18.2196 9.28644C19.1837 10.0898 20 11.481 20 14H24C24 10.519 22.8163 7.91018 20.7804 6.21356C19.0916 4.80621 17.0069 4.18581 15 4.03673V0ZM17 17.9951L9 24V19.9633C6.99314 19.8142 4.90844 19.1938 3.21963 17.7864C1.18369 16.0898 0 13.481 0 10H4C4 12.519 4.81631 13.9102 5.78037 14.7136C6.60167 15.398 7.71668 15.8098 9 15.9478V12L17 17.9951Z" fill="#0C121C"/>
</g>
<defs>
<clipPath id="clip0_489_17330">
<rect width="24" height="24" fill="white"/>
</clipPath>
</defs>
</svg>
