<svg width="16" height="16" viewBox="0 0 16 16" fill="none" xmlns="http://www.w3.org/2000/svg">
<g clip-path="url(#clip0_1809_35060)">
<path d="M5 3.24658C3.43149 4.15438 2.5 5.837 2.5 7.99996C2.5 11.3137 4.68629 13.5 8 13.5L9 13.5" stroke="#FCFCFC" stroke-opacity="0.75" stroke-width="3"/>
<path d="M8 13.5C4.68629 13.5 2.5 11.3137 2.5 7.99996C2.5 5.837 3.43149 4.15438 5 3.24658" stroke="#00A1DB"/>
<rect width="2" height="1" transform="matrix(1 0 0 -1 3 3)" fill="#00A1DB"/>
<rect width="1" height="3" transform="matrix(1 0 0 -1 5 5)" fill="#00A1DB"/>
<rect width="1" height="1" transform="matrix(1 0 0 -1 4 4)" fill="#00A1DB"/>
<path d="M2 1H7V6H6H5V5H6V2H3V3H2V1Z" fill="#FCFCFC" fill-opacity="0.75"/>
</g>
<g clip-path="url(#clip1_1809_35060)">
<path d="M12 12.7534C13.5685 11.8456 14.5 10.163 14.5 8.00004C14.5 4.68633 12.3137 2.50004 9 2.50004L8 2.5" stroke="#FCFCFC" stroke-opacity="0.75" stroke-width="3"/>
<path d="M9 2.50004C12.3137 2.50004 14.5 4.68633 14.5 8.00004C14.5 10.163 13.5685 11.8456 12 12.7534" stroke="#00A1DB"/>
<rect width="2" height="1" transform="matrix(-1 0 0 1 14 13)" fill="#00A1DB"/>
<rect width="1" height="3" transform="matrix(-1 0 0 1 12 11)" fill="#00A1DB"/>
<rect width="1" height="1" transform="matrix(-1 0 0 1 13 12)" fill="#00A1DB"/>
<path d="M15 15H10V10H11H12V11H11V14H14V13H15V15Z" fill="#FCFCFC" fill-opacity="0.75"/>
</g>
<defs>
<clipPath id="clip0_1809_35060">
<rect width="8" height="14" fill="white" transform="translate(1 1)"/>
</clipPath>
<clipPath id="clip1_1809_35060">
<rect width="8" height="14" fill="white" transform="matrix(-1 0 0 -1 16 15)"/>
</clipPath>
</defs>
</svg>
