<svg width="16" height="16" viewBox="0 0 16 16" fill="none" xmlns="http://www.w3.org/2000/svg">
<path d="M1 0H9V1H10V2H11V12H1V0Z" fill="#FCFCFC" fill-opacity="0.75"/>
<path d="M2 1H8V2H9V3H10V11H2V1Z" fill="url(#paint0_linear_1815_17514)"/>
<path fill-rule="evenodd" clip-rule="evenodd" d="M8 1H2V2V11H10V3H9V2H8V1ZM9 4H8H7V3V2H3V10H9V4Z" fill="#3A3A3A"/>
<path d="M6 3H14V4H15V5H16V15H6V3Z" fill="#FCFCFC" fill-opacity="0.75"/>
<path d="M7 4H13V5H14V6H15V14H7V4Z" fill="url(#paint1_linear_1815_17514)"/>
<path fill-rule="evenodd" clip-rule="evenodd" d="M13 4H7V5V14H15V6H14V5H13V4ZM14 7H13H12V6V5H8V13H14V7Z" fill="#3A3A3A"/>
<defs>
<linearGradient id="paint0_linear_1815_17514" x1="6" y1="1" x2="6" y2="11" gradientUnits="userSpaceOnUse">
<stop stop-color="#FCFCFC"/>
<stop offset="1" stop-color="#E6EAEA"/>
</linearGradient>
<linearGradient id="paint1_linear_1815_17514" x1="11" y1="4" x2="11" y2="14" gradientUnits="userSpaceOnUse">
<stop stop-color="#FCFCFC"/>
<stop offset="1" stop-color="#E6EAEA"/>
</linearGradient>
</defs>
</svg>
