<svg width="16" height="16" viewBox="0 0 16 16" fill="none" xmlns="http://www.w3.org/2000/svg">
<path d="M15 8C15 8.76142 11.7614 13 8 13C4.23858 13 1 8.76142 1 8C1 7.23858 4.23858 3 8 3C11.7614 3 15 7.23858 15 8Z" fill="#FCFCFC" fill-opacity="0.75"/>
<path d="M13.5041 7.95572C13.5041 7.95571 13.504 7.95631 13.5036 7.95757L13.5041 7.95572ZM13.4353 7.89228C13.4598 7.93733 13.4768 7.97316 13.4881 8C13.4768 8.02684 13.4598 8.06267 13.4353 8.10772C13.3691 8.22922 13.2642 8.38928 13.1197 8.57701C12.8316 8.95129 12.4089 9.40643 11.8869 9.84598C10.8319 10.7346 9.44358 11.5 8 11.5C6.55642 11.5 5.16815 10.7346 4.11305 9.84598C3.59113 9.40643 3.16842 8.95129 2.88033 8.57701C2.73584 8.38928 2.63087 8.22922 2.56473 8.10772C2.54021 8.06267 2.52318 8.02684 2.5119 8C2.52318 7.97316 2.54021 7.93733 2.56473 7.89228C2.63087 7.77078 2.73584 7.61072 2.88033 7.42299C3.16842 7.04871 3.59113 6.59357 4.11305 6.15402C5.16815 5.26544 6.55642 4.5 8 4.5C9.44358 4.5 10.8319 5.26544 11.8869 6.15402C12.4089 6.59357 12.8316 7.04871 13.1197 7.42299C13.2642 7.61072 13.3691 7.77078 13.4353 7.89228ZM2.49592 7.95572C2.49594 7.95573 2.49611 7.95636 2.49637 7.95757L2.49592 7.95572ZM2.49592 8.04428C2.4959 8.04429 2.49603 8.04368 2.49637 8.04244L2.49592 8.04428ZM13.5036 8.04248C13.504 8.0437 13.5041 8.04429 13.5041 8.04428L13.5036 8.04248Z" fill="#D8D8D8" stroke="#919191"/>
<circle cx="8" cy="8" r="2" fill="#3A3A3A"/>
<circle cx="7.5" cy="7.5" r="0.5" fill="#D8D8D8"/>
</svg>
