<svg width="16" height="16" viewBox="0 0 16 16" fill="none" xmlns="http://www.w3.org/2000/svg">
<g clip-path="url(#clip0_1817_18299)">
<path d="M14.8388 1.10041C13.9829 0.601869 11.1461 2.00252 9.18975 4.3528C7.20891 6.67933 6.86655 7.43898 6.86655 7.43898C6.86655 7.43898 4.46998 5.11248 2.92933 4.3528C1.68213 3.75929 0.31267 5.56357 1.38868 6.67935C2.58697 7.93758 5.49709 11 6.96438 11C8.43166 11 9.23868 8.03251 10.9994 5.68224C12.9558 2.9996 15.6947 1.59895 14.8388 1.10041Z" fill="#FCFCFC" fill-opacity="0.75"/>
<path d="M6.75944 6.65217C6.51137 6.42368 6.17764 6.12294 5.80052 5.80066C5.00929 5.12449 3.98288 4.31481 3.15045 3.90435L3.15048 3.90431L3.14418 3.90131C2.23466 3.4685 1.33635 3.938 0.87905 4.58713C0.411554 5.25073 0.286507 6.25553 1.0276 7.02521L1.04605 7.04459C1.64631 7.6749 2.67803 8.75827 3.74746 9.68872C4.2875 10.1586 4.84951 10.6004 5.38039 10.9275C5.89277 11.2432 6.45081 11.5 6.96438 11.5C7.51749 11.5 7.96363 11.2156 8.32287 10.8501C8.67855 10.4882 8.99778 9.99794 9.30354 9.47476C9.48466 9.16485 9.66351 8.84004 9.84668 8.5074C10.3035 7.67783 10.7871 6.79953 11.3996 5.98202L11.3996 5.98205L11.4034 5.97685C12.2685 4.79065 13.2933 3.86294 14.0998 3.13291C14.1717 3.06778 14.2419 3.00422 14.3101 2.9422C14.7073 2.58106 15.0805 2.23377 15.2874 1.9323C15.3881 1.78561 15.5085 1.56822 15.4995 1.31287C15.4887 1.00304 15.3001 0.790442 15.0905 0.668359C14.7035 0.442929 14.202 0.476202 13.7558 0.581016C13.2819 0.692359 12.7427 0.914924 12.1866 1.21988C11.0733 1.83033 9.8265 2.80693 8.80727 4.03075C7.81024 5.20189 7.21915 5.98611 6.8744 6.48351C6.8326 6.54381 6.79438 6.59997 6.75944 6.65217Z" stroke="#FCFCFC" stroke-opacity="0.75"/>
<path d="M9.57046 4.67693L9.57048 4.67695L9.57404 4.67268C10.5109 3.54724 11.6599 2.64916 12.6674 2.09672C13.1719 1.82004 13.6248 1.63903 13.9845 1.55452C14.1427 1.51736 14.2654 1.50289 14.3579 1.50039C14.2084 1.67359 13.9691 1.90064 13.6373 2.20238C13.569 2.26448 13.4979 2.32884 13.4243 2.39545C12.6229 3.12029 11.5258 4.11263 10.5973 5.38502C9.9408 6.26188 9.40281 7.23872 8.93596 8.08639C8.7616 8.40299 8.59716 8.70156 8.44017 8.97019C8.14067 9.48266 7.87299 9.88119 7.60965 10.1491C7.34987 10.4135 7.14491 10.5 6.96438 10.5C6.7443 10.5 6.38834 10.374 5.90495 10.0761C5.44006 9.78972 4.92453 9.38732 4.40385 8.9343C3.37006 8.03485 2.36462 6.97911 1.76223 6.34658L1.75075 6.33453L1.75076 6.33452L1.74859 6.33227C1.41498 5.98633 1.43677 5.53181 1.69656 5.16305C1.96602 4.78055 2.37452 4.64435 2.71166 4.80295C3.41949 5.15285 4.35992 5.88497 5.15085 6.56088C5.54056 6.89391 5.88328 7.20394 6.12859 7.43073C6.25114 7.54404 6.34913 7.63634 6.41623 7.70007C6.44978 7.73193 6.47558 7.75663 6.49286 7.77323L6.51227 7.79193L6.51699 7.79649L6.51807 7.79753L6.51828 7.79774L6.51831 7.79777L7.0296 8.29411L7.32059 7.64843C7.32169 7.6462 7.32417 7.64123 7.32827 7.63338C7.33743 7.61585 7.35457 7.58419 7.38237 7.53676C7.43804 7.44178 7.5357 7.28485 7.69628 7.05316C8.01772 6.58941 8.58772 5.83117 9.57046 4.67693Z" fill="url(#paint0_linear_1817_18299)" stroke="#919191"/>
<g clip-path="url(#clip1_1817_18299)">
<g clip-path="url(#clip2_1817_18299)">
<path d="M8.49264 9.61276L6.37132 7.49144L4.25 9.61276L2.12868 7.49144L0.00735939 9.61276L2.12868 11.7341L0.00735939 13.8554L2.12868 15.9767L4.25 13.8554L6.37132 15.9767L8.49264 13.8554L6.37132 11.7341L8.49264 9.61276Z" fill="#FCFCFC" fill-opacity="0.75"/>
<rect x="6.37109" y="8.90576" width="1" height="7" transform="rotate(45 6.37109 8.90576)" fill="#EA212D"/>
<rect x="7.07812" y="13.8555" width="1" height="7" transform="rotate(135 7.07812 13.8555)" fill="#EA212D"/>
</g>
</g>
</g>
<defs>
<linearGradient id="paint0_linear_1817_18299" x1="8" y1="1" x2="8" y2="11" gradientUnits="userSpaceOnUse">
<stop stop-color="#F4F7F6"/>
<stop offset="1" stop-color="#D8D8D8"/>
</linearGradient>
<clipPath id="clip0_1817_18299">
<rect width="16" height="16" fill="white"/>
</clipPath>
<clipPath id="clip1_1817_18299">
<rect width="9" height="9" fill="white" transform="translate(0 7)"/>
</clipPath>
<clipPath id="clip2_1817_18299">
<rect width="9" height="9" fill="white" transform="translate(4.25 5.37012) rotate(45)"/>
</clipPath>
</defs>
</svg>
