<svg width="16" height="16" viewBox="0 0 16 16" fill="none" xmlns="http://www.w3.org/2000/svg">
<g clip-path="url(#clip0_1830_17740)">
<g clip-path="url(#clip1_1830_17740)">
<path d="M0 2C0 0.895432 0.895431 0 2 0H14C15.1046 0 16 0.895431 16 2V2.92742C16 7.78283 13.6498 12.3379 9.69286 15.1517L8.90748 15.7102C8.64242 15.8987 8.32524 16 8 16C7.67476 16 7.35758 15.8987 7.09252 15.7102L6.30714 15.1517C2.3502 12.3379 0 7.78283 0 2.92742V2Z" fill="#FCFCFC" fill-opacity="0.75"/>
<path d="M1.5 2.92798C1.5 2.13933 2.13933 1.5 2.92798 1.5H13.072C13.8607 1.5 14.5 2.13933 14.5 2.92798V3.40259C14.5 7.7718 12.2797 11.8793 8.64124 14.3049C8.45131 14.4315 8.22635 14.5 8 14.5C7.77365 14.5 7.54869 14.4315 7.35876 14.3049C3.72034 11.8793 1.5 7.7718 1.5 3.40259V2.92798Z" fill="url(#paint0_linear_1830_17740)" stroke="#919191"/>
</g>
<g clip-path="url(#clip2_1830_17740)">
<path d="M8.80009 6H7.20006C5.20002 6 4 7.25 4 8.5V11H5.33336H6.66672H9.33344H10.6667H12V8.5C11.9998 7.25 10.8001 6 8.80009 6Z" fill="#FCFCFC" fill-opacity="0.75"/>
<path d="M8.6 7H7.4C5.9 7 5 8 5 9V10H6V9H7V10H9V9H10L9.99994 10H10.9999V9C10.9998 8 10.1 7 8.6 7Z" fill="#3A3A3A"/>
<circle cx="8" cy="4.5" r="2.5" fill="#FCFCFC" fill-opacity="0.75"/>
<circle cx="8" cy="4.5" r="1.5" fill="#3A3A3A"/>
</g>
</g>
<defs>
<linearGradient id="paint0_linear_1830_17740" x1="8" y1="1" x2="8" y2="15" gradientUnits="userSpaceOnUse">
<stop stop-color="#F4F7F6"/>
<stop offset="1" stop-color="#D8D8D8"/>
</linearGradient>
<clipPath id="clip0_1830_17740">
<rect width="16" height="16" fill="white"/>
</clipPath>
<clipPath id="clip1_1830_17740">
<rect width="16" height="16" fill="white"/>
</clipPath>
<clipPath id="clip2_1830_17740">
<rect width="8" height="9" fill="white" transform="translate(4 2)"/>
</clipPath>
</defs>
</svg>
