<svg width="16" height="16" viewBox="0 0 16 16" fill="none" xmlns="http://www.w3.org/2000/svg">
<g clip-path="url(#clip0_1835_17611)">
<path d="M11 0H2V16H14V3H13V2H12V1H11V0Z" fill="#FCFCFC" fill-opacity="0.75"/>
<path d="M3 1H10V2H11V3H12V4H13V15H3V1Z" fill="url(#paint0_linear_1835_17611)"/>
<path fill-rule="evenodd" clip-rule="evenodd" d="M3 1H10V2H11V3H10V4H11V3H12V4H13V15H3V2V1ZM12 5H10H9V4V2H4V14H12V5Z" fill="#3A3A3A"/>
</g>
<g clip-path="url(#clip1_1835_17611)">
<path d="M1 9V6H7V7H8V9H9V15H8V16H1V15H0V9H1Z" fill="#FCFCFC" fill-opacity="0.75"/>
<path d="M6 8.5H6.5V9V10.5H2.5V7.5H5.5V8V8.5H6Z" fill="#FCFCFC" stroke="#919191"/>
<rect x="1" y="11" width="5" height="3" fill="#3A3A3A"/>
<path d="M6 11H8V14H6V12H7V11H6Z" fill="#3A3A3A"/>
<rect x="2" y="14" width="5" height="1" fill="#3A3A3A"/>
<rect x="1" y="10" width="7" height="1" fill="#919191"/>
<rect x="2" y="13" width="5" height="1" fill="#919191"/>
</g>
<defs>
<linearGradient id="paint0_linear_1835_17611" x1="8" y1="1" x2="8" y2="15" gradientUnits="userSpaceOnUse">
<stop stop-color="#FCFCFC"/>
<stop offset="1" stop-color="#E6EAEA"/>
</linearGradient>
<clipPath id="clip0_1835_17611">
<rect width="12" height="16" fill="white" transform="translate(2)"/>
</clipPath>
<clipPath id="clip1_1835_17611">
<rect width="9" height="10" fill="white" transform="translate(0 6)"/>
</clipPath>
</defs>
</svg>
