<svg width="16" height="16" viewBox="0 0 16 16" fill="none" xmlns="http://www.w3.org/2000/svg">
<g clip-path="url(#clip0_1838_17242)">
<path d="M3 4H12V13H11V5H3V4Z" fill="#F2994A"/>
<path d="M3 3.5H2.5V4V5V5.5H3H10.5V13V13.5H11H12H12.5V13V4V3.5H12H3Z" stroke="#FCFCFC" stroke-opacity="0.75"/>
<g clip-path="url(#clip1_1838_17242)">
<path d="M0 1V0H4V1H7V2H8V5H7V6H6V7H0V1Z" fill="#FCFCFC" fill-opacity="0.75"/>
<rect x="1" y="1" width="2" height="1" fill="#F2994A"/>
<rect x="2" y="3" width="1" height="1" fill="#F2994A"/>
<rect x="6" y="3" width="1" height="1" fill="#F2994A"/>
<rect x="5" y="4" width="1" height="1" fill="#F2994A"/>
<rect x="1" y="2" width="1" height="4" fill="#F2994A"/>
<path d="M1 5H5V6H1V5Z" fill="#F2994A"/>
<rect x="2" y="2" width="4" height="1" fill="#F2994A"/>
<path d="M3 3H6V4H5V5H2V4H3V3Z" fill="url(#paint0_radial_1838_17242)"/>
</g>
<g clip-path="url(#clip2_1838_17242)">
<path d="M8 9V8H12V9H15V10H16V13H15V14H14V15H8V9Z" fill="#FCFCFC" fill-opacity="0.75"/>
<rect x="9" y="9" width="2" height="1" fill="#F2994A"/>
<rect x="10" y="11" width="1" height="1" fill="#F2994A"/>
<rect x="14" y="11" width="1" height="1" fill="#F2994A"/>
<rect x="13" y="12" width="1" height="1" fill="#F2994A"/>
<rect x="9" y="10" width="1" height="4" fill="#F2994A"/>
<path d="M9 13H13V14H9V13Z" fill="#F2994A"/>
<rect x="10" y="10" width="4" height="1" fill="#F2994A"/>
<path d="M11 11H14V12H13V13H10V12H11V11Z" fill="url(#paint1_radial_1838_17242)"/>
</g>
<g clip-path="url(#clip3_1838_17242)">
<g clip-path="url(#clip4_1838_17242)">
<path d="M8.49264 9.61276L6.37132 7.49144L4.25 9.61276L2.12868 7.49144L0.00735939 9.61276L2.12868 11.7341L0.00735939 13.8554L2.12868 15.9767L4.25 13.8554L6.37132 15.9767L8.49264 13.8554L6.37132 11.7341L8.49264 9.61276Z" fill="#FCFCFC" fill-opacity="0.75"/>
<rect x="6.37109" y="8.90576" width="1" height="7" transform="rotate(45 6.37109 8.90576)" fill="#EA212D"/>
<rect x="7.07812" y="13.8555" width="1" height="7" transform="rotate(135 7.07812 13.8555)" fill="#EA212D"/>
</g>
</g>
</g>
<defs>
<radialGradient id="paint0_radial_1838_17242" cx="0" cy="0" r="1" gradientUnits="userSpaceOnUse" gradientTransform="translate(3.82609 5) rotate(-84.1325) scale(2.55183 3.85765)">
<stop stop-color="#F2994A"/>
<stop offset="0.588115" stop-color="#F2C94C"/>
<stop offset="1" stop-color="#FCFCFC"/>
</radialGradient>
<radialGradient id="paint1_radial_1838_17242" cx="0" cy="0" r="1" gradientUnits="userSpaceOnUse" gradientTransform="translate(11.8261 13) rotate(-84.1325) scale(2.55183 3.85765)">
<stop stop-color="#F2994A"/>
<stop offset="0.588115" stop-color="#F2C94C"/>
<stop offset="1" stop-color="#FCFCFC"/>
</radialGradient>
<clipPath id="clip0_1838_17242">
<rect width="16" height="16" fill="white"/>
</clipPath>
<clipPath id="clip1_1838_17242">
<rect width="8" height="7" fill="white"/>
</clipPath>
<clipPath id="clip2_1838_17242">
<rect width="8" height="7" fill="white" transform="translate(8 8)"/>
</clipPath>
<clipPath id="clip3_1838_17242">
<rect width="9" height="9" fill="white" transform="translate(0 7)"/>
</clipPath>
<clipPath id="clip4_1838_17242">
<rect width="9" height="9" fill="white" transform="translate(4.25 5.37012) rotate(45)"/>
</clipPath>
</defs>
</svg>
