<svg width="16" height="16" viewBox="0 0 16 16" fill="none" xmlns="http://www.w3.org/2000/svg">
<g clip-path="url(#clip0_1842_16997)">
<g clip-path="url(#clip1_1842_16997)">
<path d="M0 0H16V3.5L10 7.5V14L9 16H6V7.5L0 3.5V0Z" fill="#FCFCFC" fill-opacity="0.75"/>
<path d="M7.69098 14.5H7.5V7V6.73241L7.27735 6.58397L1.5 2.73241V1.5H14.5V2.73241L8.72265 6.58397L8.5 6.73241V7V12.882L7.69098 14.5Z" fill="url(#paint0_linear_1842_16997)" stroke="#919191"/>
</g>
<g clip-path="url(#clip2_1842_16997)">
<path d="M1 9V7H7V13H6V14H5V15H4V16H0V9H1Z" fill="#FCFCFC" fill-opacity="0.75"/>
<rect x="2" y="8" width="4" height="1" fill="#00A1DB"/>
<rect x="2" y="9" width="3" height="1" fill="#00A1DB"/>
<rect x="1" y="10" width="3" height="1" fill="#00A1DB"/>
<rect x="3" y="12" width="2" height="1" fill="#00A1DB"/>
<rect x="2" y="13" width="2" height="1" fill="#00A1DB"/>
<rect x="1" y="14" width="2" height="1" fill="#00A1DB"/>
<rect x="1" y="11" width="5" height="1" fill="#00A1DB"/>
</g>
</g>
<defs>
<linearGradient id="paint0_linear_1842_16997" x1="15" y1="8.63636" x2="1" y2="8.63636" gradientUnits="userSpaceOnUse">
<stop stop-color="#F4F7F6"/>
<stop offset="1" stop-color="#D8D8D8"/>
</linearGradient>
<clipPath id="clip0_1842_16997">
<rect width="16" height="16" fill="white"/>
</clipPath>
<clipPath id="clip1_1842_16997">
<rect width="16" height="16" fill="white"/>
</clipPath>
<clipPath id="clip2_1842_16997">
<rect width="7" height="9" fill="white" transform="translate(0 7)"/>
</clipPath>
</defs>
</svg>
