<svg width="16" height="16" viewBox="0 0 16 16" fill="none" xmlns="http://www.w3.org/2000/svg">
<g clip-path="url(#clip0_1843_16955)">
<g clip-path="url(#clip1_1843_16955)">
<mask id="path-1-outside-1_1843_16955" maskUnits="userSpaceOnUse" x="0" y="0" width="16" height="16" fill="black">
<rect fill="white" width="16" height="16"/>
<path fill-rule="evenodd" clip-rule="evenodd" d="M6.99805 1H8.99805V3.09962C9.63672 3.229 10.2312 3.48011 10.7563 3.82768L11.9492 2.63477L13.3634 4.04898L12.1709 5.24153C12.5188 5.7666 12.7703 6.36119 12.9 7H15V9H12.9C12.7704 9.63853 12.5191 10.2329 12.1713 10.7578L13.3633 11.9497L11.9491 13.3639L10.757 12.1719C10.2318 12.5197 9.63701 12.7709 8.99805 12.9004V15H6.99805V12.8996C6.35974 12.7697 5.76562 12.5183 5.24094 12.1705L4.04868 13.3628L2.63446 11.9485L3.82729 10.7557C3.48027 10.2313 3.22946 9.6377 3.10002 9H1V7H3.10002C3.22962 6.36154 3.48087 5.76726 3.82853 5.24241L2.63627 4.05014L4.05048 2.63593L5.24281 3.82826C5.76703 3.4811 6.3605 3.2301 6.99805 3.10041V1ZM8 10C9.10457 10 10 9.10457 10 8C10 6.89543 9.10457 6 8 6C6.89543 6 6 6.89543 6 8C6 9.10457 6.89543 10 8 10Z"/>
</mask>
<path fill-rule="evenodd" clip-rule="evenodd" d="M6.99805 1H8.99805V3.09962C9.63672 3.229 10.2312 3.48011 10.7563 3.82768L11.9492 2.63477L13.3634 4.04898L12.1709 5.24153C12.5188 5.7666 12.7703 6.36119 12.9 7H15V9H12.9C12.7704 9.63853 12.5191 10.2329 12.1713 10.7578L13.3633 11.9497L11.9491 13.3639L10.757 12.1719C10.2318 12.5197 9.63701 12.7709 8.99805 12.9004V15H6.99805V12.8996C6.35974 12.7697 5.76562 12.5183 5.24094 12.1705L4.04868 13.3628L2.63446 11.9485L3.82729 10.7557C3.48027 10.2313 3.22946 9.6377 3.10002 9H1V7H3.10002C3.22962 6.36154 3.48087 5.76726 3.82853 5.24241L2.63627 4.05014L4.05048 2.63593L5.24281 3.82826C5.76703 3.4811 6.3605 3.2301 6.99805 3.10041V1ZM8 10C9.10457 10 10 9.10457 10 8C10 6.89543 9.10457 6 8 6C6.89543 6 6 6.89543 6 8C6 9.10457 6.89543 10 8 10Z" fill="#FCFCFC" fill-opacity="0.75"/>
<path d="M8.99805 1H9.99805V0H8.99805V1ZM6.99805 1V0H5.99805V1H6.99805ZM8.99805 3.09962H7.99805V3.91736L8.79951 4.07971L8.99805 3.09962ZM10.7563 3.82768L10.2043 4.66154L10.8857 5.11254L11.4634 4.53479L10.7563 3.82768ZM11.9492 2.63477L12.6563 1.92766L11.9492 1.22055L11.2421 1.92766L11.9492 2.63477ZM13.3634 4.04898L14.0705 4.75609L14.7776 4.04898L14.0705 3.34187L13.3634 4.04898ZM12.1709 5.24153L11.4638 4.53442L10.8857 5.11248L11.3373 5.79393L12.1709 5.24153ZM12.9 7L11.92 7.19893L12.0826 8H12.9V7ZM15 7H16V6H15V7ZM15 9V10H16V9H15ZM12.9 9V8H12.0826L11.92 8.80107L12.9 9ZM12.1713 10.7578L11.3377 10.2055L10.8863 10.8869L11.4642 11.4649L12.1713 10.7578ZM13.3633 11.9497L14.0704 12.6568L14.7775 11.9497L14.0704 11.2426L13.3633 11.9497ZM11.9491 13.3639L11.242 14.071L11.9491 14.7781L12.6562 14.071L11.9491 13.3639ZM10.757 12.1719L11.4641 11.4648L10.8863 10.8869L10.2049 11.3381L10.757 12.1719ZM8.99805 12.9004L8.79951 11.9203L7.99805 12.0826V12.9004H8.99805ZM8.99805 15V16H9.99805V15H8.99805ZM6.99805 15H5.99805V16H6.99805V15ZM6.99805 12.8996H7.99805V12.0825L7.19737 11.9197L6.99805 12.8996ZM5.24094 12.1705L5.79346 11.337L5.11198 10.8852L4.53383 11.4634L5.24094 12.1705ZM4.04868 13.3628L3.34157 14.0699L4.04868 14.777L4.75578 14.0699L4.04868 13.3628ZM2.63446 11.9485L1.92736 11.2414L1.22025 11.9485L1.92736 12.6557L2.63446 11.9485ZM3.82729 10.7557L4.5344 11.4628L5.11207 10.8852L4.66123 10.2039L3.82729 10.7557ZM3.10002 9L4.08003 8.80107L3.91742 8H3.10002V9ZM1 9H0V10H1V9ZM1 7V6H0V7H1ZM3.10002 7V8H3.91742L4.08003 7.19893L3.10002 7ZM3.82853 5.24241L4.66222 5.79464L5.11358 5.11324L4.53564 4.5353L3.82853 5.24241ZM2.63627 4.05014L1.92916 3.34303L1.22205 4.05014L1.92916 4.75725L2.63627 4.05014ZM4.05048 2.63593L4.75759 1.92882L4.05048 1.22171L3.34337 1.92882L4.05048 2.63593ZM5.24281 3.82826L4.53571 4.53537L5.11359 5.11325L5.79496 4.66201L5.24281 3.82826ZM6.99805 3.10041L7.19737 4.08035L7.99805 3.91749V3.10041H6.99805ZM8.99805 0H6.99805V2H8.99805V0ZM9.99805 3.09962V1H7.99805V3.09962H9.99805ZM11.3083 2.99382C10.6783 2.57678 9.96413 2.27501 9.19659 2.11953L8.79951 4.07971C9.30931 4.18299 9.7842 4.38344 10.2043 4.66154L11.3083 2.99382ZM11.2421 1.92766L10.0492 3.12057L11.4634 4.53479L12.6563 3.34187L11.2421 1.92766ZM14.0705 3.34187L12.6563 1.92766L11.2421 3.34187L12.6563 4.75609L14.0705 3.34187ZM12.878 5.94863L14.0705 4.75609L12.6563 3.34187L11.4638 4.53442L12.878 5.94863ZM13.88 6.80107C13.7242 6.03335 13.422 5.31913 13.0045 4.68912L11.3373 5.79393C11.6157 6.21406 11.8165 6.68902 11.92 7.19893L13.88 6.80107ZM15 6H12.9V8H15V6ZM16 9V7H14V9H16ZM12.9 10H15V8H12.9V10ZM13.005 11.31C13.4222 10.6802 13.7242 9.96631 13.88 9.19893L11.92 8.80107C11.8165 9.31076 11.6159 9.78551 11.3377 10.2055L13.005 11.31ZM14.0704 11.2426L12.8785 10.0507L11.4642 11.4649L12.6562 12.6568L14.0704 11.2426ZM12.6562 14.071L14.0704 12.6568L12.6562 11.2426L11.242 12.6568L12.6562 14.071ZM10.0499 12.879L11.242 14.071L12.6562 12.6568L11.4641 11.4648L10.0499 12.879ZM9.19659 13.8805C9.96447 13.7249 10.6789 13.423 11.3091 13.0056L10.2049 11.3381C9.78462 11.6164 9.30954 11.817 8.79951 11.9203L9.19659 13.8805ZM9.99805 15V12.9004H7.99805V15H9.99805ZM6.99805 16H8.99805V14H6.99805V16ZM5.99805 12.8996V15H7.99805V12.8996H5.99805ZM4.68842 13.004C5.31796 13.4213 6.03161 13.7235 6.79872 13.8795L7.19737 11.9197C6.68786 11.816 6.21328 11.6153 5.79346 11.337L4.68842 13.004ZM4.75578 14.0699L5.94805 12.8776L4.53383 11.4634L3.34157 12.6557L4.75578 14.0699ZM1.92736 12.6557L3.34157 14.0699L4.75578 12.6557L3.34157 11.2414L1.92736 12.6557ZM3.12018 10.0486L1.92736 11.2414L3.34157 12.6557L4.5344 11.4628L3.12018 10.0486ZM2.12 9.19893C2.27557 9.9653 2.57698 10.6784 2.99335 11.3076L4.66123 10.2039C4.38357 9.78427 4.18336 9.31009 4.08003 8.80107L2.12 9.19893ZM1 10H3.10002V8H1V10ZM0 7V9H2V7H0ZM3.10002 6H1V8H3.10002V6ZM2.99484 4.69018C2.5777 5.31993 2.27576 6.03378 2.12 6.80107L4.08003 7.19893C4.18348 6.6893 4.38405 6.2146 4.66222 5.79464L2.99484 4.69018ZM4.53564 4.5353L3.34337 3.34303L1.92916 4.75725L3.12142 5.94951L4.53564 4.5353ZM3.34337 4.75725L4.75759 3.34303L3.34337 1.92882L1.92916 3.34303L3.34337 4.75725ZM3.34337 3.34303L4.53571 4.53537L5.94992 3.12116L4.75759 1.92882L3.34337 3.34303ZM6.79872 2.12048C6.03252 2.27633 5.31965 2.57797 4.69066 2.99452L5.79496 4.66201C6.21441 4.38423 6.68847 4.18386 7.19737 4.08035L6.79872 2.12048ZM5.99805 1V3.10041H7.99805V1H5.99805ZM9 8C9 8.55228 8.55228 9 8 9V11C9.65685 11 11 9.65685 11 8H9ZM8 7C8.55228 7 9 7.44772 9 8H11C11 6.34315 9.65685 5 8 5V7ZM7 8C7 7.44772 7.44772 7 8 7V5C6.34315 5 5 6.34315 5 8H7ZM8 9C7.44772 9 7 8.55228 7 8H5C5 9.65685 6.34315 11 8 11V9Z" fill="#FCFCFC" fill-opacity="0.75" mask="url(#path-1-outside-1_1843_16955)"/>
<mask id="path-3-inside-2_1843_16955" fill="white">
<path fill-rule="evenodd" clip-rule="evenodd" d="M6.99805 1H8.99805V3.09962C9.63672 3.229 10.2312 3.48011 10.7563 3.82768L11.9492 2.63477L13.3634 4.04898L12.1709 5.24153C12.5188 5.7666 12.7703 6.36119 12.9 7H15V9H12.9C12.7704 9.63853 12.5191 10.2329 12.1713 10.7578L13.3633 11.9497L11.9491 13.3639L10.757 12.1719C10.2318 12.5197 9.63701 12.7709 8.99805 12.9004V15H6.99805V12.8996C6.35974 12.7697 5.76562 12.5183 5.24094 12.1705L4.04868 13.3628L2.63446 11.9485L3.82729 10.7557C3.48027 10.2313 3.22946 9.6377 3.10002 9H1V7H3.10002C3.22962 6.36154 3.48087 5.76726 3.82853 5.24241L2.63627 4.05014L4.05048 2.63593L5.24281 3.82826C5.76703 3.4811 6.3605 3.2301 6.99805 3.10041V1ZM8 10C9.10457 10 10 9.10457 10 8C10 6.89543 9.10457 6 8 6C6.89543 6 6 6.89543 6 8C6 9.10457 6.89543 10 8 10Z"/>
</mask>
<path fill-rule="evenodd" clip-rule="evenodd" d="M6.99805 1H8.99805V3.09962C9.63672 3.229 10.2312 3.48011 10.7563 3.82768L11.9492 2.63477L13.3634 4.04898L12.1709 5.24153C12.5188 5.7666 12.7703 6.36119 12.9 7H15V9H12.9C12.7704 9.63853 12.5191 10.2329 12.1713 10.7578L13.3633 11.9497L11.9491 13.3639L10.757 12.1719C10.2318 12.5197 9.63701 12.7709 8.99805 12.9004V15H6.99805V12.8996C6.35974 12.7697 5.76562 12.5183 5.24094 12.1705L4.04868 13.3628L2.63446 11.9485L3.82729 10.7557C3.48027 10.2313 3.22946 9.6377 3.10002 9H1V7H3.10002C3.22962 6.36154 3.48087 5.76726 3.82853 5.24241L2.63627 4.05014L4.05048 2.63593L5.24281 3.82826C5.76703 3.4811 6.3605 3.2301 6.99805 3.10041V1ZM8 10C9.10457 10 10 9.10457 10 8C10 6.89543 9.10457 6 8 6C6.89543 6 6 6.89543 6 8C6 9.10457 6.89543 10 8 10Z" fill="#D8D8D8"/>
<path d="M8.99805 1H9.99805V0H8.99805V1ZM6.99805 1V0H5.99805V1H6.99805ZM8.99805 3.09962H7.99805V3.91736L8.79951 4.07971L8.99805 3.09962ZM10.7563 3.82768L10.2043 4.66154L10.8857 5.11254L11.4634 4.53479L10.7563 3.82768ZM11.9492 2.63477L12.6563 1.92766L11.9492 1.22055L11.2421 1.92766L11.9492 2.63477ZM13.3634 4.04898L14.0705 4.75609L14.7776 4.04898L14.0705 3.34187L13.3634 4.04898ZM12.1709 5.24153L11.4638 4.53442L10.8857 5.11248L11.3373 5.79393L12.1709 5.24153ZM12.9 7L11.92 7.19893L12.0826 8H12.9V7ZM15 7H16V6H15V7ZM15 9V10H16V9H15ZM12.9 9V8H12.0826L11.92 8.80107L12.9 9ZM12.1713 10.7578L11.3377 10.2055L10.8863 10.8869L11.4642 11.4649L12.1713 10.7578ZM13.3633 11.9497L14.0704 12.6568L14.7775 11.9497L14.0704 11.2426L13.3633 11.9497ZM11.9491 13.3639L11.242 14.071L11.9491 14.7781L12.6562 14.071L11.9491 13.3639ZM10.757 12.1719L11.4641 11.4648L10.8863 10.8869L10.2049 11.3381L10.757 12.1719ZM8.99805 12.9004L8.79951 11.9203L7.99805 12.0826V12.9004H8.99805ZM8.99805 15V16H9.99805V15H8.99805ZM6.99805 15H5.99805V16H6.99805V15ZM6.99805 12.8996H7.99805V12.0825L7.19737 11.9197L6.99805 12.8996ZM5.24094 12.1705L5.79346 11.337L5.11198 10.8852L4.53383 11.4634L5.24094 12.1705ZM4.04868 13.3628L3.34157 14.0699L4.04868 14.777L4.75578 14.0699L4.04868 13.3628ZM2.63446 11.9485L1.92736 11.2414L1.22025 11.9485L1.92736 12.6557L2.63446 11.9485ZM3.82729 10.7557L4.5344 11.4628L5.11207 10.8852L4.66123 10.2039L3.82729 10.7557ZM3.10002 9L4.08003 8.80107L3.91742 8H3.10002V9ZM1 9H0V10H1V9ZM1 7V6H0V7H1ZM3.10002 7V8H3.91742L4.08003 7.19893L3.10002 7ZM3.82853 5.24241L4.66222 5.79464L5.11358 5.11324L4.53564 4.5353L3.82853 5.24241ZM2.63627 4.05014L1.92916 3.34303L1.22205 4.05014L1.92916 4.75725L2.63627 4.05014ZM4.05048 2.63593L4.75759 1.92882L4.05048 1.22171L3.34337 1.92882L4.05048 2.63593ZM5.24281 3.82826L4.53571 4.53537L5.11359 5.11325L5.79496 4.66201L5.24281 3.82826ZM6.99805 3.10041L7.19737 4.08035L7.99805 3.91749V3.10041H6.99805ZM8.99805 0H6.99805V2H8.99805V0ZM9.99805 3.09962V1H7.99805V3.09962H9.99805ZM11.3083 2.99382C10.6783 2.57678 9.96413 2.27501 9.19659 2.11953L8.79951 4.07971C9.30931 4.18299 9.7842 4.38344 10.2043 4.66154L11.3083 2.99382ZM11.2421 1.92766L10.0492 3.12057L11.4634 4.53479L12.6563 3.34187L11.2421 1.92766ZM14.0705 3.34187L12.6563 1.92766L11.2421 3.34187L12.6563 4.75609L14.0705 3.34187ZM12.878 5.94863L14.0705 4.75609L12.6563 3.34187L11.4638 4.53442L12.878 5.94863ZM13.88 6.80107C13.7242 6.03335 13.422 5.31913 13.0045 4.68912L11.3373 5.79393C11.6157 6.21406 11.8165 6.68902 11.92 7.19893L13.88 6.80107ZM15 6H12.9V8H15V6ZM16 9V7H14V9H16ZM12.9 10H15V8H12.9V10ZM13.005 11.31C13.4222 10.6802 13.7242 9.96631 13.88 9.19893L11.92 8.80107C11.8165 9.31076 11.6159 9.78551 11.3377 10.2055L13.005 11.31ZM14.0704 11.2426L12.8785 10.0507L11.4642 11.4649L12.6562 12.6568L14.0704 11.2426ZM12.6562 14.071L14.0704 12.6568L12.6562 11.2426L11.242 12.6568L12.6562 14.071ZM10.0499 12.879L11.242 14.071L12.6562 12.6568L11.4641 11.4648L10.0499 12.879ZM9.19659 13.8805C9.96447 13.7249 10.6789 13.423 11.3091 13.0056L10.2049 11.3381C9.78462 11.6164 9.30954 11.817 8.79951 11.9203L9.19659 13.8805ZM9.99805 15V12.9004H7.99805V15H9.99805ZM6.99805 16H8.99805V14H6.99805V16ZM5.99805 12.8996V15H7.99805V12.8996H5.99805ZM4.68842 13.004C5.31796 13.4213 6.03161 13.7235 6.79872 13.8795L7.19737 11.9197C6.68786 11.816 6.21328 11.6153 5.79346 11.337L4.68842 13.004ZM4.75578 14.0699L5.94805 12.8776L4.53383 11.4634L3.34157 12.6557L4.75578 14.0699ZM1.92736 12.6557L3.34157 14.0699L4.75578 12.6557L3.34157 11.2414L1.92736 12.6557ZM3.12018 10.0486L1.92736 11.2414L3.34157 12.6557L4.5344 11.4628L3.12018 10.0486ZM2.12 9.19893C2.27557 9.9653 2.57698 10.6784 2.99335 11.3076L4.66123 10.2039C4.38357 9.78427 4.18336 9.31009 4.08003 8.80107L2.12 9.19893ZM1 10H3.10002V8H1V10ZM0 7V9H2V7H0ZM3.10002 6H1V8H3.10002V6ZM2.99484 4.69018C2.5777 5.31993 2.27576 6.03378 2.12001 6.80107L4.08003 7.19893C4.18348 6.6893 4.38405 6.21459 4.66222 5.79464L2.99484 4.69018ZM4.53564 4.5353L3.34337 3.34303L1.92916 4.75725L3.12142 5.94951L4.53564 4.5353ZM3.34337 4.75725L4.75759 3.34303L3.34337 1.92882L1.92916 3.34303L3.34337 4.75725ZM3.34337 3.34303L4.53571 4.53537L5.94992 3.12116L4.75759 1.92882L3.34337 3.34303ZM6.79872 2.12048C6.03252 2.27633 5.31965 2.57797 4.69066 2.99452L5.79496 4.66201C6.21441 4.38423 6.68847 4.18386 7.19737 4.08035L6.79872 2.12048ZM5.99805 1V3.10041H7.99805V1H5.99805ZM9 8C9 8.55228 8.55228 9 8 9V11C9.65685 11 11 9.65685 11 8H9ZM8 7C8.55228 7 9 7.44772 9 8H11C11 6.34315 9.65685 5 8 5V7ZM7 8C7 7.44772 7.44772 7 8 7V5C6.34315 5 5 6.34315 5 8H7ZM8 9C7.44772 9 7 8.55228 7 8H5C5 9.65685 6.34315 11 8 11V9Z" fill="#919191" mask="url(#path-3-inside-2_1843_16955)"/>
</g>
</g>
<defs>
<clipPath id="clip0_1843_16955">
<rect width="16" height="16" fill="white"/>
</clipPath>
<clipPath id="clip1_1843_16955">
<rect width="16" height="16" fill="white"/>
</clipPath>
</defs>
</svg>
