<svg width="16" height="16" viewBox="0 0 16 16" fill="none" xmlns="http://www.w3.org/2000/svg">
<g clip-path="url(#clip0_1847_16608)">
<g clip-path="url(#clip1_1847_16608)">
<path d="M4 0H2C0.895431 0 0 0.895431 0 2V13C0 14.1046 0.89543 15 2 15H5H12.3957C13.3331 15 14.1447 14.3489 14.348 13.4339L16 6C16 4.89543 15.1046 4 14 4H13C13 2.89543 12.1046 2 11 2H6C6 0.895431 5.10457 0 4 0Z" fill="#FCFCFC" fill-opacity="0.75"/>
<path d="M1 3V12C1 13.1046 1.89543 14 3 14H4H11.4914C12.3844 14 13.1691 13.408 13.4144 12.5494L15 7C15 5.89543 14.1046 5 13 5H12C12 3.89543 11.1046 3 10 3H5C5 1.89543 4.10457 1 3 1C1.89543 1 1 1.89543 1 3Z" fill="#F2994A"/>
<path d="M2.36421 11.7253L3.79278 6.72528C3.91544 6.29598 4.30782 6 4.7543 6H12.6743C13.3386 6 13.8183 6.63591 13.6358 7.27472L12.2072 12.2747C12.0846 12.704 11.6922 13 11.2457 13H3.32573C2.66135 13 2.18169 12.3641 2.36421 11.7253Z" fill="url(#paint0_radial_1847_16608)"/>
</g>
<g clip-path="url(#clip2_1847_16608)">
<path d="M1 15V16H5V15H8V10H3V12H0V15H1Z" fill="#FCFCFC" fill-opacity="0.75"/>
<rect width="2" height="1" transform="matrix(1 0 0 -1 4 12)" fill="#00A1DB"/>
<rect width="1" height="3" transform="matrix(1 0 0 -1 6 14)" fill="#00A1DB"/>
<rect width="2" height="1" transform="matrix(1 0 0 -1 2 15)" fill="#00A1DB"/>
<rect width="1" height="1" transform="matrix(1 0 0 -1 4 14)" fill="#00A1DB"/>
<rect width="1" height="1" transform="matrix(1 0 0 -1 5 13)" fill="#00A1DB"/>
<rect width="1" height="1" transform="matrix(1 0 0 -1 1 14)" fill="#00A1DB"/>
</g>
</g>
<defs>
<radialGradient id="paint0_radial_1847_16608" cx="0" cy="0" r="1" gradientUnits="userSpaceOnUse" gradientTransform="translate(7.47826 13) rotate(-84.966) scale(8.91902 11.589)">
<stop stop-color="#FCFCFC"/>
<stop offset="1" stop-color="#F2C94C"/>
</radialGradient>
<clipPath id="clip0_1847_16608">
<rect width="16" height="16" fill="white"/>
</clipPath>
<clipPath id="clip1_1847_16608">
<rect width="16" height="15" fill="white"/>
</clipPath>
<clipPath id="clip2_1847_16608">
<rect width="8" height="6" fill="white" transform="matrix(1 0 0 -1 0 16)"/>
</clipPath>
</defs>
</svg>
