<svg width="16" height="16" viewBox="0 0 16 16" fill="none" xmlns="http://www.w3.org/2000/svg">
<g clip-path="url(#clip0_1851_15906)">
<g clip-path="url(#clip1_1851_15906)">
<path d="M9 2L13 2V3H14V5H15V8H14V9H11L11 8H10L10 5H9V2Z" fill="#FCFCFC" fill-opacity="0.75"/>
<rect x="11" y="6" width="3" height="1" fill="#00A1DB"/>
<rect x="12" y="4" width="1" height="2" fill="#00A1DB"/>
<rect x="12" y="7" width="1" height="1" fill="#00A1DB"/>
<rect x="10" y="3" width="2" height="1" fill="#00A1DB"/>
</g>
<g clip-path="url(#clip2_1851_15906)">
<path d="M0 0H8V1H9V8H0V0Z" fill="#FCFCFC" fill-opacity="0.75"/>
<path d="M5 4.5H7.5V6.5H1.5V1.5H4.5V4V4.5H5Z" fill="url(#paint0_linear_1851_15906)" stroke="#919191"/>
<path d="M6 1H7V2H8V3H6V1Z" fill="#919191"/>
</g>
<g clip-path="url(#clip3_1851_15906)">
<path d="M9 9H14V10H15V11H16V16H9V9Z" fill="#FCFCFC" fill-opacity="0.75"/>
<path d="M11 12H14V14H11V12Z" fill="url(#paint1_linear_1851_15906)"/>
<rect x="10" y="10" width="1" height="5" fill="#3A3A3A"/>
<rect x="12" y="10" width="1" height="2" fill="#3A3A3A"/>
<rect x="14" y="11" width="1" height="3" transform="rotate(90 14 11)" fill="#3A3A3A"/>
<rect x="14" y="12" width="1" height="3" fill="#3A3A3A"/>
<rect x="10" y="14" width="5" height="1" fill="#3A3A3A"/>
</g>
</g>
<defs>
<linearGradient id="paint0_linear_1851_15906" x1="4.5" y1="1" x2="4.5" y2="7" gradientUnits="userSpaceOnUse">
<stop stop-color="#F4F7F6"/>
<stop offset="1" stop-color="#D8D8D8"/>
</linearGradient>
<linearGradient id="paint1_linear_1851_15906" x1="12.5" y1="12" x2="12.5" y2="14" gradientUnits="userSpaceOnUse">
<stop stop-color="#FCFCFC"/>
<stop offset="1" stop-color="#E6EAEA"/>
</linearGradient>
<clipPath id="clip0_1851_15906">
<rect width="16" height="16" fill="white"/>
</clipPath>
<clipPath id="clip1_1851_15906">
<rect width="6" height="7" fill="white" transform="translate(9 2)"/>
</clipPath>
<clipPath id="clip2_1851_15906">
<rect width="9" height="8" fill="white"/>
</clipPath>
<clipPath id="clip3_1851_15906">
<rect width="7" height="7" fill="white" transform="translate(9 9)"/>
</clipPath>
</defs>
</svg>
