<svg width="16" height="16" viewBox="0 0 16 16" fill="none" xmlns="http://www.w3.org/2000/svg">
<g clip-path="url(#clip0_1855_15835)">
<path d="M16 1H14V0H9V1H1V16H16V1Z" fill="#FCFCFC" fill-opacity="0.75"/>
<rect x="-0.5" y="0.5" width="6" height="12" transform="matrix(-1 0 0 1 8 2)" fill="url(#paint0_linear_1855_15835)" stroke="#919191"/>
<rect x="8.5" y="2.5" width="6" height="12" fill="url(#paint1_linear_1855_15835)" stroke="#919191"/>
<rect x="4" y="5" width="3" height="1" fill="#3A3A3A"/>
<rect x="4" y="7" width="3" height="1" fill="#3A3A3A"/>
<rect x="10" y="5" width="3" height="1" fill="#3A3A3A"/>
<rect x="10" y="7" width="3" height="1" fill="#3A3A3A"/>
<rect x="10" y="11" width="3" height="1" fill="#3A3A3A"/>
<rect x="10" y="9" width="3" height="1" fill="#3A3A3A"/>
<rect x="10" y="1" width="3" height="2" fill="#00A1DB"/>
<rect x="8" y="2" width="1" height="13" fill="#3A3A3A"/>
<g clip-path="url(#clip1_1855_15835)">
<path d="M1 9H4V10H1V9Z" fill="#00A1DB"/>
<path d="M2 10H3V15H2V10Z" fill="#00A1DB"/>
<path d="M1 8.5H0.5V9V10V10.5H1H1.5V15V15.5H2H3H3.5V15V10.5H4H4.5V10V9V8.5H4H1Z" stroke="#FCFCFC" stroke-opacity="0.75"/>
</g>
</g>
<defs>
<linearGradient id="paint0_linear_1855_15835" x1="2.33333" y1="6.5" x2="2.52335e-08" y2="6.5" gradientUnits="userSpaceOnUse">
<stop stop-color="#FCFCFC"/>
<stop offset="1" stop-color="#919191"/>
</linearGradient>
<linearGradient id="paint1_linear_1855_15835" x1="10.3333" y1="8.5" x2="8" y2="8.5" gradientUnits="userSpaceOnUse">
<stop stop-color="#FCFCFC"/>
<stop offset="1" stop-color="#919191"/>
</linearGradient>
<clipPath id="clip0_1855_15835">
<rect width="16" height="16" fill="white"/>
</clipPath>
<clipPath id="clip1_1855_15835">
<rect width="5" height="8" fill="white" transform="translate(0 8)"/>
</clipPath>
</defs>
</svg>
