<svg width="16" height="16" viewBox="0 0 16 16" fill="none" xmlns="http://www.w3.org/2000/svg">
<g clip-path="url(#clip0_1856_15504)">
<rect width="8" height="8" fill="#FCFCFC" fill-opacity="0.75"/>
<rect x="1" y="1" width="6" height="6" fill="#3A3A3A"/>
<path d="M6 12L11 1.5L16 12L6 12Z" fill="#FCFCFC" fill-opacity="0.75"/>
<path d="M7.5 11L11 3L14.5 11L7.5 11Z" fill="#3A3A3A"/>
<circle cx="6" cy="10" r="5" fill="#FCFCFC" fill-opacity="0.75"/>
<circle cx="6" cy="10" r="4" fill="#919191"/>
<g clip-path="url(#clip1_1856_15504)">
<rect width="3" height="9" transform="matrix(1 0 0 -1 0 16)" fill="#FCFCFC" fill-opacity="0.75"/>
<rect width="1" height="4" transform="matrix(1 0 0 -1 1 12)" fill="#00A1DB"/>
<rect width="1" height="2" transform="matrix(1 0 0 -1 1 15)" fill="#00A1DB"/>
</g>
</g>
<defs>
<clipPath id="clip0_1856_15504">
<rect width="16" height="16" fill="white"/>
</clipPath>
<clipPath id="clip1_1856_15504">
<rect width="3" height="9" fill="white" transform="matrix(1 0 0 -1 0 16)"/>
</clipPath>
</defs>
</svg>
