<svg width="16" height="16" viewBox="0 0 16 16" fill="none" xmlns="http://www.w3.org/2000/svg">
<g clip-path="url(#clip0_1857_15599)">
<g clip-path="url(#clip1_1857_15599)">
<path d="M9.60283 2L9.29795 5.55042L12 7.69106L8.58671 8.64059L7.30119 12L5.49654 9.03642L2 8.97201L4.29795 6.19089L3.42249 2.79167L6.64736 4.03642L9.60283 2Z" fill="#FCFCFC" fill-opacity="0.75"/>
<path d="M10.101 2.04278L10.1916 0.987083L9.31913 1.58827L6.58108 3.47489L3.60253 2.32521L2.69591 1.97526L2.93829 2.91637L3.7502 6.06884L1.61455 8.65352L0.954117 9.45282L1.99079 9.47192L5.21247 9.53127L6.87414 12.2601L7.40405 13.1303L7.76817 12.1787L8.96359 9.05473L12.134 8.17277L13.0808 7.9094L12.3105 7.29915L9.81911 5.32541L10.101 2.04278Z" stroke="#FCFCFC" stroke-opacity="0.75"/>
<path d="M8.66667 8L15 13.6667L13.6667 15L8 8.66667L8.66667 8Z" fill="#00A1DB"/>
<path d="M9.00006 7.62738L8.64757 7.31199L8.31311 7.64645L7.64645 8.31311L7.31199 8.64757L7.62738 9.00006L13.294 15.3334L13.6465 15.7273L14.0202 15.3536L15.3536 14.0202L15.7273 13.6465L15.3334 13.294L9.00006 7.62738Z" stroke="#FCFCFC" stroke-opacity="0.75"/>
<path d="M9.01401 3.01292L8.79979 5.50764L8.77679 5.77543L8.98746 5.94233L10.9192 7.47273L8.4527 8.15888L8.20983 8.22644L8.11973 8.46189L7.19834 10.8697L5.92359 8.77637L5.78061 8.54157L5.50575 8.53651L3.04588 8.49119L4.6834 6.50937L4.8457 6.31294L4.78215 6.06618L4.14907 3.60807L6.46731 4.50288L6.71363 4.59796L6.93105 4.44815L9.01401 3.01292Z" fill="#94E1FC" stroke="#00A1DB"/>
</g>
</g>
<defs>
<clipPath id="clip0_1857_15599">
<rect width="16" height="16" fill="white"/>
</clipPath>
<clipPath id="clip1_1857_15599">
<rect width="16" height="16" fill="white"/>
</clipPath>
</defs>
</svg>
