<svg width="16" height="16" viewBox="0 0 16 16" fill="none" xmlns="http://www.w3.org/2000/svg">
<g clip-path="url(#clip0_1868_15590)">
<g clip-path="url(#clip1_1868_15590)">
<path d="M1 3H9V4H1V3Z" fill="#F2994A"/>
<path d="M1 12H9V13H1V12Z" fill="#F2994A"/>
<path d="M2 1L2 15H1L1 1H2Z" fill="#F2994A"/>
<path d="M2.5 11.5L2.5 4.5H9H9.5V4V3V2.5H9H2.5L2.5 1V0.5H2H1H0.500001L0.500001 1L0.5 2.5V3V4V4.5V11.5V12V13V13.5L0.5 15L0.5 15.5H1H2H2.5V15L2.5 13.5H9H9.5V13V12V11.5H9H2.5Z" stroke="#FCFCFC" stroke-opacity="0.75"/>
<g clip-path="url(#clip2_1868_15590)">
<path d="M8 1V0H12V1H15V2H16V5H15V6H14V7H8V1Z" fill="#FCFCFC" fill-opacity="0.75"/>
<rect x="9" y="1" width="2" height="1" fill="#F2994A"/>
<rect x="10" y="3" width="1" height="1" fill="#F2994A"/>
<rect x="14" y="3" width="1" height="1" fill="#F2994A"/>
<rect x="13" y="4" width="1" height="1" fill="#F2994A"/>
<rect x="9" y="2" width="1" height="4" fill="#F2994A"/>
<path d="M9 5H13V6H9V5Z" fill="#F2994A"/>
<rect x="10" y="2" width="4" height="1" fill="#F2994A"/>
<path d="M11 3H14V4H13V5H10V4H11V3Z" fill="url(#paint0_radial_1868_15590)"/>
</g>
<g clip-path="url(#clip3_1868_15590)">
<path d="M8 10V9H12V10H15V11H16V14H15V15H14V16H8V10Z" fill="#FCFCFC" fill-opacity="0.75"/>
<rect x="9" y="10" width="2" height="1" fill="#F2994A"/>
<rect x="10" y="12" width="1" height="1" fill="#F2994A"/>
<rect x="14" y="12" width="1" height="1" fill="#F2994A"/>
<rect x="13" y="13" width="1" height="1" fill="#F2994A"/>
<rect x="9" y="11" width="1" height="4" fill="#F2994A"/>
<path d="M9 14H13V15H9V14Z" fill="#F2994A"/>
<rect x="10" y="11" width="4" height="1" fill="#F2994A"/>
<path d="M11 12H14V13H13V14H10V13H11V12Z" fill="url(#paint1_radial_1868_15590)"/>
</g>
</g>
<g clip-path="url(#clip4_1868_15590)">
<path d="M7 5L8 5L8 6L9 6L9 9L7 9L7 13L4 13L4 9L2 9L2 6L3 6L3 5L4 5L4 4L7 4L7 5Z" fill="#FCFCFC" fill-opacity="0.75"/>
<path d="M5 7H6L6 12H5L5 7Z" fill="#00A1DB"/>
<rect x="6" y="6" width="1" height="1" transform="rotate(-180 6 6)" fill="#00A1DB"/>
<rect x="7" y="7" width="3" height="1" transform="rotate(-180 7 7)" fill="#00A1DB"/>
<rect x="8" y="8" width="5" height="1" transform="rotate(-180 8 8)" fill="#00A1DB"/>
</g>
</g>
<defs>
<radialGradient id="paint0_radial_1868_15590" cx="0" cy="0" r="1" gradientUnits="userSpaceOnUse" gradientTransform="translate(11.8261 5) rotate(-84.1325) scale(2.55183 3.85765)">
<stop stop-color="#F2994A"/>
<stop offset="0.588115" stop-color="#F2C94C"/>
<stop offset="1" stop-color="#FCFCFC"/>
</radialGradient>
<radialGradient id="paint1_radial_1868_15590" cx="0" cy="0" r="1" gradientUnits="userSpaceOnUse" gradientTransform="translate(11.8261 14) rotate(-84.1325) scale(2.55183 3.85765)">
<stop stop-color="#F2994A"/>
<stop offset="0.588115" stop-color="#F2C94C"/>
<stop offset="1" stop-color="#FCFCFC"/>
</radialGradient>
<clipPath id="clip0_1868_15590">
<rect width="16" height="16" fill="white"/>
</clipPath>
<clipPath id="clip1_1868_15590">
<rect width="16" height="16" fill="white"/>
</clipPath>
<clipPath id="clip2_1868_15590">
<rect width="8" height="7" fill="white" transform="translate(8)"/>
</clipPath>
<clipPath id="clip3_1868_15590">
<rect width="8" height="7" fill="white" transform="translate(8 9)"/>
</clipPath>
<clipPath id="clip4_1868_15590">
<rect width="9" height="7" fill="white" transform="translate(9 4) rotate(90)"/>
</clipPath>
</defs>
</svg>
