<svg width="16" height="16" viewBox="0 0 16 16" fill="none" xmlns="http://www.w3.org/2000/svg">
<g clip-path="url(#clip0_1870_15189)">
<path d="M0 0H13V1H14V2H15V3H16V16H0V0Z" fill="#FCFCFC" fill-opacity="0.75"/>
<path d="M14 4.5H14.5V14.5H1.5V1.5H11.5V2V2.5H12H12.5V3V3.5H13H13.5V4V4.5H14Z" fill="#D8D8D8" stroke="#919191"/>
<rect x="3" y="1" width="7" height="4" fill="#3A3A3A"/>
<rect x="4" y="1" width="1" height="3" fill="#94E1FC"/>
<rect x="6" y="1" width="1" height="3" fill="#94E1FC"/>
<rect x="8" y="1" width="1" height="3" fill="#94E1FC"/>
<rect x="3.5" y="6.5" width="9" height="6" fill="url(#paint0_linear_1870_15189)" stroke="#00A1DB"/>
<g clip-path="url(#clip1_1870_15189)">
<path d="M0 8H7V10H8V16H2V15H0V8Z" fill="#FCFCFC" fill-opacity="0.75"/>
<rect x="3.5" y="11.5" width="3" height="3" fill="url(#paint1_linear_1870_15189)" stroke="#00A1DB"/>
<rect x="1" y="9" width="1" height="5" fill="#00A1DB"/>
<rect x="1" y="9" width="5" height="1" fill="#00A1DB"/>
</g>
</g>
<defs>
<linearGradient id="paint0_linear_1870_15189" x1="11.0556" y1="6.97222" x2="7.517" y2="13.4716" gradientUnits="userSpaceOnUse">
<stop stop-color="#94E1FC"/>
<stop offset="1" stop-color="#FCFCFC"/>
</linearGradient>
<linearGradient id="paint1_linear_1870_15189" x1="6.22222" y1="11.5556" x2="3.88889" y2="14.5556" gradientUnits="userSpaceOnUse">
<stop stop-color="#94E1FC"/>
<stop offset="1" stop-color="#FCFCFC"/>
</linearGradient>
<clipPath id="clip0_1870_15189">
<rect width="16" height="16" fill="white"/>
</clipPath>
<clipPath id="clip1_1870_15189">
<rect width="8" height="8" fill="white" transform="translate(0 8)"/>
</clipPath>
</defs>
</svg>
