<svg width="16" height="16" viewBox="0 0 16 16" fill="none" xmlns="http://www.w3.org/2000/svg">
<g clip-path="url(#clip0_1870_15221)">
<g clip-path="url(#clip1_1870_15221)">
<path d="M0 0H8V4H7V8H6V10H7V11H8V16H0V0Z" fill="#FCFCFC" fill-opacity="0.75"/>
<path d="M3 11.5H6.5V13.5H1.5V9.5H2H2.5V11V11.5H3Z" fill="url(#paint0_linear_1870_15221)" stroke="#919191"/>
<path d="M3 2.5H1.5V1.5H6.5V2.5H6H5.5V3V6.5H5H4H3.5V3V2.5H3Z" fill="url(#paint1_linear_1870_15221)" stroke="#919191"/>
<rect x="4" y="10" width="2" height="1" fill="#3A3A3A"/>
<rect x="1" y="14" width="2" height="1" fill="#3A3A3A"/>
<rect x="5" y="14" width="2" height="1" fill="#3A3A3A"/>
<rect x="4" y="7" width="1" height="2" fill="#3A3A3A"/>
</g>
<g clip-path="url(#clip2_1870_15221)">
<path d="M8 0H16V4H15V8H14V10H15V11H16V16H8V0Z" fill="#FCFCFC" fill-opacity="0.75"/>
<path d="M11 11.5H14.5V13.5H9.5V9.5H10H10.5V11V11.5H11Z" fill="url(#paint2_linear_1870_15221)" stroke="#919191"/>
<path d="M11 2.5H9.5V1.5H14.5V2.5H14H13.5V3V6.5H13H12H11.5V3V2.5H11Z" fill="url(#paint3_linear_1870_15221)" stroke="#919191"/>
<rect x="12" y="10" width="2" height="1" fill="#3A3A3A"/>
<rect x="9" y="14" width="2" height="1" fill="#3A3A3A"/>
<rect x="13" y="14" width="2" height="1" fill="#3A3A3A"/>
<rect x="12" y="7" width="1" height="2" fill="#3A3A3A"/>
</g>
</g>
<defs>
<linearGradient id="paint0_linear_1870_15221" x1="7" y1="9.45455" x2="1" y2="9.45455" gradientUnits="userSpaceOnUse">
<stop stop-color="#D8D8D8"/>
<stop offset="1" stop-color="#F4F7F6"/>
</linearGradient>
<linearGradient id="paint1_linear_1870_15221" x1="7" y1="4.27273" x2="1" y2="4.27273" gradientUnits="userSpaceOnUse">
<stop stop-color="#D8D8D8"/>
<stop offset="1" stop-color="#F4F7F6"/>
</linearGradient>
<linearGradient id="paint2_linear_1870_15221" x1="15" y1="9.45455" x2="9" y2="9.45455" gradientUnits="userSpaceOnUse">
<stop stop-color="#D8D8D8"/>
<stop offset="1" stop-color="#F4F7F6"/>
</linearGradient>
<linearGradient id="paint3_linear_1870_15221" x1="15" y1="4.27273" x2="9" y2="4.27273" gradientUnits="userSpaceOnUse">
<stop stop-color="#D8D8D8"/>
<stop offset="1" stop-color="#F4F7F6"/>
</linearGradient>
<clipPath id="clip0_1870_15221">
<rect width="16" height="16" fill="white"/>
</clipPath>
<clipPath id="clip1_1870_15221">
<rect width="8" height="16" fill="white"/>
</clipPath>
<clipPath id="clip2_1870_15221">
<rect width="8" height="16" fill="white" transform="translate(8)"/>
</clipPath>
</defs>
</svg>
