<svg width="16" height="16" viewBox="0 0 16 16" fill="none" xmlns="http://www.w3.org/2000/svg">
<g clip-path="url(#clip0_1882_14833)">
<g clip-path="url(#clip1_1882_14833)">
<rect width="16" height="16" fill="#FCFCFC" fill-opacity="0.75"/>
<rect x="1.5" y="3.5" width="13" height="11" fill="#FCFCFC" stroke="#919191"/>
<rect x="1.5" y="1.5" width="13" height="3" fill="#94E1FC" stroke="#3A3A3A"/>
<rect x="2" y="2" width="12" height="1" fill="#00A1DB"/>
</g>
<rect x="2" y="8" width="4" height="1" fill="#D8D8D8"/>
<rect x="6" y="8" width="5" height="1" fill="#D8D8D8"/>
<rect x="5" y="5" width="1" height="3" fill="#D8D8D8"/>
<rect x="10" y="5" width="1" height="3" fill="#D8D8D8"/>
<rect x="10" y="8" width="1" height="4" fill="#D8D8D8"/>
<rect x="10" y="11" width="1" height="3" fill="#D8D8D8"/>
<rect x="6" y="11" width="5" height="1" fill="#D8D8D8"/>
<rect x="10" y="8" width="4" height="1" fill="#D8D8D8"/>
<rect x="10" y="11" width="4" height="1" fill="#D8D8D8"/>
<g clip-path="url(#clip2_1882_14833)">
<path d="M3 9H5L7 14V15H1V14L3 9Z" fill="#FCFCFC" fill-opacity="0.75"/>
<path d="M3 8.5H2.66148L2.53576 8.8143L0.535762 13.8143L0.5 13.9037V14V15V15.5H1H7H7.5V15V14V13.9037L7.46424 13.8143L5.46424 8.8143L5.33852 8.5H5H3Z" stroke="#FCFCFC" stroke-opacity="0.75"/>
<path d="M1.5 14.0963L3.33852 9.5H4.66148L6.5 14.0963V14.5H1.5V14.0963Z" fill="#94E1FC" stroke="#00A1DB"/>
</g>
</g>
<defs>
<clipPath id="clip0_1882_14833">
<rect width="16" height="16" fill="white"/>
</clipPath>
<clipPath id="clip1_1882_14833">
<rect width="16" height="16" fill="white"/>
</clipPath>
<clipPath id="clip2_1882_14833">
<rect width="8" height="8" fill="white" transform="translate(0 8)"/>
</clipPath>
</defs>
</svg>
