<svg width="16" height="16" viewBox="0 0 16 16" fill="none" xmlns="http://www.w3.org/2000/svg">
<g clip-path="url(#clip0_1882_14888)">
<g clip-path="url(#clip1_1882_14888)">
<rect width="16" height="16" fill="#FCFCFC" fill-opacity="0.75"/>
<rect x="1.5" y="3.5" width="13" height="11" fill="#FCFCFC" stroke="#919191"/>
<rect x="1.5" y="1.5" width="13" height="3" fill="#94E1FC" stroke="#3A3A3A"/>
<rect x="2" y="2" width="12" height="1" fill="#00A1DB"/>
</g>
<rect x="2" y="8" width="4" height="1" fill="#D8D8D8"/>
<rect x="2" y="11" width="4" height="1" fill="#D8D8D8"/>
<rect x="6" y="8" width="5" height="1" fill="#D8D8D8"/>
<rect x="5" y="5" width="1" height="3" fill="#D8D8D8"/>
<rect x="10" y="5" width="1" height="3" fill="#D8D8D8"/>
<rect x="5" y="8" width="1" height="4" fill="#D8D8D8"/>
<rect x="10" y="8" width="1" height="4" fill="#D8D8D8"/>
<rect x="5" y="11" width="1" height="3" fill="#D8D8D8"/>
<rect x="10" y="11" width="1" height="3" fill="#D8D8D8"/>
<rect x="6" y="11" width="5" height="1" fill="#D8D8D8"/>
<rect x="10" y="8" width="4" height="1" fill="#D8D8D8"/>
<rect x="10" y="11" width="4" height="1" fill="#D8D8D8"/>
</g>
<defs>
<clipPath id="clip0_1882_14888">
<rect width="16" height="16" fill="white"/>
</clipPath>
<clipPath id="clip1_1882_14888">
<rect width="16" height="16" fill="white"/>
</clipPath>
</defs>
</svg>
