<svg width="16" height="16" viewBox="0 0 16 16" fill="none" xmlns="http://www.w3.org/2000/svg">
<g clip-path="url(#clip0_1886_14300)">
<path d="M11 0H2V16H14V3H13V2H12V1H11V0Z" fill="#FCFCFC" fill-opacity="0.75"/>
<path d="M3 1H10V2H11V3H12V4H13V15H3V1Z" fill="url(#paint0_linear_1886_14300)"/>
<path fill-rule="evenodd" clip-rule="evenodd" d="M3 1H10V2H11V3H10V4H11V3H12V4H13V15H3V2V1ZM12 5H10H9V4V2H4V14H12V5Z" fill="#3A3A3A"/>
</g>
<g clip-path="url(#clip1_1886_14300)">
<path d="M0 11H9V15H8V16H1V15H0V11Z" fill="#FCFCFC" fill-opacity="0.75"/>
<circle cx="4.5" cy="10.5" r="3.5" fill="#FCFCFC" fill-opacity="0.75"/>
<rect x="1" y="12" width="7" height="2" fill="#00A1DB"/>
<circle cx="4.5" cy="10.5" r="2" fill="url(#paint1_linear_1886_14300)" stroke="#00A1DB"/>
<rect x="2" y="14" width="5" height="1" fill="#00A1DB"/>
<rect x="1" y="12" width="6" height="1" fill="#00A1DB"/>
<path d="M4 11H5V13H7V14H2V13H4V11Z" fill="#FCFCFC"/>
</g>
<defs>
<linearGradient id="paint0_linear_1886_14300" x1="8" y1="1" x2="8" y2="15" gradientUnits="userSpaceOnUse">
<stop stop-color="#FCFCFC"/>
<stop offset="1" stop-color="#E6EAEA"/>
</linearGradient>
<linearGradient id="paint1_linear_1886_14300" x1="6.02778" y1="8.69444" x2="3.11111" y2="12.4444" gradientUnits="userSpaceOnUse">
<stop stop-color="#94E1FC"/>
<stop offset="1" stop-color="#FCFCFC"/>
</linearGradient>
<clipPath id="clip0_1886_14300">
<rect width="12" height="16" fill="white" transform="translate(2)"/>
</clipPath>
<clipPath id="clip1_1886_14300">
<rect width="9" height="9" fill="white" transform="translate(0 7)"/>
</clipPath>
</defs>
</svg>
