<svg width="16" height="16" viewBox="0 0 16 16" fill="none" xmlns="http://www.w3.org/2000/svg">
<g clip-path="url(#clip0_1891_14140)">
<g clip-path="url(#clip1_1891_14140)">
<path d="M1 6V5H2V0H14V5H15V6H16V16H0V6H1Z" fill="#FCFCFC" fill-opacity="0.75"/>
<rect x="2" y="8" width="12" height="6" fill="url(#paint0_linear_1891_14140)"/>
<path d="M3 1H13V8H12V9H11V10H10V11H6V10H5V9H4V8H3V1Z" fill="url(#paint1_linear_1891_14140)"/>
<rect x="2" y="13" width="1" height="1" fill="#3A3A3A"/>
<rect x="3" y="12" width="1" height="1" fill="#3A3A3A"/>
<rect x="4" y="11" width="1" height="1" fill="#3A3A3A"/>
<rect x="2" y="6" width="1" height="1" fill="#919191"/>
<rect x="13" y="6" width="1" height="1" fill="#919191"/>
<rect x="3" y="2" width="1" height="6" fill="#00A1DB"/>
<rect x="12" y="2" width="1" height="6" fill="#00A1DB"/>
<rect x="3" y="1" width="10" height="1" fill="#00A1DB"/>
<path d="M5 3H8V4H5V3Z" fill="#00A1DB"/>
<path d="M5 7H11V8H5V7Z" fill="#00A1DB"/>
<rect x="5" y="5" width="6" height="1" fill="#00A1DB"/>
<rect x="1" y="7" width="1" height="8" fill="#919191"/>
<rect x="14" y="7" width="1" height="8" fill="#919191"/>
<rect x="13" y="13" width="1" height="1" fill="#3A3A3A"/>
<rect x="12" y="12" width="1" height="1" fill="#3A3A3A"/>
<rect x="11" y="11" width="1" height="1" fill="#3A3A3A"/>
<rect x="2" y="7" width="1" height="1" fill="#919191"/>
<rect x="3" y="8" width="1" height="1" fill="#919191"/>
<rect x="4" y="9" width="1" height="1" fill="#919191"/>
<rect x="5" y="10" width="1" height="1" fill="#919191"/>
<rect x="6" y="11" width="1" height="1" fill="#919191"/>
<rect x="13" y="7" width="1" height="1" fill="#919191"/>
<rect x="12" y="8" width="1" height="1" fill="#919191"/>
<rect x="11" y="9" width="1" height="1" fill="#919191"/>
<rect x="10" y="10" width="1" height="1" fill="#919191"/>
<rect x="9" y="11" width="1" height="1" fill="#919191"/>
<rect x="7" y="12" width="2" height="1" fill="#919191"/>
<rect x="1" y="14" width="14" height="1" fill="#919191"/>
</g>
</g>
<defs>
<linearGradient id="paint0_linear_1891_14140" x1="8" y1="8" x2="8" y2="14" gradientUnits="userSpaceOnUse">
<stop stop-color="#F4F7F6"/>
<stop offset="1" stop-color="#D8D8D8"/>
</linearGradient>
<linearGradient id="paint1_linear_1891_14140" x1="8" y1="1" x2="8" y2="11" gradientUnits="userSpaceOnUse">
<stop stop-color="#FCFCFC"/>
<stop offset="1" stop-color="#E6EAEA"/>
</linearGradient>
<clipPath id="clip0_1891_14140">
<rect width="16" height="16" fill="white"/>
</clipPath>
<clipPath id="clip1_1891_14140">
<rect width="16" height="16" fill="white"/>
</clipPath>
</defs>
</svg>
