<svg width="16" height="16" viewBox="0 0 16 16" fill="none" xmlns="http://www.w3.org/2000/svg">
<g clip-path="url(#clip0_1897_14321)">
<path d="M1 6H2L2 5H3V4L4 4L4 3L5 3V2L8 2V3L9 3V5L16 5L16 10L9 10L9 12H8L8 13L5 13V12H4L4 11H3V10L2 10L2 9H1L1 6Z" fill="#FCFCFC" fill-opacity="0.75"/>
<path d="M3 7L7 3V7L15 7V8L7 8L7 12L3 8L3 7Z" fill="url(#paint0_linear_1897_14321)"/>
<path d="M8 4H7V7L14 7V8L7 8L7 11H8V9H15V6L8 6V4Z" fill="#C10D3B"/>
<rect width="1" height="1" transform="matrix(-1 0 0 1 3 7)" fill="#C10D3B"/>
<rect width="1" height="1" transform="matrix(-1 0 0 1 5 5)" fill="#C10D3B"/>
<rect width="1" height="1" transform="matrix(-1 0 0 1 6 4)" fill="#C10D3B"/>
<rect width="1" height="1" transform="matrix(-1 0 0 1 7 3)" fill="#C10D3B"/>
<rect x="5" y="10" width="1" height="1" transform="rotate(-180 5 10)" fill="#C10D3B"/>
<rect x="6" y="11" width="1" height="1" transform="rotate(-180 6 11)" fill="#C10D3B"/>
<rect x="7" y="12" width="1" height="1" transform="rotate(-180 7 12)" fill="#C10D3B"/>
<rect width="1" height="1" transform="matrix(-1 0 0 1 4 6)" fill="#C10D3B"/>
<rect x="4" y="9" width="1" height="1" transform="rotate(-180 4 9)" fill="#C10D3B"/>
</g>
<defs>
<linearGradient id="paint0_linear_1897_14321" x1="4.8" y1="12.6923" x2="15.4093" y2="7.11972" gradientUnits="userSpaceOnUse">
<stop stop-color="#FFBEC2"/>
<stop offset="1" stop-color="#EA212D"/>
</linearGradient>
<clipPath id="clip0_1897_14321">
<rect width="15" height="11" fill="white" transform="matrix(-1 0 0 1 16 2)"/>
</clipPath>
</defs>
</svg>
