<svg width="16" height="16" viewBox="0 0 16 16" fill="none" xmlns="http://www.w3.org/2000/svg">
<g clip-path="url(#clip0_1899_13953)">
<path d="M1 0H2H14H15V1V15H14V16H2V15H1V1V0Z" fill="#FCFCFC" fill-opacity="0.75"/>
<path d="M3 13.5H2.5V2.5H13.5V13.5H13H12.5V14V14.5H3.5V14V13.5H3Z" fill="url(#paint0_linear_1899_13953)" stroke="#818285"/>
<path d="M2.5 1.5H3H13H13.5V2V5.5H2.5V2V1.5Z" fill="url(#paint1_linear_1899_13953)" stroke="#818285"/>
<rect x="11" y="3" width="1" height="1" fill="#919191"/>
<rect x="7" y="7" width="2" height="1" fill="#3A3A3A"/>
<rect x="10" y="7" width="2" height="1" fill="#3A3A3A"/>
<rect x="4" y="9" width="2" height="1" fill="#3A3A3A"/>
<rect x="10" y="9" width="2" height="1" fill="#3A3A3A"/>
<rect x="10" y="11" width="2" height="1" fill="#3A3A3A"/>
<g clip-path="url(#clip1_1899_13953)">
<path d="M5 8L8 9V10H5L4.99868 11H3L3.00264 10H1V9H3L3.00264 8H5Z" fill="#00A1DB"/>
<path d="M3 13H1V12H8V13L5.00132 14L5 15H3.00264V14L3 13Z" fill="#00A1DB"/>
<path d="M5 7.5H5.08114L5.15811 7.52566L8.15811 8.52566L8.5 8.63962V9V10V10.5H8H5.49934L5.49868 11.0007L5.49802 11.5H8H8.5V12V13V13.3603L8.15818 13.4743L5.50084 14.3605L5.5 15.0007L5.49934 15.5H5H3.00264H2.50264V15V14.0006V14L2.50132 13.5H1H0.5V13V12V11.5H1H2.49868L2.5 10.9987L2.50132 10.5H1H0.5V10V9V8.5H1H2.50132L2.50264 7.99868L2.50395 7.5H3.00264H5Z" stroke="#FCFCFC" stroke-opacity="0.75"/>
</g>
</g>
<defs>
<linearGradient id="paint0_linear_1899_13953" x1="8" y1="2" x2="8" y2="15" gradientUnits="userSpaceOnUse">
<stop stop-color="#F4F7F6"/>
<stop offset="1" stop-color="#D8D8D8"/>
</linearGradient>
<linearGradient id="paint1_linear_1899_13953" x1="11.6667" y1="1.69444" x2="9.9016" y2="7.14095" gradientUnits="userSpaceOnUse">
<stop stop-color="#94E1FC"/>
<stop offset="1" stop-color="#FCFCFC"/>
</linearGradient>
<clipPath id="clip0_1899_13953">
<rect width="16" height="16" fill="white"/>
</clipPath>
<clipPath id="clip1_1899_13953">
<rect width="9" height="9" fill="white" transform="translate(0 7)"/>
</clipPath>
</defs>
</svg>
