<svg width="16" height="16" viewBox="0 0 16 16" fill="none" xmlns="http://www.w3.org/2000/svg">
<g clip-path="url(#clip0_1899_14152)">
<path d="M0 1H16V13H15V15H1V13H0V1Z" fill="#FCFCFC" fill-opacity="0.75"/>
<path d="M0.5 2.5H15.5V11.5H0.5V2.5Z" fill="#94E1FC" stroke="#919191"/>
<rect x="2" y="13" width="12" height="1" fill="#3A3A3A"/>
<rect x="7" y="12" width="2" height="1" fill="#3A3A3A"/>
<g clip-path="url(#clip1_1899_14152)">
<path d="M0 13C0 11.8954 0.895431 11 2 11H5C6.10457 11 7 11.8954 7 13V16H0V13Z" fill="#FCFCFC" fill-opacity="0.75"/>
<path d="M6 14C6 12.8954 5.10457 12 4 12H3C1.89543 12 1 12.8954 1 14V15H2V14H3V15H4.00006L4 14H5V15H6V14Z" fill="#3A3A3A"/>
<circle cx="3.5" cy="9.5" r="2.5" fill="#FCFCFC" fill-opacity="0.75"/>
<circle cx="3.5" cy="9.5" r="1.5" fill="#3A3A3A"/>
</g>
</g>
<defs>
<clipPath id="clip0_1899_14152">
<rect width="16" height="16" fill="white"/>
</clipPath>
<clipPath id="clip1_1899_14152">
<rect width="7" height="9" fill="white" transform="translate(0 7)"/>
</clipPath>
</defs>
</svg>
