<svg width="16" height="16" viewBox="0 0 16 16" fill="none" xmlns="http://www.w3.org/2000/svg">
<g clip-path="url(#clip0_1902_13750)">
<path d="M8 0H14V4H16V9H14V11H16V16H1V11H7H8V9H7V11H1V6H6V4H8V0Z" fill="#FCFCFC" fill-opacity="0.75"/>
<path d="M2 12H15V14H14V13H12V14H11V13H9V14H8V13H6V14H5V13H3V14H2V12Z" fill="#3A3A3A"/>
<rect x="2" y="14" width="13" height="1" fill="#3A3A3A"/>
<rect x="9.5" y="7.5" width="3" height="3" fill="url(#paint0_linear_1902_13750)" stroke="#919191"/>
<rect x="2.5" y="7.5" width="3" height="3" fill="url(#paint1_linear_1902_13750)" stroke="#919191"/>
<path d="M15 5L15 8L14 8L14 6L8 6L8 8L7 8L7 5L10 5L10 4L9 4L9 1L13 1L13 4L12 4L12 5L15 5Z" fill="#3A3A3A"/>
<path d="M10 2H12V3H10.6667H10V2Z" fill="#D8D8D8"/>
</g>
<defs>
<linearGradient id="paint0_linear_1902_13750" x1="11" y1="7" x2="11" y2="11" gradientUnits="userSpaceOnUse">
<stop stop-color="#F4F7F6"/>
<stop offset="1" stop-color="#D8D8D8"/>
</linearGradient>
<linearGradient id="paint1_linear_1902_13750" x1="4" y1="7" x2="4" y2="11" gradientUnits="userSpaceOnUse">
<stop stop-color="#F4F7F6"/>
<stop offset="1" stop-color="#D8D8D8"/>
</linearGradient>
<clipPath id="clip0_1902_13750">
<rect width="16" height="16" fill="white"/>
</clipPath>
</defs>
</svg>
