<svg width="16" height="16" viewBox="0 0 16 16" fill="none" xmlns="http://www.w3.org/2000/svg">
<g clip-path="url(#clip0_1902_13793)">
<g clip-path="url(#clip1_1902_13793)">
<path d="M4 0H2C0.895431 0 0 0.895431 0 2V13C0 14.1046 0.89543 15 2 15H5H12.3957C13.3331 15 14.1447 14.3489 14.348 13.4339L16 6C16 4.89543 15.1046 4 14 4H13C13 2.89543 12.1046 2 11 2H6C6 0.895431 5.10457 0 4 0Z" fill="#FCFCFC" fill-opacity="0.75"/>
<path d="M1 3V12C1 13.1046 1.89543 14 3 14H4H11.4914C12.3844 14 13.1691 13.408 13.4144 12.5494L15 7C15 5.89543 14.1046 5 13 5H12C12 3.89543 11.1046 3 10 3H5C5 1.89543 4.10457 1 3 1C1.89543 1 1 1.89543 1 3Z" fill="#F2994A"/>
<path d="M2.36421 11.7253L3.79278 6.72528C3.91544 6.29598 4.30782 6 4.7543 6H12.6743C13.3386 6 13.8183 6.63591 13.6358 7.27472L12.2072 12.2747C12.0846 12.704 11.6922 13 11.2457 13H3.32573C2.66135 13 2.18169 12.3641 2.36421 11.7253Z" fill="url(#paint0_radial_1902_13793)"/>
</g>
<g clip-path="url(#clip2_1902_13793)">
<path d="M0 8H7V10H8V16H2V15H0V8Z" fill="#FCFCFC" fill-opacity="0.75"/>
<rect x="3.5" y="11.5" width="3" height="3" fill="url(#paint1_linear_1902_13793)" stroke="#00A1DB"/>
<rect x="1" y="9" width="1" height="5" fill="#00A1DB"/>
<rect x="1" y="9" width="5" height="1" fill="#00A1DB"/>
</g>
</g>
<defs>
<radialGradient id="paint0_radial_1902_13793" cx="0" cy="0" r="1" gradientUnits="userSpaceOnUse" gradientTransform="translate(7.47826 13) rotate(-84.966) scale(8.91902 11.589)">
<stop stop-color="#FCFCFC"/>
<stop offset="1" stop-color="#F2C94C"/>
</radialGradient>
<linearGradient id="paint1_linear_1902_13793" x1="6.22222" y1="11.5556" x2="3.88889" y2="14.5556" gradientUnits="userSpaceOnUse">
<stop stop-color="#94E1FC"/>
<stop offset="1" stop-color="#FCFCFC"/>
</linearGradient>
<clipPath id="clip0_1902_13793">
<rect width="16" height="16" fill="white"/>
</clipPath>
<clipPath id="clip1_1902_13793">
<rect width="16" height="15" fill="white"/>
</clipPath>
<clipPath id="clip2_1902_13793">
<rect width="8" height="8" fill="white" transform="translate(0 8)"/>
</clipPath>
</defs>
</svg>
