<svg width="16" height="16" viewBox="0 0 16 16" fill="none" xmlns="http://www.w3.org/2000/svg">
<g clip-path="url(#clip0_1908_13565)">
<g clip-path="url(#clip1_1908_13565)">
<rect width="16" height="16" fill="#FCFCFC" fill-opacity="0.75"/>
<g clip-path="url(#clip2_1908_13565)">
<rect x="1" y="1" width="1" height="14" fill="#3A3A3A"/>
<rect x="4" y="1" width="1" height="14" fill="#3A3A3A"/>
<rect x="1" y="14" width="4" height="1" fill="#3A3A3A"/>
<rect x="1" y="1" width="4" height="1" fill="#3A3A3A"/>
<rect x="2" y="7" width="2" height="5" fill="#919191"/>
<rect x="2" y="2" width="2" height="1" fill="#919191"/>
<rect x="2" y="13" width="2" height="1" fill="#919191"/>
</g>
<g clip-path="url(#clip3_1908_13565)">
<rect x="6" y="1" width="1" height="14" fill="#3A3A3A"/>
<rect x="9" y="1" width="1" height="14" fill="#3A3A3A"/>
<rect x="6" y="14" width="4" height="1" fill="#3A3A3A"/>
<rect x="6" y="1" width="4" height="1" fill="#3A3A3A"/>
<rect x="7" y="7" width="2" height="5" fill="#919191"/>
<rect x="7" y="2" width="2" height="1" fill="#919191"/>
<rect x="7" y="13" width="2" height="1" fill="#919191"/>
</g>
<g clip-path="url(#clip4_1908_13565)">
<rect x="11" y="1" width="1" height="14" fill="#3A3A3A"/>
<rect x="14" y="1" width="1" height="14" fill="#3A3A3A"/>
<rect x="11" y="14" width="4" height="1" fill="#3A3A3A"/>
<rect x="11" y="1" width="4" height="1" fill="#3A3A3A"/>
<rect x="12" y="7" width="2" height="5" fill="#919191"/>
<rect x="12" y="2" width="2" height="1" fill="#919191"/>
<rect x="12" y="13" width="2" height="1" fill="#919191"/>
</g>
</g>
<g clip-path="url(#clip5_1908_13565)">
<rect y="7" width="3" height="9" fill="#FCFCFC" fill-opacity="0.75"/>
<rect x="1" y="11" width="1" height="4" fill="#3A3A3A"/>
<rect x="1" y="8" width="1" height="2" fill="#3A3A3A"/>
</g>
<path d="M0 6H4V16H3V7H0V6Z" fill="#FCFCFC" fill-opacity="0.75"/>
</g>
<defs>
<clipPath id="clip0_1908_13565">
<rect width="16" height="16" fill="white"/>
</clipPath>
<clipPath id="clip1_1908_13565">
<rect width="16" height="16" fill="white"/>
</clipPath>
<clipPath id="clip2_1908_13565">
<rect width="4" height="14" fill="white" transform="translate(1 1)"/>
</clipPath>
<clipPath id="clip3_1908_13565">
<rect width="4" height="14" fill="white" transform="translate(6 1)"/>
</clipPath>
<clipPath id="clip4_1908_13565">
<rect width="4" height="14" fill="white" transform="translate(11 1)"/>
</clipPath>
<clipPath id="clip5_1908_13565">
<rect width="3" height="9" fill="white" transform="translate(0 7)"/>
</clipPath>
</defs>
</svg>
