<svg width="16" height="16" viewBox="0 0 16 16" fill="none" xmlns="http://www.w3.org/2000/svg">
<g clip-path="url(#clip0_1908_13735)">
<path d="M0 0H6V1H7V2H8V8H0V0Z" fill="#FCFCFC" fill-opacity="0.75"/>
<path d="M6 3.5H6.5V6.5H1.5V1.5H4.5V2V2.5H5H5.5V3V3.5H6Z" fill="url(#paint0_linear_1908_13735)" stroke="#919191"/>
<path d="M4 8H10V9H11V10H12V16H4V8Z" fill="#FCFCFC" fill-opacity="0.75"/>
<path d="M10 11.5H10.5V14.5H5.5V9.5H8.5V10V10.5H9H9.5V11V11.5H10Z" fill="url(#paint1_linear_1908_13735)" stroke="#00A1DB"/>
<path d="M8 0H14V1H15V2H16V8H8V0Z" fill="#FCFCFC" fill-opacity="0.75"/>
<path d="M14 3.5H14.5V6.5H9.5V1.5H12.5V2V2.5H13H13.5V3V3.5H14Z" fill="url(#paint2_linear_1908_13735)" stroke="#919191"/>
</g>
<defs>
<linearGradient id="paint0_linear_1908_13735" x1="4" y1="1" x2="4" y2="7" gradientUnits="userSpaceOnUse">
<stop stop-color="#F4F7F6"/>
<stop offset="1" stop-color="#D8D8D8"/>
</linearGradient>
<linearGradient id="paint1_linear_1908_13735" x1="9.83333" y1="9.83333" x2="6.33333" y2="14.3333" gradientUnits="userSpaceOnUse">
<stop stop-color="#94E1FC"/>
<stop offset="1" stop-color="#FCFCFC"/>
</linearGradient>
<linearGradient id="paint2_linear_1908_13735" x1="12" y1="1" x2="12" y2="7" gradientUnits="userSpaceOnUse">
<stop stop-color="#F4F7F6"/>
<stop offset="1" stop-color="#D8D8D8"/>
</linearGradient>
<clipPath id="clip0_1908_13735">
<rect width="16" height="16" fill="white"/>
</clipPath>
</defs>
</svg>
