<svg width="16" height="16" viewBox="0 0 16 16" fill="none" xmlns="http://www.w3.org/2000/svg">
<g clip-path="url(#clip0_1908_13890)">
<path d="M3 0H14L16 3V15H15V16H2V15H1V3L3 0Z" fill="#FCFCFC" fill-opacity="0.75"/>
<path d="M3 13.5H2.5V4.5H14.5V13.5H14H13.5V14V14.5H3.5V14V13.5H3Z" fill="url(#paint0_linear_1908_13890)" stroke="#919191"/>
<path d="M2.5 4.15139L4.26759 1.5H12.7324L14.5 4.15139V4.5H2.5V4.15139Z" fill="#D8D8D8" stroke="#919191"/>
<rect x="6" y="7" width="5" height="1" fill="#3A3A3A"/>
<rect x="8" y="2" width="1" height="2" fill="#919191"/>
<g clip-path="url(#clip1_1908_13890)">
<g clip-path="url(#clip2_1908_13890)">
<path d="M1 15H2V11.5L4 14V15H5V9H4V12.5L2 10V9H1V15Z" fill="#00A1DB"/>
<path d="M1 15.5H0.5V15V9V8.5H1H2H2.5V9V9.82461L3.5 11.0746V9V8.5H4H5H5.5V9V15V15.5H5H4H3.5V15V14.1754L2.5 12.9254V15V15.5H2H1Z" stroke="#FCFCFC" stroke-opacity="0.75"/>
</g>
<rect x="6" y="9" width="1" height="2" fill="#00A1DB"/>
<rect x="5.5" y="8.5" width="2" height="3" stroke="#FCFCFC" stroke-opacity="0.75"/>
</g>
</g>
<defs>
<linearGradient id="paint0_linear_1908_13890" x1="8.5" y1="4" x2="8.5" y2="15" gradientUnits="userSpaceOnUse">
<stop stop-color="#F4F7F6"/>
<stop offset="1" stop-color="#D8D8D8"/>
</linearGradient>
<clipPath id="clip0_1908_13890">
<rect width="16" height="16" fill="white"/>
</clipPath>
<clipPath id="clip1_1908_13890">
<rect width="8" height="8" fill="white" transform="translate(0 8)"/>
</clipPath>
<clipPath id="clip2_1908_13890">
<rect width="6" height="8" fill="white" transform="matrix(1 0 0 -1 0 16)"/>
</clipPath>
</defs>
</svg>
