<svg width="16" height="16" viewBox="0 0 16 16" fill="none" xmlns="http://www.w3.org/2000/svg">
<g clip-path="url(#clip0_1912_14129)">
<path d="M2 1V0H14V1H16V14H15V15H1V14H0V1H2Z" fill="#FCFCFC" fill-opacity="0.75"/>
<path d="M3 9H13V10H15V12H1V10H3V9Z" fill="#D8D8D8"/>
<path d="M1 11H3V12H13V11H15V13H14V14H2V13H1V11Z" fill="#919191"/>
<g clip-path="url(#clip1_1912_14129)">
<path d="M2 10V9H14V10H13V11H3V10H2Z" fill="#94E1FC"/>
<path d="M3 5H13V6H15V8H1V6H3V5Z" fill="#D8D8D8"/>
<path d="M1 7H3V8H13V7H15V9H14V10H2V9H1V7Z" fill="#919191"/>
</g>
<g clip-path="url(#clip2_1912_14129)">
<path d="M2 6V5H14V6H13V7H3V6H2Z" fill="#94E1FC"/>
<path d="M3 1H13V2H15V4H1V2H3V1Z" fill="#D8D8D8"/>
<path d="M1 3H3V4H13V3H15V5H14V6H2V5H1V3Z" fill="#919191"/>
</g>
</g>
<defs>
<clipPath id="clip0_1912_14129">
<rect width="16" height="16" fill="white"/>
</clipPath>
<clipPath id="clip1_1912_14129">
<rect width="14" height="6.00011" fill="white" transform="translate(1 5)"/>
</clipPath>
<clipPath id="clip2_1912_14129">
<rect width="14" height="6.00011" fill="white" transform="translate(1 1)"/>
</clipPath>
</defs>
</svg>
