<svg width="16" height="16" viewBox="0 0 16 16" fill="none" xmlns="http://www.w3.org/2000/svg">
<g clip-path="url(#clip0_1913_13587)">
<path d="M1 1H8V4H9V1H16V12H12V15H5V12H1V1Z" fill="#FCFCFC" fill-opacity="0.75"/>
<path fill-rule="evenodd" clip-rule="evenodd" d="M10 2H15V11H10V2ZM14 7V9V9.3V10H11V9H13V7H11V6H13V4H11V3H13H14V4V6V7Z" fill="#919191"/>
<path fill-rule="evenodd" clip-rule="evenodd" d="M7 2H2V11H7V2ZM5 3H4V4H3V5H4V9H3V10H6V9H5V3Z" fill="#919191"/>
<path fill-rule="evenodd" clip-rule="evenodd" d="M11 5H6V14H11V5ZM7 10V12V13H10V12H8V10H10V9V7V6H9H7V7H9V9H8H7V10Z" fill="#3A3A3A"/>
</g>
<defs>
<clipPath id="clip0_1913_13587">
<rect width="16" height="16" fill="white"/>
</clipPath>
</defs>
</svg>
