<svg width="16" height="16" viewBox="0 0 16 16" fill="none" xmlns="http://www.w3.org/2000/svg">
<g clip-path="url(#clip0_1917_13331)">
<path d="M1 14C1 12.8954 1.89543 12 3 12H6C7.10457 12 8 12.8954 8 14V16H1V14Z" fill="#FCFCFC" fill-opacity="0.75"/>
<path d="M7 15C7 13.8954 6.10457 13 5 13H4C2.89543 13 2 13.8954 2 15H3H4H5.00006H5H6H7Z" fill="#919191"/>
<circle cx="4.5" cy="10.5" r="2.5" fill="#FCFCFC" fill-opacity="0.75"/>
<circle cx="4.5" cy="10.5" r="1.5" fill="#919191"/>
</g>
<g clip-path="url(#clip1_1917_13331)">
<path d="M9 14C9 12.8954 9.89543 12 11 12H14C15.1046 12 16 12.8954 16 14V16H9V14Z" fill="#FCFCFC" fill-opacity="0.75"/>
<path d="M15 15C15 13.8954 14.1046 13 13 13H12C10.8954 13 10 13.8954 10 15H11H12H13.0001H13H14H15Z" fill="#919191"/>
<circle cx="12.5" cy="10.5" r="2.5" fill="#FCFCFC" fill-opacity="0.75"/>
<circle cx="12.5" cy="10.5" r="1.5" fill="#919191"/>
</g>
<g clip-path="url(#clip2_1917_13331)">
<path d="M5 1H7V0H10V1H12V3H13V6H12V8H10V9H7V8H5V6H4V3H5V1Z" fill="#FCFCFC" fill-opacity="0.75"/>
<rect x="8" y="1" width="1" height="2" fill="#3A3A3A"/>
<rect x="12" y="4" width="1" height="2" transform="rotate(90 12 4)" fill="#3A3A3A"/>
<rect x="8" y="6" width="1" height="2" fill="#3A3A3A"/>
<rect x="7" y="4" width="1" height="2" transform="rotate(90 7 4)" fill="#3A3A3A"/>
<rect x="9" y="5" width="1" height="1" fill="#3A3A3A"/>
<rect x="7" y="3" width="1" height="1" fill="#3A3A3A"/>
<rect x="9" y="3" width="1" height="1" fill="#3A3A3A"/>
<rect x="10" y="3" width="1" height="4" fill="#3A3A3A"/>
<rect x="6" y="3" width="1" height="4" fill="#3A3A3A"/>
<rect x="6" y="2" width="5" height="1" fill="#3A3A3A"/>
<rect x="6" y="6" width="5" height="1" fill="#3A3A3A"/>
<rect x="7" y="5" width="1" height="1" fill="#3A3A3A"/>
</g>
<defs>
<clipPath id="clip0_1917_13331">
<rect width="7" height="8" fill="white" transform="translate(1 8)"/>
</clipPath>
<clipPath id="clip1_1917_13331">
<rect width="7" height="8" fill="white" transform="translate(9 8)"/>
</clipPath>
<clipPath id="clip2_1917_13331">
<rect width="9" height="9" fill="white" transform="translate(4)"/>
</clipPath>
</defs>
</svg>
