<svg width="16" height="16" viewBox="0 0 16 16" fill="none" xmlns="http://www.w3.org/2000/svg">
<g clip-path="url(#clip0_1921_13178)">
<g clip-path="url(#clip1_1921_13178)">
<rect width="16" height="16" fill="#FCFCFC" fill-opacity="0.75"/>
<rect x="1.5" y="5.5" width="13" height="9" fill="url(#paint0_linear_1921_13178)" stroke="#919191"/>
<path d="M1 1H15V2V3H14V2H13V3H12V2H11V3H10V2H9V3H1V1Z" fill="#3A3A3A"/>
<rect x="1" y="3" width="14" height="1" fill="#3A3A3A"/>
</g>
<g clip-path="url(#clip2_1921_13178)">
<rect x="6" y="11" width="1" height="2" transform="rotate(90 6 11)" fill="#919191"/>
<rect x="12" y="8" width="1" height="4" transform="rotate(90 12 8)" fill="#919191"/>
<rect x="12" y="11" width="1" height="4" transform="rotate(90 12 11)" fill="#919191"/>
</g>
<g clip-path="url(#clip3_1921_13178)">
<path d="M0 8H7V10H8V16H2V15H0V8Z" fill="#FCFCFC" fill-opacity="0.75"/>
<rect x="3.5" y="11.5" width="3" height="3" fill="url(#paint1_linear_1921_13178)" stroke="#00A1DB"/>
<rect x="1" y="9" width="1" height="5" fill="#00A1DB"/>
<rect x="1" y="9" width="5" height="1" fill="#00A1DB"/>
</g>
</g>
<defs>
<linearGradient id="paint0_linear_1921_13178" x1="8" y1="5" x2="8" y2="15" gradientUnits="userSpaceOnUse">
<stop stop-color="#FCFCFC"/>
<stop offset="1" stop-color="#E6EAEA"/>
</linearGradient>
<linearGradient id="paint1_linear_1921_13178" x1="6.22222" y1="11.5556" x2="3.88889" y2="14.5556" gradientUnits="userSpaceOnUse">
<stop stop-color="#94E1FC"/>
<stop offset="1" stop-color="#FCFCFC"/>
</linearGradient>
<clipPath id="clip0_1921_13178">
<rect width="16" height="16" fill="white"/>
</clipPath>
<clipPath id="clip1_1921_13178">
<rect width="16" height="16" fill="white"/>
</clipPath>
<clipPath id="clip2_1921_13178">
<rect width="8" height="4" fill="white" transform="translate(4 8)"/>
</clipPath>
<clipPath id="clip3_1921_13178">
<rect width="8" height="8" fill="white" transform="translate(0 8)"/>
</clipPath>
</defs>
</svg>
