<svg width="16" height="16" viewBox="0 0 16 16" fill="none" xmlns="http://www.w3.org/2000/svg">
<g clip-path="url(#clip0_1926_12844)">
<g clip-path="url(#clip1_1926_12844)">
<rect width="16" height="16" fill="#FCFCFC" fill-opacity="0.75"/>
<rect x="1.5" y="3.5" width="13" height="11" fill="#FCFCFC" stroke="#919191"/>
<rect x="1.5" y="1.5" width="13" height="3" fill="#94E1FC" stroke="#3A3A3A"/>
<rect x="2" y="2" width="12" height="1" fill="#00A1DB"/>
</g>
<g clip-path="url(#clip2_1926_12844)">
<path d="M7 16L7 9L5 9L5 7L5.60272e-07 7L4.76837e-07 16L7 16Z" fill="#FCFCFC" fill-opacity="0.75"/>
<path d="M3.5 10L3.5 8.5L1.5 8.5L1.5 14.5L5.5 14.5L5.5 10.5L4 10.5L3.5 10.5L3.5 10Z" fill="url(#paint0_linear_1926_12844)" stroke="#00A1DB"/>
</g>
<rect x="9" y="7" width="3" height="2" fill="#D8D8D8"/>
<rect x="9" y="10" width="3" height="2" fill="#D8D8D8"/>
</g>
<defs>
<linearGradient id="paint0_linear_1926_12844" x1="5.30556" y1="9.36111" x2="0.706499" y2="11.9161" gradientUnits="userSpaceOnUse">
<stop stop-color="#94E1FC"/>
<stop offset="1" stop-color="#FCFCFC"/>
</linearGradient>
<clipPath id="clip0_1926_12844">
<rect width="16" height="16" fill="white"/>
</clipPath>
<clipPath id="clip1_1926_12844">
<rect width="16" height="16" fill="white"/>
</clipPath>
<clipPath id="clip2_1926_12844">
<rect width="7" height="9" fill="white" transform="translate(0 7)"/>
</clipPath>
</defs>
</svg>
