<svg width="16" height="16" viewBox="0 0 16 16" fill="none" xmlns="http://www.w3.org/2000/svg">
<g clip-path="url(#clip0_1926_12962)">
<g clip-path="url(#clip1_1926_12962)">
<rect x="15" width="16" height="14" transform="rotate(90 15 0)" fill="#FCFCFC" fill-opacity="0.75"/>
<rect x="13.5" y="1.5" width="13" height="11" transform="rotate(90 13.5 1.5)" fill="#FCFCFC" stroke="#919191"/>
</g>
<g clip-path="url(#clip2_1926_12962)">
<g clip-path="url(#clip3_1926_12962)">
<path d="M2 8V7H6V8H9V13H4V11H1V8H2Z" fill="#FCFCFC" fill-opacity="0.75"/>
<rect x="5" y="11" width="2" height="1" fill="#00A1DB"/>
<rect x="7" y="9" width="1" height="3" fill="#00A1DB"/>
<rect x="3" y="8" width="2" height="1" fill="#00A1DB"/>
<rect x="5" y="9" width="1" height="1" fill="#00A1DB"/>
<rect x="6" y="10" width="1" height="1" fill="#00A1DB"/>
<rect x="2" y="9" width="1" height="1" fill="#00A1DB"/>
</g>
<g clip-path="url(#clip4_1926_12962)">
<path d="M7 15V16H3V15H0V10H5V12H8V15H7Z" fill="#FCFCFC" fill-opacity="0.75"/>
<rect x="4" y="12" width="2" height="1" transform="rotate(180 4 12)" fill="#00A1DB"/>
<rect x="2" y="14" width="1" height="3" transform="rotate(180 2 14)" fill="#00A1DB"/>
<rect x="6" y="15" width="2" height="1" transform="rotate(180 6 15)" fill="#00A1DB"/>
<rect x="4" y="14" width="1" height="1" transform="rotate(180 4 14)" fill="#00A1DB"/>
<rect x="3" y="13" width="1" height="1" transform="rotate(180 3 13)" fill="#00A1DB"/>
<rect x="7" y="14" width="1" height="1" transform="rotate(180 7 14)" fill="#00A1DB"/>
</g>
</g>
<g clip-path="url(#clip5_1926_12962)">
<path d="M15 2V1H14V0H11V2H7V5H11V7H14V6H15V5H16V2H15Z" fill="#FCFCFC" fill-opacity="0.75"/>
<path d="M13 4L13 3L8 3L8 4L13 4Z" fill="#3A3A3A"/>
<rect width="1" height="1" transform="matrix(4.37114e-08 1 1 -4.37114e-08 14 3)" fill="#3A3A3A"/>
<rect width="3" height="1" transform="matrix(4.37114e-08 1 1 -4.37114e-08 13 2)" fill="#3A3A3A"/>
<rect width="5" height="1" transform="matrix(4.37114e-08 1 1 -4.37114e-08 12 1)" fill="#3A3A3A"/>
</g>
</g>
<defs>
<clipPath id="clip0_1926_12962">
<rect width="16" height="16" fill="white"/>
</clipPath>
<clipPath id="clip1_1926_12962">
<rect width="16" height="14" fill="white" transform="translate(15) rotate(90)"/>
</clipPath>
<clipPath id="clip2_1926_12962">
<rect width="9" height="9" fill="white" transform="translate(0 7)"/>
</clipPath>
<clipPath id="clip3_1926_12962">
<rect width="8" height="6" fill="white" transform="translate(1 7)"/>
</clipPath>
<clipPath id="clip4_1926_12962">
<rect width="8" height="6" fill="white" transform="matrix(-1 0 0 -1 8 16)"/>
</clipPath>
<clipPath id="clip5_1926_12962">
<rect width="9" height="7" fill="white" transform="matrix(-1 0 0 1 16 0)"/>
</clipPath>
</defs>
</svg>
