<svg width="16" height="16" viewBox="0 0 16 16" fill="none" xmlns="http://www.w3.org/2000/svg">
<g clip-path="url(#clip0_1926_13075)">
<g clip-path="url(#clip1_1926_13075)">
<rect x="15" width="16" height="14" transform="rotate(90 15 0)" fill="#FCFCFC" fill-opacity="0.75"/>
<rect x="13.5" y="1.5" width="13" height="11" transform="rotate(90 13.5 1.5)" fill="#FCFCFC" stroke="#919191"/>
</g>
<g clip-path="url(#clip2_1926_13075)">
<path d="M2 8V7H6V8H9V13H4V11H1V8H2Z" fill="#FCFCFC" fill-opacity="0.75"/>
<rect x="5" y="11" width="2" height="1" fill="#00A1DB"/>
<rect x="7" y="9" width="1" height="3" fill="#00A1DB"/>
<rect x="3" y="8" width="2" height="1" fill="#00A1DB"/>
<rect x="5" y="9" width="1" height="1" fill="#00A1DB"/>
<rect x="6" y="10" width="1" height="1" fill="#00A1DB"/>
<rect x="2" y="9" width="1" height="1" fill="#00A1DB"/>
</g>
<g clip-path="url(#clip3_1926_13075)">
<path d="M7 15V16H3V15H0V10H5V12H8V15H7Z" fill="#FCFCFC" fill-opacity="0.75"/>
<rect x="4" y="12" width="2" height="1" transform="rotate(180 4 12)" fill="#00A1DB"/>
<rect x="2" y="14" width="1" height="3" transform="rotate(180 2 14)" fill="#00A1DB"/>
<rect x="6" y="15" width="2" height="1" transform="rotate(180 6 15)" fill="#00A1DB"/>
<rect x="4" y="14" width="1" height="1" transform="rotate(180 4 14)" fill="#00A1DB"/>
<rect x="3" y="13" width="1" height="1" transform="rotate(180 3 13)" fill="#00A1DB"/>
<rect x="7" y="14" width="1" height="1" transform="rotate(180 7 14)" fill="#00A1DB"/>
</g>
<g clip-path="url(#clip4_1926_13075)">
<path d="M7 1H11V2H12V1H13V0H16V3H15V5H14V7H13V8H10V7H9V6H8V5H7V1Z" fill="#FCFCFC" fill-opacity="0.75"/>
<path d="M11 3V4H12V3H13V2H14V1H15V2H14V3V4H13V6H12V7H11V6H10V5H9V4H8V3V2H9H10V3H11Z" fill="#3A3A3A"/>
</g>
<rect x="11" y="1" width="1" height="1" fill="#FCFCFC" fill-opacity="0.75"/>
</g>
<defs>
<clipPath id="clip0_1926_13075">
<rect width="16" height="16" fill="white"/>
</clipPath>
<clipPath id="clip1_1926_13075">
<rect width="16" height="14" fill="white" transform="translate(15) rotate(90)"/>
</clipPath>
<clipPath id="clip2_1926_13075">
<rect width="8" height="6" fill="white" transform="translate(1 7)"/>
</clipPath>
<clipPath id="clip3_1926_13075">
<rect width="8" height="6" fill="white" transform="matrix(-1 0 0 -1 8 16)"/>
</clipPath>
<clipPath id="clip4_1926_13075">
<rect width="9" height="8" fill="white" transform="translate(7)"/>
</clipPath>
</defs>
</svg>
