<svg width="16" height="16" viewBox="0 0 16 16" fill="none" xmlns="http://www.w3.org/2000/svg">
<g clip-path="url(#clip0_1939_12283)">
<g clip-path="url(#clip1_1939_12283)">
<rect width="16" height="16" fill="#FCFCFC" fill-opacity="0.75"/>
<rect x="1.5" y="3.5" width="13" height="11" fill="#FCFCFC" stroke="#919191"/>
<rect x="1.5" y="1.5" width="13" height="3" fill="#94E1FC" stroke="#3A3A3A"/>
<rect x="2" y="2" width="12" height="1" fill="#00A1DB"/>
</g>
<rect x="9" y="7" width="3" height="2" fill="#919191"/>
<rect x="9" y="10" width="3" height="2" fill="#919191"/>
<g clip-path="url(#clip2_1939_12283)">
<path d="M0 8H8V9H9V16H0V8Z" fill="#FCFCFC" fill-opacity="0.75"/>
<path d="M5 12.5H7.5V14.5H1.5V9.5H4.5V12V12.5H5Z" fill="url(#paint0_linear_1939_12283)" stroke="#00A1DB"/>
<path d="M6 9H7V10H8V11H6V9Z" fill="#00A1DB"/>
</g>
</g>
<defs>
<linearGradient id="paint0_linear_1939_12283" x1="6.63889" y1="9.83333" x2="3.30556" y2="14.8333" gradientUnits="userSpaceOnUse">
<stop stop-color="#94E1FC"/>
<stop offset="1" stop-color="#FCFCFC"/>
</linearGradient>
<clipPath id="clip0_1939_12283">
<rect width="16" height="16" fill="white"/>
</clipPath>
<clipPath id="clip1_1939_12283">
<rect width="16" height="16" fill="white"/>
</clipPath>
<clipPath id="clip2_1939_12283">
<rect width="9" height="8" fill="white" transform="translate(0 8)"/>
</clipPath>
</defs>
</svg>
