<svg width="16" height="16" viewBox="0 0 16 16" fill="none" xmlns="http://www.w3.org/2000/svg">
<g clip-path="url(#clip0_1939_12322)">
<rect y="1" width="16" height="14" fill="#FCFCFC" fill-opacity="0.75"/>
<rect x="1" y="2" width="14" height="12" fill="#00A1DB"/>
</g>
<rect x="7" y="5" width="1" height="1" fill="#FCFCFC"/>
<rect x="7" y="7" width="1" height="1" fill="#FCFCFC"/>
<rect x="6" y="6" width="1" height="4" fill="#FCFCFC"/>
<rect x="8" y="6" width="1" height="4" fill="#FCFCFC"/>
<rect x="11" y="9" width="2" height="1" fill="#FCFCFC"/>
<rect x="11" y="5" width="2" height="1" fill="#FCFCFC"/>
<rect x="11" y="5" width="1" height="5" fill="#FCFCFC"/>
<rect x="13" y="6" width="1" height="3" fill="#FCFCFC"/>
<rect x="3" y="5" width="1" height="1" fill="#FCFCFC"/>
<rect x="4" y="6" width="1" height="1" fill="#FCFCFC"/>
<rect x="3" y="9" width="1" height="1" fill="#FCFCFC"/>
<rect x="4" y="8" width="1" height="1" fill="#FCFCFC"/>
<rect x="2" y="6" width="1" height="3" fill="#FCFCFC"/>
<defs>
<clipPath id="clip0_1939_12322">
<rect width="16" height="14" fill="white" transform="translate(0 1)"/>
</clipPath>
</defs>
</svg>
