<svg width="16" height="16" viewBox="0 0 16 16" fill="none" xmlns="http://www.w3.org/2000/svg">
<g clip-path="url(#clip0_1939_12375)">
<g clip-path="url(#clip1_1939_12375)">
<rect width="16" height="16" fill="#FCFCFC" fill-opacity="0.75"/>
<rect x="1.5" y="3.5" width="13" height="11" fill="#FCFCFC" stroke="#919191"/>
<rect x="1.5" y="1.5" width="13" height="3" fill="#94E1FC" stroke="#3A3A3A"/>
<rect x="2" y="2" width="12" height="1" fill="#00A1DB"/>
</g>
<rect x="4" y="7" width="3" height="2" fill="#919191"/>
<rect x="9" y="7" width="3" height="2" fill="#919191"/>
<rect x="9" y="10" width="3" height="2" fill="#919191"/>
<g clip-path="url(#clip2_1939_12375)">
<path d="M8 11V10H7V9H4V11H0V14H4V16H7V15H8V14H9V11H8Z" fill="#FCFCFC" fill-opacity="0.75"/>
<path d="M6 13L6 12L1 12L1 13L6 13Z" fill="#00A1DB"/>
<rect width="1" height="1" transform="matrix(4.37114e-08 1 1 -4.37114e-08 7 12)" fill="#00A1DB"/>
<rect width="3" height="1" transform="matrix(4.37114e-08 1 1 -4.37114e-08 6 11)" fill="#00A1DB"/>
<rect width="5" height="1" transform="matrix(4.37114e-08 1 1 -4.37114e-08 5 10)" fill="#00A1DB"/>
</g>
<rect x="1" y="14" width="3" height="1" fill="#FCFCFC" fill-opacity="0.75"/>
</g>
<defs>
<clipPath id="clip0_1939_12375">
<rect width="16" height="16" fill="white"/>
</clipPath>
<clipPath id="clip1_1939_12375">
<rect width="16" height="16" fill="white"/>
</clipPath>
<clipPath id="clip2_1939_12375">
<rect width="9" height="7" fill="white" transform="matrix(-1 0 0 1 9 9)"/>
</clipPath>
</defs>
</svg>
