<svg width="16" height="16" viewBox="0 0 16 16" fill="none" xmlns="http://www.w3.org/2000/svg">
<g clip-path="url(#clip0_1940_11571)">
<path d="M0 0H6V1H7V2H8V8H0V0Z" fill="#FCFCFC" fill-opacity="0.75"/>
<path d="M5 2.5H5.5V3V3.5H6H6.5V6.5H1.5V1.5H4.5V2V2.5H5Z" fill="url(#paint0_linear_1940_11571)" stroke="#919191"/>
<path d="M8 0H14V1H15V2H16V8H8V0Z" fill="#FCFCFC" fill-opacity="0.75"/>
<path d="M13 2.5H13.5V3V3.5H14H14.5V6.5H9.5V1.5H12.5V2V2.5H13Z" fill="url(#paint1_linear_1940_11571)" stroke="#919191"/>
<path d="M8 8H14V9H15V10H16V16H8V8Z" fill="#FCFCFC" fill-opacity="0.75"/>
<path d="M13 10.5H13.5V11V11.5H14H14.5V14.5H9.5V9.5H12.5V10V10.5H13Z" fill="url(#paint2_linear_1940_11571)" stroke="#919191"/>
<g clip-path="url(#clip1_1940_11571)">
<path d="M0 16V11H1V10H2V9H3V8H4V7H8V8H9V12H8V13H7V14H6V15H5V16H0Z" fill="#FCFCFC" fill-opacity="0.75"/>
<rect x="2" y="11" width="1" height="1" fill="#3A3A3A"/>
<rect x="4" y="13" width="1" height="1" fill="#3A3A3A"/>
<rect x="3" y="10" width="1" height="1" fill="#3A3A3A"/>
<rect x="5" y="12" width="1" height="1" fill="#3A3A3A"/>
<rect x="4" y="9" width="1" height="1" fill="#3A3A3A"/>
<rect x="6" y="9" width="1" height="1" fill="#FCFCFC"/>
<rect x="2" y="14" width="1" height="1" fill="#00A1DB"/>
<rect x="5" y="11" width="1" height="1" fill="#00A1DB"/>
<rect x="4" y="10" width="1" height="1" fill="#00A1DB"/>
<rect x="1" y="13" width="1" height="2" fill="#00A1DB"/>
<rect x="3" y="11" width="2" height="2" fill="#00A1DB"/>
<path d="M5 9H6V10H7V11H5V9Z" fill="#00A1DB"/>
<rect x="1" y="12" width="1" height="1" fill="#919191"/>
<rect x="3" y="14" width="1" height="1" fill="#919191"/>
<rect x="6" y="11" width="1" height="1" fill="#3A3A3A"/>
<rect x="7" y="9" width="1" height="2" fill="#3A3A3A"/>
<rect x="5" y="8" width="2" height="1" fill="#3A3A3A"/>
</g>
</g>
<defs>
<linearGradient id="paint0_linear_1940_11571" x1="4" y1="1" x2="4" y2="7" gradientUnits="userSpaceOnUse">
<stop stop-color="#F4F7F6"/>
<stop offset="1" stop-color="#D8D8D8"/>
</linearGradient>
<linearGradient id="paint1_linear_1940_11571" x1="12" y1="1" x2="12" y2="7" gradientUnits="userSpaceOnUse">
<stop stop-color="#F4F7F6"/>
<stop offset="1" stop-color="#D8D8D8"/>
</linearGradient>
<linearGradient id="paint2_linear_1940_11571" x1="12" y1="9" x2="12" y2="15" gradientUnits="userSpaceOnUse">
<stop stop-color="#F4F7F6"/>
<stop offset="1" stop-color="#D8D8D8"/>
</linearGradient>
<clipPath id="clip0_1940_11571">
<rect width="16" height="16" fill="white"/>
</clipPath>
<clipPath id="clip1_1940_11571">
<rect width="9" height="9" fill="white" transform="translate(0 7)"/>
</clipPath>
</defs>
</svg>
