<svg width="16" height="16" viewBox="0 0 16 16" fill="none" xmlns="http://www.w3.org/2000/svg">
<rect y="1" width="16" height="14" fill="#FCFCFC" fill-opacity="0.75"/>
<rect x="1.5" y="2.5" width="13" height="11" fill="url(#paint0_linear_1940_11711)" stroke="#919191"/>
<rect x="1" y="4" width="14" height="3" fill="#3A3A3A"/>
<rect x="9" y="9" width="4" height="1" fill="#919191"/>
<g clip-path="url(#clip0_1940_11711)">
<g clip-path="url(#clip1_1940_11711)">
<path d="M2 8V7H6V8H9V13H4V11H1V8H2Z" fill="#FCFCFC" fill-opacity="0.75"/>
<rect x="5" y="11" width="2" height="1" fill="#00A1DB"/>
<rect x="7" y="9" width="1" height="3" fill="#00A1DB"/>
<rect x="3" y="8" width="2" height="1" fill="#00A1DB"/>
<rect x="5" y="9" width="1" height="1" fill="#00A1DB"/>
<rect x="6" y="10" width="1" height="1" fill="#00A1DB"/>
<rect x="2" y="9" width="1" height="1" fill="#00A1DB"/>
</g>
<g clip-path="url(#clip2_1940_11711)">
<path d="M7 15V16H3V15H0V10H5V12H8V15H7Z" fill="#FCFCFC" fill-opacity="0.75"/>
<rect x="4" y="12" width="2" height="1" transform="rotate(180 4 12)" fill="#00A1DB"/>
<rect x="2" y="14" width="1" height="3" transform="rotate(180 2 14)" fill="#00A1DB"/>
<rect x="6" y="15" width="2" height="1" transform="rotate(180 6 15)" fill="#00A1DB"/>
<rect x="4" y="14" width="1" height="1" transform="rotate(180 4 14)" fill="#00A1DB"/>
<rect x="3" y="13" width="1" height="1" transform="rotate(180 3 13)" fill="#00A1DB"/>
<rect x="7" y="14" width="1" height="1" transform="rotate(180 7 14)" fill="#00A1DB"/>
</g>
</g>
<defs>
<linearGradient id="paint0_linear_1940_11711" x1="15" y1="8.54545" x2="1" y2="8.54545" gradientUnits="userSpaceOnUse">
<stop stop-color="#F4F7F6"/>
<stop offset="1" stop-color="#D8D8D8"/>
</linearGradient>
<clipPath id="clip0_1940_11711">
<rect width="9" height="9" fill="white" transform="translate(0 7)"/>
</clipPath>
<clipPath id="clip1_1940_11711">
<rect width="8" height="6" fill="white" transform="translate(1 7)"/>
</clipPath>
<clipPath id="clip2_1940_11711">
<rect width="8" height="6" fill="white" transform="matrix(-1 0 0 -1 8 16)"/>
</clipPath>
</defs>
</svg>
