<svg width="16" height="16" viewBox="0 0 16 16" fill="none" xmlns="http://www.w3.org/2000/svg">
<g clip-path="url(#clip0_1947_11538)">
<rect width="16" height="16" fill="#FCFCFC" fill-opacity="0.75"/>
<rect x="3.5" y="1.5" width="11" height="13" fill="url(#paint0_linear_1947_11538)" stroke="#919191"/>
<rect x="6.5" y="4.5" width="5" height="3" fill="#FCFCFC" stroke="#3A3A3A"/>
<rect x="9" y="9" width="3" height="1" fill="#3A3A3A"/>
<rect x="1" y="1" width="1" height="14" fill="#919191"/>
<g clip-path="url(#clip1_1947_11538)">
<rect y="7" width="6" height="9" fill="#FCFCFC" fill-opacity="0.75"/>
<rect x="1" y="8" width="1" height="7" fill="#3A3A3A"/>
<rect x="4" y="8" width="1" height="7" fill="#3A3A3A"/>
<rect x="1" y="11" width="4" height="1" fill="#3A3A3A"/>
</g>
<g clip-path="url(#clip2_1947_11538)">
<path d="M6 10V9H9V13H10V16H5V10H6Z" fill="#FCFCFC" fill-opacity="0.75"/>
<rect x="6" y="11" width="1" height="1" fill="#3A3A3A"/>
<rect x="6" y="14" width="3" height="1" fill="#3A3A3A"/>
<rect x="7" y="10" width="1" height="5" fill="#3A3A3A"/>
</g>
</g>
<defs>
<linearGradient id="paint0_linear_1947_11538" x1="9" y1="1" x2="9" y2="15" gradientUnits="userSpaceOnUse">
<stop stop-color="#F4F7F6"/>
<stop offset="1" stop-color="#D8D8D8"/>
</linearGradient>
<clipPath id="clip0_1947_11538">
<rect width="16" height="16" fill="white"/>
</clipPath>
<clipPath id="clip1_1947_11538">
<rect width="6" height="9" fill="white" transform="translate(0 7)"/>
</clipPath>
<clipPath id="clip2_1947_11538">
<rect width="5" height="7" fill="white" transform="translate(5 9)"/>
</clipPath>
</defs>
</svg>
