<svg width="16" height="16" viewBox="0 0 16 16" fill="none" xmlns="http://www.w3.org/2000/svg">
<g clip-path="url(#clip0_1948_11476)">
<path d="M16 1H14V0H9V1H1V16H16V1Z" fill="#FCFCFC" fill-opacity="0.75"/>
<rect x="-0.5" y="0.5" width="6" height="12" transform="matrix(-1 0 0 1 8 2)" fill="url(#paint0_linear_1948_11476)" stroke="#919191"/>
<rect x="8.5" y="2.5" width="6" height="12" fill="url(#paint1_linear_1948_11476)" stroke="#919191"/>
<rect x="4" y="5" width="3" height="1" fill="#3A3A3A"/>
<rect x="4" y="7" width="3" height="1" fill="#3A3A3A"/>
<rect x="4" y="9" width="3" height="1" fill="#3A3A3A"/>
<rect x="10" y="5" width="3" height="1" fill="#3A3A3A"/>
<rect x="10" y="7" width="3" height="1" fill="#3A3A3A"/>
<rect x="10" y="11" width="3" height="1" fill="#3A3A3A"/>
<rect x="10" y="9" width="3" height="1" fill="#3A3A3A"/>
<rect x="10" y="1" width="3" height="2" fill="#00A1DB"/>
<rect x="8" y="2" width="1" height="13" fill="#3A3A3A"/>
<g clip-path="url(#clip1_1948_11476)">
<path d="M1 10V9H4V13H5V16H0V10H1Z" fill="#FCFCFC" fill-opacity="0.75"/>
<rect x="1" y="11" width="1" height="1" fill="#3A3A3A"/>
<rect x="1" y="14" width="3" height="1" fill="#3A3A3A"/>
<rect x="2" y="10" width="1" height="5" fill="#3A3A3A"/>
</g>
</g>
<defs>
<linearGradient id="paint0_linear_1948_11476" x1="2.33333" y1="6.5" x2="2.52335e-08" y2="6.5" gradientUnits="userSpaceOnUse">
<stop stop-color="#FCFCFC"/>
<stop offset="1" stop-color="#919191"/>
</linearGradient>
<linearGradient id="paint1_linear_1948_11476" x1="10.3333" y1="8.5" x2="8" y2="8.5" gradientUnits="userSpaceOnUse">
<stop stop-color="#FCFCFC"/>
<stop offset="1" stop-color="#919191"/>
</linearGradient>
<clipPath id="clip0_1948_11476">
<rect width="16" height="16" fill="white"/>
</clipPath>
<clipPath id="clip1_1948_11476">
<rect width="5" height="7" fill="white" transform="translate(0 9)"/>
</clipPath>
</defs>
</svg>
