<svg width="16" height="16" viewBox="0 0 16 16" fill="none" xmlns="http://www.w3.org/2000/svg">
<g clip-path="url(#clip0_1949_11451)">
<rect width="16" height="16" fill="#FCFCFC" fill-opacity="0.75"/>
<rect x="3.5" y="1.5" width="11" height="13" fill="url(#paint0_linear_1949_11451)" stroke="#919191"/>
<rect x="6.5" y="4.5" width="5" height="3" fill="#FCFCFC" stroke="#3A3A3A"/>
<rect x="9" y="9" width="3" height="1" fill="#3A3A3A"/>
<rect x="1" y="1" width="1" height="14" fill="#919191"/>
<g clip-path="url(#clip1_1949_11451)">
<path d="M0 8H8V9H9V16H0V8Z" fill="#FCFCFC" fill-opacity="0.75"/>
<path d="M5 12.5H7.5V14.5H1.5V9.5H4.5V12V12.5H5Z" fill="url(#paint1_linear_1949_11451)" stroke="#00A1DB"/>
<path d="M6 9H7V10H8V11H6V9Z" fill="#00A1DB"/>
</g>
<rect y="6" width="5" height="2" fill="#FCFCFC" fill-opacity="0.75"/>
<rect x="1" y="7" width="3" height="1" fill="#00A1DB"/>
</g>
<defs>
<linearGradient id="paint0_linear_1949_11451" x1="9" y1="1" x2="9" y2="15" gradientUnits="userSpaceOnUse">
<stop stop-color="#F4F7F6"/>
<stop offset="1" stop-color="#D8D8D8"/>
</linearGradient>
<linearGradient id="paint1_linear_1949_11451" x1="6.63889" y1="9.83333" x2="3.30556" y2="14.8333" gradientUnits="userSpaceOnUse">
<stop stop-color="#94E1FC"/>
<stop offset="1" stop-color="#FCFCFC"/>
</linearGradient>
<clipPath id="clip0_1949_11451">
<rect width="16" height="16" fill="white"/>
</clipPath>
<clipPath id="clip1_1949_11451">
<rect width="9" height="8" fill="white" transform="translate(0 8)"/>
</clipPath>
</defs>
</svg>
