<svg width="16" height="16" viewBox="0 0 16 16" fill="none" xmlns="http://www.w3.org/2000/svg">
<rect width="5" height="15" fill="#FCFCFC" fill-opacity="0.75"/>
<rect x="3" y="1" width="1" height="13" fill="#00A1DB"/>
<rect x="1" y="1" width="1" height="13" fill="#00A1DB"/>
<g clip-path="url(#clip0_1951_11164)">
<path d="M12 2.94055e-07L12 1L13 1L13 2L14 2L14 3L15 3L15 4L16 4L16 7L15 7L15 8L13 8L13 15L8 15L8 8L6 8L6 7L5 7L5 4L6 4L6 3L7 3L7 2L8 2L8 1L9 1L9 3.0598e-07L12 2.94055e-07Z" fill="#FCFCFC" fill-opacity="0.75"/>
<path d="M11 2L15 6L11 6L11 14L10 14L10 6L6 6L10 2L11 2Z" fill="url(#paint0_linear_1951_11164)"/>
<path d="M14 7L14 6L11 6L11 13L10 13L10 6L7 6L7 7L9 7L9 14L12 14L12 7L14 7Z" fill="#00A1DB"/>
<rect width="1" height="1" transform="matrix(-4.37114e-08 -1 -1 4.37114e-08 11 2)" fill="#00A1DB"/>
<rect width="1" height="1" transform="matrix(-4.37114e-08 -1 -1 4.37114e-08 13 4)" fill="#00A1DB"/>
<rect width="1" height="1" transform="matrix(-4.37114e-08 -1 -1 4.37114e-08 14 5)" fill="#00A1DB"/>
<rect width="1" height="1" transform="matrix(-4.37114e-08 -1 -1 4.37114e-08 15 6)" fill="#00A1DB"/>
<rect x="8" y="4" width="1" height="1" transform="rotate(-90 8 4)" fill="#00A1DB"/>
<rect x="7" y="5" width="1" height="1" transform="rotate(-90 7 5)" fill="#00A1DB"/>
<rect x="6" y="6" width="1" height="1" transform="rotate(-90 6 6)" fill="#00A1DB"/>
<rect width="1" height="1" transform="matrix(-4.37114e-08 -1 -1 4.37114e-08 12 3)" fill="#00A1DB"/>
<rect x="9" y="3" width="1" height="1" transform="rotate(-90 9 3)" fill="#00A1DB"/>
</g>
<defs>
<linearGradient id="paint0_linear_1951_11164" x1="13.75" y1="11.6667" x2="5.6671" y2="6.95164" gradientUnits="userSpaceOnUse">
<stop stop-color="#94E1FC"/>
<stop offset="1" stop-color="#FCFCFC"/>
</linearGradient>
<clipPath id="clip0_1951_11164">
<rect width="15" height="11" fill="white" transform="matrix(-4.37114e-08 -1 -1 4.37114e-08 16 15)"/>
</clipPath>
</defs>
</svg>
