<svg width="16" height="16" viewBox="0 0 16 16" fill="none" xmlns="http://www.w3.org/2000/svg">
<g clip-path="url(#clip0_1951_11211)">
<g clip-path="url(#clip1_1951_11211)">
<rect width="16" height="16" fill="#FCFCFC" fill-opacity="0.75"/>
<rect x="1.5" y="3.5" width="13" height="11" fill="#FCFCFC" stroke="#919191"/>
<rect x="1.5" y="1.5" width="13" height="3" fill="#94E1FC" stroke="#3A3A3A"/>
<rect x="2" y="2" width="12" height="1" fill="#00A1DB"/>
</g>
<rect x="9" y="7" width="3" height="2" fill="#919191"/>
<rect x="9" y="10" width="3" height="2" fill="#919191"/>
<g clip-path="url(#clip2_1951_11211)">
<path d="M3 15L2 15L2 14L1 14L1 11L3 11L3 7L6 7L6 11L8 11L8 14L7 14L7 15L6 15L6 16L3 16L3 15Z" fill="#FCFCFC" fill-opacity="0.75"/>
<path d="M5 13L4 13L4 8L5 8L5 13Z" fill="#00A1DB"/>
<rect x="4" y="14" width="1" height="1" fill="#00A1DB"/>
<rect x="3" y="13" width="3" height="1" fill="#00A1DB"/>
<rect x="2" y="12" width="5" height="1" fill="#00A1DB"/>
</g>
<rect x="1" y="14" width="1" height="1" fill="#FCFCFC" fill-opacity="0.75"/>
</g>
<defs>
<clipPath id="clip0_1951_11211">
<rect width="16" height="16" fill="white"/>
</clipPath>
<clipPath id="clip1_1951_11211">
<rect width="16" height="16" fill="white"/>
</clipPath>
<clipPath id="clip2_1951_11211">
<rect width="9" height="7" fill="white" transform="translate(1 16) rotate(-90)"/>
</clipPath>
</defs>
</svg>
