<svg width="16" height="16" viewBox="0 0 16 16" fill="none" xmlns="http://www.w3.org/2000/svg">
<g clip-path="url(#clip0_1954_11149)">
<path d="M16 1H14V0H9V1H1V16H16V1Z" fill="#FCFCFC" fill-opacity="0.75"/>
<rect x="-0.5" y="0.5" width="6" height="12" transform="matrix(-1 0 0 1 8 2)" fill="url(#paint0_linear_1954_11149)" stroke="#919191"/>
<rect x="8.5" y="2.5" width="6" height="12" fill="url(#paint1_linear_1954_11149)" stroke="#919191"/>
<rect x="4" y="5" width="3" height="1" fill="#3A3A3A"/>
<rect x="10" y="5" width="3" height="1" fill="#3A3A3A"/>
<rect x="10" y="7" width="3" height="1" fill="#3A3A3A"/>
<rect x="10" y="11" width="3" height="1" fill="#3A3A3A"/>
<rect x="10" y="9" width="3" height="1" fill="#3A3A3A"/>
<rect x="10" y="1" width="3" height="2" fill="#00A1DB"/>
<rect x="8" y="2" width="1" height="13" fill="#3A3A3A"/>
<g clip-path="url(#clip1_1954_11149)">
<path d="M0 13.5455L3.5 16H4.5L8 13.5455V9.45455L4.5 7H3.5L0 9.45455V13.5455Z" fill="#FCFCFC" fill-opacity="0.75"/>
<path d="M1 13.0909L4 15L7 13.0909V9.90909L4 8L1 9.90909V13.0909Z" fill="url(#paint2_linear_1954_11149)"/>
<path d="M4 14.4073L1.5 12.8164V10.1836L4 8.59265L6.5 10.1836V12.8164L4 14.4073Z" stroke="#919191"/>
</g>
</g>
<defs>
<linearGradient id="paint0_linear_1954_11149" x1="2.33333" y1="6.5" x2="2.52335e-08" y2="6.5" gradientUnits="userSpaceOnUse">
<stop stop-color="#FCFCFC"/>
<stop offset="1" stop-color="#919191"/>
</linearGradient>
<linearGradient id="paint1_linear_1954_11149" x1="10.3333" y1="8.5" x2="8" y2="8.5" gradientUnits="userSpaceOnUse">
<stop stop-color="#FCFCFC"/>
<stop offset="1" stop-color="#919191"/>
</linearGradient>
<linearGradient id="paint2_linear_1954_11149" x1="5.83333" y1="8.97222" x2="1.64018" y2="13.5932" gradientUnits="userSpaceOnUse">
<stop stop-color="#94E1FC"/>
<stop offset="1" stop-color="#FCFCFC"/>
</linearGradient>
<clipPath id="clip0_1954_11149">
<rect width="16" height="16" fill="white"/>
</clipPath>
<clipPath id="clip1_1954_11149">
<rect width="8" height="9" fill="white" transform="translate(0 7)"/>
</clipPath>
</defs>
</svg>
