<svg width="16" height="16" viewBox="0 0 16 16" fill="none" xmlns="http://www.w3.org/2000/svg">
<g clip-path="url(#clip0_1954_11200)">
<rect x="1" y="1" width="14" height="14" fill="#FCFCFC" fill-opacity="0.75"/>
<rect x="2.5" y="2.5" width="11" height="11" fill="#FCFCFC" stroke="#919191"/>
<rect x="4" y="4" width="8" height="8" fill="url(#paint0_linear_1954_11200)"/>
<path d="M4 6L12 12H4V6Z" fill="url(#paint1_linear_1954_11200)"/>
<path d="M12 8L5 12H12V8Z" fill="url(#paint2_linear_1954_11200)"/>
</g>
<g clip-path="url(#clip1_1954_11200)">
<path d="M0 16V11H1V10H2V9H3V8H4V7H8V8H9V12H8V13H7V14H6V15H5V16H0Z" fill="#FCFCFC" fill-opacity="0.75"/>
<rect x="2" y="11" width="1" height="1" fill="#3A3A3A"/>
<rect x="4" y="13" width="1" height="1" fill="#3A3A3A"/>
<rect x="3" y="10" width="1" height="1" fill="#3A3A3A"/>
<rect x="5" y="12" width="1" height="1" fill="#3A3A3A"/>
<rect x="4" y="9" width="1" height="1" fill="#3A3A3A"/>
<rect x="6" y="9" width="1" height="1" fill="#FCFCFC"/>
<rect x="2" y="14" width="1" height="1" fill="#00A1DB"/>
<rect x="5" y="11" width="1" height="1" fill="#00A1DB"/>
<rect x="4" y="10" width="1" height="1" fill="#00A1DB"/>
<rect x="1" y="13" width="1" height="2" fill="#00A1DB"/>
<rect x="3" y="11" width="2" height="2" fill="#00A1DB"/>
<path d="M5 9H6V10H7V11H5V9Z" fill="#00A1DB"/>
<rect x="1" y="12" width="1" height="1" fill="#919191"/>
<rect x="3" y="14" width="1" height="1" fill="#919191"/>
<rect x="6" y="11" width="1" height="1" fill="#3A3A3A"/>
<rect x="7" y="9" width="1" height="2" fill="#3A3A3A"/>
<rect x="5" y="8" width="2" height="1" fill="#3A3A3A"/>
</g>
<defs>
<linearGradient id="paint0_linear_1954_11200" x1="10.4444" y1="5.11111" x2="5.77778" y2="11.1111" gradientUnits="userSpaceOnUse">
<stop stop-color="#94E1FC"/>
<stop offset="1" stop-color="#FCFCFC"/>
</linearGradient>
<linearGradient id="paint1_linear_1954_11200" x1="7" y1="10.3636" x2="4.22115" y2="7.05218" gradientUnits="userSpaceOnUse">
<stop stop-color="#6FCF97"/>
<stop offset="1" stop-color="#27AE60"/>
</linearGradient>
<linearGradient id="paint2_linear_1954_11200" x1="11.75" y1="8" x2="9.75" y2="12" gradientUnits="userSpaceOnUse">
<stop stop-color="#6FCF97"/>
<stop offset="1" stop-color="#219653"/>
</linearGradient>
<clipPath id="clip0_1954_11200">
<rect width="14" height="14" fill="white" transform="translate(1 1)"/>
</clipPath>
<clipPath id="clip1_1954_11200">
<rect width="9" height="9" fill="white" transform="translate(0 7)"/>
</clipPath>
</defs>
</svg>
