<svg width="16" height="16" viewBox="0 0 16 16" fill="none" xmlns="http://www.w3.org/2000/svg">
<g clip-path="url(#clip0_1955_10759)">
<rect y="2" width="16" height="12" fill="#FCFCFC" fill-opacity="0.75"/>
<rect x="1.5" y="3.5" width="13" height="9" fill="url(#paint0_linear_1955_10759)" stroke="#919191"/>
<rect x="7" y="9" width="2" height="1" fill="#919191"/>
<rect x="12" y="10" width="1" height="1" fill="#919191"/>
<rect x="11" y="9" width="1" height="1" fill="#919191"/>
<rect x="10" y="8" width="1" height="1" fill="#919191"/>
<rect x="13" y="11" width="1" height="1" fill="#919191"/>
<rect x="14" y="11" width="1" height="1" fill="#919191"/>
<rect x="11" y="6" width="1" height="1" fill="#919191"/>
<rect x="10" y="7" width="1" height="1" fill="#919191"/>
<rect x="9" y="8" width="1" height="1" fill="#919191"/>
<rect x="12" y="5" width="1" height="1" fill="#919191"/>
<rect x="13" y="4" width="1" height="1" fill="#919191"/>
<rect x="14" y="3" width="1" height="1" fill="#919191"/>
<rect x="4" y="6" width="1" height="1" fill="#919191"/>
<rect x="5" y="7" width="1" height="1" fill="#919191"/>
<rect x="6" y="8" width="1" height="1" fill="#919191"/>
<rect x="3" y="5" width="1" height="1" fill="#919191"/>
<rect x="2" y="4" width="1" height="1" fill="#919191"/>
<rect x="1" y="3" width="1" height="1" fill="#919191"/>
<rect x="1" y="11" width="1" height="1" fill="#919191"/>
<rect x="3" y="10" width="1" height="1" fill="#919191"/>
<rect x="4" y="9" width="1" height="1" fill="#919191"/>
<rect x="5" y="8" width="1" height="1" fill="#919191"/>
<rect x="2" y="11" width="1" height="1" fill="#919191"/>
<g clip-path="url(#clip1_1955_10759)">
<path d="M0 8H1V7H5V8H7V9H8V10H9V15H8V16H1V15H0V8Z" fill="#FCFCFC" fill-opacity="0.75"/>
<path d="M2 11H8V14H2V11Z" fill="url(#paint1_linear_1955_10759)"/>
<path d="M1 9H6V10V10H7V11H2V14H1V9Z" fill="#00A1DB"/>
<path d="M2 14H7V15H2V14Z" fill="#00A1DB"/>
<path d="M7 11H8V14H7V11Z" fill="#00A1DB"/>
<rect x="3" y="11" width="1" height="3" fill="#00A1DB"/>
<rect x="2" y="8" width="2" height="1" fill="#00A1DB"/>
</g>
</g>
<defs>
<linearGradient id="paint0_linear_1955_10759" x1="8" y1="3" x2="8" y2="13" gradientUnits="userSpaceOnUse">
<stop stop-color="#F4F7F6"/>
<stop offset="1" stop-color="#D8D8D8"/>
</linearGradient>
<linearGradient id="paint1_linear_1955_10759" x1="6.83333" y1="11.4167" x2="5.61349" y2="14.5534" gradientUnits="userSpaceOnUse">
<stop stop-color="#94E1FC"/>
<stop offset="1" stop-color="#FCFCFC"/>
</linearGradient>
<clipPath id="clip0_1955_10759">
<rect width="16" height="16" fill="white"/>
</clipPath>
<clipPath id="clip1_1955_10759">
<rect width="9" height="9" fill="white" transform="translate(0 7)"/>
</clipPath>
</defs>
</svg>
