<svg width="16" height="16" viewBox="0 0 16 16" fill="none" xmlns="http://www.w3.org/2000/svg">
<g clip-path="url(#clip0_1956_10833)">
<rect y="2" width="16" height="12" fill="#FCFCFC" fill-opacity="0.75"/>
<rect x="1.5" y="3.5" width="13" height="9" fill="url(#paint0_linear_1956_10833)" stroke="#919191"/>
<rect x="7" y="9" width="2" height="1" fill="#919191"/>
<rect x="12" y="10" width="1" height="1" fill="#919191"/>
<rect x="11" y="9" width="1" height="1" fill="#919191"/>
<rect x="10" y="8" width="1" height="1" fill="#919191"/>
<rect x="13" y="11" width="1" height="1" fill="#919191"/>
<rect x="14" y="11" width="1" height="1" fill="#919191"/>
<rect x="11" y="6" width="1" height="1" fill="#919191"/>
<rect x="10" y="7" width="1" height="1" fill="#919191"/>
<rect x="9" y="8" width="1" height="1" fill="#919191"/>
<rect x="12" y="5" width="1" height="1" fill="#919191"/>
<rect x="13" y="4" width="1" height="1" fill="#919191"/>
<rect x="14" y="3" width="1" height="1" fill="#919191"/>
<rect x="4" y="6" width="1" height="1" fill="#919191"/>
<rect x="5" y="7" width="1" height="1" fill="#919191"/>
<rect x="6" y="8" width="1" height="1" fill="#919191"/>
<rect x="3" y="5" width="1" height="1" fill="#919191"/>
<rect x="2" y="4" width="1" height="1" fill="#919191"/>
<rect x="1" y="3" width="1" height="1" fill="#919191"/>
<rect x="1" y="11" width="1" height="1" fill="#919191"/>
<rect x="3" y="10" width="1" height="1" fill="#919191"/>
<rect x="4" y="9" width="1" height="1" fill="#919191"/>
<rect x="5" y="8" width="1" height="1" fill="#919191"/>
<rect x="2" y="11" width="1" height="1" fill="#919191"/>
<g clip-path="url(#clip1_1956_10833)">
<circle cx="4" cy="12" r="4" fill="#FCFCFC" fill-opacity="0.75"/>
<circle cx="4" cy="12" r="2.5" fill="url(#paint1_linear_1956_10833)" stroke="#00A1DB"/>
</g>
</g>
<defs>
<linearGradient id="paint0_linear_1956_10833" x1="8" y1="3" x2="8" y2="13" gradientUnits="userSpaceOnUse">
<stop stop-color="#F4F7F6"/>
<stop offset="1" stop-color="#D8D8D8"/>
</linearGradient>
<linearGradient id="paint1_linear_1956_10833" x1="5.83333" y1="9.83333" x2="2.33333" y2="14.3333" gradientUnits="userSpaceOnUse">
<stop stop-color="#94E1FC"/>
<stop offset="1" stop-color="#FCFCFC"/>
</linearGradient>
<clipPath id="clip0_1956_10833">
<rect width="16" height="16" fill="white"/>
</clipPath>
<clipPath id="clip1_1956_10833">
<rect width="8" height="8" fill="white" transform="translate(0 8)"/>
</clipPath>
</defs>
</svg>
