<svg width="16" height="16" viewBox="0 0 16 16" fill="none" xmlns="http://www.w3.org/2000/svg">
<g clip-path="url(#clip0_1956_10919)">
<rect y="2" width="16" height="12" fill="#FCFCFC" fill-opacity="0.75"/>
<rect x="1.5" y="3.5" width="13" height="9" fill="url(#paint0_linear_1956_10919)" stroke="#919191"/>
<rect x="7" y="9" width="2" height="1" fill="#919191"/>
<rect x="12" y="10" width="1" height="1" fill="#919191"/>
<rect x="11" y="9" width="1" height="1" fill="#919191"/>
<rect x="10" y="8" width="1" height="1" fill="#919191"/>
<rect x="13" y="11" width="1" height="1" fill="#919191"/>
<rect x="14" y="11" width="1" height="1" fill="#919191"/>
<rect x="11" y="6" width="1" height="1" fill="#919191"/>
<rect x="10" y="7" width="1" height="1" fill="#919191"/>
<rect x="9" y="8" width="1" height="1" fill="#919191"/>
<rect x="12" y="5" width="1" height="1" fill="#919191"/>
<rect x="13" y="4" width="1" height="1" fill="#919191"/>
<rect x="14" y="3" width="1" height="1" fill="#919191"/>
<rect x="4" y="6" width="1" height="1" fill="#919191"/>
<rect x="5" y="7" width="1" height="1" fill="#919191"/>
<rect x="6" y="8" width="1" height="1" fill="#919191"/>
<rect x="3" y="5" width="1" height="1" fill="#919191"/>
<rect x="2" y="4" width="1" height="1" fill="#919191"/>
<rect x="1" y="3" width="1" height="1" fill="#919191"/>
<rect x="1" y="11" width="1" height="1" fill="#919191"/>
<rect x="3" y="10" width="1" height="1" fill="#919191"/>
<rect x="4" y="9" width="1" height="1" fill="#919191"/>
<rect x="5" y="8" width="1" height="1" fill="#919191"/>
<rect x="2" y="11" width="1" height="1" fill="#919191"/>
<path d="M9 16L9 11L8 11L8 10L5 10L5 8L2 8L2 9L1 9L1 10L2.62268e-07 10L1.31134e-07 13L1 13L1 14L2 14L2 15L5 15L5 13L6 13L6 16L9 16Z" fill="#FCFCFC" fill-opacity="0.75"/>
<rect width="5" height="1" transform="matrix(4.37114e-08 -1 -1 -4.37114e-08 4 14)" fill="#219653"/>
<rect width="3" height="1" transform="matrix(4.37114e-08 -1 -1 -4.37114e-08 3 13)" fill="#219653"/>
<rect width="1" height="6" transform="matrix(4.37114e-08 -1 -1 -4.37114e-08 7 12)" fill="#219653"/>
<rect width="3" height="1" transform="matrix(4.37114e-08 -1 -1 -4.37114e-08 8 15)" fill="#219653"/>
</g>
<defs>
<linearGradient id="paint0_linear_1956_10919" x1="8" y1="3" x2="8" y2="13" gradientUnits="userSpaceOnUse">
<stop stop-color="#F4F7F6"/>
<stop offset="1" stop-color="#D8D8D8"/>
</linearGradient>
<clipPath id="clip0_1956_10919">
<rect width="16" height="16" fill="white"/>
</clipPath>
</defs>
</svg>
