<svg width="16" height="16" viewBox="0 0 16 16" fill="none" xmlns="http://www.w3.org/2000/svg">
<g clip-path="url(#clip0_1963_10799)">
<path d="M1 5L5 2H14V3H15V12H14V13H5L1 10V5Z" fill="#FCFCFC" fill-opacity="0.75"/>
<path d="M0.7 4.6L0.5 4.75V5V10V10.25L0.7 10.4L4.7 13.4L4.83333 13.5H5H14H14.5V13V12.5H15H15.5V12V3V2.5H15H14.5V2V1.5H14H5H4.83333L4.7 1.6L0.7 4.6Z" stroke="#FCFCFC" stroke-opacity="0.75"/>
<path d="M5.16667 2.5H13.5V3V3.5H14H14.5V11.5H14H13.5V12V12.5H5.16667L1.5 9.75V5.25L5.16667 2.5Z" fill="#FCFCFC" stroke="#919191"/>
<g clip-path="url(#clip1_1963_10799)">
<path d="M8 4H9V11H8V4Z" fill="#3A3A3A"/>
<path d="M7 9H10V10H7V9Z" fill="#3A3A3A"/>
<path fill-rule="evenodd" clip-rule="evenodd" d="M10 5H7V4H10C11.1046 4 12 4.89543 12 6C12 7.10457 11.1046 8 10 8H7V7H10C10.5523 7 11 6.55228 11 6C11 5.44772 10.5523 5 10 5Z" fill="#3A3A3A"/>
<path d="M7.5 3.5H7H6.5V4V5V5.5H7H7.5V6.5H7H6.5V7V8V8.5V9V10V10.5H7H7.5V11V11.5H8H9H9.5V11V10.5H10H10.5V10V9V8.5H10C11.3807 8.5 12.5 7.38071 12.5 6C12.5 4.61929 11.3807 3.5 10 3.5H9.5H9H8H7.5ZM9.5 6.5V5.5H10C10.2761 5.5 10.5 5.72386 10.5 6C10.5 6.27614 10.2761 6.5 10 6.5H9.5Z" stroke="#FCFCFC" stroke-opacity="0.75"/>
</g>
<rect x="4" y="7" width="1" height="1" fill="#919191"/>
</g>
<defs>
<clipPath id="clip0_1963_10799">
<rect width="16" height="16" fill="white"/>
</clipPath>
<clipPath id="clip1_1963_10799">
<rect width="7" height="9" fill="white" transform="translate(6 3)"/>
</clipPath>
</defs>
</svg>
