<svg width="8" height="8" viewBox="0 0 8 8" fill="none" xmlns="http://www.w3.org/2000/svg">
<g clip-path="url(#clip0_726_19956)">
<path fill-rule="evenodd" clip-rule="evenodd" d="M0 1C0 0.447716 0.447715 0 1 0H7C7.55228 0 8 0.447715 8 1V2.0469C8 3.8139 7.22112 5.49105 5.87109 6.63108L4.44101 7.83871C4.31766 7.94286 4.16144 8 4 8C3.83856 8 3.68234 7.94286 3.55899 7.8387L2.12891 6.63108C0.778877 5.49105 0 3.8139 0 2.0469V1ZM2 5C2 4.44772 2.44772 4 3 4H5C5.55228 4 6 4.44772 6 5H2ZM4 3C4.55228 3 5 2.55228 5 2C5 1.44772 4.55228 1 4 1C3.44772 1 3 1.44772 3 2C3 2.55228 3.44772 3 4 3Z" fill="#0C121C"/>
</g>
<defs>
<clipPath id="clip0_726_19956">
<rect width="8" height="8" fill="white"/>
</clipPath>
</defs>
</svg>
