<svg width="32" height="32" viewBox="0 0 32 32" fill="none" xmlns="http://www.w3.org/2000/svg">
<g clip-path="url(#clip0_2019_10712)">
<path d="M23 0H4V32H28V5L23 0Z" fill="#FCFCFC" fill-opacity="0.75"/>
<path d="M5.5 1.5H21.7929L26.5 6.20711V30.5H5.5V1.5Z" fill="url(#paint0_linear_2019_10712)" stroke="#3A3A3A"/>
<path d="M21 1H22V6H27V7H21V1Z" fill="#3A3A3A"/>
</g>
<g clip-path="url(#clip1_2019_10712)">
<path d="M1 31H4.58579C4.851 31 5.10536 30.8946 5.29289 30.7071L11.2929 24.7071C11.6834 24.3166 11.6834 23.6834 11.2929 23.2929L8.70711 20.7071C8.31658 20.3166 7.68342 20.3166 7.29289 20.7071L1.29289 26.7071C1.10536 26.8946 1 27.149 1 27.4142V31Z" fill="#FCFCFC" fill-opacity="0.75"/>
<path d="M0.5 31V31.5H1H4.58579C4.98361 31.5 5.36514 31.342 5.64645 31.0607L11.6464 25.0607C12.2322 24.4749 12.2322 23.5251 11.6464 22.9393L9.06066 20.3536C8.47487 19.7678 7.52513 19.7678 6.93934 20.3536L0.93934 26.3536C0.658035 26.6349 0.5 27.0164 0.5 27.4142V31Z" stroke="#FCFCFC" stroke-opacity="0.75"/>
<path d="M6.39528 25.6047L5.57206 23.135L7.64645 21.0607C7.84171 20.8654 8.15829 20.8654 8.35355 21.0607L10.9393 23.6464C11.1346 23.8417 11.1346 24.1583 10.9393 24.3536L8.86495 26.4279L6.39528 25.6047Z" fill="#FCFCFC" stroke="#3A3A3A"/>
<path d="M4.58579 30.5H1.5V27.4142C1.5 27.2816 1.55268 27.1544 1.64645 27.0607L3 25.7071L6.29289 29L4.93934 30.3536C4.84557 30.4473 4.71839 30.5 4.58579 30.5Z" fill="#FCFCFC" stroke="#919191"/>
<path d="M2.70711 26L6 22.7071L9.29289 26L6 29.2929L2.70711 26Z" fill="url(#paint1_linear_2019_10712)" stroke="#3A3A3A"/>
<path d="M1 28H2V30H4V31H1V28Z" fill="#00A1DB"/>
<rect x="1" y="30" width="1" height="1" fill="#919191"/>
</g>
<defs>
<linearGradient id="paint0_linear_2019_10712" x1="16" y1="1" x2="16" y2="31" gradientUnits="userSpaceOnUse">
<stop stop-color="#FCFCFC"/>
<stop offset="1" stop-color="#E6EAEA"/>
</linearGradient>
<linearGradient id="paint1_linear_2019_10712" x1="9.71429" y1="22" x2="3.73879" y2="31.1371" gradientUnits="userSpaceOnUse">
<stop stop-color="#94E1FC"/>
<stop offset="1" stop-color="#00A1DB"/>
</linearGradient>
<clipPath id="clip0_2019_10712">
<rect width="24" height="32" fill="white" transform="translate(4)"/>
</clipPath>
<clipPath id="clip1_2019_10712">
<rect width="13" height="13" fill="white" transform="translate(0 19)"/>
</clipPath>
</defs>
</svg>
