<svg width="32" height="32" viewBox="0 0 32 32" fill="none" xmlns="http://www.w3.org/2000/svg">
<path fill-rule="evenodd" clip-rule="evenodd" d="M10.5207 5.67472C7.20801 7.69536 5 11.3404 5 15.5002C5 21.0626 8.9502 25.7047 14.1989 26.7701L13.8011 28.7302C7.6386 27.4792 3 22.0325 3 15.5002C3 10.6144 5.59608 6.33589 9.47926 3.96729L10.5207 5.67472Z" fill="#00A1DB"/>
<path d="M10.7811 6.10158L11.208 5.84121L10.9476 5.41435L9.90612 3.70692L9.64575 3.28006L9.2189 3.54043C5.19314 5.99599 2.5 10.4329 2.5 15.5002C2.5 22.2751 7.31077 27.9229 13.7016 29.2202L14.1916 29.3196L14.2911 28.8296L14.6889 26.8696L14.7884 26.3796L14.2984 26.2801C9.27819 25.2611 5.5 20.8202 5.5 15.5002C5.5 11.5218 7.61105 8.0352 10.7811 6.10158Z" stroke="#FCFCFC" stroke-opacity="0.75"/>
<path d="M5 2H13V10L5 2Z" fill="#00A1DB"/>
<path d="M5 1.5H3.79289L4.64645 2.35355L12.6464 10.3536L13.5 11.2071V10V2V1.5H13H5Z" stroke="#FCFCFC" stroke-opacity="0.75"/>
<path fill-rule="evenodd" clip-rule="evenodd" d="M10.5207 5.67472C7.20801 7.69536 5 11.3404 5 15.5002C5 21.0626 8.9502 25.7047 14.1989 26.7701L13.8011 28.7302C7.6386 27.4792 3 22.0325 3 15.5002C3 10.6144 5.59608 6.33589 9.47926 3.96729L10.5207 5.67472Z" fill="#00A1DB"/>
<path fill-rule="evenodd" clip-rule="evenodd" d="M21.4793 25.3253C24.792 23.3046 27 19.6596 27 15.4998C27 9.93736 23.0498 5.2953 17.8011 4.22986L18.1989 2.26983C24.3614 3.52075 29 8.96745 29 15.4998C29 20.3856 26.4039 24.6641 22.5207 27.0327L21.4793 25.3253Z" fill="#00A1DB"/>
<path d="M21.2189 24.8984L20.792 25.1588L21.0524 25.5856L22.0939 27.2931L22.3542 27.7199L22.7811 27.4596C26.8069 25.004 29.5 20.5671 29.5 15.4998C29.5 8.7249 24.6892 3.0771 18.2984 1.77983L17.8084 1.68036L17.7089 2.17037L17.3111 4.13039L17.2116 4.6204L17.7016 4.71987C22.7218 5.73892 26.5 10.1798 26.5 15.4998C26.5 19.4782 24.389 22.9648 21.2189 24.8984Z" stroke="#FCFCFC" stroke-opacity="0.75"/>
<path d="M27 29H19V21L27 29Z" fill="#00A1DB"/>
<path d="M27 29.5H28.2071L27.3536 28.6464L19.3536 20.6464L18.5 19.7929V21V29V29.5H19H27Z" stroke="#FCFCFC" stroke-opacity="0.75"/>
<path fill-rule="evenodd" clip-rule="evenodd" d="M21.4793 25.3253C24.792 23.3046 27 19.6596 27 15.4998C27 9.93736 23.0498 5.2953 17.8011 4.22986L18.1989 2.26983C24.3614 3.52075 29 8.96745 29 15.4998C29 20.3856 26.4039 24.6641 22.5207 27.0327L21.4793 25.3253Z" fill="#00A1DB"/>
</svg>
