<svg width="32" height="32" viewBox="0 0 32 32" fill="none" xmlns="http://www.w3.org/2000/svg">
<g clip-path="url(#clip0_2029_11046)">
<path d="M5 5H15L19 9V25H5V5Z" fill="#FCFCFC" fill-opacity="0.75"/>
<path d="M5 4.5H4.5V5V25V25.5H5H19H19.5V25V9V8.79289L19.3536 8.64645L15.3536 4.64645L15.2071 4.5H15H5Z" stroke="#FCFCFC" stroke-opacity="0.75"/>
<path d="M5.5 5.5H14.7929L18.5 9.20711V24.5H5.5V5.5Z" fill="url(#paint0_linear_2029_11046)" stroke="#3A3A3A"/>
<path d="M14 5H15V9H19V10H14V5Z" fill="#3A3A3A"/>
</g>
<g clip-path="url(#clip1_2029_11046)">
<path d="M13 7H23L27 11V27H13V7Z" fill="#FCFCFC" fill-opacity="0.75"/>
<path d="M13 6.5H12.5V7V27V27.5H13H27H27.5V27V11V10.7929L27.3536 10.6464L23.3536 6.64645L23.2071 6.5H23H13Z" stroke="#FCFCFC" stroke-opacity="0.75"/>
<path d="M13.5 7.5H22.7929L26.5 11.2071V26.5H13.5V7.5Z" fill="url(#paint1_linear_2029_11046)" stroke="#3A3A3A"/>
<path d="M22 7H23V11H27V12H22V7Z" fill="#3A3A3A"/>
</g>
<defs>
<linearGradient id="paint0_linear_2029_11046" x1="12" y1="5" x2="12" y2="25" gradientUnits="userSpaceOnUse">
<stop stop-color="#FCFCFC"/>
<stop offset="1" stop-color="#E6EAEA"/>
</linearGradient>
<linearGradient id="paint1_linear_2029_11046" x1="20" y1="7" x2="20" y2="27" gradientUnits="userSpaceOnUse">
<stop stop-color="#FCFCFC"/>
<stop offset="1" stop-color="#E6EAEA"/>
</linearGradient>
<clipPath id="clip0_2029_11046">
<rect width="16" height="22" fill="white" transform="translate(4 4)"/>
</clipPath>
<clipPath id="clip1_2029_11046">
<rect width="16" height="22" fill="white" transform="translate(12 6)"/>
</clipPath>
</defs>
</svg>
