<svg width="32" height="32" viewBox="0 0 32 32" fill="none" xmlns="http://www.w3.org/2000/svg">
<g clip-path="url(#clip0_2030_11111)">
<path d="M6 4V3H8V1H16V3H18V4H22V28H2V4H6Z" fill="#FCFCFC" fill-opacity="0.75"/>
<path d="M10 3.6665H10.2667H11.0667H11.3333V4.99984H10V3.6665Z" fill="#919191"/>
<path d="M12.666 3.6665H12.9327H13.7327H13.9993V4.99984H12.666V3.6665Z" fill="#919191"/>
<rect x="3.5" y="5.5" width="17" height="21" fill="url(#paint0_linear_2030_11111)" stroke="#3A3A3A"/>
<path d="M9 2H15V4H17V6H7V4H9V2Z" fill="#FCFCFC"/>
<path d="M9 4.5H9.5V4V2.5H14.5V4V4.5H15H16.5V7.5H7.5V4.5H9Z" stroke="#3A3A3A"/>
<rect x="10" y="3" width="4" height="1" fill="#919191"/>
<rect x="8" y="6" width="8" height="1" fill="#919191"/>
</g>
<g clip-path="url(#clip1_2030_11111)">
<path d="M15 10H25L29 14V30H15V10Z" fill="#FCFCFC" fill-opacity="0.75"/>
<path d="M15 9.5H14.5V10V30V30.5H15H29H29.5V30V14V13.7929L29.3536 13.6464L25.3536 9.64645L25.2071 9.5H25H15Z" stroke="#FCFCFC" stroke-opacity="0.75"/>
<path d="M15.5 10.5H24.7929L28.5 14.2071V29.5H15.5V10.5Z" fill="url(#paint1_linear_2030_11111)" stroke="#3A3A3A"/>
<path d="M24 10H25V14H29V15H24V10Z" fill="#3A3A3A"/>
</g>
<defs>
<linearGradient id="paint0_linear_2030_11111" x1="20.3571" y1="5" x2="2.86111" y2="26.889" gradientUnits="userSpaceOnUse">
<stop stop-color="#94E1FC"/>
<stop offset="1" stop-color="#00A1DB"/>
</linearGradient>
<linearGradient id="paint1_linear_2030_11111" x1="22" y1="10" x2="22" y2="30" gradientUnits="userSpaceOnUse">
<stop stop-color="#FCFCFC"/>
<stop offset="1" stop-color="#E6EAEA"/>
</linearGradient>
<clipPath id="clip0_2030_11111">
<rect width="20" height="27" fill="white" transform="translate(2 1)"/>
</clipPath>
<clipPath id="clip1_2030_11111">
<rect width="16" height="22" fill="white" transform="translate(14 9)"/>
</clipPath>
</defs>
</svg>
