<svg width="32" height="32" viewBox="0 0 32 32" fill="none" xmlns="http://www.w3.org/2000/svg">
<g clip-path="url(#clip0_2031_11318)">
<path d="M23 1H28.0007C29.1052 1 30.0007 1.89543 30.0007 3V29C30.0007 30.1046 29.1052 31 28.0007 31H23V27H25.0007C25.5529 27 26.0007 26.5523 26.0007 26V6C26.0007 5.44772 25.5529 5 25.0007 5H23V1Z" fill="#FCFCFC" fill-opacity="0.75"/>
<path d="M23 0.5H22.5V1V5V5.5H23H25.0007C25.2768 5.5 25.5007 5.72386 25.5007 6V26C25.5007 26.2761 25.2768 26.5 25.0007 26.5H23H22.5V27V31V31.5H23H28.0007C29.3814 31.5 30.5007 30.3807 30.5007 29V3C30.5007 1.61929 29.3814 0.5 28.0007 0.5H23Z" stroke="#FCFCFC" stroke-opacity="0.75"/>
<path d="M23.5 1.5H28.0007C28.8291 1.5 29.5007 2.17157 29.5007 3V29C29.5007 29.8284 28.8291 30.5 28.0007 30.5H23.5V27.5H25.0007C25.8291 27.5 26.5007 26.8284 26.5007 26V6C26.5007 5.17157 25.8291 4.5 25.0007 4.5H23.5V1.5Z" fill="url(#paint0_linear_2031_11318)" stroke="#919191"/>
</g>
<g clip-path="url(#clip1_2031_11318)">
<path d="M2 15C2 14.4477 2.44772 14 3 14H12V10.8217C12 10.0326 12.8712 9.55437 13.5369 9.97801L21.6742 15.1563C22.2917 15.5493 22.2917 16.4507 21.6742 16.8437L13.5369 22.022C12.8712 22.4456 12 21.9674 12 21.1783V18H3C2.44772 18 2 17.5523 2 17V15Z" fill="url(#paint1_linear_2031_11318)"/>
<path d="M3 13.5C2.17157 13.5 1.5 14.1716 1.5 15V17C1.5 17.8284 2.17157 18.5 3 18.5H11.5V21.1783C11.5 22.362 12.8067 23.0793 13.8053 22.4438L21.9427 17.2655C22.8689 16.6761 22.8689 15.3239 21.9427 14.7345L13.8053 9.55618C12.8067 8.92072 11.5 9.63804 11.5 10.8217V13.5H3Z" stroke="#FCFCFC" stroke-opacity="0.75"/>
<path d="M12 14.5H12.5V14V10.8217C12.5 10.4271 12.9356 10.188 13.2684 10.3998L21.4058 15.5782C21.7146 15.7746 21.7146 16.2254 21.4058 16.4218L13.2684 21.6002C12.9356 21.812 12.5 21.5729 12.5 21.1783V18V17.5H12H3C2.72386 17.5 2.5 17.2761 2.5 17V15C2.5 14.7239 2.72386 14.5 3 14.5H12Z" fill="url(#paint2_linear_2031_11318)" stroke="#919191"/>
</g>
<defs>
<linearGradient id="paint0_linear_2031_11318" x1="30.0007" y1="17.3636" x2="23" y2="17.3636" gradientUnits="userSpaceOnUse">
<stop stop-color="#D8D8D8"/>
<stop offset="1" stop-color="#F4F7F6"/>
</linearGradient>
<linearGradient id="paint1_linear_2031_11318" x1="23" y1="16.6364" x2="2" y2="16.6364" gradientUnits="userSpaceOnUse">
<stop stop-color="#F4F7F6"/>
<stop offset="1" stop-color="#D8D8D8"/>
</linearGradient>
<linearGradient id="paint2_linear_2031_11318" x1="23" y1="16.6364" x2="2" y2="16.6364" gradientUnits="userSpaceOnUse">
<stop stop-color="#F4F7F6"/>
<stop offset="1" stop-color="#D8D8D8"/>
</linearGradient>
<clipPath id="clip0_2031_11318">
<rect width="9" height="32" fill="white" transform="translate(22)"/>
</clipPath>
<clipPath id="clip1_2031_11318">
<rect width="23" height="16" fill="white" transform="translate(1 8)"/>
</clipPath>
</defs>
</svg>
