<svg width="32" height="32" viewBox="0 0 32 32" fill="none" xmlns="http://www.w3.org/2000/svg">
<g clip-path="url(#clip0_2032_11495)">
<path d="M30 16C30 17.7728 24.1687 26 16 26C7.83128 26 2 17.7728 2 16C2 14.2272 7.83128 6 16 6C24.1687 6 30 14.2272 30 16Z" fill="#FCFCFC" fill-opacity="0.75"/>
<path d="M16 26.5C20.2545 26.5 23.8698 24.3599 26.4016 22.0329C27.6706 20.8666 28.6814 19.641 29.3784 18.586C29.7267 18.0589 30.0011 17.5676 30.1904 17.1418C30.3727 16.7316 30.5 16.3301 30.5 16C30.5 15.6699 30.3727 15.2684 30.1904 14.8582C30.0011 14.4324 29.7267 13.9411 29.3784 13.414C28.6814 12.359 27.6706 11.1334 26.4016 9.96705C23.8698 7.64006 20.2545 5.5 16 5.5C11.7455 5.5 8.13017 7.64006 5.59838 9.96705C4.32937 11.1334 3.31862 12.359 2.6216 13.414C2.2733 13.9411 1.99889 14.4324 1.80962 14.8582C1.62733 15.2684 1.5 15.6699 1.5 16C1.5 16.3301 1.62733 16.7316 1.80962 17.1418C1.99889 17.5676 2.2733 18.0589 2.6216 18.586C3.31862 19.641 4.32937 20.8666 5.59838 22.0329C8.13017 24.3599 11.7455 26.5 16 26.5Z" stroke="#FCFCFC" stroke-opacity="0.75"/>
<path d="M29.5 16C29.5 16.1131 29.4451 16.3565 29.2766 16.7356C29.115 17.099 28.8701 17.5414 28.5441 18.0348C27.8924 19.021 26.9348 20.1847 25.7249 21.2967C23.2989 23.5265 19.9142 25.5 16 25.5C12.0858 25.5 8.70111 23.5265 6.27508 21.2967C5.06518 20.1847 4.10756 19.021 3.45594 18.0348C3.12993 17.5414 2.88495 17.099 2.72342 16.7356C2.5549 16.3565 2.5 16.1131 2.5 16C2.5 15.8869 2.5549 15.6435 2.72342 15.2644C2.88495 14.901 3.12993 14.4586 3.45594 13.9652C4.10756 12.979 5.06518 11.8153 6.27508 10.7033C8.70111 8.47352 12.0858 6.5 16 6.5C19.9142 6.5 23.2989 8.47352 25.7249 10.7033C26.9348 11.8153 27.8924 12.979 28.5441 13.9652C28.8701 14.4586 29.115 14.901 29.2766 15.2644C29.4451 15.6435 29.5 15.8869 29.5 16Z" fill="#D8D8D8" stroke="#919191"/>
<circle cx="16" cy="16" r="6" fill="#3A3A3A"/>
<circle cx="14.5" cy="14.5" r="1.5" fill="#D8D8D8"/>
</g>
<defs>
<clipPath id="clip0_2032_11495">
<rect width="30" height="22" fill="white" transform="translate(1 5)"/>
</clipPath>
</defs>
</svg>
