<svg width="32" height="32" viewBox="0 0 32 32" fill="none" xmlns="http://www.w3.org/2000/svg">
<g clip-path="url(#clip0_2032_11526)">
<path d="M30.5 3.99998C28.6659 2.95304 23.1917 6.06432 18.9995 10.9999C14.7548 15.8856 13.4995 17.5 13.4995 17.5C13.4995 17.5 8.29993 12.6362 4.99854 11.0409C2.32597 9.79453 -0.500164 13.4283 1.99867 16C4.56642 18.6423 10.8553 25 13.9995 25C17.1437 25 19.2264 18.9355 22.9995 14C27.1917 8.36643 32.5 5.5 30.5 3.99998Z" fill="#FCFCFC" fill-opacity="0.75"/>
<path d="M30.8 3.59998L30.775 3.58123L30.7479 3.56574C30.1143 3.20411 29.2645 3.24324 28.3908 3.47464C27.4944 3.71204 26.4632 4.1806 25.3782 4.82693C23.206 6.12083 20.7486 8.16872 18.6202 10.6741C16.4971 13.1178 15.1203 14.745 14.2734 15.7622C13.9001 16.2106 13.6297 16.5406 13.4437 16.7699C13.3131 16.6512 13.1532 16.5069 12.9683 16.342C12.4259 15.8581 11.6679 15.196 10.8055 14.4833C9.09343 13.0683 6.92696 11.4174 5.21608 10.5907L5.2161 10.5907L5.20986 10.5877C3.60524 9.83942 1.98104 10.5757 1.14548 11.8081C0.295054 13.0624 0.212272 14.879 1.64007 16.3485L1.64009 16.3485C2.92463 17.6703 5.15406 19.9363 7.46137 21.8738C8.61443 22.842 9.7988 23.7383 10.9034 24.3951C11.9903 25.0413 13.0714 25.5 13.9995 25.5C14.9596 25.5 15.7952 25.0339 16.5415 24.342C17.2851 23.6525 17.9855 22.6971 18.683 21.6232C19.1594 20.8895 19.6356 20.1006 20.1288 19.2835C21.1064 17.6638 22.1508 15.9334 23.3967 14.3036L23.3967 14.3036L23.4006 14.2985C25.0553 12.0749 26.8796 10.2957 28.3752 8.83716C28.7486 8.47298 29.1015 8.12879 29.4262 7.80266C30.2181 7.00721 30.8854 6.27744 31.2092 5.62546C31.3752 5.29113 31.4787 4.92405 31.4173 4.54863C31.3536 4.15869 31.1266 3.8449 30.8 3.59998Z" stroke="#FCFCFC" stroke-opacity="0.75"/>
<path d="M13.4995 17.5L13.1579 17.8652L13.5579 18.2394L13.8941 17.807L13.8941 17.807L13.8942 17.8069L13.8942 17.8069L13.8947 17.8063L13.8971 17.8032L13.9077 17.7897L13.9533 17.732C13.995 17.6795 14.0597 17.5985 14.1508 17.4857C14.3331 17.2601 14.6211 16.9075 15.042 16.402C15.8837 15.3909 17.2564 13.7686 19.3769 11.3278L19.3769 11.3278L19.3805 11.3236C21.4439 8.89433 23.819 6.9196 25.8899 5.68606C26.9267 5.0685 27.8699 4.64706 28.6468 4.44131C29.4222 4.23595 29.9369 4.27003 30.2258 4.4199C30.378 4.54071 30.4187 4.6379 30.4304 4.70992C30.4452 4.80038 30.4294 4.94734 30.3135 5.1807C30.0735 5.66411 29.5267 6.2843 28.7175 7.09714C28.4078 7.40819 28.0658 7.74161 27.7 8.09825C26.2029 9.5577 24.3071 11.4058 22.6003 13.6989C21.3242 15.3686 20.2239 17.1902 19.2297 18.8361C18.7454 19.6379 18.2863 20.398 17.8443 21.0785C17.1565 22.1376 16.5108 23.0068 15.8616 23.6087C15.2152 24.208 14.6115 24.5 13.9995 24.5C13.3554 24.5 12.4714 24.164 11.4145 23.5356C10.3754 22.9177 9.23757 22.0595 8.10443 21.108C5.83933 19.206 3.64047 16.972 2.35724 15.6516C1.28623 14.5493 1.36711 13.2632 1.97318 12.3693C2.59353 11.4543 3.71716 10.9969 4.7842 11.4926C6.37432 12.2618 8.45665 13.8393 10.1685 15.2541C11.0187 15.9568 11.7669 16.6103 12.3026 17.0882C12.5703 17.3271 12.7847 17.5218 12.9319 17.6566C13.0055 17.724 13.0623 17.7764 13.1005 17.8119L13.1438 17.852L13.1546 17.862L13.1572 17.8645L13.1578 17.865L13.1579 17.8652L13.4995 17.5Z" fill="url(#paint0_linear_2032_11526)" stroke="#919191"/>
<g clip-path="url(#clip1_2032_11526)">
<g clip-path="url(#clip2_2032_11526)">
<path d="M10.7418 29.0355L10.0347 29.7426L6.49917 26.2071L2.96364 29.7426L2.25653 29.0355L5.79207 25.5L2.25653 21.9645L2.96364 21.2574L6.49917 24.7929L10.0347 21.2574L10.7418 21.9645L7.20628 25.5L10.7418 29.0355Z" fill="#EA212D"/>
<path d="M11.0954 29.3891L11.4489 29.0355L11.0954 28.682L7.91339 25.5L11.0954 22.318L11.4489 21.9645L11.0954 21.6109L10.3883 20.9038L10.0347 20.5503L9.68115 20.9038L6.49917 24.0858L3.31719 20.9038L2.96364 20.5502L2.61009 20.9038L1.90298 21.6109L1.54942 21.9645L1.90298 22.318L5.08496 25.5L1.90298 28.682L1.54942 29.0355L1.90298 29.3891L2.61008 30.0962L2.96364 30.4497L3.31719 30.0962L6.49917 26.9142L9.68115 30.0962L10.0347 30.4497L10.3883 30.0962L11.0954 29.3891Z" stroke="#FCFCFC" stroke-opacity="0.75"/>
</g>
</g>
</g>
<defs>
<linearGradient id="paint0_linear_2032_11526" x1="15.9832" y1="3.79736" x2="15.9832" y2="25" gradientUnits="userSpaceOnUse">
<stop stop-color="#F4F7F6"/>
<stop offset="1" stop-color="#D8D8D8"/>
</linearGradient>
<clipPath id="clip0_2032_11526">
<rect width="32" height="32" fill="white"/>
</clipPath>
<clipPath id="clip1_2032_11526">
<rect width="13" height="13" fill="white" transform="translate(0 19)"/>
</clipPath>
<clipPath id="clip2_2032_11526">
<rect width="13" height="13" fill="white" transform="translate(6.5 16.3076) rotate(45)"/>
</clipPath>
</defs>
</svg>
