<svg width="32" height="32" viewBox="0 0 32 32" fill="none" xmlns="http://www.w3.org/2000/svg">
<g clip-path="url(#clip0_2032_11650)">
<path d="M9.33333 3H2.66667C1.19391 3 0 4.19391 0 5.66667V25C0 27.2091 1.79086 29 4 29H24.8464C26.696 29 28.3043 27.732 28.736 25.9335L32 12.3333C32 10.1242 30.2091 8.33333 28 8.33333C28 6.86057 26.8061 5.66667 25.3333 5.66667H12C12 4.19391 10.8061 3 9.33333 3Z" fill="#FCFCFC" fill-opacity="0.75"/>
<path d="M8 4H4C2.34315 4 1 5.34315 1 7V24C1 26.2091 2.79086 28 5 28H23.9269C25.7391 28 27.3249 26.7817 27.7918 25.0306L30.8806 13.4478C30.9599 13.1505 31 12.8442 31 12.5366C31 10.5834 29.4166 9 27.4634 9H27C27 7.89552 26.1046 7.00016 25.0002 7.00016H11C11 5.34331 9.65685 4 8 4Z" fill="#F2994A"/>
<path d="M4.48399 13.3589C4.78526 11.9817 6.00487 11 7.41469 11H26.5399C28.5278 11 29.966 12.8985 29.4278 14.8122L26.6153 24.8122C26.2514 26.1061 25.0714 27 23.7274 27H5.22719C3.31202 27 1.88722 25.2298 2.29649 23.3589L4.48399 13.3589Z" fill="url(#paint0_radial_2032_11650)"/>
</g>
<g clip-path="url(#clip1_2032_11650)">
<path d="M1 31H4.58579C4.851 31 5.10536 30.8946 5.29289 30.7071L11.2929 24.7071C11.6834 24.3166 11.6834 23.6834 11.2929 23.2929L8.70711 20.7071C8.31658 20.3166 7.68342 20.3166 7.29289 20.7071L1.29289 26.7071C1.10536 26.8946 1 27.149 1 27.4142V31Z" fill="#FCFCFC" fill-opacity="0.75"/>
<path d="M0.5 31V31.5H1H4.58579C4.98361 31.5 5.36514 31.342 5.64645 31.0607L11.6464 25.0607C12.2322 24.4749 12.2322 23.5251 11.6464 22.9393L9.06066 20.3536C8.47487 19.7678 7.52513 19.7678 6.93934 20.3536L0.93934 26.3536C0.658035 26.6349 0.5 27.0164 0.5 27.4142V31Z" stroke="#FCFCFC" stroke-opacity="0.75"/>
<path d="M6.39528 25.6047L5.57206 23.135L7.64645 21.0607C7.84171 20.8654 8.15829 20.8654 8.35355 21.0607L10.9393 23.6464C11.1346 23.8417 11.1346 24.1583 10.9393 24.3536L8.86495 26.4279L6.39528 25.6047Z" fill="#FCFCFC" stroke="#3A3A3A"/>
<path d="M4.58579 30.5H1.5V27.4142C1.5 27.2816 1.55268 27.1544 1.64645 27.0607L3 25.7071L6.29289 29L4.93934 30.3536C4.84557 30.4473 4.71839 30.5 4.58579 30.5Z" fill="#FCFCFC" stroke="#919191"/>
<path d="M2.70711 26L6 22.7071L9.29289 26L6 29.2929L2.70711 26Z" fill="url(#paint1_linear_2032_11650)" stroke="#3A3A3A"/>
<path d="M1 28H2V30H4V31H1V28Z" fill="#00A1DB"/>
<rect x="1" y="30" width="1" height="1" fill="#919191"/>
</g>
<defs>
<radialGradient id="paint0_radial_2032_11650" cx="0" cy="0" r="1" gradientUnits="userSpaceOnUse" gradientTransform="translate(14.7391 27) rotate(-84.6793) scale(20.3956 27.9941)">
<stop stop-color="#FCFCFC"/>
<stop offset="1" stop-color="#F2C94C"/>
</radialGradient>
<linearGradient id="paint1_linear_2032_11650" x1="9.71429" y1="22" x2="3.73879" y2="31.1371" gradientUnits="userSpaceOnUse">
<stop stop-color="#94E1FC"/>
<stop offset="1" stop-color="#00A1DB"/>
</linearGradient>
<clipPath id="clip0_2032_11650">
<rect width="32" height="26" fill="white" transform="translate(0 3)"/>
</clipPath>
<clipPath id="clip1_2032_11650">
<rect width="13" height="13" fill="white" transform="translate(0 19)"/>
</clipPath>
</defs>
</svg>
