<svg width="32" height="32" viewBox="0 0 32 32" fill="none" xmlns="http://www.w3.org/2000/svg">
<g clip-path="url(#clip0_2036_10972)">
<path d="M23 0H4V32H28V5L23 0Z" fill="#FCFCFC" fill-opacity="0.75"/>
<path d="M5.5 1.5H21.7929L26.5 6.20711V30.5H5.5V1.5Z" fill="url(#paint0_linear_2036_10972)" stroke="#3A3A3A"/>
<path d="M21 1H22V6H27V7H21V1Z" fill="#3A3A3A"/>
</g>
<rect x="16" y="13" width="7" height="1" fill="#D8D8D8"/>
<rect x="16" y="14" width="7" height="1" fill="#FCFCFC"/>
<rect x="16" y="9" width="7" height="1" fill="#D8D8D8"/>
<rect x="16" y="10" width="7" height="1" fill="#FCFCFC"/>
<rect x="9" y="9" width="7" height="1" fill="#D8D8D8"/>
<rect x="9" y="10" width="7" height="1" fill="#FCFCFC"/>
<rect x="9" y="5" width="7" height="1" fill="#D8D8D8"/>
<rect x="9" y="6" width="7" height="1" fill="#FCFCFC"/>
<rect x="9" y="13" width="7" height="1" fill="#D8D8D8"/>
<rect x="9" y="14" width="7" height="1" fill="#FCFCFC"/>
<rect x="16" y="25" width="7" height="1" fill="#D8D8D8"/>
<rect x="16" y="26" width="7" height="1" fill="#FCFCFC"/>
<rect x="9" y="17" width="7" height="1" fill="#D8D8D8"/>
<rect x="9" y="18" width="7" height="1" fill="#FCFCFC"/>
<rect x="16" y="17" width="7" height="1" fill="#D8D8D8"/>
<rect x="16" y="18" width="7" height="1" fill="#FCFCFC"/>
<rect x="16" y="21" width="7" height="1" fill="#D8D8D8"/>
<rect x="16" y="22" width="7" height="1" fill="#FCFCFC"/>
<g clip-path="url(#clip1_2036_10972)">
<path d="M1 20H2.5L3.25 28.5L6 22H7L9.75 28.5L10.5 20H12L11 31H9.5L6.5 25L3.5 31H2L1 20Z" fill="#00A1DB"/>
<path d="M1 19.5H0.452484L0.502053 20.0453L1.50205 31.0453L1.54339 31.5H2H3.5H3.80902L3.94721 31.2236L6.5 26.118L9.05279 31.2236L9.19098 31.5H9.5H11H11.4566L11.4979 31.0453L12.4979 20.0453L12.5475 19.5H12H10.5H10.0422L10.0019 19.9561L9.42836 26.4565L7.46048 21.8052L7.33137 21.5H7H6H5.66863L5.53952 21.8052L3.57164 26.4565L2.99806 19.9561L2.95782 19.5H2.5H1Z" stroke="#FCFCFC" stroke-opacity="0.75"/>
</g>
<defs>
<linearGradient id="paint0_linear_2036_10972" x1="16" y1="1" x2="16" y2="31" gradientUnits="userSpaceOnUse">
<stop stop-color="#FCFCFC"/>
<stop offset="1" stop-color="#E6EAEA"/>
</linearGradient>
<clipPath id="clip0_2036_10972">
<rect width="24" height="32" fill="white" transform="translate(4)"/>
</clipPath>
<clipPath id="clip1_2036_10972">
<rect width="13" height="13" fill="white" transform="translate(0 19)"/>
</clipPath>
</defs>
</svg>
