<svg width="32" height="32" viewBox="0 0 32 32" fill="none" xmlns="http://www.w3.org/2000/svg">
<g clip-path="url(#clip0_2036_11233)">
<path d="M1 2H31V8H29V5H27V8H25V5H23V8H21V5H19V8H17V5H15V8H13V5H11V8H9V5H7V8H5V5H3V8H1V2Z" fill="#3A3A3A"/>
<path d="M1 1.5H0.5V2V8V8.5H1H3H3.5V8V5.5H4.5V8V8.5H5H7H7.5V8V5.5H8.5V8V8.5H9H11H11.5V8V5.5H12.5V8V8.5H13H15H15.5V8V5.5H16.5V8V8.5H17H19H19.5V8V5.5H20.5V8V8.5H21H23H23.5V8V5.5H24.5V8V8.5H25H27H27.5V8V5.5H28.5V8V8.5H29H31H31.5V8V2V1.5H31H1Z" stroke="#FCFCFC" stroke-opacity="0.75"/>
</g>
<g clip-path="url(#clip1_2036_11233)">
<path d="M1 30H31V24H29V27H27V24H25V27H23V24H21V27H19V24H17V27H15V24H13V27H11V24H9V27H7V24H5V27H3V24H1V30Z" fill="#3A3A3A"/>
<path d="M1 30.5H0.5V30V24V23.5H1H3H3.5V24V26.5H4.5V24V23.5H5H7H7.5V24V26.5H8.5V24V23.5H9H11H11.5V24V26.5H12.5V24V23.5H13H15H15.5V24V26.5H16.5V24V23.5H17H19H19.5V24V26.5H20.5V24V23.5H21H23H23.5V24V26.5H24.5V24V23.5H25H27H27.5V24V26.5H28.5V24V23.5H29H31H31.5V24V30V30.5H31H1Z" stroke="#FCFCFC" stroke-opacity="0.75"/>
</g>
<path fill-rule="evenodd" clip-rule="evenodd" d="M3 23L17 9H29L15 23H3Z" fill="#FCFCFC" fill-opacity="0.75"/>
<path fill-rule="evenodd" clip-rule="evenodd" d="M5 23L19 9H27L13 23H5Z" fill="#919191"/>
<defs>
<clipPath id="clip0_2036_11233">
<rect width="32" height="8" fill="white" transform="translate(0 1)"/>
</clipPath>
<clipPath id="clip1_2036_11233">
<rect width="32" height="8" fill="white" transform="matrix(1 0 0 -1 0 31)"/>
</clipPath>
</defs>
</svg>
