<svg width="32" height="32" viewBox="0 0 32 32" fill="none" xmlns="http://www.w3.org/2000/svg">
<g clip-path="url(#clip0_2045_12292)">
<path d="M9.33333 3H2.66667C1.19391 3 0 4.19391 0 5.66667V25C0 27.2091 1.79086 29 4 29H24.8464C26.696 29 28.3043 27.732 28.736 25.9335L32 12.3333C32 10.1242 30.2091 8.33333 28 8.33333C28 6.86057 26.8061 5.66667 25.3333 5.66667H12C12 4.19391 10.8061 3 9.33333 3Z" fill="#FCFCFC" fill-opacity="0.75"/>
<path d="M8 4H4C2.34315 4 1 5.34315 1 7V24C1 26.2091 2.79086 28 5 28H23.9269C25.7391 28 27.3249 26.7817 27.7918 25.0306L30.8806 13.4478C30.9599 13.1505 31 12.8442 31 12.5366C31 10.5834 29.4166 9 27.4634 9H27C27 7.89552 26.1046 7.00016 25.0002 7.00016H11C11 5.34331 9.65685 4 8 4Z" fill="#F2994A"/>
<path d="M4.48399 13.3589C4.78526 11.9817 6.00487 11 7.41469 11H26.5399C28.5278 11 29.966 12.8985 29.4278 14.8122L26.6153 24.8122C26.2514 26.1061 25.0714 27 23.7274 27H5.22719C3.31202 27 1.88722 25.2298 2.29649 23.3589L4.48399 13.3589Z" fill="url(#paint0_radial_2045_12292)"/>
</g>
<path fill-rule="evenodd" clip-rule="evenodd" d="M10.0625 29.2188C10.2805 29.0492 10.3197 28.7351 10.1502 28.5171L8.60903 26.7543C7.74812 25.6474 6.42438 25 5.0221 25C3.5918 25 2.24497 25.6734 1.38679 26.8177L1.10003 27.2C0.934344 27.4209 0.979116 27.7343 1.20003 27.9C1.42094 28.0657 1.73434 28.0209 1.90003 27.8L2.18679 27.4177C2.85611 26.5252 3.90656 26 5.0221 26C6.11579 26 7.14822 26.5049 7.81968 27.3683L9.36085 29.131C9.53039 29.349 9.84453 29.3883 10.0625 29.2188Z" fill="#00A1DB"/>
<path d="M7 31H12L12 26L7 31Z" fill="#00A1DB"/>
<path d="M8.99466 26.4357L9.86344 27.4295L11.6464 25.6464L12.5 24.7929L12.5 26L12.5 31L12.5 31.5H12H7H5.79289L6.64645 30.6464L8.44722 28.8457L7.44326 27.6973L7.43382 27.6865L7.42501 27.6752C6.84827 26.9337 5.9615 26.5 5.0221 26.5C4.06394 26.5 3.16169 26.9511 2.58679 27.7177L2.30003 28.1C1.96866 28.5418 1.34186 28.6314 0.90003 28.3L1.16304 27.9493L0.900029 28.3C0.458202 27.9686 0.368658 27.3418 0.700029 26.9L0.986785 26.5177L1.38679 26.8177L0.986785 26.5177C1.93939 25.2475 3.43442 24.5 5.0221 24.5C6.57377 24.5 8.0388 25.2141 8.99466 26.4357Z" stroke="#FCFCFC" stroke-opacity="0.75"/>
<defs>
<radialGradient id="paint0_radial_2045_12292" cx="0" cy="0" r="1" gradientUnits="userSpaceOnUse" gradientTransform="translate(14.7391 27) rotate(-84.6793) scale(20.3956 27.9941)">
<stop stop-color="#FCFCFC"/>
<stop offset="1" stop-color="#F2C94C"/>
</radialGradient>
<clipPath id="clip0_2045_12292">
<rect width="32" height="26" fill="white" transform="translate(0 3)"/>
</clipPath>
</defs>
</svg>
