<svg width="32" height="32" viewBox="0 0 32 32" fill="none" xmlns="http://www.w3.org/2000/svg">
<g clip-path="url(#clip0_2046_12351)">
<path d="M4 4C4 3.44772 4.44772 3 5 3H27C27.5523 3 28 3.44772 28 4V4.32783C28 6.02874 27.2781 7.64974 26.0138 8.78759L18.6621 15.4041C18.2406 15.7834 18 16.3238 18 16.8907V23.2323C18 24.3925 17.7116 25.5346 17.1607 26.5558L16.1254 28.4748C15.9509 28.7983 15.6129 29 15.2453 29H15C14.4477 29 14 28.5523 14 28V16.8907C14 16.3238 13.7594 15.7834 13.3379 15.4041L5.98621 8.78759C4.72193 7.64974 4 6.02874 4 4.32783V4Z" fill="#FCFCFC" fill-opacity="0.75"/>
<path d="M5 2.5C4.17157 2.5 3.5 3.17157 3.5 4V4.32783C3.5 6.17049 4.28209 7.92656 5.65173 9.15924L13.0034 15.7758C13.3195 16.0602 13.5 16.4655 13.5 16.8907V28C13.5 28.8284 14.1716 29.5 15 29.5H15.2453C15.7967 29.5 16.3037 29.1975 16.5655 28.7122L17.6007 26.7932C18.191 25.6991 18.5 24.4754 18.5 23.2323V16.8907C18.5 16.4655 18.6805 16.0602 18.9966 15.7758L26.3483 9.15924C27.7179 7.92656 28.5 6.17049 28.5 4.32783V4C28.5 3.17157 27.8284 2.5 27 2.5H5Z" stroke="#FCFCFC" stroke-opacity="0.75"/>
<path d="M4.5 4C4.5 3.72386 4.72386 3.5 5 3.5H27C27.2761 3.5 27.5 3.72386 27.5 4V4.32783C27.5 5.887 26.8382 7.37291 25.6793 8.41594L18.3276 15.0325C17.8008 15.5066 17.5 16.182 17.5 16.8907V23.2323C17.5 24.3097 17.2322 25.3702 16.7206 26.3184L15.6854 28.2374C15.5981 28.3992 15.4291 28.5 15.2453 28.5H15C14.7239 28.5 14.5 28.2761 14.5 28V16.8907C14.5 16.182 14.1992 15.5066 13.6724 15.0325L6.3207 8.41595C5.16177 7.37291 4.5 5.887 4.5 4.32783V4Z" fill="url(#paint0_linear_2046_12351)" stroke="#919191"/>
<mask id="path-4-outside-1_2046_12351" maskUnits="userSpaceOnUse" x="0" y="19" width="12" height="13" fill="black">
<rect fill="white" y="19" width="12" height="13"/>
<path d="M4 20H9L5 24H8L1 31L3.35855 26.2829C3.65325 25.6935 3.22465 25 2.56567 25C1.87662 25 1.45102 24.2483 1.80553 23.6575L4 20Z"/>
</mask>
<path d="M4 20H9L5 24H8L1 31L3.35855 26.2829C3.65325 25.6935 3.22465 25 2.56567 25C1.87662 25 1.45102 24.2483 1.80553 23.6575L4 20Z" fill="#00A1DB"/>
<path d="M4 20V19H3.43381L3.14251 19.4855L4 20ZM9 20L9.70711 20.7071L11.4142 19H9V20ZM5 24L4.29289 23.2929L2.58579 25H5V24ZM8 24L8.70711 24.7071L10.4142 23H8V24ZM1 31L0.105573 30.5528C-0.113766 30.9915 0.0174114 31.5245 0.41529 31.8112C0.813168 32.098 1.3603 32.0539 1.70711 31.7071L1 31ZM4 21H9V19H4V21ZM2.66302 24.1719L4.85749 20.5145L3.14251 19.4855L0.948036 23.143L2.66302 24.1719ZM8.29289 19.2929L4.29289 23.2929L5.70711 24.7071L9.70711 20.7071L8.29289 19.2929ZM5 25H8V23H5V25ZM1.89443 31.4472L4.25297 26.7301L2.46412 25.8357L0.105573 30.5528L1.89443 31.4472ZM7.29289 23.2929L0.292893 30.2929L1.70711 31.7071L8.70711 24.7071L7.29289 23.2929ZM2.56567 26C2.48127 26 2.42638 25.9112 2.46412 25.8357L4.25297 26.7301C4.88013 25.4758 3.96803 24 2.56567 24V26ZM0.948036 23.143C0.193611 24.4003 1.09933 26 2.56567 26V24C2.57964 24 2.60293 24.0049 2.62538 24.0186C2.64511 24.0305 2.65726 24.0449 2.66447 24.0576C2.67167 24.0703 2.67771 24.0881 2.67783 24.1112C2.67797 24.1375 2.67021 24.16 2.66302 24.1719L0.948036 23.143Z" fill="#FCFCFC" fill-opacity="0.75" mask="url(#path-4-outside-1_2046_12351)"/>
</g>
<defs>
<linearGradient id="paint0_linear_2046_12351" x1="28" y1="17.1818" x2="4" y2="17.1818" gradientUnits="userSpaceOnUse">
<stop stop-color="#F4F7F6"/>
<stop offset="1" stop-color="#D8D8D8"/>
</linearGradient>
<clipPath id="clip0_2046_12351">
<rect width="32" height="32" fill="white"/>
</clipPath>
</defs>
</svg>
