<svg width="32" height="32" viewBox="0 0 32 32" fill="none" xmlns="http://www.w3.org/2000/svg">
<g clip-path="url(#clip0_2048_12490)">
<mask id="path-1-outside-1_2048_12490" maskUnits="userSpaceOnUse" x="0" y="0" width="32" height="32" fill="black">
<rect fill="white" width="32" height="32"/>
<path fill-rule="evenodd" clip-rule="evenodd" d="M13 1H19V6.45763C19.5652 6.63511 20.1088 6.86141 20.6258 7.1316L24.4853 3.27208L28.7279 7.51472L24.8686 11.3741C25.1388 11.8911 25.3652 12.4347 25.5428 13H31V19H25.5428C25.3652 19.5653 25.1388 20.1089 24.8686 20.6259L28.7279 24.4853L24.4853 28.7279L20.6258 24.8684C20.1089 25.1385 19.5655 25.3647 19.0006 25.5422V31H13.0006V25.5422C12.4353 25.3647 11.8917 25.1383 11.3746 24.868L7.51472 28.7279L3.27208 24.4853L7.13216 20.6252C6.86206 20.1084 6.63581 19.565 6.45836 19H1V13L6.45836 13C6.63581 12.435 6.86206 11.8916 7.13216 11.3748L3.27208 7.51472L7.51472 3.27208L11.3746 7.13198C11.8915 6.8618 12.4349 6.63549 13 6.45798V1ZM16.0006 19.3333C17.8415 19.3333 19.3339 17.8409 19.3339 16C19.3339 14.159 17.8415 12.6667 16.0006 12.6667C14.1596 12.6667 12.6672 14.159 12.6672 16C12.6672 17.8409 14.1596 19.3333 16.0006 19.3333Z"/>
</mask>
<path fill-rule="evenodd" clip-rule="evenodd" d="M13 1H19V6.45763C19.5652 6.63511 20.1088 6.86141 20.6258 7.1316L24.4853 3.27208L28.7279 7.51472L24.8686 11.3741C25.1388 11.8911 25.3652 12.4347 25.5428 13H31V19H25.5428C25.3652 19.5653 25.1388 20.1089 24.8686 20.6259L28.7279 24.4853L24.4853 28.7279L20.6258 24.8684C20.1089 25.1385 19.5655 25.3647 19.0006 25.5422V31H13.0006V25.5422C12.4353 25.3647 11.8917 25.1383 11.3746 24.868L7.51472 28.7279L3.27208 24.4853L7.13216 20.6252C6.86206 20.1084 6.63581 19.565 6.45836 19H1V13L6.45836 13C6.63581 12.435 6.86206 11.8916 7.13216 11.3748L3.27208 7.51472L7.51472 3.27208L11.3746 7.13198C11.8915 6.8618 12.4349 6.63549 13 6.45798V1ZM16.0006 19.3333C17.8415 19.3333 19.3339 17.8409 19.3339 16C19.3339 14.159 17.8415 12.6667 16.0006 12.6667C14.1596 12.6667 12.6672 14.159 12.6672 16C12.6672 17.8409 14.1596 19.3333 16.0006 19.3333Z" fill="#FCFCFC" fill-opacity="0.75"/>
<path d="M19 1H20V0H19V1ZM13 1V0H12V1H13ZM19 6.45763H18V7.19175L18.7004 7.41169L19 6.45763ZM20.6258 7.1316L20.1626 8.01787L20.8135 8.35805L21.3329 7.83871L20.6258 7.1316ZM24.4853 3.27208L25.1924 2.56497L24.4853 1.85786L23.7782 2.56497L24.4853 3.27208ZM28.7279 7.51472L29.435 8.22183L30.1421 7.51472L29.435 6.80761L28.7279 7.51472ZM24.8686 11.3741L24.1615 10.667L23.6421 11.1863L23.9823 11.8373L24.8686 11.3741ZM25.5428 13L24.5887 13.2996L24.8087 14H25.5428V13ZM31 13H32V12H31V13ZM31 19V20H32V19H31ZM25.5428 19V18H24.8087L24.5887 18.7003L25.5428 19ZM24.8686 20.6259L23.9823 20.1627L23.6421 20.8136L24.1615 21.333L24.8686 20.6259ZM28.7279 24.4853L29.435 25.1924L30.1421 24.4853L29.435 23.7782L28.7279 24.4853ZM24.4853 28.7279L23.7782 29.435L24.4853 30.1421L25.1924 29.435L24.4853 28.7279ZM20.6258 24.8684L21.3329 24.1613L20.8135 23.6419L20.1626 23.9821L20.6258 24.8684ZM19.0006 25.5422L18.7009 24.5881L18.0006 24.8081V25.5422H19.0006ZM19.0006 31V32H20.0006V31H19.0006ZM13.0006 31H12.0006V32H13.0006V31ZM13.0006 25.5422H14.0006V24.8081L13.3002 24.5881L13.0006 25.5422ZM11.3746 24.868L11.8379 23.9818L11.1869 23.6415L10.6675 24.1609L11.3746 24.868ZM7.51472 28.7279L6.80761 29.435L7.51472 30.1421L8.22183 29.435L7.51472 28.7279ZM3.27208 24.4853L2.56497 23.7782L1.85786 24.4853L2.56497 25.1924L3.27208 24.4853ZM7.13216 20.6252L7.83926 21.3323L8.35861 20.813L8.01843 20.162L7.13216 20.6252ZM6.45836 19L7.41241 18.7003L7.19244 18H6.45836V19ZM1 19H0V20H1V19ZM1 13L1 12L0 12V13H1ZM6.45836 13V14H7.19244L7.41241 13.2996L6.45836 13ZM7.13216 11.3748L8.01843 11.838L8.35861 11.187L7.83926 10.6677L7.13216 11.3748ZM3.27208 7.51472L2.56497 6.80761L1.85786 7.51472L2.56497 8.22183L3.27208 7.51472ZM7.51472 3.27208L8.22183 2.56497L7.51472 1.85786L6.80761 2.56497L7.51472 3.27208ZM11.3746 7.13198L10.6675 7.83909L11.1869 8.35848L11.8379 8.01821L11.3746 7.13198ZM13 6.45798L13.2997 7.41201L14 7.19201V6.45798H13ZM19 0H13V2H19V0ZM20 6.45763V1H18V6.45763H20ZM21.0889 6.24533C20.5201 5.94803 19.9218 5.69894 19.2996 5.50356L18.7004 7.41169C19.2086 7.57127 19.6975 7.77479 20.1626 8.01787L21.0889 6.24533ZM23.7782 2.56497L19.9187 6.42449L21.3329 7.83871L25.1924 3.97918L23.7782 2.56497ZM29.435 6.80761L25.1924 2.56497L23.7782 3.97918L28.0208 8.22183L29.435 6.80761ZM25.5757 12.0812L29.435 8.22183L28.0208 6.80761L24.1615 10.667L25.5757 12.0812ZM26.4968 12.7003C26.3014 12.0781 26.0522 11.4798 25.7548 10.9108L23.9823 11.8373C24.2255 12.3025 24.4291 12.7914 24.5887 13.2996L26.4968 12.7003ZM31 12H25.5428V14L31 14V12ZM32 19V13H30V19H32ZM25.5428 20H31V18H25.5428V20ZM25.7548 21.0892C26.0522 20.5202 26.3014 19.9219 26.4968 19.2997L24.5887 18.7003C24.4291 19.2086 24.2255 19.6975 23.9823 20.1627L25.7548 21.0892ZM29.435 23.7782L25.5757 19.9188L24.1615 21.333L28.0208 25.1924L29.435 23.7782ZM25.1924 29.435L29.435 25.1924L28.0208 23.7782L23.7782 28.0208L25.1924 29.435ZM19.9186 25.5755L23.7782 29.435L25.1924 28.0208L21.3329 24.1613L19.9186 25.5755ZM19.3002 26.4962C19.9222 26.3009 20.5202 26.0519 21.0889 25.7547L20.1626 23.9821C19.6976 24.2251 19.2089 24.4286 18.7009 24.5881L19.3002 26.4962ZM20.0006 31V25.5422H18.0006V31H20.0006ZM13.0006 32H19.0006V30H13.0006V32ZM12.0006 25.5422V31H14.0006V25.5422H12.0006ZM10.9114 25.7542C11.4803 26.0516 12.0786 26.3008 12.7009 26.4962L13.3002 24.5881C12.792 24.4285 12.303 24.2249 11.8379 23.9818L10.9114 25.7542ZM10.6675 24.1609L6.80761 28.0208L8.22183 29.435L12.0817 25.5751L10.6675 24.1609ZM8.22183 28.0208L3.97918 23.7782L2.56497 25.1924L6.80761 29.435L8.22183 28.0208ZM3.97919 25.1924L7.83926 21.3323L6.42505 19.9181L2.56497 23.7782L3.97919 25.1924ZM5.50431 19.2996C5.69966 19.9216 5.94869 20.5197 6.24589 21.0884L8.01843 20.162C7.77542 19.6971 7.57196 19.2084 7.41241 18.7003L5.50431 19.2996ZM1 20H6.45836V18H1V20ZM0 13V19H2V13H0ZM6.45836 12H1L1 14L6.45836 14V12ZM6.24589 10.9116C5.94869 11.4803 5.69966 12.0784 5.50431 12.7003L7.41241 13.2996C7.57196 12.7916 7.77542 12.3029 8.01843 11.838L6.24589 10.9116ZM2.56497 8.22183L6.42505 12.0819L7.83926 10.6677L3.97918 6.80761L2.56497 8.22183ZM6.80761 2.56497L2.56497 6.80761L3.97918 8.22183L8.22183 3.97918L6.80761 2.56497ZM12.0817 6.42488L8.22183 2.56497L6.80761 3.97918L10.6675 7.83909L12.0817 6.42488ZM12.7003 5.50394C12.0782 5.69936 11.4801 5.94846 10.9114 6.24575L11.8379 8.01821C12.3029 7.77514 12.7916 7.57161 13.2997 7.41201L12.7003 5.50394ZM12 1V6.45798H14V1H12ZM18.3339 16C18.3339 17.2887 17.2892 18.3333 16.0006 18.3333V20.3333C18.3938 20.3333 20.3339 18.3932 20.3339 16H18.3339ZM16.0006 13.6667C17.2892 13.6667 18.3339 14.7113 18.3339 16H20.3339C20.3339 13.6068 18.3938 11.6667 16.0006 11.6667V13.6667ZM13.6672 16C13.6672 14.7113 14.7119 13.6667 16.0006 13.6667V11.6667C13.6073 11.6667 11.6672 13.6068 11.6672 16H13.6672ZM16.0006 18.3333C14.7119 18.3333 13.6672 17.2887 13.6672 16H11.6672C11.6672 18.3932 13.6073 20.3333 16.0006 20.3333V18.3333Z" fill="#FCFCFC" fill-opacity="0.75" mask="url(#path-1-outside-1_2048_12490)"/>
<mask id="path-3-inside-2_2048_12490" fill="white">
<path fill-rule="evenodd" clip-rule="evenodd" d="M13 1H19V6.45763C19.5652 6.63511 20.1088 6.86141 20.6258 7.1316L24.4853 3.27208L28.7279 7.51472L24.8686 11.3741C25.1388 11.8911 25.3652 12.4347 25.5428 13H31V19H25.5428C25.3652 19.5653 25.1388 20.1089 24.8686 20.6259L28.7279 24.4853L24.4853 28.7279L20.6258 24.8684C20.1089 25.1385 19.5655 25.3647 19.0006 25.5422V31H13.0006V25.5422C12.4353 25.3647 11.8917 25.1383 11.3746 24.868L7.51472 28.7279L3.27208 24.4853L7.13216 20.6252C6.86206 20.1084 6.63581 19.565 6.45836 19L1 19V13H6.45836C6.63581 12.435 6.86206 11.8916 7.13216 11.3748L3.27208 7.51472L7.51472 3.27208L11.3746 7.13198C11.8915 6.8618 12.4349 6.63549 13 6.45798V1ZM16.0006 19.3333C17.8415 19.3333 19.3339 17.8409 19.3339 16C19.3339 14.159 17.8415 12.6667 16.0006 12.6667C14.1596 12.6667 12.6672 14.159 12.6672 16C12.6672 17.8409 14.1596 19.3333 16.0006 19.3333Z"/>
</mask>
<path fill-rule="evenodd" clip-rule="evenodd" d="M13 1H19V6.45763C19.5652 6.63511 20.1088 6.86141 20.6258 7.1316L24.4853 3.27208L28.7279 7.51472L24.8686 11.3741C25.1388 11.8911 25.3652 12.4347 25.5428 13H31V19H25.5428C25.3652 19.5653 25.1388 20.1089 24.8686 20.6259L28.7279 24.4853L24.4853 28.7279L20.6258 24.8684C20.1089 25.1385 19.5655 25.3647 19.0006 25.5422V31H13.0006V25.5422C12.4353 25.3647 11.8917 25.1383 11.3746 24.868L7.51472 28.7279L3.27208 24.4853L7.13216 20.6252C6.86206 20.1084 6.63581 19.565 6.45836 19L1 19V13H6.45836C6.63581 12.435 6.86206 11.8916 7.13216 11.3748L3.27208 7.51472L7.51472 3.27208L11.3746 7.13198C11.8915 6.8618 12.4349 6.63549 13 6.45798V1ZM16.0006 19.3333C17.8415 19.3333 19.3339 17.8409 19.3339 16C19.3339 14.159 17.8415 12.6667 16.0006 12.6667C14.1596 12.6667 12.6672 14.159 12.6672 16C12.6672 17.8409 14.1596 19.3333 16.0006 19.3333Z" fill="#D8D8D8"/>
<path d="M19 1H20V0H19V1ZM13 1V0H12V1H13ZM19 6.45763H18V7.19175L18.7004 7.41169L19 6.45763ZM20.6258 7.1316L20.1626 8.01787L20.8135 8.35805L21.3329 7.83871L20.6258 7.1316ZM24.4853 3.27208L25.1924 2.56497L24.4853 1.85786L23.7782 2.56497L24.4853 3.27208ZM28.7279 7.51472L29.435 8.22183L30.1421 7.51472L29.435 6.80761L28.7279 7.51472ZM24.8686 11.3741L24.1615 10.667L23.6421 11.1863L23.9823 11.8373L24.8686 11.3741ZM25.5428 13L24.5887 13.2996L24.8087 14H25.5428V13ZM31 13H32V12H31V13ZM31 19V20H32V19H31ZM25.5428 19V18H24.8087L24.5887 18.7003L25.5428 19ZM24.8686 20.6259L23.9823 20.1627L23.6421 20.8136L24.1615 21.333L24.8686 20.6259ZM28.7279 24.4853L29.435 25.1924L30.1421 24.4853L29.435 23.7782L28.7279 24.4853ZM24.4853 28.7279L23.7782 29.435L24.4853 30.1421L25.1924 29.435L24.4853 28.7279ZM20.6258 24.8684L21.3329 24.1613L20.8135 23.6419L20.1626 23.9821L20.6258 24.8684ZM19.0006 25.5422L18.7009 24.5881L18.0006 24.8081V25.5422H19.0006ZM19.0006 31V32H20.0006V31H19.0006ZM13.0006 31H12.0006V32H13.0006V31ZM13.0006 25.5422H14.0006V24.8081L13.3002 24.5881L13.0006 25.5422ZM11.3746 24.868L11.8379 23.9818L11.1869 23.6415L10.6675 24.1609L11.3746 24.868ZM7.51472 28.7279L6.80761 29.435L7.51472 30.1421L8.22183 29.435L7.51472 28.7279ZM3.27208 24.4853L2.56497 23.7782L1.85786 24.4853L2.56497 25.1924L3.27208 24.4853ZM7.13216 20.6252L7.83926 21.3323L8.35861 20.813L8.01843 20.162L7.13216 20.6252ZM6.45836 19L7.41241 18.7004L7.19244 18H6.45836L6.45836 19ZM1 19H0V20H1L1 19ZM1 13V12H0V13H1ZM6.45836 13V14H7.19244L7.41241 13.2996L6.45836 13ZM7.13216 11.3748L8.01843 11.838L8.35861 11.187L7.83926 10.6677L7.13216 11.3748ZM3.27208 7.51472L2.56497 6.80761L1.85786 7.51472L2.56497 8.22183L3.27208 7.51472ZM7.51472 3.27208L8.22183 2.56497L7.51472 1.85786L6.80761 2.56497L7.51472 3.27208ZM11.3746 7.13198L10.6675 7.83909L11.1869 8.35848L11.8379 8.01821L11.3746 7.13198ZM13 6.45798L13.2997 7.41201L14 7.19201V6.45798H13ZM19 0H13V2H19V0ZM20 6.45763V1H18V6.45763H20ZM21.0889 6.24533C20.5201 5.94803 19.9218 5.69894 19.2996 5.50356L18.7004 7.41169C19.2086 7.57127 19.6975 7.77479 20.1626 8.01787L21.0889 6.24533ZM23.7782 2.56497L19.9186 6.42449L21.3329 7.83871L25.1924 3.97918L23.7782 2.56497ZM29.435 6.80761L25.1924 2.56497L23.7782 3.97918L28.0208 8.22183L29.435 6.80761ZM25.5757 12.0812L29.435 8.22183L28.0208 6.80761L24.1615 10.667L25.5757 12.0812ZM26.4968 12.7004C26.3014 12.0781 26.0522 11.4798 25.7548 10.9108L23.9823 11.8373C24.2255 12.3025 24.4291 12.7914 24.5887 13.2996L26.4968 12.7004ZM31 12H25.5428V14H31V12ZM32 19V13H30V19H32ZM25.5428 20H31V18H25.5428V20ZM25.7548 21.0892C26.0522 20.5202 26.3014 19.9219 26.4968 19.2997L24.5887 18.7003C24.4291 19.2086 24.2255 19.6975 23.9823 20.1627L25.7548 21.0892ZM29.435 23.7782L25.5757 19.9188L24.1615 21.333L28.0208 25.1924L29.435 23.7782ZM25.1924 29.435L29.435 25.1924L28.0208 23.7782L23.7782 28.0208L25.1924 29.435ZM19.9186 25.5755L23.7782 29.435L25.1924 28.0208L21.3329 24.1613L19.9186 25.5755ZM19.3002 26.4962C19.9222 26.3009 20.5202 26.0519 21.0889 25.7547L20.1626 23.9821C19.6976 24.2251 19.2089 24.4286 18.7009 24.5881L19.3002 26.4962ZM20.0006 31V25.5422H18.0006V31H20.0006ZM13.0006 32H19.0006V30H13.0006V32ZM12.0006 25.5422V31H14.0006V25.5422H12.0006ZM10.9114 25.7542C11.4803 26.0516 12.0786 26.3008 12.7009 26.4962L13.3002 24.5881C12.792 24.4285 12.303 24.2249 11.8379 23.9818L10.9114 25.7542ZM10.6675 24.1609L6.80761 28.0208L8.22183 29.435L12.0817 25.5751L10.6675 24.1609ZM8.22183 28.0208L3.97919 23.7782L2.56497 25.1924L6.80761 29.435L8.22183 28.0208ZM3.97919 25.1924L7.83926 21.3323L6.42505 19.9181L2.56497 23.7782L3.97919 25.1924ZM5.50431 19.2996C5.69966 19.9216 5.94869 20.5197 6.24589 21.0884L8.01843 20.162C7.77542 19.6971 7.57196 19.2084 7.41241 18.7004L5.50431 19.2996ZM1 20L6.45836 20L6.45836 18L1 18L1 20ZM0 13V19H2V13H0ZM6.45836 12H1V14H6.45836V12ZM6.24589 10.9116C5.94869 11.4803 5.69966 12.0784 5.50431 12.7003L7.41241 13.2996C7.57196 12.7916 7.77542 12.3029 8.01843 11.838L6.24589 10.9116ZM2.56497 8.22183L6.42505 12.0819L7.83926 10.6677L3.97918 6.80761L2.56497 8.22183ZM6.80761 2.56497L2.56497 6.80761L3.97918 8.22183L8.22183 3.97918L6.80761 2.56497ZM12.0817 6.42488L8.22183 2.56497L6.80761 3.97918L10.6675 7.83909L12.0817 6.42488ZM12.7003 5.50394C12.0782 5.69936 11.4801 5.94846 10.9114 6.24575L11.8379 8.01821C12.3029 7.77514 12.7916 7.57161 13.2997 7.41201L12.7003 5.50394ZM12 1V6.45798H14V1H12ZM18.3339 16C18.3339 17.2887 17.2892 18.3333 16.0006 18.3333V20.3333C18.3938 20.3333 20.3339 18.3932 20.3339 16H18.3339ZM16.0006 13.6667C17.2892 13.6667 18.3339 14.7113 18.3339 16H20.3339C20.3339 13.6068 18.3938 11.6667 16.0006 11.6667V13.6667ZM13.6672 16C13.6672 14.7113 14.7119 13.6667 16.0006 13.6667V11.6667C13.6073 11.6667 11.6672 13.6068 11.6672 16H13.6672ZM16.0006 18.3333C14.7119 18.3333 13.6672 17.2887 13.6672 16H11.6672C11.6672 18.3932 13.6073 20.3333 16.0006 20.3333V18.3333Z" fill="#919191" mask="url(#path-3-inside-2_2048_12490)"/>
</g>
<defs>
<clipPath id="clip0_2048_12490">
<rect width="32" height="32" fill="white"/>
</clipPath>
</defs>
</svg>
