<svg width="32" height="32" viewBox="0 0 32 32" fill="none" xmlns="http://www.w3.org/2000/svg">
<g clip-path="url(#clip0_2050_11887)">
<circle cx="14" cy="14" r="13" fill="#FCFCFC" fill-opacity="0.75"/>
<circle cx="14" cy="14" r="13.5" stroke="#FCFCFC" stroke-opacity="0.75"/>
<path d="M21.9995 19.9995L28.9999 26.9991C29.5525 27.5515 29.5524 28.4474 28.9997 28.9998C28.4473 29.552 27.5518 29.5518 26.9995 28.9995L20 22L21.9995 19.9995Z" fill="#3A3A3A"/>
<path d="M22.353 19.6459L21.9994 19.2923L21.6459 19.646L19.6464 21.6465L19.293 22.0001L19.6464 22.3536L26.646 29.3531C27.3935 30.1006 28.6055 30.1008 29.3532 29.3534C30.1012 28.6058 30.1013 27.3933 29.3534 26.6455L22.353 19.6459Z" stroke="#FCFCFC" stroke-opacity="0.75"/>
<circle cx="14" cy="14" r="12.5" fill="url(#paint0_linear_2050_11887)" stroke="#00A1DB"/>
<g clip-path="url(#clip1_2050_11887)">
<path d="M8 15V12H11V7H16V12H19V15H20V20H15V15H12V20H7V15H8Z" fill="#FCFCFC" fill-opacity="0.75"/>
<path d="M9 13H13V10H14V13H18V17H17V14H10V17H9V13Z" fill="#3A3A3A"/>
<rect x="16.5" y="16.5" width="2" height="2" fill="#D8D8D8" stroke="#3A3A3A"/>
<rect x="12.5" y="8.5" width="2" height="2" fill="#D8D8D8" stroke="#3A3A3A"/>
<rect x="8.5" y="16.5" width="2" height="2" fill="#D8D8D8" stroke="#3A3A3A"/>
</g>
</g>
<defs>
<linearGradient id="paint0_linear_2050_11887" x1="21.9444" y1="4.61111" x2="6.77778" y2="24.1111" gradientUnits="userSpaceOnUse">
<stop stop-color="#94E1FC"/>
<stop offset="1" stop-color="#FCFCFC"/>
</linearGradient>
<clipPath id="clip0_2050_11887">
<rect width="32" height="32" fill="white"/>
</clipPath>
<clipPath id="clip1_2050_11887">
<rect width="13" height="13" fill="white" transform="translate(7 7)"/>
</clipPath>
</defs>
</svg>
