<svg width="32" height="32" viewBox="0 0 32 32" fill="none" xmlns="http://www.w3.org/2000/svg">
<g clip-path="url(#clip0_2052_12362)">
<path d="M16.5 2L30.5 15.9999L16.5 30L2.5 16L16.5 2Z" fill="#FCFCFC" fill-opacity="0.75"/>
<path d="M16.8536 1.64645L16.5 1.29289L16.1464 1.64645L2.14645 15.6464L1.79289 16L2.14645 16.3536L16.1464 30.3536L16.5 30.7071L16.8536 30.3536L30.8536 16.3534L31.2071 15.9999L30.8536 15.6463L16.8536 1.64645Z" stroke="#FCFCFC" stroke-opacity="0.75"/>
<path d="M16.5 2.70711L29.7929 15.9999L16.5 29.2929L3.20711 16L16.5 2.70711Z" fill="url(#paint0_linear_2052_12362)" stroke="#919191"/>
<g clip-path="url(#clip1_2052_12362)">
<rect x="15" y="9" width="3" height="13" fill="#FCFCFC" fill-opacity="0.75"/>
<rect x="16" y="14" width="1" height="7" fill="#3A3A3A"/>
<rect x="16" y="10" width="1" height="2" fill="#3A3A3A"/>
</g>
</g>
<defs>
<linearGradient id="paint0_linear_2052_12362" x1="23.5" y1="9" x2="9.5" y2="23" gradientUnits="userSpaceOnUse">
<stop stop-color="#FCFCFC"/>
<stop offset="1" stop-color="#E6EAEA"/>
</linearGradient>
<clipPath id="clip0_2052_12362">
<rect width="32" height="32" fill="white"/>
</clipPath>
<clipPath id="clip1_2052_12362">
<rect width="3" height="13" fill="white" transform="translate(15 9)"/>
</clipPath>
</defs>
</svg>
