<svg width="32" height="32" viewBox="0 0 32 32" fill="none" xmlns="http://www.w3.org/2000/svg">
<g clip-path="url(#clip0_2053_12517)">
<path d="M9.33333 3H2.66667C1.19391 3 0 4.19391 0 5.66667V25C0 27.2091 1.79086 29 4 29H24.8464C26.696 29 28.3043 27.732 28.736 25.9335L32 12.3333C32 10.1242 30.2091 8.33333 28 8.33333C28 6.86057 26.8061 5.66667 25.3333 5.66667H12C12 4.19391 10.8061 3 9.33333 3Z" fill="#FCFCFC" fill-opacity="0.75"/>
<path d="M8 4H4C2.34315 4 1 5.34315 1 7V24C1 26.2091 2.79086 28 5 28H23.9269C25.7391 28 27.3249 26.7817 27.7918 25.0306L30.8806 13.4478C30.9599 13.1505 31 12.8442 31 12.5366C31 10.5834 29.4166 9 27.4634 9H27C27 7.89552 26.1046 7.00016 25.0002 7.00016H11C11 5.34331 9.65685 4 8 4Z" fill="#F2994A"/>
<path d="M4.48399 13.3589C4.78526 11.9817 6.00487 11 7.41469 11H26.5399C28.5278 11 29.966 12.8985 29.4278 14.8122L26.6153 24.8122C26.2514 26.1061 25.0714 27 23.7274 27H5.22719C3.31202 27 1.88722 25.2298 2.29649 23.3589L4.48399 13.3589Z" fill="url(#paint0_radial_2053_12517)"/>
</g>
<path fill-rule="evenodd" clip-rule="evenodd" d="M10.0625 24.7812C10.2805 24.9508 10.3197 25.2649 10.1502 25.4829L8.60903 27.2457C7.74812 28.3526 6.42438 29 5.0221 29C3.5918 29 2.24497 28.3266 1.38679 27.1823L1.10003 26.8C0.934344 26.5791 0.979116 26.2657 1.20003 26.1C1.42094 25.9343 1.73434 25.9791 1.90003 26.2L2.18679 26.5823C2.85611 27.4748 3.90656 28 5.0221 28C6.11579 28 7.14822 27.4951 7.81968 26.6317L9.36085 24.869C9.53039 24.651 9.84453 24.6117 10.0625 24.7812Z" fill="#00A1DB"/>
<path d="M7 23H12L12 28L7 23Z" fill="#00A1DB"/>
<path d="M8.99466 27.5643L9.86344 26.5705L11.6464 28.3536L12.5 29.2071L12.5 28L12.5 23L12.5 22.5H12H7H5.79289L6.64645 23.3536L8.44722 25.1543L7.44326 26.3027L7.43382 26.3135L7.42501 26.3248C6.84827 27.0663 5.9615 27.5 5.0221 27.5C4.06394 27.5 3.16169 27.0489 2.58679 26.2823L2.30003 25.9C1.96866 25.4582 1.34186 25.3686 0.90003 25.7L1.16304 26.0507L0.900029 25.7C0.458202 26.0314 0.368658 26.6582 0.700029 27.1L0.986785 27.4823L1.38679 27.1823L0.986785 27.4823C1.93939 28.7525 3.43442 29.5 5.0221 29.5C6.57377 29.5 8.0388 28.7859 8.99466 27.5643Z" stroke="#FCFCFC" stroke-opacity="0.75"/>
<defs>
<radialGradient id="paint0_radial_2053_12517" cx="0" cy="0" r="1" gradientUnits="userSpaceOnUse" gradientTransform="translate(14.7391 27) rotate(-84.6793) scale(20.3956 27.9941)">
<stop stop-color="#FCFCFC"/>
<stop offset="1" stop-color="#F2C94C"/>
</radialGradient>
<clipPath id="clip0_2053_12517">
<rect width="32" height="26" fill="white" transform="translate(0 3)"/>
</clipPath>
</defs>
</svg>
