<svg width="32" height="32" viewBox="0 0 32 32" fill="none" xmlns="http://www.w3.org/2000/svg">
<g clip-path="url(#clip0_2054_13333)">
<circle cx="14" cy="14" r="13" fill="#FCFCFC" fill-opacity="0.75"/>
<circle cx="14" cy="14" r="13.5" stroke="#FCFCFC" stroke-opacity="0.75"/>
<path d="M21.9995 19.9995L28.9999 26.9991C29.5525 27.5515 29.5524 28.4474 28.9997 28.9998C28.4473 29.552 27.5518 29.5518 26.9995 28.9995L20 22L21.9995 19.9995Z" fill="#3A3A3A"/>
<path d="M22.353 19.6459L21.9994 19.2923L21.6459 19.646L19.6464 21.6465L19.293 22.0001L19.6464 22.3536L26.646 29.3531C27.3935 30.1006 28.6055 30.1008 29.3532 29.3534C30.1012 28.6058 30.1013 27.3933 29.3534 26.6455L22.353 19.6459Z" stroke="#FCFCFC" stroke-opacity="0.75"/>
<circle cx="14" cy="14" r="12.5" fill="url(#paint0_linear_2054_13333)" stroke="#00A1DB"/>
<g clip-path="url(#clip1_2054_13333)">
<path fill-rule="evenodd" clip-rule="evenodd" d="M13 10C13 8.89543 13.8954 8 15 8C16.1046 8 17 8.89543 17 10V16C17 17.6569 15.6569 19 14 19C12.3431 19 11 17.6569 11 16V13C11 12.7239 11.2239 12.5 11.5 12.5C11.7761 12.5 12 12.7239 12 13V16C12 17.1046 12.8954 18 14 18C15.1046 18 16 17.1046 16 16V10C16 9.44772 15.5523 9 15 9C14.4477 9 14 9.44772 14 10V14.5C14 14.7761 14.2239 15 14.5 15C14.7761 15 15 15.2239 15 15.5C15 15.7761 14.7761 16 14.5 16C13.6716 16 13 15.3284 13 14.5V10Z" fill="#3A3A3A"/>
<path d="M15.5 15.5V16C15.5 16.8284 14.8284 17.5 14 17.5C13.1716 17.5 12.5 16.8284 12.5 16V14.5C12.5 15.6046 13.3954 16.5 14.5 16.5C15.0523 16.5 15.5 16.0523 15.5 15.5ZM15.5 15.5V10C15.5 9.72386 15.2761 9.5 15 9.5C14.7239 9.5 14.5 9.72386 14.5 10V14.5C15.0523 14.5 15.5 14.9477 15.5 15.5ZM15 7.5C13.6193 7.5 12.5 8.61929 12.5 10V13C12.5 12.4477 12.0523 12 11.5 12C10.9477 12 10.5 12.4477 10.5 13V16C10.5 17.933 12.067 19.5 14 19.5C15.933 19.5 17.5 17.933 17.5 16V10C17.5 8.61929 16.3807 7.5 15 7.5Z" stroke="#FCFCFC" stroke-opacity="0.75" stroke-linecap="round"/>
</g>
</g>
<defs>
<linearGradient id="paint0_linear_2054_13333" x1="21.9444" y1="4.61111" x2="6.77778" y2="24.1111" gradientUnits="userSpaceOnUse">
<stop stop-color="#94E1FC"/>
<stop offset="1" stop-color="#FCFCFC"/>
</linearGradient>
<clipPath id="clip0_2054_13333">
<rect width="32" height="32" fill="white"/>
</clipPath>
<clipPath id="clip1_2054_13333">
<rect width="8" height="13" fill="white" transform="translate(10 7)"/>
</clipPath>
</defs>
</svg>
