<svg width="32" height="32" viewBox="0 0 32 32" fill="none" xmlns="http://www.w3.org/2000/svg">
<g clip-path="url(#clip0_2058_13739)">
<path fill-rule="evenodd" clip-rule="evenodd" d="M1 2H31V8L27.9987 8.00033L28 5H9L19.9987 16.0003L9 27H28L27.9987 24.0003L31 24V30H1V27L11.9987 16.0003L1 5V2Z" fill="#3A3A3A"/>
<path d="M1 1.5H0.5V2V5V5.20709L0.64642 5.35353L11.2916 16.0003L0.646431 26.6465L0.5 26.7929V27V30V30.5H1H31H31.5V30V24V23.4999L30.9999 23.5L27.9986 23.5003L27.4985 23.5004L27.4987 24.0005L27.4998 26.5H10.207L20.3523 16.3539L20.7058 16.0003L20.3523 15.6468L10.207 5.5H27.4998L27.4987 8.00011L27.4985 8.50038L27.9988 8.50033L31.0001 8.5L31.5 8.49995V8V2V1.5H31H1Z" stroke="#FCFCFC" stroke-opacity="0.75"/>
</g>
<defs>
<clipPath id="clip0_2058_13739">
<rect width="32" height="32" fill="white"/>
</clipPath>
</defs>
</svg>
