<svg width="32" height="32" viewBox="0 0 32 32" fill="none" xmlns="http://www.w3.org/2000/svg">
<g clip-path="url(#clip0_2060_13960)">
<path d="M4 16L13.2929 6.70711C13.9229 6.07714 15 6.52331 15 7.41421V24.5858C15 25.4767 13.9229 25.9229 13.2929 25.2929L4 16Z" fill="#FCFCFC" fill-opacity="0.75"/>
<path d="M3.64645 15.6464L3.29289 16L3.64645 16.3536L12.9393 25.6464C13.8843 26.5914 15.5 25.9221 15.5 24.5858V7.41421C15.5 6.07785 13.8843 5.40861 12.9393 6.35355L3.64645 15.6464Z" stroke="#FCFCFC" stroke-opacity="0.75"/>
<path d="M13.6464 24.9393L4.70711 16L13.6464 7.06066C13.9614 6.74568 14.5 6.96876 14.5 7.41421V24.5858C14.5 25.0312 13.9614 25.2543 13.6464 24.9393Z" fill="#94E1FC" stroke="#00A1DB"/>
</g>
<g clip-path="url(#clip1_2060_13960)">
<path d="M18 16L27.2929 6.70711C27.9229 6.07714 29 6.52331 29 7.41421V24.5858C29 25.4767 27.9229 25.9229 27.2929 25.2929L18 16Z" fill="#FCFCFC" fill-opacity="0.75"/>
<path d="M17.6464 15.6464L17.2929 16L17.6464 16.3536L26.9393 25.6464C27.8843 26.5914 29.5 25.9221 29.5 24.5858V7.41421C29.5 6.07785 27.8843 5.40861 26.9393 6.35355L17.6464 15.6464Z" stroke="#FCFCFC" stroke-opacity="0.75"/>
<path d="M27.6464 24.9393L18.7071 16L27.6464 7.06066C27.9614 6.74568 28.5 6.96876 28.5 7.41421V24.5858C28.5 25.0312 27.9614 25.2543 27.6464 24.9393Z" fill="#94E1FC" stroke="#00A1DB"/>
</g>
<defs>
<clipPath id="clip0_2060_13960">
<rect width="22" height="14" fill="white" transform="translate(16 5) rotate(90)"/>
</clipPath>
<clipPath id="clip1_2060_13960">
<rect width="22" height="14" fill="white" transform="translate(30 5) rotate(90)"/>
</clipPath>
</defs>
</svg>
