<svg width="32" height="32" viewBox="0 0 32 32" fill="none" xmlns="http://www.w3.org/2000/svg">
<g clip-path="url(#clip0_2060_14117)">
<path d="M23 0H4V32H28V5L23 0Z" fill="#FCFCFC" fill-opacity="0.75"/>
<path d="M5.5 1.5H21.7929L26.5 6.20711V30.5H5.5V1.5Z" fill="url(#paint0_linear_2060_14117)" stroke="#3A3A3A"/>
<path d="M21 1H22V6H27V7H21V1Z" fill="#3A3A3A"/>
</g>
<g clip-path="url(#clip1_2060_14117)">
<path d="M0 26C0 24.8954 0.895431 24 2 24H4.93921C5.67032 24 6.34316 24.3989 6.69396 25.0404L7 25.6L7.30605 25.0404C7.65684 24.3989 8.32968 24 9.06079 24H12C13.1046 24 14 24.8954 14 26V30C14 31.1046 13.1046 32 12 32H9.06079C8.32968 32 7.65684 31.6011 7.30605 30.9596L7 30.4L6.69395 30.9596C6.34316 31.6011 5.67032 32 4.93921 32H2C0.895431 32 0 31.1046 0 30V26Z" fill="#FCFCFC" fill-opacity="0.75"/>
<path d="M4.5 28H9.5" stroke="#00A1DB" stroke-width="2" stroke-linecap="round"/>
<rect x="1.5" y="25.5" width="4" height="5" rx="0.5" stroke="#00A1DB"/>
<rect x="8.5" y="25.5" width="4" height="5" rx="0.5" stroke="#00A1DB"/>
</g>
<defs>
<linearGradient id="paint0_linear_2060_14117" x1="16" y1="1" x2="16" y2="31" gradientUnits="userSpaceOnUse">
<stop stop-color="#FCFCFC"/>
<stop offset="1" stop-color="#E6EAEA"/>
</linearGradient>
<clipPath id="clip0_2060_14117">
<rect width="24" height="32" fill="white" transform="translate(4)"/>
</clipPath>
<clipPath id="clip1_2060_14117">
<rect width="14" height="8" fill="white" transform="translate(0 24)"/>
</clipPath>
</defs>
</svg>
