<svg width="32" height="32" viewBox="0 0 32 32" fill="none" xmlns="http://www.w3.org/2000/svg">
<g clip-path="url(#clip0_2061_14915)">
<path d="M32 3H27V-2.98023e-07H19V3H1V29H32V3Z" fill="#FCFCFC" fill-opacity="0.75"/>
<path d="M16.5 4.5H2.5V27.5H16.5V4.5Z" fill="url(#paint0_linear_2061_14915)" stroke="#919191"/>
<path d="M16.5 4.5H30.5V27.5H16.5V4.5Z" fill="url(#paint1_linear_2061_14915)" stroke="#919191"/>
<rect x="20" y="9" width="7" height="1" fill="#3A3A3A"/>
<rect x="20" y="13" width="7" height="1" fill="#3A3A3A"/>
<rect x="20" y="17" width="7" height="1" fill="#3A3A3A"/>
<rect x="20" y="21" width="7" height="1" fill="#3A3A3A"/>
<rect x="6" y="9" width="7" height="1" fill="#3A3A3A"/>
<rect x="6" y="13" width="7" height="1" fill="#3A3A3A"/>
<rect x="6" y="17" width="7" height="1" fill="#3A3A3A"/>
<rect x="20" y="1" width="6" height="4" fill="#00A1DB"/>
<rect x="16" y="4" width="1" height="24" fill="#3A3A3A"/>
<g clip-path="url(#clip1_2061_14915)">
<path d="M8 20L1 20L1 21L8 21L8 20Z" fill="#00A1DB"/>
<path d="M5 20L4 20V31H5L5 20Z" fill="#00A1DB"/>
<path d="M8.5 20V19.5L8 19.5L5.5 19.5L5 19.5L4 19.5L3.5 19.5L1 19.5L0.5 19.5L0.5 20L0.5 21L0.5 21.5H1L3.5 21.5V31V31.5H4H5H5.5V31L5.5 21.5L8 21.5H8.5L8.5 21L8.5 20Z" stroke="#FCFCFC" stroke-opacity="0.75"/>
</g>
<rect x="2" y="22" width="1" height="6" fill="#FCFCFC" fill-opacity="0.75"/>
</g>
<defs>
<linearGradient id="paint0_linear_2061_14915" x1="12" y1="16" x2="17" y2="16" gradientUnits="userSpaceOnUse">
<stop stop-color="#FCFCFC"/>
<stop offset="1" stop-color="#919191"/>
</linearGradient>
<linearGradient id="paint1_linear_2061_14915" x1="21" y1="16" x2="16" y2="16" gradientUnits="userSpaceOnUse">
<stop stop-color="#FCFCFC"/>
<stop offset="1" stop-color="#919191"/>
</linearGradient>
<clipPath id="clip0_2061_14915">
<rect width="32" height="32" fill="white"/>
</clipPath>
<clipPath id="clip1_2061_14915">
<rect width="9" height="13" fill="white" transform="translate(0 19)"/>
</clipPath>
</defs>
</svg>
