<svg width="32" height="32" viewBox="0 0 32 32" fill="none" xmlns="http://www.w3.org/2000/svg">
<g clip-path="url(#clip0_2061_15796)">
<path d="M21 22C24.3538 20.1325 27 16.1217 27 12C27 5.95394 22.0249 1 16 1C9.97508 1 5 5.95394 5 12C5 16.1217 7.64625 20.1325 11 22H7C4.23858 22 2 24.2386 2 27H4V31H28V27H30C30 24.2386 27.7614 22 25 22H21Z" fill="#FCFCFC" fill-opacity="0.75"/>
<path d="M22.6554 21.5C25.4554 19.3256 27.5 15.7182 27.5 12C27.5 5.67717 22.3004 0.5 16 0.5C9.69956 0.5 4.5 5.67717 4.5 12C4.5 15.7182 6.54462 19.3256 9.34463 21.5H7C3.96243 21.5 1.5 23.9624 1.5 27V27.5H2H3.5V31V31.5H4H28H28.5V31V27.5H30H30.5V27C30.5 23.9624 28.0376 21.5 25 21.5H22.6554Z" stroke="#FCFCFC" stroke-opacity="0.75"/>
<rect x="4" y="28" width="24" height="3" fill="#3A3A3A"/>
<path d="M20.7567 21.5632L19.0743 22.5H21H25C27.3163 22.5 29.2238 24.25 29.4725 26.5H2.52746C2.77619 24.25 4.68372 22.5 7 22.5H11H12.9257L11.2433 21.5632C8.03316 19.7756 5.5 15.924 5.5 12C5.5 6.2307 10.2506 1.5 16 1.5C21.7494 1.5 26.5 6.2307 26.5 12C26.5 15.924 23.9668 19.7756 20.7567 21.5632Z" fill="#919191" stroke="#3A3A3A"/>
<rect x="12" y="20" width="8" height="4" fill="#919191"/>
<circle cx="16" cy="12" r="10" transform="rotate(-180 16 12)" fill="url(#paint0_linear_2061_15796)"/>
<g clip-path="url(#clip1_2061_15796)">
<path d="M1 31H4.58579C4.851 31 5.10536 30.8946 5.29289 30.7071L11.2929 24.7071C11.6834 24.3166 11.6834 23.6834 11.2929 23.2929L8.70711 20.7071C8.31658 20.3166 7.68342 20.3166 7.29289 20.7071L1.29289 26.7071C1.10536 26.8946 1 27.149 1 27.4142V31Z" fill="#FCFCFC" fill-opacity="0.75"/>
<path d="M0.5 31V31.5H1H4.58579C4.98361 31.5 5.36514 31.342 5.64645 31.0607L11.6464 25.0607C12.2322 24.4749 12.2322 23.5251 11.6464 22.9393L9.06066 20.3536C8.47487 19.7678 7.52513 19.7678 6.93934 20.3536L0.93934 26.3536C0.658035 26.6349 0.5 27.0164 0.5 27.4142V31Z" stroke="#FCFCFC" stroke-opacity="0.75"/>
<path d="M6.39528 25.6047L5.57206 23.135L7.64645 21.0607C7.84171 20.8654 8.15829 20.8654 8.35355 21.0607L10.9393 23.6464C11.1346 23.8417 11.1346 24.1583 10.9393 24.3536L8.86495 26.4279L6.39528 25.6047Z" fill="#FCFCFC" stroke="#3A3A3A"/>
<path d="M4.58579 30.5H1.5V27.4142C1.5 27.2816 1.55268 27.1544 1.64645 27.0607L3 25.7071L6.29289 29L4.93934 30.3536C4.84557 30.4473 4.71839 30.5 4.58579 30.5Z" fill="#FCFCFC" stroke="#919191"/>
<path d="M2.70711 26L6 22.7071L9.29289 26L6 29.2929L2.70711 26Z" fill="url(#paint1_linear_2061_15796)" stroke="#3A3A3A"/>
<path d="M1 28H2V30H4V31H1V28Z" fill="#00A1DB"/>
<rect x="1" y="30" width="1" height="1" fill="#919191"/>
</g>
</g>
<defs>
<linearGradient id="paint0_linear_2061_15796" x1="16" y1="2" x2="16" y2="22" gradientUnits="userSpaceOnUse">
<stop stop-color="#919191"/>
<stop offset="1" stop-color="#D8D8D8"/>
</linearGradient>
<linearGradient id="paint1_linear_2061_15796" x1="9.71429" y1="22" x2="3.73879" y2="31.1371" gradientUnits="userSpaceOnUse">
<stop stop-color="#94E1FC"/>
<stop offset="1" stop-color="#00A1DB"/>
</linearGradient>
<clipPath id="clip0_2061_15796">
<rect width="32" height="32" fill="white"/>
</clipPath>
<clipPath id="clip1_2061_15796">
<rect width="13" height="13" fill="white" transform="translate(0 19)"/>
</clipPath>
</defs>
</svg>
