<svg width="32" height="32" viewBox="0 0 32 32" fill="none" xmlns="http://www.w3.org/2000/svg">
<g clip-path="url(#clip0_2062_16049)">
<path d="M3 27.6667C3 21.7756 7.77563 17 13.6667 17H18.3333C24.2244 17 29 21.7756 29 27.6667V31H23V27H21V31H11V27H9V31H3V27.6667Z" fill="#FCFCFC" fill-opacity="0.75"/>
<path d="M29 31.5H29.5V31V27.6667C29.5 21.4995 24.5005 16.5 18.3333 16.5H13.6667C7.49949 16.5 2.5 21.4995 2.5 27.6667V31V31.5H3H9H9.5V31V27.5H10.5V31V31.5H11H21H21.5V31V27.5H22.5V31V31.5H23H29Z" stroke="#FCFCFC" stroke-opacity="0.75"/>
<circle cx="16" cy="8" r="7" fill="#FCFCFC" fill-opacity="0.75"/>
<circle cx="16" cy="8" r="7.5" stroke="#FCFCFC" stroke-opacity="0.75"/>
<circle cx="16" cy="8" r="6.5" fill="url(#paint0_linear_2062_16049)" stroke="#919191"/>
<path d="M3.5 27.6667C3.5 22.0518 8.05177 17.5 13.6667 17.5H18.3333C23.9482 17.5 28.5 22.0518 28.5 27.6667V30.5H23.5V27.5C23.5 26.9477 23.0523 26.5 22.5 26.5C21.9477 26.5 21.5 26.9477 21.5 27.5V30.5H10.5V27.5C10.5 26.9477 10.0523 26.5 9.5 26.5C8.94771 26.5 8.5 26.9477 8.5 27.5V30.5H3.5V27.6667Z" fill="url(#paint1_linear_2062_16049)" stroke="#919191"/>
</g>
<defs>
<linearGradient id="paint0_linear_2062_16049" x1="23" y1="8.63636" x2="9" y2="8.63636" gradientUnits="userSpaceOnUse">
<stop stop-color="#F4F7F6"/>
<stop offset="1" stop-color="#D8D8D8"/>
</linearGradient>
<linearGradient id="paint1_linear_2062_16049" x1="29" y1="24.6364" x2="3" y2="24.6364" gradientUnits="userSpaceOnUse">
<stop stop-color="#F4F7F6"/>
<stop offset="1" stop-color="#D8D8D8"/>
</linearGradient>
<clipPath id="clip0_2062_16049">
<rect width="32" height="32" fill="white"/>
</clipPath>
</defs>
</svg>
