<svg width="32" height="32" viewBox="0 0 32 32" fill="none" xmlns="http://www.w3.org/2000/svg">
<g clip-path="url(#clip0_2071_13477)">
<path d="M0 1H7C7 0.447715 7.44772 0 8 0H10C10.5523 0 11 0.447715 11 1H21C21 0.447715 21.4477 0 22 0H24C24.5523 0 25 0.447715 25 1H32V28C32 29.6569 30.6569 31 29 31H3C1.34315 31 0 29.6569 0 28V1Z" fill="#FCFCFC" fill-opacity="0.75"/>
<path d="M1.5 9.5H30.5V28C30.5 28.8284 29.8284 29.5 29 29.5H3C2.17157 29.5 1.5 28.8284 1.5 28V9.5Z" fill="#FCFCFC" stroke="#919191"/>
<path d="M1.5 2.5H6.5V5C6.5 5.82843 7.17157 6.5 8 6.5H10C10.8284 6.5 11.5 5.82843 11.5 5V2.5H20.5V5C20.5 5.82843 21.1716 6.5 22 6.5H24C24.8284 6.5 25.5 5.82843 25.5 5V2.5H30.5V9.5H1.5V2.5Z" fill="url(#paint0_linear_2071_13477)" stroke="#3A3A3A"/>
<rect x="8" y="1" width="2" height="4" rx="1" fill="#3A3A3A"/>
<rect x="22" y="1" width="2" height="4" rx="1" fill="#3A3A3A"/>
<rect x="5" y="13" width="6" height="3" rx="1" fill="#919191"/>
<rect x="21" y="13" width="6" height="3" rx="1" fill="#00A1DB"/>
<rect x="13" y="13" width="6" height="3" rx="1" fill="#919191"/>
<rect x="13" y="18" width="6" height="3" rx="1" fill="#919191"/>
<rect x="21" y="18" width="6" height="3" rx="1" fill="#00A1DB"/>
<rect x="13" y="23" width="6" height="3" rx="1" fill="#919191"/>
<rect x="21" y="23" width="6" height="3" rx="1" fill="#00A1DB"/>
<g clip-path="url(#clip1_2071_13477)">
<path d="M1 28L6.5 31L12 28V22L6.5 19L1 22V28Z" fill="#FCFCFC" fill-opacity="0.75"/>
<path d="M0.5 28V28.2968L0.760574 28.4389L6.26057 31.4389L6.5 31.5695L6.73943 31.4389L12.2394 28.4389L12.5 28.2968V28V22V21.7032L12.2394 21.5611L6.73943 18.5611L6.5 18.4305L6.26057 18.5611L0.760574 21.5611L0.5 21.7032V22V28Z" stroke="#FCFCFC" stroke-opacity="0.75"/>
<path d="M11.5 27.7032L6.5 30.4305L1.5 27.7032V22.2968L6.5 19.5695L11.5 22.2968V27.7032Z" stroke="#3A3A3A"/>
</g>
</g>
<defs>
<linearGradient id="paint0_linear_2071_13477" x1="16" y1="3" x2="15.9499" y2="8.99958" gradientUnits="userSpaceOnUse">
<stop offset="0.0104168" stop-color="#00A1DB"/>
<stop offset="1" stop-color="#94E1FC"/>
</linearGradient>
<clipPath id="clip0_2071_13477">
<rect width="32" height="32" fill="white"/>
</clipPath>
<clipPath id="clip1_2071_13477">
<rect width="13" height="14" fill="white" transform="translate(0 18)"/>
</clipPath>
</defs>
</svg>
