<svg width="32" height="32" viewBox="0 0 32 32" fill="none" xmlns="http://www.w3.org/2000/svg">
<g clip-path="url(#clip0_2071_13575)">
<path d="M20 8H5V2H3V30H5V25H20V24H5V9H20V8Z" fill="#F2994A"/>
<path d="M20 7.5H20.5V8V9V9.5H20H5.5V23.5H20H20.5V24V25V25.5H20H5.5V30V30.5H5H3H2.5V30V2V1.5H3H5H5.5V2V7.5H20Z" stroke="#FCFCFC" stroke-opacity="0.75"/>
<g clip-path="url(#clip1_2071_13575)">
<path d="M18 5C18 3.89543 18.8954 3 20 3C21.1046 3 22 3.89543 22 5H25C25.5523 5 26 5.44772 26 6H27.162C28.5451 6 29.5106 7.37018 29.0455 8.67267L27.737 12.3363C27.5949 12.7343 27.2179 13 26.7953 13H20C18.8954 13 18 12.1046 18 11V5Z" fill="#F2994A"/>
<path d="M20 2.5C18.6193 2.5 17.5 3.61929 17.5 5V11C17.5 12.3807 18.6193 13.5 20 13.5H26.7953C27.4292 13.5 27.9947 13.1015 28.2079 12.5045L29.5163 8.84084C30.0978 7.21273 28.8908 5.5 27.162 5.5H26.4146C26.2087 4.9174 25.6531 4.5 25 4.5H22.45C22.2184 3.35888 21.2095 2.5 20 2.5Z" stroke="#FCFCFC" stroke-opacity="0.75"/>
<path d="M20.2862 7.71265C20.4131 7.28967 20.8024 7 21.244 7H27.0682C27.7633 7 28.2464 7.69164 28.0071 8.34425L26.9071 11.3443C26.7627 11.7381 26.3878 12 25.9682 12H20.344C19.6742 12 19.1937 11.3543 19.3862 10.7127L20.2862 7.71265Z" fill="url(#paint0_radial_2071_13575)"/>
</g>
<g clip-path="url(#clip2_2071_13575)">
<path d="M18 21C18 19.8954 18.8954 19 20 19C21.1046 19 22 19.8954 22 21H25C25.5523 21 26 21.4477 26 22H27.162C28.5451 22 29.5106 23.3702 29.0455 24.6727L27.737 28.3363C27.5949 28.7343 27.2179 29 26.7953 29H20C18.8954 29 18 28.1046 18 27V21Z" fill="#F2994A"/>
<path d="M20 18.5C18.6193 18.5 17.5 19.6193 17.5 21V27C17.5 28.3807 18.6193 29.5 20 29.5H26.7953C27.4292 29.5 27.9947 29.1015 28.2079 28.5045L29.5163 24.8408C30.0978 23.2127 28.8908 21.5 27.162 21.5H26.4146C26.2087 20.9174 25.6531 20.5 25 20.5H22.45C22.2184 19.3589 21.2095 18.5 20 18.5Z" stroke="#FCFCFC" stroke-opacity="0.75"/>
<path d="M20.2862 23.7127C20.4131 23.2897 20.8024 23 21.244 23H27.0682C27.7633 23 28.2464 23.6916 28.0071 24.3443L26.9071 27.3443C26.7627 27.7381 26.3878 28 25.9682 28H20.344C19.6742 28 19.1937 27.3543 19.3862 26.7127L20.2862 23.7127Z" fill="url(#paint1_radial_2071_13575)"/>
</g>
</g>
<g clip-path="url(#clip3_2071_13575)">
<path d="M0 19H11L11 21L13 21L13 32L2 32L2 30L0 30V19Z" fill="#FCFCFC" fill-opacity="0.75"/>
<rect x="3.5" y="22.5" width="8" height="8" fill="url(#paint2_linear_2071_13575)" stroke="#00A1DB"/>
<path d="M1 20H10V21H2V29H1V20Z" fill="#00A1DB"/>
</g>
<defs>
<radialGradient id="paint0_radial_2071_13575" cx="0" cy="0" r="1" gradientUnits="userSpaceOnUse" gradientTransform="translate(23.337 12) rotate(-84.424) scale(6.37633 9.16659)">
<stop stop-color="#F2994A"/>
<stop offset="0.588115" stop-color="#F2C94C"/>
<stop offset="1" stop-color="#FCFCFC"/>
</radialGradient>
<radialGradient id="paint1_radial_2071_13575" cx="0" cy="0" r="1" gradientUnits="userSpaceOnUse" gradientTransform="translate(23.337 28) rotate(-84.424) scale(6.37633 9.16659)">
<stop stop-color="#F2994A"/>
<stop offset="0.588115" stop-color="#F2C94C"/>
<stop offset="1" stop-color="#FCFCFC"/>
</radialGradient>
<linearGradient id="paint2_linear_2071_13575" x1="10.25" y1="23.25" x2="5" y2="30" gradientUnits="userSpaceOnUse">
<stop stop-color="#94E1FC"/>
<stop offset="1" stop-color="#FCFCFC"/>
</linearGradient>
<clipPath id="clip0_2071_13575">
<rect width="29" height="28" fill="white" transform="translate(2 2)"/>
</clipPath>
<clipPath id="clip1_2071_13575">
<rect width="14" height="12" fill="white" transform="translate(17 2)"/>
</clipPath>
<clipPath id="clip2_2071_13575">
<rect width="14" height="12" fill="white" transform="translate(17 18)"/>
</clipPath>
<clipPath id="clip3_2071_13575">
<rect width="13" height="13" fill="white" transform="translate(0 19)"/>
</clipPath>
</defs>
</svg>
