<svg width="32" height="32" viewBox="0 0 32 32" fill="none" xmlns="http://www.w3.org/2000/svg">
<g clip-path="url(#clip0_2071_13685)">
<path d="M17.4 1C17.7961 1 18.1882 1.07843 18.5538 1.23077L28.7692 5.48718C29.5145 5.79772 30 6.52593 30 7.33333V9H18V12C18 12.5523 17.5523 13 17 13H8.00247C7.45067 13 7.00316 12.5531 7.00247 12.0013L6.9987 9H2V6C2 5.44772 2.44772 5 3 5H6.9987L6.99935 2.99935C6.99971 1.89503 7.89503 1 8.99935 1H17.4Z" fill="#FCFCFC" fill-opacity="0.75"/>
<path d="M7.00372 18H3C2.44772 18 2 17.5523 2 17V14H30V15.7639C30 16.5215 29.572 17.214 28.8944 17.5528L18 23H6.9987L7.00372 18Z" fill="#FCFCFC" fill-opacity="0.75"/>
<path d="M18 24H7L6.9987 31H18V24Z" fill="#FCFCFC" fill-opacity="0.75"/>
<path d="M30.5 9V9.5H30H18.5V12C18.5 12.8284 17.8284 13.5 17 13.5H30H30.5V14V15.7639C30.5 16.7109 29.965 17.5765 29.118 18L18.2236 23.4472L18.118 23.5H18.5V24V31V31.5H18H6.9987H6.4986L6.4987 30.9999L6.5 23.9999L6.50009 23.5H6.49819L6.4987 22.9995L6.50322 18.5H3C2.17157 18.5 1.5 17.8284 1.5 17V14V13.5H2H8.00247C7.17478 13.5 6.50351 12.8296 6.50247 12.0019L6.49932 9.5H2H1.5V9V6C1.5 5.17157 2.17157 4.5 3 4.5H6.49886L6.49935 2.99919C6.4998 1.61879 7.61895 0.5 8.99935 0.5H17.4C17.8621 0.5 18.3196 0.591504 18.7462 0.769231L28.9615 5.02564C29.8932 5.41382 30.5 6.32408 30.5 7.33333V9Z" stroke="#FCFCFC" stroke-opacity="0.75"/>
<path d="M29.5 15.7639V14.5H2.5V17C2.5 17.2761 2.72386 17.5 3 17.5H7.00372H7.50423L7.50372 18.0005L7.4992 22.5H17.882L28.6708 17.1056C29.179 16.8515 29.5 16.3321 29.5 15.7639ZM17.5 9V8.5H18H29.5V7.33333C29.5 6.72778 29.1359 6.18162 28.5769 5.94872L18.3615 1.69231C18.0569 1.56536 17.7301 1.5 17.4 1.5H8.99935C8.17111 1.5 7.49962 2.17128 7.49935 2.99951L7.4987 5.00016L7.49854 5.5H6.9987H3C2.72386 5.5 2.5 5.72386 2.5 6V8.5H6.9987H7.49807L7.4987 8.99937L7.50247 12.0006C7.50282 12.2765 7.72657 12.5 8.00247 12.5H17C17.2761 12.5 17.5 12.2761 17.5 12V9ZM17.5 24.5H7.49991L7.49879 30.5H17.5V24.5Z" fill="url(#paint0_linear_2071_13685)" stroke="#919191"/>
</g>
<defs>
<linearGradient id="paint0_linear_2071_13685" x1="2" y1="17.3636" x2="30" y2="17.3636" gradientUnits="userSpaceOnUse">
<stop stop-color="#D8D8D8"/>
<stop offset="1" stop-color="#F4F7F6"/>
</linearGradient>
<clipPath id="clip0_2071_13685">
<rect width="32" height="32" fill="white"/>
</clipPath>
</defs>
</svg>
