<svg width="32" height="32" viewBox="0 0 32 32" fill="none" xmlns="http://www.w3.org/2000/svg">
<g clip-path="url(#clip0_2071_13720)">
<path d="M2 3C2 1.89543 2.89543 1 4 1H26V2H28C29.1046 2 30 2.89543 30 4V8C30 9.10457 29.1046 10 28 10L26 10V12H28C29.1046 12 30 12.8954 30 14V17C30 18.1046 29.1046 19 28 19H26V21L28 21C29.1046 21 30 21.8954 30 23V26C30 27.1046 29.1046 28 28 28H26V30H4C2.89543 30 2 29.1046 2 28V3Z" fill="#FCFCFC" fill-opacity="0.75"/>
<path d="M26 4H28C28.5523 4 29 4.44772 29 5V8C29 8.55228 28.5523 9 28 9H26V4Z" fill="#3A3A3A"/>
<path d="M26 22H28C28.5523 22 29 22.4477 29 23V26C29 26.5523 28.5523 27 28 27H26V22Z" fill="#00A1DB"/>
<path d="M26 13H28C28.5523 13 29 13.4477 29 14V17C29 17.5523 28.5523 18 28 18H26V13Z" fill="#EA212D"/>
<path d="M5.5 2.5H24.5V28.5H5.5V2.5Z" fill="url(#paint0_linear_2071_13720)" stroke="#919191"/>
<path d="M3 3C3 2.44771 3.44772 2 4 2V29C3.44772 29 3 28.5523 3 28V3Z" fill="#919191"/>
<rect x="20" y="9" width="1" height="10" transform="rotate(90 20 9)" fill="#3A3A3A"/>
<rect x="20" y="12" width="1" height="10" transform="rotate(90 20 12)" fill="#3A3A3A"/>
<g clip-path="url(#clip1_2071_13720)">
<path d="M0 21H2V19H7L12 21.5V26.5L8 28.5V32H2V27H0V21Z" fill="#FCFCFC" fill-opacity="0.75"/>
<path d="M7 20L11 22V23H7V24H3V23H1V22H3V20H7Z" fill="#00A1DB"/>
<path d="M3 26H1V25H11V26L7 28H3V26Z" fill="#00A1DB"/>
<path d="M7 29H3V31H7V29Z" fill="#00A1DB"/>
</g>
</g>
<defs>
<linearGradient id="paint0_linear_2071_13720" x1="15" y1="2" x2="15" y2="29" gradientUnits="userSpaceOnUse">
<stop stop-color="#F4F7F6"/>
<stop offset="1" stop-color="#D8D8D8"/>
</linearGradient>
<clipPath id="clip0_2071_13720">
<rect width="32" height="32" fill="white"/>
</clipPath>
<clipPath id="clip1_2071_13720">
<rect width="12" height="13" fill="white" transform="translate(0 19)"/>
</clipPath>
</defs>
</svg>
