<svg width="32" height="32" viewBox="0 0 32 32" fill="none" xmlns="http://www.w3.org/2000/svg">
<g clip-path="url(#clip0_2071_13787)">
<rect x="1" y="2" width="30" height="27" fill="#FCFCFC" fill-opacity="0.75"/>
<rect x="0.5" y="1.5" width="31" height="28" stroke="#FCFCFC" stroke-opacity="0.75"/>
<rect x="1.5" y="2.5" width="29" height="26" fill="#FCFCFC" stroke="#919191"/>
<rect x="1.5" y="2.5" width="29" height="5" fill="url(#paint0_linear_2071_13787)" stroke="#3A3A3A"/>
<rect x="5" y="12" width="6" height="2" fill="#919191"/>
<rect x="21" y="12" width="6" height="2" fill="#919191"/>
<rect x="13" y="12" width="6" height="2" fill="#919191"/>
<rect x="13" y="17" width="6" height="2" fill="#919191"/>
<rect x="13" y="22" width="6" height="2" fill="#919191"/>
<rect x="5" y="17" width="6" height="2" fill="#919191"/>
<rect x="21" y="17" width="6" height="2" fill="#919191"/>
<rect x="21" y="22" width="6" height="2" fill="#919191"/>
<g clip-path="url(#clip1_2071_13787)">
<path d="M0 21H2V19H7L12 21.5V26.5L8 28.5V32H2V27H0V21Z" fill="#FCFCFC" fill-opacity="0.75"/>
<path d="M7 20L11 22V23H7V24H3V23H1V22H3V20H7Z" fill="#00A1DB"/>
<path d="M3 26H1V25H11V26L7 28H3V26Z" fill="#00A1DB"/>
<path d="M7 29H3V31H7V29Z" fill="#00A1DB"/>
</g>
<rect x="1" y="27" width="1" height="2" fill="#FCFCFC" fill-opacity="0.75"/>
</g>
<defs>
<linearGradient id="paint0_linear_2071_13787" x1="15.5" y1="7" x2="15.5" y2="3" gradientUnits="userSpaceOnUse">
<stop stop-color="#94E1FC"/>
<stop offset="1" stop-color="#00A1DB"/>
</linearGradient>
<clipPath id="clip0_2071_13787">
<rect width="32" height="32" fill="white"/>
</clipPath>
<clipPath id="clip1_2071_13787">
<rect width="12" height="13" fill="white" transform="translate(0 19)"/>
</clipPath>
</defs>
</svg>
