<svg width="32" height="32" viewBox="0 0 32 32" fill="none" xmlns="http://www.w3.org/2000/svg">
<g clip-path="url(#clip0_2071_13870)">
<path d="M0 14C0 12.8954 0.895431 12 2 12H8V15H22V12H30C31.1046 12 32 12.8954 32 14V24C32 25.1046 31.1046 26 30 26H28V27C28 28.1046 27.1046 29 26 29H5C3.89543 29 3 28.1046 3 27V26H2C0.895431 26 0 25.1046 0 24V14Z" fill="#FCFCFC" fill-opacity="0.75"/>
<path d="M23.5 15V13.5H30C30.2761 13.5 30.5 13.7239 30.5 14V24C30.5 24.2761 30.2761 24.5 30 24.5H26.9091H5.09091H2C1.72386 24.5 1.5 24.2761 1.5 24V14C1.5 13.7239 1.72386 13.5 2 13.5H6.5V15V15.5H7H23H23.5V15Z" fill="#94E1FC" stroke="#919191"/>
<path d="M4.5 22.5H26.5V27C26.5 27.2761 26.2761 27.5 26 27.5H5C4.72386 27.5 4.5 27.2761 4.5 27V22.5Z" fill="url(#paint0_linear_2071_13870)" stroke="#919191"/>
<rect x="25" y="17" width="3" height="2" rx="1" fill="#3A3A3A"/>
<rect x="5" y="24" width="21" height="3" fill="url(#paint1_linear_2071_13870)"/>
<g clip-path="url(#clip1_2071_13870)">
<path d="M9 4H17L21 8V14H9V4Z" fill="#FCFCFC" fill-opacity="0.75"/>
<path d="M9 3.5H8.5V4V14V14.5H9H21H21.5V14V8V7.79289L21.3536 7.64645L17.3536 3.64645L17.2071 3.5H17H9Z" stroke="#FCFCFC" stroke-opacity="0.75"/>
<path d="M9.5 4.5H16.7929L20.5 8.20711V13.5H9.5V4.5Z" fill="url(#paint2_linear_2071_13870)" stroke="#919191"/>
<path d="M16 4H17V8H21V9H16V4Z" fill="#919191"/>
</g>
</g>
<defs>
<linearGradient id="paint0_linear_2071_13870" x1="15.5" y1="22" x2="15.5" y2="28" gradientUnits="userSpaceOnUse">
<stop stop-color="#FCFCFC"/>
<stop offset="1" stop-color="#E6EAEA"/>
</linearGradient>
<linearGradient id="paint1_linear_2071_13870" x1="16" y1="24" x2="15.9992" y2="27" gradientUnits="userSpaceOnUse">
<stop stop-color="#94E1FC"/>
<stop offset="1" stop-color="#00A1DB"/>
</linearGradient>
<linearGradient id="paint2_linear_2071_13870" x1="15" y1="4" x2="15" y2="14" gradientUnits="userSpaceOnUse">
<stop stop-color="#F4F7F6"/>
<stop offset="1" stop-color="#D8D8D8"/>
</linearGradient>
<clipPath id="clip0_2071_13870">
<rect width="32" height="32" fill="white"/>
</clipPath>
<clipPath id="clip1_2071_13870">
<rect width="14" height="12" fill="white" transform="translate(8 3)"/>
</clipPath>
</defs>
</svg>
