<svg width="32" height="32" viewBox="0 0 32 32" fill="none" xmlns="http://www.w3.org/2000/svg">
<g clip-path="url(#clip0_2079_14297)">
<path d="M3 27.6667C3 21.7756 7.77563 17 13.6667 17H18.3333C24.2244 17 29 21.7756 29 27.6667V31H23V27H21V31H11V27H9V31H3V27.6667Z" fill="#FCFCFC" fill-opacity="0.75"/>
<path d="M29 31.5H29.5V31V27.6667C29.5 21.4995 24.5005 16.5 18.3333 16.5H13.6667C7.49949 16.5 2.5 21.4995 2.5 27.6667V31V31.5H3H9H9.5V31V27.5H10.5V31V31.5H11H21H21.5V31V27.5H22.5V31V31.5H23H29Z" stroke="#FCFCFC" stroke-opacity="0.75"/>
<path d="M23 9C23 11.866 19.866 15 16 15C12.134 15 9 11.866 9 9H23Z" fill="#FCFCFC" fill-opacity="0.75"/>
<path d="M23.5 9V8.5H23H9H8.5V9C8.5 10.6101 9.37317 12.2363 10.7155 13.4462C12.0646 14.6622 13.9312 15.5 16 15.5C18.0688 15.5 19.9354 14.6622 21.2845 13.4462C22.6268 12.2363 23.5 10.6101 23.5 9Z" stroke="#FCFCFC" stroke-opacity="0.75"/>
<path d="M22.4645 9.5C22.3092 10.6116 21.6497 11.7707 20.615 12.7033C19.4306 13.7708 17.7972 14.5 16 14.5C14.2028 14.5 12.5694 13.7708 11.385 12.7033C10.3503 11.7707 9.69084 10.6116 9.53546 9.5H22.4645Z" fill="url(#paint0_linear_2079_14297)" stroke="#919191"/>
<path d="M3.5 27.6667C3.5 22.0518 8.05177 17.5 13.6667 17.5H18.3333C23.9482 17.5 28.5 22.0518 28.5 27.6667V30.5H23.5V27.5C23.5 26.9477 23.0523 26.5 22.5 26.5C21.9477 26.5 21.5 26.9477 21.5 27.5V30.5H10.5V27.5C10.5 26.9477 10.0523 26.5 9.5 26.5C8.94771 26.5 8.5 26.9477 8.5 27.5V30.5H3.5V27.6667Z" fill="url(#paint1_linear_2079_14297)" stroke="#919191"/>
<path d="M6 7C6 5.89543 6.89543 5 8 5C8 5 9 1.5 13 1H14C14 0.447715 14.4477 0 15 0H17C17.5523 0 18 0.447715 18 1H19C23 1.5 24 5 24 5C25.1046 5 26 5.89543 26 7C26 8.10457 25.1046 9 24 9V8H8V9C6.89543 9 6 8.10457 6 7Z" fill="#FCFCFC" fill-opacity="0.75"/>
<path d="M15 2C15 1.44772 15.4477 1 16 1C16.5523 1 17 1.44772 17 2V5H15V2Z" fill="#F2994A"/>
<path d="M18 2C22 2 23 6 23 6L24 6C24.5523 6 25 6.44772 25 7C25 7.55228 24.5523 8 24 8H8C7.44772 8 7 7.55228 7 7C7 6.44772 7.44771 6 8 6L9 6C9 6 10 2 14 2V6H18V2Z" fill="#F2994A"/>
</g>
<defs>
<linearGradient id="paint0_linear_2079_14297" x1="23" y1="12.2727" x2="9" y2="12.2727" gradientUnits="userSpaceOnUse">
<stop stop-color="#F4F7F6"/>
<stop offset="1" stop-color="#D8D8D8"/>
</linearGradient>
<linearGradient id="paint1_linear_2079_14297" x1="29" y1="24.6364" x2="3" y2="24.6364" gradientUnits="userSpaceOnUse">
<stop stop-color="#F4F7F6"/>
<stop offset="1" stop-color="#D8D8D8"/>
</linearGradient>
<clipPath id="clip0_2079_14297">
<rect width="32" height="32" fill="white"/>
</clipPath>
</defs>
</svg>
