<svg width="32" height="32" viewBox="0 0 32 32" fill="none" xmlns="http://www.w3.org/2000/svg">
<g clip-path="url(#clip0_2080_14683)">
<path d="M12 19.9997C12 19.4474 11.5522 18.9998 11 19V8C13.5 8 17 9 17 9C17 9 15 5 11 5V3C11 2.44772 10.5523 2 10 2C9.44772 2 9 2.44772 9 3V5H6.9974V4C6.9974 2.89543 6.10196 2 4.9974 2H1V11L4.9975 10.9998C6.10203 10.9997 6.9974 10.1043 6.9974 8.99978V8H9V18.9997C8.44771 18.9997 8 19.4474 8 19.9997V29C8 29.5523 8.44771 30 9 30H11C11.5523 30 12 29.5523 12 29V19.9997Z" fill="#FCFCFC" fill-opacity="0.75"/>
<path d="M17.447 8.776C17.4471 8.7762 17.4472 8.77639 17 9L17.4472 8.77639L17.9555 9.79302L16.8627 9.48078L16.8627 9.48077L16.8626 9.48076L16.8624 9.48068L16.8608 9.48024L16.854 9.4783L16.8257 9.47037C16.8005 9.46333 16.7627 9.45289 16.7136 9.43952C16.6152 9.41279 16.4712 9.37439 16.2904 9.32821C15.9284 9.2358 15.4199 9.11251 14.8345 8.98927C13.8154 8.77473 12.5872 8.56552 11.5 8.51272V18.5853C12.0826 18.7911 12.5 19.3466 12.5 19.9997V29C12.5 29.8284 11.8284 30.5 11 30.5H9C8.17157 30.5 7.5 29.8284 7.5 29V19.9997C7.5 19.3466 7.9174 18.7909 8.5 18.585V8.5H7.4974V8.99978C7.4974 10.3804 6.37819 11.4997 4.99753 11.4998L1.00003 11.5L0.5 11.5V11V2V1.5H1H4.9974C6.37811 1.5 7.4974 2.61929 7.4974 4V4.5H8.5V3C8.5 2.17157 9.17157 1.5 10 1.5C10.8284 1.5 11.5 2.17157 11.5 3V4.51941C13.4287 4.6702 14.8813 5.67424 15.8536 6.64645C16.3822 7.17505 16.7775 7.70232 17.041 8.09765C17.1731 8.29574 17.2728 8.46186 17.3404 8.58006C17.3742 8.63919 17.3999 8.68642 17.4177 8.71978C17.4266 8.73647 17.4335 8.74969 17.4385 8.7592L17.4443 8.77067L17.4461 8.77426L17.4468 8.77551L17.447 8.776Z" stroke="#FCFCFC" stroke-opacity="0.75"/>
<path d="M11.0002 19.5L10.5 19.5002V19V8V7.5H11C12.3034 7.5 13.8445 7.75893 15.0405 8.01073C15.3455 8.07493 15.63 8.13912 15.885 8.19919C15.6835 7.93547 15.4372 7.64426 15.1464 7.35355C14.2009 6.40805 12.8206 5.5 11 5.5H10.5V5V3C10.5 2.72386 10.2761 2.5 10 2.5C9.72386 2.5 9.5 2.72386 9.5 3V5V5.5H9H6.9974H6.4974V5V4C6.4974 3.17157 5.82582 2.5 4.9974 2.5H1.5V10.5L4.99748 10.4998C5.82587 10.4997 6.4974 9.82818 6.4974 8.99978V8V7.5H6.9974H9H9.5V8V18.9997V19.4997H9C8.72386 19.4997 8.5 19.7235 8.5 19.9997V29C8.5 29.2761 8.72386 29.5 9 29.5H11C11.2761 29.5 11.5 29.2761 11.5 29V19.9997C11.5 19.7236 11.2762 19.4999 11.0002 19.5Z" fill="#919191" stroke="#3A3A3A"/>
</g>
<g clip-path="url(#clip1_2080_14683)">
<path d="M20.0402 23.8578C19.988 22.7228 20.6419 21.679 21.6581 21.1708L23.4473 20.2761C23.786 20.1067 24 19.7604 24 19.3817V10C22.8954 10 22 9.10457 22 8V6C22 4.89543 22.8954 4 24 4V3C24 2.44772 24.4477 2 25 2H25.9987C26.551 2 26.9987 2.44772 26.9987 3V4C28.1033 4 29 4.89543 29 6V7.99967C29 9.10437 28.1034 9.99985 26.9987 9.99967V19.3819C26.9987 19.7607 27.2128 20.107 27.5516 20.2764L29.3413 21.1709C30.3578 21.679 31.012 22.723 30.9597 23.8583C30.6769 30 29 30 29 30H28V26C28 25.4477 27.5523 25 27 25H23.9987C23.4464 25 22.9987 25.4477 22.9987 26V29.9997L22 30C22 30 20.3228 30 20.0402 23.8578Z" fill="#FCFCFC" fill-opacity="0.75"/>
<path d="M29 30C29 30.5 29.0009 30.5 29.0018 30.5L29.0037 30.5L29.0075 30.4999L29.0157 30.4998L29.0342 30.4989C29.0475 30.4982 29.0625 30.4969 29.0792 30.4949C29.1126 30.4908 29.1524 30.4838 29.1977 30.4721C29.2889 30.4485 29.3995 30.4065 29.5217 30.334C29.7678 30.1879 30.042 29.9296 30.304 29.487C30.8203 28.615 31.3164 26.9826 31.4592 23.8813C31.5212 22.5356 30.7464 21.3143 29.5648 20.7237L27.7752 19.8291C27.6057 19.7444 27.4987 19.5713 27.4987 19.3819V10.4497C28.64 10.2183 29.5 9.20955 29.5 7.99967V6C29.5 4.79017 28.6398 3.78159 27.4987 3.55001V3C27.4987 2.17157 26.8271 1.5 25.9987 1.5H25C24.1716 1.5 23.5 2.17157 23.5 3V3.55001C22.3589 3.78164 21.5 4.79052 21.5 6V8C21.5 9.20948 22.3589 10.2184 23.5 10.45V19.3817C23.5 19.5711 23.393 19.7442 23.2236 19.8289L21.4345 20.7236C20.2533 21.3143 19.4788 22.5354 19.5407 23.8808C19.6834 26.9823 20.1794 28.6149 20.6958 29.487C20.9579 29.9296 21.2322 30.1879 21.4783 30.334C21.6005 30.4065 21.7111 30.4485 21.8023 30.4721C21.8476 30.4838 21.8875 30.4908 21.9208 30.4949C21.9375 30.4969 21.9525 30.4982 21.9658 30.4989L21.9843 30.4998L21.9925 30.4999L21.9963 30.5L21.9982 30.5C21.9991 30.5 22 30.5 22 30V30.0002V30.5H22.0002L22.9989 30.4997L23.4987 30.4995V29.9997V26C23.4987 25.7239 23.7226 25.5 23.9987 25.5H27C27.2761 25.5 27.5 25.7239 27.5 26V30V30.5H28H29V30Z" stroke="#FCFCFC" stroke-opacity="0.75"/>
<path d="M24.5 10V9.5H24C23.1716 9.5 22.5 8.82843 22.5 8V6C22.5 5.17157 23.1716 4.5 24 4.5H24.5V4V3C24.5 2.72386 24.7239 2.5 25 2.5H25.9987C26.2748 2.5 26.4987 2.72386 26.4987 3V4V4.5H26.9987C27.8275 4.5 28.5 5.172 28.5 6V7.99967C28.5 8.82788 27.8276 9.49981 26.9988 9.49967L26.4987 9.49959V9.99967V19.3819C26.4987 19.9501 26.8198 20.4696 27.3281 20.7236L29.1177 21.6182C29.9692 22.0438 30.5028 22.9104 30.4602 23.8353C30.3202 26.8757 29.8364 28.3141 29.4436 28.9775C29.251 29.3027 29.0883 29.4283 29.0112 29.4741C28.9875 29.4882 28.9698 29.4959 28.9592 29.5H28.5V26C28.5 25.1716 27.8284 24.5 27 24.5H23.9987C23.1703 24.5 22.4987 25.1716 22.4987 26V29.4998L22.0408 29.5C22.0301 29.4959 22.0124 29.4881 21.9888 29.4741C21.9115 29.4282 21.7489 29.3027 21.5563 28.9775C21.1634 28.314 20.6795 26.8755 20.5397 23.8348C20.4971 22.9102 21.0305 22.0437 21.8817 21.618L23.6709 20.7233C24.179 20.4692 24.5 19.9498 24.5 19.3817V10Z" fill="#919191" stroke="#3A3A3A"/>
<rect x="24" y="6" width="3" height="2" rx="1" fill="#3A3A3A"/>
</g>
<defs>
<clipPath id="clip0_2080_14683">
<rect width="19" height="30" fill="white" transform="matrix(-1 0 0 1 19 1)"/>
</clipPath>
<clipPath id="clip1_2080_14683">
<rect width="13" height="30" fill="white" transform="translate(19 1)"/>
</clipPath>
</defs>
</svg>
