<svg width="32" height="32" viewBox="0 0 32 32" fill="none" xmlns="http://www.w3.org/2000/svg">
<g clip-path="url(#clip0_2082_14726)">
<g clip-path="url(#clip1_2082_14726)">
<path d="M17 31C12 31 7 27 7 23L17 23C17.5523 23 18 22.5523 18 22L18 10C18 9.44772 17.5523 9 17 9L7 9C7 4 12 1 17 1C21.4151 1 26.6099 3.33916 27.7649 8.01748C28.0296 9.08985 28.8954 10 30 10L33 10L33 21L30 21C28.8954 21 28.0242 21.908 27.7735 22.9837C26.636 27.8654 21.4262 31 17 31Z" fill="#FCFCFC" fill-opacity="0.75"/>
<path d="M7 22.5L6.5 22.5L6.5 23C6.5 25.2061 7.86907 27.3356 9.81265 28.8904C11.765 30.4523 14.3728 31.5 17 31.5C19.3239 31.5 21.8315 30.6799 23.9061 29.2326C25.9829 27.7837 27.658 25.6825 28.2605 23.0972C28.4746 22.1781 29.1925 21.5 30 21.5L33 21.5L33.5 21.5L33.5 21L33.5 10L33.5 9.5L33 9.5L30 9.5C29.1944 9.5 28.4784 8.82149 28.2503 7.89764C27.6331 5.39766 25.9396 3.54352 23.8579 2.32303C21.7798 1.10471 19.2887 0.5 17 0.5C14.4072 0.5 11.8004 1.27633 9.82932 2.7218C7.84968 4.17353 6.5 6.31335 6.5 9L6.5 9.5L7 9.5L17 9.5C17.2761 9.5 17.5 9.72386 17.5 10L17.5 22C17.5 22.2761 17.2761 22.5 17 22.5L7 22.5Z" stroke="#FCFCFC" stroke-opacity="0.75"/>
<path d="M17 30.5C14.6272 30.5 12.235 29.5477 10.4373 28.1096C8.79822 26.7983 7.71527 25.1367 7.52874 23.5L17 23.5C17.8284 23.5 18.5 22.8284 18.5 22L18.5 10C18.5 9.17157 17.8284 8.5 17 8.5L7.51823 8.5C7.67148 6.4177 8.77973 4.73157 10.4207 3.5282C12.1996 2.22367 14.5928 1.5 17 1.5C19.1264 1.5 21.4403 2.06487 23.3521 3.18571C25.2602 4.30439 26.7417 5.95898 27.2795 8.13732C27.5809 9.35822 28.5965 10.5 30 10.5L32.5 10.5L32.5 20.5L30 20.5C28.5984 20.5 27.5737 21.6378 27.2865 22.8702C26.7515 25.1666 25.253 27.0736 23.3339 28.4124C21.4127 29.7528 19.1023 30.5 17 30.5Z" fill="url(#paint0_linear_2082_14726)" stroke="#919191"/>
</g>
<g clip-path="url(#clip2_2082_14726)">
<path d="M5 10H11L14 13V19L11 22H5L2 19V13L5 10Z" fill="#FCFCFC" fill-opacity="0.75"/>
<path d="M5 9.5H4.79289L4.64645 9.64645L1.64645 12.6464L1.5 12.7929V13V19V19.2071L1.64645 19.3536L4.64645 22.3536L4.79289 22.5H5H11H11.2071L11.3536 22.3536L14.3536 19.3536L14.5 19.2071V19V13V12.7929L14.3536 12.6464L11.3536 9.64645L11.2071 9.5H11H5Z" stroke="#FCFCFC" stroke-opacity="0.75"/>
<path d="M2.5 13.2071L5.20711 10.5H10.7929L13.5 13.2071V18.7929L10.7929 21.5H5.20711L2.5 18.7929V13.2071Z" fill="#94E1FC" stroke="#00A1DB"/>
<path d="M7 14H9L10 15V17L9 18H7L6 17V15L7 14Z" fill="#FCFCFC"/>
</g>
</g>
<defs>
<linearGradient id="paint0_linear_2082_14726" x1="18.8182" y1="31" x2="18.8182" y2="0.999999" gradientUnits="userSpaceOnUse">
<stop stop-color="#F4F7F6"/>
<stop offset="1" stop-color="#D8D8D8"/>
</linearGradient>
<clipPath id="clip0_2082_14726">
<rect width="32" height="32" fill="white"/>
</clipPath>
<clipPath id="clip1_2082_14726">
<rect width="32" height="32" fill="white"/>
</clipPath>
<clipPath id="clip2_2082_14726">
<rect width="14" height="14" fill="white" transform="translate(1 9)"/>
</clipPath>
</defs>
</svg>
