<svg width="32" height="32" viewBox="0 0 32 32" fill="none" xmlns="http://www.w3.org/2000/svg">
<g clip-path="url(#clip0_2091_16461)">
<path d="M23 0H4V32H28V5L23 0Z" fill="#FCFCFC" fill-opacity="0.75"/>
<path d="M5.5 1.5H21.7929L26.5 6.20711V30.5H5.5V1.5Z" fill="url(#paint0_linear_2091_16461)" stroke="#3A3A3A"/>
<path d="M21 1H22V6H27V7H21V1Z" fill="#3A3A3A"/>
</g>
<g clip-path="url(#clip1_2091_16461)">
<path d="M1 19H10V21H11V25H10V32H1V25H0V21H1V19Z" fill="#FCFCFC" fill-opacity="0.75"/>
<path d="M1 22H4V24H1V22Z" fill="#00A1DB"/>
<path d="M2 20H3V31H2V20Z" fill="#00A1DB"/>
<path d="M7 22H10V24H7V22Z" fill="#00A1DB"/>
<path d="M8 20H9V31H8V20Z" fill="#00A1DB"/>
<path d="M4 27H7V29H4V27Z" fill="#00A1DB"/>
<path d="M5 20H6V31H5V20Z" fill="#00A1DB"/>
</g>
<defs>
<linearGradient id="paint0_linear_2091_16461" x1="16" y1="1" x2="16" y2="31" gradientUnits="userSpaceOnUse">
<stop stop-color="#FCFCFC"/>
<stop offset="1" stop-color="#E6EAEA"/>
</linearGradient>
<clipPath id="clip0_2091_16461">
<rect width="24" height="32" fill="white" transform="translate(4)"/>
</clipPath>
<clipPath id="clip1_2091_16461">
<rect width="11" height="13" fill="white" transform="translate(0 19)"/>
</clipPath>
</defs>
</svg>
