<svg width="32" height="32" viewBox="0 0 32 32" fill="none" xmlns="http://www.w3.org/2000/svg">
<g clip-path="url(#clip0_2092_16579)">
<path d="M23 0H4V32H28V5L23 0Z" fill="#FCFCFC" fill-opacity="0.75"/>
<path d="M5.5 1.5H21.7929L26.5 6.20711V30.5H5.5V1.5Z" fill="url(#paint0_linear_2092_16579)" stroke="#3A3A3A"/>
<path d="M21 1H22V6H27V7H21V1Z" fill="#3A3A3A"/>
</g>
<g clip-path="url(#clip1_2092_16579)">
<path d="M10 31L10 24L6 24L6 20L1 20L1 31L10 31Z" fill="#FCFCFC" fill-opacity="0.75"/>
<path d="M10.5 31L10.5 31.5L10 31.5L1 31.5L0.500001 31.5L0.500001 31L0.5 20L0.5 19.5L1 19.5L6 19.5L6.5 19.5L6.5 20L6.5 23.5L10 23.5L10.5 23.5L10.5 24L10.5 31Z" stroke="#FCFCFC" stroke-opacity="0.75"/>
<path d="M5.5 24L5.5 20.5L1.5 20.5L1.5 30.5L9.5 30.5L9.5 24.5L6 24.5L5.5 24.5L5.5 24Z" fill="url(#paint1_linear_2092_16579)" stroke="#00A1DB"/>
</g>
<defs>
<linearGradient id="paint0_linear_2092_16579" x1="16" y1="1" x2="16" y2="31" gradientUnits="userSpaceOnUse">
<stop stop-color="#FCFCFC"/>
<stop offset="1" stop-color="#E6EAEA"/>
</linearGradient>
<linearGradient id="paint1_linear_2092_16579" x1="8.75" y1="22.1389" x2="1.03922" y2="27.0458" gradientUnits="userSpaceOnUse">
<stop stop-color="#94E1FC"/>
<stop offset="1" stop-color="#FCFCFC"/>
</linearGradient>
<clipPath id="clip0_2092_16579">
<rect width="24" height="32" fill="white" transform="translate(4)"/>
</clipPath>
<clipPath id="clip1_2092_16579">
<rect width="11" height="13" fill="white" transform="translate(0 19)"/>
</clipPath>
</defs>
</svg>
