<svg width="32" height="32" viewBox="0 0 32 32" fill="none" xmlns="http://www.w3.org/2000/svg">
<g clip-path="url(#clip0_2092_16618)">
<path d="M23 0H4V32H28V5L23 0Z" fill="#FCFCFC" fill-opacity="0.75"/>
<path d="M5.5 1.5H21.7929L26.5 6.20711V30.5H5.5V1.5Z" fill="url(#paint0_linear_2092_16618)" stroke="#3A3A3A"/>
<path d="M21 1H22V6H27V7H21V1Z" fill="#3A3A3A"/>
</g>
<g clip-path="url(#clip1_2092_16618)">
<path fill-rule="evenodd" clip-rule="evenodd" d="M2.26789 20.8058C2.72835 20.3369 3.31946 19.9999 3.99697 20C4.86834 20.0001 5.56433 20.2948 6.06615 20.8061C6.55842 21.3076 6.82613 21.9784 6.93078 22.6758C7.13796 24.0564 6.7298 25.6914 5.89856 26.7997C5.88439 26.8186 5.86889 26.8365 5.85218 26.8532L4.45574 28.2502L5.85187 29.6463C5.95877 29.7532 6.04233 29.8365 6.11657 29.9032C6.12647 29.9121 6.1358 29.9203 6.14458 29.9279C6.20828 29.8186 6.29721 29.6288 6.41274 29.3127C6.57548 28.8674 6.76933 28.2366 7.01902 27.3626C7.06769 27.1923 7.20286 27.0604 7.37436 27.016C7.54585 26.9715 7.72806 27.0212 7.85333 27.1464C8.10342 27.3965 8.56146 27.8549 8.97774 28.2715L9.27321 28.5672C9.30421 28.4416 9.33447 28.3121 9.36595 28.1775C9.39286 28.0623 9.42066 27.9434 9.45057 27.8198C9.52434 27.515 9.60788 27.1958 9.709 26.916C9.80492 26.6505 9.93924 26.3534 10.1462 26.1464C10.3415 25.9512 10.6581 25.9512 10.8533 26.1464C11.0486 26.3417 11.0486 26.6583 10.8533 26.8536C10.8103 26.8966 10.7361 27.0161 10.6495 27.2559C10.568 27.4812 10.4949 27.7557 10.4225 28.055C10.3968 28.1614 10.3706 28.2734 10.3441 28.3863C10.2994 28.5775 10.254 28.7714 10.2093 28.9449C10.1386 29.2193 10.0548 29.5048 9.94552 29.7234C9.87365 29.8672 9.73705 29.9676 9.5784 29.9934C9.41976 30.0191 9.2584 29.967 9.14476 29.8534L8.27035 28.9783C8.09579 28.8036 7.91393 28.6216 7.74314 28.4507C7.59699 28.9383 7.46875 29.3365 7.35198 29.656C7.18388 30.1159 7.0149 30.4872 6.80269 30.7154C6.68554 30.8414 6.52494 30.9573 6.31425 30.9915C6.10437 31.0255 5.92288 30.9658 5.78924 30.8955C5.66004 30.8276 5.54486 30.7338 5.44854 30.6473C5.35195 30.5606 5.24995 30.4586 5.15027 30.3589L3.74877 28.9574L1.8534 30.8535C1.65817 31.0488 1.34159 31.0488 1.14629 30.8536C0.950993 30.6584 0.950933 30.3418 1.14616 30.1465L3.04166 28.2503L1.64476 26.8534C1.62803 26.8367 1.61251 26.8188 1.59831 26.7998C0.710035 25.6155 0.742973 23.9205 1.20825 22.5853C1.44491 21.9062 1.80689 21.2753 2.26789 20.8058ZM3.74863 27.5431L5.119 26.1722C5.77428 25.2801 6.10806 23.9318 5.94185 22.8242C5.85894 22.2716 5.65767 21.8175 5.35248 21.5066C5.05685 21.2054 4.62693 21.0001 3.99686 21C3.66809 21 3.31873 21.1629 2.9814 21.5065C2.64461 21.8494 2.35147 22.3435 2.15256 22.9144C1.75113 24.0663 1.78576 25.3555 2.37835 26.1728L3.74863 27.5431Z" fill="#00A1DB"/>
<path d="M6.29856 27.0997L6.29856 27.0997C7.21105 25.883 7.65204 24.113 7.42524 22.6016C7.30975 21.8319 7.00887 21.0528 6.42299 20.4559C5.81797 19.8394 4.98889 19.5001 3.99702 19.5C3.14477 19.4999 2.43281 19.9242 1.91113 20.4555C1.38802 20.9882 0.991628 21.6875 0.736094 22.4208C0.241352 23.8405 0.171469 25.7307 1.19831 27.0998C1.2267 27.1377 1.25775 27.1735 1.2912 27.2069L2.33462 28.2504L0.792537 29.793C0.402087 30.1836 0.402207 30.8168 0.792806 31.2072C1.1834 31.5977 1.81657 31.5976 2.20702 31.207L3.74883 29.6646L4.79671 30.7124L4.79671 30.7125L4.80166 30.7174C4.89789 30.8136 5.00785 30.9236 5.11452 31.0194C5.22111 31.1151 5.37256 31.2413 5.5565 31.338C5.74891 31.4392 6.04225 31.5422 6.39436 31.485C6.74816 31.4276 7.00281 31.2344 7.16883 31.0559C7.45736 30.7457 7.65444 30.285 7.8216 29.8276C7.87053 29.6937 7.92105 29.5476 7.97354 29.3887L8.79107 30.2068L8.7912 30.2069C9.0185 30.4342 9.3412 30.5384 9.65849 30.4869C9.97579 30.4354 10.249 30.2346 10.3927 29.9471C10.528 29.6766 10.6225 29.3453 10.6935 29.0697C10.7396 28.8907 10.786 28.6923 10.8302 28.5034L10.831 28.5003C10.8575 28.3869 10.8833 28.2768 10.9085 28.1726C10.9803 27.876 11.0481 27.6239 11.1197 27.4258C11.1569 27.3228 11.1879 27.2557 11.209 27.2161C11.2157 27.2035 11.2208 27.1948 11.2242 27.1894C11.5973 26.7976 11.5916 26.1776 11.2069 25.7929C10.8164 25.4024 10.1832 25.4024 9.79267 25.7929C9.50395 26.0816 9.33956 26.4671 9.23877 26.746C9.14223 27.0132 9.06249 27.3064 8.99436 27.5808C8.68571 27.2719 8.39037 26.9764 8.20688 26.7929C7.95634 26.5424 7.59193 26.4431 7.24894 26.532C6.90594 26.6208 6.63559 26.8846 6.53825 27.2253C6.30428 28.0442 6.12286 28.637 5.97244 29.0598L5.16278 28.2501L6.2058 27.2067C6.23921 27.1732 6.27021 27.1375 6.29856 27.0997ZM4.73748 25.8466L3.74856 26.8359L2.76183 25.8491C2.32038 25.2096 2.2591 24.1281 2.62471 23.0789C2.80474 22.5623 3.06345 22.1365 3.33816 21.8568C3.61332 21.5766 3.84175 21.5 3.99681 21.5C4.50599 21.5001 4.80296 21.6605 4.99565 21.8568C5.20741 22.0726 5.37537 22.4185 5.44738 22.8984C5.59225 23.8638 5.3002 25.0608 4.73748 25.8466Z" stroke="#FCFCFC" stroke-opacity="0.75" stroke-linecap="round" stroke-linejoin="round"/>
</g>
<defs>
<linearGradient id="paint0_linear_2092_16618" x1="16" y1="1" x2="16" y2="31" gradientUnits="userSpaceOnUse">
<stop stop-color="#FCFCFC"/>
<stop offset="1" stop-color="#E6EAEA"/>
</linearGradient>
<clipPath id="clip0_2092_16618">
<rect width="24" height="32" fill="white" transform="translate(4)"/>
</clipPath>
<clipPath id="clip1_2092_16618">
<rect width="12" height="13" fill="white" transform="translate(0 19)"/>
</clipPath>
</defs>
</svg>
