<svg width="32" height="32" viewBox="0 0 32 32" fill="none" xmlns="http://www.w3.org/2000/svg">
<g clip-path="url(#clip0_2093_16857)">
<g clip-path="url(#clip1_2093_16857)">
<path d="M3 0H29V7L31.4142 9.41421C31.7893 9.78929 32 10.298 32 10.8284V29C32 30.6569 30.6569 32 29 32H3C1.34315 32 0 30.6569 0 29V10.8284C0 10.298 0.210714 9.78929 0.585786 9.41421L3 7V0Z" fill="#FCFCFC" fill-opacity="0.75"/>
<path d="M1 11.4142C1 11.149 1.10536 10.8946 1.29289 10.7071L4 8H28L30.7071 10.7071C30.8946 10.8946 31 11.149 31 11.4142V17H1V11.4142Z" fill="#919191"/>
<path d="M4.5 1.5H27.5V26.5H4.5V1.5Z" fill="url(#paint0_linear_2093_16857)" stroke="#00A1DB"/>
<path d="M1 12H2L13 23H19L30 12H31V29C31 30.1046 30.1046 31 29 31H3C1.89543 31 1 30.1046 1 29V12Z" fill="url(#paint1_linear_2093_16857)"/>
<path d="M2 29.9998L11.3333 20.6665" stroke="#3A3A3A"/>
<path d="M30 29.9998L20.6667 20.6665" stroke="#3A3A3A"/>
<path d="M2 12L12.6213 22.6213C13.1839 23.1839 13.947 23.5 14.7426 23.5H17.2574C18.053 23.5 18.8161 23.1839 19.3787 22.6213L30 12" stroke="#919191"/>
<path d="M1 12H2V29C2 29.5523 2.44772 30 3 30H29C29.5523 30 30 29.5523 30 29V12H31V29C31 30.1046 30.1046 31 29 31H3C1.89543 31 1 30.1046 1 29V12Z" fill="#919191"/>
<rect width="7" height="1" transform="matrix(-1 0 0 1 16 7)" fill="#00A1DB"/>
<rect width="14" height="1" transform="matrix(-1 0 0 1 23 10)" fill="#00A1DB"/>
<rect width="14" height="1" transform="matrix(-1 0 0 1 23 13)" fill="#00A1DB"/>
</g>
</g>
<defs>
<linearGradient id="paint0_linear_2093_16857" x1="16" y1="1" x2="16" y2="27" gradientUnits="userSpaceOnUse">
<stop stop-color="#FCFCFC"/>
<stop offset="1" stop-color="#E6EAEA"/>
</linearGradient>
<linearGradient id="paint1_linear_2093_16857" x1="16" y1="12" x2="16" y2="31" gradientUnits="userSpaceOnUse">
<stop stop-color="#F4F7F6"/>
<stop offset="1" stop-color="#D8D8D8"/>
</linearGradient>
<clipPath id="clip0_2093_16857">
<rect width="32" height="32" fill="white"/>
</clipPath>
<clipPath id="clip1_2093_16857">
<rect width="32" height="32" fill="white"/>
</clipPath>
</defs>
</svg>
