<svg width="32" height="32" viewBox="0 0 32 32" fill="none" xmlns="http://www.w3.org/2000/svg">
<g clip-path="url(#clip0_2093_16932)">
<path d="M3 14C3 13.4477 3.44772 13 4 13H16C16.5523 13 17 12.5523 17 12V7.41421C17 6.52331 18.0771 6.07714 18.7071 6.70711L28 16L18.7071 25.2929C18.0771 25.9229 17 25.4767 17 24.5858V20C17 19.4477 16.5523 19 16 19H4C3.44772 19 3 18.5523 3 18V14Z" fill="#FCFCFC" fill-opacity="0.75"/>
<path d="M28.3536 16.3536L28.7071 16L28.3536 15.6464L19.0607 6.35355C18.1157 5.40861 16.5 6.07786 16.5 7.41421V12C16.5 12.2761 16.2761 12.5 16 12.5H4C3.17157 12.5 2.5 13.1716 2.5 14V18C2.5 18.8284 3.17157 19.5 4 19.5H16C16.2761 19.5 16.5 19.7239 16.5 20V24.5858C16.5 25.9221 18.1157 26.5914 19.0607 25.6464L28.3536 16.3536Z" stroke="#FCFCFC" stroke-opacity="0.75"/>
<path d="M3.5 18V14C3.5 13.7239 3.72386 13.5 4 13.5H16C16.8284 13.5 17.5 12.8284 17.5 12V7.41421C17.5 6.96876 18.0386 6.74568 18.3536 7.06066L27.2929 16L18.3536 24.9393C18.0386 25.2543 17.5 25.0312 17.5 24.5858V20C17.5 19.1716 16.8284 18.5 16 18.5H4C3.72386 18.5 3.5 18.2761 3.5 18Z" fill="url(#paint0_linear_2093_16932)" stroke="#00A1DB"/>
</g>
<defs>
<linearGradient id="paint0_linear_2093_16932" x1="23.5" y1="26" x2="4.55323" y2="10.795" gradientUnits="userSpaceOnUse">
<stop stop-color="#FCFCFC"/>
<stop offset="1" stop-color="#94E1FC"/>
</linearGradient>
<clipPath id="clip0_2093_16932">
<rect width="32" height="32" fill="white"/>
</clipPath>
</defs>
</svg>
