<svg width="32" height="32" viewBox="0 0 32 32" fill="none" xmlns="http://www.w3.org/2000/svg">
<g clip-path="url(#clip0_2095_17063)">
<rect y="3" width="32" height="26" fill="#FCFCFC" fill-opacity="0.75"/>
<rect x="1.5" y="4.5" width="29" height="23" fill="#FCFCFC" stroke="#919191"/>
</g>
<g clip-path="url(#clip1_2095_17063)">
<rect x="15" y="21" width="3" height="2" fill="#FCFCFC" fill-opacity="0.75"/>
<rect x="16" y="21" width="1" height="1" fill="#3A3A3A"/>
<path fill-rule="evenodd" clip-rule="evenodd" d="M14.7911 12.6661C14.3416 13.1155 14 13.8526 14 15L13 15C13 13.6474 13.4084 12.6345 14.0839 11.9589C14.7557 11.2872 15.641 11 16.5 11C17.3565 11 18.2294 11.2849 18.8947 11.8763C19.5691 12.4758 20 13.3643 20 14.5C20 15.3278 19.7883 15.9835 19.4466 16.4935C19.1073 17 18.6589 17.3342 18.2263 17.5538C17.7954 17.7725 17.3703 17.8827 17.057 17.9389C17.0376 17.9424 17.0186 17.9456 17 17.9487L17 20L16 20L16 17.0075L16.491 17.0001L16.4931 17L16.5097 16.9993C16.5259 16.9986 16.5519 16.997 16.5863 16.9941C16.6553 16.9882 16.7571 16.9767 16.8805 16.9546C17.1297 16.9099 17.4546 16.824 17.7737 16.6621C18.0911 16.501 18.3927 16.2699 18.6159 15.9369C18.8367 15.6074 19 15.1495 19 14.5C19 13.6357 18.6809 13.0242 18.2303 12.6237C17.7706 12.2151 17.1435 12 16.5 12C15.859 12 15.2443 12.2128 14.7911 12.6661Z" fill="#FCFCFC" fill-opacity="0.75"/>
<path d="M14 15.5L14.5 15.5L14.5 15C14.5 13.9555 14.8081 13.3562 15.1446 13.0196C15.4888 12.6754 15.9683 12.5 16.5 12.5C17.0368 12.5 17.5411 12.68 17.8981 12.9974C18.2368 13.2984 18.5 13.7715 18.5 14.5C18.5 15.0603 18.3608 15.4192 18.2005 15.6586C18.0354 15.905 17.8071 16.0844 17.5474 16.2162C17.2843 16.3498 17.0094 16.4235 16.7923 16.4624C16.686 16.4815 16.5996 16.4911 16.5437 16.4959C16.5173 16.4982 16.4981 16.4993 16.4874 16.4998L16.4781 16.5002L15.9924 16.5076L15.5 16.515L15.5 17.0075L15.5 20L15.5 20.5L16 20.5L17 20.5L17.5 20.5L17.5 20L17.5 18.3542C17.7861 18.2814 18.1165 18.1702 18.4526 17.9997C18.9428 17.7509 19.4645 17.365 19.862 16.7718C20.2642 16.1716 20.5 15.4169 20.5 14.5C20.5 13.2287 20.0134 12.2017 19.2269 11.5026C18.4588 10.8198 17.463 10.5 16.5 10.5C15.5322 10.5 14.5115 10.8243 13.7304 11.6054C12.9417 12.3941 12.5 13.545 12.5 15L12.5 15.5L13 15.5L14 15.5Z" stroke="#FCFCFC" stroke-opacity="0.75"/>
<path d="M13.5 15C13.5 12.5 15 11.5 16.5 11.5C18 11.5 19.5 12.5 19.5 14.5C19.5 16.3348 18.3431 17.0477 17.4661 17.3245C16.9451 17.489 16.5 17.9386 16.5 18.485L16.5 20" stroke="#3A3A3A"/>
</g>
<defs>
<clipPath id="clip0_2095_17063">
<rect width="32" height="26" fill="white" transform="translate(0 3)"/>
</clipPath>
<clipPath id="clip1_2095_17063">
<rect width="9" height="13" fill="white" transform="translate(12 10)"/>
</clipPath>
</defs>
</svg>
