<svg width="32" height="32" viewBox="0 0 32 32" fill="none" xmlns="http://www.w3.org/2000/svg">
<g clip-path="url(#clip0_2095_17176)">
<path d="M29 14C29 13.4477 28.5523 13 28 13H16C15.4477 13 15 12.5523 15 12V7.41421C15 6.52331 13.9229 6.07714 13.2929 6.70711L4 16L13.2929 25.2929C13.9229 25.9229 15 25.4767 15 24.5858V20C15 19.4477 15.4477 19 16 19H28C28.5523 19 29 18.5523 29 18V14Z" fill="#FCFCFC" fill-opacity="0.75"/>
<path d="M3.64645 16.3536L3.29289 16L3.64645 15.6464L12.9393 6.35355C13.8843 5.40861 15.5 6.07786 15.5 7.41421V12C15.5 12.2761 15.7239 12.5 16 12.5H28C28.8284 12.5 29.5 13.1716 29.5 14V18C29.5 18.8284 28.8284 19.5 28 19.5H16C15.7239 19.5 15.5 19.7239 15.5 20V24.5858C15.5 25.9221 13.8843 26.5914 12.9393 25.6464L3.64645 16.3536Z" stroke="#FCFCFC" stroke-opacity="0.75"/>
<path d="M28.5 18V14C28.5 13.7239 28.2761 13.5 28 13.5H16C15.1716 13.5 14.5 12.8284 14.5 12V7.41421C14.5 6.96876 13.9614 6.74568 13.6464 7.06066L4.70711 16L13.6464 24.9393C13.9614 25.2543 14.5 25.0312 14.5 24.5858V20C14.5 19.1716 15.1716 18.5 16 18.5H28C28.2761 18.5 28.5 18.2761 28.5 18Z" fill="url(#paint0_linear_2095_17176)" stroke="#C10D3B"/>
</g>
<defs>
<linearGradient id="paint0_linear_2095_17176" x1="24.5" y1="8.5" x2="11.7647" y2="25.9728" gradientUnits="userSpaceOnUse">
<stop stop-color="#EA212D"/>
<stop offset="1" stop-color="#FFBEC2"/>
</linearGradient>
<clipPath id="clip0_2095_17176">
<rect width="32" height="32" fill="white"/>
</clipPath>
</defs>
</svg>
