<svg width="32" height="32" viewBox="0 0 32 32" fill="none" xmlns="http://www.w3.org/2000/svg">
<g clip-path="url(#clip0_2104_15384)">
<path d="M12 6.21739H32V31C32 31 8 31 5 31C2 31 0 29 0 26C0 23 0 7 0 5C0 3 2 1 4 1C6 1 12 1 12 1V6.21739Z" fill="#FCFCFC" fill-opacity="0.75"/>
<path d="M5 29.5C3 29.5 1.5 28 1.5 26.5V7.5H30.5V29.5H5Z" fill="url(#paint0_linear_2104_15384)" stroke="#919191"/>
<path d="M10.5 2.5V23.5H5C3 23.5 1.5 25 1.5 26.5V6C1.5 4 3 2.5 5 2.5H10.5Z" fill="url(#paint1_linear_2104_15384)" stroke="#919191"/>
<g clip-path="url(#clip1_2104_15384)">
<path d="M16 13H23V24H22V14H17V24H16V13Z" fill="#3A3A3A"/>
<path d="M16 12.5H15.5V13V24V24.5H16H17H17.5V24V14.5H21.5V24V24.5H22H23H23.5V24V13V12.5H23H16Z" stroke="#FCFCFC" stroke-opacity="0.75"/>
</g>
</g>
<defs>
<linearGradient id="paint0_linear_2104_15384" x1="11.1667" y1="18.5" x2="1.5" y2="18.5" gradientUnits="userSpaceOnUse">
<stop stop-color="#FCFCFC"/>
<stop offset="1" stop-color="#919191"/>
</linearGradient>
<linearGradient id="paint1_linear_2104_15384" x1="4.5" y1="14.5" x2="1.5" y2="14.5" gradientUnits="userSpaceOnUse">
<stop stop-color="#FCFCFC"/>
<stop offset="1" stop-color="#919191"/>
</linearGradient>
<clipPath id="clip0_2104_15384">
<rect width="32" height="32" fill="white"/>
</clipPath>
<clipPath id="clip1_2104_15384">
<rect width="9" height="13" fill="white" transform="translate(15 12)"/>
</clipPath>
</defs>
</svg>
