<svg width="32" height="32" viewBox="0 0 32 32" fill="none" xmlns="http://www.w3.org/2000/svg">
<g clip-path="url(#clip0_2110_15667)">
<path d="M19 25L24.5 28L30 25V19L24.5 16L19 19V25Z" fill="#FCFCFC" fill-opacity="0.75"/>
<path d="M18.5 25V25.2968L18.7606 25.4389L24.2606 28.4389L24.5 28.5695L24.7394 28.4389L30.2394 25.4389L30.5 25.2968V25V19V18.7032L30.2394 18.5611L24.7394 15.5611L24.5 15.4305L24.2606 15.5611L18.7606 18.5611L18.5 18.7032V19V25Z" stroke="#FCFCFC" stroke-opacity="0.75"/>
<path d="M29.5 24.7032L24.5 27.4305L19.5 24.7032V19.2968L24.5 16.5695L29.5 19.2968V24.7032Z" fill="url(#paint0_linear_2110_15667)" stroke="#919191"/>
</g>
<g clip-path="url(#clip1_2110_15667)">
<path d="M11 12L16.5 15L22 12V6L16.5 3L11 6V12Z" fill="#FCFCFC" fill-opacity="0.75"/>
<path d="M10.5 12V12.2968L10.7606 12.4389L16.2606 15.4389L16.5 15.5695L16.7394 15.4389L22.2394 12.4389L22.5 12.2968V12V6V5.70318L22.2394 5.56105L16.7394 2.56105L16.5 2.43046L16.2606 2.56105L10.7606 5.56105L10.5 5.70318V6V12Z" stroke="#FCFCFC" stroke-opacity="0.75"/>
<path d="M21.5 11.7032L16.5 14.4305L11.5 11.7032V6.29682L16.5 3.56954L21.5 6.29682V11.7032Z" fill="url(#paint1_linear_2110_15667)" stroke="#919191"/>
</g>
<g clip-path="url(#clip2_2110_15667)">
<path d="M0 19H5V21H13V24H5V25H13V28H5V29H13V32H0V19Z" fill="#FCFCFC" fill-opacity="0.75"/>
<rect x="1" y="20" width="3" height="3" fill="#3A3A3A"/>
<rect x="1" y="24" width="3" height="3" fill="#3A3A3A"/>
<rect x="1" y="28" width="3" height="3" fill="#3A3A3A"/>
<rect x="5.25" y="22.25" width="6.5" height="0.5" fill="#00A1DB" stroke="#3A3A3A" stroke-width="0.5"/>
<rect x="5.25" y="26.25" width="6.5" height="0.5" fill="#00A1DB" stroke="#3A3A3A" stroke-width="0.5"/>
<rect x="5.25" y="30.25" width="6.5" height="0.5" fill="#00A1DB" stroke="#3A3A3A" stroke-width="0.5"/>
</g>
<defs>
<linearGradient id="paint0_linear_2110_15667" x1="27.8611" y1="17.6667" x2="20.7353" y2="26.065" gradientUnits="userSpaceOnUse">
<stop stop-color="#94E1FC"/>
<stop offset="1" stop-color="#FCFCFC"/>
</linearGradient>
<linearGradient id="paint1_linear_2110_15667" x1="19.8611" y1="4.66667" x2="12.7353" y2="13.065" gradientUnits="userSpaceOnUse">
<stop stop-color="#94E1FC"/>
<stop offset="1" stop-color="#FCFCFC"/>
</linearGradient>
<clipPath id="clip0_2110_15667">
<rect width="13" height="14" fill="white" transform="translate(18 15)"/>
</clipPath>
<clipPath id="clip1_2110_15667">
<rect width="13" height="14" fill="white" transform="translate(10 2)"/>
</clipPath>
<clipPath id="clip2_2110_15667">
<rect width="13" height="13" fill="white" transform="translate(0 19)"/>
</clipPath>
</defs>
</svg>
