<svg width="32" height="32" viewBox="0 0 32 32" fill="none" xmlns="http://www.w3.org/2000/svg">
<g clip-path="url(#clip0_2113_16054)">
<path d="M7.5 2H25.5L30 6.5V27C30 28.6569 28.6569 30 27 30H6C4.34315 30 3 28.6569 3 27V6.5L7.5 2Z" fill="#FCFCFC" fill-opacity="0.75"/>
<path d="M4.5 7.5H28.5V27C28.5 27.8284 27.8284 28.5 27 28.5H6C5.17157 28.5 4.5 27.8284 4.5 27V7.5Z" fill="url(#paint0_linear_2113_16054)" stroke="#919191"/>
<path d="M4.5 7.20517L8.15642 3.5H24.8436L28.5 7.20517V7.5H4.5V7.20517Z" fill="#D8D8D8" stroke="#919191"/>
<path d="M16 4H17V8H16V4Z" fill="#919191"/>
<rect x="10.5" y="12.5" width="12" height="3" rx="1.5" fill="#3A3A3A" stroke="#919191"/>
<g clip-path="url(#clip1_2113_16054)">
<path d="M1 20H3V25H5L8 22V25H10L13 22V29H12V27H10V29H8V27H6V29H4V27H2V29H4H8H13V31H1V25V20Z" fill="#00A1DB"/>
<path d="M1 19.5H0.5V20V25V31V31.5H1H13H13.5V31V29.5V29V28.5V22V20.7929L12.6464 21.6464L9.79289 24.5H8.5V22V20.7929L7.64645 21.6464L4.79289 24.5H3.5V20V19.5H3H1ZM10.5 28.5V27.5H11.5V28.5H10.5ZM7.5 28.5H6.5V27.5H7.5V28.5ZM3.5 28.5H2.5V27.5H3.5V28.5Z" stroke="#FCFCFC" stroke-opacity="0.75"/>
</g>
</g>
<defs>
<linearGradient id="paint0_linear_2113_16054" x1="16.5" y1="7" x2="16.5" y2="29" gradientUnits="userSpaceOnUse">
<stop stop-color="#F4F7F6"/>
<stop offset="1" stop-color="#D8D8D8"/>
</linearGradient>
<clipPath id="clip0_2113_16054">
<rect width="32" height="32" fill="white"/>
</clipPath>
<clipPath id="clip1_2113_16054">
<rect width="14" height="13" fill="white" transform="translate(0 19)"/>
</clipPath>
</defs>
</svg>
