<svg width="32" height="32" viewBox="0 0 32 32" fill="none" xmlns="http://www.w3.org/2000/svg">
<g clip-path="url(#clip0_2113_16198)">
<path d="M2 18H10L14 22V28H2V18Z" fill="#FCFCFC" fill-opacity="0.75"/>
<path d="M2 17.5H1.5V18V28V28.5H2H14H14.5V28V22V21.7929L14.3536 21.6464L10.3536 17.6464L10.2071 17.5H10H2Z" stroke="#FCFCFC" stroke-opacity="0.75"/>
<path d="M2.5 18.5H9.79289L13.5 22.2071V27.5H2.5V18.5Z" fill="url(#paint0_linear_2113_16198)" stroke="#919191"/>
<path d="M9 18H10V22H14V23H9V18Z" fill="#919191"/>
</g>
<g clip-path="url(#clip1_2113_16198)">
<path d="M18 18H26L30 22V28H18V18Z" fill="#FCFCFC" fill-opacity="0.75"/>
<path d="M18 17.5H17.5V18V28V28.5H18H30H30.5V28V22V21.7929L30.3536 21.6464L26.3536 17.6464L26.2071 17.5H26H18Z" stroke="#FCFCFC" stroke-opacity="0.75"/>
<path d="M18.5 18.5H25.7929L29.5 22.2071V27.5H18.5V18.5Z" fill="url(#paint1_linear_2113_16198)" stroke="#919191"/>
<path d="M25 18H26V22H30V23H25V18Z" fill="#919191"/>
</g>
<g clip-path="url(#clip2_2113_16198)">
<path d="M10 4H18L22 8V14H10V4Z" fill="#FCFCFC" fill-opacity="0.75"/>
<path d="M10 3.5H9.5V4V14V14.5H10H22H22.5V14V8V7.79289L22.3536 7.64645L18.3536 3.64645L18.2071 3.5H18H10Z" stroke="#FCFCFC" stroke-opacity="0.75"/>
<path d="M10.5 4.5H17.7929L21.5 8.20711V13.5H10.5V4.5Z" fill="url(#paint2_linear_2113_16198)" stroke="#00A1DB"/>
<path d="M17 4H18V8H22V9H17V4Z" fill="#00A1DB"/>
</g>
<defs>
<linearGradient id="paint0_linear_2113_16198" x1="8" y1="18" x2="8" y2="28" gradientUnits="userSpaceOnUse">
<stop stop-color="#F4F7F6"/>
<stop offset="1" stop-color="#D8D8D8"/>
</linearGradient>
<linearGradient id="paint1_linear_2113_16198" x1="24" y1="18" x2="24" y2="28" gradientUnits="userSpaceOnUse">
<stop stop-color="#F4F7F6"/>
<stop offset="1" stop-color="#D8D8D8"/>
</linearGradient>
<linearGradient id="paint2_linear_2113_16198" x1="19.6667" y1="5.38889" x2="14.1728" y2="13.8651" gradientUnits="userSpaceOnUse">
<stop stop-color="#94E1FC"/>
<stop offset="1" stop-color="#FCFCFC"/>
</linearGradient>
<clipPath id="clip0_2113_16198">
<rect width="14" height="12" fill="white" transform="translate(1 17)"/>
</clipPath>
<clipPath id="clip1_2113_16198">
<rect width="14" height="12" fill="white" transform="translate(17 17)"/>
</clipPath>
<clipPath id="clip2_2113_16198">
<rect width="14" height="12" fill="white" transform="translate(9 3)"/>
</clipPath>
</defs>
</svg>
