<svg width="32" height="32" viewBox="0 0 32 32" fill="none" xmlns="http://www.w3.org/2000/svg">
<g clip-path="url(#clip0_2113_16251)">
<path d="M7.5 2H25.5L30 6.5V27C30 28.6569 28.6569 30 27 30H6C4.34315 30 3 28.6569 3 27V6.5L7.5 2Z" fill="#FCFCFC" fill-opacity="0.75"/>
<path d="M4.5 7.5H28.5V27C28.5 27.8284 27.8284 28.5 27 28.5H6C5.17157 28.5 4.5 27.8284 4.5 27V7.5Z" fill="url(#paint0_linear_2113_16251)" stroke="#919191"/>
<path d="M4.5 7.20517L8.15642 3.5H24.8436L28.5 7.20517V7.5H4.5V7.20517Z" fill="#D8D8D8" stroke="#919191"/>
<path d="M16 4H17V8H16V4Z" fill="#919191"/>
<rect x="10.5" y="12.5" width="12" height="3" rx="1.5" fill="#3A3A3A" stroke="#919191"/>
<g clip-path="url(#clip1_2113_16251)">
<path d="M0 19H11L11 21L13 21L13 32L2 32L2 30L0 30V19Z" fill="#FCFCFC" fill-opacity="0.75"/>
<rect x="3.5" y="22.5" width="8" height="8" fill="url(#paint1_linear_2113_16251)" stroke="#00A1DB"/>
<path d="M1 20H10V21H2V29H1V20Z" fill="#00A1DB"/>
</g>
</g>
<defs>
<linearGradient id="paint0_linear_2113_16251" x1="16.5" y1="7" x2="16.5" y2="29" gradientUnits="userSpaceOnUse">
<stop stop-color="#F4F7F6"/>
<stop offset="1" stop-color="#D8D8D8"/>
</linearGradient>
<linearGradient id="paint1_linear_2113_16251" x1="10.25" y1="23.25" x2="5" y2="30" gradientUnits="userSpaceOnUse">
<stop stop-color="#94E1FC"/>
<stop offset="1" stop-color="#FCFCFC"/>
</linearGradient>
<clipPath id="clip0_2113_16251">
<rect width="32" height="32" fill="white"/>
</clipPath>
<clipPath id="clip1_2113_16251">
<rect width="13" height="13" fill="white" transform="translate(0 19)"/>
</clipPath>
</defs>
</svg>
