<svg width="32" height="32" viewBox="0 0 32 32" fill="none" xmlns="http://www.w3.org/2000/svg">
<g clip-path="url(#clip0_2117_16336)">
<path d="M23 0H4V32H28V5L23 0Z" fill="#FCFCFC" fill-opacity="0.75"/>
<path d="M5.5 1.5H21.7929L26.5 6.20711V30.5H5.5V1.5Z" fill="url(#paint0_linear_2117_16336)" stroke="#3A3A3A"/>
<path d="M21 1H22V6H27V7H21V1Z" fill="#3A3A3A"/>
</g>
<rect x="19" y="8" width="7" height="1" fill="#D8D8D8"/>
<rect x="19" y="9" width="7" height="1" fill="#FCFCFC"/>
<rect x="12" y="8" width="7" height="1" fill="#D8D8D8"/>
<rect x="6" y="8" width="7" height="1" fill="#D8D8D8"/>
<rect x="12" y="9" width="7" height="1" fill="#FCFCFC"/>
<rect x="6" y="9" width="7" height="1" fill="#FCFCFC"/>
<rect x="12" y="2" width="1" height="4" fill="#D8D8D8"/>
<rect x="19" y="2" width="1" height="4" fill="#D8D8D8"/>
<rect x="19" y="10" width="1" height="4" fill="#D8D8D8"/>
<rect x="12" y="15" width="7" height="1" fill="#D8D8D8"/>
<rect x="6" y="15" width="7" height="1" fill="#D8D8D8"/>
<rect x="12" y="16" width="7" height="1" fill="#FCFCFC"/>
<rect x="6" y="16" width="7" height="1" fill="#FCFCFC"/>
<rect x="19" y="15" width="7" height="1" fill="#D8D8D8"/>
<rect x="19" y="16" width="7" height="1" fill="#FCFCFC"/>
<rect x="12" y="22" width="7" height="1" fill="#D8D8D8"/>
<rect x="12" y="23" width="7" height="1" fill="#FCFCFC"/>
<rect x="6" y="22" width="7" height="1" fill="#D8D8D8"/>
<rect x="6" y="23" width="7" height="1" fill="#FCFCFC"/>
<rect x="19" y="22" width="7" height="1" fill="#D8D8D8"/>
<rect x="19" y="23" width="7" height="1" fill="#FCFCFC"/>
<rect x="12" y="6" width="1" height="4" fill="#D8D8D8"/>
<rect x="12" y="10" width="1" height="4" fill="#D8D8D8"/>
<rect x="12" y="14" width="1" height="4" fill="#D8D8D8"/>
<rect x="12" y="18" width="1" height="4" fill="#D8D8D8"/>
<rect x="12" y="22" width="1" height="4" fill="#D8D8D8"/>
<rect x="12" y="26" width="1" height="4" fill="#D8D8D8"/>
<rect x="19" y="6" width="1" height="4" fill="#D8D8D8"/>
<rect x="19" y="14" width="1" height="4" fill="#D8D8D8"/>
<rect x="19" y="18" width="1" height="4" fill="#D8D8D8"/>
<rect x="19" y="22" width="1" height="4" fill="#D8D8D8"/>
<rect x="19" y="26" width="1" height="4" fill="#D8D8D8"/>
<g clip-path="url(#clip1_2117_16336)">
<path d="M0 21H2V19H7L12 21.5V26.5L8 28.5V32H2V27H0V21Z" fill="#FCFCFC" fill-opacity="0.75"/>
<path d="M7 20L11 22V23H7V24H3V23H1V22H3V20H7Z" fill="#00A1DB"/>
<path d="M3 26H1V25H11V26L7 28H3V26Z" fill="#00A1DB"/>
<path d="M7 29H3V31H7V29Z" fill="#00A1DB"/>
</g>
<defs>
<linearGradient id="paint0_linear_2117_16336" x1="16" y1="1" x2="16" y2="31" gradientUnits="userSpaceOnUse">
<stop stop-color="#FCFCFC"/>
<stop offset="1" stop-color="#E6EAEA"/>
</linearGradient>
<clipPath id="clip0_2117_16336">
<rect width="24" height="32" fill="white" transform="translate(4)"/>
</clipPath>
<clipPath id="clip1_2117_16336">
<rect width="12" height="13" fill="white" transform="translate(0 19)"/>
</clipPath>
</defs>
</svg>
