<svg width="32" height="32" viewBox="0 0 32 32" fill="none" xmlns="http://www.w3.org/2000/svg">
<g clip-path="url(#clip0_2118_19575)">
<path d="M16 1C24.196 1 27.9507 2.66546 29.3323 3.51456C29.7843 3.79228 30 4.29799 30 4.82843V9.67157C30 10.202 29.7893 10.7107 29.4142 11.0858L28.75 11.75L29.029 11.9174C29.6314 12.2788 30 12.9299 30 13.6324V17.6716C30 18.202 29.7893 18.7107 29.4142 19.0858L28.75 19.75L29.029 19.9174C29.6314 20.2788 30 20.9287 30 21.6312C30 23.0336 30 25.3218 30 26C30 27 29 30 16 30C3 30 2 27 2 26V21.6324C2 20.9299 2.3686 20.2788 2.97101 19.9174L3.25 19.75L2.58579 19.0858C2.21071 18.7107 2 18.202 2 17.6716V13.6324C2 12.9299 2.3686 12.2788 2.97101 11.9174L3.25 11.75L2.58579 11.0858C2.21071 10.7107 2 10.202 2 9.67157V4.82843C2 4.29799 2.21573 3.79228 2.66765 3.51456C4.04933 2.66546 7.80405 1 16 1Z" fill="#FCFCFC" fill-opacity="0.75"/>
<path d="M28.3333 26C28.3333 26.1076 28.2521 26.3637 27.6503 26.7039C27.078 27.0274 26.2016 27.3247 25.0516 27.5732C22.7632 28.0678 19.5651 28.3333 16 28.3333C12.4349 28.3333 9.23685 28.0678 6.94843 27.5732C5.79839 27.3247 4.92204 27.0274 4.34967 26.7039C3.74794 26.3637 3.66667 26.1076 3.66667 26C3.66667 25.8637 3.7834 25.5585 4.3962 25.1423C4.97592 24.7485 5.8566 24.3578 6.99982 24.0136C9.27773 23.3277 12.4611 22.8669 16 22.8669C19.5389 22.8669 22.7223 23.3277 25.0002 24.0136C26.1434 24.3578 27.0241 24.7485 27.6038 25.1423C28.2166 25.5585 28.3333 25.8637 28.3333 26Z" stroke="#919191" stroke-width="1.33333"/>
<path d="M3 21.5L16 24.3L29 21.5V26C29 26 25.2828 28.5 16 28.5C6.71719 28.5 3 26 3 26V21.5Z" fill="#919191"/>
<ellipse cx="16" cy="21.5" rx="13" ry="3.5" fill="#D8D8D8"/>
<path d="M27 21C27 22.8935 22 24.0001 16 24.0001C10 24.0001 5 22.8935 5 21C5 17.5714 9.92487 18.0001 16 18.0001C22.0751 18.0001 27 17.5714 27 21Z" fill="#94E1FC"/>
<rect x="5" y="17" width="22" height="4" fill="#94E1FC"/>
<path d="M28.3333 18C28.3333 18.1076 28.2521 18.3637 27.6503 18.7039C27.078 19.0274 26.2016 19.3247 25.0516 19.5732C22.7632 20.0678 19.5651 20.3333 16 20.3333C12.4349 20.3333 9.23685 20.0678 6.94843 19.5732C5.79839 19.3247 4.92204 19.0274 4.34967 18.7039C3.74794 18.3637 3.66667 18.1076 3.66667 18C3.66667 17.8637 3.7834 17.5585 4.3962 17.1423C4.97592 16.7485 5.8566 16.3578 6.99982 16.0136C9.27773 15.3277 12.4611 14.8669 16 14.8669C19.5389 14.8669 22.7223 15.3277 25.0002 16.0136C26.1434 16.3578 27.0241 16.7485 27.6038 17.1423C28.2166 17.5585 28.3333 17.8637 28.3333 18Z" stroke="#919191" stroke-width="1.33333"/>
<path d="M3 13.5L16 16.3L29 13.5V18C29 18 25.2828 20.5 16 20.5C6.71719 20.5 3 18 3 18V13.5Z" fill="#919191"/>
<ellipse cx="16" cy="13.5" rx="13" ry="3.5" fill="#D8D8D8"/>
<path d="M27 13C27 14.8935 22 16.0001 16 16.0001C10 16.0001 5 14.8935 5 13C5 9.57143 9.92487 10.0001 16 10.0001C22.0751 10.0001 27 9.57143 27 13Z" fill="#94E1FC"/>
<rect x="5" y="9" width="22" height="4" fill="#94E1FC"/>
<path d="M28.3333 10C28.3333 10.1076 28.2521 10.3637 27.6503 10.7039C27.078 11.0274 26.2016 11.3247 25.0516 11.5732C22.7632 12.0678 19.5651 12.3333 16 12.3333C12.4349 12.3333 9.23685 12.0678 6.94843 11.5732C5.79839 11.3247 4.92204 11.0274 4.34967 10.7039C3.74794 10.3637 3.66667 10.1076 3.66667 10C3.66667 9.86366 3.7834 9.55852 4.3962 9.14227C4.97592 8.74849 5.8566 8.35779 6.99982 8.01358C9.27773 7.32772 12.4611 6.86686 16 6.86686C19.5389 6.86686 22.7223 7.32772 25.0002 8.01358C26.1434 8.35779 27.0241 8.74849 27.6038 9.14227C28.2166 9.55852 28.3333 9.86366 28.3333 10Z" stroke="#919191" stroke-width="1.33333"/>
<path d="M3 5.5L16 8.3L29 5.5V10C29 10 25.2828 12.5 16 12.5C6.71719 12.5 3 10 3 10V5.5Z" fill="#919191"/>
<ellipse cx="16" cy="5.5" rx="13" ry="3.5" fill="#D8D8D8"/>
</g>
<defs>
<clipPath id="clip0_2118_19575">
<rect width="32" height="32" fill="white"/>
</clipPath>
</defs>
</svg>
