<svg width="32" height="32" viewBox="0 0 32 32" fill="none" xmlns="http://www.w3.org/2000/svg">
<g clip-path="url(#clip0_2118_19765)">
<path d="M2 23C2 21.8954 2.89543 21 4 21H5V20C5 18.3431 6.34315 17 8 17H15V15H18V17H25C26.6569 17 28 18.3431 28 20V21H29C30.1046 21 31 21.8954 31 23V28C31 29.1046 30.1046 30 29 30H24C22.8954 30 22 29.1046 22 28V23C22 21.8954 22.8954 21 24 21H25V20H18V21H19C20.1046 21 21 21.8954 21 23V28C21 29.1046 20.1046 30 19 30H14C12.8954 30 12 29.1046 12 28V23C12 21.8954 12.8954 21 14 21H15V20H8V21H9C10.1046 21 11 21.8954 11 23V28C11 29.1046 10.1046 30 9 30H4C2.89543 30 2 29.1046 2 28V23Z" fill="#FCFCFC" fill-opacity="0.75"/>
<g clip-path="url(#clip1_2118_19765)">
<path d="M10 3H12V8H14L17 5V8H19L22 5V12H21V10H19V12H17V10H15V12H13V10H11V12H13H17H22V14H10V8V3Z" fill="#919191"/>
<path d="M10 2.5H9.5V3V8V14V14.5H10H22H22.5V14V12.5V12V11.5V5V3.79289L21.6464 4.64645L18.7929 7.5H17.5V5V3.79289L16.6464 4.64645L13.7929 7.5H12.5V3V2.5H12H10ZM19.5 11.5V10.5H20.5V11.5H19.5ZM16.5 11.5H15.5V10.5H16.5V11.5ZM12.5 11.5H11.5V10.5H12.5V11.5Z" stroke="#FCFCFC" stroke-opacity="0.75"/>
</g>
<path d="M6 20C6 18.8954 6.89543 18 8 18H16V12H17V18H25C26.1046 18 27 18.8954 27 20V24H26V20C26 19.4477 25.5523 19 25 19H17V24H16V19H8C7.44772 19 7 19.4477 7 20V24H6V20Z" fill="#919191"/>
<rect x="3.5" y="22.5" width="6" height="6" rx="0.5" fill="#D8D8D8" stroke="#919191"/>
<rect x="13.5" y="22.5" width="6" height="6" rx="0.5" fill="#D8D8D8" stroke="#919191"/>
<rect x="23.5" y="22.5" width="6" height="6" rx="0.5" fill="#D8D8D8" stroke="#919191"/>
</g>
<defs>
<clipPath id="clip0_2118_19765">
<rect width="32" height="32" fill="white"/>
</clipPath>
<clipPath id="clip1_2118_19765">
<rect width="14" height="13" fill="white" transform="translate(9 2)"/>
</clipPath>
</defs>
</svg>
