<svg width="32" height="32" viewBox="0 0 32 32" fill="none" xmlns="http://www.w3.org/2000/svg">
<g clip-path="url(#clip0_2120_18436)">
<circle cx="8.5" cy="19.5" r="3.5" fill="#FCFCFC" fill-opacity="0.75"/>
<path d="M2 26.7273C2 24.1165 4.11647 22 6.72727 22H10.2727C12.8835 22 15 24.1165 15 26.7273V29H2V26.7273Z" fill="#FCFCFC" fill-opacity="0.75"/>
<path d="M10 23H7C5 23 3 24 3 26V28H5V26H6V28H11V26H12V28H13.9998L14 26C14 24 12 23 10 23Z" fill="#919191"/>
<circle cx="8.5" cy="19.5" r="2.5" fill="#919191"/>
</g>
<g clip-path="url(#clip1_2120_18436)">
<circle cx="23.5" cy="19.5" r="3.5" fill="#FCFCFC" fill-opacity="0.75"/>
<path d="M17 26.7273C17 24.1165 19.1165 22 21.7273 22H25.2727C27.8835 22 30 24.1165 30 26.7273V29H17V26.7273Z" fill="#FCFCFC" fill-opacity="0.75"/>
<path d="M25 23H22C20 23 18 24 18 26V28H20V26H21V28H26V26H27V28H28.9998L29 26C29 24 27 23 25 23Z" fill="#919191"/>
<circle cx="23.5" cy="19.5" r="2.5" fill="#919191"/>
</g>
<g clip-path="url(#clip2_2120_18436)">
<path d="M15 3H17V6H15V3Z" fill="#3A3A3A"/>
<path d="M19.5352 4.05029L20.9494 5.46451L18.828 7.58583L17.4138 6.17161L19.5352 4.05029Z" fill="#3A3A3A"/>
<path d="M19 8H22V10H19V8Z" fill="#3A3A3A"/>
<path d="M18.8281 10.4141L20.9494 12.5354L19.5352 13.9496L17.4139 11.8283L18.8281 10.4141Z" fill="#3A3A3A"/>
<path d="M15 12H17V15H15V12Z" fill="#3A3A3A"/>
<path d="M13.1719 10.4141L14.5861 11.8283L12.4648 13.9496L11.0506 12.5354L13.1719 10.4141Z" fill="#3A3A3A"/>
<path d="M10 8H13V10H10V8Z" fill="#3A3A3A"/>
<path d="M12.4648 4.05029L14.5862 6.17161L13.172 7.58583L11.0506 5.46451L12.4648 4.05029Z" fill="#3A3A3A"/>
<path fill-rule="evenodd" clip-rule="evenodd" d="M16 11C17.1046 11 18 10.1046 18 9C18 7.89543 17.1046 7 16 7C14.8954 7 14 7.89543 14 9C14 10.1046 14.8954 11 16 11ZM16 13C18.2091 13 20 11.2091 20 9C20 6.79086 18.2091 5 16 5C13.7909 5 12 6.79086 12 9C12 11.2091 13.7909 13 16 13Z" fill="#3A3A3A"/>
<path d="M15 2.5H14.5V3V4.75606C14.3495 4.80924 14.2027 4.8702 14.0601 4.93845L12.8184 3.69674L12.4648 3.34319L12.1113 3.69674L10.6971 5.11095L10.3435 5.46451L10.6971 5.81806L11.9387 7.05965C11.8703 7.20243 11.8093 7.34937 11.7561 7.5H10H9.5V8V10V10.5H10H11.7561C11.8093 10.6506 11.8703 10.7975 11.9386 10.9402L10.697 12.1818L10.3434 12.5354L10.697 12.8889L12.1112 14.3032L12.4648 14.6567L12.8183 14.3032L14.06 13.0615C14.2027 13.1298 14.3495 13.1907 14.5 13.2439V15V15.5H15H17H17.5V15V13.2439C17.6505 13.1907 17.7973 13.1298 17.94 13.0615L19.1817 14.3032L19.5352 14.6567L19.8888 14.3032L21.303 12.8889L21.6566 12.5354L21.303 12.1818L20.0614 10.9402C20.1297 10.7975 20.1907 10.6506 20.2439 10.5H22H22.5V10V8V7.5H22H20.2439C20.1907 7.34937 20.1297 7.20243 20.0613 7.05965L21.3029 5.81806L21.6565 5.46451L21.3029 5.11095L19.8887 3.69674L19.5352 3.34319L19.1816 3.69674L17.9399 4.93845C17.7973 4.8702 17.6505 4.80924 17.5 4.75606V3V2.5H17H15ZM17.5 9C17.5 9.82843 16.8284 10.5 16 10.5C15.1716 10.5 14.5 9.82843 14.5 9C14.5 8.17157 15.1716 7.5 16 7.5C16.8284 7.5 17.5 8.17157 17.5 9Z" stroke="#FCFCFC" stroke-opacity="0.75"/>
</g>
<defs>
<clipPath id="clip0_2120_18436">
<rect width="13" height="13" fill="white" transform="translate(2 16)"/>
</clipPath>
<clipPath id="clip1_2120_18436">
<rect width="13" height="13" fill="white" transform="translate(17 16)"/>
</clipPath>
<clipPath id="clip2_2120_18436">
<rect width="14" height="14" fill="white" transform="translate(9 2)"/>
</clipPath>
</defs>
</svg>
