<svg width="32" height="32" viewBox="0 0 32 32" fill="none" xmlns="http://www.w3.org/2000/svg">
<g clip-path="url(#clip0_2125_19217)">
<rect x="1" y="2" width="30" height="27" fill="#FCFCFC" fill-opacity="0.75"/>
<rect x="0.5" y="1.5" width="31" height="28" stroke="#FCFCFC" stroke-opacity="0.75"/>
<rect x="1.5" y="2.5" width="29" height="26" fill="#FCFCFC" stroke="#919191"/>
<rect x="1.5" y="2.5" width="29" height="5" fill="url(#paint0_linear_2125_19217)" stroke="#3A3A3A"/>
<rect x="16" y="11" width="11" height="1" fill="#919191"/>
<rect x="16" y="15" width="11" height="1" fill="#919191"/>
<rect x="16" y="19" width="11" height="1" fill="#919191"/>
<rect x="16" y="23" width="11" height="1" fill="#919191"/>
<rect x="12" y="8" width="1" height="20" fill="#00A1DB"/>
<rect x="5" y="11" width="4" height="1" fill="#00A1DB"/>
<rect x="5" y="15" width="4" height="1" fill="#00A1DB"/>
<rect x="5" y="19" width="4" height="1" fill="#00A1DB"/>
<rect x="5" y="23" width="4" height="1" fill="#00A1DB"/>
</g>
<defs>
<linearGradient id="paint0_linear_2125_19217" x1="15.5" y1="7" x2="15.5" y2="3" gradientUnits="userSpaceOnUse">
<stop stop-color="#94E1FC"/>
<stop offset="1" stop-color="#00A1DB"/>
</linearGradient>
<clipPath id="clip0_2125_19217">
<rect width="32" height="32" fill="white"/>
</clipPath>
</defs>
</svg>
