<svg width="32" height="32" viewBox="0 0 32 32" fill="none" xmlns="http://www.w3.org/2000/svg">
<g clip-path="url(#clip0_2132_19370)">
<rect y="3" width="32" height="26" fill="#FCFCFC" fill-opacity="0.75"/>
<rect x="1.5" y="4.5" width="29" height="23" fill="#FCFCFC" stroke="#919191"/>
</g>
<path d="M23 14V11L18.9731 11C18.044 11 17.1674 11.4305 16.5993 12.1657L10.201 20.4458C9.44352 21.426 8.27463 22 7.03584 22H4.5C4.22386 22 4 21.7761 4 21.5C4 21.2239 4.22386 21 4.5 21H7.02688C7.95598 21 8.83264 20.5695 9.40074 19.8343L15.799 11.5542C16.5565 10.574 17.7254 10 18.9642 10L23 10V7L28 10.5L23 14Z" fill="#3A3A3A"/>
<path d="M19 18L19 21L17.9731 21C17.044 21 16.1674 20.5695 15.5993 19.8343L9.20098 11.5542C8.44352 10.574 7.27463 10 6.03584 10H4.5C4.22386 10 4 10.2239 4 10.5C4 10.7761 4.22386 11 4.5 11H6.02688C6.95598 11 7.83264 11.4305 8.40074 12.1657L14.799 20.4458C15.5565 21.426 16.7254 22 17.9642 22H19V25L24 21.5L19 18Z" fill="#3A3A3A"/>
<path d="M22.5 14V14.9603L23.2867 14.4096L28.2867 10.9096L28.8719 10.5L28.2867 10.0904L23.2867 6.59038L22.5 6.03967V7V9.5L18.9642 9.5C17.5705 9.5 16.2555 10.1457 15.4034 11.2485L12.5 15.0058L9.59662 11.2485C8.74448 10.1457 7.42948 9.5 6.03584 9.5H4.5C3.94772 9.5 3.5 9.94771 3.5 10.5C3.5 11.0523 3.94772 11.5 4.5 11.5H6.02688C6.80113 11.5 7.53168 11.8587 8.00509 12.4714L11.2318 16.6471L9.00509 19.5286C8.53168 20.1413 7.80113 20.5 7.02688 20.5H4.5C3.94772 20.5 3.5 20.9477 3.5 21.5C3.5 22.0523 3.94772 22.5 4.5 22.5H7.03584C8.42948 22.5 9.74448 21.8543 10.5966 20.7515L12.5 18.2883L14.4034 20.7515C15.2555 21.8543 16.5705 22.5 17.9642 22.5H18.5V25V25.9603L19.2867 25.4096L24.2867 21.9096L24.8719 21.5L24.2867 21.0904L19.2867 17.5904L18.5 17.0397V18L18.5 20.5L17.9731 20.5C17.1989 20.5 16.4683 20.1413 15.9949 19.5286L13.7682 16.6471L16.9949 12.4714C17.4683 11.8587 18.1989 11.5 18.9731 11.5L22.5 11.5V14Z" stroke="#FCFCFC" stroke-opacity="0.75"/>
<defs>
<clipPath id="clip0_2132_19370">
<rect width="32" height="26" fill="white" transform="translate(0 3)"/>
</clipPath>
</defs>
</svg>
