<svg width="32" height="32" viewBox="0 0 32 32" fill="none" xmlns="http://www.w3.org/2000/svg">
<g clip-path="url(#clip0_2134_19719)">
<g clip-path="url(#clip1_2134_19719)">
<rect x="29" width="32" height="26" transform="rotate(90 29 0)" fill="#FCFCFC" fill-opacity="0.75"/>
<rect x="27.5" y="1.5" width="29" height="23" transform="rotate(90 27.5 1.5)" fill="#FCFCFC" stroke="#919191"/>
</g>
<rect x="4" y="21" width="1" height="10" fill="#FCFCFC" fill-opacity="0.75"/>
<g clip-path="url(#clip2_2134_19719)">
<path fill-rule="evenodd" clip-rule="evenodd" d="M2.9375 26.7812C2.71953 26.9508 2.68026 27.2649 2.84979 27.4829L4.39097 29.2457C5.25188 30.3526 6.57562 31 7.9779 31C9.4082 31 10.755 30.3266 11.6132 29.1823L11.9 28.8C12.0657 28.5791 12.0209 28.2657 11.8 28.1C11.5791 27.9343 11.2657 27.9791 11.1 28.2L10.8132 28.5823C10.1439 29.4748 9.09344 30 7.9779 30C6.88421 30 5.85178 29.4951 5.18032 28.6317L3.63915 26.869C3.46961 26.651 3.15547 26.6117 2.9375 26.7812Z" fill="#00A1DB"/>
<path d="M6 25H0.99997L1 30L6 25Z" fill="#00A1DB"/>
<path d="M4.00534 29.5643L3.13656 28.5705L1.35355 30.3536L0.500007 31.2071L0.5 30L0.49997 25L0.499968 24.5H0.99997H6H7.20711L6.35355 25.3536L4.55278 27.1543L5.55674 28.3027L5.56618 28.3135L5.57499 28.3248C6.15173 29.0663 7.0385 29.5 7.9779 29.5C8.93606 29.5 9.83831 29.0489 10.4132 28.2823L10.7 27.9C11.0313 27.4582 11.6581 27.3686 12.1 27.7L11.837 28.0507L12.1 27.7C12.5418 28.0314 12.6313 28.6582 12.3 29.1L12.0132 29.4823L11.6132 29.1823L12.0132 29.4823C11.0606 30.7525 9.56558 31.5 7.9779 31.5C6.42623 31.5 4.9612 30.7859 4.00534 29.5643Z" stroke="#FCFCFC" stroke-opacity="0.75"/>
<path fill-rule="evenodd" clip-rule="evenodd" d="M11.0625 24.2188C11.2805 24.0492 11.3197 23.7351 11.1502 23.5171L9.60903 21.7543C8.74812 20.6474 7.42438 20 6.0221 20C4.5918 20 3.24497 20.6734 2.38679 21.8177L2.10003 22.2C1.93434 22.4209 1.97912 22.7343 2.20003 22.9C2.42094 23.0657 2.73434 23.0209 2.90003 22.8L3.18679 22.4177C3.85611 21.5252 4.90656 21 6.0221 21C7.11579 21 8.14822 21.5049 8.81968 22.3683L10.3609 24.131C10.5304 24.349 10.8445 24.3883 11.0625 24.2188Z" fill="#00A1DB"/>
<path d="M8 26H13L13 21L8 26Z" fill="#00A1DB"/>
<path d="M9.99466 21.4357L10.8634 22.4295L12.6464 20.6464L13.5 19.7929L13.5 21L13.5 26L13.5 26.5H13H8H6.79289L7.64645 25.6464L9.44722 23.8457L8.44326 22.6973L8.43382 22.6865L8.42501 22.6752C7.84827 21.9337 6.9615 21.5 6.0221 21.5C5.06394 21.5 4.16169 21.9511 3.58679 22.7177L3.30003 23.1C2.96866 23.5418 2.34186 23.6314 1.90003 23.3L2.16304 22.9493L1.90003 23.3C1.4582 22.9686 1.36866 22.3418 1.70003 21.9L1.98679 21.5177L2.38679 21.8177L1.98679 21.5177C2.93939 20.2475 4.43442 19.5 6.0221 19.5C7.57377 19.5 9.0388 20.2141 9.99466 21.4357Z" stroke="#FCFCFC" stroke-opacity="0.75"/>
</g>
<g clip-path="url(#clip3_2134_19719)">
<path d="M30.8726 1.08033C30.2001 0.681495 27.9712 1.80202 26.434 3.68224C24.8776 5.54346 24.6086 6.15119 24.6086 6.15119C24.6086 6.15119 22.7105 3.10775 21.5 2.5C20.5201 2.0252 19.4444 3.46862 20.2899 4.36125C21.2314 5.36783 23.5326 9 24.6855 9C25.8384 9 26.4724 6.62601 27.8559 4.74579C29.393 2.59968 31.5451 1.47916 30.8726 1.08033Z" fill="#3A3A3A"/>
<path d="M24.5989 5.22501C24.4113 4.94828 24.1735 4.60817 23.9087 4.25404C23.5898 3.82775 23.2267 3.37418 22.8609 2.98463C22.5045 2.60512 22.1093 2.24643 21.7243 2.05315L21.7244 2.05311L21.718 2.05004C20.9364 1.67132 20.176 2.08871 19.7992 2.63341C19.4126 3.19235 19.3044 4.04679 19.9258 4.70394C20.1398 4.93295 20.4428 5.32492 20.8136 5.81313C20.8604 5.87472 20.9081 5.9376 20.9565 6.00152C21.2849 6.43449 21.6497 6.91566 22.0198 7.37273C22.4428 7.89516 22.8872 8.40453 23.3087 8.78702C23.5194 8.97826 23.7368 9.14923 23.9539 9.27477C24.1652 9.39701 24.4167 9.5 24.6855 9.5C25.1634 9.5 25.5406 9.24922 25.8324 8.94693C26.1212 8.64776 26.3771 8.24632 26.6179 7.82688C26.7626 7.57471 26.9045 7.3123 27.0492 7.04472C27.4069 6.38328 27.7817 5.69023 28.2586 5.04211L28.2586 5.04214L28.2624 5.03694C28.9357 4.09686 29.7335 3.36145 30.3676 2.77695C30.424 2.72503 30.479 2.67429 30.5326 2.62471C30.8418 2.33833 31.1452 2.0519 31.3157 1.79896C31.3985 1.67606 31.5068 1.48131 31.4988 1.2471C31.4889 0.959709 31.3158 0.761874 31.1276 0.650271C30.7845 0.446806 30.3528 0.482404 29.9952 0.567929C29.6097 0.660129 29.1764 0.842974 28.7338 1.09007C27.8475 1.5849 26.8577 2.37459 26.0487 3.36358C25.3312 4.22165 24.8798 4.82177 24.5989 5.22501Z" stroke="#FCFCFC" stroke-opacity="0.75"/>
</g>
</g>
<defs>
<clipPath id="clip0_2134_19719">
<rect width="32" height="32" fill="white"/>
</clipPath>
<clipPath id="clip1_2134_19719">
<rect width="32" height="26" fill="white" transform="translate(29) rotate(90)"/>
</clipPath>
<clipPath id="clip2_2134_19719">
<rect width="14" height="13" fill="white" transform="translate(0 19)"/>
</clipPath>
<clipPath id="clip3_2134_19719">
<rect width="13" height="10" fill="white" transform="translate(19)"/>
</clipPath>
</defs>
</svg>
