<svg width="32" height="32" viewBox="0 0 32 32" fill="none" xmlns="http://www.w3.org/2000/svg">
<g clip-path="url(#clip0_2136_19885)">
<rect x="1" y="2" width="14" height="14" fill="#3A3A3A"/>
<rect x="0.5" y="1.5" width="15" height="15" stroke="#FCFCFC" stroke-opacity="0.75"/>
<path d="M14 27L22 9L30 27L14 27Z" fill="#3A3A3A"/>
<path d="M13.5431 26.7969L13.2306 27.5L14 27.5L30 27.5L30.7694 27.5L30.4569 26.7969L22.4569 8.79693L22 7.76889L21.5431 8.79693L13.5431 26.7969Z" stroke="#FCFCFC" stroke-opacity="0.75"/>
<circle cx="11.5" cy="21.5" r="8.5" fill="#919191"/>
<circle cx="11.5" cy="21.5" r="9.03125" stroke="#FCFCFC" stroke-opacity="0.75" stroke-width="1.0625"/>
<g clip-path="url(#clip1_2136_19885)">
<rect y="20" width="13" height="12" fill="#FCFCFC" fill-opacity="0.75"/>
<rect x="5" y="24" width="5" height="1" fill="#3A3A3A"/>
<rect x="1" y="24" width="3" height="1" fill="#3A3A3A"/>
<rect x="5" y="27" width="5" height="1" fill="#3A3A3A"/>
<rect x="1" y="27" width="3" height="1" fill="#3A3A3A"/>
<rect x="5" y="30" width="5" height="1" fill="#3A3A3A"/>
<path d="M1 21H12V31H11V22H1V21Z" fill="#3A3A3A"/>
<rect x="1" y="30" width="3" height="1" fill="#3A3A3A"/>
</g>
</g>
<defs>
<clipPath id="clip0_2136_19885">
<rect width="32" height="32" fill="white"/>
</clipPath>
<clipPath id="clip1_2136_19885">
<rect width="13" height="12" fill="white" transform="translate(0 20)"/>
</clipPath>
</defs>
</svg>
