<svg width="32" height="32" viewBox="0 0 32 32" fill="none" xmlns="http://www.w3.org/2000/svg">
<g clip-path="url(#clip0_2138_20003)">
<path d="M8 2C8 0.89543 8.89543 0 10 0H22C23.1046 0 24 0.895431 24 2V5H25C26.1046 5 27 5.89543 27 7V8C27 9.10457 26.1046 10 25 10H7C5.89543 10 5 9.10457 5 8V7C5 5.89543 5.89543 5 7 5H8V2Z" fill="#FCFCFC" fill-opacity="0.75"/>
<path d="M23 9C23 12 19.866 15.0002 16 15.0002C12.134 15.0002 9 12 9 9C9 9 12.134 9 16 9C19.866 9 23 9 23 9Z" fill="#FCFCFC" fill-opacity="0.75"/>
<path d="M23.5 9V8.5H23V9L23 8.5H22.9999H22.9997H22.9994H22.9991H22.9987H22.9982H22.9977H22.9971H22.9964H22.9957H22.9949H22.994H22.993H22.992H22.9909H22.9897H22.9885H22.9872H22.9858H22.9843H22.9828H22.9812H22.9796H22.9779H22.9761H22.9742H22.9723H22.9703H22.9682H22.9661H22.9639H22.9616H22.9592H22.9568H22.9544H22.9518H22.9492H22.9465H22.9438H22.9409H22.9381H22.9351H22.9321H22.929H22.9258H22.9226H22.9193H22.916H22.9126H22.9091H22.9055H22.9019H22.8982H22.8945H22.8907H22.8868H22.8828H22.8788H22.8747H22.8706H22.8664H22.8621H22.8578H22.8534H22.8489H22.8444H22.8398H22.8351H22.8304H22.8256H22.8208H22.8158H22.8109H22.8058H22.8007H22.7955H22.7903H22.785H22.7796H22.7742H22.7687H22.7632H22.7575H22.7519H22.7461H22.7403H22.7345H22.7285H22.7225H22.7165H22.7104H22.7042H22.698H22.6917H22.6853H22.6789H22.6724H22.6658H22.6592H22.6526H22.6458H22.6391H22.6322H22.6253H22.6183H22.6113H22.6042H22.5971H22.5898H22.5826H22.5752H22.5679H22.5604H22.5529H22.5453H22.5377H22.53H22.5223H22.5145H22.5066H22.4987H22.4907H22.4826H22.4746H22.4664H22.4582H22.4499H22.4416H22.4332H22.4247H22.4162H22.4077H22.3991H22.3904H22.3816H22.3729H22.364H22.3551H22.3461H22.3371H22.328H22.3189H22.3097H22.3005H22.2912H22.2818H22.2724H22.2629H22.2534H22.2438H22.2342H22.2245H22.2148H22.205H22.1951H22.1852H22.1752H22.1652H22.1551H22.145H22.1348H22.1246H22.1143H22.1039H22.0935H22.0831H22.0726H22.062H22.0514H22.0407H22.03H22.0192H22.0084H21.9975H21.9866H21.9756H21.9646H21.9535H21.9423H21.9311H21.9199H21.9086H21.8972H21.8858H21.8743H21.8628H21.8513H21.8397H21.828H21.8163H21.8045H21.7927H21.7808H21.7689H21.7569H21.7449H21.7328H21.7207H21.7085H21.6963H21.684H21.6717H21.6593H21.6469H21.6344H21.6219H21.6093H21.5967H21.5841H21.5713H21.5586H21.5457H21.5329H21.52H21.507H21.494H21.4809H21.4678H21.4547H21.4414H21.4282H21.4149H21.4015H21.3881H21.3747H21.3612H21.3477H21.3341H21.3204H21.3068H21.293H21.2793H21.2654H21.2516H21.2377H21.2237H21.2097H21.1956H21.1815H21.1674H21.1532H21.139H21.1247H21.1103H21.096H21.0815H21.0671H21.0526H21.038H21.0234H21.0088H20.9941H20.9793H20.9646H20.9497H20.9349H20.92H20.905H20.89H20.875H20.8599H20.8448H20.8296H20.8144H20.7991H20.7838H20.7685H20.7531H20.7376H20.7222H20.7066H20.6911H20.6755H20.6598H20.6441H20.6284H20.6126H20.5968H20.581H20.5651H20.5491H20.5332H20.5171H20.5011H20.485H20.4688H20.4527H20.4364H20.4202H20.4039H20.3875H20.3711H20.3547H20.3382H20.3217H20.3052H20.2886H20.2719H20.2553H20.2386H20.2218H20.205H20.1882H20.1713H20.1544H20.1375H20.1205H20.1035H20.0864H20.0693H20.0522H20.035H20.0178H20.0006H19.9833H19.966H19.9486H19.9312H19.9138H19.8963H19.8788H19.8612H19.8436H19.826H19.8084H19.7907H19.7729H19.7552H19.7374H19.7195H19.7016H19.6837H19.6658H19.6478H19.6298H19.6117H19.5936H19.5755H19.5573H19.5391H19.5209H19.5026H19.4843H19.466H19.4476H19.4292H19.4107H19.3923H19.3737H19.3552H19.3366H19.318H19.2994H19.2807H19.262H19.2432H19.2244H19.2056H19.1868H19.1679H19.149H19.13H19.111H19.092H19.073H19.0539H19.0348H19.0156H18.9965H18.9773H18.958H18.9388H18.9195H18.9001H18.8808H18.8614H18.8419H18.8225H18.803H18.7835H18.7639H18.7443H18.7247H18.7051H18.6854H18.6657H18.646H18.6262H18.6064H18.5866H18.5667H18.5468H18.5269H18.507H18.487H18.467H18.447H18.4269H18.4068H18.3867H18.3666H18.3464H18.3262H18.306H18.2857H18.2654H18.2451H18.2248H18.2044H18.184H18.1636H18.1431H18.1226H18.1021H18.0816H18.061H18.0404H18.0198H17.9992H17.9785H17.9578H17.9371H17.9163H17.8956H17.8748H17.8539H17.8331H17.8122H17.7913H17.7704H17.7494H17.7284H17.7074H17.6864H17.6653H17.6443H17.6231H17.602H17.5809H17.5597H17.5385H17.5172H17.496H17.4747H17.4534H17.4321H17.4107H17.3894H17.368H17.3466H17.3251H17.3037H17.2822H17.2607H17.2391H17.2176H17.196H17.1744H17.1528H17.1311H17.1094H17.0877H17.066H17.0443H17.0225H17.0008H16.979H16.9571H16.9353H16.9134H16.8915H16.8696H16.8477H16.8258H16.8038H16.7818H16.7598H16.7378H16.7157H16.6936H16.6715H16.6494H16.6273H16.6052H16.583H16.5608H16.5386H16.5164H16.4941H16.4718H16.4496H16.4272H16.4049H16.3826H16.3602H16.3378H16.3154H16.293H16.2706H16.2481H16.2257H16.2032H16.1807H16.1581H16.1356H16.113H16.0905H16.0679H16.0453H16.0226H16H15.9774H15.9547H15.9321H15.9095H15.887H15.8644H15.8419H15.8193H15.7968H15.7743H15.7519H15.7294H15.707H15.6846H15.6622H15.6398H15.6174H15.5951H15.5728H15.5504H15.5282H15.5059H15.4836H15.4614H15.4392H15.417H15.3948H15.3727H15.3506H15.3285H15.3064H15.2843H15.2622H15.2402H15.2182H15.1962H15.1742H15.1523H15.1304H15.1085H15.0866H15.0647H15.0429H15.021H14.9992H14.9775H14.9557H14.934H14.9123H14.8906H14.8689H14.8472H14.8256H14.804H14.7824H14.7609H14.7393H14.7178H14.6963H14.6749H14.6534H14.632H14.6106H14.5893H14.5679H14.5466H14.5253H14.504H14.4828H14.4615H14.4403H14.4191H14.398H14.3769H14.3557H14.3347H14.3136H14.2926H14.2716H14.2506H14.2296H14.2087H14.1878H14.1669H14.1461H14.1252H14.1044H14.0837H14.0629H14.0422H14.0215H14.0008H13.9802H13.9596H13.939H13.9184H13.8979H13.8774H13.8569H13.8364H13.816H13.7956H13.7752H13.7549H13.7346H13.7143H13.694H13.6738H13.6536H13.6334H13.6133H13.5932H13.5731H13.553H13.533H13.513H13.493H13.4731H13.4532H13.4333H13.4134H13.3936H13.3738H13.354H13.3343H13.3146H13.2949H13.2753H13.2557H13.2361H13.2165H13.197H13.1775H13.1581H13.1386H13.1192H13.0999H13.0805H13.0612H13.042H13.0227H13.0035H12.9844H12.9652H12.9461H12.927H12.908H12.889H12.87H12.851H12.8321H12.8132H12.7944H12.7756H12.7568H12.738H12.7193H12.7006H12.682H12.6634H12.6448H12.6263H12.6077H12.5893H12.5708H12.5524H12.534H12.5157H12.4974H12.4791H12.4609H12.4427H12.4245H12.4064H12.3883H12.3702H12.3522H12.3342H12.3163H12.2984H12.2805H12.2626H12.2448H12.2271H12.2093H12.1916H12.174H12.1564H12.1388H12.1212H12.1037H12.0862H12.0688H12.0514H12.034H12.0167H11.9994H11.9822H11.965H11.9478H11.9307H11.9136H11.8965H11.8795H11.8625H11.8456H11.8287H11.8118H11.795H11.7782H11.7614H11.7447H11.7281H11.7114H11.6948H11.6783H11.6618H11.6453H11.6289H11.6125H11.5961H11.5798H11.5636H11.5473H11.5312H11.515H11.4989H11.4829H11.4668H11.4509H11.4349H11.419H11.4032H11.3874H11.3716H11.3559H11.3402H11.3245H11.3089H11.2934H11.2778H11.2624H11.2469H11.2315H11.2162H11.2009H11.1856H11.1704H11.1552H11.1401H11.125H11.11H11.095H11.08H11.0651H11.0503H11.0354H11.0207H11.0059H10.9912H10.9766H10.962H10.9474H10.9329H10.9185H10.904H10.8897H10.8753H10.861H10.8468H10.8326H10.8185H10.8044H10.7903H10.7763H10.7623H10.7484H10.7346H10.7207H10.707H10.6932H10.6796H10.6659H10.6523H10.6388H10.6253H10.6119H10.5985H10.5851H10.5718H10.5586H10.5453H10.5322H10.5191H10.506H10.493H10.48H10.4671H10.4543H10.4414H10.4287H10.4159H10.4033H10.3907H10.3781H10.3656H10.3531H10.3407H10.3283H10.316H10.3037H10.2915H10.2793H10.2672H10.2551H10.2431H10.2311H10.2192H10.2073H10.1955H10.1837H10.172H10.1603H10.1487H10.1372H10.1257H10.1142H10.1028H10.0914H10.0801H10.0689H10.0577H10.0465H10.0354H10.0244H10.0134H10.0025H9.9916H9.98077H9.96999H9.95927H9.9486H9.93798H9.92742H9.91691H9.90646H9.89605H9.88571H9.87542H9.86518H9.85499H9.84486H9.83479H9.82477H9.8148H9.80489H9.79503H9.78523H9.77549H9.7658H9.75616H9.74658H9.73706H9.72759H9.71818H9.70882H9.69952H9.69028H9.68109H9.67196H9.66288H9.65386H9.6449H9.636H9.62715H9.61836H9.60962H9.60095H9.59233H9.58377H9.57526H9.56681H9.55843H9.55009H9.54182H9.53361H9.52545H9.51735H9.50931H9.50133H9.49341H9.48554H9.47774H9.46999H9.4623H9.45468H9.44711H9.4396H9.43215H9.42476H9.41743H9.41016H9.40295H9.3958H9.3887H9.38167H9.3747H9.36779H9.36094H9.35416H9.34743H9.34076H9.33416H9.32761H9.32113H9.31471H9.30835H9.30205H9.29581H9.28963H9.28352H9.27747H9.27148H9.26555H9.25968H9.25388H9.24814H9.24246H9.23685H9.23129H9.22581H9.22038H9.21502H9.20972H9.20448H9.19931H9.1942H9.18915H9.18417H9.17925H9.17439H9.1696H9.16488H9.16022H9.15562H9.15109H9.14662H9.14222H9.13788H9.1336H9.12939H9.12525H9.12117H9.11716H9.11321H9.10933H9.10552H9.10177H9.09808H9.09446H9.09091H9.08743H9.08401H9.08066H9.07737H9.07415H9.071H9.06791H9.06489H9.06194H9.05906H9.05624H9.05349H9.05081H9.04819H9.04565H9.04317H9.04076H9.03841H9.03614H9.03393H9.0318H9.02973H9.02773H9.02579H9.02393H9.02214H9.02041H9.01876H9.01717H9.01565H9.0142H9.01282H9.01152H9.01028H9.00911H9.00801H9.00698H9.00602H9.00513H9.00432H9.00357H9.00289H9.00229H9.00175H9.00129H9.00089H9.00057H9.00032H9.00014H9.00004L9 9V8.5H8.5V9C8.5 10.6737 9.37007 12.3016 10.7182 13.499C12.0709 14.7003 13.9373 15.5002 16 15.5002C18.0627 15.5002 19.9291 14.7003 21.2818 13.499C22.6299 12.3016 23.5 10.6737 23.5 9Z" stroke="#FCFCFC" stroke-opacity="0.75"/>
<path d="M3 27.6667C3 21.7756 7.77563 17 13.6667 17H18.3333C24.2244 17 29 21.7756 29 27.6667V31H23V27H21V31H11V27H9V31H3V27.6667Z" fill="#FCFCFC" fill-opacity="0.75"/>
<path d="M29 31.5H29.5V31V27.6667C29.5 21.4995 24.5005 16.5 18.3333 16.5H13.6667C7.49949 16.5 2.5 21.4995 2.5 27.6667V31V31.5H3H9H9.5V31V27.5H10.5V31V31.5H11H21H21.5V31V27.5H22.5V31V31.5H23H29Z" stroke="#FCFCFC" stroke-opacity="0.75"/>
<circle cx="16" cy="8" r="6.5" fill="url(#paint0_linear_2138_20003)" stroke="#919191"/>
<path d="M3.5 27.6667C3.5 22.0518 8.05177 17.5 13.6667 17.5H18.3333C23.9482 17.5 28.5 22.0518 28.5 27.6667V30.5H23.5V27.5C23.5 26.9477 23.0523 26.5 22.5 26.5C21.9477 26.5 21.5 26.9477 21.5 27.5V30.5H10.5V27.5C10.5 26.9477 10.0523 26.5 9.5 26.5C8.94771 26.5 8.5 26.9477 8.5 27.5V30.5H3.5V27.6667Z" fill="url(#paint1_linear_2138_20003)" stroke="#919191"/>
<path d="M9 6.5H9.5V6V2C9.5 1.72386 9.72386 1.5 10 1.5H22C22.2761 1.5 22.5 1.72386 22.5 2V6V6.5H23H25C25.2761 6.5 25.5 6.72386 25.5 7V8C25.5 8.27614 25.2761 8.5 25 8.5H7C6.72386 8.5 6.5 8.27614 6.5 8V7C6.5 6.72386 6.72386 6.5 7 6.5H9Z" fill="#0C121C" stroke="#919191"/>
</g>
<defs>
<linearGradient id="paint0_linear_2138_20003" x1="23" y1="8.63636" x2="9" y2="8.63636" gradientUnits="userSpaceOnUse">
<stop stop-color="#F4F7F6"/>
<stop offset="1" stop-color="#D8D8D8"/>
</linearGradient>
<linearGradient id="paint1_linear_2138_20003" x1="29" y1="24.6364" x2="3" y2="24.6364" gradientUnits="userSpaceOnUse">
<stop stop-color="#F4F7F6"/>
<stop offset="1" stop-color="#D8D8D8"/>
</linearGradient>
<clipPath id="clip0_2138_20003">
<rect width="32" height="32" fill="white"/>
</clipPath>
</defs>
</svg>
