<svg width="32" height="32" viewBox="0 0 32 32" fill="none" xmlns="http://www.w3.org/2000/svg">
<g clip-path="url(#clip0_2141_19212)">
<g clip-path="url(#clip1_2141_19212)">
<rect x="1" y="2" width="10" height="28" rx="2" fill="#FCFCFC" fill-opacity="0.75"/>
<path d="M2 4C2 3.44772 2.44772 3 3 3H9C9.55228 3 10 3.44772 10 4V6H2V4Z" fill="#919191"/>
<rect x="2" y="14" width="8" height="5" fill="#919191"/>
<rect x="2" y="21" width="8" height="2" fill="#919191"/>
<path d="M2 25H10V28C10 28.5523 9.55228 29 9 29H3C2.44772 29 2 28.5523 2 28V25Z" fill="#919191"/>
<rect x="2.5" y="3.5" width="7" height="25" rx="0.5" stroke="#3A3A3A"/>
</g>
<g clip-path="url(#clip2_2141_19212)">
<rect x="11" y="2" width="10" height="28" rx="2" fill="#FCFCFC" fill-opacity="0.75"/>
<path d="M12 4C12 3.44772 12.4477 3 13 3H19C19.5523 3 20 3.44772 20 4V6H12V4Z" fill="#919191"/>
<rect x="12" y="14" width="8" height="5" fill="#919191"/>
<rect x="12" y="21" width="8" height="2" fill="#919191"/>
<path d="M12 25H20V28C20 28.5523 19.5523 29 19 29H13C12.4477 29 12 28.5523 12 28V25Z" fill="#919191"/>
<rect x="12.5" y="3.5" width="7" height="25" rx="0.5" stroke="#3A3A3A"/>
</g>
<g clip-path="url(#clip3_2141_19212)">
<rect x="21" y="2" width="10" height="28" rx="2" fill="#FCFCFC" fill-opacity="0.75"/>
<path d="M22 4C22 3.44772 22.4477 3 23 3H29C29.5523 3 30 3.44772 30 4V6H22V4Z" fill="#919191"/>
<rect x="22" y="14" width="8" height="5" fill="#919191"/>
<rect x="22" y="21" width="8" height="2" fill="#919191"/>
<path d="M22 25H30V28C30 28.5523 29.5523 29 29 29H23C22.4477 29 22 28.5523 22 28V25Z" fill="#919191"/>
<rect x="22.5" y="3.5" width="7" height="25" rx="0.5" stroke="#3A3A3A"/>
</g>
<g clip-path="url(#clip4_2141_19212)">
<path d="M11.8726 23.0803C11.2001 22.6815 8.97116 23.802 7.434 25.6822C5.87762 27.5435 5.60863 28.1512 5.60863 28.1512C5.60863 28.1512 3.71051 25.1077 2.5 24.5C1.52006 24.0252 0.44443 25.4686 1.28987 26.3612C2.23138 27.3678 4.53262 31 5.68549 31C6.83836 31 7.47244 28.626 8.85588 26.7458C10.393 24.5997 12.5451 23.4792 11.8726 23.0803Z" fill="#00A1DB"/>
<path d="M5.59895 27.225C5.41132 26.9483 5.17351 26.6082 4.90866 26.254C4.58985 25.8277 4.2267 25.3742 3.8609 24.9846C3.50453 24.6051 3.10932 24.2464 2.72434 24.0532L2.72436 24.0531L2.71802 24.05C1.93639 23.6713 1.17596 24.0887 0.7992 24.6334C0.412589 25.1924 0.304428 26.0468 0.925775 26.7039C1.13977 26.9329 1.44277 27.3249 1.81359 27.8131C1.86038 27.8747 1.90805 27.9376 1.95653 28.0015C2.28486 28.4345 2.64975 28.9157 3.01983 29.3727C3.44283 29.8952 3.8872 30.4045 4.3087 30.787C4.51944 30.9783 4.73684 31.1492 4.95387 31.2748C5.1652 31.397 5.41669 31.5 5.68549 31.5C6.16341 31.5 6.54065 31.2492 6.83243 30.9469C7.12121 30.6478 7.37711 30.2463 7.61786 29.8269C7.7626 29.5747 7.90451 29.3123 8.04922 29.0447C8.40693 28.3833 8.78173 27.6902 9.25861 27.0421L9.25864 27.0421L9.26237 27.0369C9.93571 26.0969 10.7335 25.3615 11.3676 24.777C11.424 24.725 11.479 24.6743 11.5326 24.6247C11.8418 24.3383 12.1452 24.0519 12.3157 23.799C12.3985 23.6761 12.5068 23.4813 12.4988 23.2471C12.4889 22.9597 12.3158 22.7619 12.1276 22.6503C11.7845 22.4468 11.3528 22.4824 10.9952 22.5679C10.6097 22.6601 10.1764 22.843 9.73379 23.0901C8.84747 23.5849 7.85773 24.3746 7.04868 25.3636C6.33124 26.2216 5.87982 26.8218 5.59895 27.225Z" stroke="#FCFCFC" stroke-opacity="0.75"/>
</g>
</g>
<defs>
<clipPath id="clip0_2141_19212">
<rect width="32" height="32" fill="white"/>
</clipPath>
<clipPath id="clip1_2141_19212">
<rect width="10" height="28" fill="white" transform="translate(1 2)"/>
</clipPath>
<clipPath id="clip2_2141_19212">
<rect width="10" height="28" fill="white" transform="translate(11 2)"/>
</clipPath>
<clipPath id="clip3_2141_19212">
<rect width="10" height="28" fill="white" transform="translate(21 2)"/>
</clipPath>
<clipPath id="clip4_2141_19212">
<rect width="13" height="10" fill="white" transform="translate(0 22)"/>
</clipPath>
</defs>
</svg>
