<svg width="32" height="32" viewBox="0 0 32 32" fill="none" xmlns="http://www.w3.org/2000/svg">
<g clip-path="url(#clip0_2141_19499)">
<rect y="3" width="32" height="26" fill="#FCFCFC" fill-opacity="0.75"/>
<rect x="1.5" y="4.5" width="29" height="23" fill="#FCFCFC" stroke="#00A1DB"/>
<rect x="2" y="5" width="11" height="4" fill="#D8D8D8"/>
<path d="M12 5H13V9H2V8H12V5Z" fill="#919191"/>
<rect x="12" y="19" width="6" height="8" fill="#D8D8D8"/>
<rect x="12" y="19" width="18" height="1" fill="#919191"/>
<rect x="12" y="23" width="18" height="1" fill="#919191"/>
<rect x="12" y="19" width="1" height="8" fill="#919191"/>
<rect x="17" y="19" width="1" height="8" fill="#919191"/>
<rect x="23" y="19" width="1" height="8" fill="#919191"/>
<rect x="12" y="13" width="14" height="1" fill="#D8D8D8"/>
<rect x="16" y="9" width="12" height="1" fill="#D8D8D8"/>
<rect x="6" y="12" width="1" height="8" fill="#D8D8D8"/>
<path d="M25 12H26V17H25V12Z" fill="#D8D8D8"/>
<path d="M18 9H19V16H18V9Z" fill="#D8D8D8"/>
<path d="M12 13H13V16H12V13Z" fill="#D8D8D8"/>
<path d="M23 7H24V10H23V7Z" fill="#D8D8D8"/>
<rect x="4" y="15" width="9" height="1" fill="#D8D8D8"/>
</g>
<defs>
<clipPath id="clip0_2141_19499">
<rect width="32" height="32" fill="white"/>
</clipPath>
</defs>
</svg>
