<svg width="32" height="32" viewBox="0 0 32 32" fill="none" xmlns="http://www.w3.org/2000/svg">
<g clip-path="url(#clip0_2144_19942)">
<path d="M5 18C5 16.3431 6.34315 15 8 15H24C25.6569 15 27 16.3431 27 18V28C27 29.6569 25.6569 31 24 31H8C6.34315 31 5 29.6569 5 28V18Z" fill="#FCFCFC" fill-opacity="0.75"/>
<path d="M8 14.5C6.067 14.5 4.5 16.067 4.5 18V28C4.5 29.933 6.067 31.5 8 31.5H24C25.933 31.5 27.5 29.933 27.5 28V18C27.5 16.067 25.933 14.5 24 14.5H8Z" stroke="#FCFCFC" stroke-opacity="0.75"/>
<path fill-rule="evenodd" clip-rule="evenodd" d="M17 7.5C17 3.91015 19.9101 1 23.5 1H24.5C28.0899 1 31 3.91015 31 7.5V16H30V7.5C30 4.46243 27.5376 2 24.5 2H23.5C20.4624 2 18 4.46243 18 7.5V16H17V7.5Z" fill="#3A3A3A"/>
<path d="M31 16.5H31.5V16V7.5C31.5 3.63401 28.366 0.5 24.5 0.5H23.5C19.634 0.5 16.5 3.63401 16.5 7.5V16V16.5H17H18H18.5V16V7.5C18.5 4.73858 20.7386 2.5 23.5 2.5H24.5C27.2614 2.5 29.5 4.73858 29.5 7.5V16V16.5H30H31Z" stroke="#FCFCFC" stroke-opacity="0.75"/>
<path d="M5.5 18C5.5 16.6193 6.61929 15.5 8 15.5H24C25.3807 15.5 26.5 16.6193 26.5 18V28C26.5 29.3807 25.3807 30.5 24 30.5H8C6.61929 30.5 5.5 29.3807 5.5 28V18Z" fill="url(#paint0_linear_2144_19942)" stroke="#919191"/>
<rect x="15" y="20" width="2" height="5" rx="1" fill="#3A3A3A"/>
</g>
<defs>
<linearGradient id="paint0_linear_2144_19942" x1="16" y1="15" x2="16" y2="31" gradientUnits="userSpaceOnUse">
<stop stop-color="#F4F7F6"/>
<stop offset="1" stop-color="#D8D8D8"/>
</linearGradient>
<clipPath id="clip0_2144_19942">
<rect width="32" height="32" fill="white"/>
</clipPath>
</defs>
</svg>
