<svg width="32" height="32" viewBox="0 0 32 32" fill="none" xmlns="http://www.w3.org/2000/svg">
<g clip-path="url(#clip0_2145_19974)">
<path d="M4 14L4 6L8 2L14 2L14 14L4 14Z" fill="#FCFCFC" fill-opacity="0.75"/>
<path d="M3.5 14L3.5 14.5L4 14.5L14 14.5L14.5 14.5L14.5 14L14.5 2L14.5 1.5L14 1.5L8 1.5L7.79289 1.5L7.64645 1.64645L3.64645 5.64645L3.5 5.79289L3.5 6L3.5 14Z" stroke="#FCFCFC" stroke-opacity="0.75"/>
<path d="M4.5 13.5L4.5 6.20711L8.20711 2.5L13.5 2.5L13.5 13.5L4.5 13.5Z" fill="url(#paint0_linear_2145_19974)" stroke="#919191"/>
<path d="M4 7L4 6L8 6L8 2L9 2L9 7L4 7Z" fill="#919191"/>
</g>
<g clip-path="url(#clip1_2145_19974)">
<path d="M18 14L18 6L22 2L28 2L28 14L18 14Z" fill="#FCFCFC" fill-opacity="0.75"/>
<path d="M17.5 14L17.5 14.5L18 14.5L28 14.5L28.5 14.5L28.5 14L28.5 2L28.5 1.5L28 1.5L22 1.5L21.7929 1.5L21.6464 1.64645L17.6464 5.64645L17.5 5.79289L17.5 6L17.5 14Z" stroke="#FCFCFC" stroke-opacity="0.75"/>
<path d="M18.5 13.5L18.5 6.20711L22.2071 2.5L27.5 2.5L27.5 13.5L18.5 13.5Z" fill="url(#paint1_linear_2145_19974)" stroke="#919191"/>
<path d="M18 7L18 6L22 6L22 2L23 2L23 7L18 7Z" fill="#919191"/>
</g>
<g clip-path="url(#clip2_2145_19974)">
<path d="M18 30L18 22L22 18L28 18L28 30L18 30Z" fill="#FCFCFC" fill-opacity="0.75"/>
<path d="M17.5 30L17.5 30.5L18 30.5L28 30.5L28.5 30.5L28.5 30L28.5 18L28.5 17.5L28 17.5L22 17.5L21.7929 17.5L21.6464 17.6464L17.6464 21.6464L17.5 21.7929L17.5 22L17.5 30Z" stroke="#FCFCFC" stroke-opacity="0.75"/>
<path d="M18.5 29.5L18.5 22.2071L22.2071 18.5L27.5 18.5L27.5 29.5L18.5 29.5Z" fill="url(#paint2_linear_2145_19974)" stroke="#919191"/>
<path d="M18 23L18 22L22 22L22 18L23 18L23 23L18 23Z" fill="#919191"/>
</g>
<g clip-path="url(#clip3_2145_19974)">
<path d="M1 31H4.58579C4.851 31 5.10536 30.8946 5.29289 30.7071L11.2929 24.7071C11.6834 24.3166 11.6834 23.6834 11.2929 23.2929L8.70711 20.7071C8.31658 20.3166 7.68342 20.3166 7.29289 20.7071L1.29289 26.7071C1.10536 26.8946 1 27.149 1 27.4142V31Z" fill="#FCFCFC" fill-opacity="0.75"/>
<path d="M0.5 31V31.5H1H4.58579C4.98361 31.5 5.36514 31.342 5.64645 31.0607L11.6464 25.0607C12.2322 24.4749 12.2322 23.5251 11.6464 22.9393L9.06066 20.3536C8.47487 19.7678 7.52513 19.7678 6.93934 20.3536L0.93934 26.3536C0.658035 26.6349 0.5 27.0164 0.5 27.4142V31Z" stroke="#FCFCFC" stroke-opacity="0.75"/>
<path d="M6.39528 25.6047L5.57206 23.135L7.64645 21.0607C7.84171 20.8654 8.15829 20.8654 8.35355 21.0607L10.9393 23.6464C11.1346 23.8417 11.1346 24.1583 10.9393 24.3536L8.86495 26.4279L6.39528 25.6047Z" fill="#FCFCFC" stroke="#3A3A3A"/>
<path d="M4.58579 30.5H1.5V27.4142C1.5 27.2816 1.55268 27.1544 1.64645 27.0607L3 25.7071L6.29289 29L4.93934 30.3536C4.84557 30.4473 4.71839 30.5 4.58579 30.5Z" fill="#FCFCFC" stroke="#919191"/>
<path d="M2.70711 26L6 22.7071L9.29289 26L6 29.2929L2.70711 26Z" fill="url(#paint3_linear_2145_19974)" stroke="#3A3A3A"/>
<path d="M1 28H2V30H4V31H1V28Z" fill="#00A1DB"/>
<rect x="1" y="30" width="1" height="1" fill="#919191"/>
</g>
<defs>
<linearGradient id="paint0_linear_2145_19974" x1="4" y1="8" x2="14" y2="8" gradientUnits="userSpaceOnUse">
<stop stop-color="#F4F7F6"/>
<stop offset="1" stop-color="#D8D8D8"/>
</linearGradient>
<linearGradient id="paint1_linear_2145_19974" x1="18" y1="8" x2="28" y2="8" gradientUnits="userSpaceOnUse">
<stop stop-color="#F4F7F6"/>
<stop offset="1" stop-color="#D8D8D8"/>
</linearGradient>
<linearGradient id="paint2_linear_2145_19974" x1="18" y1="24" x2="28" y2="24" gradientUnits="userSpaceOnUse">
<stop stop-color="#F4F7F6"/>
<stop offset="1" stop-color="#D8D8D8"/>
</linearGradient>
<linearGradient id="paint3_linear_2145_19974" x1="9.71429" y1="22" x2="3.73879" y2="31.1371" gradientUnits="userSpaceOnUse">
<stop stop-color="#94E1FC"/>
<stop offset="1" stop-color="#00A1DB"/>
</linearGradient>
<clipPath id="clip0_2145_19974">
<rect width="14" height="12" fill="white" transform="translate(3 15) rotate(-90)"/>
</clipPath>
<clipPath id="clip1_2145_19974">
<rect width="14" height="12" fill="white" transform="translate(17 15) rotate(-90)"/>
</clipPath>
<clipPath id="clip2_2145_19974">
<rect width="14" height="12" fill="white" transform="translate(17 31) rotate(-90)"/>
</clipPath>
<clipPath id="clip3_2145_19974">
<rect width="13" height="13" fill="white" transform="translate(0 19)"/>
</clipPath>
</defs>
</svg>
