<svg width="32" height="32" viewBox="0 0 32 32" fill="none" xmlns="http://www.w3.org/2000/svg">
<g clip-path="url(#clip0_2145_20140)">
<path d="M15 30H18V25H20C21.1046 25 22 24.1046 22 23V21C22 19.8954 21.1046 19 20 19H18V2H15V19H13C11.8954 19 11 19.8954 11 21V23C11 24.1046 11.8954 25 13 25H15V30Z" fill="#FCFCFC" fill-opacity="0.75"/>
<path d="M6 2H9V7H11C12.1046 7 13 7.89543 13 9V11C13 12.1046 12.1046 13 11 13H9V30H6V13H4C2.89543 13 2 12.1046 2 11V9C2 7.89543 2.89543 7 4 7H6V2Z" fill="#FCFCFC" fill-opacity="0.75"/>
<path d="M24 2H27V7H29C30.1046 7 31 7.89543 31 9V11C31 12.1046 30.1046 13 29 13H27V30H24V13H22C20.8954 13 20 12.1046 20 11V9C20 7.89543 20.8954 7 22 7H24V2Z" fill="#FCFCFC" fill-opacity="0.75"/>
<rect x="7" y="3" width="1" height="26" fill="#3A3A3A"/>
<rect x="25" y="3" width="1" height="26" fill="#3A3A3A"/>
<rect x="16" y="3" width="1" height="26" fill="#3A3A3A"/>
<rect x="3" y="8" width="9" height="4" rx="1" fill="#919191"/>
<rect x="21" y="8" width="9" height="4" rx="1" fill="#919191"/>
<rect x="12" y="20" width="9" height="4" rx="1" fill="#919191"/>
</g>
<defs>
<clipPath id="clip0_2145_20140">
<rect width="32" height="32" fill="white"/>
</clipPath>
</defs>
</svg>
