<svg width="32" height="32" viewBox="0 0 32 32" fill="none" xmlns="http://www.w3.org/2000/svg">
<g clip-path="url(#clip0_2151_20197)">
<rect y="3" width="32" height="26" fill="#FCFCFC" fill-opacity="0.75"/>
<rect x="1.5" y="4.5" width="29" height="23" fill="#FCFCFC" stroke="#919191"/>
</g>
<path d="M17 11H22V12H23V15H22H21H20V14H19V17V19H20V18H19V15H22V16H23V21H22V22H17V21H16V12H17V11Z" fill="#FCFCFC" fill-opacity="0.75"/>
<rect x="18" y="12" width="3" height="1" fill="#3A3A3A"/>
<rect x="17" y="16" width="4" height="1" fill="#3A3A3A"/>
<rect x="18" y="20" width="3" height="1" fill="#3A3A3A"/>
<rect x="17" y="13" width="1" height="7" fill="#3A3A3A"/>
<rect x="21" y="13" width="1" height="1" fill="#3A3A3A"/>
<rect x="21" y="17" width="1" height="3" fill="#3A3A3A"/>
<path d="M11 13V11H14V19H15V22H10V19H11V16H10V13H11Z" fill="#FCFCFC" fill-opacity="0.75"/>
<rect x="11" y="20" width="3" height="1" fill="#3A3A3A"/>
<rect x="11" y="14" width="2" height="1" fill="#3A3A3A"/>
<rect x="12" y="12" width="1" height="9" fill="#3A3A3A"/>
<defs>
<clipPath id="clip0_2151_20197">
<rect width="32" height="26" fill="white" transform="translate(0 3)"/>
</clipPath>
</defs>
</svg>
