<svg width="32" height="32" viewBox="0 0 32 32" fill="none" xmlns="http://www.w3.org/2000/svg">
<g clip-path="url(#clip0_2165_20882)">
<rect x="1" y="1" width="30" height="30" fill="#FCFCFC" fill-opacity="0.75"/>
<rect x="4.5" y="2.5" width="25" height="27" fill="url(#paint0_linear_2165_20882)" stroke="#919191"/>
<path d="M17 17H24V18H17V17Z" fill="#3A3A3A"/>
<path d="M10 17H17V18H10V17Z" fill="#3A3A3A"/>
<rect x="10.5" y="7.5" width="13" height="6" fill="#FCFCFC" stroke="#3A3A3A"/>
<rect x="2" y="2" width="1" height="28" fill="#919191"/>
<g clip-path="url(#clip1_2165_20882)">
<path d="M1 21H9L13 25V31H1V21Z" fill="#FCFCFC" fill-opacity="0.75"/>
<path d="M1 20.5H0.5V21V31V31.5H1H13H13.5V31V25V24.7929L13.3536 24.6464L9.35355 20.6464L9.20711 20.5H9H1Z" stroke="#FCFCFC" stroke-opacity="0.75"/>
<path d="M1.5 21.5H8.79289L12.5 25.2071V30.5H1.5V21.5Z" fill="url(#paint1_linear_2165_20882)" stroke="#00A1DB"/>
<path d="M8 21H9V25H13V26H8V21Z" fill="#00A1DB"/>
</g>
<rect y="18" width="9" height="2" fill="#FCFCFC" fill-opacity="0.75"/>
<rect x="1" y="19" width="7" height="1" fill="#00A1DB"/>
</g>
<defs>
<linearGradient id="paint0_linear_2165_20882" x1="17" y1="2" x2="17" y2="30" gradientUnits="userSpaceOnUse">
<stop stop-color="#F4F7F6"/>
<stop offset="1" stop-color="#D8D8D8"/>
</linearGradient>
<linearGradient id="paint1_linear_2165_20882" x1="10.6667" y1="22.3889" x2="5.17282" y2="30.8651" gradientUnits="userSpaceOnUse">
<stop stop-color="#94E1FC"/>
<stop offset="1" stop-color="#FCFCFC"/>
</linearGradient>
<clipPath id="clip0_2165_20882">
<rect width="32" height="32" fill="white"/>
</clipPath>
<clipPath id="clip1_2165_20882">
<rect width="14" height="12" fill="white" transform="translate(0 20)"/>
</clipPath>
</defs>
</svg>
