<svg width="32" height="32" viewBox="0 0 32 32" fill="none" xmlns="http://www.w3.org/2000/svg">
<g clip-path="url(#clip0_2165_20938)">
<rect x="1" y="1" width="30" height="30" fill="#FCFCFC" fill-opacity="0.75"/>
<rect x="4.5" y="2.5" width="25" height="27" fill="url(#paint0_linear_2165_20938)" stroke="#919191"/>
<path d="M17 17H24V18H17V17Z" fill="#3A3A3A"/>
<path d="M10 17H17V18H10V17Z" fill="#3A3A3A"/>
<rect x="10.5" y="7.5" width="13" height="6" fill="#FCFCFC" stroke="#3A3A3A"/>
<rect x="2" y="2" width="1" height="28" fill="#919191"/>
<g clip-path="url(#clip1_2165_20938)">
<path d="M10 31L10 24L6 24L6 20L1 20L1 31L10 31Z" fill="#FCFCFC" fill-opacity="0.75"/>
<path d="M10.5 31L10.5 31.5L10 31.5L1 31.5L0.500001 31.5L0.500001 31L0.5 20L0.5 19.5L1 19.5L6 19.5L6.5 19.5L6.5 20L6.5 23.5L10 23.5L10.5 23.5L10.5 24L10.5 31Z" stroke="#FCFCFC" stroke-opacity="0.75"/>
<path d="M5.5 24L5.5 20.5L1.5 20.5L1.5 30.5L9.5 30.5L9.5 24.5L6 24.5L5.5 24.5L5.5 24Z" fill="url(#paint1_linear_2165_20938)" stroke="#00A1DB"/>
</g>
</g>
<defs>
<linearGradient id="paint0_linear_2165_20938" x1="17" y1="2" x2="17" y2="30" gradientUnits="userSpaceOnUse">
<stop stop-color="#F4F7F6"/>
<stop offset="1" stop-color="#D8D8D8"/>
</linearGradient>
<linearGradient id="paint1_linear_2165_20938" x1="8.75" y1="22.1389" x2="1.03922" y2="27.0458" gradientUnits="userSpaceOnUse">
<stop stop-color="#94E1FC"/>
<stop offset="1" stop-color="#FCFCFC"/>
</linearGradient>
<clipPath id="clip0_2165_20938">
<rect width="32" height="32" fill="white"/>
</clipPath>
<clipPath id="clip1_2165_20938">
<rect width="11" height="13" fill="white" transform="translate(0 19)"/>
</clipPath>
</defs>
</svg>
