<svg width="32" height="32" viewBox="0 0 32 32" fill="none" xmlns="http://www.w3.org/2000/svg">
<g clip-path="url(#clip0_2166_20986)">
<rect x="1" y="1" width="30" height="30" fill="#FCFCFC" fill-opacity="0.75"/>
<rect x="4.5" y="2.5" width="25" height="27" fill="url(#paint0_linear_2166_20986)" stroke="#919191"/>
<path d="M17 17H24V18H17V17Z" fill="#3A3A3A"/>
<path d="M10 17H17V18H10V17Z" fill="#3A3A3A"/>
<rect x="10.5" y="7.5" width="13" height="6" fill="#FCFCFC" stroke="#3A3A3A"/>
<rect x="2" y="2" width="1" height="28" fill="#919191"/>
<rect x="2" y="25" width="1" height="5" fill="#FCFCFC" fill-opacity="0.75"/>
<g clip-path="url(#clip1_2166_20986)">
<path d="M6.49953 21.5L8.24953 23.75L11.2495 24.75L9.24953 27L9.49953 30.5L6.49953 29.1818L3.49953 30.5L3.74953 27L1.76953 24.75L4.74953 23.75L6.49953 21.5Z" fill="#FCFCFC" fill-opacity="0.75"/>
<path d="M6.89421 21.193L6.49953 20.6856L6.10486 21.193L4.44746 23.324L1.61046 24.276L0.897035 24.5154L1.39417 25.0803L3.23589 27.1732L3.0008 30.4644L2.94174 31.2912L3.70067 30.9578L6.49953 29.728L9.29839 30.9578L10.0573 31.2912L9.99826 30.4644L9.76328 27.1746L11.6232 25.0822L12.127 24.5154L11.4076 24.2757L8.55126 23.3235L6.89421 21.193Z" stroke="#FCFCFC" stroke-opacity="0.75"/>
<path d="M6.5 21.9313L7.82817 24.0184L7.94272 24.1984L8.15194 24.2403L10.931 24.7961L8.91366 26.63L8.70712 26.8178L8.75856 27.0921L9.31934 30.083L6.7305 28.7381L6.5 28.6184L6.26951 28.7381L3.68066 30.083L4.24144 27.0921L4.29288 26.8178L4.08634 26.63L2.06901 24.7961L4.84806 24.2403L5.05728 24.1984L5.17183 24.0184L6.5 21.9313Z" fill="url(#paint1_linear_2166_20986)" stroke="#00A1DB"/>
</g>
</g>
<defs>
<linearGradient id="paint0_linear_2166_20986" x1="17" y1="2" x2="17" y2="30" gradientUnits="userSpaceOnUse">
<stop stop-color="#F4F7F6"/>
<stop offset="1" stop-color="#D8D8D8"/>
</linearGradient>
<linearGradient id="paint1_linear_2166_20986" x1="9.86111" y1="22.3889" x2="4.18689" y2="30.4139" gradientUnits="userSpaceOnUse">
<stop stop-color="#94E1FC"/>
<stop offset="1" stop-color="#FCFCFC"/>
</linearGradient>
<clipPath id="clip0_2166_20986">
<rect width="32" height="32" fill="white"/>
</clipPath>
<clipPath id="clip1_2166_20986">
<rect width="13" height="12" fill="white" transform="translate(0 20)"/>
</clipPath>
</defs>
</svg>
