<svg width="32" height="32" viewBox="0 0 32 32" fill="none" xmlns="http://www.w3.org/2000/svg">
<g clip-path="url(#clip0_2171_21405)">
<path d="M1 23C1 25.2091 2.79086 27 5 27H12.5C12.8148 27 13.1111 27.1482 13.3 27.4L15.2 29.9333C15.6 30.4667 16.4 30.4667 16.8 29.9333L18.7 27.4C18.8889 27.1482 19.1852 27 19.5 27H27C29.2091 27 31 25.2091 31 23V8C31 5.79086 29.2091 4 27 4H5C2.79086 4 1 5.79086 1 8V23Z" fill="#FCFCFC" fill-opacity="0.75"/>
<path d="M0.5 23V8C0.5 5.51472 2.51472 3.5 5 3.5H27C29.4853 3.5 31.5 5.51472 31.5 8V23C31.5 25.4853 29.4853 27.5 27 27.5H19.5C19.3426 27.5 19.1944 27.5741 19.1 27.7L17.2 30.2333C16.6 31.0333 15.4 31.0333 14.8 30.2333L12.9 27.7C12.8056 27.5741 12.6574 27.5 12.5 27.5H5C2.51472 27.5 0.5 25.4853 0.5 23Z" stroke="#FCFCFC" stroke-opacity="0.75"/>
<path d="M1.5 8V23C1.5 24.933 3.067 26.5 5 26.5H12.5C12.9721 26.5 13.4167 26.7223 13.7 27.1L15.6 29.6333C15.8 29.9 16.2 29.9 16.4 29.6333L18.3 27.1C18.5833 26.7223 19.0279 26.5 19.5 26.5H27C28.933 26.5 30.5 24.933 30.5 23V8C30.5 6.067 28.933 4.5 27 4.5H5C3.067 4.5 1.5 6.067 1.5 8Z" fill="url(#paint0_linear_2171_21405)" stroke="#919191"/>
</g>
<g clip-path="url(#clip1_2171_21405)">
<rect x="7" y="9" width="9" height="1" fill="#3A3A3A"/>
<rect x="7" y="21" width="9" height="1" fill="#3A3A3A"/>
<rect x="16" y="21" width="9" height="1" fill="#3A3A3A"/>
<rect x="7" y="17" width="9" height="1" fill="#3A3A3A"/>
<rect x="16" y="17" width="9" height="1" fill="#3A3A3A"/>
<rect x="7" y="13" width="9" height="1" fill="#3A3A3A"/>
<rect x="16" y="13" width="9" height="1" fill="#3A3A3A"/>
</g>
<defs>
<linearGradient id="paint0_linear_2171_21405" x1="16" y1="31" x2="16" y2="4" gradientUnits="userSpaceOnUse">
<stop stop-color="#FCFCFC"/>
<stop offset="1" stop-color="#E6EAEA"/>
</linearGradient>
<clipPath id="clip0_2171_21405">
<rect width="32" height="29" fill="white" transform="translate(0 3)"/>
</clipPath>
<clipPath id="clip1_2171_21405">
<rect width="18" height="13" fill="white" transform="translate(7 9)"/>
</clipPath>
</defs>
</svg>
