<svg width="32" height="32" viewBox="0 0 32 32" fill="none" xmlns="http://www.w3.org/2000/svg">
<g clip-path="url(#clip0_2173_21473)">
<path d="M0 7C0 5.89543 0.895431 5 2 5H8V4C8 2.34315 9.34315 1 11 1H21C22.6569 1 24 2.34315 24 4V5H30C31.1046 5 32 5.89543 32 7V29C32 30.1046 31.1046 31 30 31H2C0.895431 31 0 30.1046 0 29V7Z" fill="#FCFCFC" fill-opacity="0.75"/>
<path d="M1 15H7V17C7 17.5523 7.44772 18 8 18H10.9996C11.552 18 11.9998 17.552 11.9996 16.9996L11.9987 15H19.9987L19.9996 17.0004C19.9998 17.5525 20.4475 18 20.9996 18H24C24.5523 18 25 17.5523 25 17V15H31V29C31 29.5523 30.5523 30 30 30H2C1.44772 30 1 29.5523 1 29V15Z" fill="#D8D8D8"/>
<path d="M9 4C9 3.44772 9.44772 3 10 3H22C22.5523 3 23 3.44772 23 4V4H9V4Z" fill="#919191"/>
<path d="M9 4C9 2.89543 9.89543 2 11 2H21C22.1046 2 23 2.89543 23 4V7H22V4C22 3.44772 21.5523 3 21 3H11C10.4477 3 10 3.44772 10 4V7H9V4Z" fill="#3A3A3A"/>
<path d="M7 19H12V20C12 20.5523 11.5523 21 11 21H8C7.44772 21 7 20.5523 7 20V19Z" fill="#FCFCFC"/>
<rect x="2" y="15" width="5" height="1" fill="#FCFCFC"/>
<rect x="25" y="15" width="5" height="1" fill="#FCFCFC"/>
<path d="M1 7C1 6.44771 1.44772 6 2 6H30C30.5523 6 31 6.44772 31 7V17H1V7Z" fill="url(#paint0_linear_2173_21473)"/>
<rect x="12" y="17" width="8" height="1" fill="#FCFCFC"/>
<path d="M20 19H25V20C25 20.5523 24.5523 21 24 21H21C20.4477 21 20 20.5523 20 20V19Z" fill="#FCFCFC"/>
<path d="M2 6.5H30C30.2761 6.5 30.5 6.72386 30.5 7V29C30.5 29.2761 30.2761 29.5 30 29.5H2C1.72386 29.5 1.5 29.2761 1.5 29V7C1.5 6.72386 1.72386 6.5 2 6.5Z" stroke="#919191"/>
<path d="M2 16H30V17H25V19C25 19.5523 24.5523 20 24 20H21C20.4477 20 20 19.5523 20 19V17H12V19C12 19.5523 11.5523 20 11 20H8C7.44772 20 7 19.5523 7 19V17H2V16Z" fill="#3A3A3A"/>
</g>
<defs>
<linearGradient id="paint0_linear_2173_21473" x1="16" y1="6" x2="16" y2="17" gradientUnits="userSpaceOnUse">
<stop stop-color="#919191"/>
<stop offset="1" stop-color="#D8D8D8"/>
</linearGradient>
<clipPath id="clip0_2173_21473">
<rect width="32" height="32" fill="white"/>
</clipPath>
</defs>
</svg>
