<svg width="32" height="32" viewBox="0 0 32 32" fill="none" xmlns="http://www.w3.org/2000/svg">
<g clip-path="url(#clip0_2178_22265)">
<rect y="4" width="32" height="23" rx="3" fill="#FCFCFC" fill-opacity="0.75"/>
<rect x="1" y="5" width="30" height="21" rx="2" fill="url(#paint0_linear_2178_22265)"/>
<path d="M30 25L20.5 16.5" stroke="#919191"/>
<path d="M2 25L11.5 16.5" stroke="#919191"/>
<path d="M2 6L12.9058 17.8541C13.2845 18.2658 13.8183 18.5 14.3776 18.5H17.6224C18.1817 18.5 18.7155 18.2658 19.0942 17.8541L30 6" stroke="#919191"/>
<rect x="1.5" y="5.5" width="29" height="20" rx="1.5" stroke="#919191"/>
<g clip-path="url(#clip1_2178_22265)">
<circle cx="6.5" cy="25.5" r="6.5" fill="#FCFCFC" fill-opacity="0.75"/>
<circle cx="6.5" cy="25.5" r="5" fill="url(#paint1_linear_2178_22265)" stroke="#00A1DB"/>
</g>
</g>
<defs>
<linearGradient id="paint0_linear_2178_22265" x1="16" y1="5" x2="16" y2="26" gradientUnits="userSpaceOnUse">
<stop stop-color="#F4F7F6"/>
<stop offset="1" stop-color="#D8D8D8"/>
</linearGradient>
<linearGradient id="paint1_linear_2178_22265" x1="9.86111" y1="21.5278" x2="3.44444" y2="29.7778" gradientUnits="userSpaceOnUse">
<stop stop-color="#94E1FC"/>
<stop offset="1" stop-color="#FCFCFC"/>
</linearGradient>
<clipPath id="clip0_2178_22265">
<rect width="32" height="32" fill="white"/>
</clipPath>
<clipPath id="clip1_2178_22265">
<rect width="13" height="13" fill="white" transform="translate(0 19)"/>
</clipPath>
</defs>
</svg>
