<svg width="32" height="32" viewBox="0 0 32 32" fill="none" xmlns="http://www.w3.org/2000/svg">
<g clip-path="url(#clip0_2180_22444)">
<rect y="4" width="32" height="23" rx="3" fill="#FCFCFC" fill-opacity="0.75"/>
<rect x="1" y="5" width="30" height="21" rx="2" fill="url(#paint0_linear_2180_22444)"/>
<path d="M30 25L20.5 16.5" stroke="#919191"/>
<path d="M2 25L11.5 16.5" stroke="#919191"/>
<path d="M2 6L12.9058 17.8541C13.2845 18.2658 13.8183 18.5 14.3776 18.5H17.6224C18.1817 18.5 18.7155 18.2658 19.0942 17.8541L30 6" stroke="#919191"/>
<rect x="1.5" y="5.5" width="29" height="20" rx="1.5" stroke="#919191"/>
<g clip-path="url(#clip1_2180_22444)">
<path d="M8.1669 22.1502C8.10254 22.0923 8 22.138 8 22.2245V26H1.5C1.22386 26 1 26.2239 1 26.5C1 26.7761 1.22386 27 1.5 27H8V30.7755C8 30.862 8.10254 30.9077 8.1669 30.8498L12.9174 26.5743C12.9615 26.5346 12.9615 26.4654 12.9174 26.4257L8.1669 22.1502Z" fill="#00A1DB"/>
<path d="M7.83241 22.5219L8 22.3356L7.83241 22.5219C7.83252 22.5219 7.83262 22.522 7.83272 22.5221L7.83241 22.5219ZM7.5 30.7755V27.5H1.5C0.947716 27.5 0.5 27.0523 0.5 26.5C0.5 25.9477 0.947716 25.5 1.5 25.5H7.5V22.2245C7.5 21.7051 8.11527 21.4311 8.50138 21.7786L13.2519 26.054C13.5167 26.2924 13.5167 26.7076 13.2519 26.946L8.50138 31.2214C8.11526 31.5689 7.5 31.2949 7.5 30.7755Z" stroke="#FCFCFC" stroke-opacity="0.75"/>
</g>
</g>
<defs>
<linearGradient id="paint0_linear_2180_22444" x1="16" y1="5" x2="16" y2="26" gradientUnits="userSpaceOnUse">
<stop stop-color="#F4F7F6"/>
<stop offset="1" stop-color="#D8D8D8"/>
</linearGradient>
<clipPath id="clip0_2180_22444">
<rect width="32" height="32" fill="white"/>
</clipPath>
<clipPath id="clip1_2180_22444">
<rect width="14" height="11" fill="white" transform="matrix(-1 0 0 1 14 21)"/>
</clipPath>
</defs>
</svg>
