<svg width="32" height="32" viewBox="0 0 32 32" fill="none" xmlns="http://www.w3.org/2000/svg">
<g clip-path="url(#clip0_2180_22489)">
<rect y="4" width="32" height="23" rx="3" fill="#FCFCFC" fill-opacity="0.75"/>
<rect x="1" y="5" width="30" height="21" rx="2" fill="url(#paint0_linear_2180_22489)"/>
<path d="M30 25L20.5 16.5" stroke="#919191"/>
<path d="M2 25L11.5 16.5" stroke="#919191"/>
<path d="M2 6L12.9058 17.8541C13.2845 18.2658 13.8183 18.5 14.3776 18.5H17.6224C18.1817 18.5 18.7155 18.2658 19.0942 17.8541L30 6" stroke="#919191"/>
<rect x="1.5" y="5.5" width="29" height="20" rx="1.5" stroke="#919191"/>
<g clip-path="url(#clip1_2180_22489)">
<path fill-rule="evenodd" clip-rule="evenodd" d="M3 22C3 20.8954 3.89543 20 5 20C6.10457 20 7 20.8954 7 22V28C7 29.6569 5.65685 31 4 31C2.34315 31 1 29.6569 1 28V25C1 24.7239 1.22386 24.5 1.5 24.5C1.77614 24.5 2 24.7239 2 25V28C2 29.1046 2.89543 30 4 30C5.10457 30 6 29.1046 6 28V22C6 21.4477 5.55228 21 5 21C4.44772 21 4 21.4477 4 22V26.5C4 26.7761 4.22386 27 4.5 27C4.77614 27 5 27.2239 5 27.5C5 27.7761 4.77614 28 4.5 28C3.67157 28 3 27.3284 3 26.5V22Z" fill="#00A1DB"/>
<path d="M5.5 27.5V28C5.5 28.8284 4.82843 29.5 4 29.5C3.17157 29.5 2.5 28.8284 2.5 28V26.5C2.5 27.6046 3.39543 28.5 4.5 28.5C5.05228 28.5 5.5 28.0523 5.5 27.5ZM5.5 27.5V22C5.5 21.7239 5.27614 21.5 5 21.5C4.72386 21.5 4.5 21.7239 4.5 22V26.5C5.05228 26.5 5.5 26.9477 5.5 27.5ZM5 19.5C3.61929 19.5 2.5 20.6193 2.5 22V25C2.5 24.4477 2.05228 24 1.5 24C0.947715 24 0.5 24.4477 0.5 25V28C0.5 29.933 2.067 31.5 4 31.5C5.933 31.5 7.5 29.933 7.5 28V22C7.5 20.6193 6.38071 19.5 5 19.5Z" stroke="#FCFCFC" stroke-opacity="0.75" stroke-linecap="round"/>
</g>
</g>
<defs>
<linearGradient id="paint0_linear_2180_22489" x1="16" y1="5" x2="16" y2="26" gradientUnits="userSpaceOnUse">
<stop stop-color="#F4F7F6"/>
<stop offset="1" stop-color="#D8D8D8"/>
</linearGradient>
<clipPath id="clip0_2180_22489">
<rect width="32" height="32" fill="white"/>
</clipPath>
<clipPath id="clip1_2180_22489">
<rect width="8" height="13" fill="white" transform="translate(0 19)"/>
</clipPath>
</defs>
</svg>
