<svg width="32" height="32" viewBox="0 0 32 32" fill="none" xmlns="http://www.w3.org/2000/svg">
<g clip-path="url(#clip0_2180_22489)">
<rect y="4" width="32" height="23" rx="3" fill="#FCFCFC" fill-opacity="0.75"/>
<rect x="1" y="5" width="30" height="21" rx="2" fill="url(#paint0_linear_2180_22489)"/>
<path d="M30 25L20.5 16.5" stroke="#919191"/>
<path d="M2 25L11.5 16.5" stroke="#919191"/>
<path d="M2 6L12.9058 17.8541C13.2845 18.2658 13.8183 18.5 14.3776 18.5H17.6224C18.1817 18.5 18.7155 18.2658 19.0942 17.8541L30 6" stroke="#919191"/>
<rect x="1.5" y="5.5" width="29" height="20" rx="1.5" stroke="#919191"/>
<g clip-path="url(#clip1_2180_22489)">
<path d="M2 23V22C2 20.3431 3.34315 19 5 19V19C6.65685 19 8 20.3431 8 22V28C8 30.2091 6.20914 32 4 32V32C1.79086 32 0 30.2091 0 28V24C0 23.4477 0.447715 23 1 23H2Z" fill="#FCFCFC" fill-opacity="0.75"/>
<path fill-rule="evenodd" clip-rule="evenodd" d="M3 22C3 20.8954 3.89543 20 5 20C6.10457 20 7 20.8954 7 22V28C7 29.6569 5.65685 31 4 31C2.34315 31 1 29.6569 1 28V24.5C1 24.2239 1.22386 24 1.5 24C1.77614 24 2 24.2239 2 24.5V28C2 29.1046 2.89543 30 4 30C5.10457 30 6 29.1046 6 28V22C6 21.4477 5.55228 21 5 21C4.44772 21 4 21.4477 4 22V26.5C4 26.7761 4.22386 27 4.5 27C4.77614 27 5 27.2239 5 27.5C5 27.7761 4.77614 28 4.5 28C3.67157 28 3 27.3284 3 26.5V22Z" fill="#00A1DB"/>
</g>
</g>
<defs>
<linearGradient id="paint0_linear_2180_22489" x1="16" y1="5" x2="16" y2="26" gradientUnits="userSpaceOnUse">
<stop stop-color="#F4F7F6"/>
<stop offset="1" stop-color="#D8D8D8"/>
</linearGradient>
<clipPath id="clip0_2180_22489">
<rect width="32" height="32" fill="white"/>
</clipPath>
<clipPath id="clip1_2180_22489">
<rect width="8" height="13" fill="white" transform="translate(0 19)"/>
</clipPath>
</defs>
</svg>
