<svg width="32" height="32" viewBox="0 0 32 32" fill="none" xmlns="http://www.w3.org/2000/svg">
<path fill-rule="evenodd" clip-rule="evenodd" d="M17 6.5C17 4.0148 19.0146 2.00011 21.4998 2C23.9852 1.99989 26 4.01464 26 6.5V24.5227C26 27.5493 23.5546 30.0072 20.528 30.0226C17.4795 30.0381 15 27.5712 15 24.5227V15.0457C15 14.4935 15.4477 14.0457 16 14.0457C16.5523 14.0457 17 14.4935 17 15.0457V6.5ZM20.5178 28.0226C22.4438 28.0128 24 26.4487 24 24.5227V20.0457C24 21.7026 22.6569 23.0457 21 23.0457H20C18.3431 23.0457 17 21.7026 17 20.0457V24.5227C17 26.4626 18.5779 28.0325 20.5178 28.0226ZM21.4999 4C20.1192 4.00006 19 5.11933 19 6.5V20.0457C19 20.598 19.4477 21.0457 20 21.0457H21C21.5523 21.0457 22 20.598 22 20.0457V10.0457C22 9.49346 22.4477 9.04574 23 9.04574C23.5523 9.04574 24 9.49346 24 10.0457V6.5C24 5.11925 22.8806 3.99994 21.4999 4Z" fill="#3A3A3A"/>
<path d="M21.4998 1.5C18.7384 1.50012 16.5 3.73866 16.5 6.5V13.6311C16.3436 13.5758 16.1753 13.5457 16 13.5457C15.1716 13.5457 14.5 14.2173 14.5 15.0457V24.5227C14.5 27.8483 17.2049 30.5395 20.5305 30.5226C23.8323 30.5058 26.5 27.8245 26.5 24.5227V6.5C26.5 3.73849 24.2613 1.49988 21.4998 1.5ZM23.5 24.5227C23.5 26.1736 22.1661 27.5142 20.5153 27.5226C18.8525 27.5311 17.5 26.1855 17.5 24.5227V22.4952C18.1353 23.1435 19.0207 23.5457 20 23.5457H21C21.9793 23.5457 22.8647 23.1435 23.5 22.4952V24.5227ZM19.5 6.5C19.5 5.39547 20.3954 4.50005 21.4999 4.5C22.6045 4.49995 23.5 5.3954 23.5 6.5V8.6311C23.3436 8.57582 23.1753 8.54574 23 8.54574C22.1716 8.54574 21.5 9.21732 21.5 10.0457V20.0457C21.5 20.3219 21.2761 20.5457 21 20.5457H20C19.7239 20.5457 19.5 20.3219 19.5 20.0457V6.5Z" stroke="#FCFCFC" stroke-opacity="0.75" stroke-linecap="round"/>
<g clip-path="url(#clip0_2181_22826)">
<path d="M12.8726 23.0803C12.2001 22.6815 9.97116 23.802 8.434 25.6822C6.87762 27.5435 6.60863 28.1512 6.60863 28.1512C6.60863 28.1512 4.71051 25.1077 3.5 24.5C2.52006 24.0252 1.44443 25.4686 2.28987 26.3612C3.23138 27.3678 5.53262 31 6.68549 31C7.83836 31 8.47244 28.626 9.85588 26.7458C11.393 24.5997 13.5451 23.4792 12.8726 23.0803Z" fill="#00A1DB"/>
<path d="M8.04868 25.3636C7.33124 26.2216 6.87982 26.8218 6.59895 27.225C6.41132 26.9483 6.17351 26.6082 5.90866 26.254C5.58985 25.8277 5.2267 25.3742 4.8609 24.9846C4.50453 24.6051 4.10932 24.2464 3.72434 24.0532L3.72436 24.0531L3.71802 24.05C2.93639 23.6713 2.17596 24.0887 1.7992 24.6334C1.41259 25.1924 1.30443 26.0468 1.92577 26.7039C2.13977 26.9329 2.44277 27.3249 2.81359 27.8131C2.86038 27.8747 2.90805 27.9376 2.95653 28.0015C3.28486 28.4345 3.64975 28.9157 4.01983 29.3727C4.44283 29.8952 4.8872 30.4045 5.3087 30.787C5.51944 30.9783 5.73684 31.1492 5.95387 31.2748C6.1652 31.397 6.41669 31.5 6.68549 31.5C7.16341 31.5 7.54065 31.2492 7.83243 30.9469C8.12121 30.6478 8.37711 30.2463 8.61786 29.8269C8.7626 29.5747 8.90451 29.3123 9.04922 29.0447C9.40693 28.3833 9.78173 27.6902 10.2586 27.0421L10.2586 27.0421L10.2624 27.0369C10.9357 26.0969 11.7335 25.3615 12.3676 24.777C12.424 24.725 12.479 24.6743 12.5326 24.6247C12.8418 24.3383 13.1452 24.0519 13.3157 23.799C13.3985 23.6761 13.5068 23.4813 13.4988 23.2471C13.4889 22.9597 13.3158 22.7619 13.1276 22.6503C12.7845 22.4468 12.3528 22.4824 11.9952 22.5679C11.6097 22.6601 11.1764 22.843 10.7338 23.0901C9.84747 23.5849 8.85773 24.3746 8.04868 25.3636Z" stroke="#FCFCFC" stroke-opacity="0.75"/>
</g>
<defs>
<clipPath id="clip0_2181_22826">
<rect width="13" height="10" fill="white" transform="translate(1 22)"/>
</clipPath>
</defs>
</svg>
