<svg width="32" height="32" viewBox="0 0 32 32" fill="none" xmlns="http://www.w3.org/2000/svg">
<g clip-path="url(#clip0_2181_22863)">
<path fill-rule="evenodd" clip-rule="evenodd" d="M1 2H31V8L27.9987 8.00033L28 5H9L19.9987 16.0003L9 27H28L27.9987 24.0003L31 24V30H1V27L11.9987 16.0003L1 5V2Z" fill="#3A3A3A"/>
<path d="M1 1.5H0.5V2V5V5.20709L0.64642 5.35353L11.2916 16.0003L0.646431 26.6465L0.5 26.7929V27V30V30.5H1H31H31.5V30V24V23.4999L30.9999 23.5L27.9986 23.5003L27.4985 23.5004L27.4987 24.0005L27.4998 26.5H10.207L20.3523 16.3539L20.7058 16.0003L20.3523 15.6468L10.207 5.5H27.4998L27.4987 8.00011L27.4985 8.50038L27.9988 8.50033L31.0001 8.5L31.5 8.49995V8V2V1.5H31H1Z" stroke="#FCFCFC" stroke-opacity="0.75"/>
<path fill-rule="evenodd" clip-rule="evenodd" d="M2.9375 29.2188C2.71953 29.0492 2.68026 28.7351 2.84979 28.5171L4.39097 26.7543C5.25188 25.6474 6.57562 25 7.9779 25C9.4082 25 10.755 25.6734 11.6132 26.8177L11.9 27.2C12.0657 27.4209 12.0209 27.7343 11.8 27.9C11.5791 28.0657 11.2657 28.0209 11.1 27.8L10.8132 27.4177C10.1439 26.5252 9.09344 26 7.9779 26C6.88421 26 5.85178 26.5049 5.18032 27.3683L3.63915 29.131C3.46961 29.349 3.15547 29.3883 2.9375 29.2188Z" fill="#EA212D"/>
<path d="M6 31H0.99997L1 26L6 31Z" fill="#EA212D"/>
<path d="M4.55278 28.8457L5.55674 27.6973L5.56618 27.6865L5.57499 27.6752C6.15173 26.9337 7.0385 26.5 7.9779 26.5C8.93606 26.5 9.83831 26.9511 10.4132 27.7177L10.7 28.1C11.0313 28.5418 11.6581 28.6314 12.1 28.3C12.5418 27.9686 12.6313 27.3418 12.3 26.9L12.0132 26.5177L11.6132 26.8177L12.0132 26.5177C11.0606 25.2475 9.56558 24.5 7.9779 24.5C6.42623 24.5 4.9612 25.2141 4.00534 26.4357L3.13656 27.4295L1.35355 25.6464L0.500007 24.7929L0.5 26L0.49997 31L0.499968 31.5H0.99997H6H7.20711L6.35355 30.6464L4.55278 28.8457Z" stroke="#FCFCFC" stroke-opacity="0.75"/>
</g>
<defs>
<clipPath id="clip0_2181_22863">
<rect width="32" height="32" fill="white"/>
</clipPath>
</defs>
</svg>
