<svg width="96" height="14" viewBox="0 0 96 14" fill="none" xmlns="http://www.w3.org/2000/svg">
<path d="M4.8879 11.808H2V0.192H4.8879V11.808Z" fill="#FCFCFC"/>
<path d="M10.3436 6C10.3436 6.61867 10.4225 7.15733 10.5803 7.616C10.7382 8.064 10.9854 8.42667 11.322 8.704C11.7113 9.01333 12.2268 9.216 12.8686 9.312C13.5208 9.408 14.3888 9.456 15.4724 9.456H22.0215V11.808H15.0463C13.4998 11.808 12.2216 11.6853 11.2116 11.44C10.2016 11.184 9.39678 10.752 8.79711 10.144C8.32368 9.664 7.95546 9.07733 7.69245 8.384C7.43995 7.69067 7.31371 6.896 7.31371 6C7.31371 5.104 7.43995 4.30933 7.69245 3.616C7.95546 2.92267 8.32368 2.336 8.79711 1.856C9.39678 1.248 10.2016 0.821333 11.2116 0.576C12.2216 0.32 13.4998 0.192 15.0463 0.192H22.0215V2.544H15.4724C14.3888 2.544 13.5208 2.592 12.8686 2.688C12.2268 2.784 11.7113 2.98667 11.322 3.296C10.9854 3.57333 10.7382 3.94133 10.5803 4.4C10.4225 4.848 10.3436 5.38133 10.3436 6Z" fill="#FCFCFC"/>
<path d="M33.1899 9.456C33.7264 9.456 34.2051 9.44533 34.6259 9.424C35.0573 9.40267 35.4413 9.36533 35.7779 9.312C36.1146 9.25867 36.4092 9.184 36.6616 9.088C36.9247 8.98133 37.1509 8.85333 37.3402 8.704C37.6769 8.42667 37.9241 8.06933 38.0819 7.632C38.2397 7.184 38.3186 6.64 38.3186 6C38.3186 5.36 38.2397 4.82133 38.0819 4.384C37.9241 3.936 37.6769 3.57333 37.3402 3.296C36.951 2.99733 36.4302 2.8 35.7779 2.704C35.1256 2.59733 34.2577 2.544 33.1741 2.544H31.454C30.3703 2.544 29.5024 2.59733 28.8501 2.704C28.1979 2.8 27.6771 2.99733 27.2878 3.296C26.9512 3.57333 26.7039 3.936 26.5461 4.384C26.3883 4.82133 26.3094 5.36 26.3094 6C26.3094 6.64 26.3883 7.184 26.5461 7.632C26.7039 8.06933 26.9512 8.42667 27.2878 8.704C27.4772 8.85333 27.6981 8.98133 27.9506 9.088C28.2136 9.184 28.5135 9.25867 28.8501 9.312C29.1868 9.36533 29.5655 9.40267 29.9863 9.424C30.4177 9.44533 30.9016 9.456 31.4382 9.456H33.1899ZM33.4581 0C35.0573 0 36.3829 0.133333 37.4349 0.399999C38.4975 0.666666 39.3444 1.12533 39.9756 1.776C40.4385 2.256 40.7804 2.85333 41.0014 3.568C41.2328 4.28267 41.3486 5.09333 41.3486 6C41.3486 6.90667 41.2328 7.71733 41.0014 8.432C40.7804 9.14667 40.4385 9.744 39.9756 10.224C39.3444 10.8747 38.4975 11.3333 37.4349 11.6C36.3723 11.8667 35.0362 12 33.4266 12H31.1699C29.5708 12 28.2399 11.8667 27.1774 11.6C26.1253 11.3333 25.2837 10.8747 24.6524 10.224C24.1895 9.744 23.8423 9.14667 23.6109 8.432C23.39 7.71733 23.2795 6.90667 23.2795 6C23.2795 5.09333 23.39 4.28267 23.6109 3.568C23.8423 2.85333 24.1895 2.256 24.6524 1.776C25.2837 1.12533 26.1253 0.666666 27.1774 0.399999C28.2399 0.133333 29.5708 0 31.1699 0H33.4581Z" fill="#FCFCFC"/>
<path d="M46.4304 0.192L57.1613 8.384V0.192H59.9388V11.808H57.3507L46.4935 3.552V11.808H43.7161V0.192H46.4304Z" fill="#FCFCFC"/>
<path d="M65.33 6C65.33 6.61867 65.4089 7.15733 65.5667 7.616C65.7245 8.064 65.9718 8.42667 66.3084 8.704C66.6977 9.01333 67.2132 9.216 67.855 9.312C68.5072 9.408 69.3752 9.456 70.4588 9.456H77.0078V11.808H70.0327C68.4862 11.808 67.2079 11.6853 66.198 11.44C65.188 11.184 64.3832 10.752 63.7835 10.144C63.3101 9.664 62.9418 9.07733 62.6788 8.384C62.4263 7.69067 62.3001 6.896 62.3001 6C62.3001 5.104 62.4263 4.30933 62.6788 3.616C62.9418 2.92267 63.3101 2.336 63.7835 1.856C64.3832 1.248 65.188 0.821333 66.198 0.576C67.2079 0.32 68.4862 0.192 70.0327 0.192H77.0078V2.544H70.4588C69.3752 2.544 68.5072 2.592 67.855 2.688C67.2132 2.784 66.6977 2.98667 66.3084 3.296C65.9718 3.57333 65.7245 3.94133 65.5667 4.4C65.4089 4.848 65.33 5.38133 65.33 6Z" fill="#FCFCFC"/>
<path d="M92.9585 2.448H83.3321C82.9324 2.448 82.5904 2.46933 82.3064 2.512C82.0223 2.55467 81.8067 2.65067 81.6594 2.8C81.5016 2.94933 81.4227 3.16267 81.4227 3.44C81.4227 3.78133 81.5489 4.02133 81.8014 4.16C82.0644 4.29867 82.4484 4.38933 82.9534 4.432L89.25 4.928C89.755 4.97067 90.2073 5.024 90.6071 5.088C91.0174 5.14133 91.3804 5.216 91.696 5.312C92.0116 5.39733 92.2904 5.50933 92.5324 5.648C92.7849 5.776 93.0058 5.936 93.1952 6.128C93.4371 6.37333 93.6318 6.67733 93.7791 7.04C93.9264 7.392 94 7.824 94 8.336C94 9.328 93.7159 10.1013 93.1478 10.656C92.7481 11.0613 92.2168 11.3547 91.554 11.536C90.9017 11.7173 90.0495 11.808 88.9975 11.808H79.3554V9.552H89.392C90.0337 9.552 90.4966 9.46667 90.7807 9.296C91.0648 9.11467 91.2068 8.83733 91.2068 8.464C91.2068 8.13333 91.0963 7.89867 90.8754 7.76C90.6545 7.61067 90.2547 7.50933 89.676 7.456L83.8371 7.008C83.4163 6.976 83.006 6.93867 82.6062 6.896C82.217 6.84267 81.8435 6.77333 81.4858 6.688C81.1386 6.592 80.8072 6.47467 80.4916 6.336C80.1865 6.18667 79.913 6.00533 79.671 5.792C79.3869 5.54667 79.1502 5.232 78.9609 4.848C78.7715 4.45333 78.6768 4 78.6768 3.488C78.6768 2.99733 78.761 2.57067 78.9293 2.208C79.0976 1.83467 79.3186 1.51467 79.5921 1.248C79.9919 0.874666 80.5232 0.608 81.186 0.448C81.8487 0.277333 82.6325 0.192 83.5373 0.192H92.9585V2.448Z" fill="#FCFCFC"/>
<rect y="11" width="96" height="3" fill="#C30438"/>
<mask id="mask0_1883_6340" style="mask-type:alpha" maskUnits="userSpaceOnUse" x="0" y="11" width="96" height="3">
<rect y="11" width="96" height="3" fill="#C30438"/>
</mask>
<g mask="url(#mask0_1883_6340)">
<path d="M4.8879 11.808H2V0.192H4.8879V11.808Z" fill="#0C121C"/>
<path d="M10.3436 6C10.3436 6.61867 10.4225 7.15733 10.5803 7.616C10.7382 8.064 10.9854 8.42667 11.322 8.704C11.7113 9.01333 12.2268 9.216 12.8686 9.312C13.5208 9.408 14.3888 9.456 15.4724 9.456H22.0215V11.808H15.0463C13.4998 11.808 12.2216 11.6853 11.2116 11.44C10.2016 11.184 9.39678 10.752 8.79711 10.144C8.32368 9.664 7.95546 9.07733 7.69245 8.384C7.43995 7.69067 7.31371 6.896 7.31371 6C7.31371 5.104 7.43995 4.30933 7.69245 3.616C7.95546 2.92267 8.32368 2.336 8.79711 1.856C9.39678 1.248 10.2016 0.821333 11.2116 0.576C12.2216 0.32 13.4998 0.192 15.0463 0.192H22.0215V2.544H15.4724C14.3888 2.544 13.5208 2.592 12.8686 2.688C12.2268 2.784 11.7113 2.98667 11.322 3.296C10.9854 3.57333 10.7382 3.94133 10.5803 4.4C10.4225 4.848 10.3436 5.38133 10.3436 6Z" fill="#0C121C"/>
<path d="M33.1899 9.456C33.7264 9.456 34.2051 9.44533 34.6259 9.424C35.0573 9.40267 35.4413 9.36533 35.7779 9.312C36.1146 9.25867 36.4092 9.184 36.6616 9.088C36.9247 8.98133 37.1509 8.85333 37.3402 8.704C37.6769 8.42667 37.9241 8.06933 38.0819 7.632C38.2397 7.184 38.3186 6.64 38.3186 6C38.3186 5.36 38.2397 4.82133 38.0819 4.384C37.9241 3.936 37.6769 3.57333 37.3402 3.296C36.951 2.99733 36.4302 2.8 35.7779 2.704C35.1256 2.59733 34.2577 2.544 33.1741 2.544H31.454C30.3703 2.544 29.5024 2.59733 28.8501 2.704C28.1979 2.8 27.6771 2.99733 27.2878 3.296C26.9512 3.57333 26.7039 3.936 26.5461 4.384C26.3883 4.82133 26.3094 5.36 26.3094 6C26.3094 6.64 26.3883 7.184 26.5461 7.632C26.7039 8.06933 26.9512 8.42667 27.2878 8.704C27.4772 8.85333 27.6981 8.98133 27.9506 9.088C28.2136 9.184 28.5135 9.25867 28.8501 9.312C29.1868 9.36533 29.5655 9.40267 29.9863 9.424C30.4177 9.44533 30.9016 9.456 31.4382 9.456H33.1899ZM33.4581 0C35.0573 0 36.3829 0.133333 37.4349 0.399999C38.4975 0.666666 39.3444 1.12533 39.9756 1.776C40.4385 2.256 40.7804 2.85333 41.0014 3.568C41.2328 4.28267 41.3486 5.09333 41.3486 6C41.3486 6.90667 41.2328 7.71733 41.0014 8.432C40.7804 9.14667 40.4385 9.744 39.9756 10.224C39.3444 10.8747 38.4975 11.3333 37.4349 11.6C36.3723 11.8667 35.0362 12 33.4266 12H31.1699C29.5708 12 28.2399 11.8667 27.1774 11.6C26.1253 11.3333 25.2837 10.8747 24.6524 10.224C24.1895 9.744 23.8423 9.14667 23.6109 8.432C23.39 7.71733 23.2795 6.90667 23.2795 6C23.2795 5.09333 23.39 4.28267 23.6109 3.568C23.8423 2.85333 24.1895 2.256 24.6524 1.776C25.2837 1.12533 26.1253 0.666666 27.1774 0.399999C28.2399 0.133333 29.5708 0 31.1699 0H33.4581Z" fill="#0C121C"/>
<path d="M46.4304 0.192L57.1613 8.384V0.192H59.9388V11.808H57.3507L46.4935 3.552V11.808H43.7161V0.192H46.4304Z" fill="#0C121C"/>
<path d="M65.33 6C65.33 6.61867 65.4089 7.15733 65.5667 7.616C65.7245 8.064 65.9718 8.42667 66.3084 8.704C66.6977 9.01333 67.2132 9.216 67.855 9.312C68.5072 9.408 69.3752 9.456 70.4588 9.456H77.0078V11.808H70.0327C68.4862 11.808 67.2079 11.6853 66.198 11.44C65.188 11.184 64.3832 10.752 63.7835 10.144C63.3101 9.664 62.9418 9.07733 62.6788 8.384C62.4263 7.69067 62.3001 6.896 62.3001 6C62.3001 5.104 62.4263 4.30933 62.6788 3.616C62.9418 2.92267 63.3101 2.336 63.7835 1.856C64.3832 1.248 65.188 0.821333 66.198 0.576C67.2079 0.32 68.4862 0.192 70.0327 0.192H77.0078V2.544H70.4588C69.3752 2.544 68.5072 2.592 67.855 2.688C67.2132 2.784 66.6977 2.98667 66.3084 3.296C65.9718 3.57333 65.7245 3.94133 65.5667 4.4C65.4089 4.848 65.33 5.38133 65.33 6Z" fill="#0C121C"/>
<path d="M92.9585 2.448H83.3321C82.9324 2.448 82.5904 2.46933 82.3064 2.512C82.0223 2.55467 81.8067 2.65067 81.6594 2.8C81.5016 2.94933 81.4227 3.16267 81.4227 3.44C81.4227 3.78133 81.5489 4.02133 81.8014 4.16C82.0644 4.29867 82.4484 4.38933 82.9534 4.432L89.25 4.928C89.755 4.97067 90.2073 5.024 90.6071 5.088C91.0174 5.14133 91.3804 5.216 91.696 5.312C92.0116 5.39733 92.2904 5.50933 92.5324 5.648C92.7849 5.776 93.0058 5.936 93.1952 6.128C93.4371 6.37333 93.6318 6.67733 93.7791 7.04C93.9264 7.392 94 7.824 94 8.336C94 9.328 93.7159 10.1013 93.1478 10.656C92.7481 11.0613 92.2168 11.3547 91.554 11.536C90.9017 11.7173 90.0495 11.808 88.9975 11.808H79.3554V9.552H89.392C90.0337 9.552 90.4966 9.46667 90.7807 9.296C91.0648 9.11467 91.2068 8.83733 91.2068 8.464C91.2068 8.13333 91.0963 7.89867 90.8754 7.76C90.6545 7.61067 90.2547 7.50933 89.676 7.456L83.8371 7.008C83.4163 6.976 83.006 6.93867 82.6062 6.896C82.217 6.84267 81.8435 6.77333 81.4858 6.688C81.1386 6.592 80.8072 6.47467 80.4916 6.336C80.1865 6.18667 79.913 6.00533 79.671 5.792C79.3869 5.54667 79.1502 5.232 78.9609 4.848C78.7715 4.45333 78.6768 4 78.6768 3.488C78.6768 2.99733 78.761 2.57067 78.9293 2.208C79.0976 1.83467 79.3186 1.51467 79.5921 1.248C79.9919 0.874666 80.5232 0.608 81.186 0.448C81.8487 0.277333 82.6325 0.192 83.5373 0.192H92.9585V2.448Z" fill="#0C121C"/>
</g>
</svg>
