<svg width="96" height="16" viewBox="0 0 96 16" fill="none" xmlns="http://www.w3.org/2000/svg">
<path d="M5.477 13.794H2V0H5.477V13.794Z" fill="#FCFCFC"/>
<path d="M21.4507 13.794H13.7557C12.7297 13.794 11.8557 13.699 11.1337 13.509C10.4243 13.3063 9.83532 12.977 9.36666 12.521C8.99932 12.1537 8.71432 11.7167 8.51166 11.21C8.30899 10.6907 8.20766 10.108 8.20766 9.462C8.20766 8.82867 8.30899 8.25867 8.51166 7.752C8.72699 7.24533 9.01832 6.80833 9.38566 6.441C9.85432 5.985 10.4433 5.662 11.1527 5.472C11.8747 5.282 12.7487 5.187 13.7747 5.187H21.4507V7.524H14.2877C13.7177 7.524 13.2427 7.55567 12.8627 7.619C12.4953 7.68233 12.204 7.81533 11.9887 8.018C11.6467 8.34733 11.4757 8.84133 11.4757 9.5C11.4757 10.1713 11.6467 10.6653 11.9887 10.982C12.204 11.1847 12.4953 11.3177 12.8627 11.381C13.2427 11.4317 13.7177 11.457 14.2877 11.457H21.4507V13.794Z" fill="#FCFCFC"/>
<path d="M32.0393 11.438C32.6093 11.438 33.078 11.4127 33.4453 11.362C33.8253 11.2987 34.123 11.1657 34.3383 10.963C34.6803 10.6463 34.8513 10.1587 34.8513 9.5C34.8513 9.158 34.807 8.873 34.7183 8.645C34.6423 8.40433 34.5156 8.20167 34.3383 8.037C34.123 7.83433 33.8253 7.70133 33.4453 7.638C33.078 7.57467 32.6093 7.543 32.0393 7.543H29.0943C28.5243 7.543 28.0493 7.57467 27.6693 7.638C27.302 7.70133 27.0106 7.83433 26.7953 8.037C26.618 8.20167 26.485 8.40433 26.3963 8.645C26.3203 8.873 26.2823 9.158 26.2823 9.5C26.2823 10.1587 26.4533 10.6463 26.7953 10.963C27.0106 11.1657 27.302 11.2987 27.6693 11.362C28.0493 11.4127 28.5243 11.438 29.0943 11.438H32.0393ZM28.5623 13.794C27.5363 13.794 26.6623 13.699 25.9403 13.509C25.231 13.3063 24.642 12.977 24.1733 12.521C23.806 12.1537 23.521 11.7167 23.3183 11.21C23.1156 10.6907 23.0143 10.108 23.0143 9.462C23.0143 8.82867 23.1156 8.25867 23.3183 7.752C23.5336 7.24533 23.825 6.80833 24.1923 6.441C24.661 5.985 25.25 5.662 25.9593 5.472C26.6813 5.282 27.5553 5.187 28.5813 5.187H32.5523C33.5783 5.187 34.446 5.282 35.1553 5.472C35.8773 5.662 36.4726 5.985 36.9413 6.441C37.3086 6.80833 37.5936 7.24533 37.7963 7.752C38.0116 8.25867 38.1193 8.82867 38.1193 9.462C38.1193 10.108 38.018 10.6907 37.8153 11.21C37.6126 11.7167 37.3276 12.1537 36.9603 12.521C36.4916 12.977 35.8963 13.3063 35.1743 13.509C34.465 13.699 33.5973 13.794 32.5713 13.794H28.5623Z" fill="#FCFCFC"/>
<path d="M48.5675 5.187C49.7328 5.187 50.6448 5.282 51.3035 5.472C51.9749 5.64933 52.4942 5.928 52.8615 6.308C53.1908 6.63733 53.4189 7.03633 53.5455 7.505C53.6722 7.97367 53.7355 8.60067 53.7355 9.386V13.794H50.5245V9.671C50.5245 9.22767 50.4865 8.87933 50.4105 8.626C50.3472 8.36 50.2395 8.151 50.0875 7.999C49.8975 7.809 49.6315 7.68867 49.2895 7.638C48.9475 7.57467 48.4979 7.543 47.9405 7.543H43.4945V13.794H40.2835V5.187H48.5675Z" fill="#FCFCFC"/>
<path d="M59.5457 6.897C59.5457 7.63167 59.6407 8.27133 59.8307 8.816C60.0207 9.348 60.3183 9.77867 60.7237 10.108C61.1923 10.4753 61.813 10.716 62.5857 10.83C63.371 10.944 64.416 11.001 65.7207 11.001H73.6057V13.794H65.2077C63.3457 13.794 61.8067 13.6483 60.5907 13.357C59.3747 13.053 58.4057 12.54 57.6837 11.818C57.1137 11.248 56.6703 10.5513 56.3537 9.728C56.0497 8.90467 55.8977 7.961 55.8977 6.897C55.8977 5.833 56.0497 4.88933 56.3537 4.066C56.6703 3.24267 57.1137 2.546 57.6837 1.976C58.4057 1.254 59.3747 0.747334 60.5907 0.456C61.8067 0.152 63.3457 0 65.2077 0H73.6057V2.793H65.7207C64.416 2.793 63.371 2.85 62.5857 2.964C61.813 3.078 61.1923 3.31867 60.7237 3.686C60.3183 4.01533 60.0207 4.45233 59.8307 4.997C59.6407 5.529 59.5457 6.16233 59.5457 6.897Z" fill="#FCFCFC"/>
<path d="M92.8101 2.679H81.2201C80.7387 2.679 80.3271 2.70433 79.9851 2.755C79.6431 2.80567 79.3834 2.91967 79.2061 3.097C79.0161 3.27433 78.9211 3.52767 78.9211 3.857C78.9211 4.26233 79.0731 4.54733 79.3771 4.712C79.6937 4.87667 80.1561 4.98433 80.7641 5.035L88.3451 5.624C88.9531 5.67467 89.4977 5.738 89.979 5.814C90.4731 5.87733 90.9101 5.966 91.2901 6.08C91.6701 6.18133 92.0057 6.31433 92.2971 6.479C92.6011 6.631 92.8671 6.821 93.0951 7.049C93.3864 7.34033 93.6207 7.70133 93.798 8.132C93.9754 8.55 94.064 9.063 94.064 9.671C94.064 10.849 93.7221 11.7673 93.0381 12.426C92.5567 12.9073 91.917 13.2557 91.119 13.471C90.3337 13.6863 89.3077 13.794 88.0411 13.794H76.4321V11.115H88.5161C89.2887 11.115 89.846 11.0137 90.188 10.811C90.53 10.5957 90.701 10.2663 90.701 9.823C90.701 9.43033 90.5681 9.15167 90.3021 8.987C90.0361 8.80967 89.5547 8.68933 88.8581 8.626L81.828 8.094C81.3214 8.056 80.8274 8.01167 80.3461 7.961C79.8774 7.89767 79.4277 7.81533 78.9971 7.714C78.5791 7.6 78.18 7.46067 77.8 7.296C77.4327 7.11867 77.1034 6.90333 76.812 6.65C76.47 6.35867 76.1851 5.985 75.9571 5.529C75.7291 5.06033 75.6151 4.522 75.6151 3.914C75.6151 3.33133 75.7164 2.82467 75.9191 2.394C76.1217 1.95067 76.3877 1.57067 76.717 1.254C77.1984 0.810666 77.8381 0.494 78.6361 0.304C79.4341 0.101334 80.3777 0 81.467 0H92.8101V2.679Z" fill="#FCFCFC"/>
<rect y="13" width="96" height="3" fill="#C30438"/>
<mask id="mask0_1891_6203" style="mask-type:alpha" maskUnits="userSpaceOnUse" x="0" y="13" width="96" height="3">
<rect y="13" width="96" height="3" fill="#C30438"/>
</mask>
<g mask="url(#mask0_1891_6203)">
<path d="M5.477 13.794H2V0H5.477V13.794Z" fill="#0C121C"/>
<path d="M21.4507 13.794H13.7557C12.7297 13.794 11.8557 13.699 11.1337 13.509C10.4243 13.3063 9.83532 12.977 9.36666 12.521C8.99932 12.1537 8.71432 11.7167 8.51166 11.21C8.30899 10.6907 8.20766 10.108 8.20766 9.462C8.20766 8.82867 8.30899 8.25867 8.51166 7.752C8.72699 7.24533 9.01832 6.80833 9.38566 6.441C9.85432 5.985 10.4433 5.662 11.1527 5.472C11.8747 5.282 12.7487 5.187 13.7747 5.187H21.4507V7.524H14.2877C13.7177 7.524 13.2427 7.55567 12.8627 7.619C12.4953 7.68233 12.204 7.81533 11.9887 8.018C11.6467 8.34733 11.4757 8.84133 11.4757 9.5C11.4757 10.1713 11.6467 10.6653 11.9887 10.982C12.204 11.1847 12.4953 11.3177 12.8627 11.381C13.2427 11.4317 13.7177 11.457 14.2877 11.457H21.4507V13.794Z" fill="#0C121C"/>
<path d="M32.0393 11.438C32.6093 11.438 33.078 11.4127 33.4453 11.362C33.8253 11.2987 34.123 11.1657 34.3383 10.963C34.6803 10.6463 34.8513 10.1587 34.8513 9.5C34.8513 9.158 34.807 8.873 34.7183 8.645C34.6423 8.40433 34.5156 8.20167 34.3383 8.037C34.123 7.83433 33.8253 7.70133 33.4453 7.638C33.078 7.57467 32.6093 7.543 32.0393 7.543H29.0943C28.5243 7.543 28.0493 7.57467 27.6693 7.638C27.302 7.70133 27.0106 7.83433 26.7953 8.037C26.618 8.20167 26.485 8.40433 26.3963 8.645C26.3203 8.873 26.2823 9.158 26.2823 9.5C26.2823 10.1587 26.4533 10.6463 26.7953 10.963C27.0106 11.1657 27.302 11.2987 27.6693 11.362C28.0493 11.4127 28.5243 11.438 29.0943 11.438H32.0393ZM28.5623 13.794C27.5363 13.794 26.6623 13.699 25.9403 13.509C25.231 13.3063 24.642 12.977 24.1733 12.521C23.806 12.1537 23.521 11.7167 23.3183 11.21C23.1156 10.6907 23.0143 10.108 23.0143 9.462C23.0143 8.82867 23.1156 8.25867 23.3183 7.752C23.5336 7.24533 23.825 6.80833 24.1923 6.441C24.661 5.985 25.25 5.662 25.9593 5.472C26.6813 5.282 27.5553 5.187 28.5813 5.187H32.5523C33.5783 5.187 34.446 5.282 35.1553 5.472C35.8773 5.662 36.4726 5.985 36.9413 6.441C37.3086 6.80833 37.5936 7.24533 37.7963 7.752C38.0116 8.25867 38.1193 8.82867 38.1193 9.462C38.1193 10.108 38.018 10.6907 37.8153 11.21C37.6126 11.7167 37.3276 12.1537 36.9603 12.521C36.4916 12.977 35.8963 13.3063 35.1743 13.509C34.465 13.699 33.5973 13.794 32.5713 13.794H28.5623Z" fill="#0C121C"/>
<path d="M48.5675 5.187C49.7328 5.187 50.6448 5.282 51.3035 5.472C51.9749 5.64933 52.4942 5.928 52.8615 6.308C53.1908 6.63733 53.4189 7.03633 53.5455 7.505C53.6722 7.97367 53.7355 8.60067 53.7355 9.386V13.794H50.5245V9.671C50.5245 9.22767 50.4865 8.87933 50.4105 8.626C50.3472 8.36 50.2395 8.151 50.0875 7.999C49.8975 7.809 49.6315 7.68867 49.2895 7.638C48.9475 7.57467 48.4979 7.543 47.9405 7.543H43.4945V13.794H40.2835V5.187H48.5675Z" fill="#0C121C"/>
<path d="M59.5457 6.897C59.5457 7.63167 59.6407 8.27133 59.8307 8.816C60.0207 9.348 60.3183 9.77867 60.7237 10.108C61.1923 10.4753 61.813 10.716 62.5857 10.83C63.371 10.944 64.416 11.001 65.7207 11.001H73.6057V13.794H65.2077C63.3457 13.794 61.8067 13.6483 60.5907 13.357C59.3747 13.053 58.4057 12.54 57.6837 11.818C57.1137 11.248 56.6703 10.5513 56.3537 9.728C56.0497 8.90467 55.8977 7.961 55.8977 6.897C55.8977 5.833 56.0497 4.88933 56.3537 4.066C56.6703 3.24267 57.1137 2.546 57.6837 1.976C58.4057 1.254 59.3747 0.747334 60.5907 0.456C61.8067 0.152 63.3457 0 65.2077 0H73.6057V2.793H65.7207C64.416 2.793 63.371 2.85 62.5857 2.964C61.813 3.078 61.1923 3.31867 60.7237 3.686C60.3183 4.01533 60.0207 4.45233 59.8307 4.997C59.6407 5.529 59.5457 6.16233 59.5457 6.897Z" fill="#0C121C"/>
<path d="M92.8101 2.679H81.2201C80.7387 2.679 80.3271 2.70433 79.9851 2.755C79.6431 2.80567 79.3834 2.91967 79.2061 3.097C79.0161 3.27433 78.9211 3.52767 78.9211 3.857C78.9211 4.26233 79.0731 4.54733 79.3771 4.712C79.6937 4.87667 80.1561 4.98433 80.7641 5.035L88.3451 5.624C88.9531 5.67467 89.4977 5.738 89.979 5.814C90.4731 5.87733 90.9101 5.966 91.2901 6.08C91.6701 6.18133 92.0057 6.31433 92.2971 6.479C92.6011 6.631 92.8671 6.821 93.0951 7.049C93.3864 7.34033 93.6207 7.70133 93.798 8.132C93.9754 8.55 94.064 9.063 94.064 9.671C94.064 10.849 93.7221 11.7673 93.0381 12.426C92.5567 12.9073 91.917 13.2557 91.119 13.471C90.3337 13.6863 89.3077 13.794 88.0411 13.794H76.4321V11.115H88.5161C89.2887 11.115 89.846 11.0137 90.188 10.811C90.53 10.5957 90.701 10.2663 90.701 9.823C90.701 9.43033 90.5681 9.15167 90.3021 8.987C90.0361 8.80967 89.5547 8.68933 88.8581 8.626L81.828 8.094C81.3214 8.056 80.8274 8.01167 80.3461 7.961C79.8774 7.89767 79.4277 7.81533 78.9971 7.714C78.5791 7.6 78.18 7.46067 77.8 7.296C77.4327 7.11867 77.1034 6.90333 76.812 6.65C76.47 6.35867 76.1851 5.985 75.9571 5.529C75.7291 5.06033 75.6151 4.522 75.6151 3.914C75.6151 3.33133 75.7164 2.82467 75.9191 2.394C76.1217 1.95067 76.3877 1.57067 76.717 1.254C77.1984 0.810666 77.8381 0.494 78.6361 0.304C79.4341 0.101334 80.3777 0 81.467 0H92.8101V2.679Z" fill="#0C121C"/>
</g>
</svg>
