<svg width="400" height="375" viewBox="0 0 400 375" fill="none" xmlns="http://www.w3.org/2000/svg">
<g opacity="0.2">
<path d="M150 65.2174H400V375C400 375 100 375 62.5 375C25 375 0 350 0 312.5C0 275 0 75 0 50C0 25 25 0 50 0C75 0 150 0 150 0V65.2174Z" fill="#E6EAEA"/>
<path d="M62.5 356.25C37.5 356.25 18.75 337.5 18.75 318.75V81.25H381.25V356.25H62.5Z" fill="url(#paint0_linear_2146_6317)" stroke="#C3C7C6" stroke-width="8"/>
<path d="M131.25 18.75V281.25H62.5C37.5 281.25 18.75 300 18.75 318.75V62.5C18.75 37.5 37.5 18.75 62.5 18.75H131.25Z" fill="url(#paint1_linear_2146_6317)" stroke="#C3C7C6" stroke-width="8"/>
</g>
<defs>
<linearGradient id="paint0_linear_2146_6317" x1="139.584" y1="218.75" x2="18.75" y2="218.75" gradientUnits="userSpaceOnUse">
<stop stop-color="#FCFCFC"/>
<stop offset="1" stop-color="#919191"/>
</linearGradient>
<linearGradient id="paint1_linear_2146_6317" x1="56.25" y1="168.75" x2="18.75" y2="168.75" gradientUnits="userSpaceOnUse">
<stop stop-color="#FCFCFC"/>
<stop offset="1" stop-color="#919191"/>
</linearGradient>
</defs>
</svg>
