<svg width="400" height="338" viewBox="0 0 400 338" fill="none" xmlns="http://www.w3.org/2000/svg">
<g opacity="0.2">
<path d="M0 37.5C0 16.7894 16.7894 0 37.5 0H68.75C79.1054 0 87.5 8.39463 87.5 18.75C87.5 29.1054 79.1054 37.5 68.75 37.5H50C43.0965 37.5 37.5 43.0965 37.5 50V137.5H150C170.711 137.5 187.5 154.289 187.5 175V181.25L188.82 180.59C195.858 177.071 204.142 177.071 211.18 180.59L212.5 181.25V175C212.5 154.289 229.289 137.5 250 137.5H362.5V50C362.5 43.0965 356.904 37.5 350 37.5H331.25C320.895 37.5 312.5 29.1054 312.5 18.75C312.5 8.39463 320.895 0 331.25 0H375C388.807 0 400 11.1929 400 25V212.5C400 219.404 394.404 225 387.5 225V250C387.5 298.325 348.325 337.5 300 337.5C251.675 337.5 212.5 298.325 212.5 250V218.75L211.18 218.09C204.142 214.571 195.858 214.571 188.82 218.09L187.5 218.75V250C187.5 298.325 148.325 337.5 100 337.5C51.6751 337.5 12.5 298.325 12.5 250V225C5.59644 225 0 219.404 0 212.5V37.5Z" fill="#E6EAEA"/>
<path d="M31.25 175C31.25 164.645 39.6446 156.25 50 156.25H150C160.355 156.25 168.75 164.645 168.75 175V250C168.75 287.97 137.97 318.75 100 318.75C62.0304 318.75 31.25 287.97 31.25 250V175Z" fill="url(#paint0_linear_2145_6296)" stroke="#C3C7C6" stroke-width="12"/>
<path d="M231.25 175C231.25 164.645 239.645 156.25 250 156.25H350C360.355 156.25 368.75 164.645 368.75 175V250C368.75 287.97 337.97 318.75 300 318.75C262.03 318.75 231.25 287.97 231.25 250V175Z" fill="url(#paint1_linear_2145_6296)" stroke="#C3C7C6" stroke-width="12"/>
<path d="M166.5 200L180.236 194.088C193.065 189.811 206.935 189.811 219.764 194.088L233.5 200V212.5L219.764 206.588C206.935 202.311 193.065 202.311 180.236 206.588L166.5 212.5V200Z" fill="#C3C7C6"/>
<path d="M12.5 37.5C12.5 23.6929 23.6929 12.5 37.5 12.5H68.7509C72.2021 12.5 75 15.2979 75 18.7491C75 22.2002 72.2024 24.9981 68.7511 24.9983L37.4995 24.9995C30.5961 24.9997 25 30.5961 25 37.4995V175H34.5V212.5H25C18.0965 212.5 12.5 206.904 12.5 200V37.5Z" fill="#C3C7C6"/>
<path d="M387.5 37.5C387.5 23.6929 376.307 12.5 362.5 12.5H331.249C327.798 12.5 325 15.2979 325 18.7491C325 22.2002 327.798 24.9981 331.249 24.9983L362.5 24.9995C369.404 24.9997 375 30.5961 375 37.4995V175H367.5V212.5H375C381.904 212.5 387.5 206.904 387.5 200V37.5Z" fill="#C3C7C6"/>
</g>
<defs>
<linearGradient id="paint0_linear_2145_6296" x1="145.834" y1="174.305" x2="41.0045" y2="289.831" gradientUnits="userSpaceOnUse">
<stop stop-color="#FCFCFC"/>
<stop offset="1" stop-color="#E6EAEA"/>
</linearGradient>
<linearGradient id="paint1_linear_2145_6296" x1="345.834" y1="174.305" x2="241.005" y2="289.831" gradientUnits="userSpaceOnUse">
<stop stop-color="#FCFCFC"/>
<stop offset="1" stop-color="#E6EAEA"/>
</linearGradient>
</defs>
</svg>
