<svg width="401" height="401" viewBox="0 0 401 401" fill="none" xmlns="http://www.w3.org/2000/svg">
<g opacity="0.3">
<path d="M200.755 15.8037L385.456 200.504L200.755 385.206L16.0537 200.505L200.755 15.8037Z" fill="#E6EAEA"/>
<path fill-rule="evenodd" clip-rule="evenodd" d="M200.755 0.504395L208.405 8.15361L393.106 192.853L400.754 200.504L208.405 392.856L200.755 400.504L8.40377 208.155L0.754395 200.505L8.40361 192.854L193.104 8.15378L200.755 0.504395ZM199.075 14.1244L14.3744 198.825L12.6946 200.505L14.3742 202.184L200.755 388.565L202.434 386.885L388.814 200.503L387.135 198.823L202.434 14.1244L200.755 12.4446L199.075 14.1244Z" fill="#E6EAEA"/>
<path d="M200.755 25.1323L376.127 200.503L200.755 375.877L25.3823 200.505L200.755 25.1323Z" fill="url(#paint0_linear_2141_6267)"/>
<path fill-rule="evenodd" clip-rule="evenodd" d="M200.754 19.1616L382.097 200.503L200.754 381.847L19.4116 200.504L200.754 19.1616ZM200.754 31.1025L31.3525 200.504L200.754 369.906L370.156 200.503L200.754 31.1025Z" fill="#C3C7C6"/>
<mask id="mask0_2141_6267" style="mask-type:luminance" maskUnits="userSpaceOnUse" x="180" y="108" width="41" height="172">
<path d="M220.544 108.154H180.965V279.663H220.544V108.154Z" fill="white"/>
</mask>
<g mask="url(#mask0_2141_6267)">
<path d="M220.544 108.154H180.965V279.663H220.544V108.154Z" fill="#F4F7F6"/>
<path d="M207.351 174.119H194.158V266.469H207.351V174.119Z" fill="#C3C7C6"/>
<path d="M207.351 121.347H194.158V147.733H207.351V121.347Z" fill="#C3C7C6"/>
</g>
</g>
<defs>
<linearGradient id="paint0_linear_2141_6267" x1="293.105" y1="108.154" x2="108.404" y2="292.855" gradientUnits="userSpaceOnUse">
<stop stop-color="#FCFCFC"/>
<stop offset="1" stop-color="#E6EAEA"/>
</linearGradient>
</defs>
</svg>
