<svg width="400" height="400" viewBox="0 0 400 400" fill="none" xmlns="http://www.w3.org/2000/svg">
<g opacity="0.2">
<path d="M200 15.2993L384.702 199.999L200 384.702L15.2993 200L200 15.2993Z" fill="#E6EAEA"/>
<path fill-rule="evenodd" clip-rule="evenodd" d="M200 0L207.65 7.64922L392.351 192.349L400 199.999L207.65 392.351L200 400L7.64938 207.65L0 200L7.64922 192.35L192.35 7.64939L200 0ZM198.32 13.62L13.62 198.32L11.9402 200L13.6198 201.68L200 388.06L201.68 386.381L388.06 199.998L386.381 198.319L201.68 13.62L200 11.9402L198.32 13.62Z" fill="#E6EAEA"/>
<path d="M200 24.6279L375.373 199.999L200 375.373L24.6279 200L200 24.6279Z" fill="url(#paint0_linear_2141_6267)"/>
<path fill-rule="evenodd" clip-rule="evenodd" d="M200 18.6572L381.343 199.999L200 381.343L18.6572 200L200 18.6572ZM200 30.5981L30.5981 200L200 369.402L369.402 199.999L200 30.5981Z" fill="#C3C7C6"/>
<mask id="mask0_2141_6267" style="mask-type:luminance" maskUnits="userSpaceOnUse" x="180" y="107" width="40" height="173">
<path d="M219.79 107.65H180.211V279.158H219.79V107.65Z" fill="white"/>
</mask>
<g mask="url(#mask0_2141_6267)">
<path d="M219.79 107.65H180.211V279.158H219.79V107.65Z" fill="#F4F7F6"/>
<path d="M206.597 173.614H193.404V265.965H206.597V173.614Z" fill="#C3C7C6"/>
<path d="M206.597 120.843H193.404V147.229H206.597V120.843Z" fill="#C3C7C6"/>
</g>
</g>
<defs>
<linearGradient id="paint0_linear_2141_6267" x1="292.351" y1="107.65" x2="107.65" y2="292.351" gradientUnits="userSpaceOnUse">
<stop stop-color="#FCFCFC"/>
<stop offset="1" stop-color="#E6EAEA"/>
</linearGradient>
</defs>
</svg>
