<svg width="16" height="16" viewBox="0 0 16 16" fill="none" xmlns="http://www.w3.org/2000/svg">
<g clip-path="url(#clip0_2104_6425)">
<path d="M0 12H3.42857V13H4.57143V12H11.4286V13H12.5714V12H16C16 14.2091 14.2091 16 12 16H11.4464C10.0219 16 8.70671 15.2367 8 14C7.29329 15.2367 5.97807 16 4.55364 16H4C1.79086 16 0 14.2091 0 12Z" fill="#3A3A3A"/>
<path d="M0 0H5V3H3V8H13V3H11V0H16V12H15H12V11H11V12H5V11H4V12H0V0Z" fill="#3A3A3A"/>
<path d="M12 1H15V11H14V2H12V1Z" fill="#FCFCFC"/>
<path d="M1 1H4V2H2V11H1V1Z" fill="#FCFCFC"/>
<rect x="7" y="10" width="2" height="1" fill="#FCFCFC"/>
<path d="M9.5 9.5H14.5V12C14.5 13.3807 13.3807 14.5 12 14.5C10.6193 14.5 9.5 13.3807 9.5 12V9.5Z" fill="url(#paint0_linear_2104_6425)" stroke="#FCFCFC"/>
<path d="M1.5 9.5H6.5V12C6.5 13.3807 5.38071 14.5 4 14.5C2.61929 14.5 1.5 13.3807 1.5 12V9.5Z" fill="url(#paint1_linear_2104_6425)" stroke="#FCFCFC"/>
</g>
<defs>
<linearGradient id="paint0_linear_2104_6425" x1="12" y1="9" x2="12" y2="15" gradientUnits="userSpaceOnUse">
<stop stop-color="#0C121C"/>
<stop offset="1" stop-color="#3A3A3A"/>
</linearGradient>
<linearGradient id="paint1_linear_2104_6425" x1="4" y1="9" x2="4" y2="15" gradientUnits="userSpaceOnUse">
<stop stop-color="#0C121C"/>
<stop offset="1" stop-color="#3A3A3A"/>
</linearGradient>
<clipPath id="clip0_2104_6425">
<rect width="16" height="16" fill="white"/>
</clipPath>
</defs>
</svg>
