<svg width="16" height="16" viewBox="0 0 16 16" fill="none" xmlns="http://www.w3.org/2000/svg">
<path d="M0 1H1V8H0V1Z" fill="#FCFCFC"/>
<path d="M15 5H16V15H15V5Z" fill="#FCFCFC"/>
<path d="M11 14H15V15H11V14Z" fill="#FCFCFC"/>
<path d="M1 1H12V2H1V1Z" fill="#FCFCFC"/>
<path fill-rule="evenodd" clip-rule="evenodd" d="M12 5H16V4L13 1H12V5Z" fill="#FCFCFC"/>
<rect y="9" width="1" height="7" fill="#FCFCFC"/>
<rect x="8" y="9" width="1" height="7" fill="#FCFCFC"/>
<rect x="4" y="9" width="1" height="7" fill="#FCFCFC"/>
<rect x="6" y="10" width="1" height="5" fill="#FCFCFC"/>
<rect x="5" y="15" width="1" height="1" fill="#FCFCFC"/>
<rect x="5" y="9" width="1" height="1" fill="#FCFCFC"/>
<rect x="1" y="9" width="2" height="1" fill="#FCFCFC"/>
<rect x="9" y="9" width="2" height="1" fill="#FCFCFC"/>
<rect x="1" y="12" width="2" height="1" fill="#FCFCFC"/>
<rect x="9" y="12" width="1" height="1" fill="#FCFCFC"/>
<rect x="2" y="12" width="2" height="1" transform="rotate(-90 2 12)" fill="#FCFCFC"/>
</svg>
