<svg width="16" height="16" viewBox="0 0 16 16" fill="none" xmlns="http://www.w3.org/2000/svg">
<mask id="path-1-inside-1_842_22441" fill="white">
<path d="M0 1H1V15H0V1Z"/>
<path d="M15 5H16V15H15V5Z"/>
<path d="M1 14H15V15H1V14Z"/>
<path d="M1 1H12V2H1V1Z"/>
<path d="M16 4L13 1H12V5H16V4Z"/>
</mask>
<path d="M0 1V-1H-2V1H0ZM0 15H-2V17H0V15ZM15 5V3H13V5H15ZM16 15V17H18V15H16ZM1 14V12H-1V14H1ZM15 14H17V12H15V14ZM12 2V4H14V2H12ZM1 2H-1V4H1V2ZM13 1L14.4142 -0.414214L13.8284 -1H13V1ZM16 4H18V3.17157L17.4142 2.58579L16 4ZM12 5H10V7H12V5ZM0 3H1V-1H0V3ZM-1 1V15H3V1H-1ZM1 13H0V17H1V13ZM2 15V1H-2V15H2ZM15 7H16V3H15V7ZM14 5V15H18V5H14ZM16 13H15V17H16V13ZM17 15V5H13V15H17ZM1 16H15V12H1V16ZM13 14V15H17V14H13ZM15 13H1V17H15V13ZM3 15V14H-1V15H3ZM1 3H12V-1H1V3ZM10 1V2H14V1H10ZM12 0H1V4H12V0ZM3 2V1H-1V2H3ZM11.5858 2.41421L14.5858 5.41421L17.4142 2.58579L14.4142 -0.414214L11.5858 2.41421ZM14 5V1H10V5H14ZM12 3H13V-1H12V3ZM14 4V5H18V4H14ZM16 3H12V7H16V3Z" fill="#FCFCFC" mask="url(#path-1-inside-1_842_22441)"/>
<rect x="3" y="4" width="3" height="3" fill="#FCFCFC"/>
<rect x="3" y="9" width="3" height="3" fill="#FCFCFC"/>
<rect x="7" y="6" width="4" height="1" fill="#FCFCFC"/>
<rect x="7" y="11" width="4" height="1" fill="#FCFCFC"/>
</svg>
