<svg width="16" height="16" viewBox="0 0 16 16" fill="none" xmlns="http://www.w3.org/2000/svg">
<g clip-path="url(#clip0_2135_6223)">
<g clip-path="url(#clip1_2135_6223)">
<path d="M1 1V0H7V2H16V16H1V15H0V1H1Z" fill="#3A3A3A"/>
<path d="M3 2H6V11H2V3H3V2Z" fill="url(#paint0_linear_2135_6223)"/>
<path d="M2 1H6V4H5V2H3V3H2V12H1V2H2V1Z" fill="#FCFCFC"/>
<path d="M6 3H14V15H6H2V10H6V3Z" fill="url(#paint1_linear_2135_6223)"/>
<path d="M1 14L1 11L2 11L2 10L3 10L3 12L2 12L2 13L3 13L3 14L14 14L14 4L6 4L6 11L3 11L3 10L5 10L5 3L15 3L15 15L2 15L2 14L1 14Z" fill="#FCFCFC"/>
</g>
</g>
<defs>
<linearGradient id="paint0_linear_2135_6223" x1="3.33333" y1="6.5" x2="2" y2="6.5" gradientUnits="userSpaceOnUse">
<stop stop-color="#202121"/>
<stop offset="1"/>
</linearGradient>
<linearGradient id="paint1_linear_2135_6223" x1="6" y1="9" x2="2" y2="9" gradientUnits="userSpaceOnUse">
<stop stop-color="#202121"/>
<stop offset="1"/>
</linearGradient>
<clipPath id="clip0_2135_6223">
<rect width="16" height="16" fill="white"/>
</clipPath>
<clipPath id="clip1_2135_6223">
<rect width="16" height="16" fill="white"/>
</clipPath>
</defs>
</svg>
