<svg width="80" height="33" viewBox="0 0 80 33" fill="none" xmlns="http://www.w3.org/2000/svg">
<path d="M52.3369 21.1706C52.3369 22.8731 52.1856 24.4245 51.8829 25.8249C51.5803 27.1978 51.1126 28.3785 50.4798 29.3671C49.8745 30.3556 49.0904 31.1244 48.1275 31.6736C47.1921 32.2228 46.0778 32.4973 44.7848 32.4973C43.4917 32.4973 42.3637 32.2228 41.4008 31.6736C40.4378 31.1244 39.64 30.3556 39.0072 29.3671C38.4019 28.3785 37.948 27.1978 37.6454 25.8249C37.3427 24.4245 37.1914 22.8731 37.1914 21.1706C37.1914 19.4957 37.3427 17.958 37.6454 16.5576C37.948 15.1572 38.4019 13.9627 39.0072 12.9742C39.64 11.9583 40.4378 11.1757 41.4008 10.6265C42.3637 10.0773 43.4917 9.80274 44.7848 9.80274C46.0778 9.80274 47.1921 10.0773 48.1275 10.6265C49.0904 11.1757 49.8745 11.9583 50.4798 12.9742C51.1126 13.9627 51.5803 15.1572 51.8829 16.5576C52.1856 17.958 52.3369 19.4957 52.3369 21.1706ZM48.6227 21.1706C48.6227 19.9625 48.5539 18.8641 48.4164 17.8756C48.2788 16.8596 48.0587 15.9947 47.7561 15.2808C47.4535 14.5394 47.0545 13.9765 46.5593 13.592C46.0641 13.1802 45.4726 12.9742 44.7848 12.9742C44.0695 12.9742 43.4642 13.1802 42.969 13.592C42.5013 13.9765 42.1023 14.5394 41.7722 15.2808C41.4696 15.9947 41.2495 16.8596 41.1119 17.8756C40.9743 18.8641 40.9056 19.9625 40.9056 21.1706C40.9056 22.3788 40.9743 23.4909 41.1119 24.5069C41.2495 25.4954 41.4696 26.3466 41.7722 27.0605C42.1023 27.7744 42.5013 28.3373 42.969 28.7492C43.4642 29.1336 44.0695 29.3259 44.7848 29.3259C45.4726 29.3259 46.0641 29.1336 46.5593 28.7492C47.0545 28.3373 47.4535 27.7744 47.7561 27.0605C48.0587 26.3466 48.2788 25.4954 48.4164 24.5069C48.5539 23.4909 48.6227 22.3788 48.6227 21.1706Z" fill="#FCFCFC"/>
<path d="M63.8462 0C64.6441 0 65.3456 0.0823758 65.9509 0.247127C66.5562 0.411879 67.0514 0.59036 67.4366 0.782572L66.6937 3.58336C66.3086 3.39115 65.9096 3.25385 65.497 3.17147C65.0843 3.06164 64.6441 3.00673 64.1764 3.00673C63.5436 3.00673 63.0209 3.11656 62.6082 3.33623C62.1955 3.5559 61.8791 3.85794 61.659 4.24236C61.4389 4.62679 61.2876 5.09358 61.2051 5.64276C61.1225 6.16447 61.0812 6.72737 61.0812 7.33146V10.3382H66.6525V13.3861H61.0812V31.9619H57.5322V7.33146C57.5322 4.99748 58.0549 3.19893 59.1004 1.93584C60.1458 0.645279 61.7278 0 63.8462 0Z" fill="#FCFCFC"/>
<path d="M73.4479 10.3382H78.8953V13.3861H73.4479V25.2894C73.4479 26.7722 73.7092 27.8156 74.232 28.4197C74.7822 28.9964 75.5113 29.2847 76.4192 29.2847C76.8869 29.2847 77.3271 29.216 77.7398 29.0787C78.18 28.9414 78.5514 28.7767 78.854 28.5845L79.5556 31.4264C78.4276 32.0855 77.2308 32.415 75.9652 32.415C73.9293 32.415 72.4024 31.8521 71.3845 30.7263C70.394 29.573 69.8988 27.6783 69.8988 25.0423V4.53068L73.4479 3.91286V10.3382Z" fill="#FCFCFC"/>
<path d="M10.3996 32.5797C7.04313 32.5797 4.47073 31.3303 2.68244 28.8316C0.894147 26.3329 0 22.4749 0 17.2578C0 14.5943 0.24761 12.3427 0.74283 10.5029C1.26556 8.6632 1.98088 7.1667 2.88878 6.01343C3.79668 4.86017 4.86966 4.03641 6.10771 3.54215C7.34576 3.02044 8.69386 2.75958 10.152 2.75958C11.3625 2.75958 12.4905 2.92433 13.536 3.25384C14.5815 3.55588 15.4344 3.94031 16.0946 4.4071L14.9804 7.4962C14.3201 7.05687 13.6048 6.6999 12.8344 6.42532C12.0916 6.15073 11.225 6.01343 10.2345 6.01343C8.03357 6.01343 6.43786 6.9333 5.44742 8.77303C4.45698 10.5853 3.96176 13.4135 3.96176 17.2578C3.96176 21.1294 4.48449 24.1087 5.52995 26.1956C6.57542 28.2824 8.28118 29.3258 10.6472 29.3258C11.7752 29.3258 12.6831 29.1886 13.3709 28.914C14.0863 28.6394 14.7741 28.2824 15.4344 27.8431L16.4661 30.7674C15.8333 31.2617 14.9942 31.6873 13.9487 32.0443C12.9307 32.4012 11.7477 32.5797 10.3996 32.5797Z" fill="#FCFCFC"/>
<path d="M24.8964 29.4082C26.3821 29.4082 27.5238 28.9963 28.3217 28.1726C29.147 27.3488 29.5597 26.2367 29.5597 24.8364C29.5597 24.095 29.4359 23.436 29.1883 22.8593C28.9407 22.2827 28.6105 21.761 28.1979 21.2942C27.8127 20.8274 27.3587 20.4018 26.836 20.0174C26.3133 19.6329 25.7768 19.2485 25.2265 18.8641C24.5938 18.4248 23.9335 17.958 23.2457 17.4637C22.5579 16.9694 21.9251 16.3928 21.3473 15.7338C20.7971 15.0748 20.3431 14.306 19.9855 13.4273C19.6278 12.5486 19.449 11.5189 19.449 10.3382C19.449 9.18491 19.6416 8.14148 20.0267 7.20789C20.4394 6.27429 20.9897 5.47799 21.6775 4.81898C22.3928 4.15998 23.2319 3.65199 24.1948 3.29503C25.1853 2.93806 26.2445 2.75958 27.3725 2.75958C28.473 2.75958 29.4909 2.89688 30.4264 3.17146C31.3618 3.44605 32.1459 3.77555 32.7786 4.15998L31.6231 7.08432C31.0454 6.6999 30.4126 6.41159 29.7248 6.21938C29.0645 5.99971 28.3629 5.88987 27.6201 5.88987C26.272 5.88987 25.1853 6.26056 24.3599 7.00195C23.5621 7.71587 23.1631 8.77303 23.1631 10.1734C23.1631 10.9423 23.2869 11.615 23.5345 12.1916C23.8097 12.7683 24.1536 13.29 24.5663 13.7568C25.0064 14.2236 25.5017 14.6492 26.0519 15.0336C26.6297 15.418 27.2349 15.8162 27.8677 16.2281C28.5005 16.6399 29.147 17.093 29.8073 17.5873C30.4676 18.0815 31.0591 18.6582 31.5819 19.3172C32.1321 19.9487 32.5723 20.7038 32.9025 21.5825C33.2601 22.4337 33.4389 23.4497 33.4389 24.6304C33.4389 25.7013 33.2739 26.7173 32.9437 27.6783C32.6136 28.6394 32.0908 29.4906 31.3755 30.232C30.6877 30.9459 29.8073 31.5225 28.7344 31.9619C27.6889 32.3738 26.4508 32.5797 25.0202 32.5797C23.6996 32.5797 22.5441 32.4287 21.5537 32.1266C20.5632 31.8246 19.6828 31.4264 18.9125 30.9322L20.068 27.9666C20.7833 28.406 21.5124 28.7629 22.2552 29.0375C23.0256 29.2847 23.906 29.4082 24.8964 29.4082Z" fill="#FCFCFC"/>
</svg>
