<svg width="16" height="16" viewBox="0 0 16 16" fill="none" xmlns="http://www.w3.org/2000/svg">
<path d="M0 1H13L16 4V15H13V14H15V5H12V2H1V4H0V2V1Z" fill="#0C121C"/>
<path d="M0 16L1 13L3 15L0 16Z" fill="#0C121C"/>
<path d="M4.82617 9.17578L5.53328 9.88289L2.70485 12.7113L1.99775 12.0042L4.82617 9.17578Z" fill="#0C121C"/>
<path d="M5.61719 10.9673L6.32429 11.6744L4.01247 13.9862L3.30536 13.2791L5.61719 10.9673Z" fill="#0C121C"/>
<path d="M7 11.002L6.29289 11.7091L4.29081 9.70697L4.99791 8.99987L7 11.002Z" fill="#0C121C"/>
<path d="M0 3H1V12H0V3Z" fill="#0C121C"/>
<path d="M14 14L14 15L6 15L6 14L14 14Z" fill="#0C121C"/>
</svg>
