<svg width="16" height="16" viewBox="0 0 16 16" fill="none" xmlns="http://www.w3.org/2000/svg">
<path fill-rule="evenodd" clip-rule="evenodd" d="M0 3V8H2.625L2.84705 6.81571C2.93574 6.34274 3.34871 6 3.82993 6H13.7192C14.3698 6 14.8472 6.61139 14.6894 7.24254L13.1894 13.2425C13.0781 13.6877 12.6781 14 12.2192 14H5V15H12.3604C13.3138 15 14.1346 14.3271 14.3216 13.3922L15.5216 7.39223C15.7691 6.15465 14.8225 5 13.5604 5H13C13 3.89543 12.1046 3 11 3H6C6 1.89543 5.10457 1 4 1H2C0.895431 1 0 1.89543 0 3Z" fill="#0C121C"/>
<path d="M0 15L1 12L3 14L0 15Z" fill="#0C121C"/>
<path d="M4.82617 8.17578L5.53328 8.88289L2.70485 11.7113L1.99775 11.0042L4.82617 8.17578Z" fill="#0C121C"/>
<path d="M5.61719 9.96729L6.32429 10.6744L4.01247 12.9862L3.30536 12.2791L5.61719 9.96729Z" fill="#0C121C"/>
<path d="M7 10.002L6.29289 10.7091L4.29081 8.70697L4.99791 7.99987L7 10.002Z" fill="#0C121C"/>
</svg>
