<svg width="16" height="16" viewBox="0 0 16 16" fill="none" xmlns="http://www.w3.org/2000/svg">
<g clip-path="url(#clip0_738_20951)">
<path d="M0 1C0 0.447715 0.447715 0 1 0H2C2.55228 0 3 0.447715 3 1V1H5C5.55228 1 6 1.44772 6 2V2H7C7.55228 2 8 2.44772 8 3V3L7 6H6L7 3H2L1 6H6H7L6.77639 6.44721C6.607 6.786 6.26074 7 5.88197 7H1C0.447715 7 0 6.55228 0 6V6V1V1Z" fill="#0C121C"/>
<path d="M8 10C8 9.44772 8.44772 9 9 9H10C10.5523 9 11 9.44772 11 10V10H13C13.5523 10 14 10.4477 14 11V11H15C15.5523 11 16 11.4477 16 12V12L15 15H14L15 12H10L9 15H14H15L14.7764 15.4472C14.607 15.786 14.2607 16 13.882 16H9C8.44772 16 8 15.5523 8 15V15V10V10Z" fill="#0C121C"/>
<path d="M7 4H13V5H7V4Z" fill="#0C121C"/>
<rect x="13" y="4" width="7" height="1" transform="rotate(90 13 4)" fill="#0C121C"/>
<path d="M0 16L1 13L3 15L0 16Z" fill="#0C121C"/>
<path d="M4.82617 9.17578L5.53328 9.88289L2.70485 12.7113L1.99775 12.0042L4.82617 9.17578Z" fill="#0C121C"/>
<path d="M5.61719 10.9673L6.32429 11.6744L4.01247 13.9862L3.30536 13.2791L5.61719 10.9673Z" fill="#0C121C"/>
<path d="M7 11.002L6.29289 11.7091L4.29081 9.70697L4.99791 8.99987L7 11.002Z" fill="#0C121C"/>
</g>
<defs>
<clipPath id="clip0_738_20951">
<rect width="16" height="16" fill="white"/>
</clipPath>
</defs>
</svg>
