<svg width="16" height="16" viewBox="0 0 16 16" fill="none" xmlns="http://www.w3.org/2000/svg">
<g clip-path="url(#clip0_742_20119)">
<circle cx="8" cy="8" r="4.75" stroke="#0C121C" stroke-width="2.5"/>
<path d="M6.99805 0L8.99805 -1.34258e-08L8.99805 4L6.99805 4L6.99805 0Z" fill="#0C121C"/>
<path d="M12.9492 1.63477L14.3634 3.04898L11.535 5.87741L10.1208 4.46319L12.9492 1.63477Z" fill="#0C121C"/>
<path d="M16 7L16 9L12 9L12 7L16 7Z" fill="#0C121C"/>
<path d="M14.3633 12.9497L12.9491 14.3639L10.1206 11.5355L11.5349 10.1213L14.3633 12.9497Z" fill="#0C121C"/>
<path d="M6.99805 12L8.99805 12L8.99805 16L6.99805 16L6.99805 12Z" fill="#0C121C"/>
<path d="M4.46289 10.1201L5.8771 11.5343L3.04868 14.3628L1.63446 12.9485L4.46289 10.1201Z" fill="#0C121C"/>
<path d="M4 7L4 9L-7.3997e-08 9L0 7L4 7Z" fill="#0C121C"/>
<path d="M5.87891 4.46436L4.46469 5.87857L1.63627 3.05014L3.05048 1.63593L5.87891 4.46436Z" fill="#0C121C"/>
</g>
<defs>
<clipPath id="clip0_742_20119">
<rect width="16" height="16" fill="white"/>
</clipPath>
</defs>
</svg>
