<svg width="16" height="16" viewBox="0 0 16 16" fill="none" xmlns="http://www.w3.org/2000/svg">
<path fill-rule="evenodd" clip-rule="evenodd" d="M16 1H0V2V3V10H1V3H15V14H7V15H15H16V14V3V2V1Z" fill="#0C121C"/>
<path fill-rule="evenodd" clip-rule="evenodd" d="M16 6H11V2H10V6H6V2H5V6H0V7H5L5 9H6V7H10V10V11V11.5V15H11V11H16V10H11L11 7H16V6Z" fill="#0C121C"/>
<path d="M7.9079 10.0602C7.41881 9.76112 5.79779 10.6015 4.67986 12.0117C3.54795 13.4076 3.35232 13.8634 3.35232 13.8634C3.35232 13.8634 1.98285 12.4675 1.10247 12.0117C0.38979 11.6556 -0.39276 12.7381 0.222104 13.4076C0.906839 14.1625 2.56976 16 3.40822 16C4.24667 16 4.70782 14.2195 5.71396 12.8093C6.83189 11.1998 8.397 10.3594 7.9079 10.0602Z" fill="#0C121C"/>
</svg>
