<svg width="16" height="16" viewBox="0 0 16 16" fill="none" xmlns="http://www.w3.org/2000/svg">
<path fill-rule="evenodd" clip-rule="evenodd" d="M16 1H0V4H16V1ZM16 5H0V15H16V5ZM3 10C3 9.05197 3.19927 8.64325 3.53461 8.4111C3.93305 8.13525 4.65696 8 6 8V7C4.67638 7 3.65028 7.11475 2.96539 7.5889C2.21739 8.10675 2 8.94803 2 10C2 11.052 2.21739 11.8932 2.96539 12.4111C3.65028 12.8852 4.67638 13 6 13V12C4.65696 12 3.93305 11.8648 3.53461 11.5889C3.19927 11.3568 3 10.948 3 10ZM13 13.0005H12L10 7.00049H11L13 13.0005ZM8 11.0005H9V12.0005H8V11.0005ZM9 8.00049H8V9.00049H9V8.00049ZM15 2H14V3H15V2ZM12 2H13V3H12V2ZM11 2H10V3H11V2Z" fill="#0C121C"/>
</svg>
