<svg width="16" height="16" viewBox="0 0 16 16" fill="none" xmlns="http://www.w3.org/2000/svg">
<g clip-path="url(#clip0_689_20691)">
<path fill-rule="evenodd" clip-rule="evenodd" d="M16 2H14.6667H13V0H11V2H5V0H3V2H1.33333H0V3V5V6V9H1L1 6H15L15 14H7V15H15H16V14V6V5V3V2ZM11 3H13V5H11V3ZM5 3V5H3V3H5Z" fill="#0C121C"/>
<path d="M5.5 13.8164L3 15.4073L0.5 13.8164V11.1836L3 9.59265L5.5 11.1836V13.8164Z" stroke="#0C121C"/>
</g>
<defs>
<clipPath id="clip0_689_20691">
<rect width="16" height="16" fill="white"/>
</clipPath>
</defs>
</svg>
