<svg width="16" height="16" viewBox="0 0 16 16" fill="none" xmlns="http://www.w3.org/2000/svg">
<g clip-path="url(#clip0_787_24926)">
<path d="M7 5.20703V1H0V8H0.59971C1.51007 6.21916 3.36266 5 5.5 5C6.02001 5 6.52317 5.07217 7 5.20703Z" fill="#0C121C"/>
<path d="M15.9998 13L10.9998 3L9.25781 6.48405C10.3299 7.48767 10.9998 8.9156 10.9998 10.5C10.9998 11.4002 10.7836 12.2499 10.4001 13H15.9998Z" fill="#0C121C"/>
<path d="M10 10.5C10 12.9853 7.98528 15 5.5 15C3.01472 15 1 12.9853 1 10.5C1 8.01472 3.01472 6 5.5 6C7.98528 6 10 8.01472 10 10.5Z" fill="#0C121C"/>
</g>
<defs>
<clipPath id="clip0_787_24926">
<rect width="16" height="16" fill="white"/>
</clipPath>
</defs>
</svg>
