<svg width="16" height="16" viewBox="0 0 16 16" fill="none" xmlns="http://www.w3.org/2000/svg">
<g clip-path="url(#clip0_798_25606)">
<rect y="7" width="1" height="9" fill="#0C121C"/>
<path d="M4.5 9C4.5 11 3.28571 12.5 1 12.5H0.5" stroke="#0C121C"/>
<path d="M4.5 16C4.49888 14.5 3.28571 12.5 1 12.5H0.5" stroke="#0C121C"/>
<path d="M15 16L15 0L12 1.31134e-07L12 3L14 3L14 4L12 4L12 5L12 6L14 6L14 7L12 7L12 9L14 9L14 10L12 10L12 12L14 12L14 13L12 13L12 16L15 16Z" fill="#0C121C"/>
<rect x="14" width="2" height="16" fill="#0C121C"/>
</g>
<defs>
<clipPath id="clip0_798_25606">
<rect width="16" height="16" fill="white"/>
</clipPath>
</defs>
</svg>
