<svg width="16" height="16" viewBox="0 0 16 16" fill="none" xmlns="http://www.w3.org/2000/svg">
<rect width="3" height="6" transform="matrix(-1 0 0 1 6 9)" fill="#0C121C"/>
<rect width="1" height="9" transform="matrix(-1 0 0 1 5 1)" fill="#0C121C"/>
<rect width="4" height="2" transform="matrix(-1 0 0 1 6 2)" fill="#0C121C"/>
<path d="M8.64706 4.97571C7.58824 4.083 6 4 6 4H5V2H6C6 2 7.85294 2.29757 8.64706 3.78543C9.44118 5.27328 8.64706 4.97571 8.64706 4.97571Z" fill="#0C121C"/>
<rect width="3" height="4" transform="matrix(-1 0 0 1 3 1)" fill="#0C121C"/>
<path fill-rule="evenodd" clip-rule="evenodd" d="M12 10.9999H13L14 0.999891L11 0.999891L12 10.9999ZM12.5 3C12.7761 3 13 2.77614 13 2.5C13 2.22386 12.7761 2 12.5 2C12.2239 2 12 2.22386 12 2.5C12 2.77614 12.2239 3 12.5 3Z" fill="#0C121C"/>
<path fill-rule="evenodd" clip-rule="evenodd" d="M14 14.6632C15.1825 14.1015 16 12.8962 16 11.5C16 9.567 14.433 8 12.5 8C10.567 8 9 9.567 9 11.5C9 12.8962 9.81753 14.1015 11 14.6632V11H14V14.6632Z" fill="#0C121C"/>
</svg>
