<svg width="16" height="16" viewBox="0 0 16 16" fill="none" xmlns="http://www.w3.org/2000/svg">
<g clip-path="url(#clip0_803_21022)">
<path fill-rule="evenodd" clip-rule="evenodd" d="M8 16C12.4183 16 16 12.4183 16 8C16 3.58172 12.4183 0 8 0C3.58172 0 0 3.58172 0 8C0 12.4183 3.58172 16 8 16ZM8 13C6.85315 13 5 12.2406 5 9.61539C5 6.99021 8 2 8 2C8 2 11 7.03852 11 9.61539C11 12.1922 9.14685 13 8 13ZM6 9C6 10.0952 7.56643 11 8 11V5C8 5 6 7.88873 6 9Z" fill="#0C121C"/>
</g>
<defs>
<clipPath id="clip0_803_21022">
<rect width="16" height="16" fill="white"/>
</clipPath>
</defs>
</svg>
