<svg width="16" height="16" viewBox="0 0 16 16" fill="none" xmlns="http://www.w3.org/2000/svg">
<g clip-path="url(#clip0_810_21296)">
<mask id="mask0_810_21296" style="mask-type:alpha" maskUnits="userSpaceOnUse" x="0" y="0" width="16" height="16">
<path fill-rule="evenodd" clip-rule="evenodd" d="M16 0H0V12L1 9H5L7.33333 16H16V0Z" fill="#D9D9D9"/>
</mask>
<g mask="url(#mask0_810_21296)">
<path fill-rule="evenodd" clip-rule="evenodd" d="M16 1H0V2V3V14V15H1H15H16V14V3V2V1ZM15 3H1V14H15V3Z" fill="#0C121C"/>
</g>
<path d="M2 10H4L6 16H0L2 10Z" fill="#0C121C"/>
<path fill-rule="evenodd" clip-rule="evenodd" d="M16 6H11V2H10V6H6V2H5V6H0V7H1H5V9L6 12L6 11H10V15H11V11H16V10H11L11 7H16V6ZM10 7V10H6L6 7H10Z" fill="#0C121C"/>
</g>
<defs>
<clipPath id="clip0_810_21296">
<rect width="16" height="16" fill="white"/>
</clipPath>
</defs>
</svg>
