<svg width="16" height="16" viewBox="0 0 16 16" fill="none" xmlns="http://www.w3.org/2000/svg">
<g clip-path="url(#clip0_815_21914)">
<path fill-rule="evenodd" clip-rule="evenodd" d="M3 12C4.10457 12 5 11.1046 5 10C5 8.89543 4.10457 8 3 8C1.89543 8 1 8.89543 1 10C1 11.1046 1.89543 12 3 12ZM0 15C0 14 0.9 13 2.4 13H3.6C5.1 13 5.99977 14 5.99989 15V16H4.99994L5 15H4V16H2V15H1V16H0V15Z" fill="#0C121C"/>
<path fill-rule="evenodd" clip-rule="evenodd" d="M13 12C14.1046 12 15 11.1046 15 10C15 8.89543 14.1046 8 13 8C11.8954 8 11 8.89543 11 10C11 11.1046 11.8954 12 13 12ZM10 15C10 14 10.9 13 12.4 13H13.6C15.1 13 15.9998 14 15.9999 15V16H14.9999L15 15H14V16H12V15H11V16H10V15Z" fill="#0C121C"/>
<path fill-rule="evenodd" clip-rule="evenodd" d="M5.99883 7.35418C5.72709 7.04629 5.40868 6.78056 5.05469 6.56805C5.27245 5.73102 6.11633 5 7.39883 5H8.59883C9.88137 5 10.7251 5.73107 10.9429 6.56812C10.5889 6.78063 10.2705 7.04634 9.99881 7.3542L9.99883 7H8.99883V8H6.99883V7H5.99883V7.35418ZM7.99883 0C6.89426 0 5.99883 0.895431 5.99883 2C5.99883 3.10457 6.89426 4 7.99883 4C9.1034 4 9.99883 3.10457 9.99883 2C9.99883 0.895431 9.1034 0 7.99883 0Z" fill="#0C121C"/>
</g>
<defs>
<clipPath id="clip0_815_21914">
<rect width="16" height="16" fill="white"/>
</clipPath>
</defs>
</svg>
