<svg width="16" height="16" viewBox="0 0 16 16" fill="none" xmlns="http://www.w3.org/2000/svg">
<path d="M0 3C0 1.89543 0.895431 1 2 1H4C5.10457 1 6 1.89543 6 3H11C12.1046 3 13 3.89543 13 5H14C15.1046 5 16 5.89543 16 7V13C16 14.1046 15.1046 15 14 15H5V14H14C14.5523 14 15 13.5523 15 13V7C15 6.44772 14.5523 6 14 6H2C1.44772 6 1 6.44772 1 7V13C1 13.5523 1.44772 14 2 14H5V15H2C0.89543 15 0 14.1046 0 13V3Z" fill="#0C121C"/>
<path fill-rule="evenodd" clip-rule="evenodd" d="M5 4H7V6H5V4ZM7 8V6H9V8H7ZM7 10H5V8H7V10ZM7 12H9V10H7V12ZM7 12V14H5V12H7Z" fill="#0C121C"/>
</svg>
