<svg width="16" height="16" viewBox="0 0 16 16" fill="none" xmlns="http://www.w3.org/2000/svg">
<path fill-rule="evenodd" clip-rule="evenodd" d="M16 11H0V15H16V11ZM8 12H7V13H8V12ZM11 12H10V13H11V12ZM13 12H14V13H13V12Z" fill="#0C121C"/>
<path fill-rule="evenodd" clip-rule="evenodd" d="M16 6H0V10H16V6ZM8 7H7V8H8V7ZM11 7H10V8H11V7ZM13 7H14V8H13V7Z" fill="#0C121C"/>
<path fill-rule="evenodd" clip-rule="evenodd" d="M16 1H0V5H16V1ZM8 2H7V3H8V2ZM11 2H10V3H11V2ZM13 2H14V3H13V2Z" fill="#0C121C"/>
</svg>
