<svg width="16" height="16" viewBox="0 0 16 16" fill="none" xmlns="http://www.w3.org/2000/svg">
<g clip-path="url(#clip0_829_23132)">
<path fill-rule="evenodd" clip-rule="evenodd" d="M13 0H10V2H11V3L7 3V4V5V7H8V5H15V7H16V5V3L12 3V2H13V0ZM14 6H9V11H14V6ZM0 16H16V12H0V16ZM2 15C2.55228 15 3 14.5523 3 14C3 13.4477 2.55228 13 2 13C1.44772 13 1 13.4477 1 14C1 14.5523 1.44772 15 2 15ZM7 14C7 14.5523 6.55228 15 6 15C5.44772 15 5 14.5523 5 14C5 13.4477 5.44772 13 6 13C6.55228 13 7 13.4477 7 14ZM10 15C10.5523 15 11 14.5523 11 14C11 13.4477 10.5523 13 10 13C9.44771 13 9 13.4477 9 14C9 14.5523 9.44771 15 10 15ZM15 14C15 14.5523 14.5523 15 14 15C13.4477 15 13 14.5523 13 14C13 13.4477 13.4477 13 14 13C14.5523 13 15 13.4477 15 14ZM0 6H5V11H0V6Z" fill="#0C121C"/>
</g>
<defs>
<clipPath id="clip0_829_23132">
<rect width="16" height="16" fill="white"/>
</clipPath>
</defs>
</svg>
