<svg width="16" height="16" viewBox="0 0 16 16" fill="none" xmlns="http://www.w3.org/2000/svg">
<path fill-rule="evenodd" clip-rule="evenodd" d="M7 0H8V1.05001C8.31919 1.1148 8.61629 1.2404 8.87869 1.4142L9.62132 0.671573L10.3284 1.37868L9.5858 2.1213C9.7596 2.38371 9.8852 2.68081 9.94999 3H11V4H9.94999C9.8852 4.31919 9.7596 4.61629 9.5858 4.8787L10.3284 5.62132L9.62132 6.32843L8.87869 5.5858C8.61629 5.7596 8.31919 5.8852 8 5.94999V7H7V5.94999C6.68081 5.8852 6.38371 5.7596 6.1213 5.5858L5.37868 6.32843L4.67157 5.62132L5.4142 4.87869C5.2404 4.61629 5.1148 4.31919 5.05001 4H4V3H5.05001C5.1148 2.68081 5.2404 2.38371 5.4142 2.12131L4.67157 1.37868L5.37868 0.671573L6.1213 1.4142C6.38371 1.2404 6.68081 1.1148 7 1.05001V0ZM6.43884 4.56016C6.43917 4.56049 6.43951 4.56083 6.43984 4.56116C6.71125 4.83231 7.08604 5 7.5 5C7.91396 5 8.28875 4.83231 8.56016 4.56116L8.56116 4.56016C8.83232 4.28875 9 3.91396 9 3.5C9 3.08599 8.83227 2.71115 8.56106 2.43974L8.56026 2.43894C8.28885 2.16773 7.91401 2 7.5 2C7.08599 2 6.71115 2.16773 6.43974 2.43894L6.43894 2.43974C6.16773 2.71115 6 3.08599 6 3.5C6 3.91396 6.16769 4.28875 6.43884 4.56016ZM3 12C4.10457 12 5 11.1046 5 10C5 8.89543 4.10457 8 3 8C1.89543 8 1 8.89543 1 10C1 11.1046 1.89543 12 3 12ZM0 15C0 14 0.9 13 2.4 13H3.6C5.1 13 5.99977 14 5.99989 15V16H4.99994L5 15H4V16H2V15H1V16H0V15ZM12 12C13.1046 12 14 11.1046 14 10C14 8.89543 13.1046 8 12 8C10.8954 8 10 8.89543 10 10C10 11.1046 10.8954 12 12 12ZM9 15C9 14 9.9 13 11.4 13H12.6C14.1 13 14.9998 14 14.9999 15V16H13.9999L14 15H13V16H11V15H10V16H9V15Z" fill="#0C121C"/>
</svg>
