<svg width="16" height="16" viewBox="0 0 16 16" fill="none" xmlns="http://www.w3.org/2000/svg">
<g clip-path="url(#clip0_878_44801)">
<path fill-rule="evenodd" clip-rule="evenodd" d="M0 0H16V4.50269L12 0.999838V3.99984H8H7.74269L7.59313 4.20922L5.59973 6.99999L6.19299 7.88989L8.25731 4.99984H12V7.99984L16 4.50269V16H0V11.9998H3H3.25731L3.40687 11.7905L4.42786 10.3611L3.81341 9.50083L2.74269 10.9998H0V4.99967H1.74269L6.59313 11.7903L6.74269 11.9997H7H9V14.9998L13 11.5027L9 7.99984V10.9997H7.25731L2.40687 4.20906L2.25731 3.99967H2H0V0Z" fill="#0C121C"/>
</g>
<defs>
<clipPath id="clip0_878_44801">
<rect width="16" height="16" fill="white"/>
</clipPath>
</defs>
</svg>
