<svg width="16" height="16" viewBox="0 0 16 16" fill="none" xmlns="http://www.w3.org/2000/svg">
<g clip-path="url(#clip0_906_27703)">
<path fill-rule="evenodd" clip-rule="evenodd" d="M9 0L5 4.00326L9 8V5C10.9753 5 12.1808 5.26061 12.9 5.8C13.5414 6.28102 14 7.15163 14 9H16C16 6.84837 15.4586 5.21898 14.1 4.2C12.8192 3.23939 11.0247 3 9 3V0ZM3.1 10.2C3.81918 10.7394 5.0247 11 7 11V8L11 11.9967L7 16V13C4.9753 13 3.18082 12.7606 1.9 11.8C0.541366 10.781 0 9.15163 0 7H2C2 8.84837 2.45863 9.71898 3.1 10.2Z" fill="#0C121C"/>
</g>
<defs>
<clipPath id="clip0_906_27703">
<rect width="16" height="16" fill="white"/>
</clipPath>
</defs>
</svg>
